<?xml version="1.0" encoding="utf-8" standalone="no"?>
<!DOCTYPE svg PUBLIC "-//W3C//DTD SVG 1.1//EN"
  "http://www.w3.org/Graphics/SVG/1.1/DTD/svg11.dtd">
<!-- Created with matplotlib (http://matplotlib.org/) -->
<svg height="432pt" version="1.1" viewBox="0 0 576 432" width="576pt" xmlns="http://www.w3.org/2000/svg" xmlns:xlink="http://www.w3.org/1999/xlink">
 <defs>
  <style type="text/css">
*{stroke-linecap:butt;stroke-linejoin:round;}
  </style>
 </defs>
 <g id="figure_1">
  <g id="patch_1">
   <path d="M 0 432 
L 576 432 
L 576 0 
L 0 0 
z
" style="fill:#ffffff;"/>
  </g>
  <g id="axes_1">
   <g id="patch_2">
    <path d="M 73.73 369.7 
L 562.68 369.7 
L 562.68 47.82 
L 73.73 47.82 
z
" style="fill:#ffffff;"/>
   </g>
   <g id="matplotlib.axis_1">
    <g id="xtick_1">
     <g id="line2d_1">
      <path clip-path="url(#p788800cf66)" d="M 95.955 369.7 
L 95.955 47.82 
" style="fill:none;stroke:#bfbfbf;stroke-linecap:square;stroke-width:0.8;"/>
     </g>
     <g id="line2d_2">
      <defs>
       <path d="M 0 0 
L 0 3.5 
" id="me93aabbe0f" style="stroke:#000000;stroke-width:0.8;"/>
      </defs>
      <g>
       <use style="stroke:#000000;stroke-width:0.8;" x="95.955" xlink:href="#me93aabbe0f" y="369.7"/>
      </g>
     </g>
     <g id="text_1">
      <!-- 0.0 -->
      <defs>
       <path d="M 47.21875 31.734375 
Q 47.21875 24.46875 46.0625 18.453125 
Q 44.921875 12.453125 42.25 8.125 
Q 39.59375 3.8125 35.296875 1.4375 
Q 31 -0.921875 24.703125 -0.921875 
Q 18.75 -0.921875 14.671875 1.203125 
Q 10.59375 3.328125 8.09375 7.453125 
Q 5.609375 11.578125 4.5625 17.609375 
Q 3.515625 23.640625 3.515625 31.453125 
Q 3.515625 38.671875 4.6875 44.703125 
Q 5.859375 50.734375 8.5 55.046875 
Q 11.140625 59.375 15.4375 61.734375 
Q 19.734375 64.109375 25.984375 64.109375 
Q 31.984375 64.109375 36.0625 61.984375 
Q 40.140625 59.859375 42.625 55.734375 
Q 45.125 51.609375 46.171875 45.578125 
Q 47.21875 39.546875 47.21875 31.734375 
z
M 38.625 31.15625 
Q 38.625 35.890625 38.28125 39.640625 
Q 37.9375 43.40625 37.28125 46.28125 
Q 36.625 49.171875 35.5625 51.25 
Q 34.515625 53.328125 33.046875 54.65625 
Q 31.59375 56 29.703125 56.609375 
Q 27.828125 57.234375 25.484375 57.234375 
Q 21.34375 57.234375 18.75 55.28125 
Q 16.15625 53.328125 14.671875 49.90625 
Q 13.1875 46.484375 12.640625 41.890625 
Q 12.109375 37.3125 12.109375 32.03125 
Q 12.109375 24.953125 12.84375 20 
Q 13.578125 15.046875 15.15625 11.921875 
Q 16.75 8.796875 19.21875 7.375 
Q 21.6875 5.953125 25.203125 5.953125 
Q 27.9375 5.953125 30 6.828125 
Q 32.078125 7.71875 33.5625 9.34375 
Q 35.0625 10.984375 36.03125 13.28125 
Q 37.015625 15.578125 37.59375 18.359375 
Q 38.1875 21.140625 38.40625 24.390625 
Q 38.625 27.640625 38.625 31.15625 
z
" id="Calibri-30"/>
       <path d="M 17.875 5.328125 
Q 17.875 1.859375 16.71875 0.703125 
Q 15.578125 -0.4375 12.546875 -0.4375 
Q 9.625 -0.4375 8.5 0.6875 
Q 7.375 1.8125 7.375 5.171875 
Q 7.375 8.640625 8.515625 9.78125 
Q 9.671875 10.9375 12.703125 10.9375 
Q 15.625 10.9375 16.75 9.8125 
Q 17.875 8.6875 17.875 5.328125 
z
" id="Calibri-2e"/>
      </defs>
      <g transform="translate(84.55875 393.442813)scale(0.18 -0.18)">
       <use xlink:href="#Calibri-30"/>
       <use x="50.683594" xlink:href="#Calibri-2e"/>
       <use x="75.927734" xlink:href="#Calibri-30"/>
      </g>
     </g>
    </g>
    <g id="xtick_2">
     <g id="line2d_3">
      <path clip-path="url(#p788800cf66)" d="M 184.855 369.7 
L 184.855 47.82 
" style="fill:none;stroke:#bfbfbf;stroke-linecap:square;stroke-width:0.8;"/>
     </g>
     <g id="line2d_4">
      <g>
       <use style="stroke:#000000;stroke-width:0.8;" x="184.855" xlink:href="#me93aabbe0f" y="369.7"/>
      </g>
     </g>
     <g id="text_2">
      <!-- 0.2 -->
      <defs>
       <path d="M 45.125 3.609375 
Q 45.125 2.734375 45 2.046875 
Q 44.875 1.375 44.65625 0.90625 
Q 44.4375 0.4375 44.0625 0.21875 
Q 43.703125 0 43.265625 0 
L 8.34375 0 
Q 7.671875 0 7.15625 0.171875 
Q 6.640625 0.34375 6.265625 0.734375 
Q 5.90625 1.125 5.734375 1.859375 
Q 5.5625 2.59375 5.5625 3.65625 
Q 5.5625 4.640625 5.640625 5.375 
Q 5.71875 6.109375 5.953125 6.671875 
Q 6.203125 7.234375 6.5625 7.78125 
Q 6.9375 8.34375 7.515625 8.984375 
L 19.78125 21.96875 
Q 24.03125 26.46875 26.59375 30.03125 
Q 29.15625 33.59375 30.546875 36.515625 
Q 31.9375 39.453125 32.375 41.84375 
Q 32.8125 44.234375 32.8125 46.34375 
Q 32.8125 48.4375 32.125 50.3125 
Q 31.453125 52.203125 30.15625 53.609375 
Q 28.859375 55.03125 26.90625 55.859375 
Q 24.953125 56.6875 22.40625 56.6875 
Q 19.4375 56.6875 17.0625 55.859375 
Q 14.703125 55.03125 12.921875 54.046875 
Q 11.140625 53.078125 9.9375 52.25 
Q 8.734375 51.421875 8.15625 51.421875 
Q 7.8125 51.421875 7.546875 51.609375 
Q 7.28125 51.8125 7.109375 52.25 
Q 6.9375 52.6875 6.828125 53.421875 
Q 6.734375 54.15625 6.734375 55.171875 
Q 6.734375 55.90625 6.78125 56.4375 
Q 6.84375 56.984375 6.953125 57.375 
Q 7.078125 57.765625 7.265625 58.109375 
Q 7.46875 58.453125 8.046875 58.953125 
Q 8.640625 59.46875 10.078125 60.34375 
Q 11.53125 61.234375 13.703125 62.078125 
Q 15.875 62.9375 18.484375 63.515625 
Q 21.09375 64.109375 23.96875 64.109375 
Q 28.5625 64.109375 32 62.8125 
Q 35.453125 61.53125 37.71875 59.28125 
Q 39.984375 57.03125 41.109375 54.046875 
Q 42.234375 51.078125 42.234375 47.703125 
Q 42.234375 44.671875 41.6875 41.671875 
Q 41.15625 38.671875 39.421875 35.171875 
Q 37.703125 31.6875 34.421875 27.40625 
Q 31.15625 23.140625 25.734375 17.578125 
L 15.71875 7.125 
L 43.21875 7.125 
Q 43.609375 7.125 43.96875 6.90625 
Q 44.34375 6.6875 44.609375 6.25 
Q 44.875 5.8125 45 5.15625 
Q 45.125 4.5 45.125 3.609375 
z
" id="Calibri-32"/>
      </defs>
      <g transform="translate(173.45875 393.442813)scale(0.18 -0.18)">
       <use xlink:href="#Calibri-30"/>
       <use x="50.683594" xlink:href="#Calibri-2e"/>
       <use x="75.927734" xlink:href="#Calibri-32"/>
      </g>
     </g>
    </g>
    <g id="xtick_3">
     <g id="line2d_5">
      <path clip-path="url(#p788800cf66)" d="M 273.755 369.7 
L 273.755 47.82 
" style="fill:none;stroke:#bfbfbf;stroke-linecap:square;stroke-width:0.8;"/>
     </g>
     <g id="line2d_6">
      <g>
       <use style="stroke:#000000;stroke-width:0.8;" x="273.755" xlink:href="#me93aabbe0f" y="369.7"/>
      </g>
     </g>
     <g id="text_3">
      <!-- 0.4 -->
      <defs>
       <path d="M 47.796875 17.96875 
Q 47.796875 16.359375 47.3125 15.421875 
Q 46.828125 14.5 45.953125 14.5 
L 38.8125 14.5 
L 38.8125 1.21875 
Q 38.8125 0.828125 38.609375 0.5625 
Q 38.421875 0.296875 37.9375 0.09375 
Q 37.453125 -0.09375 36.671875 -0.1875 
Q 35.890625 -0.296875 34.671875 -0.296875 
Q 33.5 -0.296875 32.71875 -0.1875 
Q 31.9375 -0.09375 31.46875 0.09375 
Q 31 0.296875 30.828125 0.5625 
Q 30.671875 0.828125 30.671875 1.21875 
L 30.671875 14.5 
L 4.59375 14.5 
Q 4 14.5 3.609375 14.640625 
Q 3.21875 14.796875 2.90625 15.1875 
Q 2.59375 15.578125 2.46875 16.3125 
Q 2.34375 17.046875 2.34375 18.21875 
Q 2.34375 19.140625 2.390625 19.875 
Q 2.4375 20.609375 2.578125 21.21875 
Q 2.734375 21.828125 2.96875 22.390625 
Q 3.21875 22.953125 3.5625 23.578125 
L 26.3125 61.96875 
Q 26.5625 62.359375 27.015625 62.640625 
Q 27.484375 62.9375 28.21875 63.125 
Q 28.953125 63.328125 30.03125 63.40625 
Q 31.109375 63.484375 32.5625 63.484375 
Q 34.1875 63.484375 35.375 63.359375 
Q 36.578125 63.234375 37.296875 63.03125 
Q 38.03125 62.84375 38.421875 62.515625 
Q 38.8125 62.203125 38.8125 61.765625 
L 38.8125 21.4375 
L 45.953125 21.4375 
Q 46.78125 21.4375 47.28125 20.578125 
Q 47.796875 19.734375 47.796875 17.96875 
z
M 30.671875 56.109375 
L 30.5625 56.109375 
L 10.015625 21.4375 
L 30.671875 21.4375 
z
" id="Calibri-34"/>
      </defs>
      <g transform="translate(262.35875 393.442813)scale(0.18 -0.18)">
       <use xlink:href="#Calibri-30"/>
       <use x="50.683594" xlink:href="#Calibri-2e"/>
       <use x="75.927734" xlink:href="#Calibri-34"/>
      </g>
     </g>
    </g>
    <g id="xtick_4">
     <g id="line2d_7">
      <path clip-path="url(#p788800cf66)" d="M 362.655 369.7 
L 362.655 47.82 
" style="fill:none;stroke:#bfbfbf;stroke-linecap:square;stroke-width:0.8;"/>
     </g>
     <g id="line2d_8">
      <g>
       <use style="stroke:#000000;stroke-width:0.8;" x="362.655" xlink:href="#me93aabbe0f" y="369.7"/>
      </g>
     </g>
     <g id="text_4">
      <!-- 0.6 -->
      <defs>
       <path d="M 46.734375 20.453125 
Q 46.734375 16.3125 45.453125 12.421875 
Q 44.1875 8.546875 41.546875 5.59375 
Q 38.921875 2.640625 34.859375 0.859375 
Q 30.8125 -0.921875 25.296875 -0.921875 
Q 21.34375 -0.921875 18.3125 0.046875 
Q 15.28125 1.03125 13.03125 2.828125 
Q 10.796875 4.640625 9.296875 7.265625 
Q 7.8125 9.90625 6.90625 13.28125 
Q 6 16.65625 5.609375 20.65625 
Q 5.21875 24.65625 5.21875 29.25 
Q 5.21875 33.296875 5.65625 37.453125 
Q 6.109375 41.609375 7.21875 45.453125 
Q 8.34375 49.3125 10.265625 52.703125 
Q 12.203125 56.109375 15.109375 58.625 
Q 18.015625 61.140625 22.0625 62.59375 
Q 26.125 64.0625 31.5 64.0625 
Q 33.296875 64.0625 35.15625 63.84375 
Q 37.015625 63.625 38.578125 63.25 
Q 40.140625 62.890625 41.203125 62.453125 
Q 42.28125 62.015625 42.625 61.734375 
Q 42.96875 61.46875 43.140625 61.15625 
Q 43.3125 60.84375 43.40625 60.46875 
Q 43.5 60.109375 43.546875 59.640625 
Q 43.609375 59.1875 43.609375 58.5 
Q 43.609375 57.625 43.578125 56.984375 
Q 43.5625 56.34375 43.390625 55.953125 
Q 43.21875 55.5625 42.9375 55.359375 
Q 42.671875 55.171875 42.234375 55.171875 
Q 41.703125 55.171875 40.765625 55.515625 
Q 39.84375 55.859375 38.515625 56.265625 
Q 37.203125 56.6875 35.328125 57.03125 
Q 33.453125 57.375 30.953125 57.375 
Q 26.421875 57.375 23.140625 55.515625 
Q 19.875 53.65625 17.796875 50.53125 
Q 15.71875 47.40625 14.71875 43.28125 
Q 13.71875 39.15625 13.578125 34.671875 
Q 14.84375 35.40625 16.421875 36.125 
Q 18.015625 36.859375 19.890625 37.4375 
Q 21.78125 38.03125 23.875 38.390625 
Q 25.984375 38.765625 28.375 38.765625 
Q 33.5 38.765625 37.015625 37.375 
Q 40.53125 35.984375 42.703125 33.515625 
Q 44.875 31.0625 45.796875 27.703125 
Q 46.734375 24.359375 46.734375 20.453125 
z
M 38.234375 19.671875 
Q 38.234375 22.515625 37.671875 24.828125 
Q 37.109375 27.15625 35.78125 28.765625 
Q 34.46875 30.375 32.265625 31.25 
Q 30.078125 32.125 26.859375 32.125 
Q 25.046875 32.125 23.234375 31.8125 
Q 21.4375 31.5 19.75 30.9375 
Q 18.0625 30.375 16.515625 29.609375 
Q 14.984375 28.859375 13.71875 27.984375 
Q 13.71875 21.6875 14.515625 17.4375 
Q 15.328125 13.1875 16.859375 10.625 
Q 18.40625 8.0625 20.703125 6.953125 
Q 23 5.859375 26.078125 5.859375 
Q 29.203125 5.859375 31.5 7.03125 
Q 33.796875 8.203125 35.296875 10.171875 
Q 36.8125 12.15625 37.515625 14.625 
Q 38.234375 17.09375 38.234375 19.671875 
z
" id="Calibri-36"/>
      </defs>
      <g transform="translate(351.25875 393.442813)scale(0.18 -0.18)">
       <use xlink:href="#Calibri-30"/>
       <use x="50.683594" xlink:href="#Calibri-2e"/>
       <use x="75.927734" xlink:href="#Calibri-36"/>
      </g>
     </g>
    </g>
    <g id="xtick_5">
     <g id="line2d_9">
      <path clip-path="url(#p788800cf66)" d="M 451.555 369.7 
L 451.555 47.82 
" style="fill:none;stroke:#bfbfbf;stroke-linecap:square;stroke-width:0.8;"/>
     </g>
     <g id="line2d_10">
      <g>
       <use style="stroke:#000000;stroke-width:0.8;" x="451.555" xlink:href="#me93aabbe0f" y="369.7"/>
      </g>
     </g>
     <g id="text_5">
      <!-- 0.8 -->
      <defs>
       <path d="M 46.578125 16.21875 
Q 46.578125 12.109375 45.109375 8.90625 
Q 43.65625 5.71875 40.890625 3.515625 
Q 38.140625 1.3125 34.078125 0.1875 
Q 30.03125 -0.921875 24.8125 -0.921875 
Q 19.921875 -0.921875 16.0625 0.09375 
Q 12.203125 1.125 9.515625 3.125 
Q 6.84375 5.125 5.421875 8.046875 
Q 4 10.984375 4 14.75 
Q 4 17.71875 4.96875 20.203125 
Q 5.953125 22.703125 7.78125 24.796875 
Q 9.625 26.90625 12.296875 28.734375 
Q 14.984375 30.5625 18.359375 32.234375 
Q 15.4375 33.734375 13.1875 35.421875 
Q 10.9375 37.109375 9.375 39.078125 
Q 7.8125 41.0625 7 43.3125 
Q 6.203125 45.5625 6.203125 48.1875 
Q 6.203125 51.515625 7.390625 54.421875 
Q 8.59375 57.328125 11 59.46875 
Q 13.421875 61.625 17.15625 62.859375 
Q 20.90625 64.109375 25.875 64.109375 
Q 30.671875 64.109375 34.15625 62.953125 
Q 37.640625 61.8125 39.90625 59.828125 
Q 42.1875 57.859375 43.265625 55.171875 
Q 44.34375 52.484375 44.34375 49.421875 
Q 44.34375 46.921875 43.53125 44.625 
Q 42.71875 42.328125 41.15625 40.28125 
Q 39.59375 38.234375 37.328125 36.453125 
Q 35.0625 34.671875 32.125 33.109375 
Q 35.59375 31.390625 38.296875 29.578125 
Q 41.015625 27.78125 42.84375 25.703125 
Q 44.671875 23.640625 45.625 21.3125 
Q 46.578125 19 46.578125 16.21875 
z
M 36.03125 48.640625 
Q 36.03125 50.6875 35.328125 52.34375 
Q 34.625 54 33.25 55.171875 
Q 31.890625 56.34375 29.859375 56.953125 
Q 27.828125 57.5625 25.25 57.5625 
Q 19.96875 57.5625 17.25 55.171875 
Q 14.546875 52.78125 14.546875 48.640625 
Q 14.546875 46.734375 15.203125 45.09375 
Q 15.875 43.453125 17.265625 41.984375 
Q 18.65625 40.53125 20.78125 39.140625 
Q 22.90625 37.75 25.828125 36.234375 
Q 30.765625 38.765625 33.390625 41.84375 
Q 36.03125 44.921875 36.03125 48.640625 
z
M 38.09375 15.328125 
Q 38.09375 17.578125 37.25 19.40625 
Q 36.421875 21.234375 34.734375 22.828125 
Q 33.0625 24.421875 30.546875 25.90625 
Q 28.03125 27.390625 24.703125 29 
Q 21.625 27.484375 19.3125 25.96875 
Q 17 24.46875 15.5 22.84375 
Q 14.015625 21.234375 13.25 19.453125 
Q 12.5 17.671875 12.5 15.53125 
Q 12.5 10.796875 15.75 8.203125 
Q 19 5.609375 25.4375 5.609375 
Q 31.6875 5.609375 34.890625 8.21875 
Q 38.09375 10.84375 38.09375 15.328125 
z
" id="Calibri-38"/>
      </defs>
      <g transform="translate(440.15875 393.442813)scale(0.18 -0.18)">
       <use xlink:href="#Calibri-30"/>
       <use x="50.683594" xlink:href="#Calibri-2e"/>
       <use x="75.927734" xlink:href="#Calibri-38"/>
      </g>
     </g>
    </g>
    <g id="xtick_6">
     <g id="line2d_11">
      <path clip-path="url(#p788800cf66)" d="M 540.455 369.7 
L 540.455 47.82 
" style="fill:none;stroke:#bfbfbf;stroke-linecap:square;stroke-width:0.8;"/>
     </g>
     <g id="line2d_12">
      <g>
       <use style="stroke:#000000;stroke-width:0.8;" x="540.455" xlink:href="#me93aabbe0f" y="369.7"/>
      </g>
     </g>
     <g id="text_6">
      <!-- 1.0 -->
      <defs>
       <path d="M 45.265625 3.328125 
Q 45.265625 2.390625 45.109375 1.75 
Q 44.96875 1.125 44.71875 0.734375 
Q 44.484375 0.34375 44.15625 0.171875 
Q 43.84375 0 43.5 0 
L 10.5 0 
Q 10.15625 0 9.859375 0.171875 
Q 9.578125 0.34375 9.296875 0.734375 
Q 9.03125 1.125 8.875 1.75 
Q 8.734375 2.390625 8.734375 3.328125 
Q 8.734375 4.203125 8.875 4.828125 
Q 9.03125 5.46875 9.25 5.875 
Q 9.46875 6.296875 9.78125 6.515625 
Q 10.109375 6.734375 10.5 6.734375 
L 23.6875 6.734375 
L 23.6875 54.78125 
L 11.46875 47.515625 
Q 10.546875 47.015625 9.984375 46.921875 
Q 9.421875 46.828125 9.078125 47.140625 
Q 8.734375 47.46875 8.609375 48.1875 
Q 8.5 48.921875 8.5 50.046875 
Q 8.5 50.875 8.5625 51.453125 
Q 8.640625 52.046875 8.78125 52.4375 
Q 8.9375 52.828125 9.203125 53.125 
Q 9.46875 53.421875 9.90625 53.71875 
L 24.46875 63.03125 
Q 24.65625 63.1875 24.953125 63.28125 
Q 25.25 63.375 25.6875 63.46875 
Q 26.125 63.578125 26.703125 63.59375 
Q 27.296875 63.625 28.171875 63.625 
Q 29.34375 63.625 30.125 63.515625 
Q 30.90625 63.421875 31.34375 63.25 
Q 31.78125 63.09375 31.921875 62.8125 
Q 32.078125 62.546875 32.078125 62.25 
L 32.078125 6.734375 
L 43.5 6.734375 
Q 43.890625 6.734375 44.234375 6.515625 
Q 44.578125 6.296875 44.796875 5.875 
Q 45.015625 5.46875 45.140625 4.828125 
Q 45.265625 4.203125 45.265625 3.328125 
z
" id="Calibri-31"/>
      </defs>
      <g transform="translate(529.05875 393.442813)scale(0.18 -0.18)">
       <use xlink:href="#Calibri-31"/>
       <use x="50.683594" xlink:href="#Calibri-2e"/>
       <use x="75.927734" xlink:href="#Calibri-30"/>
      </g>
     </g>
    </g>
    <g id="xtick_7">
     <g id="line2d_13">
      <defs>
       <path d="M 0 0 
L 0 2 
" id="m4919b02e99" style="stroke:#000000;stroke-width:0.6;"/>
      </defs>
      <g>
       <use style="stroke:#000000;stroke-width:0.6;" x="118.18" xlink:href="#m4919b02e99" y="369.7"/>
      </g>
     </g>
    </g>
    <g id="xtick_8">
     <g id="line2d_14">
      <g>
       <use style="stroke:#000000;stroke-width:0.6;" x="140.405" xlink:href="#m4919b02e99" y="369.7"/>
      </g>
     </g>
    </g>
    <g id="xtick_9">
     <g id="line2d_15">
      <g>
       <use style="stroke:#000000;stroke-width:0.6;" x="162.63" xlink:href="#m4919b02e99" y="369.7"/>
      </g>
     </g>
    </g>
    <g id="xtick_10">
     <g id="line2d_16">
      <g>
       <use style="stroke:#000000;stroke-width:0.6;" x="184.855" xlink:href="#m4919b02e99" y="369.7"/>
      </g>
     </g>
    </g>
    <g id="xtick_11">
     <g id="line2d_17">
      <g>
       <use style="stroke:#000000;stroke-width:0.6;" x="207.08" xlink:href="#m4919b02e99" y="369.7"/>
      </g>
     </g>
    </g>
    <g id="xtick_12">
     <g id="line2d_18">
      <g>
       <use style="stroke:#000000;stroke-width:0.6;" x="229.305" xlink:href="#m4919b02e99" y="369.7"/>
      </g>
     </g>
    </g>
    <g id="xtick_13">
     <g id="line2d_19">
      <g>
       <use style="stroke:#000000;stroke-width:0.6;" x="251.53" xlink:href="#m4919b02e99" y="369.7"/>
      </g>
     </g>
    </g>
    <g id="xtick_14">
     <g id="line2d_20">
      <g>
       <use style="stroke:#000000;stroke-width:0.6;" x="273.755" xlink:href="#m4919b02e99" y="369.7"/>
      </g>
     </g>
    </g>
    <g id="xtick_15">
     <g id="line2d_21">
      <g>
       <use style="stroke:#000000;stroke-width:0.6;" x="295.98" xlink:href="#m4919b02e99" y="369.7"/>
      </g>
     </g>
    </g>
    <g id="xtick_16">
     <g id="line2d_22">
      <g>
       <use style="stroke:#000000;stroke-width:0.6;" x="318.205" xlink:href="#m4919b02e99" y="369.7"/>
      </g>
     </g>
    </g>
    <g id="xtick_17">
     <g id="line2d_23">
      <g>
       <use style="stroke:#000000;stroke-width:0.6;" x="340.43" xlink:href="#m4919b02e99" y="369.7"/>
      </g>
     </g>
    </g>
    <g id="xtick_18">
     <g id="line2d_24">
      <g>
       <use style="stroke:#000000;stroke-width:0.6;" x="362.655" xlink:href="#m4919b02e99" y="369.7"/>
      </g>
     </g>
    </g>
    <g id="xtick_19">
     <g id="line2d_25">
      <g>
       <use style="stroke:#000000;stroke-width:0.6;" x="384.88" xlink:href="#m4919b02e99" y="369.7"/>
      </g>
     </g>
    </g>
    <g id="xtick_20">
     <g id="line2d_26">
      <g>
       <use style="stroke:#000000;stroke-width:0.6;" x="407.105" xlink:href="#m4919b02e99" y="369.7"/>
      </g>
     </g>
    </g>
    <g id="xtick_21">
     <g id="line2d_27">
      <g>
       <use style="stroke:#000000;stroke-width:0.6;" x="429.33" xlink:href="#m4919b02e99" y="369.7"/>
      </g>
     </g>
    </g>
    <g id="xtick_22">
     <g id="line2d_28">
      <g>
       <use style="stroke:#000000;stroke-width:0.6;" x="451.555" xlink:href="#m4919b02e99" y="369.7"/>
      </g>
     </g>
    </g>
    <g id="xtick_23">
     <g id="line2d_29">
      <g>
       <use style="stroke:#000000;stroke-width:0.6;" x="473.78" xlink:href="#m4919b02e99" y="369.7"/>
      </g>
     </g>
    </g>
    <g id="xtick_24">
     <g id="line2d_30">
      <g>
       <use style="stroke:#000000;stroke-width:0.6;" x="496.005" xlink:href="#m4919b02e99" y="369.7"/>
      </g>
     </g>
    </g>
    <g id="xtick_25">
     <g id="line2d_31">
      <g>
       <use style="stroke:#000000;stroke-width:0.6;" x="518.23" xlink:href="#m4919b02e99" y="369.7"/>
      </g>
     </g>
    </g>
    <g id="xtick_26">
     <g id="line2d_32">
      <g>
       <use style="stroke:#000000;stroke-width:0.6;" x="540.455" xlink:href="#m4919b02e99" y="369.7"/>
      </g>
     </g>
    </g>
    <g id="text_7">
     <!-- $x=\sin \phi$ -->
     <defs>
      <path d="M 27.203125 23.640625 
L 36.765625 2.15625 
Q 37.0625 1.46875 36.984375 1 
Q 36.921875 0.53125 36.375 0.234375 
Q 35.84375 -0.046875 34.890625 -0.171875 
Q 33.9375 -0.296875 32.421875 -0.296875 
Q 31.0625 -0.296875 30.28125 -0.21875 
Q 29.5 -0.140625 29.046875 0.03125 
Q 28.609375 0.203125 28.46875 0.46875 
Q 28.328125 0.734375 28.171875 1.078125 
L 20.84375 18.40625 
L 7.03125 1.078125 
Q 6.734375 0.734375 6.421875 0.46875 
Q 6.109375 0.203125 5.515625 0.046875 
Q 4.9375 -0.09375 4.03125 -0.1875 
Q 3.125 -0.296875 1.65625 -0.296875 
Q 0.25 -0.296875 -0.625 -0.171875 
Q -1.515625 -0.046875 -1.921875 0.234375 
Q -2.34375 0.53125 -2.265625 0.96875 
Q -2.203125 1.421875 -1.703125 2.09375 
L 16.546875 23.78125 
L 7.515625 44.28125 
Q 7.234375 44.96875 7.28125 45.4375 
Q 7.328125 45.90625 7.78125 46.1875 
Q 8.25 46.484375 9.171875 46.578125 
Q 10.109375 46.6875 11.625 46.6875 
Q 12.984375 46.6875 13.765625 46.609375 
Q 14.546875 46.53125 14.953125 46.375 
Q 15.375 46.234375 15.546875 45.984375 
Q 15.71875 45.75 15.875 45.40625 
L 22.859375 29 
L 36.03125 45.40625 
Q 36.328125 45.703125 36.625 45.9375 
Q 36.921875 46.1875 37.453125 46.359375 
Q 37.984375 46.53125 38.78125 46.609375 
Q 39.59375 46.6875 40.921875 46.6875 
Q 42.390625 46.6875 43.3125 46.578125 
Q 44.234375 46.484375 44.671875 46.234375 
Q 45.125 46 45.046875 45.53125 
Q 44.96875 45.0625 44.34375 44.390625 
z
" id="Calibri-Italic-78"/>
      <path d="M 45.171875 37.640625 
Q 45.171875 35.6875 44.609375 34.9375 
Q 44.046875 34.1875 43.3125 34.1875 
L 6.390625 34.1875 
Q 5.671875 34.1875 5.125 34.9375 
Q 4.59375 35.6875 4.59375 37.640625 
Q 4.59375 39.40625 5.078125 40.234375 
Q 5.5625 41.0625 6.390625 41.0625 
L 43.3125 41.0625 
Q 44.1875 41.0625 44.671875 40.234375 
Q 45.171875 39.40625 45.171875 37.640625 
z
M 45.171875 18.65625 
Q 45.171875 16.703125 44.609375 15.96875 
Q 44.046875 15.234375 43.3125 15.234375 
L 6.390625 15.234375 
Q 5.671875 15.234375 5.125 15.96875 
Q 4.59375 16.703125 4.59375 18.65625 
Q 4.59375 20.453125 5.078125 21.28125 
Q 5.5625 22.125 6.390625 22.125 
L 43.3125 22.125 
Q 44.1875 22.125 44.671875 21.28125 
Q 45.171875 20.453125 45.171875 18.65625 
z
" id="Calibri-3d"/>
      <path d="M 35.0625 13.1875 
Q 35.0625 9.8125 33.8125 7.171875 
Q 32.5625 4.546875 30.265625 2.734375 
Q 27.984375 0.921875 24.796875 0 
Q 21.625 -0.921875 17.828125 -0.921875 
Q 15.484375 -0.921875 13.359375 -0.5625 
Q 11.234375 -0.203125 9.546875 0.359375 
Q 7.859375 0.921875 6.6875 1.53125 
Q 5.515625 2.15625 4.96875 2.640625 
Q 4.4375 3.125 4.1875 4 
Q 3.953125 4.890625 3.953125 6.390625 
Q 3.953125 7.328125 4.046875 7.953125 
Q 4.15625 8.59375 4.296875 8.984375 
Q 4.4375 9.375 4.703125 9.546875 
Q 4.984375 9.71875 5.328125 9.71875 
Q 5.859375 9.71875 6.90625 9.0625 
Q 7.953125 8.40625 9.484375 7.625 
Q 11.03125 6.84375 13.125 6.171875 
Q 15.234375 5.515625 17.96875 5.515625 
Q 20.015625 5.515625 21.671875 5.953125 
Q 23.34375 6.390625 24.5625 7.25 
Q 25.78125 8.109375 26.4375 9.421875 
Q 27.09375 10.75 27.09375 12.546875 
Q 27.09375 14.40625 26.140625 15.671875 
Q 25.203125 16.9375 23.640625 17.90625 
Q 22.078125 18.890625 20.125 19.640625 
Q 18.171875 20.40625 16.09375 21.234375 
Q 14.015625 22.078125 12.03125 23.125 
Q 10.0625 24.171875 8.5 25.6875 
Q 6.9375 27.203125 5.984375 29.296875 
Q 5.03125 31.390625 5.03125 34.328125 
Q 5.03125 36.921875 6.03125 39.28125 
Q 7.03125 41.65625 9.03125 43.4375 
Q 11.03125 45.21875 14.03125 46.28125 
Q 17.046875 47.359375 21.046875 47.359375 
Q 22.796875 47.359375 24.546875 47.0625 
Q 26.3125 46.78125 27.734375 46.34375 
Q 29.15625 45.90625 30.15625 45.390625 
Q 31.15625 44.875 31.65625 44.484375 
Q 32.171875 44.09375 32.34375 43.796875 
Q 32.515625 43.5 32.59375 43.140625 
Q 32.671875 42.78125 32.734375 42.234375 
Q 32.8125 41.703125 32.8125 40.921875 
Q 32.8125 40.09375 32.734375 39.484375 
Q 32.671875 38.875 32.5 38.484375 
Q 32.328125 38.09375 32.078125 37.921875 
Q 31.84375 37.75 31.546875 37.75 
Q 31.109375 37.75 30.265625 38.28125 
Q 29.4375 38.8125 28.125 39.421875 
Q 26.8125 40.046875 25.03125 40.578125 
Q 23.25 41.109375 20.953125 41.109375 
Q 18.890625 41.109375 17.328125 40.640625 
Q 15.765625 40.1875 14.765625 39.328125 
Q 13.765625 38.484375 13.25 37.3125 
Q 12.75 36.140625 12.75 34.765625 
Q 12.75 32.859375 13.71875 31.5625 
Q 14.703125 30.28125 16.265625 29.296875 
Q 17.828125 28.328125 19.828125 27.546875 
Q 21.828125 26.765625 23.90625 25.921875 
Q 25.984375 25.09375 28 24.0625 
Q 30.03125 23.046875 31.59375 21.578125 
Q 33.15625 20.125 34.109375 18.0625 
Q 35.0625 16.015625 35.0625 13.1875 
z
" id="Calibri-73"/>
      <path d="M 15.53125 1.21875 
Q 15.53125 0.828125 15.328125 0.5625 
Q 15.140625 0.296875 14.703125 0.09375 
Q 14.265625 -0.09375 13.484375 -0.1875 
Q 12.703125 -0.296875 11.46875 -0.296875 
Q 10.296875 -0.296875 9.515625 -0.1875 
Q 8.734375 -0.09375 8.265625 0.09375 
Q 7.8125 0.296875 7.640625 0.5625 
Q 7.46875 0.828125 7.46875 1.21875 
L 7.46875 45.171875 
Q 7.46875 45.515625 7.640625 45.796875 
Q 7.8125 46.09375 8.265625 46.28125 
Q 8.734375 46.484375 9.515625 46.578125 
Q 10.296875 46.6875 11.46875 46.6875 
Q 12.703125 46.6875 13.484375 46.578125 
Q 14.265625 46.484375 14.703125 46.28125 
Q 15.140625 46.09375 15.328125 45.796875 
Q 15.53125 45.515625 15.53125 45.171875 
z
M 16.453125 60.015625 
Q 16.453125 57.171875 15.375 56.140625 
Q 14.3125 55.125 11.421875 55.125 
Q 8.59375 55.125 7.546875 56.125 
Q 6.5 57.125 6.5 59.90625 
Q 6.5 62.75 7.5625 63.765625 
Q 8.640625 64.796875 11.53125 64.796875 
Q 14.359375 64.796875 15.40625 63.796875 
Q 16.453125 62.796875 16.453125 60.015625 
z
" id="Calibri-69"/>
      <path d="M 45.3125 1.21875 
Q 45.3125 0.828125 45.109375 0.5625 
Q 44.921875 0.296875 44.484375 0.09375 
Q 44.046875 -0.09375 43.265625 -0.1875 
Q 42.484375 -0.296875 41.3125 -0.296875 
Q 40.09375 -0.296875 39.3125 -0.1875 
Q 38.53125 -0.09375 38.078125 0.09375 
Q 37.640625 0.296875 37.4375 0.5625 
Q 37.25 0.828125 37.25 1.21875 
L 37.25 26.953125 
Q 37.25 30.71875 36.65625 33 
Q 36.078125 35.296875 34.953125 36.953125 
Q 33.84375 38.625 32.0625 39.5 
Q 30.28125 40.375 27.9375 40.375 
Q 24.90625 40.375 21.875 38.21875 
Q 18.84375 36.078125 15.53125 31.9375 
L 15.53125 1.21875 
Q 15.53125 0.828125 15.328125 0.5625 
Q 15.140625 0.296875 14.703125 0.09375 
Q 14.265625 -0.09375 13.484375 -0.1875 
Q 12.703125 -0.296875 11.46875 -0.296875 
Q 10.296875 -0.296875 9.515625 -0.1875 
Q 8.734375 -0.09375 8.265625 0.09375 
Q 7.8125 0.296875 7.640625 0.5625 
Q 7.46875 0.828125 7.46875 1.21875 
L 7.46875 45.171875 
Q 7.46875 45.5625 7.609375 45.828125 
Q 7.765625 46.09375 8.203125 46.3125 
Q 8.640625 46.53125 9.328125 46.609375 
Q 10.015625 46.6875 11.140625 46.6875 
Q 12.203125 46.6875 12.90625 46.609375 
Q 13.625 46.53125 14.015625 46.3125 
Q 14.40625 46.09375 14.578125 45.828125 
Q 14.75 45.5625 14.75 45.171875 
L 14.75 39.359375 
Q 18.453125 43.5 22.140625 45.421875 
Q 25.828125 47.359375 29.59375 47.359375 
Q 33.984375 47.359375 36.984375 45.875 
Q 39.984375 44.390625 41.84375 41.890625 
Q 43.703125 39.40625 44.5 36.0625 
Q 45.3125 32.71875 45.3125 28.03125 
z
" id="Calibri-6e"/>
      <path d="M 23.78125 -0.921875 
Q 14.15625 -0.34375 8.875 4.03125 
Q 3.609375 8.40625 3.609375 16.609375 
Q 3.609375 19.78125 4.21875 23.21875 
Q 4.828125 26.65625 6.21875 29.953125 
Q 7.625 33.25 9.859375 36.25 
Q 12.109375 39.265625 15.421875 41.609375 
Q 18.75 43.953125 23.21875 45.484375 
Q 27.6875 47.015625 33.453125 47.3125 
L 37.3125 66.453125 
Q 37.359375 66.84375 37.625 67.140625 
Q 37.890625 67.4375 38.375 67.625 
Q 38.875 67.828125 39.703125 67.921875 
Q 40.53125 68.015625 41.703125 68.015625 
Q 44.046875 68.015625 44.78125 67.625 
Q 45.515625 67.234375 45.40625 66.453125 
L 41.5 47.3125 
Q 51.46875 46.734375 56.59375 42.28125 
Q 61.71875 37.84375 61.71875 29.890625 
Q 61.71875 26.65625 61.125 23.21875 
Q 60.546875 19.78125 59.15625 16.453125 
Q 57.765625 13.140625 55.484375 10.125 
Q 53.21875 7.125 49.890625 4.78125 
Q 46.578125 2.4375 42.078125 0.890625 
Q 37.59375 -0.640625 31.84375 -0.921875 
L 28.8125 -16.21875 
Q 28.65625 -16.609375 28.4375 -16.890625 
Q 28.21875 -17.1875 27.734375 -17.375 
Q 27.25 -17.578125 26.4375 -17.671875 
Q 25.640625 -17.78125 24.515625 -17.78125 
Q 22.3125 -17.78125 21.40625 -17.40625 
Q 20.515625 -17.046875 20.703125 -16.21875 
z
M 33.15625 5.671875 
Q 37.59375 5.953125 40.8125 7.3125 
Q 44.046875 8.6875 46.28125 10.71875 
Q 48.53125 12.75 49.921875 15.234375 
Q 51.3125 17.71875 52.09375 20.203125 
Q 52.875 22.703125 53.140625 25 
Q 53.421875 27.296875 53.421875 29 
Q 53.421875 30.8125 52.984375 32.78125 
Q 52.546875 34.765625 51.140625 36.421875 
Q 49.75 38.09375 47.140625 39.28125 
Q 44.53125 40.484375 40.140625 40.71875 
z
M 32.171875 40.71875 
Q 27.734375 40.4375 24.515625 39.0625 
Q 21.296875 37.703125 19.046875 35.671875 
Q 16.796875 33.640625 15.40625 31.140625 
Q 14.015625 28.65625 13.234375 26.1875 
Q 12.453125 23.734375 12.1875 21.390625 
Q 11.921875 19.046875 11.921875 17.390625 
Q 11.921875 15.578125 12.359375 13.59375 
Q 12.796875 11.625 14.1875 9.953125 
Q 15.578125 8.296875 18.1875 7.09375 
Q 20.796875 5.90625 25.203125 5.671875 
z
" id="Calibri-Italic-3d5"/>
     </defs>
     <g transform="translate(289.23 413.753438)scale(0.19 -0.19)">
      <use transform="translate(0 0.984375)" xlink:href="#Calibri-Italic-78"/>
      <use transform="translate(59.130859 0.984375)" xlink:href="#Calibri-3d"/>
      <use transform="translate(124.755859 0.984375)" xlink:href="#Calibri-73"/>
      <use transform="translate(163.867188 0.984375)" xlink:href="#Calibri-69"/>
      <use transform="translate(186.816406 0.984375)" xlink:href="#Calibri-6e"/>
      <use transform="translate(239.355469 0.984375)" xlink:href="#Calibri-Italic-3d5"/>
     </g>
    </g>
   </g>
   <g id="matplotlib.axis_2">
    <g id="ytick_1">
     <g id="line2d_33">
      <path clip-path="url(#p788800cf66)" d="M 73.73 354.598214 
L 562.68 354.598214 
" style="fill:none;stroke:#bfbfbf;stroke-linecap:square;stroke-width:0.8;"/>
     </g>
     <g id="line2d_34">
      <defs>
       <path d="M 0 0 
L -3.5 0 
" id="m45cd0b6574" style="stroke:#000000;stroke-width:0.8;"/>
      </defs>
      <g>
       <use style="stroke:#000000;stroke-width:0.8;" x="73.73" xlink:href="#m45cd0b6574" y="354.598214"/>
      </g>
     </g>
     <g id="text_8">
      <!-- −15 -->
      <defs>
       <path d="M 45.84375 28.078125 
Q 45.84375 26.265625 45.375 25.4375 
Q 44.921875 24.609375 44.046875 24.609375 
L 5.5625 24.609375 
Q 4.640625 24.609375 4.171875 25.4375 
Q 3.71875 26.265625 3.71875 28.078125 
Q 3.71875 29.828125 4.171875 30.6875 
Q 4.640625 31.546875 5.5625 31.546875 
L 44.046875 31.546875 
Q 44.921875 31.546875 45.375 30.71875 
Q 45.84375 29.890625 45.84375 28.078125 
z
" id="Calibri-2212"/>
       <path d="M 44.828125 20.3125 
Q 44.828125 15.234375 43.109375 11.28125 
Q 41.40625 7.328125 38.28125 4.609375 
Q 35.15625 1.90625 30.828125 0.484375 
Q 26.515625 -0.921875 21.234375 -0.921875 
Q 18.3125 -0.921875 15.671875 -0.5 
Q 13.03125 -0.09375 10.984375 0.515625 
Q 8.9375 1.125 7.609375 1.703125 
Q 6.296875 2.296875 5.921875 2.640625 
Q 5.5625 2.984375 5.421875 3.265625 
Q 5.28125 3.5625 5.15625 3.96875 
Q 5.03125 4.390625 4.984375 5.03125 
Q 4.9375 5.671875 4.9375 6.546875 
Q 4.9375 7.375 5 8.03125 
Q 5.078125 8.6875 5.265625 9.09375 
Q 5.46875 9.515625 5.734375 9.703125 
Q 6 9.90625 6.34375 9.90625 
Q 6.84375 9.90625 7.859375 9.296875 
Q 8.890625 8.6875 10.625 7.984375 
Q 12.359375 7.28125 14.921875 6.640625 
Q 17.484375 6 21 6 
Q 24.265625 6 27 6.78125 
Q 29.734375 7.5625 31.703125 9.21875 
Q 33.6875 10.890625 34.8125 13.40625 
Q 35.9375 15.921875 35.9375 19.53125 
Q 35.9375 22.5625 34.984375 24.875 
Q 34.03125 27.203125 32.046875 28.734375 
Q 30.078125 30.28125 27.046875 31.03125 
Q 24.03125 31.78125 19.828125 31.78125 
Q 16.84375 31.78125 14.6875 31.484375 
Q 12.546875 31.203125 10.6875 31.203125 
Q 9.328125 31.203125 8.734375 31.828125 
Q 8.15625 32.46875 8.15625 34.28125 
L 8.15625 60.015625 
Q 8.15625 61.625 8.90625 62.40625 
Q 9.671875 63.1875 11.078125 63.1875 
L 39.0625 63.1875 
Q 39.453125 63.1875 39.8125 62.96875 
Q 40.1875 62.75 40.421875 62.296875 
Q 40.671875 61.859375 40.796875 61.171875 
Q 40.921875 60.5 40.921875 59.578125 
Q 40.921875 57.8125 40.421875 56.828125 
Q 39.9375 55.859375 39.0625 55.859375 
L 15.484375 55.859375 
L 15.484375 38.140625 
Q 17.1875 38.375 18.96875 38.421875 
Q 20.75 38.484375 23.09375 38.484375 
Q 28.515625 38.484375 32.5625 37.1875 
Q 36.625 35.890625 39.328125 33.515625 
Q 42.046875 31.15625 43.4375 27.78125 
Q 44.828125 24.421875 44.828125 20.3125 
z
" id="Calibri-35"/>
      </defs>
      <g transform="translate(35.01625 360.719621)scale(0.18 -0.18)">
       <use xlink:href="#Calibri-2212"/>
       <use x="49.804688" xlink:href="#Calibri-31"/>
       <use x="100.488281" xlink:href="#Calibri-35"/>
      </g>
     </g>
    </g>
    <g id="ytick_2">
     <g id="line2d_35">
      <path clip-path="url(#p788800cf66)" d="M 73.73 309.883682 
L 562.68 309.883682 
" style="fill:none;stroke:#bfbfbf;stroke-linecap:square;stroke-width:0.8;"/>
     </g>
     <g id="line2d_36">
      <g>
       <use style="stroke:#000000;stroke-width:0.8;" x="73.73" xlink:href="#m45cd0b6574" y="309.883682"/>
      </g>
     </g>
     <g id="text_9">
      <!-- −10 -->
      <g transform="translate(35.01625 316.005088)scale(0.18 -0.18)">
       <use xlink:href="#Calibri-2212"/>
       <use x="49.804688" xlink:href="#Calibri-31"/>
       <use x="100.488281" xlink:href="#Calibri-30"/>
      </g>
     </g>
    </g>
    <g id="ytick_3">
     <g id="line2d_37">
      <path clip-path="url(#p788800cf66)" d="M 73.73 265.169149 
L 562.68 265.169149 
" style="fill:none;stroke:#bfbfbf;stroke-linecap:square;stroke-width:0.8;"/>
     </g>
     <g id="line2d_38">
      <g>
       <use style="stroke:#000000;stroke-width:0.8;" x="73.73" xlink:href="#m45cd0b6574" y="265.169149"/>
      </g>
     </g>
     <g id="text_10">
      <!-- −5 -->
      <g transform="translate(44.14 271.290555)scale(0.18 -0.18)">
       <use xlink:href="#Calibri-2212"/>
       <use x="49.804688" xlink:href="#Calibri-35"/>
      </g>
     </g>
    </g>
    <g id="ytick_4">
     <g id="line2d_39">
      <path clip-path="url(#p788800cf66)" d="M 73.73 220.454616 
L 562.68 220.454616 
" style="fill:none;stroke:#bfbfbf;stroke-linecap:square;stroke-width:0.8;"/>
     </g>
     <g id="line2d_40">
      <g>
       <use style="stroke:#000000;stroke-width:0.8;" x="73.73" xlink:href="#m45cd0b6574" y="220.454616"/>
      </g>
     </g>
     <g id="text_11">
      <!-- 0 -->
      <g transform="translate(53.10625 226.576022)scale(0.18 -0.18)">
       <use xlink:href="#Calibri-30"/>
      </g>
     </g>
    </g>
    <g id="ytick_5">
     <g id="line2d_41">
      <path clip-path="url(#p788800cf66)" d="M 73.73 175.740083 
L 562.68 175.740083 
" style="fill:none;stroke:#bfbfbf;stroke-linecap:square;stroke-width:0.8;"/>
     </g>
     <g id="line2d_42">
      <g>
       <use style="stroke:#000000;stroke-width:0.8;" x="73.73" xlink:href="#m45cd0b6574" y="175.740083"/>
      </g>
     </g>
     <g id="text_12">
      <!-- 5 -->
      <g transform="translate(53.10625 181.861489)scale(0.18 -0.18)">
       <use xlink:href="#Calibri-35"/>
      </g>
     </g>
    </g>
    <g id="ytick_6">
     <g id="line2d_43">
      <path clip-path="url(#p788800cf66)" d="M 73.73 131.02555 
L 562.68 131.02555 
" style="fill:none;stroke:#bfbfbf;stroke-linecap:square;stroke-width:0.8;"/>
     </g>
     <g id="line2d_44">
      <g>
       <use style="stroke:#000000;stroke-width:0.8;" x="73.73" xlink:href="#m45cd0b6574" y="131.02555"/>
      </g>
     </g>
     <g id="text_13">
      <!-- 10 -->
      <g transform="translate(43.9825 137.146957)scale(0.18 -0.18)">
       <use xlink:href="#Calibri-31"/>
       <use x="50.683594" xlink:href="#Calibri-30"/>
      </g>
     </g>
    </g>
    <g id="ytick_7">
     <g id="line2d_45">
      <path clip-path="url(#p788800cf66)" d="M 73.73 86.311017 
L 562.68 86.311017 
" style="fill:none;stroke:#bfbfbf;stroke-linecap:square;stroke-width:0.8;"/>
     </g>
     <g id="line2d_46">
      <g>
       <use style="stroke:#000000;stroke-width:0.8;" x="73.73" xlink:href="#m45cd0b6574" y="86.311017"/>
      </g>
     </g>
     <g id="text_14">
      <!-- 15 -->
      <g transform="translate(43.9825 92.432424)scale(0.18 -0.18)">
       <use xlink:href="#Calibri-31"/>
       <use x="50.683594" xlink:href="#Calibri-35"/>
      </g>
     </g>
    </g>
    <g id="ytick_8">
     <g id="line2d_47">
      <defs>
       <path d="M 0 0 
L -2 0 
" id="mca181b4803" style="stroke:#000000;stroke-width:0.6;"/>
      </defs>
      <g>
       <use style="stroke:#000000;stroke-width:0.6;" x="73.73" xlink:href="#mca181b4803" y="363.541121"/>
      </g>
     </g>
    </g>
    <g id="ytick_9">
     <g id="line2d_48">
      <g>
       <use style="stroke:#000000;stroke-width:0.6;" x="73.73" xlink:href="#mca181b4803" y="345.655308"/>
      </g>
     </g>
    </g>
    <g id="ytick_10">
     <g id="line2d_49">
      <g>
       <use style="stroke:#000000;stroke-width:0.6;" x="73.73" xlink:href="#mca181b4803" y="336.712401"/>
      </g>
     </g>
    </g>
    <g id="ytick_11">
     <g id="line2d_50">
      <g>
       <use style="stroke:#000000;stroke-width:0.6;" x="73.73" xlink:href="#mca181b4803" y="327.769495"/>
      </g>
     </g>
    </g>
    <g id="ytick_12">
     <g id="line2d_51">
      <g>
       <use style="stroke:#000000;stroke-width:0.6;" x="73.73" xlink:href="#mca181b4803" y="318.826588"/>
      </g>
     </g>
    </g>
    <g id="ytick_13">
     <g id="line2d_52">
      <g>
       <use style="stroke:#000000;stroke-width:0.6;" x="73.73" xlink:href="#mca181b4803" y="300.940775"/>
      </g>
     </g>
    </g>
    <g id="ytick_14">
     <g id="line2d_53">
      <g>
       <use style="stroke:#000000;stroke-width:0.6;" x="73.73" xlink:href="#mca181b4803" y="291.997868"/>
      </g>
     </g>
    </g>
    <g id="ytick_15">
     <g id="line2d_54">
      <g>
       <use style="stroke:#000000;stroke-width:0.6;" x="73.73" xlink:href="#mca181b4803" y="283.054962"/>
      </g>
     </g>
    </g>
    <g id="ytick_16">
     <g id="line2d_55">
      <g>
       <use style="stroke:#000000;stroke-width:0.6;" x="73.73" xlink:href="#mca181b4803" y="274.112055"/>
      </g>
     </g>
    </g>
    <g id="ytick_17">
     <g id="line2d_56">
      <g>
       <use style="stroke:#000000;stroke-width:0.6;" x="73.73" xlink:href="#mca181b4803" y="256.226242"/>
      </g>
     </g>
    </g>
    <g id="ytick_18">
     <g id="line2d_57">
      <g>
       <use style="stroke:#000000;stroke-width:0.6;" x="73.73" xlink:href="#mca181b4803" y="247.283336"/>
      </g>
     </g>
    </g>
    <g id="ytick_19">
     <g id="line2d_58">
      <g>
       <use style="stroke:#000000;stroke-width:0.6;" x="73.73" xlink:href="#mca181b4803" y="238.340429"/>
      </g>
     </g>
    </g>
    <g id="ytick_20">
     <g id="line2d_59">
      <g>
       <use style="stroke:#000000;stroke-width:0.6;" x="73.73" xlink:href="#mca181b4803" y="229.397523"/>
      </g>
     </g>
    </g>
    <g id="ytick_21">
     <g id="line2d_60">
      <g>
       <use style="stroke:#000000;stroke-width:0.6;" x="73.73" xlink:href="#mca181b4803" y="211.511709"/>
      </g>
     </g>
    </g>
    <g id="ytick_22">
     <g id="line2d_61">
      <g>
       <use style="stroke:#000000;stroke-width:0.6;" x="73.73" xlink:href="#mca181b4803" y="202.568803"/>
      </g>
     </g>
    </g>
    <g id="ytick_23">
     <g id="line2d_62">
      <g>
       <use style="stroke:#000000;stroke-width:0.6;" x="73.73" xlink:href="#mca181b4803" y="193.625896"/>
      </g>
     </g>
    </g>
    <g id="ytick_24">
     <g id="line2d_63">
      <g>
       <use style="stroke:#000000;stroke-width:0.6;" x="73.73" xlink:href="#mca181b4803" y="184.68299"/>
      </g>
     </g>
    </g>
    <g id="ytick_25">
     <g id="line2d_64">
      <g>
       <use style="stroke:#000000;stroke-width:0.6;" x="73.73" xlink:href="#mca181b4803" y="166.797177"/>
      </g>
     </g>
    </g>
    <g id="ytick_26">
     <g id="line2d_65">
      <g>
       <use style="stroke:#000000;stroke-width:0.6;" x="73.73" xlink:href="#mca181b4803" y="157.85427"/>
      </g>
     </g>
    </g>
    <g id="ytick_27">
     <g id="line2d_66">
      <g>
       <use style="stroke:#000000;stroke-width:0.6;" x="73.73" xlink:href="#mca181b4803" y="148.911363"/>
      </g>
     </g>
    </g>
    <g id="ytick_28">
     <g id="line2d_67">
      <g>
       <use style="stroke:#000000;stroke-width:0.6;" x="73.73" xlink:href="#mca181b4803" y="139.968457"/>
      </g>
     </g>
    </g>
    <g id="ytick_29">
     <g id="line2d_68">
      <g>
       <use style="stroke:#000000;stroke-width:0.6;" x="73.73" xlink:href="#mca181b4803" y="122.082644"/>
      </g>
     </g>
    </g>
    <g id="ytick_30">
     <g id="line2d_69">
      <g>
       <use style="stroke:#000000;stroke-width:0.6;" x="73.73" xlink:href="#mca181b4803" y="113.139737"/>
      </g>
     </g>
    </g>
    <g id="ytick_31">
     <g id="line2d_70">
      <g>
       <use style="stroke:#000000;stroke-width:0.6;" x="73.73" xlink:href="#mca181b4803" y="104.196831"/>
      </g>
     </g>
    </g>
    <g id="ytick_32">
     <g id="line2d_71">
      <g>
       <use style="stroke:#000000;stroke-width:0.6;" x="73.73" xlink:href="#mca181b4803" y="95.253924"/>
      </g>
     </g>
    </g>
    <g id="ytick_33">
     <g id="line2d_72">
      <g>
       <use style="stroke:#000000;stroke-width:0.6;" x="73.73" xlink:href="#mca181b4803" y="77.368111"/>
      </g>
     </g>
    </g>
    <g id="ytick_34">
     <g id="line2d_73">
      <g>
       <use style="stroke:#000000;stroke-width:0.6;" x="73.73" xlink:href="#mca181b4803" y="68.425204"/>
      </g>
     </g>
    </g>
    <g id="ytick_35">
     <g id="line2d_74">
      <g>
       <use style="stroke:#000000;stroke-width:0.6;" x="73.73" xlink:href="#mca181b4803" y="59.482298"/>
      </g>
     </g>
    </g>
    <g id="ytick_36">
     <g id="line2d_75">
      <g>
       <use style="stroke:#000000;stroke-width:0.6;" x="73.73" xlink:href="#mca181b4803" y="50.539391"/>
      </g>
     </g>
    </g>
    <g id="text_15">
     <!-- Surface temperature, $T$ ($^\circ$C) -->
     <defs>
      <path d="M 42.328125 17.71875 
Q 42.328125 13.28125 40.6875 9.8125 
Q 39.0625 6.34375 36.15625 3.921875 
Q 33.25 1.515625 29.3125 0.296875 
Q 25.390625 -0.921875 20.84375 -0.921875 
Q 17.671875 -0.921875 14.953125 -0.390625 
Q 12.25 0.140625 10.125 0.921875 
Q 8.015625 1.703125 6.5625 2.53125 
Q 5.125 3.375 4.5625 3.953125 
Q 4 4.546875 3.734375 5.4375 
Q 3.46875 6.34375 3.46875 7.859375 
Q 3.46875 8.9375 3.5625 9.640625 
Q 3.65625 10.359375 3.84375 10.796875 
Q 4.046875 11.234375 4.34375 11.40625 
Q 4.640625 11.578125 5.03125 11.578125 
Q 5.71875 11.578125 6.953125 10.734375 
Q 8.203125 9.90625 10.15625 8.921875 
Q 12.109375 7.953125 14.859375 7.09375 
Q 17.625 6.25 21.234375 6.25 
Q 23.96875 6.25 26.234375 6.984375 
Q 28.515625 7.71875 30.140625 9.0625 
Q 31.78125 10.40625 32.65625 12.359375 
Q 33.546875 14.3125 33.546875 16.796875 
Q 33.546875 19.484375 32.328125 21.390625 
Q 31.109375 23.296875 29.09375 24.734375 
Q 27.09375 26.171875 24.53125 27.359375 
Q 21.96875 28.5625 19.28125 29.8125 
Q 16.609375 31.0625 14.0625 32.5625 
Q 11.53125 34.078125 9.515625 36.125 
Q 7.515625 38.1875 6.265625 40.9375 
Q 5.03125 43.703125 5.03125 47.5625 
Q 5.03125 51.515625 6.46875 54.609375 
Q 7.90625 57.71875 10.46875 59.8125 
Q 13.03125 61.921875 16.578125 63.015625 
Q 20.125 64.109375 24.21875 64.109375 
Q 26.3125 64.109375 28.4375 63.734375 
Q 30.5625 63.375 32.4375 62.765625 
Q 34.328125 62.15625 35.78125 61.390625 
Q 37.25 60.640625 37.71875 60.171875 
Q 38.1875 59.71875 38.328125 59.453125 
Q 38.484375 59.1875 38.578125 58.765625 
Q 38.671875 58.34375 38.71875 57.75 
Q 38.765625 57.171875 38.765625 56.25 
Q 38.765625 55.375 38.6875 54.6875 
Q 38.625 54 38.46875 53.53125 
Q 38.328125 53.078125 38.0625 52.859375 
Q 37.796875 52.640625 37.453125 52.640625 
Q 36.921875 52.640625 35.765625 53.3125 
Q 34.625 54 32.953125 54.859375 
Q 31.296875 55.71875 29.03125 56.421875 
Q 26.765625 57.125 23.921875 57.125 
Q 21.296875 57.125 19.34375 56.421875 
Q 17.390625 55.71875 16.109375 54.546875 
Q 14.84375 53.375 14.203125 51.75 
Q 13.578125 50.140625 13.578125 48.34375 
Q 13.578125 45.703125 14.796875 43.796875 
Q 16.015625 41.890625 18.03125 40.421875 
Q 20.0625 38.96875 22.65625 37.75 
Q 25.25 36.53125 27.921875 35.28125 
Q 30.609375 34.03125 33.203125 32.546875 
Q 35.796875 31.0625 37.8125 29.03125 
Q 39.84375 27 41.078125 24.234375 
Q 42.328125 21.484375 42.328125 17.71875 
z
" id="Calibri-53"/>
      <path d="M 45.125 1.21875 
Q 45.125 0.828125 44.953125 0.5625 
Q 44.78125 0.296875 44.328125 0.09375 
Q 43.890625 -0.09375 43.1875 -0.1875 
Q 42.484375 -0.296875 41.453125 -0.296875 
Q 40.328125 -0.296875 39.625 -0.1875 
Q 38.921875 -0.09375 38.5 0.09375 
Q 38.09375 0.296875 37.9375 0.5625 
Q 37.796875 0.828125 37.796875 1.21875 
L 37.796875 7.03125 
Q 34.03125 2.875 30.359375 0.96875 
Q 26.703125 -0.921875 22.953125 -0.921875 
Q 18.5625 -0.921875 15.546875 0.53125 
Q 12.546875 2 10.6875 4.515625 
Q 8.84375 7.03125 8.03125 10.375 
Q 7.234375 13.71875 7.234375 18.5 
L 7.234375 45.171875 
Q 7.234375 45.5625 7.390625 45.828125 
Q 7.5625 46.09375 8.046875 46.3125 
Q 8.546875 46.53125 9.328125 46.609375 
Q 10.109375 46.6875 11.28125 46.6875 
Q 12.453125 46.6875 13.234375 46.609375 
Q 14.015625 46.53125 14.46875 46.3125 
Q 14.9375 46.09375 15.125 45.828125 
Q 15.328125 45.5625 15.328125 45.171875 
L 15.328125 19.578125 
Q 15.328125 15.71875 15.890625 13.390625 
Q 16.453125 11.078125 17.59375 9.4375 
Q 18.75 7.8125 20.5 6.90625 
Q 22.265625 6 24.609375 6 
Q 27.640625 6 30.640625 8.140625 
Q 33.640625 10.296875 37.015625 14.453125 
L 37.015625 45.171875 
Q 37.015625 45.5625 37.1875 45.828125 
Q 37.359375 46.09375 37.84375 46.3125 
Q 38.328125 46.53125 39.078125 46.609375 
Q 39.84375 46.6875 41.0625 46.6875 
Q 42.234375 46.6875 43.015625 46.609375 
Q 43.796875 46.53125 44.234375 46.3125 
Q 44.671875 46.09375 44.890625 45.828125 
Q 45.125 45.5625 45.125 45.171875 
z
" id="Calibri-75"/>
      <path d="M 33.15625 42.28125 
Q 33.15625 41.21875 33.109375 40.484375 
Q 33.0625 39.75 32.90625 39.328125 
Q 32.765625 38.921875 32.546875 38.703125 
Q 32.328125 38.484375 31.9375 38.484375 
Q 31.546875 38.484375 30.984375 38.703125 
Q 30.421875 38.921875 29.703125 39.140625 
Q 29 39.359375 28.125 39.546875 
Q 27.25 39.75 26.21875 39.75 
Q 25 39.75 23.828125 39.25 
Q 22.65625 38.765625 21.359375 37.640625 
Q 20.0625 36.53125 18.640625 34.671875 
Q 17.234375 32.8125 15.53125 30.125 
L 15.53125 1.21875 
Q 15.53125 0.828125 15.328125 0.5625 
Q 15.140625 0.296875 14.703125 0.09375 
Q 14.265625 -0.09375 13.484375 -0.1875 
Q 12.703125 -0.296875 11.46875 -0.296875 
Q 10.296875 -0.296875 9.515625 -0.1875 
Q 8.734375 -0.09375 8.265625 0.09375 
Q 7.8125 0.296875 7.640625 0.5625 
Q 7.46875 0.828125 7.46875 1.21875 
L 7.46875 45.171875 
Q 7.46875 45.5625 7.609375 45.828125 
Q 7.765625 46.09375 8.203125 46.3125 
Q 8.640625 46.53125 9.328125 46.609375 
Q 10.015625 46.6875 11.140625 46.6875 
Q 12.203125 46.6875 12.90625 46.609375 
Q 13.625 46.53125 14.015625 46.3125 
Q 14.40625 46.09375 14.578125 45.828125 
Q 14.75 45.5625 14.75 45.171875 
L 14.75 38.765625 
Q 16.546875 41.40625 18.140625 43.0625 
Q 19.734375 44.734375 21.140625 45.671875 
Q 22.5625 46.625 23.953125 46.984375 
Q 25.34375 47.359375 26.765625 47.359375 
Q 27.390625 47.359375 28.1875 47.28125 
Q 29 47.21875 29.875 47.015625 
Q 30.765625 46.828125 31.46875 46.578125 
Q 32.171875 46.34375 32.46875 46.09375 
Q 32.765625 45.84375 32.859375 45.625 
Q 32.953125 45.40625 33.03125 45.0625 
Q 33.109375 44.734375 33.125 44.0625 
Q 33.15625 43.40625 33.15625 42.28125 
z
" id="Calibri-72"/>
      <path d="M 31.546875 63.234375 
Q 31.546875 62.3125 31.4375 61.75 
Q 31.34375 61.1875 31.21875 60.84375 
Q 31.109375 60.5 30.90625 60.375 
Q 30.71875 60.25 30.421875 60.25 
Q 30.078125 60.25 29.5625 60.46875 
Q 29.046875 60.6875 28.3125 60.953125 
Q 27.59375 61.234375 26.59375 61.453125 
Q 25.59375 61.671875 24.265625 61.671875 
Q 22.46875 61.671875 21.1875 61.078125 
Q 19.921875 60.5 19.140625 59.25 
Q 18.359375 58.015625 18.015625 56.03125 
Q 17.671875 54.046875 17.671875 51.21875 
L 17.671875 46.4375 
L 27.484375 46.4375 
Q 27.875 46.4375 28.140625 46.265625 
Q 28.421875 46.09375 28.640625 45.671875 
Q 28.859375 45.265625 28.984375 44.625 
Q 29.109375 44 29.109375 43.0625 
Q 29.109375 41.3125 28.65625 40.53125 
Q 28.21875 39.75 27.484375 39.75 
L 17.671875 39.75 
L 17.671875 1.21875 
Q 17.671875 0.828125 17.46875 0.5625 
Q 17.28125 0.296875 16.8125 0.09375 
Q 16.359375 -0.09375 15.578125 -0.1875 
Q 14.796875 -0.296875 13.625 -0.296875 
Q 12.453125 -0.296875 11.671875 -0.1875 
Q 10.890625 -0.09375 10.421875 0.09375 
Q 9.96875 0.296875 9.765625 0.5625 
Q 9.578125 0.828125 9.578125 1.21875 
L 9.578125 39.75 
L 3.375 39.75 
Q 2.59375 39.75 2.203125 40.53125 
Q 1.8125 41.3125 1.8125 43.0625 
Q 1.8125 44 1.90625 44.625 
Q 2 45.265625 2.1875 45.671875 
Q 2.390625 46.09375 2.6875 46.265625 
Q 2.984375 46.4375 3.375 46.4375 
L 9.578125 46.4375 
L 9.578125 50.984375 
Q 9.578125 55.5625 10.421875 58.859375 
Q 11.28125 62.15625 13.03125 64.25 
Q 14.796875 66.359375 17.453125 67.359375 
Q 20.125 68.359375 23.734375 68.359375 
Q 25.4375 68.359375 27.046875 68.03125 
Q 28.65625 67.71875 29.53125 67.359375 
Q 30.421875 67 30.703125 66.703125 
Q 31 66.40625 31.1875 65.9375 
Q 31.390625 65.484375 31.46875 64.8125 
Q 31.546875 64.15625 31.546875 63.234375 
z
" id="Calibri-66"/>
      <path d="M 40.578125 1.171875 
Q 40.578125 0.59375 40.1875 0.296875 
Q 39.796875 0 39.109375 -0.140625 
Q 38.421875 -0.296875 37.109375 -0.296875 
Q 35.84375 -0.296875 35.078125 -0.140625 
Q 34.328125 0 33.984375 0.296875 
Q 33.640625 0.59375 33.640625 1.171875 
L 33.640625 5.5625 
Q 30.765625 2.484375 27.21875 0.78125 
Q 23.6875 -0.921875 19.734375 -0.921875 
Q 16.265625 -0.921875 13.453125 -0.015625 
Q 10.640625 0.875 8.65625 2.578125 
Q 6.6875 4.296875 5.59375 6.78125 
Q 4.5 9.28125 4.5 12.453125 
Q 4.5 16.15625 6 18.890625 
Q 7.515625 21.625 10.34375 23.4375 
Q 13.1875 25.25 17.28125 26.140625 
Q 21.390625 27.046875 26.515625 27.046875 
L 32.5625 27.046875 
L 32.5625 30.46875 
Q 32.5625 33.015625 32.03125 34.96875 
Q 31.5 36.921875 30.296875 38.203125 
Q 29.109375 39.5 27.203125 40.15625 
Q 25.296875 40.828125 22.515625 40.828125 
Q 19.53125 40.828125 17.15625 40.109375 
Q 14.796875 39.40625 13.015625 38.546875 
Q 11.234375 37.703125 10.03125 36.984375 
Q 8.84375 36.28125 8.25 36.28125 
Q 7.859375 36.28125 7.5625 36.46875 
Q 7.28125 36.671875 7.0625 37.0625 
Q 6.84375 37.453125 6.734375 38.0625 
Q 6.640625 38.671875 6.640625 39.40625 
Q 6.640625 40.625 6.8125 41.328125 
Q 6.984375 42.046875 7.640625 42.671875 
Q 8.296875 43.3125 9.90625 44.15625 
Q 11.53125 45.015625 13.625 45.71875 
Q 15.71875 46.4375 18.203125 46.890625 
Q 20.703125 47.359375 23.25 47.359375 
Q 27.984375 47.359375 31.296875 46.28125 
Q 34.625 45.21875 36.671875 43.140625 
Q 38.71875 41.0625 39.640625 37.984375 
Q 40.578125 34.90625 40.578125 30.8125 
z
M 32.5625 21.234375 
L 25.6875 21.234375 
Q 22.359375 21.234375 19.921875 20.671875 
Q 17.484375 20.125 15.875 19.015625 
Q 14.265625 17.921875 13.5 16.375 
Q 12.75 14.84375 12.75 12.84375 
Q 12.75 9.421875 14.921875 7.390625 
Q 17.09375 5.375 21 5.375 
Q 24.171875 5.375 26.875 6.984375 
Q 29.59375 8.59375 32.5625 11.921875 
z
" id="Calibri-61"/>
      <path d="M 39.0625 7.90625 
Q 39.0625 7.078125 39.015625 6.46875 
Q 38.96875 5.859375 38.84375 5.4375 
Q 38.71875 5.03125 38.546875 4.703125 
Q 38.375 4.390625 37.765625 3.78125 
Q 37.15625 3.171875 35.6875 2.265625 
Q 34.234375 1.375 32.390625 0.65625 
Q 30.5625 -0.046875 28.40625 -0.484375 
Q 26.265625 -0.921875 23.96875 -0.921875 
Q 19.234375 -0.921875 15.578125 0.640625 
Q 11.921875 2.203125 9.453125 5.203125 
Q 6.984375 8.203125 5.6875 12.5625 
Q 4.390625 16.9375 4.390625 22.65625 
Q 4.390625 29.15625 5.96875 33.8125 
Q 7.5625 38.484375 10.328125 41.453125 
Q 13.09375 44.4375 16.828125 45.875 
Q 20.5625 47.3125 24.90625 47.3125 
Q 27 47.3125 28.96875 46.921875 
Q 30.953125 46.53125 32.609375 45.890625 
Q 34.28125 45.265625 35.5625 44.4375 
Q 36.859375 43.609375 37.4375 43.015625 
Q 38.03125 42.4375 38.25 42.09375 
Q 38.484375 41.75 38.625 41.28125 
Q 38.765625 40.828125 38.8125 40.234375 
Q 38.875 39.65625 38.875 38.765625 
Q 38.875 36.859375 38.421875 36.109375 
Q 37.984375 35.359375 37.359375 35.359375 
Q 36.625 35.359375 35.671875 36.15625 
Q 34.71875 36.96875 33.25 37.9375 
Q 31.78125 38.921875 29.703125 39.71875 
Q 27.640625 40.53125 24.8125 40.53125 
Q 19 40.53125 15.890625 36.0625 
Q 12.796875 31.59375 12.796875 23.09375 
Q 12.796875 18.84375 13.59375 15.640625 
Q 14.40625 12.453125 15.96875 10.296875 
Q 17.53125 8.15625 19.796875 7.109375 
Q 22.078125 6.0625 25 6.0625 
Q 27.78125 6.0625 29.875 6.9375 
Q 31.984375 7.8125 33.515625 8.859375 
Q 35.0625 9.90625 36.109375 10.765625 
Q 37.15625 11.625 37.75 11.625 
Q 38.09375 11.625 38.328125 11.421875 
Q 38.578125 11.234375 38.75 10.765625 
Q 38.921875 10.296875 38.984375 9.59375 
Q 39.0625 8.890625 39.0625 7.90625 
z
" id="Calibri-63"/>
      <path d="M 44.96875 25.09375 
Q 44.96875 23.1875 44.015625 22.375 
Q 43.0625 21.578125 41.84375 21.578125 
L 13.03125 21.578125 
Q 13.03125 17.921875 13.765625 14.984375 
Q 14.5 12.0625 16.203125 9.953125 
Q 17.921875 7.859375 20.65625 6.734375 
Q 23.390625 5.609375 27.34375 5.609375 
Q 30.46875 5.609375 32.90625 6.125 
Q 35.359375 6.640625 37.140625 7.265625 
Q 38.921875 7.90625 40.0625 8.421875 
Q 41.21875 8.9375 41.796875 8.9375 
Q 42.140625 8.9375 42.40625 8.765625 
Q 42.671875 8.59375 42.8125 8.25 
Q 42.96875 7.90625 43.03125 7.296875 
Q 43.109375 6.6875 43.109375 5.8125 
Q 43.109375 5.171875 43.0625 4.703125 
Q 43.015625 4.25 42.9375 3.875 
Q 42.875 3.515625 42.703125 3.21875 
Q 42.53125 2.9375 42.265625 2.65625 
Q 42 2.390625 40.671875 1.78125 
Q 39.359375 1.171875 37.25 0.578125 
Q 35.15625 0 32.390625 -0.453125 
Q 29.640625 -0.921875 26.515625 -0.921875 
Q 21.09375 -0.921875 17.015625 0.578125 
Q 12.9375 2.09375 10.15625 5.078125 
Q 7.375 8.0625 5.953125 12.546875 
Q 4.546875 17.046875 4.546875 23 
Q 4.546875 28.65625 6 33.171875 
Q 7.46875 37.703125 10.21875 40.84375 
Q 12.984375 44 16.890625 45.671875 
Q 20.796875 47.359375 25.640625 47.359375 
Q 30.8125 47.359375 34.453125 45.703125 
Q 38.09375 44.046875 40.4375 41.234375 
Q 42.78125 38.421875 43.875 34.640625 
Q 44.96875 30.859375 44.96875 26.5625 
z
M 36.859375 27.484375 
Q 37.015625 33.84375 34.0625 37.453125 
Q 31.109375 41.0625 25.296875 41.0625 
Q 22.3125 41.0625 20.0625 39.9375 
Q 17.828125 38.8125 16.3125 36.953125 
Q 14.796875 35.109375 13.96875 32.640625 
Q 13.140625 30.171875 13.03125 27.484375 
z
" id="Calibri-65"/>
      <path id="Calibri-20"/>
      <path d="M 30.328125 4.4375 
Q 30.328125 3.03125 30.125 2.203125 
Q 29.9375 1.375 29.546875 0.984375 
Q 29.15625 0.59375 28.375 0.25 
Q 27.59375 -0.09375 26.59375 -0.3125 
Q 25.59375 -0.53125 24.46875 -0.671875 
Q 23.34375 -0.828125 22.21875 -0.828125 
Q 18.796875 -0.828125 16.359375 0.078125 
Q 13.921875 0.984375 12.359375 2.8125 
Q 10.796875 4.640625 10.078125 7.4375 
Q 9.375 10.25 9.375 14.0625 
L 9.375 39.75 
L 3.21875 39.75 
Q 2.484375 39.75 2.046875 40.53125 
Q 1.609375 41.3125 1.609375 43.0625 
Q 1.609375 44 1.734375 44.625 
Q 1.859375 45.265625 2.046875 45.671875 
Q 2.25 46.09375 2.5625 46.265625 
Q 2.875 46.4375 3.265625 46.4375 
L 9.375 46.4375 
L 9.375 56.890625 
Q 9.375 57.234375 9.546875 57.515625 
Q 9.71875 57.8125 10.171875 58.03125 
Q 10.640625 58.25 11.421875 58.34375 
Q 12.203125 58.453125 13.375 58.453125 
Q 14.59375 58.453125 15.375 58.34375 
Q 16.15625 58.25 16.59375 58.03125 
Q 17.046875 57.8125 17.234375 57.515625 
Q 17.4375 57.234375 17.4375 56.890625 
L 17.4375 46.4375 
L 28.71875 46.4375 
Q 29.109375 46.4375 29.390625 46.265625 
Q 29.6875 46.09375 29.90625 45.671875 
Q 30.125 45.265625 30.21875 44.625 
Q 30.328125 44 30.328125 43.0625 
Q 30.328125 41.3125 29.875 40.53125 
Q 29.4375 39.75 28.71875 39.75 
L 17.4375 39.75 
L 17.4375 15.234375 
Q 17.4375 10.6875 18.78125 8.375 
Q 20.125 6.0625 23.578125 6.0625 
Q 24.703125 6.0625 25.578125 6.28125 
Q 26.46875 6.5 27.140625 6.734375 
Q 27.828125 6.984375 28.3125 7.203125 
Q 28.8125 7.421875 29.203125 7.421875 
Q 29.4375 7.421875 29.65625 7.296875 
Q 29.890625 7.171875 30 6.828125 
Q 30.125 6.5 30.21875 5.90625 
Q 30.328125 5.328125 30.328125 4.4375 
z
" id="Calibri-74"/>
      <path d="M 72.65625 1.21875 
Q 72.65625 0.828125 72.453125 0.5625 
Q 72.265625 0.296875 71.828125 0.09375 
Q 71.390625 -0.09375 70.609375 -0.1875 
Q 69.828125 -0.296875 68.65625 -0.296875 
Q 67.4375 -0.296875 66.65625 -0.1875 
Q 65.875 -0.09375 65.40625 0.09375 
Q 64.9375 0.296875 64.734375 0.5625 
Q 64.546875 0.828125 64.546875 1.21875 
L 64.546875 27.9375 
Q 64.546875 30.71875 64.0625 33 
Q 63.578125 35.296875 62.5 36.953125 
Q 61.421875 38.625 59.765625 39.5 
Q 58.109375 40.375 55.859375 40.375 
Q 53.078125 40.375 50.265625 38.21875 
Q 47.46875 36.078125 44.09375 31.9375 
L 44.09375 1.21875 
Q 44.09375 0.828125 43.890625 0.5625 
Q 43.703125 0.296875 43.234375 0.09375 
Q 42.78125 -0.09375 42 -0.1875 
Q 41.21875 -0.296875 40.046875 -0.296875 
Q 38.921875 -0.296875 38.109375 -0.1875 
Q 37.3125 -0.09375 36.84375 0.09375 
Q 36.375 0.296875 36.203125 0.5625 
Q 36.03125 0.828125 36.03125 1.21875 
L 36.03125 27.9375 
Q 36.03125 30.71875 35.5 33 
Q 34.96875 35.296875 33.890625 36.953125 
Q 32.8125 38.625 31.171875 39.5 
Q 29.546875 40.375 27.296875 40.375 
Q 24.515625 40.375 21.671875 38.21875 
Q 18.84375 36.078125 15.53125 31.9375 
L 15.53125 1.21875 
Q 15.53125 0.828125 15.328125 0.5625 
Q 15.140625 0.296875 14.703125 0.09375 
Q 14.265625 -0.09375 13.484375 -0.1875 
Q 12.703125 -0.296875 11.46875 -0.296875 
Q 10.296875 -0.296875 9.515625 -0.1875 
Q 8.734375 -0.09375 8.265625 0.09375 
Q 7.8125 0.296875 7.640625 0.5625 
Q 7.46875 0.828125 7.46875 1.21875 
L 7.46875 45.171875 
Q 7.46875 45.5625 7.609375 45.828125 
Q 7.765625 46.09375 8.203125 46.3125 
Q 8.640625 46.53125 9.328125 46.609375 
Q 10.015625 46.6875 11.140625 46.6875 
Q 12.203125 46.6875 12.90625 46.609375 
Q 13.625 46.53125 14.015625 46.3125 
Q 14.40625 46.09375 14.578125 45.828125 
Q 14.75 45.5625 14.75 45.171875 
L 14.75 39.359375 
Q 18.453125 43.5 21.9375 45.421875 
Q 25.4375 47.359375 29 47.359375 
Q 31.734375 47.359375 33.90625 46.71875 
Q 36.078125 46.09375 37.734375 44.9375 
Q 39.40625 43.796875 40.578125 42.203125 
Q 41.75 40.625 42.53125 38.671875 
Q 44.734375 41.0625 46.703125 42.71875 
Q 48.6875 44.390625 50.515625 45.40625 
Q 52.34375 46.4375 54.078125 46.890625 
Q 55.8125 47.359375 57.5625 47.359375 
Q 61.8125 47.359375 64.6875 45.875 
Q 67.578125 44.390625 69.359375 41.890625 
Q 71.140625 39.40625 71.890625 36.0625 
Q 72.65625 32.71875 72.65625 29 
z
" id="Calibri-6d"/>
      <path d="M 47.90625 23.875 
Q 47.90625 18.109375 46.65625 13.515625 
Q 45.40625 8.9375 42.984375 5.734375 
Q 40.578125 2.546875 37.015625 0.8125 
Q 33.453125 -0.921875 28.859375 -0.921875 
Q 26.90625 -0.921875 25.234375 -0.53125 
Q 23.578125 -0.140625 21.984375 0.6875 
Q 20.40625 1.515625 18.84375 2.78125 
Q 17.28125 4.046875 15.53125 5.765625 
L 15.53125 -16.21875 
Q 15.53125 -16.609375 15.328125 -16.890625 
Q 15.140625 -17.1875 14.703125 -17.375 
Q 14.265625 -17.578125 13.484375 -17.671875 
Q 12.703125 -17.78125 11.46875 -17.78125 
Q 10.296875 -17.78125 9.515625 -17.671875 
Q 8.734375 -17.578125 8.265625 -17.375 
Q 7.8125 -17.1875 7.640625 -16.890625 
Q 7.46875 -16.609375 7.46875 -16.21875 
L 7.46875 45.171875 
Q 7.46875 45.609375 7.609375 45.875 
Q 7.765625 46.140625 8.203125 46.328125 
Q 8.640625 46.53125 9.328125 46.609375 
Q 10.015625 46.6875 10.984375 46.6875 
Q 12.015625 46.6875 12.671875 46.609375 
Q 13.328125 46.53125 13.765625 46.328125 
Q 14.203125 46.140625 14.375 45.875 
Q 14.546875 45.609375 14.546875 45.171875 
L 14.546875 39.265625 
Q 16.546875 41.3125 18.40625 42.828125 
Q 20.265625 44.34375 22.140625 45.34375 
Q 24.03125 46.34375 26 46.84375 
Q 27.984375 47.359375 30.171875 47.359375 
Q 34.96875 47.359375 38.328125 45.5 
Q 41.703125 43.65625 43.828125 40.421875 
Q 45.953125 37.203125 46.921875 32.921875 
Q 47.90625 28.65625 47.90625 23.875 
z
M 39.40625 22.953125 
Q 39.40625 26.3125 38.890625 29.46875 
Q 38.375 32.625 37.125 35.0625 
Q 35.890625 37.5 33.78125 38.96875 
Q 31.6875 40.4375 28.5625 40.4375 
Q 27 40.4375 25.484375 39.96875 
Q 23.96875 39.5 22.40625 38.5 
Q 20.84375 37.5 19.140625 35.859375 
Q 17.4375 34.234375 15.53125 31.84375 
L 15.53125 14.359375 
Q 18.84375 10.296875 21.828125 8.140625 
Q 24.8125 6 28.078125 6 
Q 31.109375 6 33.28125 7.46875 
Q 35.453125 8.9375 36.796875 11.375 
Q 38.140625 13.8125 38.765625 16.84375 
Q 39.40625 19.875 39.40625 22.953125 
z
" id="Calibri-70"/>
      <path d="M 18.109375 6.984375 
Q 18.109375 5.46875 17.96875 4.203125 
Q 17.828125 2.9375 17.484375 1.8125 
Q 17.140625 0.6875 16.578125 -0.40625 
Q 16.015625 -1.515625 15.1875 -2.734375 
L 8.5 -12.796875 
Q 8.25 -13.140625 7.9375 -13.375 
Q 7.625 -13.625 7.15625 -13.8125 
Q 6.6875 -14.015625 6.078125 -14.078125 
Q 5.46875 -14.15625 4.546875 -14.15625 
Q 3.71875 -14.15625 3.15625 -14.078125 
Q 2.59375 -14.015625 2.34375 -13.84375 
Q 2.09375 -13.671875 2.0625 -13.375 
Q 2.046875 -13.09375 2.25 -12.703125 
L 8.734375 0.734375 
L 8.734375 6.984375 
Q 8.734375 8.296875 9 9.078125 
Q 9.28125 9.859375 9.859375 10.25 
Q 10.453125 10.640625 11.328125 10.78125 
Q 12.203125 10.9375 13.484375 10.9375 
Q 14.703125 10.9375 15.578125 10.78125 
Q 16.453125 10.640625 17.015625 10.25 
Q 17.578125 9.859375 17.84375 9.078125 
Q 18.109375 8.296875 18.109375 6.984375 
z
" id="Calibri-2c"/>
      <path d="M 55.609375 61.46875 
Q 55.609375 61.1875 55.578125 60.671875 
Q 55.5625 60.15625 55.4375 59.5625 
Q 55.328125 58.984375 55.125 58.328125 
Q 54.9375 57.671875 54.640625 57.171875 
Q 54.34375 56.6875 53.921875 56.375 
Q 53.515625 56.0625 53.03125 56.0625 
L 35.25 56.0625 
L 24.265625 1.265625 
Q 24.171875 0.875 23.90625 0.578125 
Q 23.640625 0.296875 23.125 0.125 
Q 22.609375 -0.046875 21.78125 -0.171875 
Q 20.953125 -0.296875 19.734375 -0.296875 
Q 18.5 -0.296875 17.71875 -0.171875 
Q 16.9375 -0.046875 16.5 0.125 
Q 16.0625 0.296875 15.90625 0.578125 
Q 15.765625 0.875 15.875 1.265625 
L 26.8125 56.0625 
L 9.125 56.0625 
Q 8.453125 56.0625 8.203125 56.5 
Q 7.953125 56.9375 7.953125 57.71875 
Q 7.953125 58.0625 8.03125 58.5625 
Q 8.109375 59.078125 8.21875 59.71875 
Q 8.34375 60.359375 8.53125 60.9375 
Q 8.734375 61.53125 9.03125 62.03125 
Q 9.328125 62.546875 9.6875 62.859375 
Q 10.0625 63.1875 10.546875 63.1875 
L 54.5 63.1875 
Q 55.125 63.1875 55.359375 62.71875 
Q 55.609375 62.25 55.609375 61.46875 
z
" id="Calibri-Italic-54"/>
      <path d="M 24.171875 67.28125 
Q 19.53125 57.46875 17.25 47.140625 
Q 14.984375 36.8125 14.984375 26.375 
Q 14.984375 15.875 17.296875 5.5625 
Q 19.625 -4.734375 24.078125 -14.65625 
Q 24.3125 -15.234375 24.328125 -15.640625 
Q 24.359375 -16.0625 24.015625 -16.328125 
Q 23.6875 -16.609375 22.96875 -16.71875 
Q 22.265625 -16.84375 21.046875 -16.84375 
Q 20.171875 -16.84375 19.53125 -16.796875 
Q 18.890625 -16.75 18.421875 -16.59375 
Q 17.96875 -16.453125 17.671875 -16.25 
Q 17.390625 -16.0625 17.234375 -15.828125 
Q 14.59375 -10.84375 12.59375 -5.734375 
Q 10.59375 -0.640625 9.21875 4.625 
Q 7.859375 9.90625 7.171875 15.296875 
Q 6.5 20.703125 6.5 26.21875 
Q 6.5 31.734375 7.25 37.109375 
Q 8.015625 42.484375 9.40625 47.78125 
Q 10.796875 53.078125 12.796875 58.203125 
Q 14.796875 63.328125 17.28125 68.359375 
Q 17.328125 68.5625 17.546875 68.703125 
Q 17.78125 68.84375 18.171875 68.984375 
Q 18.5625 69.140625 19.234375 69.203125 
Q 19.921875 69.28125 21 69.28125 
Q 22.125 69.28125 22.796875 69.140625 
Q 23.484375 69 23.875 68.75 
Q 24.265625 68.5 24.3125 68.109375 
Q 24.359375 67.71875 24.171875 67.28125 
z
" id="Calibri-28"/>
      <path d="M 25 5.609375 
Q 19.828125 5.609375 15.359375 8.21875 
Q 10.890625 10.84375 8.25 15.375 
Q 5.609375 19.921875 5.609375 25 
Q 5.609375 30.078125 8.25 34.609375 
Q 10.890625 39.15625 15.359375 41.765625 
Q 19.828125 44.390625 25 44.390625 
Q 30.171875 44.390625 34.609375 41.75 
Q 39.0625 39.109375 41.671875 34.59375 
Q 44.28125 30.078125 44.28125 25 
Q 44.28125 19.921875 41.671875 15.40625 
Q 39.0625 10.890625 34.609375 8.25 
Q 30.171875 5.609375 25 5.609375 
z
M 25 9.625 
Q 31.25 9.625 35.765625 14.1875 
Q 40.28125 18.75 40.28125 25 
Q 40.28125 29 38.203125 32.59375 
Q 36.140625 36.1875 32.625 38.28125 
Q 29.109375 40.375 25 40.375 
Q 21.921875 40.375 19.140625 39.171875 
Q 16.359375 37.984375 14.15625 35.78125 
Q 11.96875 33.59375 10.796875 30.828125 
Q 9.625 28.078125 9.625 25 
Q 9.625 18.75 14.140625 14.1875 
Q 18.65625 9.625 25 9.625 
z
" id="Cmsy10-b1"/>
      <path d="M 50.59375 8.9375 
Q 50.59375 8.15625 50.53125 7.5625 
Q 50.484375 6.984375 50.359375 6.546875 
Q 50.25 6.109375 50.046875 5.765625 
Q 49.859375 5.421875 49.359375 4.921875 
Q 48.875 4.4375 47.3125 3.4375 
Q 45.75 2.4375 43.421875 1.484375 
Q 41.109375 0.53125 38.109375 -0.125 
Q 35.109375 -0.78125 31.546875 -0.78125 
Q 25.390625 -0.78125 20.4375 1.265625 
Q 15.484375 3.328125 11.984375 7.328125 
Q 8.5 11.328125 6.609375 17.203125 
Q 4.734375 23.09375 4.734375 30.765625 
Q 4.734375 38.625 6.765625 44.765625 
Q 8.796875 50.921875 12.453125 55.1875 
Q 16.109375 59.46875 21.203125 61.71875 
Q 26.3125 63.96875 32.515625 63.96875 
Q 35.25 63.96875 37.84375 63.453125 
Q 40.4375 62.9375 42.625 62.15625 
Q 44.828125 61.375 46.53125 60.34375 
Q 48.25 59.328125 48.90625 58.671875 
Q 49.5625 58.015625 49.75 57.671875 
Q 49.953125 57.328125 50.078125 56.859375 
Q 50.203125 56.390625 50.265625 55.75 
Q 50.34375 55.125 50.34375 54.25 
Q 50.34375 53.265625 50.234375 52.578125 
Q 50.140625 51.90625 49.9375 51.4375 
Q 49.75 50.984375 49.484375 50.75 
Q 49.21875 50.53125 48.828125 50.53125 
Q 48.140625 50.53125 46.921875 51.484375 
Q 45.703125 52.4375 43.765625 53.578125 
Q 41.84375 54.734375 39.078125 55.6875 
Q 36.328125 56.640625 32.46875 56.640625 
Q 28.265625 56.640625 24.828125 54.953125 
Q 21.390625 53.265625 18.9375 50 
Q 16.5 46.734375 15.15625 42.015625 
Q 13.8125 37.3125 13.8125 31.25 
Q 13.8125 25.25 15.109375 20.625 
Q 16.40625 16.015625 18.8125 12.90625 
Q 21.234375 9.8125 24.75 8.21875 
Q 28.265625 6.640625 32.71875 6.640625 
Q 36.46875 6.640625 39.28125 7.5625 
Q 42.09375 8.5 44.0625 9.640625 
Q 46.046875 10.796875 47.3125 11.71875 
Q 48.578125 12.640625 49.3125 12.640625 
Q 49.65625 12.640625 49.890625 12.5 
Q 50.140625 12.359375 50.28125 11.9375 
Q 50.4375 11.53125 50.515625 10.796875 
Q 50.59375 10.0625 50.59375 8.9375 
z
" id="Calibri-43"/>
      <path d="M 23.78125 26.21875 
Q 23.78125 20.703125 23.09375 15.296875 
Q 22.40625 9.90625 21.03125 4.625 
Q 19.671875 -0.640625 17.6875 -5.734375 
Q 15.71875 -10.84375 13.09375 -15.828125 
Q 12.9375 -16.0625 12.640625 -16.25 
Q 12.359375 -16.453125 11.890625 -16.59375 
Q 11.421875 -16.75 10.78125 -16.796875 
Q 10.15625 -16.84375 9.28125 -16.84375 
Q 8.015625 -16.84375 7.296875 -16.71875 
Q 6.59375 -16.609375 6.265625 -16.328125 
Q 5.953125 -16.0625 5.96875 -15.640625 
Q 6 -15.234375 6.25 -14.65625 
Q 10.75 -4.78125 13.03125 5.546875 
Q 15.328125 15.875 15.328125 26.375 
Q 15.328125 36.8125 13.03125 47.140625 
Q 10.75 57.46875 6.15625 67.28125 
Q 5.953125 67.71875 6 68.109375 
Q 6.0625 68.5 6.453125 68.75 
Q 6.84375 69 7.515625 69.140625 
Q 8.203125 69.28125 9.328125 69.28125 
Q 10.359375 69.28125 11.03125 69.203125 
Q 11.71875 69.140625 12.125 68.984375 
Q 12.546875 68.84375 12.734375 68.703125 
Q 12.9375 68.5625 13.03125 68.359375 
Q 18.0625 58.34375 20.921875 47.765625 
Q 23.78125 37.203125 23.78125 26.21875 
z
" id="Calibri-29"/>
     </defs>
     <g transform="translate(27.59625 316.965)rotate(-90)scale(0.19 -0.19)">
      <use transform="translate(0 0.71875)" xlink:href="#Calibri-53"/>
      <use transform="translate(45.947266 0.71875)" xlink:href="#Calibri-75"/>
      <use transform="translate(98.486328 0.71875)" xlink:href="#Calibri-72"/>
      <use transform="translate(133.349609 0.71875)" xlink:href="#Calibri-66"/>
      <use transform="translate(163.867188 0.71875)" xlink:href="#Calibri-61"/>
      <use transform="translate(211.767578 0.71875)" xlink:href="#Calibri-63"/>
      <use transform="translate(254.052734 0.71875)" xlink:href="#Calibri-65"/>
      <use transform="translate(303.808594 0.71875)" xlink:href="#Calibri-20"/>
      <use transform="translate(326.416016 0.71875)" xlink:href="#Calibri-74"/>
      <use transform="translate(359.912109 0.71875)" xlink:href="#Calibri-65"/>
      <use transform="translate(409.667969 0.71875)" xlink:href="#Calibri-6d"/>
      <use transform="translate(489.550781 0.71875)" xlink:href="#Calibri-70"/>
      <use transform="translate(542.089844 0.71875)" xlink:href="#Calibri-65"/>
      <use transform="translate(591.845703 0.71875)" xlink:href="#Calibri-72"/>
      <use transform="translate(626.708984 0.71875)" xlink:href="#Calibri-61"/>
      <use transform="translate(674.609375 0.71875)" xlink:href="#Calibri-74"/>
      <use transform="translate(708.105469 0.71875)" xlink:href="#Calibri-75"/>
      <use transform="translate(760.644531 0.71875)" xlink:href="#Calibri-72"/>
      <use transform="translate(795.507812 0.71875)" xlink:href="#Calibri-65"/>
      <use transform="translate(845.263672 0.71875)" xlink:href="#Calibri-2c"/>
      <use transform="translate(870.214844 0.71875)" xlink:href="#Calibri-20"/>
      <use transform="translate(892.822266 0.71875)" xlink:href="#Calibri-Italic-54"/>
      <use transform="translate(941.552734 0.71875)" xlink:href="#Calibri-20"/>
      <use transform="translate(964.144531 0.71875)" xlink:href="#Calibri-28"/>
      <use transform="translate(1006.358047 33.4)scale(0.7)" xlink:href="#Cmsy10-b1"/>
      <use transform="translate(1054.766641 0.71875)" xlink:href="#Calibri-43"/>
      <use transform="translate(1108.086953 0.71875)" xlink:href="#Calibri-29"/>
     </g>
    </g>
   </g>
   <g id="line2d_76">
    <path clip-path="url(#p788800cf66)" d="M 513.64837 369.7 
L 513.64837 47.82 
" style="fill:none;stroke:#0000ff;stroke-dasharray:5.55,2.4;stroke-dashoffset:0;stroke-width:1.5;"/>
   </g>
   <g id="line2d_77">
    <path clip-path="url(#p788800cf66)" d="M 95.955 62.450909 
L 100.4 62.477767 
L 104.845 62.558331 
L 109.29 62.692577 
L 113.735 62.880463 
L 118.18 63.121934 
L 122.625 63.416914 
L 127.07 63.765316 
L 131.515 64.167034 
L 135.96 64.62195 
L 140.405 65.129931 
L 144.85 65.690828 
L 149.295 66.304481 
L 153.74 66.970718 
L 158.185 67.689353 
L 162.63 68.460191 
L 167.075 69.283027 
L 171.52 70.157646 
L 175.965 71.083825 
L 180.41 72.061336 
L 184.855 73.089942 
L 189.3 74.169406 
L 193.745 75.299484 
L 198.19 76.479932 
L 202.635 77.710506 
L 207.08 78.990961 
L 211.525 80.321057 
L 215.97 81.700558 
L 220.415 83.129234 
L 224.86 84.606862 
L 229.305 86.133229 
L 233.75 87.708134 
L 238.195 89.331391 
L 242.64 91.002826 
L 247.085 92.722286 
L 251.53 94.489637 
L 255.975 96.304766 
L 260.42 98.167586 
L 264.865 100.078037 
L 269.31 102.036085 
L 273.755 104.041733 
L 278.2 106.095014 
L 282.645 108.195999 
L 287.09 110.344801 
L 291.535 112.541573 
L 295.98 114.786513 
L 300.425 117.07987 
L 304.87 119.421942 
L 309.315 121.813081 
L 313.76 124.253697 
L 318.205 126.744262 
L 322.65 129.285309 
L 327.095 131.877441 
L 331.54 134.521328 
L 335.985 137.217718 
L 340.43 139.967432 
L 344.875 142.771376 
L 349.32 145.630539 
L 353.765 148.545997 
L 358.21 151.518921 
L 362.655 154.550575 
L 367.1 157.642325 
L 371.545 160.79564 
L 375.99 164.012097 
L 380.435 167.293386 
L 384.88 170.641311 
L 389.325 174.057799 
L 393.77 177.5449 
L 398.215 181.104793 
L 402.66 184.739793 
L 407.105 188.45235 
L 411.55 192.24506 
L 415.995 196.120662 
L 420.44 200.082051 
L 424.885 204.132277 
L 429.33 208.274553 
L 433.775 212.512257 
L 438.22 216.848939 
L 442.665 221.288326 
L 447.11 225.834328 
L 451.555 230.491039 
L 456 235.262747 
L 460.445 240.153939 
L 464.89 245.169301 
L 469.335 250.313731 
L 473.78 255.592339 
L 478.225 261.010455 
L 482.67 266.573634 
L 487.115 272.287661 
L 491.56 278.15856 
L 496.005 284.192595 
L 500.45 290.396278 
L 504.895 296.776379 
L 509.34 303.339924 
L 513.785 310.094209 
L 518.23 317.0468 
L 522.675 324.205544 
L 527.12 331.578572 
L 531.565 339.174308 
L 536.01 347.001472 
L 540.455 355.069091 
" style="fill:none;stroke:#000000;stroke-linecap:square;stroke-width:1.5;"/>
   </g>
   <g id="patch_3">
    <path d="M 73.73 369.7 
L 73.73 47.82 
" style="fill:none;stroke:#000000;stroke-linecap:square;stroke-linejoin:miter;stroke-width:0.8;"/>
   </g>
   <g id="patch_4">
    <path d="M 562.68 369.7 
L 562.68 47.82 
" style="fill:none;stroke:#000000;stroke-linecap:square;stroke-linejoin:miter;stroke-width:0.8;"/>
   </g>
   <g id="patch_5">
    <path d="M 73.73 369.7 
L 562.68 369.7 
" style="fill:none;stroke:#000000;stroke-linecap:square;stroke-linejoin:miter;stroke-width:0.8;"/>
   </g>
   <g id="patch_6">
    <path d="M 73.73 47.82 
L 562.68 47.82 
" style="fill:none;stroke:#000000;stroke-linecap:square;stroke-linejoin:miter;stroke-width:0.8;"/>
   </g>
  </g>
  <g id="axes_2">
   <g id="matplotlib.axis_3">
    <g id="xtick_27">
     <g id="line2d_78">
      <defs>
       <path d="M 0 0 
L 0 -3.5 
" id="m323cbbfaa4" style="stroke:#000000;stroke-width:0.8;"/>
      </defs>
      <g>
       <use style="stroke:#000000;stroke-width:0.8;" x="73.73" xlink:href="#m323cbbfaa4" y="47.82"/>
      </g>
     </g>
     <g id="text_16">
      <!-- 0 -->
      <g transform="translate(69.421563 41.297188)scale(0.17 -0.17)">
       <use xlink:href="#Calibri-30"/>
      </g>
     </g>
    </g>
    <g id="xtick_28">
     <g id="line2d_79">
      <g>
       <use style="stroke:#000000;stroke-width:0.8;" x="158.635276" xlink:href="#m323cbbfaa4" y="47.82"/>
      </g>
     </g>
     <g id="text_17">
      <!-- 10 -->
      <g transform="translate(150.018401 41.297188)scale(0.17 -0.17)">
       <use xlink:href="#Calibri-31"/>
       <use x="50.683594" xlink:href="#Calibri-30"/>
      </g>
     </g>
    </g>
    <g id="xtick_29">
     <g id="line2d_80">
      <g>
       <use style="stroke:#000000;stroke-width:0.8;" x="240.960749" xlink:href="#m323cbbfaa4" y="47.82"/>
      </g>
     </g>
     <g id="text_18">
      <!-- 20 -->
      <g transform="translate(232.343874 41.297188)scale(0.17 -0.17)">
       <use xlink:href="#Calibri-32"/>
       <use x="50.683594" xlink:href="#Calibri-30"/>
      </g>
     </g>
    </g>
    <g id="xtick_30">
     <g id="line2d_81">
      <g>
       <use style="stroke:#000000;stroke-width:0.8;" x="318.205" xlink:href="#m323cbbfaa4" y="47.82"/>
      </g>
     </g>
     <g id="text_19">
      <!-- 30 -->
      <defs>
       <path d="M 44.625 18.0625 
Q 44.625 13.71875 43.109375 10.21875 
Q 41.609375 6.734375 38.765625 4.25 
Q 35.9375 1.765625 31.78125 0.421875 
Q 27.640625 -0.921875 22.40625 -0.921875 
Q 19.234375 -0.921875 16.46875 -0.40625 
Q 13.71875 0.09375 11.5625 0.796875 
Q 9.421875 1.515625 8 2.265625 
Q 6.59375 3.03125 6.21875 3.375 
Q 5.859375 3.71875 5.65625 4.046875 
Q 5.46875 4.390625 5.3125 4.875 
Q 5.171875 5.375 5.09375 6.078125 
Q 5.03125 6.78125 5.03125 7.8125 
Q 5.03125 9.578125 5.375 10.25 
Q 5.71875 10.9375 6.34375 10.9375 
Q 6.78125 10.9375 8.078125 10.15625 
Q 9.375 9.375 11.390625 8.46875 
Q 13.421875 7.5625 16.125 6.78125 
Q 18.84375 6 22.171875 6 
Q 25.390625 6 27.828125 6.828125 
Q 30.28125 7.671875 31.9375 9.171875 
Q 33.59375 10.6875 34.421875 12.765625 
Q 35.25 14.84375 35.25 17.28125 
Q 35.25 19.96875 34.203125 22.109375 
Q 33.15625 24.265625 31.125 25.828125 
Q 29.109375 27.390625 26.140625 28.21875 
Q 23.1875 29.046875 19.4375 29.046875 
L 13.421875 29.046875 
Q 13.03125 29.046875 12.671875 29.21875 
Q 12.3125 29.390625 12.03125 29.78125 
Q 11.765625 30.171875 11.59375 30.8125 
Q 11.421875 31.453125 11.421875 32.46875 
Q 11.421875 33.40625 11.5625 34.015625 
Q 11.71875 34.625 11.984375 34.984375 
Q 12.25 35.359375 12.59375 35.515625 
Q 12.9375 35.6875 13.375 35.6875 
L 18.890625 35.6875 
Q 22.125 35.6875 24.6875 36.515625 
Q 27.25 37.359375 29.03125 38.921875 
Q 30.8125 40.484375 31.765625 42.65625 
Q 32.71875 44.828125 32.71875 47.515625 
Q 32.71875 49.46875 32.078125 51.25 
Q 31.453125 53.03125 30.171875 54.34375 
Q 28.90625 55.671875 26.921875 56.421875 
Q 24.953125 57.171875 22.359375 57.171875 
Q 19.53125 57.171875 17.15625 56.3125 
Q 14.796875 55.46875 12.9375 54.484375 
Q 11.078125 53.515625 9.859375 52.65625 
Q 8.640625 51.8125 8.15625 51.8125 
Q 7.8125 51.8125 7.546875 51.921875 
Q 7.28125 52.046875 7.109375 52.40625 
Q 6.9375 52.78125 6.859375 53.4375 
Q 6.78125 54.109375 6.78125 55.171875 
Q 6.78125 55.90625 6.828125 56.46875 
Q 6.890625 57.03125 7.03125 57.4375 
Q 7.171875 57.859375 7.359375 58.203125 
Q 7.5625 58.546875 8.03125 59 
Q 8.5 59.46875 9.90625 60.34375 
Q 11.328125 61.234375 13.40625 62.078125 
Q 15.484375 62.9375 18.1875 63.515625 
Q 20.90625 64.109375 24.03125 64.109375 
Q 28.421875 64.109375 31.734375 62.984375 
Q 35.0625 61.859375 37.28125 59.8125 
Q 39.5 57.765625 40.59375 54.90625 
Q 41.703125 52.046875 41.703125 48.578125 
Q 41.703125 45.609375 40.921875 43.046875 
Q 40.140625 40.484375 38.625 38.5 
Q 37.109375 36.53125 34.90625 35.125 
Q 32.71875 33.734375 29.828125 33.203125 
L 29.828125 33.109375 
Q 33.109375 32.765625 35.8125 31.46875 
Q 38.53125 30.171875 40.484375 28.21875 
Q 42.4375 26.265625 43.53125 23.65625 
Q 44.625 21.046875 44.625 18.0625 
z
" id="Calibri-33"/>
      </defs>
      <g transform="translate(309.588125 41.297188)scale(0.17 -0.17)">
       <use xlink:href="#Calibri-33"/>
       <use x="50.683594" xlink:href="#Calibri-30"/>
      </g>
     </g>
    </g>
    <g id="xtick_31">
     <g id="line2d_82">
      <g>
       <use style="stroke:#000000;stroke-width:0.8;" x="388.021002" xlink:href="#m323cbbfaa4" y="47.82"/>
      </g>
     </g>
     <g id="text_20">
      <!-- 40 -->
      <g transform="translate(379.404127 41.297188)scale(0.17 -0.17)">
       <use xlink:href="#Calibri-34"/>
       <use x="50.683594" xlink:href="#Calibri-30"/>
      </g>
     </g>
    </g>
    <g id="xtick_32">
     <g id="line2d_83">
      <g>
       <use style="stroke:#000000;stroke-width:0.8;" x="448.28743" xlink:href="#m323cbbfaa4" y="47.82"/>
      </g>
     </g>
     <g id="text_21">
      <!-- 50 -->
      <g transform="translate(439.670555 41.297188)scale(0.17 -0.17)">
       <use xlink:href="#Calibri-35"/>
       <use x="50.683594" xlink:href="#Calibri-30"/>
      </g>
     </g>
    </g>
    <g id="xtick_33">
     <g id="line2d_84">
      <g>
       <use style="stroke:#000000;stroke-width:0.8;" x="497.173121" xlink:href="#m323cbbfaa4" y="47.82"/>
      </g>
     </g>
     <g id="text_22">
      <!-- 60 -->
      <g transform="translate(488.556246 41.297188)scale(0.17 -0.17)">
       <use xlink:href="#Calibri-36"/>
       <use x="50.683594" xlink:href="#Calibri-30"/>
      </g>
     </g>
    </g>
    <g id="xtick_34">
     <g id="line2d_85">
      <g>
       <use style="stroke:#000000;stroke-width:0.8;" x="533.192707" xlink:href="#m323cbbfaa4" y="47.82"/>
      </g>
     </g>
     <g id="text_23">
      <!-- 70 -->
      <defs>
       <path d="M 46.046875 59.578125 
Q 46.046875 58.6875 45.96875 57.984375 
Q 45.90625 57.28125 45.78125 56.609375 
Q 45.65625 55.953125 45.4375 55.34375 
Q 45.21875 54.734375 44.921875 54.046875 
L 22.171875 1.609375 
Q 21.921875 1.03125 21.546875 0.65625 
Q 21.1875 0.296875 20.625 0.078125 
Q 20.0625 -0.140625 19.1875 -0.21875 
Q 18.3125 -0.296875 17.046875 -0.296875 
Q 15.375 -0.296875 14.453125 -0.140625 
Q 13.53125 0 13.109375 0.3125 
Q 12.703125 0.640625 12.75 1.09375 
Q 12.796875 1.5625 13.09375 2.203125 
L 37.015625 55.8125 
L 6.6875 55.8125 
Q 5.765625 55.8125 5.296875 56.78125 
Q 4.828125 57.765625 4.828125 59.515625 
Q 4.828125 60.453125 4.953125 61.125 
Q 5.078125 61.8125 5.3125 62.28125 
Q 5.5625 62.75 5.90625 62.96875 
Q 6.25 63.1875 6.6875 63.1875 
L 43.5 63.1875 
Q 44.1875 63.1875 44.703125 63.03125 
Q 45.21875 62.890625 45.484375 62.453125 
Q 45.75 62.015625 45.890625 61.328125 
Q 46.046875 60.640625 46.046875 59.578125 
z
" id="Calibri-37"/>
      </defs>
      <g transform="translate(524.575832 41.297188)scale(0.17 -0.17)">
       <use xlink:href="#Calibri-37"/>
       <use x="50.683594" xlink:href="#Calibri-30"/>
      </g>
     </g>
    </g>
    <g id="xtick_35">
     <g id="line2d_86">
      <g>
       <use style="stroke:#000000;stroke-width:0.8;" x="555.251751" xlink:href="#m323cbbfaa4" y="47.82"/>
      </g>
     </g>
     <g id="text_24">
      <!-- 80 -->
      <g transform="translate(546.634876 41.297188)scale(0.17 -0.17)">
       <use xlink:href="#Calibri-38"/>
       <use x="50.683594" xlink:href="#Calibri-30"/>
      </g>
     </g>
    </g>
    <g id="xtick_36">
     <g id="line2d_87">
      <g>
       <use style="stroke:#000000;stroke-width:0.8;" x="562.68" xlink:href="#m323cbbfaa4" y="47.82"/>
      </g>
     </g>
    </g>
    <g id="xtick_37">
     <g id="line2d_88">
      <defs>
       <path d="M 0 0 
L 0 -2 
" id="m210ed05630" style="stroke:#000000;stroke-width:0.6;"/>
      </defs>
      <g>
       <use style="stroke:#000000;stroke-width:0.6;" x="94.956319" xlink:href="#m210ed05630" y="47.82"/>
      </g>
     </g>
    </g>
    <g id="xtick_38">
     <g id="line2d_89">
      <g>
       <use style="stroke:#000000;stroke-width:0.6;" x="116.182638" xlink:href="#m210ed05630" y="47.82"/>
      </g>
     </g>
    </g>
    <g id="xtick_39">
     <g id="line2d_90">
      <g>
       <use style="stroke:#000000;stroke-width:0.6;" x="137.408957" xlink:href="#m210ed05630" y="47.82"/>
      </g>
     </g>
    </g>
    <g id="xtick_40">
     <g id="line2d_91">
      <g>
       <use style="stroke:#000000;stroke-width:0.6;" x="179.861596" xlink:href="#m210ed05630" y="47.82"/>
      </g>
     </g>
    </g>
    <g id="xtick_41">
     <g id="line2d_92">
      <g>
       <use style="stroke:#000000;stroke-width:0.6;" x="201.087915" xlink:href="#m210ed05630" y="47.82"/>
      </g>
     </g>
    </g>
    <g id="xtick_42">
     <g id="line2d_93">
      <g>
       <use style="stroke:#000000;stroke-width:0.6;" x="222.314234" xlink:href="#m210ed05630" y="47.82"/>
      </g>
     </g>
    </g>
    <g id="xtick_43">
     <g id="line2d_94">
      <g>
       <use style="stroke:#000000;stroke-width:0.6;" x="264.766872" xlink:href="#m210ed05630" y="47.82"/>
      </g>
     </g>
    </g>
    <g id="xtick_44">
     <g id="line2d_95">
      <g>
       <use style="stroke:#000000;stroke-width:0.6;" x="285.993191" xlink:href="#m210ed05630" y="47.82"/>
      </g>
     </g>
    </g>
    <g id="xtick_45">
     <g id="line2d_96">
      <g>
       <use style="stroke:#000000;stroke-width:0.6;" x="307.21951" xlink:href="#m210ed05630" y="47.82"/>
      </g>
     </g>
    </g>
    <g id="xtick_46">
     <g id="line2d_97">
      <g>
       <use style="stroke:#000000;stroke-width:0.6;" x="349.672149" xlink:href="#m210ed05630" y="47.82"/>
      </g>
     </g>
    </g>
    <g id="xtick_47">
     <g id="line2d_98">
      <g>
       <use style="stroke:#000000;stroke-width:0.6;" x="370.898468" xlink:href="#m210ed05630" y="47.82"/>
      </g>
     </g>
    </g>
    <g id="xtick_48">
     <g id="line2d_99">
      <g>
       <use style="stroke:#000000;stroke-width:0.6;" x="392.124787" xlink:href="#m210ed05630" y="47.82"/>
      </g>
     </g>
    </g>
    <g id="xtick_49">
     <g id="line2d_100">
      <g>
       <use style="stroke:#000000;stroke-width:0.6;" x="434.577425" xlink:href="#m210ed05630" y="47.82"/>
      </g>
     </g>
    </g>
    <g id="xtick_50">
     <g id="line2d_101">
      <g>
       <use style="stroke:#000000;stroke-width:0.6;" x="455.803744" xlink:href="#m210ed05630" y="47.82"/>
      </g>
     </g>
    </g>
    <g id="xtick_51">
     <g id="line2d_102">
      <g>
       <use style="stroke:#000000;stroke-width:0.6;" x="477.030063" xlink:href="#m210ed05630" y="47.82"/>
      </g>
     </g>
    </g>
    <g id="xtick_52">
     <g id="line2d_103">
      <g>
       <use style="stroke:#000000;stroke-width:0.6;" x="519.482701" xlink:href="#m210ed05630" y="47.82"/>
      </g>
     </g>
    </g>
    <g id="xtick_53">
     <g id="line2d_104">
      <g>
       <use style="stroke:#000000;stroke-width:0.6;" x="540.709021" xlink:href="#m210ed05630" y="47.82"/>
      </g>
     </g>
    </g>
    <g id="xtick_54">
     <g id="line2d_105">
      <g>
       <use style="stroke:#000000;stroke-width:0.6;" x="561.93534" xlink:href="#m210ed05630" y="47.82"/>
      </g>
     </g>
    </g>
    <g id="text_25">
     <!-- Latitude, $\phi$ (deg) -->
     <defs>
      <path d="M 41.15625 3.65625 
Q 41.15625 2.6875 41.0625 2.03125 
Q 40.96875 1.375 40.75 0.90625 
Q 40.53125 0.4375 40.203125 0.21875 
Q 39.890625 0 39.453125 0 
L 11.53125 0 
Q 10.40625 0 9.40625 0.75 
Q 8.40625 1.515625 8.40625 3.421875 
L 8.40625 61.921875 
Q 8.40625 62.3125 8.59375 62.59375 
Q 8.796875 62.890625 9.28125 63.0625 
Q 9.765625 63.234375 10.59375 63.359375 
Q 11.421875 63.484375 12.59375 63.484375 
Q 13.8125 63.484375 14.625 63.359375 
Q 15.4375 63.234375 15.921875 63.0625 
Q 16.40625 62.890625 16.59375 62.59375 
Q 16.796875 62.3125 16.796875 61.921875 
L 16.796875 7.28125 
L 39.453125 7.28125 
Q 39.890625 7.28125 40.203125 7.0625 
Q 40.53125 6.84375 40.75 6.421875 
Q 40.96875 6 41.0625 5.3125 
Q 41.15625 4.640625 41.15625 3.65625 
z
" id="Calibri-4c"/>
      <path d="M 45.125 1.21875 
Q 45.125 0.828125 44.953125 0.53125 
Q 44.78125 0.25 44.359375 0.078125 
Q 43.953125 -0.09375 43.265625 -0.1875 
Q 42.578125 -0.296875 41.609375 -0.296875 
Q 40.578125 -0.296875 39.890625 -0.1875 
Q 39.203125 -0.09375 38.765625 0.078125 
Q 38.328125 0.25 38.125 0.53125 
Q 37.9375 0.828125 37.9375 1.21875 
L 37.9375 7.03125 
Q 34.46875 3.265625 30.734375 1.171875 
Q 27 -0.921875 22.5625 -0.921875 
Q 17.71875 -0.921875 14.296875 0.953125 
Q 10.890625 2.828125 8.765625 6.03125 
Q 6.640625 9.234375 5.65625 13.546875 
Q 4.6875 17.875 4.6875 22.65625 
Q 4.6875 28.328125 5.90625 32.890625 
Q 7.125 37.453125 9.515625 40.671875 
Q 11.921875 43.890625 15.453125 45.625 
Q 19 47.359375 23.640625 47.359375 
Q 27.484375 47.359375 30.6875 45.671875 
Q 33.890625 44 37.015625 40.71875 
L 37.015625 66.265625 
Q 37.015625 66.609375 37.1875 66.921875 
Q 37.359375 67.234375 37.84375 67.40625 
Q 38.328125 67.578125 39.078125 67.703125 
Q 39.84375 67.828125 41.015625 67.828125 
Q 42.234375 67.828125 43.015625 67.703125 
Q 43.796875 67.578125 44.234375 67.40625 
Q 44.671875 67.234375 44.890625 66.921875 
Q 45.125 66.609375 45.125 66.265625 
z
M 37.015625 32.125 
Q 33.734375 36.1875 30.6875 38.3125 
Q 27.640625 40.4375 24.3125 40.4375 
Q 21.234375 40.4375 19.078125 38.96875 
Q 16.9375 37.5 15.59375 35.109375 
Q 14.265625 32.71875 13.640625 29.6875 
Q 13.03125 26.65625 13.03125 23.53125 
Q 13.03125 20.21875 13.546875 17.046875 
Q 14.0625 13.875 15.328125 11.40625 
Q 16.609375 8.9375 18.703125 7.4375 
Q 20.796875 5.953125 23.96875 5.953125 
Q 25.59375 5.953125 27.078125 6.390625 
Q 28.5625 6.84375 30.125 7.859375 
Q 31.6875 8.890625 33.390625 10.515625 
Q 35.109375 12.15625 37.015625 14.546875 
z
" id="Calibri-64"/>
      <path d="M 44.1875 43.171875 
Q 44.1875 41.453125 43.71875 40.6875 
Q 43.265625 39.9375 42.53125 39.9375 
L 36.234375 39.9375 
Q 37.9375 38.1875 38.625 36.0625 
Q 39.3125 33.9375 39.3125 31.640625 
Q 39.3125 27.828125 38.078125 24.890625 
Q 36.859375 21.96875 34.59375 19.9375 
Q 32.328125 17.921875 29.203125 16.84375 
Q 26.078125 15.765625 22.265625 15.765625 
Q 19.578125 15.765625 17.15625 16.46875 
Q 14.75 17.1875 13.421875 18.265625 
Q 12.546875 17.390625 11.984375 16.265625 
Q 11.421875 15.140625 11.421875 13.671875 
Q 11.421875 11.96875 13 10.84375 
Q 14.59375 9.71875 17.234375 9.625 
L 28.71875 9.125 
Q 31.984375 9.03125 34.71875 8.21875 
Q 37.453125 7.421875 39.453125 5.921875 
Q 41.453125 4.4375 42.578125 2.265625 
Q 43.703125 0.09375 43.703125 -2.78125 
Q 43.703125 -5.8125 42.421875 -8.546875 
Q 41.15625 -11.28125 38.546875 -13.359375 
Q 35.9375 -15.4375 31.875 -16.625 
Q 27.828125 -17.828125 22.3125 -17.828125 
Q 17 -17.828125 13.25 -16.921875 
Q 9.515625 -16.015625 7.125 -14.453125 
Q 4.734375 -12.890625 3.65625 -10.71875 
Q 2.59375 -8.546875 2.59375 -6 
Q 2.59375 -4.390625 2.984375 -2.875 
Q 3.375 -1.375 4.171875 0 
Q 4.984375 1.375 6.171875 2.609375 
Q 7.375 3.859375 8.9375 5.078125 
Q 6.546875 6.296875 5.390625 8.15625 
Q 4.25 10.015625 4.25 12.15625 
Q 4.25 15.140625 5.46875 17.484375 
Q 6.6875 19.828125 8.5 21.6875 
Q 6.984375 23.484375 6.09375 25.75 
Q 5.21875 28.03125 5.21875 31.25 
Q 5.21875 35.015625 6.484375 37.984375 
Q 7.765625 40.96875 10 43.015625 
Q 12.25 45.0625 15.40625 46.15625 
Q 18.5625 47.265625 22.265625 47.265625 
Q 24.265625 47.265625 26 47.046875 
Q 27.734375 46.828125 29.25 46.4375 
L 42.53125 46.4375 
Q 43.359375 46.4375 43.765625 45.625 
Q 44.1875 44.828125 44.1875 43.171875 
z
M 31.59375 31.59375 
Q 31.59375 36.078125 29.125 38.59375 
Q 26.65625 41.109375 22.125 41.109375 
Q 19.78125 41.109375 18.046875 40.328125 
Q 16.3125 39.546875 15.15625 38.171875 
Q 14.015625 36.8125 13.453125 35.03125 
Q 12.890625 33.25 12.890625 31.296875 
Q 12.890625 26.953125 15.359375 24.453125 
Q 17.828125 21.96875 22.265625 21.96875 
Q 24.65625 21.96875 26.40625 22.71875 
Q 28.171875 23.484375 29.3125 24.828125 
Q 30.46875 26.171875 31.03125 27.921875 
Q 31.59375 29.6875 31.59375 31.59375 
z
M 35.640625 -3.21875 
Q 35.640625 -0.390625 33.3125 1.140625 
Q 31 2.6875 27.046875 2.78125 
L 15.671875 3.171875 
Q 14.109375 1.953125 13.109375 0.84375 
Q 12.109375 -0.25 11.515625 -1.25 
Q 10.9375 -2.25 10.71875 -3.21875 
Q 10.5 -4.203125 10.5 -5.21875 
Q 10.5 -8.40625 13.71875 -10.03125 
Q 16.9375 -11.671875 22.703125 -11.671875 
Q 26.375 -11.671875 28.828125 -10.953125 
Q 31.296875 -10.25 32.8125 -9.078125 
Q 34.328125 -7.90625 34.984375 -6.390625 
Q 35.640625 -4.890625 35.640625 -3.21875 
z
" id="Calibri-67"/>
     </defs>
     <g transform="translate(253.51 25.734531)scale(0.19 -0.19)">
      <use transform="translate(0 0.71875)" xlink:href="#Calibri-4c"/>
      <use transform="translate(42.041016 0.71875)" xlink:href="#Calibri-61"/>
      <use transform="translate(89.941406 0.71875)" xlink:href="#Calibri-74"/>
      <use transform="translate(123.4375 0.71875)" xlink:href="#Calibri-69"/>
      <use transform="translate(146.386719 0.71875)" xlink:href="#Calibri-74"/>
      <use transform="translate(179.882812 0.71875)" xlink:href="#Calibri-75"/>
      <use transform="translate(232.421875 0.71875)" xlink:href="#Calibri-64"/>
      <use transform="translate(284.960938 0.71875)" xlink:href="#Calibri-65"/>
      <use transform="translate(334.716797 0.71875)" xlink:href="#Calibri-2c"/>
      <use transform="translate(359.667969 0.71875)" xlink:href="#Calibri-20"/>
      <use transform="translate(382.275391 0.71875)" xlink:href="#Calibri-Italic-3d5"/>
      <use transform="translate(447.412109 0.71875)" xlink:href="#Calibri-20"/>
      <use transform="translate(470.003906 0.71875)" xlink:href="#Calibri-28"/>
      <use transform="translate(500.326172 0.71875)" xlink:href="#Calibri-64"/>
      <use transform="translate(552.865234 0.71875)" xlink:href="#Calibri-65"/>
      <use transform="translate(602.621094 0.71875)" xlink:href="#Calibri-67"/>
      <use transform="translate(649.691406 0.71875)" xlink:href="#Calibri-29"/>
     </g>
    </g>
   </g>
   <g id="patch_7">
    <path d="M 73.73 369.7 
L 73.73 47.82 
" style="fill:none;stroke:#000000;stroke-linecap:square;stroke-linejoin:miter;stroke-width:0.8;"/>
   </g>
   <g id="patch_8">
    <path d="M 562.68 369.7 
L 562.68 47.82 
" style="fill:none;stroke:#000000;stroke-linecap:square;stroke-linejoin:miter;stroke-width:0.8;"/>
   </g>
   <g id="patch_9">
    <path d="M 73.73 369.7 
L 562.68 369.7 
" style="fill:none;stroke:#000000;stroke-linecap:square;stroke-linejoin:miter;stroke-width:0.8;"/>
   </g>
   <g id="patch_10">
    <path d="M 73.73 47.82 
L 562.68 47.82 
" style="fill:none;stroke:#000000;stroke-linecap:square;stroke-linejoin:miter;stroke-width:0.8;"/>
   </g>
  </g>
 </g>
 <defs>
  <clipPath id="p788800cf66">
   <rect height="321.88" width="488.95" x="73.73" y="47.82"/>
  </clipPath>
 </defs>
</svg>
