<?xml version="1.0" encoding="utf-8" standalone="no"?>
<!DOCTYPE svg PUBLIC "-//W3C//DTD SVG 1.1//EN"
  "http://www.w3.org/Graphics/SVG/1.1/DTD/svg11.dtd">
<!-- Created with matplotlib (http://matplotlib.org/) -->
<svg height="432pt" version="1.1" viewBox="0 0 576 432" width="576pt" xmlns="http://www.w3.org/2000/svg" xmlns:xlink="http://www.w3.org/1999/xlink">
 <defs>
  <style type="text/css">
*{stroke-linecap:butt;stroke-linejoin:round;}
  </style>
 </defs>
 <g id="figure_1">
  <g id="patch_1">
   <path d="M 0 432 
L 576 432 
L 576 0 
L 0 0 
z
" style="fill:#ffffff;"/>
  </g>
  <g id="axes_1">
   <g id="patch_2">
    <path d="M 69.41 369.7 
L 553.77 369.7 
L 553.77 13.32 
L 69.41 13.32 
z
" style="fill:#ffffff;"/>
   </g>
   <g id="matplotlib.axis_1">
    <g id="xtick_1">
     <g id="line2d_1">
      <path clip-path="url(#p3d705ea1ec)" d="M 69.41 369.7 
L 69.41 13.32 
" style="fill:none;stroke:#bfbfbf;stroke-linecap:square;stroke-width:0.8;"/>
     </g>
     <g id="line2d_2">
      <defs>
       <path d="M 0 0 
L 0 3.5 
" id="m926061a59c" style="stroke:#000000;stroke-width:0.8;"/>
      </defs>
      <g>
       <use style="stroke:#000000;stroke-width:0.8;" x="69.41" xlink:href="#m926061a59c" y="369.7"/>
      </g>
     </g>
     <g id="text_1">
      <!-- 0.8 -->
      <defs>
       <path d="M 47.21875 31.734375 
Q 47.21875 24.46875 46.0625 18.453125 
Q 44.921875 12.453125 42.25 8.125 
Q 39.59375 3.8125 35.296875 1.4375 
Q 31 -0.921875 24.703125 -0.921875 
Q 18.75 -0.921875 14.671875 1.203125 
Q 10.59375 3.328125 8.09375 7.453125 
Q 5.609375 11.578125 4.5625 17.609375 
Q 3.515625 23.640625 3.515625 31.453125 
Q 3.515625 38.671875 4.6875 44.703125 
Q 5.859375 50.734375 8.5 55.046875 
Q 11.140625 59.375 15.4375 61.734375 
Q 19.734375 64.109375 25.984375 64.109375 
Q 31.984375 64.109375 36.0625 61.984375 
Q 40.140625 59.859375 42.625 55.734375 
Q 45.125 51.609375 46.171875 45.578125 
Q 47.21875 39.546875 47.21875 31.734375 
z
M 38.625 31.15625 
Q 38.625 35.890625 38.28125 39.640625 
Q 37.9375 43.40625 37.28125 46.28125 
Q 36.625 49.171875 35.5625 51.25 
Q 34.515625 53.328125 33.046875 54.65625 
Q 31.59375 56 29.703125 56.609375 
Q 27.828125 57.234375 25.484375 57.234375 
Q 21.34375 57.234375 18.75 55.28125 
Q 16.15625 53.328125 14.671875 49.90625 
Q 13.1875 46.484375 12.640625 41.890625 
Q 12.109375 37.3125 12.109375 32.03125 
Q 12.109375 24.953125 12.84375 20 
Q 13.578125 15.046875 15.15625 11.921875 
Q 16.75 8.796875 19.21875 7.375 
Q 21.6875 5.953125 25.203125 5.953125 
Q 27.9375 5.953125 30 6.828125 
Q 32.078125 7.71875 33.5625 9.34375 
Q 35.0625 10.984375 36.03125 13.28125 
Q 37.015625 15.578125 37.59375 18.359375 
Q 38.1875 21.140625 38.40625 24.390625 
Q 38.625 27.640625 38.625 31.15625 
z
" id="Calibri-30"/>
       <path d="M 17.875 5.328125 
Q 17.875 1.859375 16.71875 0.703125 
Q 15.578125 -0.4375 12.546875 -0.4375 
Q 9.625 -0.4375 8.5 0.6875 
Q 7.375 1.8125 7.375 5.171875 
Q 7.375 8.640625 8.515625 9.78125 
Q 9.671875 10.9375 12.703125 10.9375 
Q 15.625 10.9375 16.75 9.8125 
Q 17.875 8.6875 17.875 5.328125 
z
" id="Calibri-2e"/>
       <path d="M 46.578125 16.21875 
Q 46.578125 12.109375 45.109375 8.90625 
Q 43.65625 5.71875 40.890625 3.515625 
Q 38.140625 1.3125 34.078125 0.1875 
Q 30.03125 -0.921875 24.8125 -0.921875 
Q 19.921875 -0.921875 16.0625 0.09375 
Q 12.203125 1.125 9.515625 3.125 
Q 6.84375 5.125 5.421875 8.046875 
Q 4 10.984375 4 14.75 
Q 4 17.71875 4.96875 20.203125 
Q 5.953125 22.703125 7.78125 24.796875 
Q 9.625 26.90625 12.296875 28.734375 
Q 14.984375 30.5625 18.359375 32.234375 
Q 15.4375 33.734375 13.1875 35.421875 
Q 10.9375 37.109375 9.375 39.078125 
Q 7.8125 41.0625 7 43.3125 
Q 6.203125 45.5625 6.203125 48.1875 
Q 6.203125 51.515625 7.390625 54.421875 
Q 8.59375 57.328125 11 59.46875 
Q 13.421875 61.625 17.15625 62.859375 
Q 20.90625 64.109375 25.875 64.109375 
Q 30.671875 64.109375 34.15625 62.953125 
Q 37.640625 61.8125 39.90625 59.828125 
Q 42.1875 57.859375 43.265625 55.171875 
Q 44.34375 52.484375 44.34375 49.421875 
Q 44.34375 46.921875 43.53125 44.625 
Q 42.71875 42.328125 41.15625 40.28125 
Q 39.59375 38.234375 37.328125 36.453125 
Q 35.0625 34.671875 32.125 33.109375 
Q 35.59375 31.390625 38.296875 29.578125 
Q 41.015625 27.78125 42.84375 25.703125 
Q 44.671875 23.640625 45.625 21.3125 
Q 46.578125 19 46.578125 16.21875 
z
M 36.03125 48.640625 
Q 36.03125 50.6875 35.328125 52.34375 
Q 34.625 54 33.25 55.171875 
Q 31.890625 56.34375 29.859375 56.953125 
Q 27.828125 57.5625 25.25 57.5625 
Q 19.96875 57.5625 17.25 55.171875 
Q 14.546875 52.78125 14.546875 48.640625 
Q 14.546875 46.734375 15.203125 45.09375 
Q 15.875 43.453125 17.265625 41.984375 
Q 18.65625 40.53125 20.78125 39.140625 
Q 22.90625 37.75 25.828125 36.234375 
Q 30.765625 38.765625 33.390625 41.84375 
Q 36.03125 44.921875 36.03125 48.640625 
z
M 38.09375 15.328125 
Q 38.09375 17.578125 37.25 19.40625 
Q 36.421875 21.234375 34.734375 22.828125 
Q 33.0625 24.421875 30.546875 25.90625 
Q 28.03125 27.390625 24.703125 29 
Q 21.625 27.484375 19.3125 25.96875 
Q 17 24.46875 15.5 22.84375 
Q 14.015625 21.234375 13.25 19.453125 
Q 12.5 17.671875 12.5 15.53125 
Q 12.5 10.796875 15.75 8.203125 
Q 19 5.609375 25.4375 5.609375 
Q 31.6875 5.609375 34.890625 8.21875 
Q 38.09375 10.84375 38.09375 15.328125 
z
" id="Calibri-38"/>
      </defs>
      <g transform="translate(58.01375 393.442812)scale(0.18 -0.18)">
       <use xlink:href="#Calibri-30"/>
       <use x="50.683594" xlink:href="#Calibri-2e"/>
       <use x="75.927734" xlink:href="#Calibri-38"/>
      </g>
     </g>
    </g>
    <g id="xtick_2">
     <g id="line2d_3">
      <path clip-path="url(#p3d705ea1ec)" d="M 150.136667 369.7 
L 150.136667 13.32 
" style="fill:none;stroke:#bfbfbf;stroke-linecap:square;stroke-width:0.8;"/>
     </g>
     <g id="line2d_4">
      <g>
       <use style="stroke:#000000;stroke-width:0.8;" x="150.136667" xlink:href="#m926061a59c" y="369.7"/>
      </g>
     </g>
     <g id="text_2">
      <!-- 0.9 -->
      <defs>
       <path d="M 45.609375 34.078125 
Q 45.609375 29.984375 45.109375 25.78125 
Q 44.625 21.578125 43.453125 17.6875 
Q 42.28125 13.8125 40.296875 10.421875 
Q 38.328125 7.03125 35.328125 4.484375 
Q 32.328125 1.953125 28.203125 0.515625 
Q 24.078125 -0.921875 18.609375 -0.921875 
Q 16.5 -0.921875 14.515625 -0.65625 
Q 12.546875 -0.390625 10.953125 0 
Q 9.375 0.390625 8.296875 0.828125 
Q 7.234375 1.265625 6.734375 1.703125 
Q 6.25 2.15625 6.03125 2.90625 
Q 5.8125 3.65625 5.8125 4.9375 
Q 5.8125 6 5.875 6.640625 
Q 5.953125 7.28125 6.09375 7.609375 
Q 6.25 7.953125 6.515625 8.078125 
Q 6.78125 8.203125 7.171875 8.203125 
Q 7.71875 8.203125 8.6875 7.828125 
Q 9.671875 7.46875 11.15625 7.03125 
Q 12.640625 6.59375 14.640625 6.21875 
Q 16.65625 5.859375 19.140625 5.859375 
Q 23.875 5.859375 27.265625 7.6875 
Q 30.671875 9.515625 32.8125 12.59375 
Q 34.96875 15.671875 36.03125 19.71875 
Q 37.109375 23.78125 37.203125 28.265625 
Q 34.625 26.765625 31 25.59375 
Q 27.390625 24.421875 22.703125 24.421875 
Q 17.4375 24.421875 13.84375 25.859375 
Q 10.25 27.296875 8.078125 29.78125 
Q 5.90625 32.28125 4.953125 35.6875 
Q 4 39.109375 4 43.171875 
Q 4 47.359375 5.21875 51.140625 
Q 6.453125 54.9375 9.03125 57.8125 
Q 11.625 60.6875 15.625 62.390625 
Q 19.625 64.109375 25.203125 64.109375 
Q 29.15625 64.109375 32.203125 63.109375 
Q 35.25 62.109375 37.5 60.21875 
Q 39.75 58.34375 41.3125 55.6875 
Q 42.875 53.03125 43.828125 49.65625 
Q 44.78125 46.296875 45.1875 42.359375 
Q 45.609375 38.421875 45.609375 34.078125 
z
M 37.0625 35.015625 
Q 37.0625 41.265625 36.234375 45.53125 
Q 35.40625 49.8125 33.78125 52.4375 
Q 32.171875 55.078125 29.828125 56.25 
Q 27.484375 57.421875 24.421875 57.421875 
Q 21.234375 57.421875 18.984375 56.265625 
Q 16.75 55.125 15.3125 53.1875 
Q 13.875 51.265625 13.1875 48.828125 
Q 12.5 46.390625 12.5 43.796875 
Q 12.5 40.921875 13.109375 38.53125 
Q 13.71875 36.140625 15.078125 34.46875 
Q 16.453125 32.8125 18.640625 31.90625 
Q 20.84375 31 24.078125 31 
Q 27.734375 31 31.15625 32.09375 
Q 34.578125 33.203125 37.0625 35.015625 
z
" id="Calibri-39"/>
      </defs>
      <g transform="translate(138.740417 393.442812)scale(0.18 -0.18)">
       <use xlink:href="#Calibri-30"/>
       <use x="50.683594" xlink:href="#Calibri-2e"/>
       <use x="75.927734" xlink:href="#Calibri-39"/>
      </g>
     </g>
    </g>
    <g id="xtick_3">
     <g id="line2d_5">
      <path clip-path="url(#p3d705ea1ec)" d="M 230.863333 369.7 
L 230.863333 13.32 
" style="fill:none;stroke:#bfbfbf;stroke-linecap:square;stroke-width:0.8;"/>
     </g>
     <g id="line2d_6">
      <g>
       <use style="stroke:#000000;stroke-width:0.8;" x="230.863333" xlink:href="#m926061a59c" y="369.7"/>
      </g>
     </g>
     <g id="text_3">
      <!-- 1.0 -->
      <defs>
       <path d="M 45.265625 3.328125 
Q 45.265625 2.390625 45.109375 1.75 
Q 44.96875 1.125 44.71875 0.734375 
Q 44.484375 0.34375 44.15625 0.171875 
Q 43.84375 0 43.5 0 
L 10.5 0 
Q 10.15625 0 9.859375 0.171875 
Q 9.578125 0.34375 9.296875 0.734375 
Q 9.03125 1.125 8.875 1.75 
Q 8.734375 2.390625 8.734375 3.328125 
Q 8.734375 4.203125 8.875 4.828125 
Q 9.03125 5.46875 9.25 5.875 
Q 9.46875 6.296875 9.78125 6.515625 
Q 10.109375 6.734375 10.5 6.734375 
L 23.6875 6.734375 
L 23.6875 54.78125 
L 11.46875 47.515625 
Q 10.546875 47.015625 9.984375 46.921875 
Q 9.421875 46.828125 9.078125 47.140625 
Q 8.734375 47.46875 8.609375 48.1875 
Q 8.5 48.921875 8.5 50.046875 
Q 8.5 50.875 8.5625 51.453125 
Q 8.640625 52.046875 8.78125 52.4375 
Q 8.9375 52.828125 9.203125 53.125 
Q 9.46875 53.421875 9.90625 53.71875 
L 24.46875 63.03125 
Q 24.65625 63.1875 24.953125 63.28125 
Q 25.25 63.375 25.6875 63.46875 
Q 26.125 63.578125 26.703125 63.59375 
Q 27.296875 63.625 28.171875 63.625 
Q 29.34375 63.625 30.125 63.515625 
Q 30.90625 63.421875 31.34375 63.25 
Q 31.78125 63.09375 31.921875 62.8125 
Q 32.078125 62.546875 32.078125 62.25 
L 32.078125 6.734375 
L 43.5 6.734375 
Q 43.890625 6.734375 44.234375 6.515625 
Q 44.578125 6.296875 44.796875 5.875 
Q 45.015625 5.46875 45.140625 4.828125 
Q 45.265625 4.203125 45.265625 3.328125 
z
" id="Calibri-31"/>
      </defs>
      <g transform="translate(219.467083 393.442812)scale(0.18 -0.18)">
       <use xlink:href="#Calibri-31"/>
       <use x="50.683594" xlink:href="#Calibri-2e"/>
       <use x="75.927734" xlink:href="#Calibri-30"/>
      </g>
     </g>
    </g>
    <g id="xtick_4">
     <g id="line2d_7">
      <path clip-path="url(#p3d705ea1ec)" d="M 311.59 369.7 
L 311.59 13.32 
" style="fill:none;stroke:#bfbfbf;stroke-linecap:square;stroke-width:0.8;"/>
     </g>
     <g id="line2d_8">
      <g>
       <use style="stroke:#000000;stroke-width:0.8;" x="311.59" xlink:href="#m926061a59c" y="369.7"/>
      </g>
     </g>
     <g id="text_4">
      <!-- 1.1 -->
      <g transform="translate(300.19375 393.442812)scale(0.18 -0.18)">
       <use xlink:href="#Calibri-31"/>
       <use x="50.683594" xlink:href="#Calibri-2e"/>
       <use x="75.927734" xlink:href="#Calibri-31"/>
      </g>
     </g>
    </g>
    <g id="xtick_5">
     <g id="line2d_9">
      <path clip-path="url(#p3d705ea1ec)" d="M 392.316667 369.7 
L 392.316667 13.32 
" style="fill:none;stroke:#bfbfbf;stroke-linecap:square;stroke-width:0.8;"/>
     </g>
     <g id="line2d_10">
      <g>
       <use style="stroke:#000000;stroke-width:0.8;" x="392.316667" xlink:href="#m926061a59c" y="369.7"/>
      </g>
     </g>
     <g id="text_5">
      <!-- 1.2 -->
      <defs>
       <path d="M 45.125 3.609375 
Q 45.125 2.734375 45 2.046875 
Q 44.875 1.375 44.65625 0.90625 
Q 44.4375 0.4375 44.0625 0.21875 
Q 43.703125 0 43.265625 0 
L 8.34375 0 
Q 7.671875 0 7.15625 0.171875 
Q 6.640625 0.34375 6.265625 0.734375 
Q 5.90625 1.125 5.734375 1.859375 
Q 5.5625 2.59375 5.5625 3.65625 
Q 5.5625 4.640625 5.640625 5.375 
Q 5.71875 6.109375 5.953125 6.671875 
Q 6.203125 7.234375 6.5625 7.78125 
Q 6.9375 8.34375 7.515625 8.984375 
L 19.78125 21.96875 
Q 24.03125 26.46875 26.59375 30.03125 
Q 29.15625 33.59375 30.546875 36.515625 
Q 31.9375 39.453125 32.375 41.84375 
Q 32.8125 44.234375 32.8125 46.34375 
Q 32.8125 48.4375 32.125 50.3125 
Q 31.453125 52.203125 30.15625 53.609375 
Q 28.859375 55.03125 26.90625 55.859375 
Q 24.953125 56.6875 22.40625 56.6875 
Q 19.4375 56.6875 17.0625 55.859375 
Q 14.703125 55.03125 12.921875 54.046875 
Q 11.140625 53.078125 9.9375 52.25 
Q 8.734375 51.421875 8.15625 51.421875 
Q 7.8125 51.421875 7.546875 51.609375 
Q 7.28125 51.8125 7.109375 52.25 
Q 6.9375 52.6875 6.828125 53.421875 
Q 6.734375 54.15625 6.734375 55.171875 
Q 6.734375 55.90625 6.78125 56.4375 
Q 6.84375 56.984375 6.953125 57.375 
Q 7.078125 57.765625 7.265625 58.109375 
Q 7.46875 58.453125 8.046875 58.953125 
Q 8.640625 59.46875 10.078125 60.34375 
Q 11.53125 61.234375 13.703125 62.078125 
Q 15.875 62.9375 18.484375 63.515625 
Q 21.09375 64.109375 23.96875 64.109375 
Q 28.5625 64.109375 32 62.8125 
Q 35.453125 61.53125 37.71875 59.28125 
Q 39.984375 57.03125 41.109375 54.046875 
Q 42.234375 51.078125 42.234375 47.703125 
Q 42.234375 44.671875 41.6875 41.671875 
Q 41.15625 38.671875 39.421875 35.171875 
Q 37.703125 31.6875 34.421875 27.40625 
Q 31.15625 23.140625 25.734375 17.578125 
L 15.71875 7.125 
L 43.21875 7.125 
Q 43.609375 7.125 43.96875 6.90625 
Q 44.34375 6.6875 44.609375 6.25 
Q 44.875 5.8125 45 5.15625 
Q 45.125 4.5 45.125 3.609375 
z
" id="Calibri-32"/>
      </defs>
      <g transform="translate(380.920417 393.442812)scale(0.18 -0.18)">
       <use xlink:href="#Calibri-31"/>
       <use x="50.683594" xlink:href="#Calibri-2e"/>
       <use x="75.927734" xlink:href="#Calibri-32"/>
      </g>
     </g>
    </g>
    <g id="xtick_6">
     <g id="line2d_11">
      <path clip-path="url(#p3d705ea1ec)" d="M 473.043333 369.7 
L 473.043333 13.32 
" style="fill:none;stroke:#bfbfbf;stroke-linecap:square;stroke-width:0.8;"/>
     </g>
     <g id="line2d_12">
      <g>
       <use style="stroke:#000000;stroke-width:0.8;" x="473.043333" xlink:href="#m926061a59c" y="369.7"/>
      </g>
     </g>
     <g id="text_6">
      <!-- 1.3 -->
      <defs>
       <path d="M 44.625 18.0625 
Q 44.625 13.71875 43.109375 10.21875 
Q 41.609375 6.734375 38.765625 4.25 
Q 35.9375 1.765625 31.78125 0.421875 
Q 27.640625 -0.921875 22.40625 -0.921875 
Q 19.234375 -0.921875 16.46875 -0.40625 
Q 13.71875 0.09375 11.5625 0.796875 
Q 9.421875 1.515625 8 2.265625 
Q 6.59375 3.03125 6.21875 3.375 
Q 5.859375 3.71875 5.65625 4.046875 
Q 5.46875 4.390625 5.3125 4.875 
Q 5.171875 5.375 5.09375 6.078125 
Q 5.03125 6.78125 5.03125 7.8125 
Q 5.03125 9.578125 5.375 10.25 
Q 5.71875 10.9375 6.34375 10.9375 
Q 6.78125 10.9375 8.078125 10.15625 
Q 9.375 9.375 11.390625 8.46875 
Q 13.421875 7.5625 16.125 6.78125 
Q 18.84375 6 22.171875 6 
Q 25.390625 6 27.828125 6.828125 
Q 30.28125 7.671875 31.9375 9.171875 
Q 33.59375 10.6875 34.421875 12.765625 
Q 35.25 14.84375 35.25 17.28125 
Q 35.25 19.96875 34.203125 22.109375 
Q 33.15625 24.265625 31.125 25.828125 
Q 29.109375 27.390625 26.140625 28.21875 
Q 23.1875 29.046875 19.4375 29.046875 
L 13.421875 29.046875 
Q 13.03125 29.046875 12.671875 29.21875 
Q 12.3125 29.390625 12.03125 29.78125 
Q 11.765625 30.171875 11.59375 30.8125 
Q 11.421875 31.453125 11.421875 32.46875 
Q 11.421875 33.40625 11.5625 34.015625 
Q 11.71875 34.625 11.984375 34.984375 
Q 12.25 35.359375 12.59375 35.515625 
Q 12.9375 35.6875 13.375 35.6875 
L 18.890625 35.6875 
Q 22.125 35.6875 24.6875 36.515625 
Q 27.25 37.359375 29.03125 38.921875 
Q 30.8125 40.484375 31.765625 42.65625 
Q 32.71875 44.828125 32.71875 47.515625 
Q 32.71875 49.46875 32.078125 51.25 
Q 31.453125 53.03125 30.171875 54.34375 
Q 28.90625 55.671875 26.921875 56.421875 
Q 24.953125 57.171875 22.359375 57.171875 
Q 19.53125 57.171875 17.15625 56.3125 
Q 14.796875 55.46875 12.9375 54.484375 
Q 11.078125 53.515625 9.859375 52.65625 
Q 8.640625 51.8125 8.15625 51.8125 
Q 7.8125 51.8125 7.546875 51.921875 
Q 7.28125 52.046875 7.109375 52.40625 
Q 6.9375 52.78125 6.859375 53.4375 
Q 6.78125 54.109375 6.78125 55.171875 
Q 6.78125 55.90625 6.828125 56.46875 
Q 6.890625 57.03125 7.03125 57.4375 
Q 7.171875 57.859375 7.359375 58.203125 
Q 7.5625 58.546875 8.03125 59 
Q 8.5 59.46875 9.90625 60.34375 
Q 11.328125 61.234375 13.40625 62.078125 
Q 15.484375 62.9375 18.1875 63.515625 
Q 20.90625 64.109375 24.03125 64.109375 
Q 28.421875 64.109375 31.734375 62.984375 
Q 35.0625 61.859375 37.28125 59.8125 
Q 39.5 57.765625 40.59375 54.90625 
Q 41.703125 52.046875 41.703125 48.578125 
Q 41.703125 45.609375 40.921875 43.046875 
Q 40.140625 40.484375 38.625 38.5 
Q 37.109375 36.53125 34.90625 35.125 
Q 32.71875 33.734375 29.828125 33.203125 
L 29.828125 33.109375 
Q 33.109375 32.765625 35.8125 31.46875 
Q 38.53125 30.171875 40.484375 28.21875 
Q 42.4375 26.265625 43.53125 23.65625 
Q 44.625 21.046875 44.625 18.0625 
z
" id="Calibri-33"/>
      </defs>
      <g transform="translate(461.647083 393.442812)scale(0.18 -0.18)">
       <use xlink:href="#Calibri-31"/>
       <use x="50.683594" xlink:href="#Calibri-2e"/>
       <use x="75.927734" xlink:href="#Calibri-33"/>
      </g>
     </g>
    </g>
    <g id="xtick_7">
     <g id="line2d_13">
      <path clip-path="url(#p3d705ea1ec)" d="M 553.77 369.7 
L 553.77 13.32 
" style="fill:none;stroke:#bfbfbf;stroke-linecap:square;stroke-width:0.8;"/>
     </g>
     <g id="line2d_14">
      <g>
       <use style="stroke:#000000;stroke-width:0.8;" x="553.77" xlink:href="#m926061a59c" y="369.7"/>
      </g>
     </g>
     <g id="text_7">
      <!-- 1.4 -->
      <defs>
       <path d="M 47.796875 17.96875 
Q 47.796875 16.359375 47.3125 15.421875 
Q 46.828125 14.5 45.953125 14.5 
L 38.8125 14.5 
L 38.8125 1.21875 
Q 38.8125 0.828125 38.609375 0.5625 
Q 38.421875 0.296875 37.9375 0.09375 
Q 37.453125 -0.09375 36.671875 -0.1875 
Q 35.890625 -0.296875 34.671875 -0.296875 
Q 33.5 -0.296875 32.71875 -0.1875 
Q 31.9375 -0.09375 31.46875 0.09375 
Q 31 0.296875 30.828125 0.5625 
Q 30.671875 0.828125 30.671875 1.21875 
L 30.671875 14.5 
L 4.59375 14.5 
Q 4 14.5 3.609375 14.640625 
Q 3.21875 14.796875 2.90625 15.1875 
Q 2.59375 15.578125 2.46875 16.3125 
Q 2.34375 17.046875 2.34375 18.21875 
Q 2.34375 19.140625 2.390625 19.875 
Q 2.4375 20.609375 2.578125 21.21875 
Q 2.734375 21.828125 2.96875 22.390625 
Q 3.21875 22.953125 3.5625 23.578125 
L 26.3125 61.96875 
Q 26.5625 62.359375 27.015625 62.640625 
Q 27.484375 62.9375 28.21875 63.125 
Q 28.953125 63.328125 30.03125 63.40625 
Q 31.109375 63.484375 32.5625 63.484375 
Q 34.1875 63.484375 35.375 63.359375 
Q 36.578125 63.234375 37.296875 63.03125 
Q 38.03125 62.84375 38.421875 62.515625 
Q 38.8125 62.203125 38.8125 61.765625 
L 38.8125 21.4375 
L 45.953125 21.4375 
Q 46.78125 21.4375 47.28125 20.578125 
Q 47.796875 19.734375 47.796875 17.96875 
z
M 30.671875 56.109375 
L 30.5625 56.109375 
L 10.015625 21.4375 
L 30.671875 21.4375 
z
" id="Calibri-34"/>
      </defs>
      <g transform="translate(542.37375 393.442812)scale(0.18 -0.18)">
       <use xlink:href="#Calibri-31"/>
       <use x="50.683594" xlink:href="#Calibri-2e"/>
       <use x="75.927734" xlink:href="#Calibri-34"/>
      </g>
     </g>
    </g>
    <g id="xtick_8">
     <g id="line2d_15">
      <defs>
       <path d="M 0 0 
L 0 2 
" id="mfdfea72b8c" style="stroke:#000000;stroke-width:0.6;"/>
      </defs>
      <g>
       <use style="stroke:#000000;stroke-width:0.6;" x="85.555333" xlink:href="#mfdfea72b8c" y="369.7"/>
      </g>
     </g>
    </g>
    <g id="xtick_9">
     <g id="line2d_16">
      <g>
       <use style="stroke:#000000;stroke-width:0.6;" x="101.700667" xlink:href="#mfdfea72b8c" y="369.7"/>
      </g>
     </g>
    </g>
    <g id="xtick_10">
     <g id="line2d_17">
      <g>
       <use style="stroke:#000000;stroke-width:0.6;" x="117.846" xlink:href="#mfdfea72b8c" y="369.7"/>
      </g>
     </g>
    </g>
    <g id="xtick_11">
     <g id="line2d_18">
      <g>
       <use style="stroke:#000000;stroke-width:0.6;" x="133.991333" xlink:href="#mfdfea72b8c" y="369.7"/>
      </g>
     </g>
    </g>
    <g id="xtick_12">
     <g id="line2d_19">
      <g>
       <use style="stroke:#000000;stroke-width:0.6;" x="166.282" xlink:href="#mfdfea72b8c" y="369.7"/>
      </g>
     </g>
    </g>
    <g id="xtick_13">
     <g id="line2d_20">
      <g>
       <use style="stroke:#000000;stroke-width:0.6;" x="182.427333" xlink:href="#mfdfea72b8c" y="369.7"/>
      </g>
     </g>
    </g>
    <g id="xtick_14">
     <g id="line2d_21">
      <g>
       <use style="stroke:#000000;stroke-width:0.6;" x="198.572667" xlink:href="#mfdfea72b8c" y="369.7"/>
      </g>
     </g>
    </g>
    <g id="xtick_15">
     <g id="line2d_22">
      <g>
       <use style="stroke:#000000;stroke-width:0.6;" x="214.718" xlink:href="#mfdfea72b8c" y="369.7"/>
      </g>
     </g>
    </g>
    <g id="xtick_16">
     <g id="line2d_23">
      <g>
       <use style="stroke:#000000;stroke-width:0.6;" x="247.008667" xlink:href="#mfdfea72b8c" y="369.7"/>
      </g>
     </g>
    </g>
    <g id="xtick_17">
     <g id="line2d_24">
      <g>
       <use style="stroke:#000000;stroke-width:0.6;" x="263.154" xlink:href="#mfdfea72b8c" y="369.7"/>
      </g>
     </g>
    </g>
    <g id="xtick_18">
     <g id="line2d_25">
      <g>
       <use style="stroke:#000000;stroke-width:0.6;" x="279.299333" xlink:href="#mfdfea72b8c" y="369.7"/>
      </g>
     </g>
    </g>
    <g id="xtick_19">
     <g id="line2d_26">
      <g>
       <use style="stroke:#000000;stroke-width:0.6;" x="295.444667" xlink:href="#mfdfea72b8c" y="369.7"/>
      </g>
     </g>
    </g>
    <g id="xtick_20">
     <g id="line2d_27">
      <g>
       <use style="stroke:#000000;stroke-width:0.6;" x="327.735333" xlink:href="#mfdfea72b8c" y="369.7"/>
      </g>
     </g>
    </g>
    <g id="xtick_21">
     <g id="line2d_28">
      <g>
       <use style="stroke:#000000;stroke-width:0.6;" x="343.880667" xlink:href="#mfdfea72b8c" y="369.7"/>
      </g>
     </g>
    </g>
    <g id="xtick_22">
     <g id="line2d_29">
      <g>
       <use style="stroke:#000000;stroke-width:0.6;" x="360.026" xlink:href="#mfdfea72b8c" y="369.7"/>
      </g>
     </g>
    </g>
    <g id="xtick_23">
     <g id="line2d_30">
      <g>
       <use style="stroke:#000000;stroke-width:0.6;" x="376.171333" xlink:href="#mfdfea72b8c" y="369.7"/>
      </g>
     </g>
    </g>
    <g id="xtick_24">
     <g id="line2d_31">
      <g>
       <use style="stroke:#000000;stroke-width:0.6;" x="408.462" xlink:href="#mfdfea72b8c" y="369.7"/>
      </g>
     </g>
    </g>
    <g id="xtick_25">
     <g id="line2d_32">
      <g>
       <use style="stroke:#000000;stroke-width:0.6;" x="424.607333" xlink:href="#mfdfea72b8c" y="369.7"/>
      </g>
     </g>
    </g>
    <g id="xtick_26">
     <g id="line2d_33">
      <g>
       <use style="stroke:#000000;stroke-width:0.6;" x="440.752667" xlink:href="#mfdfea72b8c" y="369.7"/>
      </g>
     </g>
    </g>
    <g id="xtick_27">
     <g id="line2d_34">
      <g>
       <use style="stroke:#000000;stroke-width:0.6;" x="456.898" xlink:href="#mfdfea72b8c" y="369.7"/>
      </g>
     </g>
    </g>
    <g id="xtick_28">
     <g id="line2d_35">
      <g>
       <use style="stroke:#000000;stroke-width:0.6;" x="489.188667" xlink:href="#mfdfea72b8c" y="369.7"/>
      </g>
     </g>
    </g>
    <g id="xtick_29">
     <g id="line2d_36">
      <g>
       <use style="stroke:#000000;stroke-width:0.6;" x="505.334" xlink:href="#mfdfea72b8c" y="369.7"/>
      </g>
     </g>
    </g>
    <g id="xtick_30">
     <g id="line2d_37">
      <g>
       <use style="stroke:#000000;stroke-width:0.6;" x="521.479333" xlink:href="#mfdfea72b8c" y="369.7"/>
      </g>
     </g>
    </g>
    <g id="xtick_31">
     <g id="line2d_38">
      <g>
       <use style="stroke:#000000;stroke-width:0.6;" x="537.624667" xlink:href="#mfdfea72b8c" y="369.7"/>
      </g>
     </g>
    </g>
    <g id="text_8">
     <!-- Normalised solar constant, $Q/Q_0$ -->
     <defs>
      <path d="M 56.15625 3.46875 
Q 56.15625 2.484375 55.828125 1.796875 
Q 55.515625 1.125 55 0.6875 
Q 54.5 0.25 53.859375 0.046875 
Q 53.21875 -0.140625 52.59375 -0.140625 
L 49.90625 -0.140625 
Q 48.640625 -0.140625 47.6875 0.125 
Q 46.734375 0.390625 45.875 1.09375 
Q 45.015625 1.8125 44.15625 3.03125 
Q 43.3125 4.25 42.28125 6.15625 
L 22.359375 42.09375 
Q 20.796875 44.875 19.203125 47.921875 
Q 17.625 50.984375 16.265625 53.859375 
L 16.15625 53.859375 
Q 16.265625 50.34375 16.3125 46.671875 
Q 16.359375 43.015625 16.359375 39.40625 
L 16.359375 1.265625 
Q 16.359375 0.921875 16.15625 0.609375 
Q 15.96875 0.296875 15.5 0.125 
Q 15.046875 -0.046875 14.28125 -0.171875 
Q 13.53125 -0.296875 12.359375 -0.296875 
Q 11.1875 -0.296875 10.421875 -0.171875 
Q 9.671875 -0.046875 9.234375 0.125 
Q 8.796875 0.296875 8.59375 0.609375 
Q 8.40625 0.921875 8.40625 1.265625 
L 8.40625 59.578125 
Q 8.40625 61.53125 9.46875 62.359375 
Q 10.546875 63.1875 11.8125 63.1875 
L 15.828125 63.1875 
Q 17.234375 63.1875 18.1875 62.9375 
Q 19.140625 62.703125 19.890625 62.140625 
Q 20.65625 61.578125 21.359375 60.578125 
Q 22.078125 59.578125 22.90625 58.0625 
L 38.234375 30.328125 
Q 39.65625 27.78125 40.96875 25.359375 
Q 42.28125 22.953125 43.5 20.609375 
Q 44.734375 18.265625 45.921875 15.984375 
Q 47.125 13.71875 48.296875 11.421875 
L 48.34375 11.421875 
Q 48.25 15.28125 48.21875 19.453125 
Q 48.1875 23.640625 48.1875 27.484375 
L 48.1875 61.765625 
Q 48.1875 62.109375 48.375 62.40625 
Q 48.578125 62.703125 49.046875 62.921875 
Q 49.515625 63.140625 50.265625 63.234375 
Q 51.03125 63.328125 52.25 63.328125 
Q 53.328125 63.328125 54.109375 63.234375 
Q 54.890625 63.140625 55.328125 62.921875 
Q 55.765625 62.703125 55.953125 62.40625 
Q 56.15625 62.109375 56.15625 61.765625 
z
" id="Calibri-4e"/>
      <path d="M 48.34375 23.6875 
Q 48.34375 18.3125 46.921875 13.796875 
Q 45.515625 9.28125 42.703125 6 
Q 39.890625 2.734375 35.671875 0.90625 
Q 31.453125 -0.921875 25.875 -0.921875 
Q 20.453125 -0.921875 16.421875 0.6875 
Q 12.40625 2.296875 9.71875 5.375 
Q 7.03125 8.453125 5.703125 12.84375 
Q 4.390625 17.234375 4.390625 22.796875 
Q 4.390625 28.171875 5.78125 32.6875 
Q 7.171875 37.203125 9.984375 40.46875 
Q 12.796875 43.75 16.984375 45.546875 
Q 21.1875 47.359375 26.8125 47.359375 
Q 32.234375 47.359375 36.25 45.75 
Q 40.28125 44.140625 42.96875 41.0625 
Q 45.65625 37.984375 47 33.59375 
Q 48.34375 29.203125 48.34375 23.6875 
z
M 39.84375 23.140625 
Q 39.84375 26.703125 39.1875 29.875 
Q 38.53125 33.0625 37.015625 35.453125 
Q 35.5 37.84375 32.90625 39.234375 
Q 30.328125 40.625 26.46875 40.625 
Q 22.90625 40.625 20.34375 39.359375 
Q 17.78125 38.09375 16.109375 35.765625 
Q 14.453125 33.453125 13.640625 30.265625 
Q 12.84375 27.09375 12.84375 23.34375 
Q 12.84375 19.734375 13.5 16.546875 
Q 14.15625 13.375 15.6875 11 
Q 17.234375 8.640625 19.8125 7.25 
Q 22.40625 5.859375 26.265625 5.859375 
Q 29.78125 5.859375 32.375 7.125 
Q 34.96875 8.40625 36.625 10.6875 
Q 38.28125 12.984375 39.0625 16.15625 
Q 39.84375 19.34375 39.84375 23.140625 
z
" id="Calibri-6f"/>
      <path d="M 33.15625 42.28125 
Q 33.15625 41.21875 33.109375 40.484375 
Q 33.0625 39.75 32.90625 39.328125 
Q 32.765625 38.921875 32.546875 38.703125 
Q 32.328125 38.484375 31.9375 38.484375 
Q 31.546875 38.484375 30.984375 38.703125 
Q 30.421875 38.921875 29.703125 39.140625 
Q 29 39.359375 28.125 39.546875 
Q 27.25 39.75 26.21875 39.75 
Q 25 39.75 23.828125 39.25 
Q 22.65625 38.765625 21.359375 37.640625 
Q 20.0625 36.53125 18.640625 34.671875 
Q 17.234375 32.8125 15.53125 30.125 
L 15.53125 1.21875 
Q 15.53125 0.828125 15.328125 0.5625 
Q 15.140625 0.296875 14.703125 0.09375 
Q 14.265625 -0.09375 13.484375 -0.1875 
Q 12.703125 -0.296875 11.46875 -0.296875 
Q 10.296875 -0.296875 9.515625 -0.1875 
Q 8.734375 -0.09375 8.265625 0.09375 
Q 7.8125 0.296875 7.640625 0.5625 
Q 7.46875 0.828125 7.46875 1.21875 
L 7.46875 45.171875 
Q 7.46875 45.5625 7.609375 45.828125 
Q 7.765625 46.09375 8.203125 46.3125 
Q 8.640625 46.53125 9.328125 46.609375 
Q 10.015625 46.6875 11.140625 46.6875 
Q 12.203125 46.6875 12.90625 46.609375 
Q 13.625 46.53125 14.015625 46.3125 
Q 14.40625 46.09375 14.578125 45.828125 
Q 14.75 45.5625 14.75 45.171875 
L 14.75 38.765625 
Q 16.546875 41.40625 18.140625 43.0625 
Q 19.734375 44.734375 21.140625 45.671875 
Q 22.5625 46.625 23.953125 46.984375 
Q 25.34375 47.359375 26.765625 47.359375 
Q 27.390625 47.359375 28.1875 47.28125 
Q 29 47.21875 29.875 47.015625 
Q 30.765625 46.828125 31.46875 46.578125 
Q 32.171875 46.34375 32.46875 46.09375 
Q 32.765625 45.84375 32.859375 45.625 
Q 32.953125 45.40625 33.03125 45.0625 
Q 33.109375 44.734375 33.125 44.0625 
Q 33.15625 43.40625 33.15625 42.28125 
z
" id="Calibri-72"/>
      <path d="M 72.65625 1.21875 
Q 72.65625 0.828125 72.453125 0.5625 
Q 72.265625 0.296875 71.828125 0.09375 
Q 71.390625 -0.09375 70.609375 -0.1875 
Q 69.828125 -0.296875 68.65625 -0.296875 
Q 67.4375 -0.296875 66.65625 -0.1875 
Q 65.875 -0.09375 65.40625 0.09375 
Q 64.9375 0.296875 64.734375 0.5625 
Q 64.546875 0.828125 64.546875 1.21875 
L 64.546875 27.9375 
Q 64.546875 30.71875 64.0625 33 
Q 63.578125 35.296875 62.5 36.953125 
Q 61.421875 38.625 59.765625 39.5 
Q 58.109375 40.375 55.859375 40.375 
Q 53.078125 40.375 50.265625 38.21875 
Q 47.46875 36.078125 44.09375 31.9375 
L 44.09375 1.21875 
Q 44.09375 0.828125 43.890625 0.5625 
Q 43.703125 0.296875 43.234375 0.09375 
Q 42.78125 -0.09375 42 -0.1875 
Q 41.21875 -0.296875 40.046875 -0.296875 
Q 38.921875 -0.296875 38.109375 -0.1875 
Q 37.3125 -0.09375 36.84375 0.09375 
Q 36.375 0.296875 36.203125 0.5625 
Q 36.03125 0.828125 36.03125 1.21875 
L 36.03125 27.9375 
Q 36.03125 30.71875 35.5 33 
Q 34.96875 35.296875 33.890625 36.953125 
Q 32.8125 38.625 31.171875 39.5 
Q 29.546875 40.375 27.296875 40.375 
Q 24.515625 40.375 21.671875 38.21875 
Q 18.84375 36.078125 15.53125 31.9375 
L 15.53125 1.21875 
Q 15.53125 0.828125 15.328125 0.5625 
Q 15.140625 0.296875 14.703125 0.09375 
Q 14.265625 -0.09375 13.484375 -0.1875 
Q 12.703125 -0.296875 11.46875 -0.296875 
Q 10.296875 -0.296875 9.515625 -0.1875 
Q 8.734375 -0.09375 8.265625 0.09375 
Q 7.8125 0.296875 7.640625 0.5625 
Q 7.46875 0.828125 7.46875 1.21875 
L 7.46875 45.171875 
Q 7.46875 45.5625 7.609375 45.828125 
Q 7.765625 46.09375 8.203125 46.3125 
Q 8.640625 46.53125 9.328125 46.609375 
Q 10.015625 46.6875 11.140625 46.6875 
Q 12.203125 46.6875 12.90625 46.609375 
Q 13.625 46.53125 14.015625 46.3125 
Q 14.40625 46.09375 14.578125 45.828125 
Q 14.75 45.5625 14.75 45.171875 
L 14.75 39.359375 
Q 18.453125 43.5 21.9375 45.421875 
Q 25.4375 47.359375 29 47.359375 
Q 31.734375 47.359375 33.90625 46.71875 
Q 36.078125 46.09375 37.734375 44.9375 
Q 39.40625 43.796875 40.578125 42.203125 
Q 41.75 40.625 42.53125 38.671875 
Q 44.734375 41.0625 46.703125 42.71875 
Q 48.6875 44.390625 50.515625 45.40625 
Q 52.34375 46.4375 54.078125 46.890625 
Q 55.8125 47.359375 57.5625 47.359375 
Q 61.8125 47.359375 64.6875 45.875 
Q 67.578125 44.390625 69.359375 41.890625 
Q 71.140625 39.40625 71.890625 36.0625 
Q 72.65625 32.71875 72.65625 29 
z
" id="Calibri-6d"/>
      <path d="M 40.578125 1.171875 
Q 40.578125 0.59375 40.1875 0.296875 
Q 39.796875 0 39.109375 -0.140625 
Q 38.421875 -0.296875 37.109375 -0.296875 
Q 35.84375 -0.296875 35.078125 -0.140625 
Q 34.328125 0 33.984375 0.296875 
Q 33.640625 0.59375 33.640625 1.171875 
L 33.640625 5.5625 
Q 30.765625 2.484375 27.21875 0.78125 
Q 23.6875 -0.921875 19.734375 -0.921875 
Q 16.265625 -0.921875 13.453125 -0.015625 
Q 10.640625 0.875 8.65625 2.578125 
Q 6.6875 4.296875 5.59375 6.78125 
Q 4.5 9.28125 4.5 12.453125 
Q 4.5 16.15625 6 18.890625 
Q 7.515625 21.625 10.34375 23.4375 
Q 13.1875 25.25 17.28125 26.140625 
Q 21.390625 27.046875 26.515625 27.046875 
L 32.5625 27.046875 
L 32.5625 30.46875 
Q 32.5625 33.015625 32.03125 34.96875 
Q 31.5 36.921875 30.296875 38.203125 
Q 29.109375 39.5 27.203125 40.15625 
Q 25.296875 40.828125 22.515625 40.828125 
Q 19.53125 40.828125 17.15625 40.109375 
Q 14.796875 39.40625 13.015625 38.546875 
Q 11.234375 37.703125 10.03125 36.984375 
Q 8.84375 36.28125 8.25 36.28125 
Q 7.859375 36.28125 7.5625 36.46875 
Q 7.28125 36.671875 7.0625 37.0625 
Q 6.84375 37.453125 6.734375 38.0625 
Q 6.640625 38.671875 6.640625 39.40625 
Q 6.640625 40.625 6.8125 41.328125 
Q 6.984375 42.046875 7.640625 42.671875 
Q 8.296875 43.3125 9.90625 44.15625 
Q 11.53125 45.015625 13.625 45.71875 
Q 15.71875 46.4375 18.203125 46.890625 
Q 20.703125 47.359375 23.25 47.359375 
Q 27.984375 47.359375 31.296875 46.28125 
Q 34.625 45.21875 36.671875 43.140625 
Q 38.71875 41.0625 39.640625 37.984375 
Q 40.578125 34.90625 40.578125 30.8125 
z
M 32.5625 21.234375 
L 25.6875 21.234375 
Q 22.359375 21.234375 19.921875 20.671875 
Q 17.484375 20.125 15.875 19.015625 
Q 14.265625 17.921875 13.5 16.375 
Q 12.75 14.84375 12.75 12.84375 
Q 12.75 9.421875 14.921875 7.390625 
Q 17.09375 5.375 21 5.375 
Q 24.171875 5.375 26.875 6.984375 
Q 29.59375 8.59375 32.5625 11.921875 
z
" id="Calibri-61"/>
      <path d="M 15.53125 1.21875 
Q 15.53125 0.828125 15.328125 0.5625 
Q 15.140625 0.296875 14.703125 0.09375 
Q 14.265625 -0.09375 13.484375 -0.1875 
Q 12.703125 -0.296875 11.46875 -0.296875 
Q 10.296875 -0.296875 9.515625 -0.1875 
Q 8.734375 -0.09375 8.265625 0.09375 
Q 7.8125 0.296875 7.640625 0.5625 
Q 7.46875 0.828125 7.46875 1.21875 
L 7.46875 66.453125 
Q 7.46875 66.84375 7.640625 67.140625 
Q 7.8125 67.4375 8.265625 67.625 
Q 8.734375 67.828125 9.515625 67.921875 
Q 10.296875 68.015625 11.46875 68.015625 
Q 12.703125 68.015625 13.484375 67.921875 
Q 14.265625 67.828125 14.703125 67.625 
Q 15.140625 67.4375 15.328125 67.140625 
Q 15.53125 66.84375 15.53125 66.453125 
z
" id="Calibri-6c"/>
      <path d="M 15.53125 1.21875 
Q 15.53125 0.828125 15.328125 0.5625 
Q 15.140625 0.296875 14.703125 0.09375 
Q 14.265625 -0.09375 13.484375 -0.1875 
Q 12.703125 -0.296875 11.46875 -0.296875 
Q 10.296875 -0.296875 9.515625 -0.1875 
Q 8.734375 -0.09375 8.265625 0.09375 
Q 7.8125 0.296875 7.640625 0.5625 
Q 7.46875 0.828125 7.46875 1.21875 
L 7.46875 45.171875 
Q 7.46875 45.515625 7.640625 45.796875 
Q 7.8125 46.09375 8.265625 46.28125 
Q 8.734375 46.484375 9.515625 46.578125 
Q 10.296875 46.6875 11.46875 46.6875 
Q 12.703125 46.6875 13.484375 46.578125 
Q 14.265625 46.484375 14.703125 46.28125 
Q 15.140625 46.09375 15.328125 45.796875 
Q 15.53125 45.515625 15.53125 45.171875 
z
M 16.453125 60.015625 
Q 16.453125 57.171875 15.375 56.140625 
Q 14.3125 55.125 11.421875 55.125 
Q 8.59375 55.125 7.546875 56.125 
Q 6.5 57.125 6.5 59.90625 
Q 6.5 62.75 7.5625 63.765625 
Q 8.640625 64.796875 11.53125 64.796875 
Q 14.359375 64.796875 15.40625 63.796875 
Q 16.453125 62.796875 16.453125 60.015625 
z
" id="Calibri-69"/>
      <path d="M 35.0625 13.1875 
Q 35.0625 9.8125 33.8125 7.171875 
Q 32.5625 4.546875 30.265625 2.734375 
Q 27.984375 0.921875 24.796875 0 
Q 21.625 -0.921875 17.828125 -0.921875 
Q 15.484375 -0.921875 13.359375 -0.5625 
Q 11.234375 -0.203125 9.546875 0.359375 
Q 7.859375 0.921875 6.6875 1.53125 
Q 5.515625 2.15625 4.96875 2.640625 
Q 4.4375 3.125 4.1875 4 
Q 3.953125 4.890625 3.953125 6.390625 
Q 3.953125 7.328125 4.046875 7.953125 
Q 4.15625 8.59375 4.296875 8.984375 
Q 4.4375 9.375 4.703125 9.546875 
Q 4.984375 9.71875 5.328125 9.71875 
Q 5.859375 9.71875 6.90625 9.0625 
Q 7.953125 8.40625 9.484375 7.625 
Q 11.03125 6.84375 13.125 6.171875 
Q 15.234375 5.515625 17.96875 5.515625 
Q 20.015625 5.515625 21.671875 5.953125 
Q 23.34375 6.390625 24.5625 7.25 
Q 25.78125 8.109375 26.4375 9.421875 
Q 27.09375 10.75 27.09375 12.546875 
Q 27.09375 14.40625 26.140625 15.671875 
Q 25.203125 16.9375 23.640625 17.90625 
Q 22.078125 18.890625 20.125 19.640625 
Q 18.171875 20.40625 16.09375 21.234375 
Q 14.015625 22.078125 12.03125 23.125 
Q 10.0625 24.171875 8.5 25.6875 
Q 6.9375 27.203125 5.984375 29.296875 
Q 5.03125 31.390625 5.03125 34.328125 
Q 5.03125 36.921875 6.03125 39.28125 
Q 7.03125 41.65625 9.03125 43.4375 
Q 11.03125 45.21875 14.03125 46.28125 
Q 17.046875 47.359375 21.046875 47.359375 
Q 22.796875 47.359375 24.546875 47.0625 
Q 26.3125 46.78125 27.734375 46.34375 
Q 29.15625 45.90625 30.15625 45.390625 
Q 31.15625 44.875 31.65625 44.484375 
Q 32.171875 44.09375 32.34375 43.796875 
Q 32.515625 43.5 32.59375 43.140625 
Q 32.671875 42.78125 32.734375 42.234375 
Q 32.8125 41.703125 32.8125 40.921875 
Q 32.8125 40.09375 32.734375 39.484375 
Q 32.671875 38.875 32.5 38.484375 
Q 32.328125 38.09375 32.078125 37.921875 
Q 31.84375 37.75 31.546875 37.75 
Q 31.109375 37.75 30.265625 38.28125 
Q 29.4375 38.8125 28.125 39.421875 
Q 26.8125 40.046875 25.03125 40.578125 
Q 23.25 41.109375 20.953125 41.109375 
Q 18.890625 41.109375 17.328125 40.640625 
Q 15.765625 40.1875 14.765625 39.328125 
Q 13.765625 38.484375 13.25 37.3125 
Q 12.75 36.140625 12.75 34.765625 
Q 12.75 32.859375 13.71875 31.5625 
Q 14.703125 30.28125 16.265625 29.296875 
Q 17.828125 28.328125 19.828125 27.546875 
Q 21.828125 26.765625 23.90625 25.921875 
Q 25.984375 25.09375 28 24.0625 
Q 30.03125 23.046875 31.59375 21.578125 
Q 33.15625 20.125 34.109375 18.0625 
Q 35.0625 16.015625 35.0625 13.1875 
z
" id="Calibri-73"/>
      <path d="M 44.96875 25.09375 
Q 44.96875 23.1875 44.015625 22.375 
Q 43.0625 21.578125 41.84375 21.578125 
L 13.03125 21.578125 
Q 13.03125 17.921875 13.765625 14.984375 
Q 14.5 12.0625 16.203125 9.953125 
Q 17.921875 7.859375 20.65625 6.734375 
Q 23.390625 5.609375 27.34375 5.609375 
Q 30.46875 5.609375 32.90625 6.125 
Q 35.359375 6.640625 37.140625 7.265625 
Q 38.921875 7.90625 40.0625 8.421875 
Q 41.21875 8.9375 41.796875 8.9375 
Q 42.140625 8.9375 42.40625 8.765625 
Q 42.671875 8.59375 42.8125 8.25 
Q 42.96875 7.90625 43.03125 7.296875 
Q 43.109375 6.6875 43.109375 5.8125 
Q 43.109375 5.171875 43.0625 4.703125 
Q 43.015625 4.25 42.9375 3.875 
Q 42.875 3.515625 42.703125 3.21875 
Q 42.53125 2.9375 42.265625 2.65625 
Q 42 2.390625 40.671875 1.78125 
Q 39.359375 1.171875 37.25 0.578125 
Q 35.15625 0 32.390625 -0.453125 
Q 29.640625 -0.921875 26.515625 -0.921875 
Q 21.09375 -0.921875 17.015625 0.578125 
Q 12.9375 2.09375 10.15625 5.078125 
Q 7.375 8.0625 5.953125 12.546875 
Q 4.546875 17.046875 4.546875 23 
Q 4.546875 28.65625 6 33.171875 
Q 7.46875 37.703125 10.21875 40.84375 
Q 12.984375 44 16.890625 45.671875 
Q 20.796875 47.359375 25.640625 47.359375 
Q 30.8125 47.359375 34.453125 45.703125 
Q 38.09375 44.046875 40.4375 41.234375 
Q 42.78125 38.421875 43.875 34.640625 
Q 44.96875 30.859375 44.96875 26.5625 
z
M 36.859375 27.484375 
Q 37.015625 33.84375 34.0625 37.453125 
Q 31.109375 41.0625 25.296875 41.0625 
Q 22.3125 41.0625 20.0625 39.9375 
Q 17.828125 38.8125 16.3125 36.953125 
Q 14.796875 35.109375 13.96875 32.640625 
Q 13.140625 30.171875 13.03125 27.484375 
z
" id="Calibri-65"/>
      <path d="M 45.125 1.21875 
Q 45.125 0.828125 44.953125 0.53125 
Q 44.78125 0.25 44.359375 0.078125 
Q 43.953125 -0.09375 43.265625 -0.1875 
Q 42.578125 -0.296875 41.609375 -0.296875 
Q 40.578125 -0.296875 39.890625 -0.1875 
Q 39.203125 -0.09375 38.765625 0.078125 
Q 38.328125 0.25 38.125 0.53125 
Q 37.9375 0.828125 37.9375 1.21875 
L 37.9375 7.03125 
Q 34.46875 3.265625 30.734375 1.171875 
Q 27 -0.921875 22.5625 -0.921875 
Q 17.71875 -0.921875 14.296875 0.953125 
Q 10.890625 2.828125 8.765625 6.03125 
Q 6.640625 9.234375 5.65625 13.546875 
Q 4.6875 17.875 4.6875 22.65625 
Q 4.6875 28.328125 5.90625 32.890625 
Q 7.125 37.453125 9.515625 40.671875 
Q 11.921875 43.890625 15.453125 45.625 
Q 19 47.359375 23.640625 47.359375 
Q 27.484375 47.359375 30.6875 45.671875 
Q 33.890625 44 37.015625 40.71875 
L 37.015625 66.265625 
Q 37.015625 66.609375 37.1875 66.921875 
Q 37.359375 67.234375 37.84375 67.40625 
Q 38.328125 67.578125 39.078125 67.703125 
Q 39.84375 67.828125 41.015625 67.828125 
Q 42.234375 67.828125 43.015625 67.703125 
Q 43.796875 67.578125 44.234375 67.40625 
Q 44.671875 67.234375 44.890625 66.921875 
Q 45.125 66.609375 45.125 66.265625 
z
M 37.015625 32.125 
Q 33.734375 36.1875 30.6875 38.3125 
Q 27.640625 40.4375 24.3125 40.4375 
Q 21.234375 40.4375 19.078125 38.96875 
Q 16.9375 37.5 15.59375 35.109375 
Q 14.265625 32.71875 13.640625 29.6875 
Q 13.03125 26.65625 13.03125 23.53125 
Q 13.03125 20.21875 13.546875 17.046875 
Q 14.0625 13.875 15.328125 11.40625 
Q 16.609375 8.9375 18.703125 7.4375 
Q 20.796875 5.953125 23.96875 5.953125 
Q 25.59375 5.953125 27.078125 6.390625 
Q 28.5625 6.84375 30.125 7.859375 
Q 31.6875 8.890625 33.390625 10.515625 
Q 35.109375 12.15625 37.015625 14.546875 
z
" id="Calibri-64"/>
      <path id="Calibri-20"/>
      <path d="M 39.0625 7.90625 
Q 39.0625 7.078125 39.015625 6.46875 
Q 38.96875 5.859375 38.84375 5.4375 
Q 38.71875 5.03125 38.546875 4.703125 
Q 38.375 4.390625 37.765625 3.78125 
Q 37.15625 3.171875 35.6875 2.265625 
Q 34.234375 1.375 32.390625 0.65625 
Q 30.5625 -0.046875 28.40625 -0.484375 
Q 26.265625 -0.921875 23.96875 -0.921875 
Q 19.234375 -0.921875 15.578125 0.640625 
Q 11.921875 2.203125 9.453125 5.203125 
Q 6.984375 8.203125 5.6875 12.5625 
Q 4.390625 16.9375 4.390625 22.65625 
Q 4.390625 29.15625 5.96875 33.8125 
Q 7.5625 38.484375 10.328125 41.453125 
Q 13.09375 44.4375 16.828125 45.875 
Q 20.5625 47.3125 24.90625 47.3125 
Q 27 47.3125 28.96875 46.921875 
Q 30.953125 46.53125 32.609375 45.890625 
Q 34.28125 45.265625 35.5625 44.4375 
Q 36.859375 43.609375 37.4375 43.015625 
Q 38.03125 42.4375 38.25 42.09375 
Q 38.484375 41.75 38.625 41.28125 
Q 38.765625 40.828125 38.8125 40.234375 
Q 38.875 39.65625 38.875 38.765625 
Q 38.875 36.859375 38.421875 36.109375 
Q 37.984375 35.359375 37.359375 35.359375 
Q 36.625 35.359375 35.671875 36.15625 
Q 34.71875 36.96875 33.25 37.9375 
Q 31.78125 38.921875 29.703125 39.71875 
Q 27.640625 40.53125 24.8125 40.53125 
Q 19 40.53125 15.890625 36.0625 
Q 12.796875 31.59375 12.796875 23.09375 
Q 12.796875 18.84375 13.59375 15.640625 
Q 14.40625 12.453125 15.96875 10.296875 
Q 17.53125 8.15625 19.796875 7.109375 
Q 22.078125 6.0625 25 6.0625 
Q 27.78125 6.0625 29.875 6.9375 
Q 31.984375 7.8125 33.515625 8.859375 
Q 35.0625 9.90625 36.109375 10.765625 
Q 37.15625 11.625 37.75 11.625 
Q 38.09375 11.625 38.328125 11.421875 
Q 38.578125 11.234375 38.75 10.765625 
Q 38.921875 10.296875 38.984375 9.59375 
Q 39.0625 8.890625 39.0625 7.90625 
z
" id="Calibri-63"/>
      <path d="M 45.3125 1.21875 
Q 45.3125 0.828125 45.109375 0.5625 
Q 44.921875 0.296875 44.484375 0.09375 
Q 44.046875 -0.09375 43.265625 -0.1875 
Q 42.484375 -0.296875 41.3125 -0.296875 
Q 40.09375 -0.296875 39.3125 -0.1875 
Q 38.53125 -0.09375 38.078125 0.09375 
Q 37.640625 0.296875 37.4375 0.5625 
Q 37.25 0.828125 37.25 1.21875 
L 37.25 26.953125 
Q 37.25 30.71875 36.65625 33 
Q 36.078125 35.296875 34.953125 36.953125 
Q 33.84375 38.625 32.0625 39.5 
Q 30.28125 40.375 27.9375 40.375 
Q 24.90625 40.375 21.875 38.21875 
Q 18.84375 36.078125 15.53125 31.9375 
L 15.53125 1.21875 
Q 15.53125 0.828125 15.328125 0.5625 
Q 15.140625 0.296875 14.703125 0.09375 
Q 14.265625 -0.09375 13.484375 -0.1875 
Q 12.703125 -0.296875 11.46875 -0.296875 
Q 10.296875 -0.296875 9.515625 -0.1875 
Q 8.734375 -0.09375 8.265625 0.09375 
Q 7.8125 0.296875 7.640625 0.5625 
Q 7.46875 0.828125 7.46875 1.21875 
L 7.46875 45.171875 
Q 7.46875 45.5625 7.609375 45.828125 
Q 7.765625 46.09375 8.203125 46.3125 
Q 8.640625 46.53125 9.328125 46.609375 
Q 10.015625 46.6875 11.140625 46.6875 
Q 12.203125 46.6875 12.90625 46.609375 
Q 13.625 46.53125 14.015625 46.3125 
Q 14.40625 46.09375 14.578125 45.828125 
Q 14.75 45.5625 14.75 45.171875 
L 14.75 39.359375 
Q 18.453125 43.5 22.140625 45.421875 
Q 25.828125 47.359375 29.59375 47.359375 
Q 33.984375 47.359375 36.984375 45.875 
Q 39.984375 44.390625 41.84375 41.890625 
Q 43.703125 39.40625 44.5 36.0625 
Q 45.3125 32.71875 45.3125 28.03125 
z
" id="Calibri-6e"/>
      <path d="M 30.328125 4.4375 
Q 30.328125 3.03125 30.125 2.203125 
Q 29.9375 1.375 29.546875 0.984375 
Q 29.15625 0.59375 28.375 0.25 
Q 27.59375 -0.09375 26.59375 -0.3125 
Q 25.59375 -0.53125 24.46875 -0.671875 
Q 23.34375 -0.828125 22.21875 -0.828125 
Q 18.796875 -0.828125 16.359375 0.078125 
Q 13.921875 0.984375 12.359375 2.8125 
Q 10.796875 4.640625 10.078125 7.4375 
Q 9.375 10.25 9.375 14.0625 
L 9.375 39.75 
L 3.21875 39.75 
Q 2.484375 39.75 2.046875 40.53125 
Q 1.609375 41.3125 1.609375 43.0625 
Q 1.609375 44 1.734375 44.625 
Q 1.859375 45.265625 2.046875 45.671875 
Q 2.25 46.09375 2.5625 46.265625 
Q 2.875 46.4375 3.265625 46.4375 
L 9.375 46.4375 
L 9.375 56.890625 
Q 9.375 57.234375 9.546875 57.515625 
Q 9.71875 57.8125 10.171875 58.03125 
Q 10.640625 58.25 11.421875 58.34375 
Q 12.203125 58.453125 13.375 58.453125 
Q 14.59375 58.453125 15.375 58.34375 
Q 16.15625 58.25 16.59375 58.03125 
Q 17.046875 57.8125 17.234375 57.515625 
Q 17.4375 57.234375 17.4375 56.890625 
L 17.4375 46.4375 
L 28.71875 46.4375 
Q 29.109375 46.4375 29.390625 46.265625 
Q 29.6875 46.09375 29.90625 45.671875 
Q 30.125 45.265625 30.21875 44.625 
Q 30.328125 44 30.328125 43.0625 
Q 30.328125 41.3125 29.875 40.53125 
Q 29.4375 39.75 28.71875 39.75 
L 17.4375 39.75 
L 17.4375 15.234375 
Q 17.4375 10.6875 18.78125 8.375 
Q 20.125 6.0625 23.578125 6.0625 
Q 24.703125 6.0625 25.578125 6.28125 
Q 26.46875 6.5 27.140625 6.734375 
Q 27.828125 6.984375 28.3125 7.203125 
Q 28.8125 7.421875 29.203125 7.421875 
Q 29.4375 7.421875 29.65625 7.296875 
Q 29.890625 7.171875 30 6.828125 
Q 30.125 6.5 30.21875 5.90625 
Q 30.328125 5.328125 30.328125 4.4375 
z
" id="Calibri-74"/>
      <path d="M 18.109375 6.984375 
Q 18.109375 5.46875 17.96875 4.203125 
Q 17.828125 2.9375 17.484375 1.8125 
Q 17.140625 0.6875 16.578125 -0.40625 
Q 16.015625 -1.515625 15.1875 -2.734375 
L 8.5 -12.796875 
Q 8.25 -13.140625 7.9375 -13.375 
Q 7.625 -13.625 7.15625 -13.8125 
Q 6.6875 -14.015625 6.078125 -14.078125 
Q 5.46875 -14.15625 4.546875 -14.15625 
Q 3.71875 -14.15625 3.15625 -14.078125 
Q 2.59375 -14.015625 2.34375 -13.84375 
Q 2.09375 -13.671875 2.0625 -13.375 
Q 2.046875 -13.09375 2.25 -12.703125 
L 8.734375 0.734375 
L 8.734375 6.984375 
Q 8.734375 8.296875 9 9.078125 
Q 9.28125 9.859375 9.859375 10.25 
Q 10.453125 10.640625 11.328125 10.78125 
Q 12.203125 10.9375 13.484375 10.9375 
Q 14.703125 10.9375 15.578125 10.78125 
Q 16.453125 10.640625 17.015625 10.25 
Q 17.578125 9.859375 17.84375 9.078125 
Q 18.109375 8.296875 18.109375 6.984375 
z
" id="Calibri-2c"/>
      <path d="M 62.9375 -3.609375 
Q 62.9375 -4 62.859375 -4.578125 
Q 62.796875 -5.171875 62.640625 -5.8125 
Q 62.5 -6.453125 62.28125 -7.0625 
Q 62.0625 -7.671875 61.765625 -8.15625 
Q 61.46875 -8.640625 61.125 -8.9375 
Q 60.796875 -9.234375 60.359375 -9.234375 
Q 59.96875 -9.234375 58.984375 -8.9375 
Q 58.015625 -8.640625 56.671875 -8.046875 
Q 55.328125 -7.46875 53.640625 -6.515625 
Q 51.953125 -5.5625 50.125 -4.25 
Q 48.296875 -2.9375 46.4375 -1.265625 
Q 44.578125 0.390625 42.78125 2.4375 
Q 39.75 0.78125 36.109375 -0.0625 
Q 32.46875 -0.921875 27.9375 -0.921875 
Q 22.359375 -0.921875 18.1875 0.46875 
Q 14.015625 1.859375 11.203125 4.609375 
Q 8.40625 7.375 6.984375 11.421875 
Q 5.5625 15.484375 5.5625 20.796875 
Q 5.5625 25 6.265625 29.828125 
Q 6.984375 34.671875 8.671875 39.46875 
Q 10.359375 44.28125 13.0625 48.71875 
Q 15.765625 53.171875 19.703125 56.609375 
Q 23.640625 60.0625 28.90625 62.078125 
Q 34.1875 64.109375 41.015625 64.109375 
Q 46.53125 64.109375 50.703125 62.671875 
Q 54.890625 61.234375 57.6875 58.421875 
Q 60.5 55.609375 61.90625 51.484375 
Q 63.328125 47.359375 63.328125 42 
Q 63.328125 39.546875 63.0625 36.609375 
Q 62.796875 33.6875 62.125 30.578125 
Q 61.46875 27.484375 60.390625 24.265625 
Q 59.328125 21.046875 57.8125 17.9375 
Q 56.296875 14.84375 54.21875 12.015625 
Q 52.15625 9.1875 49.421875 6.6875 
Q 52.15625 4.046875 54.375 2.484375 
Q 56.59375 0.921875 58.28125 0.046875 
Q 59.96875 -0.828125 61.015625 -1.265625 
Q 62.0625 -1.703125 62.375 -2 
Q 62.703125 -2.296875 62.8125 -2.609375 
Q 62.9375 -2.9375 62.9375 -3.609375 
z
M 54.34375 41.40625 
Q 54.34375 44.828125 53.5625 47.671875 
Q 52.78125 50.53125 51.0625 52.578125 
Q 49.359375 54.640625 46.546875 55.78125 
Q 43.75 56.9375 39.703125 56.9375 
Q 34.625 56.9375 30.78125 55.046875 
Q 26.953125 53.171875 24.171875 50.140625 
Q 21.390625 47.125 19.53125 43.28125 
Q 17.671875 39.453125 16.578125 35.546875 
Q 15.484375 31.640625 15.015625 27.96875 
Q 14.546875 24.3125 14.546875 21.625 
Q 14.546875 18.171875 15.296875 15.359375 
Q 16.0625 12.546875 17.8125 10.546875 
Q 19.578125 8.546875 22.40625 7.4375 
Q 25.25 6.34375 29.296875 6.34375 
Q 34.28125 6.34375 38.078125 8.171875 
Q 41.890625 10.015625 44.671875 12.984375 
Q 47.46875 15.96875 49.34375 19.75 
Q 51.21875 23.53125 52.3125 27.40625 
Q 53.421875 31.296875 53.875 34.953125 
Q 54.34375 38.625 54.34375 41.40625 
z
" id="Calibri-Italic-51"/>
      <path d="M 8.203125 -11.765625 
Q 8.015625 -12.40625 7.6875 -12.765625 
Q 7.375 -13.140625 6.875 -13.328125 
Q 6.390625 -13.53125 5.6875 -13.625 
Q 4.984375 -13.71875 3.953125 -13.71875 
Q 2.734375 -13.71875 1.921875 -13.546875 
Q 1.125 -13.375 0.6875 -13.0625 
Q 0.25 -12.75 0.140625 -12.28125 
Q 0.046875 -11.8125 0.34375 -11.1875 
L 29.890625 69.828125 
Q 30.078125 70.453125 30.390625 70.8125 
Q 30.71875 71.1875 31.171875 71.40625 
Q 31.640625 71.625 32.375 71.703125 
Q 33.109375 71.78125 34.125 71.78125 
Q 35.359375 71.78125 36.140625 71.609375 
Q 36.921875 71.4375 37.359375 71.140625 
Q 37.796875 70.84375 37.890625 70.359375 
Q 37.984375 69.875 37.75 69.234375 
z
" id="Calibri-2f"/>
     </defs>
     <g transform="translate(186.095 413.795)scale(0.19 -0.19)">
      <use transform="translate(0 0.21875)" xlink:href="#Calibri-4e"/>
      <use transform="translate(64.550781 0.21875)" xlink:href="#Calibri-6f"/>
      <use transform="translate(117.285156 0.21875)" xlink:href="#Calibri-72"/>
      <use transform="translate(152.148438 0.21875)" xlink:href="#Calibri-6d"/>
      <use transform="translate(232.03125 0.21875)" xlink:href="#Calibri-61"/>
      <use transform="translate(279.931641 0.21875)" xlink:href="#Calibri-6c"/>
      <use transform="translate(302.880859 0.21875)" xlink:href="#Calibri-69"/>
      <use transform="translate(325.830078 0.21875)" xlink:href="#Calibri-73"/>
      <use transform="translate(364.941406 0.21875)" xlink:href="#Calibri-65"/>
      <use transform="translate(414.697266 0.21875)" xlink:href="#Calibri-64"/>
      <use transform="translate(467.236328 0.21875)" xlink:href="#Calibri-20"/>
      <use transform="translate(489.84375 0.21875)" xlink:href="#Calibri-73"/>
      <use transform="translate(528.955078 0.21875)" xlink:href="#Calibri-6f"/>
      <use transform="translate(581.689453 0.21875)" xlink:href="#Calibri-6c"/>
      <use transform="translate(604.638672 0.21875)" xlink:href="#Calibri-61"/>
      <use transform="translate(652.539062 0.21875)" xlink:href="#Calibri-72"/>
      <use transform="translate(687.402344 0.21875)" xlink:href="#Calibri-20"/>
      <use transform="translate(709.994141 0.21875)" xlink:href="#Calibri-63"/>
      <use transform="translate(752.279297 0.21875)" xlink:href="#Calibri-6f"/>
      <use transform="translate(805.013672 0.21875)" xlink:href="#Calibri-6e"/>
      <use transform="translate(857.552734 0.21875)" xlink:href="#Calibri-73"/>
      <use transform="translate(896.664062 0.21875)" xlink:href="#Calibri-74"/>
      <use transform="translate(930.160156 0.21875)" xlink:href="#Calibri-61"/>
      <use transform="translate(978.060547 0.21875)" xlink:href="#Calibri-6e"/>
      <use transform="translate(1030.599609 0.21875)" xlink:href="#Calibri-74"/>
      <use transform="translate(1064.095703 0.21875)" xlink:href="#Calibri-2c"/>
      <use transform="translate(1089.046875 0.21875)" xlink:href="#Calibri-20"/>
      <use transform="translate(1111.654297 0.21875)" xlink:href="#Calibri-Italic-51"/>
      <use transform="translate(1178.060547 0.21875)" xlink:href="#Calibri-2f"/>
      <use transform="translate(1216.683594 0.21875)" xlink:href="#Calibri-Italic-51"/>
      <use transform="translate(1283.089844 -13.7875)scale(0.7)" xlink:href="#Calibri-30"/>
     </g>
    </g>
   </g>
   <g id="matplotlib.axis_2">
    <g id="ytick_1">
     <g id="line2d_39">
      <path clip-path="url(#p3d705ea1ec)" d="M 69.41 353.500909 
L 553.77 353.500909 
" style="fill:none;stroke:#bfbfbf;stroke-linecap:square;stroke-width:0.8;"/>
     </g>
     <g id="line2d_40">
      <defs>
       <path d="M 0 0 
L -3.5 0 
" id="m3935f7a036" style="stroke:#000000;stroke-width:0.8;"/>
      </defs>
      <g>
       <use style="stroke:#000000;stroke-width:0.8;" x="69.41" xlink:href="#m3935f7a036" y="353.500909"/>
      </g>
     </g>
     <g id="text_9">
      <!-- 0.0 -->
      <g transform="translate(35.1175 359.622315)scale(0.18 -0.18)">
       <use xlink:href="#Calibri-30"/>
       <use x="50.683594" xlink:href="#Calibri-2e"/>
       <use x="75.927734" xlink:href="#Calibri-30"/>
      </g>
     </g>
    </g>
    <g id="ytick_2">
     <g id="line2d_41">
      <path clip-path="url(#p3d705ea1ec)" d="M 69.41 288.704545 
L 553.77 288.704545 
" style="fill:none;stroke:#bfbfbf;stroke-linecap:square;stroke-width:0.8;"/>
     </g>
     <g id="line2d_42">
      <g>
       <use style="stroke:#000000;stroke-width:0.8;" x="69.41" xlink:href="#m3935f7a036" y="288.704545"/>
      </g>
     </g>
     <g id="text_10">
      <!-- 0.2 -->
      <g transform="translate(35.1175 294.825952)scale(0.18 -0.18)">
       <use xlink:href="#Calibri-30"/>
       <use x="50.683594" xlink:href="#Calibri-2e"/>
       <use x="75.927734" xlink:href="#Calibri-32"/>
      </g>
     </g>
    </g>
    <g id="ytick_3">
     <g id="line2d_43">
      <path clip-path="url(#p3d705ea1ec)" d="M 69.41 223.908182 
L 553.77 223.908182 
" style="fill:none;stroke:#bfbfbf;stroke-linecap:square;stroke-width:0.8;"/>
     </g>
     <g id="line2d_44">
      <g>
       <use style="stroke:#000000;stroke-width:0.8;" x="69.41" xlink:href="#m3935f7a036" y="223.908182"/>
      </g>
     </g>
     <g id="text_11">
      <!-- 0.4 -->
      <g transform="translate(35.1175 230.029588)scale(0.18 -0.18)">
       <use xlink:href="#Calibri-30"/>
       <use x="50.683594" xlink:href="#Calibri-2e"/>
       <use x="75.927734" xlink:href="#Calibri-34"/>
      </g>
     </g>
    </g>
    <g id="ytick_4">
     <g id="line2d_45">
      <path clip-path="url(#p3d705ea1ec)" d="M 69.41 159.111818 
L 553.77 159.111818 
" style="fill:none;stroke:#bfbfbf;stroke-linecap:square;stroke-width:0.8;"/>
     </g>
     <g id="line2d_46">
      <g>
       <use style="stroke:#000000;stroke-width:0.8;" x="69.41" xlink:href="#m3935f7a036" y="159.111818"/>
      </g>
     </g>
     <g id="text_12">
      <!-- 0.6 -->
      <defs>
       <path d="M 46.734375 20.453125 
Q 46.734375 16.3125 45.453125 12.421875 
Q 44.1875 8.546875 41.546875 5.59375 
Q 38.921875 2.640625 34.859375 0.859375 
Q 30.8125 -0.921875 25.296875 -0.921875 
Q 21.34375 -0.921875 18.3125 0.046875 
Q 15.28125 1.03125 13.03125 2.828125 
Q 10.796875 4.640625 9.296875 7.265625 
Q 7.8125 9.90625 6.90625 13.28125 
Q 6 16.65625 5.609375 20.65625 
Q 5.21875 24.65625 5.21875 29.25 
Q 5.21875 33.296875 5.65625 37.453125 
Q 6.109375 41.609375 7.21875 45.453125 
Q 8.34375 49.3125 10.265625 52.703125 
Q 12.203125 56.109375 15.109375 58.625 
Q 18.015625 61.140625 22.0625 62.59375 
Q 26.125 64.0625 31.5 64.0625 
Q 33.296875 64.0625 35.15625 63.84375 
Q 37.015625 63.625 38.578125 63.25 
Q 40.140625 62.890625 41.203125 62.453125 
Q 42.28125 62.015625 42.625 61.734375 
Q 42.96875 61.46875 43.140625 61.15625 
Q 43.3125 60.84375 43.40625 60.46875 
Q 43.5 60.109375 43.546875 59.640625 
Q 43.609375 59.1875 43.609375 58.5 
Q 43.609375 57.625 43.578125 56.984375 
Q 43.5625 56.34375 43.390625 55.953125 
Q 43.21875 55.5625 42.9375 55.359375 
Q 42.671875 55.171875 42.234375 55.171875 
Q 41.703125 55.171875 40.765625 55.515625 
Q 39.84375 55.859375 38.515625 56.265625 
Q 37.203125 56.6875 35.328125 57.03125 
Q 33.453125 57.375 30.953125 57.375 
Q 26.421875 57.375 23.140625 55.515625 
Q 19.875 53.65625 17.796875 50.53125 
Q 15.71875 47.40625 14.71875 43.28125 
Q 13.71875 39.15625 13.578125 34.671875 
Q 14.84375 35.40625 16.421875 36.125 
Q 18.015625 36.859375 19.890625 37.4375 
Q 21.78125 38.03125 23.875 38.390625 
Q 25.984375 38.765625 28.375 38.765625 
Q 33.5 38.765625 37.015625 37.375 
Q 40.53125 35.984375 42.703125 33.515625 
Q 44.875 31.0625 45.796875 27.703125 
Q 46.734375 24.359375 46.734375 20.453125 
z
M 38.234375 19.671875 
Q 38.234375 22.515625 37.671875 24.828125 
Q 37.109375 27.15625 35.78125 28.765625 
Q 34.46875 30.375 32.265625 31.25 
Q 30.078125 32.125 26.859375 32.125 
Q 25.046875 32.125 23.234375 31.8125 
Q 21.4375 31.5 19.75 30.9375 
Q 18.0625 30.375 16.515625 29.609375 
Q 14.984375 28.859375 13.71875 27.984375 
Q 13.71875 21.6875 14.515625 17.4375 
Q 15.328125 13.1875 16.859375 10.625 
Q 18.40625 8.0625 20.703125 6.953125 
Q 23 5.859375 26.078125 5.859375 
Q 29.203125 5.859375 31.5 7.03125 
Q 33.796875 8.203125 35.296875 10.171875 
Q 36.8125 12.15625 37.515625 14.625 
Q 38.234375 17.09375 38.234375 19.671875 
z
" id="Calibri-36"/>
      </defs>
      <g transform="translate(35.1175 165.233224)scale(0.18 -0.18)">
       <use xlink:href="#Calibri-30"/>
       <use x="50.683594" xlink:href="#Calibri-2e"/>
       <use x="75.927734" xlink:href="#Calibri-36"/>
      </g>
     </g>
    </g>
    <g id="ytick_5">
     <g id="line2d_47">
      <path clip-path="url(#p3d705ea1ec)" d="M 69.41 94.315455 
L 553.77 94.315455 
" style="fill:none;stroke:#bfbfbf;stroke-linecap:square;stroke-width:0.8;"/>
     </g>
     <g id="line2d_48">
      <g>
       <use style="stroke:#000000;stroke-width:0.8;" x="69.41" xlink:href="#m3935f7a036" y="94.315455"/>
      </g>
     </g>
     <g id="text_13">
      <!-- 0.8 -->
      <g transform="translate(35.1175 100.436861)scale(0.18 -0.18)">
       <use xlink:href="#Calibri-30"/>
       <use x="50.683594" xlink:href="#Calibri-2e"/>
       <use x="75.927734" xlink:href="#Calibri-38"/>
      </g>
     </g>
    </g>
    <g id="ytick_6">
     <g id="line2d_49">
      <path clip-path="url(#p3d705ea1ec)" d="M 69.41 29.519091 
L 553.77 29.519091 
" style="fill:none;stroke:#bfbfbf;stroke-linecap:square;stroke-width:0.8;"/>
     </g>
     <g id="line2d_50">
      <g>
       <use style="stroke:#000000;stroke-width:0.8;" x="69.41" xlink:href="#m3935f7a036" y="29.519091"/>
      </g>
     </g>
     <g id="text_14">
      <!-- 1.0 -->
      <g transform="translate(35.1175 35.640497)scale(0.18 -0.18)">
       <use xlink:href="#Calibri-31"/>
       <use x="50.683594" xlink:href="#Calibri-2e"/>
       <use x="75.927734" xlink:href="#Calibri-30"/>
      </g>
     </g>
    </g>
    <g id="ytick_7">
     <g id="line2d_51">
      <defs>
       <path d="M 0 0 
L -2 0 
" id="m70b4428919" style="stroke:#000000;stroke-width:0.6;"/>
      </defs>
      <g>
       <use style="stroke:#000000;stroke-width:0.6;" x="69.41" xlink:href="#m70b4428919" y="337.301818"/>
      </g>
     </g>
    </g>
    <g id="ytick_8">
     <g id="line2d_52">
      <g>
       <use style="stroke:#000000;stroke-width:0.6;" x="69.41" xlink:href="#m70b4428919" y="321.102727"/>
      </g>
     </g>
    </g>
    <g id="ytick_9">
     <g id="line2d_53">
      <g>
       <use style="stroke:#000000;stroke-width:0.6;" x="69.41" xlink:href="#m70b4428919" y="304.903636"/>
      </g>
     </g>
    </g>
    <g id="ytick_10">
     <g id="line2d_54">
      <g>
       <use style="stroke:#000000;stroke-width:0.6;" x="69.41" xlink:href="#m70b4428919" y="288.704545"/>
      </g>
     </g>
    </g>
    <g id="ytick_11">
     <g id="line2d_55">
      <g>
       <use style="stroke:#000000;stroke-width:0.6;" x="69.41" xlink:href="#m70b4428919" y="272.505455"/>
      </g>
     </g>
    </g>
    <g id="ytick_12">
     <g id="line2d_56">
      <g>
       <use style="stroke:#000000;stroke-width:0.6;" x="69.41" xlink:href="#m70b4428919" y="256.306364"/>
      </g>
     </g>
    </g>
    <g id="ytick_13">
     <g id="line2d_57">
      <g>
       <use style="stroke:#000000;stroke-width:0.6;" x="69.41" xlink:href="#m70b4428919" y="240.107273"/>
      </g>
     </g>
    </g>
    <g id="ytick_14">
     <g id="line2d_58">
      <g>
       <use style="stroke:#000000;stroke-width:0.6;" x="69.41" xlink:href="#m70b4428919" y="223.908182"/>
      </g>
     </g>
    </g>
    <g id="ytick_15">
     <g id="line2d_59">
      <g>
       <use style="stroke:#000000;stroke-width:0.6;" x="69.41" xlink:href="#m70b4428919" y="207.709091"/>
      </g>
     </g>
    </g>
    <g id="ytick_16">
     <g id="line2d_60">
      <g>
       <use style="stroke:#000000;stroke-width:0.6;" x="69.41" xlink:href="#m70b4428919" y="191.51"/>
      </g>
     </g>
    </g>
    <g id="ytick_17">
     <g id="line2d_61">
      <g>
       <use style="stroke:#000000;stroke-width:0.6;" x="69.41" xlink:href="#m70b4428919" y="175.310909"/>
      </g>
     </g>
    </g>
    <g id="ytick_18">
     <g id="line2d_62">
      <g>
       <use style="stroke:#000000;stroke-width:0.6;" x="69.41" xlink:href="#m70b4428919" y="159.111818"/>
      </g>
     </g>
    </g>
    <g id="ytick_19">
     <g id="line2d_63">
      <g>
       <use style="stroke:#000000;stroke-width:0.6;" x="69.41" xlink:href="#m70b4428919" y="142.912727"/>
      </g>
     </g>
    </g>
    <g id="ytick_20">
     <g id="line2d_64">
      <g>
       <use style="stroke:#000000;stroke-width:0.6;" x="69.41" xlink:href="#m70b4428919" y="126.713636"/>
      </g>
     </g>
    </g>
    <g id="ytick_21">
     <g id="line2d_65">
      <g>
       <use style="stroke:#000000;stroke-width:0.6;" x="69.41" xlink:href="#m70b4428919" y="110.514545"/>
      </g>
     </g>
    </g>
    <g id="ytick_22">
     <g id="line2d_66">
      <g>
       <use style="stroke:#000000;stroke-width:0.6;" x="69.41" xlink:href="#m70b4428919" y="94.315455"/>
      </g>
     </g>
    </g>
    <g id="ytick_23">
     <g id="line2d_67">
      <g>
       <use style="stroke:#000000;stroke-width:0.6;" x="69.41" xlink:href="#m70b4428919" y="78.116364"/>
      </g>
     </g>
    </g>
    <g id="ytick_24">
     <g id="line2d_68">
      <g>
       <use style="stroke:#000000;stroke-width:0.6;" x="69.41" xlink:href="#m70b4428919" y="61.917273"/>
      </g>
     </g>
    </g>
    <g id="ytick_25">
     <g id="line2d_69">
      <g>
       <use style="stroke:#000000;stroke-width:0.6;" x="69.41" xlink:href="#m70b4428919" y="45.718182"/>
      </g>
     </g>
    </g>
    <g id="ytick_26">
     <g id="line2d_70">
      <g>
       <use style="stroke:#000000;stroke-width:0.6;" x="69.41" xlink:href="#m70b4428919" y="29.519091"/>
      </g>
     </g>
    </g>
    <g id="text_15">
     <!-- Ice-edge position, $x_\mathrm{i}=\sin \phi_\mathrm{i}$ -->
     <defs>
      <path d="M 16.796875 1.265625 
Q 16.796875 0.875 16.59375 0.578125 
Q 16.40625 0.296875 15.921875 0.125 
Q 15.4375 -0.046875 14.625 -0.171875 
Q 13.8125 -0.296875 12.59375 -0.296875 
Q 11.421875 -0.296875 10.59375 -0.171875 
Q 9.765625 -0.046875 9.28125 0.125 
Q 8.796875 0.296875 8.59375 0.578125 
Q 8.40625 0.875 8.40625 1.265625 
L 8.40625 61.921875 
Q 8.40625 62.3125 8.625 62.59375 
Q 8.84375 62.890625 9.34375 63.0625 
Q 9.859375 63.234375 10.65625 63.359375 
Q 11.46875 63.484375 12.59375 63.484375 
Q 13.8125 63.484375 14.625 63.359375 
Q 15.4375 63.234375 15.921875 63.0625 
Q 16.40625 62.890625 16.59375 62.59375 
Q 16.796875 62.3125 16.796875 61.921875 
z
" id="Calibri-49"/>
      <path d="M 27.25 24.65625 
Q 27.25 22.75 26.8125 22.015625 
Q 26.375 21.296875 25.53125 21.296875 
L 5.125 21.296875 
Q 4.25 21.296875 3.8125 22.046875 
Q 3.375 22.796875 3.375 24.65625 
Q 3.375 26.515625 3.8125 27.25 
Q 4.25 27.984375 5.125 27.984375 
L 25.53125 27.984375 
Q 25.921875 27.984375 26.234375 27.828125 
Q 26.5625 27.6875 26.78125 27.265625 
Q 27 26.859375 27.125 26.21875 
Q 27.25 25.59375 27.25 24.65625 
z
" id="Calibri-2d"/>
      <path d="M 44.1875 43.171875 
Q 44.1875 41.453125 43.71875 40.6875 
Q 43.265625 39.9375 42.53125 39.9375 
L 36.234375 39.9375 
Q 37.9375 38.1875 38.625 36.0625 
Q 39.3125 33.9375 39.3125 31.640625 
Q 39.3125 27.828125 38.078125 24.890625 
Q 36.859375 21.96875 34.59375 19.9375 
Q 32.328125 17.921875 29.203125 16.84375 
Q 26.078125 15.765625 22.265625 15.765625 
Q 19.578125 15.765625 17.15625 16.46875 
Q 14.75 17.1875 13.421875 18.265625 
Q 12.546875 17.390625 11.984375 16.265625 
Q 11.421875 15.140625 11.421875 13.671875 
Q 11.421875 11.96875 13 10.84375 
Q 14.59375 9.71875 17.234375 9.625 
L 28.71875 9.125 
Q 31.984375 9.03125 34.71875 8.21875 
Q 37.453125 7.421875 39.453125 5.921875 
Q 41.453125 4.4375 42.578125 2.265625 
Q 43.703125 0.09375 43.703125 -2.78125 
Q 43.703125 -5.8125 42.421875 -8.546875 
Q 41.15625 -11.28125 38.546875 -13.359375 
Q 35.9375 -15.4375 31.875 -16.625 
Q 27.828125 -17.828125 22.3125 -17.828125 
Q 17 -17.828125 13.25 -16.921875 
Q 9.515625 -16.015625 7.125 -14.453125 
Q 4.734375 -12.890625 3.65625 -10.71875 
Q 2.59375 -8.546875 2.59375 -6 
Q 2.59375 -4.390625 2.984375 -2.875 
Q 3.375 -1.375 4.171875 0 
Q 4.984375 1.375 6.171875 2.609375 
Q 7.375 3.859375 8.9375 5.078125 
Q 6.546875 6.296875 5.390625 8.15625 
Q 4.25 10.015625 4.25 12.15625 
Q 4.25 15.140625 5.46875 17.484375 
Q 6.6875 19.828125 8.5 21.6875 
Q 6.984375 23.484375 6.09375 25.75 
Q 5.21875 28.03125 5.21875 31.25 
Q 5.21875 35.015625 6.484375 37.984375 
Q 7.765625 40.96875 10 43.015625 
Q 12.25 45.0625 15.40625 46.15625 
Q 18.5625 47.265625 22.265625 47.265625 
Q 24.265625 47.265625 26 47.046875 
Q 27.734375 46.828125 29.25 46.4375 
L 42.53125 46.4375 
Q 43.359375 46.4375 43.765625 45.625 
Q 44.1875 44.828125 44.1875 43.171875 
z
M 31.59375 31.59375 
Q 31.59375 36.078125 29.125 38.59375 
Q 26.65625 41.109375 22.125 41.109375 
Q 19.78125 41.109375 18.046875 40.328125 
Q 16.3125 39.546875 15.15625 38.171875 
Q 14.015625 36.8125 13.453125 35.03125 
Q 12.890625 33.25 12.890625 31.296875 
Q 12.890625 26.953125 15.359375 24.453125 
Q 17.828125 21.96875 22.265625 21.96875 
Q 24.65625 21.96875 26.40625 22.71875 
Q 28.171875 23.484375 29.3125 24.828125 
Q 30.46875 26.171875 31.03125 27.921875 
Q 31.59375 29.6875 31.59375 31.59375 
z
M 35.640625 -3.21875 
Q 35.640625 -0.390625 33.3125 1.140625 
Q 31 2.6875 27.046875 2.78125 
L 15.671875 3.171875 
Q 14.109375 1.953125 13.109375 0.84375 
Q 12.109375 -0.25 11.515625 -1.25 
Q 10.9375 -2.25 10.71875 -3.21875 
Q 10.5 -4.203125 10.5 -5.21875 
Q 10.5 -8.40625 13.71875 -10.03125 
Q 16.9375 -11.671875 22.703125 -11.671875 
Q 26.375 -11.671875 28.828125 -10.953125 
Q 31.296875 -10.25 32.8125 -9.078125 
Q 34.328125 -7.90625 34.984375 -6.390625 
Q 35.640625 -4.890625 35.640625 -3.21875 
z
" id="Calibri-67"/>
      <path d="M 47.90625 23.875 
Q 47.90625 18.109375 46.65625 13.515625 
Q 45.40625 8.9375 42.984375 5.734375 
Q 40.578125 2.546875 37.015625 0.8125 
Q 33.453125 -0.921875 28.859375 -0.921875 
Q 26.90625 -0.921875 25.234375 -0.53125 
Q 23.578125 -0.140625 21.984375 0.6875 
Q 20.40625 1.515625 18.84375 2.78125 
Q 17.28125 4.046875 15.53125 5.765625 
L 15.53125 -16.21875 
Q 15.53125 -16.609375 15.328125 -16.890625 
Q 15.140625 -17.1875 14.703125 -17.375 
Q 14.265625 -17.578125 13.484375 -17.671875 
Q 12.703125 -17.78125 11.46875 -17.78125 
Q 10.296875 -17.78125 9.515625 -17.671875 
Q 8.734375 -17.578125 8.265625 -17.375 
Q 7.8125 -17.1875 7.640625 -16.890625 
Q 7.46875 -16.609375 7.46875 -16.21875 
L 7.46875 45.171875 
Q 7.46875 45.609375 7.609375 45.875 
Q 7.765625 46.140625 8.203125 46.328125 
Q 8.640625 46.53125 9.328125 46.609375 
Q 10.015625 46.6875 10.984375 46.6875 
Q 12.015625 46.6875 12.671875 46.609375 
Q 13.328125 46.53125 13.765625 46.328125 
Q 14.203125 46.140625 14.375 45.875 
Q 14.546875 45.609375 14.546875 45.171875 
L 14.546875 39.265625 
Q 16.546875 41.3125 18.40625 42.828125 
Q 20.265625 44.34375 22.140625 45.34375 
Q 24.03125 46.34375 26 46.84375 
Q 27.984375 47.359375 30.171875 47.359375 
Q 34.96875 47.359375 38.328125 45.5 
Q 41.703125 43.65625 43.828125 40.421875 
Q 45.953125 37.203125 46.921875 32.921875 
Q 47.90625 28.65625 47.90625 23.875 
z
M 39.40625 22.953125 
Q 39.40625 26.3125 38.890625 29.46875 
Q 38.375 32.625 37.125 35.0625 
Q 35.890625 37.5 33.78125 38.96875 
Q 31.6875 40.4375 28.5625 40.4375 
Q 27 40.4375 25.484375 39.96875 
Q 23.96875 39.5 22.40625 38.5 
Q 20.84375 37.5 19.140625 35.859375 
Q 17.4375 34.234375 15.53125 31.84375 
L 15.53125 14.359375 
Q 18.84375 10.296875 21.828125 8.140625 
Q 24.8125 6 28.078125 6 
Q 31.109375 6 33.28125 7.46875 
Q 35.453125 8.9375 36.796875 11.375 
Q 38.140625 13.8125 38.765625 16.84375 
Q 39.40625 19.875 39.40625 22.953125 
z
" id="Calibri-70"/>
      <path d="M 27.203125 23.640625 
L 36.765625 2.15625 
Q 37.0625 1.46875 36.984375 1 
Q 36.921875 0.53125 36.375 0.234375 
Q 35.84375 -0.046875 34.890625 -0.171875 
Q 33.9375 -0.296875 32.421875 -0.296875 
Q 31.0625 -0.296875 30.28125 -0.21875 
Q 29.5 -0.140625 29.046875 0.03125 
Q 28.609375 0.203125 28.46875 0.46875 
Q 28.328125 0.734375 28.171875 1.078125 
L 20.84375 18.40625 
L 7.03125 1.078125 
Q 6.734375 0.734375 6.421875 0.46875 
Q 6.109375 0.203125 5.515625 0.046875 
Q 4.9375 -0.09375 4.03125 -0.1875 
Q 3.125 -0.296875 1.65625 -0.296875 
Q 0.25 -0.296875 -0.625 -0.171875 
Q -1.515625 -0.046875 -1.921875 0.234375 
Q -2.34375 0.53125 -2.265625 0.96875 
Q -2.203125 1.421875 -1.703125 2.09375 
L 16.546875 23.78125 
L 7.515625 44.28125 
Q 7.234375 44.96875 7.28125 45.4375 
Q 7.328125 45.90625 7.78125 46.1875 
Q 8.25 46.484375 9.171875 46.578125 
Q 10.109375 46.6875 11.625 46.6875 
Q 12.984375 46.6875 13.765625 46.609375 
Q 14.546875 46.53125 14.953125 46.375 
Q 15.375 46.234375 15.546875 45.984375 
Q 15.71875 45.75 15.875 45.40625 
L 22.859375 29 
L 36.03125 45.40625 
Q 36.328125 45.703125 36.625 45.9375 
Q 36.921875 46.1875 37.453125 46.359375 
Q 37.984375 46.53125 38.78125 46.609375 
Q 39.59375 46.6875 40.921875 46.6875 
Q 42.390625 46.6875 43.3125 46.578125 
Q 44.234375 46.484375 44.671875 46.234375 
Q 45.125 46 45.046875 45.53125 
Q 44.96875 45.0625 44.34375 44.390625 
z
" id="Calibri-Italic-78"/>
      <path d="M 45.171875 37.640625 
Q 45.171875 35.6875 44.609375 34.9375 
Q 44.046875 34.1875 43.3125 34.1875 
L 6.390625 34.1875 
Q 5.671875 34.1875 5.125 34.9375 
Q 4.59375 35.6875 4.59375 37.640625 
Q 4.59375 39.40625 5.078125 40.234375 
Q 5.5625 41.0625 6.390625 41.0625 
L 43.3125 41.0625 
Q 44.1875 41.0625 44.671875 40.234375 
Q 45.171875 39.40625 45.171875 37.640625 
z
M 45.171875 18.65625 
Q 45.171875 16.703125 44.609375 15.96875 
Q 44.046875 15.234375 43.3125 15.234375 
L 6.390625 15.234375 
Q 5.671875 15.234375 5.125 15.96875 
Q 4.59375 16.703125 4.59375 18.65625 
Q 4.59375 20.453125 5.078125 21.28125 
Q 5.5625 22.125 6.390625 22.125 
L 43.3125 22.125 
Q 44.1875 22.125 44.671875 21.28125 
Q 45.171875 20.453125 45.171875 18.65625 
z
" id="Calibri-3d"/>
      <path d="M 23.78125 -0.921875 
Q 14.15625 -0.34375 8.875 4.03125 
Q 3.609375 8.40625 3.609375 16.609375 
Q 3.609375 19.78125 4.21875 23.21875 
Q 4.828125 26.65625 6.21875 29.953125 
Q 7.625 33.25 9.859375 36.25 
Q 12.109375 39.265625 15.421875 41.609375 
Q 18.75 43.953125 23.21875 45.484375 
Q 27.6875 47.015625 33.453125 47.3125 
L 37.3125 66.453125 
Q 37.359375 66.84375 37.625 67.140625 
Q 37.890625 67.4375 38.375 67.625 
Q 38.875 67.828125 39.703125 67.921875 
Q 40.53125 68.015625 41.703125 68.015625 
Q 44.046875 68.015625 44.78125 67.625 
Q 45.515625 67.234375 45.40625 66.453125 
L 41.5 47.3125 
Q 51.46875 46.734375 56.59375 42.28125 
Q 61.71875 37.84375 61.71875 29.890625 
Q 61.71875 26.65625 61.125 23.21875 
Q 60.546875 19.78125 59.15625 16.453125 
Q 57.765625 13.140625 55.484375 10.125 
Q 53.21875 7.125 49.890625 4.78125 
Q 46.578125 2.4375 42.078125 0.890625 
Q 37.59375 -0.640625 31.84375 -0.921875 
L 28.8125 -16.21875 
Q 28.65625 -16.609375 28.4375 -16.890625 
Q 28.21875 -17.1875 27.734375 -17.375 
Q 27.25 -17.578125 26.4375 -17.671875 
Q 25.640625 -17.78125 24.515625 -17.78125 
Q 22.3125 -17.78125 21.40625 -17.40625 
Q 20.515625 -17.046875 20.703125 -16.21875 
z
M 33.15625 5.671875 
Q 37.59375 5.953125 40.8125 7.3125 
Q 44.046875 8.6875 46.28125 10.71875 
Q 48.53125 12.75 49.921875 15.234375 
Q 51.3125 17.71875 52.09375 20.203125 
Q 52.875 22.703125 53.140625 25 
Q 53.421875 27.296875 53.421875 29 
Q 53.421875 30.8125 52.984375 32.78125 
Q 52.546875 34.765625 51.140625 36.421875 
Q 49.75 38.09375 47.140625 39.28125 
Q 44.53125 40.484375 40.140625 40.71875 
z
M 32.171875 40.71875 
Q 27.734375 40.4375 24.515625 39.0625 
Q 21.296875 37.703125 19.046875 35.671875 
Q 16.796875 33.640625 15.40625 31.140625 
Q 14.015625 28.65625 13.234375 26.1875 
Q 12.453125 23.734375 12.1875 21.390625 
Q 11.921875 19.046875 11.921875 17.390625 
Q 11.921875 15.578125 12.359375 13.59375 
Q 12.796875 11.625 14.1875 9.953125 
Q 15.578125 8.296875 18.1875 7.09375 
Q 20.796875 5.90625 25.203125 5.671875 
z
" id="Calibri-Italic-3d5"/>
     </defs>
     <g transform="translate(27.6975 294.87)rotate(-90)scale(0.19 -0.19)">
      <use transform="translate(0 0.984375)" xlink:href="#Calibri-49"/>
      <use transform="translate(25.195312 0.984375)" xlink:href="#Calibri-63"/>
      <use transform="translate(67.480469 0.984375)" xlink:href="#Calibri-65"/>
      <use transform="translate(117.236328 0.984375)" xlink:href="#Calibri-2d"/>
      <use transform="translate(147.851562 0.984375)" xlink:href="#Calibri-65"/>
      <use transform="translate(197.607422 0.984375)" xlink:href="#Calibri-64"/>
      <use transform="translate(250.146484 0.984375)" xlink:href="#Calibri-67"/>
      <use transform="translate(297.216797 0.984375)" xlink:href="#Calibri-65"/>
      <use transform="translate(346.972656 0.984375)" xlink:href="#Calibri-20"/>
      <use transform="translate(369.580078 0.984375)" xlink:href="#Calibri-70"/>
      <use transform="translate(422.119141 0.984375)" xlink:href="#Calibri-6f"/>
      <use transform="translate(474.853516 0.984375)" xlink:href="#Calibri-73"/>
      <use transform="translate(513.964844 0.984375)" xlink:href="#Calibri-69"/>
      <use transform="translate(536.914062 0.984375)" xlink:href="#Calibri-74"/>
      <use transform="translate(570.410156 0.984375)" xlink:href="#Calibri-69"/>
      <use transform="translate(593.359375 0.984375)" xlink:href="#Calibri-6f"/>
      <use transform="translate(646.09375 0.984375)" xlink:href="#Calibri-6e"/>
      <use transform="translate(698.632812 0.984375)" xlink:href="#Calibri-2c"/>
      <use transform="translate(723.583984 0.984375)" xlink:href="#Calibri-20"/>
      <use transform="translate(746.191406 0.984375)" xlink:href="#Calibri-Italic-78"/>
      <use transform="translate(789.501953 -13.021875)scale(0.7)" xlink:href="#Calibri-69"/>
      <use transform="translate(823.721094 0.984375)" xlink:href="#Calibri-3d"/>
      <use transform="translate(889.346094 0.984375)" xlink:href="#Calibri-73"/>
      <use transform="translate(928.457422 0.984375)" xlink:href="#Calibri-69"/>
      <use transform="translate(951.406641 0.984375)" xlink:href="#Calibri-6e"/>
      <use transform="translate(1003.945703 0.984375)" xlink:href="#Calibri-Italic-3d5"/>
      <use transform="translate(1069.082422 -13.021875)scale(0.7)" xlink:href="#Calibri-69"/>
     </g>
    </g>
   </g>
   <g id="line2d_71">
    <path clip-path="url(#p3d705ea1ec)" d="M 69.41 353.500909 
L 553.77 353.500909 
" style="fill:none;stroke:#808080;stroke-linecap:square;stroke-width:0.8;"/>
   </g>
   <g id="line2d_72">
    <path clip-path="url(#p3d705ea1ec)" d="M 69.41 29.519091 
L 553.77 29.519091 
" style="fill:none;stroke:#808080;stroke-linecap:square;stroke-width:0.8;"/>
   </g>
   <g id="line2d_73">
    <path clip-path="url(#p3d705ea1ec)" d="M 490.475123 353.500909 
L 466.579201 348.965164 
L 443.92646 344.429418 
L 424.012773 340.217655 
L 405.177399 336.005891 
L 387.411789 331.794127 
L 371.949333 327.906345 
L 357.369394 324.018564 
L 343.652037 320.130782 
L 330.774077 316.243 
L 318.709511 312.355218 
L 308.340629 308.791418 
L 298.607942 305.227618 
L 289.486805 301.663818 
L 280.951558 298.100018 
L 272.975717 294.536218 
L 265.532158 290.972418 
L 258.593297 287.408618 
L 252.131255 283.844818 
L 246.118029 280.281018 
L 240.525651 276.717218 
L 235.326353 273.153418 
L 230.492733 269.589618 
L 225.605186 265.701836 
L 221.086914 261.814055 
L 216.905213 257.926273 
L 212.718678 253.714509 
L 208.853141 249.502745 
L 205.00954 244.967 
L 201.458706 240.431255 
L 197.939593 235.571527 
L 194.470916 230.387818 
L 191.068257 224.880127 
L 187.92483 219.372436 
L 184.854603 213.540764 
L 182.036353 207.709091 
L 179.467422 201.877418 
L 177.275973 196.369727 
L 175.323858 190.862036 
L 173.718061 185.678327 
L 172.349839 180.494618 
L 171.293535 175.634891 
L 170.464383 170.775164 
L 169.86719 165.915436 
L 169.502798 161.055709 
L 169.367375 156.195982 
L 169.366199 155.548018 
L 169.366199 155.548018 
" style="fill:none;stroke:#808080;stroke-dasharray:5.55,2.4;stroke-dashoffset:0;stroke-width:1.5;"/>
   </g>
   <g id="line2d_74">
    <path clip-path="url(#p3d705ea1ec)" d="M 169.367071 155.224036 
L 169.494107 150.364309 
L 169.852084 145.1806 
L 170.456653 139.672909 
L 171.361313 133.517255 
L 172.698922 126.065673 
L 174.813791 115.698255 
L 181.558872 84.272018 
L 183.474759 76.496455 
L 185.461571 69.368855 
L 190.123353 53.169764 
L 190.661094 50.253927 
L 190.922535 47.662073 
L 190.952734 46.366145 
L 190.952734 46.366145 
" style="fill:none;stroke:#808080;stroke-linecap:square;stroke-width:1.5;"/>
   </g>
   <g id="line2d_75">
    <path clip-path="url(#p3d705ea1ec)" d="M 190.948048 46.042164 
L 190.938115 45.718182 
L 190.922752 45.3942 
L 190.901773 45.070218 
L 190.874987 44.746236 
L 190.8422 44.422255 
L 190.803212 44.098273 
L 190.757822 43.774291 
L 190.705822 43.450309 
L 190.647001 43.126327 
L 190.581145 42.802345 
L 190.508034 42.478364 
L 190.427446 42.154382 
L 190.339153 41.8304 
L 190.242923 41.506418 
L 190.138521 41.182436 
L 190.025707 40.858455 
L 189.904236 40.534473 
L 189.773861 40.210491 
L 189.634329 39.886509 
L 189.485383 39.562527 
L 189.326763 39.238545 
L 189.158203 38.914564 
L 188.979434 38.590582 
L 188.790182 38.2666 
L 188.590172 37.942618 
L 188.37912 37.618636 
L 188.156741 37.294655 
L 187.922745 36.970673 
L 187.67684 36.646691 
L 187.418726 36.322709 
L 187.148103 35.998727 
L 186.864665 35.674745 
L 186.568104 35.350764 
L 186.258105 35.026782 
L 185.934353 34.7028 
L 185.596527 34.378818 
L 185.244303 34.054836 
L 184.877355 33.730855 
L 184.495352 33.406873 
L 184.09796 33.082891 
L 183.684841 32.758909 
L 183.255657 32.434927 
L 182.810064 32.110945 
L 182.347717 31.786964 
L 181.868267 31.462982 
L 181.371363 31.139 
L 180.856652 30.815018 
L 180.323777 30.491036 
L 179.772383 30.167055 
L 179.202107 29.843073 
L 178.612591 29.519091 
" style="fill:none;stroke:#808080;stroke-dasharray:5.55,2.4;stroke-dashoffset:0;stroke-width:1.5;"/>
   </g>
   <g id="line2d_76">
    <path clip-path="url(#p3d705ea1ec)" d="M 69.41 353.500909 
L 490.475123 353.500909 
" style="fill:none;stroke:#808080;stroke-linecap:square;stroke-width:1.5;"/>
   </g>
   <g id="line2d_77">
    <path clip-path="url(#p3d705ea1ec)" d="M 178.612591 29.519091 
L 553.77 29.519091 
" style="fill:none;stroke:#808080;stroke-linecap:square;stroke-width:1.5;"/>
   </g>
   <g id="line2d_78">
    <path clip-path="url(#p3d705ea1ec)" d="M 470.753898 353.500909 
L 446.853846 349.289145 
L 424.221526 345.077382 
L 402.864332 340.865618 
L 384.279204 336.977836 
L 366.768432 333.090055 
L 350.316502 329.202273 
L 336.148132 325.638473 
L 322.832869 322.074673 
L 310.348711 318.510873 
L 298.67131 314.947073 
L 287.774319 311.383273 
L 277.629709 307.819473 
L 269.035485 304.579655 
L 261.015803 301.339836 
L 253.547065 298.100018 
L 246.605149 294.8602 
L 240.165535 291.620382 
L 234.203404 288.380564 
L 228.693754 285.140745 
L 223.611492 281.900927 
L 218.931548 278.661109 
L 214.628964 275.421291 
L 210.679008 272.181473 
L 207.057281 268.941655 
L 203.423904 265.377855 
L 200.127602 261.814055 
L 197.138278 258.250255 
L 194.427042 254.686455 
L 191.754223 250.798673 
L 189.346148 246.910891 
L 187.00031 242.699127 
L 184.740153 238.163382 
L 182.581811 233.303655 
L 180.535841 228.119945 
L 178.610503 222.612255 
L 176.816648 216.780582 
L 175.254179 210.948909 
L 173.918296 205.117236 
L 172.872894 199.609545 
L 172.054862 194.101855 
L 171.513555 188.918145 
L 171.227643 184.058418 
L 171.16541 180.494618 
L 171.16541 180.494618 
" style="fill:none;stroke:#000000;stroke-dasharray:5.55,2.4;stroke-dashoffset:0;stroke-width:1.5;"/>
   </g>
   <g id="line2d_79">
    <path clip-path="url(#p3d705ea1ec)" d="M 171.16623 180.170636 
L 171.29557 175.634891 
L 171.653081 171.099145 
L 172.248039 166.5634 
L 173.017736 162.351636 
L 174.081087 157.815891 
L 175.382887 153.280145 
L 176.912697 148.7444 
L 178.786265 143.884673 
L 181.022238 138.700964 
L 183.781201 132.869291 
L 187.410194 125.741691 
L 193.477203 114.402327 
L 204.205265 94.315455 
L 210.000148 83.624055 
L 213.755711 77.144418 
L 217.384816 71.312745 
L 221.689834 64.833109 
L 227.965558 55.437636 
L 229.851581 52.197818 
L 231.10887 49.605964 
L 231.840935 47.662073 
L 232.336838 45.718182 
L 232.528131 44.098273 
L 232.539192 43.450309 
L 232.539192 43.450309 
" style="fill:none;stroke:#000000;stroke-linecap:square;stroke-width:1.5;"/>
   </g>
   <g id="line2d_80">
    <path clip-path="url(#p3d705ea1ec)" d="M 232.52943 43.126327 
L 232.50903 42.802345 
L 232.477655 42.478364 
L 232.434959 42.154382 
L 232.38059 41.8304 
L 232.314192 41.506418 
L 232.235401 41.182436 
L 232.143846 40.858455 
L 232.039151 40.534473 
L 231.920933 40.210491 
L 231.788805 39.886509 
L 231.64237 39.562527 
L 231.481229 39.238545 
L 231.304974 38.914564 
L 231.113193 38.590582 
L 230.905467 38.2666 
L 230.681372 37.942618 
L 230.440477 37.618636 
L 230.182347 37.294655 
L 229.906541 36.970673 
L 229.612612 36.646691 
L 229.300109 36.322709 
L 228.968575 35.998727 
L 228.617547 35.674745 
L 228.24656 35.350764 
L 227.855142 35.026782 
L 227.442818 34.7028 
L 227.009107 34.378818 
L 226.553527 34.054836 
L 226.075589 33.730855 
L 225.574801 33.406873 
L 225.05067 33.082891 
L 224.502698 32.758909 
L 223.930383 32.434927 
L 223.333223 32.110945 
L 222.710713 31.786964 
L 222.062344 31.462982 
L 221.387607 31.139 
L 220.685994 30.815018 
L 219.95699 30.491036 
L 219.200086 30.167055 
L 218.414768 29.843073 
L 217.600524 29.519091 
" style="fill:none;stroke:#000000;stroke-dasharray:5.55,2.4;stroke-dashoffset:0;stroke-width:1.5;"/>
   </g>
   <g id="line2d_81">
    <path clip-path="url(#p3d705ea1ec)" d="M 69.41 353.500909 
L 470.753898 353.500909 
" style="fill:none;stroke:#000000;stroke-linecap:square;stroke-width:1.5;"/>
   </g>
   <g id="line2d_82">
    <path clip-path="url(#p3d705ea1ec)" d="M 217.600524 29.519091 
L 553.77 29.519091 
" style="fill:none;stroke:#000000;stroke-linecap:square;stroke-width:1.5;"/>
   </g>
   <g id="patch_3">
    <path d="M 69.41 369.7 
L 69.41 13.32 
" style="fill:none;stroke:#000000;stroke-linecap:square;stroke-linejoin:miter;stroke-width:0.8;"/>
   </g>
   <g id="patch_4">
    <path d="M 553.77 369.7 
L 553.77 13.32 
" style="fill:none;stroke:#000000;stroke-linecap:square;stroke-linejoin:miter;stroke-width:0.8;"/>
   </g>
   <g id="patch_5">
    <path d="M 69.41 369.7 
L 553.77 369.7 
" style="fill:none;stroke:#000000;stroke-linecap:square;stroke-linejoin:miter;stroke-width:0.8;"/>
   </g>
   <g id="patch_6">
    <path d="M 69.41 13.32 
L 553.77 13.32 
" style="fill:none;stroke:#000000;stroke-linecap:square;stroke-linejoin:miter;stroke-width:0.8;"/>
   </g>
   <g id="legend_1">
    <g id="patch_7">
     <path d="M 414.73 70.21 
L 545.77 70.21 
L 545.77 21.32 
L 414.73 21.32 
z
" style="fill:#ffffff;stroke:#000000;stroke-linejoin:miter;"/>
    </g>
    <g id="line2d_83">
     <path d="M 421.13 33.32 
L 453.13 33.32 
" style="fill:none;stroke:#808080;stroke-linecap:square;stroke-width:1.5;"/>
    </g>
    <g id="line2d_84"/>
    <g id="text_16">
     <!-- $D/D_0=1.00$ -->
     <defs>
      <path d="M 59.625 40.4375 
Q 59.625 37.25 59.171875 33.8125 
Q 58.734375 30.375 57.78125 26.921875 
Q 56.84375 23.484375 55.328125 20.15625 
Q 53.8125 16.84375 51.640625 13.84375 
Q 49.46875 10.84375 46.609375 8.296875 
Q 43.75 5.765625 40.078125 3.90625 
Q 36.421875 2.046875 31.921875 1.015625 
Q 27.4375 0 21.140625 0 
L 7.125 0 
Q 6.5 0 5.9375 0.171875 
Q 5.375 0.34375 4.984375 0.734375 
Q 4.59375 1.125 4.4375 1.78125 
Q 4.296875 2.4375 4.546875 3.421875 
L 15.765625 59.765625 
Q 16.109375 61.671875 17.25 62.421875 
Q 18.40625 63.1875 19.875 63.1875 
L 33.203125 63.1875 
Q 40.484375 63.1875 45.265625 61.640625 
Q 50.046875 60.109375 53.25 57.171875 
Q 56.453125 54.25 58.03125 50.015625 
Q 59.625 45.796875 59.625 40.4375 
z
M 50.734375 39.703125 
Q 50.734375 43.3125 49.734375 46.328125 
Q 48.734375 49.359375 46.578125 51.53125 
Q 44.4375 53.71875 41.09375 54.953125 
Q 37.75 56.203125 32.234375 56.203125 
L 23.4375 56.203125 
L 13.625 7.03125 
L 22.3125 7.03125 
Q 28.265625 7.03125 32.265625 8.46875 
Q 36.28125 9.90625 39.359375 12.375 
Q 42.4375 14.84375 44.578125 18.109375 
Q 46.734375 21.390625 48.09375 25 
Q 49.46875 28.609375 50.09375 32.390625 
Q 50.734375 36.1875 50.734375 39.703125 
z
" id="Calibri-Italic-44"/>
     </defs>
     <g transform="translate(465.93 38.92)scale(0.16 -0.16)">
      <use transform="translate(0 0.21875)" xlink:href="#Calibri-Italic-44"/>
      <use transform="translate(61.523438 0.21875)" xlink:href="#Calibri-2f"/>
      <use transform="translate(100.146484 0.21875)" xlink:href="#Calibri-Italic-44"/>
      <use transform="translate(161.669922 -13.7875)scale(0.7)" xlink:href="#Calibri-30"/>
      <use transform="translate(215.303125 0.21875)" xlink:href="#Calibri-3d"/>
      <use transform="translate(280.928125 0.21875)" xlink:href="#Calibri-31"/>
      <use transform="translate(331.611719 0.21875)" xlink:href="#Calibri-2e"/>
      <use transform="translate(356.855859 0.21875)" xlink:href="#Calibri-30"/>
      <use transform="translate(407.539453 0.21875)" xlink:href="#Calibri-30"/>
     </g>
    </g>
    <g id="line2d_85">
     <path d="M 421.13 55.365 
L 453.13 55.365 
" style="fill:none;stroke:#000000;stroke-linecap:square;stroke-width:1.5;"/>
    </g>
    <g id="line2d_86"/>
    <g id="text_17">
     <!-- $D/D_0=0.70$ -->
     <defs>
      <path d="M 46.046875 59.578125 
Q 46.046875 58.6875 45.96875 57.984375 
Q 45.90625 57.28125 45.78125 56.609375 
Q 45.65625 55.953125 45.4375 55.34375 
Q 45.21875 54.734375 44.921875 54.046875 
L 22.171875 1.609375 
Q 21.921875 1.03125 21.546875 0.65625 
Q 21.1875 0.296875 20.625 0.078125 
Q 20.0625 -0.140625 19.1875 -0.21875 
Q 18.3125 -0.296875 17.046875 -0.296875 
Q 15.375 -0.296875 14.453125 -0.140625 
Q 13.53125 0 13.109375 0.3125 
Q 12.703125 0.640625 12.75 1.09375 
Q 12.796875 1.5625 13.09375 2.203125 
L 37.015625 55.8125 
L 6.6875 55.8125 
Q 5.765625 55.8125 5.296875 56.78125 
Q 4.828125 57.765625 4.828125 59.515625 
Q 4.828125 60.453125 4.953125 61.125 
Q 5.078125 61.8125 5.3125 62.28125 
Q 5.5625 62.75 5.90625 62.96875 
Q 6.25 63.1875 6.6875 63.1875 
L 43.5 63.1875 
Q 44.1875 63.1875 44.703125 63.03125 
Q 45.21875 62.890625 45.484375 62.453125 
Q 45.75 62.015625 45.890625 61.328125 
Q 46.046875 60.640625 46.046875 59.578125 
z
" id="Calibri-37"/>
     </defs>
     <g transform="translate(465.93 60.965)scale(0.16 -0.16)">
      <use transform="translate(0 0.21875)" xlink:href="#Calibri-Italic-44"/>
      <use transform="translate(61.523438 0.21875)" xlink:href="#Calibri-2f"/>
      <use transform="translate(100.146484 0.21875)" xlink:href="#Calibri-Italic-44"/>
      <use transform="translate(161.669922 -13.7875)scale(0.7)" xlink:href="#Calibri-30"/>
      <use transform="translate(215.303125 0.21875)" xlink:href="#Calibri-3d"/>
      <use transform="translate(280.928125 0.21875)" xlink:href="#Calibri-30"/>
      <use transform="translate(331.611719 0.21875)" xlink:href="#Calibri-2e"/>
      <use transform="translate(356.855859 0.21875)" xlink:href="#Calibri-37"/>
      <use transform="translate(407.539453 0.21875)" xlink:href="#Calibri-30"/>
     </g>
    </g>
   </g>
  </g>
 </g>
 <defs>
  <clipPath id="p3d705ea1ec">
   <rect height="356.38" width="484.36" x="69.41" y="13.32"/>
  </clipPath>
 </defs>
</svg>
