<?xml version="1.0" encoding="utf-8" standalone="no"?>
<!DOCTYPE svg PUBLIC "-//W3C//DTD SVG 1.1//EN"
  "http://www.w3.org/Graphics/SVG/1.1/DTD/svg11.dtd">
<!-- Created with matplotlib (http://matplotlib.org/) -->
<svg height="432pt" version="1.1" viewBox="0 0 576 432" width="576pt" xmlns="http://www.w3.org/2000/svg" xmlns:xlink="http://www.w3.org/1999/xlink">
 <defs>
  <style type="text/css">
*{stroke-linecap:butt;stroke-linejoin:round;}
  </style>
 </defs>
 <g id="figure_1">
  <g id="patch_1">
   <path d="
M0 432
L576 432
L576 0
L0 0
z
" style="fill:#ffffff;"/>
  </g>
  <g id="axes_1">
   <g id="patch_2">
    <path d="
M71.4725 366.04
L552.62 366.04
L552.62 12.96
L71.4725 12.96
z
" style="fill:#ffffff;"/>
   </g>
   <g id="matplotlib.axis_1">
    <g id="xtick_1">
     <g id="line2d_1">
      <path clip-path="url(#pb7d95c4bf5)" d="
M71.4725 366.04
L71.4725 12.96" style="fill:none;stroke:#bfbfbf;stroke-linecap:square;stroke-width:0.5;"/>
     </g>
     <g id="line2d_2">
      <defs>
       <path d="
M0 0
L0 4" id="m741efc42ff" style="stroke:#000000;stroke-width:0.5;"/>
      </defs>
      <g>
       <use style="stroke:#000000;stroke-width:0.5;" x="71.4725" xlink:href="#m741efc42ff" y="366.04"/>
      </g>
     </g>
     <g id="line2d_3">
      <defs>
       <path d="
M0 0
L0 -4" id="m93b0483c22" style="stroke:#000000;stroke-width:0.5;"/>
      </defs>
      <g>
       <use style="stroke:#000000;stroke-width:0.5;" x="71.4725" xlink:href="#m93b0483c22" y="12.96"/>
      </g>
     </g>
     <g id="text_1">
      <!-- 0.8 -->
      <defs>
       <path d="
M47.2188 31.7344
Q47.2188 24.4688 46.0625 18.4531
Q44.9219 12.4531 42.25 8.125
Q39.5938 3.8125 35.2969 1.4375
Q31 -0.921875 24.7031 -0.921875
Q18.75 -0.921875 14.6719 1.20312
Q10.5938 3.32812 8.09375 7.45312
Q5.60938 11.5781 4.5625 17.6094
Q3.51562 23.6406 3.51562 31.4531
Q3.51562 38.6719 4.6875 44.7031
Q5.85938 50.7344 8.5 55.0469
Q11.1406 59.375 15.4375 61.7344
Q19.7344 64.1094 25.9844 64.1094
Q31.9844 64.1094 36.0625 61.9844
Q40.1406 59.8594 42.625 55.7344
Q45.125 51.6094 46.1719 45.5781
Q47.2188 39.5469 47.2188 31.7344
M38.625 31.1562
Q38.625 35.8906 38.2812 39.6406
Q37.9375 43.4062 37.2812 46.2812
Q36.625 49.1719 35.5625 51.25
Q34.5156 53.3281 33.0469 54.6562
Q31.5938 56 29.7031 56.6094
Q27.8281 57.2344 25.4844 57.2344
Q21.3438 57.2344 18.75 55.2812
Q16.1562 53.3281 14.6719 49.9062
Q13.1875 46.4844 12.6406 41.8906
Q12.1094 37.3125 12.1094 32.0312
Q12.1094 24.9531 12.8438 20
Q13.5781 15.0469 15.1562 11.9219
Q16.75 8.79688 19.2188 7.375
Q21.6875 5.95312 25.2031 5.95312
Q27.9375 5.95312 30 6.82812
Q32.0781 7.71875 33.5625 9.34375
Q35.0625 10.9844 36.0312 13.2812
Q37.0156 15.5781 37.5938 18.3594
Q38.1875 21.1406 38.4062 24.3906
Q38.625 27.6406 38.625 31.1562" id="Calibri-30"/>
       <path d="
M46.5781 16.2188
Q46.5781 12.1094 45.1094 8.90625
Q43.6562 5.71875 40.8906 3.51562
Q38.1406 1.3125 34.0781 0.1875
Q30.0312 -0.921875 24.8125 -0.921875
Q19.9219 -0.921875 16.0625 0.09375
Q12.2031 1.125 9.51562 3.125
Q6.84375 5.125 5.42188 8.04688
Q4 10.9844 4 14.75
Q4 17.7188 4.96875 20.2031
Q5.95312 22.7031 7.78125 24.7969
Q9.625 26.9062 12.2969 28.7344
Q14.9844 30.5625 18.3594 32.2344
Q15.4375 33.7344 13.1875 35.4219
Q10.9375 37.1094 9.375 39.0781
Q7.8125 41.0625 7 43.3125
Q6.20312 45.5625 6.20312 48.1875
Q6.20312 51.5156 7.39062 54.4219
Q8.59375 57.3281 11 59.4688
Q13.4219 61.625 17.1562 62.8594
Q20.9062 64.1094 25.875 64.1094
Q30.6719 64.1094 34.1562 62.9531
Q37.6406 61.8125 39.9062 59.8281
Q42.1875 57.8594 43.2656 55.1719
Q44.3438 52.4844 44.3438 49.4219
Q44.3438 46.9219 43.5312 44.625
Q42.7188 42.3281 41.1562 40.2812
Q39.5938 38.2344 37.3281 36.4531
Q35.0625 34.6719 32.125 33.1094
Q35.5938 31.3906 38.2969 29.5781
Q41.0156 27.7812 42.8438 25.7031
Q44.6719 23.6406 45.625 21.3125
Q46.5781 19 46.5781 16.2188
M36.0312 48.6406
Q36.0312 50.6875 35.3281 52.3438
Q34.625 54 33.25 55.1719
Q31.8906 56.3438 29.8594 56.9531
Q27.8281 57.5625 25.25 57.5625
Q19.9688 57.5625 17.25 55.1719
Q14.5469 52.7812 14.5469 48.6406
Q14.5469 46.7344 15.2031 45.0938
Q15.875 43.4531 17.2656 41.9844
Q18.6562 40.5312 20.7812 39.1406
Q22.9062 37.75 25.8281 36.2344
Q30.7656 38.7656 33.3906 41.8438
Q36.0312 44.9219 36.0312 48.6406
M38.0938 15.3281
Q38.0938 17.5781 37.25 19.4062
Q36.4219 21.2344 34.7344 22.8281
Q33.0625 24.4219 30.5469 25.9062
Q28.0312 27.3906 24.7031 29
Q21.625 27.4844 19.3125 25.9688
Q17 24.4688 15.5 22.8438
Q14.0156 21.2344 13.25 19.4531
Q12.5 17.6719 12.5 15.5312
Q12.5 10.7969 15.75 8.20312
Q19 5.60938 25.4375 5.60938
Q31.6875 5.60938 34.8906 8.21875
Q38.0938 10.8438 38.0938 15.3281" id="Calibri-38"/>
       <path d="
M17.875 5.32812
Q17.875 1.85938 16.7188 0.703125
Q15.5781 -0.4375 12.5469 -0.4375
Q9.625 -0.4375 8.5 0.6875
Q7.375 1.8125 7.375 5.17188
Q7.375 8.64062 8.51562 9.78125
Q9.67188 10.9375 12.7031 10.9375
Q15.625 10.9375 16.75 9.8125
Q17.875 8.6875 17.875 5.32812" id="Calibri-2e"/>
      </defs>
      <g transform="translate(60.7625 390.2828125)scale(0.18 -0.18)">
       <use xlink:href="#Calibri-30"/>
       <use x="50.68359375" xlink:href="#Calibri-2e"/>
       <use x="75.927734375" xlink:href="#Calibri-38"/>
      </g>
     </g>
    </g>
    <g id="xtick_2">
     <g id="line2d_4">
      <path clip-path="url(#pb7d95c4bf5)" d="
M151.664 366.04
L151.664 12.96" style="fill:none;stroke:#bfbfbf;stroke-linecap:square;stroke-width:0.5;"/>
     </g>
     <g id="line2d_5">
      <g>
       <use style="stroke:#000000;stroke-width:0.5;" x="151.663697917" xlink:href="#m741efc42ff" y="366.04"/>
      </g>
     </g>
     <g id="line2d_6">
      <g>
       <use style="stroke:#000000;stroke-width:0.5;" x="151.663697917" xlink:href="#m93b0483c22" y="12.96"/>
      </g>
     </g>
     <g id="text_2">
      <!-- 0.9 -->
      <defs>
       <path d="
M45.6094 34.0781
Q45.6094 29.9844 45.1094 25.7812
Q44.625 21.5781 43.4531 17.6875
Q42.2812 13.8125 40.2969 10.4219
Q38.3281 7.03125 35.3281 4.48438
Q32.3281 1.95312 28.2031 0.515625
Q24.0781 -0.921875 18.6094 -0.921875
Q16.5 -0.921875 14.5156 -0.65625
Q12.5469 -0.390625 10.9531 0
Q9.375 0.390625 8.29688 0.828125
Q7.23438 1.26562 6.73438 1.70312
Q6.25 2.15625 6.03125 2.90625
Q5.8125 3.65625 5.8125 4.9375
Q5.8125 6 5.875 6.64062
Q5.95312 7.28125 6.09375 7.60938
Q6.25 7.95312 6.51562 8.07812
Q6.78125 8.20312 7.17188 8.20312
Q7.71875 8.20312 8.6875 7.82812
Q9.67188 7.46875 11.1562 7.03125
Q12.6406 6.59375 14.6406 6.21875
Q16.6562 5.85938 19.1406 5.85938
Q23.875 5.85938 27.2656 7.6875
Q30.6719 9.51562 32.8125 12.5938
Q34.9688 15.6719 36.0312 19.7188
Q37.1094 23.7812 37.2031 28.2656
Q34.625 26.7656 31 25.5938
Q27.3906 24.4219 22.7031 24.4219
Q17.4375 24.4219 13.8438 25.8594
Q10.25 27.2969 8.07812 29.7812
Q5.90625 32.2812 4.95312 35.6875
Q4 39.1094 4 43.1719
Q4 47.3594 5.21875 51.1406
Q6.45312 54.9375 9.03125 57.8125
Q11.625 60.6875 15.625 62.3906
Q19.625 64.1094 25.2031 64.1094
Q29.1562 64.1094 32.2031 63.1094
Q35.25 62.1094 37.5 60.2188
Q39.75 58.3438 41.3125 55.6875
Q42.875 53.0312 43.8281 49.6562
Q44.7812 46.2969 45.1875 42.3594
Q45.6094 38.4219 45.6094 34.0781
M37.0625 35.0156
Q37.0625 41.2656 36.2344 45.5312
Q35.4062 49.8125 33.7812 52.4375
Q32.1719 55.0781 29.8281 56.25
Q27.4844 57.4219 24.4219 57.4219
Q21.2344 57.4219 18.9844 56.2656
Q16.75 55.125 15.3125 53.1875
Q13.875 51.2656 13.1875 48.8281
Q12.5 46.3906 12.5 43.7969
Q12.5 40.9219 13.1094 38.5312
Q13.7188 36.1406 15.0781 34.4688
Q16.4531 32.8125 18.6406 31.9062
Q20.8438 31 24.0781 31
Q27.7344 31 31.1562 32.0938
Q34.5781 33.2031 37.0625 35.0156" id="Calibri-39"/>
      </defs>
      <g transform="translate(141.040885417 390.2828125)scale(0.18 -0.18)">
       <use xlink:href="#Calibri-30"/>
       <use x="50.68359375" xlink:href="#Calibri-2e"/>
       <use x="75.927734375" xlink:href="#Calibri-39"/>
      </g>
     </g>
    </g>
    <g id="xtick_3">
     <g id="line2d_7">
      <path clip-path="url(#pb7d95c4bf5)" d="
M231.855 366.04
L231.855 12.96" style="fill:none;stroke:#bfbfbf;stroke-linecap:square;stroke-width:0.5;"/>
     </g>
     <g id="line2d_8">
      <g>
       <use style="stroke:#000000;stroke-width:0.5;" x="231.854895833" xlink:href="#m741efc42ff" y="366.04"/>
      </g>
     </g>
     <g id="line2d_9">
      <g>
       <use style="stroke:#000000;stroke-width:0.5;" x="231.854895833" xlink:href="#m93b0483c22" y="12.96"/>
      </g>
     </g>
     <g id="text_3">
      <!-- 1.0 -->
      <defs>
       <path d="
M45.2656 3.32812
Q45.2656 2.39062 45.1094 1.75
Q44.9688 1.125 44.7188 0.734375
Q44.4844 0.34375 44.1562 0.171875
Q43.8438 0 43.5 0
L10.5 0
Q10.1562 0 9.85938 0.171875
Q9.57812 0.34375 9.29688 0.734375
Q9.03125 1.125 8.875 1.75
Q8.73438 2.39062 8.73438 3.32812
Q8.73438 4.20312 8.875 4.82812
Q9.03125 5.46875 9.25 5.875
Q9.46875 6.29688 9.78125 6.51562
Q10.1094 6.73438 10.5 6.73438
L23.6875 6.73438
L23.6875 54.7812
L11.4688 47.5156
Q10.5469 47.0156 9.98438 46.9219
Q9.42188 46.8281 9.07812 47.1406
Q8.73438 47.4688 8.60938 48.1875
Q8.5 48.9219 8.5 50.0469
Q8.5 50.875 8.5625 51.4531
Q8.64062 52.0469 8.78125 52.4375
Q8.9375 52.8281 9.20312 53.125
Q9.46875 53.4219 9.90625 53.7188
L24.4688 63.0312
Q24.6562 63.1875 24.9531 63.2812
Q25.25 63.375 25.6875 63.4688
Q26.125 63.5781 26.7031 63.5938
Q27.2969 63.625 28.1719 63.625
Q29.3438 63.625 30.125 63.5156
Q30.9062 63.4219 31.3438 63.25
Q31.7812 63.0938 31.9219 62.8125
Q32.0781 62.5469 32.0781 62.25
L32.0781 6.73438
L43.5 6.73438
Q43.8906 6.73438 44.2344 6.51562
Q44.5781 6.29688 44.7969 5.875
Q45.0156 5.46875 45.1406 4.82812
Q45.2656 4.20312 45.2656 3.32812" id="Calibri-31"/>
      </defs>
      <g transform="translate(221.535833333 390.2828125)scale(0.18 -0.18)">
       <use xlink:href="#Calibri-31"/>
       <use x="50.68359375" xlink:href="#Calibri-2e"/>
       <use x="75.927734375" xlink:href="#Calibri-30"/>
      </g>
     </g>
    </g>
    <g id="xtick_4">
     <g id="line2d_10">
      <path clip-path="url(#pb7d95c4bf5)" d="
M312.046 366.04
L312.046 12.96" style="fill:none;stroke:#bfbfbf;stroke-linecap:square;stroke-width:0.5;"/>
     </g>
     <g id="line2d_11">
      <g>
       <use style="stroke:#000000;stroke-width:0.5;" x="312.04609375" xlink:href="#m741efc42ff" y="366.04"/>
      </g>
     </g>
     <g id="line2d_12">
      <g>
       <use style="stroke:#000000;stroke-width:0.5;" x="312.04609375" xlink:href="#m93b0483c22" y="12.96"/>
      </g>
     </g>
     <g id="text_4">
      <!-- 1.1 -->
      <g transform="translate(301.9028125 390.2828125)scale(0.18 -0.18)">
       <use xlink:href="#Calibri-31"/>
       <use x="50.68359375" xlink:href="#Calibri-2e"/>
       <use x="75.927734375" xlink:href="#Calibri-31"/>
      </g>
     </g>
    </g>
    <g id="xtick_5">
     <g id="line2d_13">
      <path clip-path="url(#pb7d95c4bf5)" d="
M392.237 366.04
L392.237 12.96" style="fill:none;stroke:#bfbfbf;stroke-linecap:square;stroke-width:0.5;"/>
     </g>
     <g id="line2d_14">
      <g>
       <use style="stroke:#000000;stroke-width:0.5;" x="392.237291667" xlink:href="#m741efc42ff" y="366.04"/>
      </g>
     </g>
     <g id="line2d_15">
      <g>
       <use style="stroke:#000000;stroke-width:0.5;" x="392.237291667" xlink:href="#m93b0483c22" y="12.96"/>
      </g>
     </g>
     <g id="text_5">
      <!-- 1.2 -->
      <defs>
       <path d="
M45.125 3.60938
Q45.125 2.73438 45 2.04688
Q44.875 1.375 44.6562 0.90625
Q44.4375 0.4375 44.0625 0.21875
Q43.7031 0 43.2656 0
L8.34375 0
Q7.67188 0 7.15625 0.171875
Q6.64062 0.34375 6.26562 0.734375
Q5.90625 1.125 5.73438 1.85938
Q5.5625 2.59375 5.5625 3.65625
Q5.5625 4.64062 5.64062 5.375
Q5.71875 6.10938 5.95312 6.67188
Q6.20312 7.23438 6.5625 7.78125
Q6.9375 8.34375 7.51562 8.98438
L19.7812 21.9688
Q24.0312 26.4688 26.5938 30.0312
Q29.1562 33.5938 30.5469 36.5156
Q31.9375 39.4531 32.375 41.8438
Q32.8125 44.2344 32.8125 46.3438
Q32.8125 48.4375 32.125 50.3125
Q31.4531 52.2031 30.1562 53.6094
Q28.8594 55.0312 26.9062 55.8594
Q24.9531 56.6875 22.4062 56.6875
Q19.4375 56.6875 17.0625 55.8594
Q14.7031 55.0312 12.9219 54.0469
Q11.1406 53.0781 9.9375 52.25
Q8.73438 51.4219 8.15625 51.4219
Q7.8125 51.4219 7.54688 51.6094
Q7.28125 51.8125 7.10938 52.25
Q6.9375 52.6875 6.82812 53.4219
Q6.73438 54.1562 6.73438 55.1719
Q6.73438 55.9062 6.78125 56.4375
Q6.84375 56.9844 6.95312 57.375
Q7.07812 57.7656 7.26562 58.1094
Q7.46875 58.4531 8.04688 58.9531
Q8.64062 59.4688 10.0781 60.3438
Q11.5312 61.2344 13.7031 62.0781
Q15.875 62.9375 18.4844 63.5156
Q21.0938 64.1094 23.9688 64.1094
Q28.5625 64.1094 32 62.8125
Q35.4531 61.5312 37.7188 59.2812
Q39.9844 57.0312 41.1094 54.0469
Q42.2344 51.0781 42.2344 47.7031
Q42.2344 44.6719 41.6875 41.6719
Q41.1562 38.6719 39.4219 35.1719
Q37.7031 31.6875 34.4219 27.4062
Q31.1562 23.1406 25.7344 17.5781
L15.7188 7.125
L43.2188 7.125
Q43.6094 7.125 43.9688 6.90625
Q44.3438 6.6875 44.6094 6.25
Q44.875 5.8125 45 5.15625
Q45.125 4.5 45.125 3.60938" id="Calibri-32"/>
      </defs>
      <g transform="translate(382.106666667 390.2828125)scale(0.18 -0.18)">
       <use xlink:href="#Calibri-31"/>
       <use x="50.68359375" xlink:href="#Calibri-2e"/>
       <use x="75.927734375" xlink:href="#Calibri-32"/>
      </g>
     </g>
    </g>
    <g id="xtick_6">
     <g id="line2d_16">
      <path clip-path="url(#pb7d95c4bf5)" d="
M472.428 366.04
L472.428 12.96" style="fill:none;stroke:#bfbfbf;stroke-linecap:square;stroke-width:0.5;"/>
     </g>
     <g id="line2d_17">
      <g>
       <use style="stroke:#000000;stroke-width:0.5;" x="472.428489583" xlink:href="#m741efc42ff" y="366.04"/>
      </g>
     </g>
     <g id="line2d_18">
      <g>
       <use style="stroke:#000000;stroke-width:0.5;" x="472.428489583" xlink:href="#m93b0483c22" y="12.96"/>
      </g>
     </g>
     <g id="text_6">
      <!-- 1.3 -->
      <defs>
       <path d="
M44.625 18.0625
Q44.625 13.7188 43.1094 10.2188
Q41.6094 6.73438 38.7656 4.25
Q35.9375 1.76562 31.7812 0.421875
Q27.6406 -0.921875 22.4062 -0.921875
Q19.2344 -0.921875 16.4688 -0.40625
Q13.7188 0.09375 11.5625 0.796875
Q9.42188 1.51562 8 2.26562
Q6.59375 3.03125 6.21875 3.375
Q5.85938 3.71875 5.65625 4.04688
Q5.46875 4.39062 5.3125 4.875
Q5.17188 5.375 5.09375 6.07812
Q5.03125 6.78125 5.03125 7.8125
Q5.03125 9.57812 5.375 10.25
Q5.71875 10.9375 6.34375 10.9375
Q6.78125 10.9375 8.07812 10.1562
Q9.375 9.375 11.3906 8.46875
Q13.4219 7.5625 16.125 6.78125
Q18.8438 6 22.1719 6
Q25.3906 6 27.8281 6.82812
Q30.2812 7.67188 31.9375 9.17188
Q33.5938 10.6875 34.4219 12.7656
Q35.25 14.8438 35.25 17.2812
Q35.25 19.9688 34.2031 22.1094
Q33.1562 24.2656 31.125 25.8281
Q29.1094 27.3906 26.1406 28.2188
Q23.1875 29.0469 19.4375 29.0469
L13.4219 29.0469
Q13.0312 29.0469 12.6719 29.2188
Q12.3125 29.3906 12.0312 29.7812
Q11.7656 30.1719 11.5938 30.8125
Q11.4219 31.4531 11.4219 32.4688
Q11.4219 33.4062 11.5625 34.0156
Q11.7188 34.625 11.9844 34.9844
Q12.25 35.3594 12.5938 35.5156
Q12.9375 35.6875 13.375 35.6875
L18.8906 35.6875
Q22.125 35.6875 24.6875 36.5156
Q27.25 37.3594 29.0312 38.9219
Q30.8125 40.4844 31.7656 42.6562
Q32.7188 44.8281 32.7188 47.5156
Q32.7188 49.4688 32.0781 51.25
Q31.4531 53.0312 30.1719 54.3438
Q28.9062 55.6719 26.9219 56.4219
Q24.9531 57.1719 22.3594 57.1719
Q19.5312 57.1719 17.1562 56.3125
Q14.7969 55.4688 12.9375 54.4844
Q11.0781 53.5156 9.85938 52.6562
Q8.64062 51.8125 8.15625 51.8125
Q7.8125 51.8125 7.54688 51.9219
Q7.28125 52.0469 7.10938 52.4062
Q6.9375 52.7812 6.85938 53.4375
Q6.78125 54.1094 6.78125 55.1719
Q6.78125 55.9062 6.82812 56.4688
Q6.89062 57.0312 7.03125 57.4375
Q7.17188 57.8594 7.35938 58.2031
Q7.5625 58.5469 8.03125 59
Q8.5 59.4688 9.90625 60.3438
Q11.3281 61.2344 13.4062 62.0781
Q15.4844 62.9375 18.1875 63.5156
Q20.9062 64.1094 24.0312 64.1094
Q28.4219 64.1094 31.7344 62.9844
Q35.0625 61.8594 37.2812 59.8125
Q39.5 57.7656 40.5938 54.9062
Q41.7031 52.0469 41.7031 48.5781
Q41.7031 45.6094 40.9219 43.0469
Q40.1406 40.4844 38.625 38.5
Q37.1094 36.5312 34.9062 35.125
Q32.7188 33.7344 29.8281 33.2031
L29.8281 33.1094
Q33.1094 32.7656 35.8125 31.4688
Q38.5312 30.1719 40.4844 28.2188
Q42.4375 26.2656 43.5312 23.6562
Q44.625 21.0469 44.625 18.0625" id="Calibri-33"/>
      </defs>
      <g transform="translate(462.342864583 390.2828125)scale(0.18 -0.18)">
       <use xlink:href="#Calibri-31"/>
       <use x="50.68359375" xlink:href="#Calibri-2e"/>
       <use x="75.927734375" xlink:href="#Calibri-33"/>
      </g>
     </g>
    </g>
    <g id="xtick_7">
     <g id="text_7">
      <!-- 1.4 -->
      <defs>
       <path d="
M47.7969 17.9688
Q47.7969 16.3594 47.3125 15.4219
Q46.8281 14.5 45.9531 14.5
L38.8125 14.5
L38.8125 1.21875
Q38.8125 0.828125 38.6094 0.5625
Q38.4219 0.296875 37.9375 0.09375
Q37.4531 -0.09375 36.6719 -0.1875
Q35.8906 -0.296875 34.6719 -0.296875
Q33.5 -0.296875 32.7188 -0.1875
Q31.9375 -0.09375 31.4688 0.09375
Q31 0.296875 30.8281 0.5625
Q30.6719 0.828125 30.6719 1.21875
L30.6719 14.5
L4.59375 14.5
Q4 14.5 3.60938 14.6406
Q3.21875 14.7969 2.90625 15.1875
Q2.59375 15.5781 2.46875 16.3125
Q2.34375 17.0469 2.34375 18.2188
Q2.34375 19.1406 2.39062 19.875
Q2.4375 20.6094 2.57812 21.2188
Q2.73438 21.8281 2.96875 22.3906
Q3.21875 22.9531 3.5625 23.5781
L26.3125 61.9688
Q26.5625 62.3594 27.0156 62.6406
Q27.4844 62.9375 28.2188 63.125
Q28.9531 63.3281 30.0312 63.4062
Q31.1094 63.4844 32.5625 63.4844
Q34.1875 63.4844 35.375 63.3594
Q36.5781 63.2344 37.2969 63.0312
Q38.0312 62.8438 38.4219 62.5156
Q38.8125 62.2031 38.8125 61.7656
L38.8125 21.4375
L45.9531 21.4375
Q46.7812 21.4375 47.2812 20.5781
Q47.7969 19.7344 47.7969 17.9688
M30.6719 56.1094
L30.5625 56.1094
L10.0156 21.4375
L30.6719 21.4375
z
" id="Calibri-34"/>
      </defs>
      <g transform="translate(542.24859375 390.2828125)scale(0.18 -0.18)">
       <use xlink:href="#Calibri-31"/>
       <use x="50.68359375" xlink:href="#Calibri-2e"/>
       <use x="75.927734375" xlink:href="#Calibri-34"/>
      </g>
     </g>
    </g>
    <g id="xtick_8">
     <g id="line2d_19">
      <defs>
       <path d="
M0 0
L0 2" id="m5284c7e2a0" style="stroke:#000000;stroke-width:0.5;"/>
      </defs>
      <g>
       <use style="stroke:#000000;stroke-width:0.5;" x="87.5107395833" xlink:href="#m5284c7e2a0" y="366.04"/>
      </g>
     </g>
     <g id="line2d_20">
      <defs>
       <path d="
M0 0
L0 -2" id="m177f7580d0" style="stroke:#000000;stroke-width:0.5;"/>
      </defs>
      <g>
       <use style="stroke:#000000;stroke-width:0.5;" x="87.5107395833" xlink:href="#m177f7580d0" y="12.96"/>
      </g>
     </g>
    </g>
    <g id="xtick_9">
     <g id="line2d_21">
      <g>
       <use style="stroke:#000000;stroke-width:0.5;" x="103.548979167" xlink:href="#m5284c7e2a0" y="366.04"/>
      </g>
     </g>
     <g id="line2d_22">
      <g>
       <use style="stroke:#000000;stroke-width:0.5;" x="103.548979167" xlink:href="#m177f7580d0" y="12.96"/>
      </g>
     </g>
    </g>
    <g id="xtick_10">
     <g id="line2d_23">
      <g>
       <use style="stroke:#000000;stroke-width:0.5;" x="119.58721875" xlink:href="#m5284c7e2a0" y="366.04"/>
      </g>
     </g>
     <g id="line2d_24">
      <g>
       <use style="stroke:#000000;stroke-width:0.5;" x="119.58721875" xlink:href="#m177f7580d0" y="12.96"/>
      </g>
     </g>
    </g>
    <g id="xtick_11">
     <g id="line2d_25">
      <g>
       <use style="stroke:#000000;stroke-width:0.5;" x="135.625458333" xlink:href="#m5284c7e2a0" y="366.04"/>
      </g>
     </g>
     <g id="line2d_26">
      <g>
       <use style="stroke:#000000;stroke-width:0.5;" x="135.625458333" xlink:href="#m177f7580d0" y="12.96"/>
      </g>
     </g>
    </g>
    <g id="xtick_12">
     <g id="line2d_27">
      <g>
       <use style="stroke:#000000;stroke-width:0.5;" x="167.7019375" xlink:href="#m5284c7e2a0" y="366.04"/>
      </g>
     </g>
     <g id="line2d_28">
      <g>
       <use style="stroke:#000000;stroke-width:0.5;" x="167.7019375" xlink:href="#m177f7580d0" y="12.96"/>
      </g>
     </g>
    </g>
    <g id="xtick_13">
     <g id="line2d_29">
      <g>
       <use style="stroke:#000000;stroke-width:0.5;" x="183.740177083" xlink:href="#m5284c7e2a0" y="366.04"/>
      </g>
     </g>
     <g id="line2d_30">
      <g>
       <use style="stroke:#000000;stroke-width:0.5;" x="183.740177083" xlink:href="#m177f7580d0" y="12.96"/>
      </g>
     </g>
    </g>
    <g id="xtick_14">
     <g id="line2d_31">
      <g>
       <use style="stroke:#000000;stroke-width:0.5;" x="199.778416667" xlink:href="#m5284c7e2a0" y="366.04"/>
      </g>
     </g>
     <g id="line2d_32">
      <g>
       <use style="stroke:#000000;stroke-width:0.5;" x="199.778416667" xlink:href="#m177f7580d0" y="12.96"/>
      </g>
     </g>
    </g>
    <g id="xtick_15">
     <g id="line2d_33">
      <g>
       <use style="stroke:#000000;stroke-width:0.5;" x="215.81665625" xlink:href="#m5284c7e2a0" y="366.04"/>
      </g>
     </g>
     <g id="line2d_34">
      <g>
       <use style="stroke:#000000;stroke-width:0.5;" x="215.81665625" xlink:href="#m177f7580d0" y="12.96"/>
      </g>
     </g>
    </g>
    <g id="xtick_16">
     <g id="line2d_35">
      <g>
       <use style="stroke:#000000;stroke-width:0.5;" x="247.893135417" xlink:href="#m5284c7e2a0" y="366.04"/>
      </g>
     </g>
     <g id="line2d_36">
      <g>
       <use style="stroke:#000000;stroke-width:0.5;" x="247.893135417" xlink:href="#m177f7580d0" y="12.96"/>
      </g>
     </g>
    </g>
    <g id="xtick_17">
     <g id="line2d_37">
      <g>
       <use style="stroke:#000000;stroke-width:0.5;" x="263.931375" xlink:href="#m5284c7e2a0" y="366.04"/>
      </g>
     </g>
     <g id="line2d_38">
      <g>
       <use style="stroke:#000000;stroke-width:0.5;" x="263.931375" xlink:href="#m177f7580d0" y="12.96"/>
      </g>
     </g>
    </g>
    <g id="xtick_18">
     <g id="line2d_39">
      <g>
       <use style="stroke:#000000;stroke-width:0.5;" x="279.969614583" xlink:href="#m5284c7e2a0" y="366.04"/>
      </g>
     </g>
     <g id="line2d_40">
      <g>
       <use style="stroke:#000000;stroke-width:0.5;" x="279.969614583" xlink:href="#m177f7580d0" y="12.96"/>
      </g>
     </g>
    </g>
    <g id="xtick_19">
     <g id="line2d_41">
      <g>
       <use style="stroke:#000000;stroke-width:0.5;" x="296.007854167" xlink:href="#m5284c7e2a0" y="366.04"/>
      </g>
     </g>
     <g id="line2d_42">
      <g>
       <use style="stroke:#000000;stroke-width:0.5;" x="296.007854167" xlink:href="#m177f7580d0" y="12.96"/>
      </g>
     </g>
    </g>
    <g id="xtick_20">
     <g id="line2d_43">
      <g>
       <use style="stroke:#000000;stroke-width:0.5;" x="328.084333333" xlink:href="#m5284c7e2a0" y="366.04"/>
      </g>
     </g>
     <g id="line2d_44">
      <g>
       <use style="stroke:#000000;stroke-width:0.5;" x="328.084333333" xlink:href="#m177f7580d0" y="12.96"/>
      </g>
     </g>
    </g>
    <g id="xtick_21">
     <g id="line2d_45">
      <g>
       <use style="stroke:#000000;stroke-width:0.5;" x="344.122572917" xlink:href="#m5284c7e2a0" y="366.04"/>
      </g>
     </g>
     <g id="line2d_46">
      <g>
       <use style="stroke:#000000;stroke-width:0.5;" x="344.122572917" xlink:href="#m177f7580d0" y="12.96"/>
      </g>
     </g>
    </g>
    <g id="xtick_22">
     <g id="line2d_47">
      <g>
       <use style="stroke:#000000;stroke-width:0.5;" x="360.1608125" xlink:href="#m5284c7e2a0" y="366.04"/>
      </g>
     </g>
     <g id="line2d_48">
      <g>
       <use style="stroke:#000000;stroke-width:0.5;" x="360.1608125" xlink:href="#m177f7580d0" y="12.96"/>
      </g>
     </g>
    </g>
    <g id="xtick_23">
     <g id="line2d_49">
      <g>
       <use style="stroke:#000000;stroke-width:0.5;" x="376.199052083" xlink:href="#m5284c7e2a0" y="366.04"/>
      </g>
     </g>
     <g id="line2d_50">
      <g>
       <use style="stroke:#000000;stroke-width:0.5;" x="376.199052083" xlink:href="#m177f7580d0" y="12.96"/>
      </g>
     </g>
    </g>
    <g id="xtick_24">
     <g id="line2d_51">
      <g>
       <use style="stroke:#000000;stroke-width:0.5;" x="408.27553125" xlink:href="#m5284c7e2a0" y="366.04"/>
      </g>
     </g>
     <g id="line2d_52">
      <g>
       <use style="stroke:#000000;stroke-width:0.5;" x="408.27553125" xlink:href="#m177f7580d0" y="12.96"/>
      </g>
     </g>
    </g>
    <g id="xtick_25">
     <g id="line2d_53">
      <g>
       <use style="stroke:#000000;stroke-width:0.5;" x="424.313770833" xlink:href="#m5284c7e2a0" y="366.04"/>
      </g>
     </g>
     <g id="line2d_54">
      <g>
       <use style="stroke:#000000;stroke-width:0.5;" x="424.313770833" xlink:href="#m177f7580d0" y="12.96"/>
      </g>
     </g>
    </g>
    <g id="xtick_26">
     <g id="line2d_55">
      <g>
       <use style="stroke:#000000;stroke-width:0.5;" x="440.352010417" xlink:href="#m5284c7e2a0" y="366.04"/>
      </g>
     </g>
     <g id="line2d_56">
      <g>
       <use style="stroke:#000000;stroke-width:0.5;" x="440.352010417" xlink:href="#m177f7580d0" y="12.96"/>
      </g>
     </g>
    </g>
    <g id="xtick_27">
     <g id="line2d_57">
      <g>
       <use style="stroke:#000000;stroke-width:0.5;" x="456.39025" xlink:href="#m5284c7e2a0" y="366.04"/>
      </g>
     </g>
     <g id="line2d_58">
      <g>
       <use style="stroke:#000000;stroke-width:0.5;" x="456.39025" xlink:href="#m177f7580d0" y="12.96"/>
      </g>
     </g>
    </g>
    <g id="xtick_28">
     <g id="line2d_59">
      <g>
       <use style="stroke:#000000;stroke-width:0.5;" x="488.466729167" xlink:href="#m5284c7e2a0" y="366.04"/>
      </g>
     </g>
     <g id="line2d_60">
      <g>
       <use style="stroke:#000000;stroke-width:0.5;" x="488.466729167" xlink:href="#m177f7580d0" y="12.96"/>
      </g>
     </g>
    </g>
    <g id="xtick_29">
     <g id="line2d_61">
      <g>
       <use style="stroke:#000000;stroke-width:0.5;" x="504.50496875" xlink:href="#m5284c7e2a0" y="366.04"/>
      </g>
     </g>
     <g id="line2d_62">
      <g>
       <use style="stroke:#000000;stroke-width:0.5;" x="504.50496875" xlink:href="#m177f7580d0" y="12.96"/>
      </g>
     </g>
    </g>
    <g id="xtick_30">
     <g id="line2d_63">
      <g>
       <use style="stroke:#000000;stroke-width:0.5;" x="520.543208333" xlink:href="#m5284c7e2a0" y="366.04"/>
      </g>
     </g>
     <g id="line2d_64">
      <g>
       <use style="stroke:#000000;stroke-width:0.5;" x="520.543208333" xlink:href="#m177f7580d0" y="12.96"/>
      </g>
     </g>
    </g>
    <g id="xtick_31">
     <g id="line2d_65">
      <g>
       <use style="stroke:#000000;stroke-width:0.5;" x="536.581447917" xlink:href="#m5284c7e2a0" y="366.04"/>
      </g>
     </g>
     <g id="line2d_66">
      <g>
       <use style="stroke:#000000;stroke-width:0.5;" x="536.581447917" xlink:href="#m177f7580d0" y="12.96"/>
      </g>
     </g>
    </g>
    <g id="text_8">
     <!-- Normalised solar constant, $Q/Q_0$ -->
     <defs>
      <path d="
M30.3281 4.4375
Q30.3281 3.03125 30.125 2.20312
Q29.9375 1.375 29.5469 0.984375
Q29.1562 0.59375 28.375 0.25
Q27.5938 -0.09375 26.5938 -0.3125
Q25.5938 -0.53125 24.4688 -0.671875
Q23.3438 -0.828125 22.2188 -0.828125
Q18.7969 -0.828125 16.3594 0.078125
Q13.9219 0.984375 12.3594 2.8125
Q10.7969 4.64062 10.0781 7.4375
Q9.375 10.25 9.375 14.0625
L9.375 39.75
L3.21875 39.75
Q2.48438 39.75 2.04688 40.5312
Q1.60938 41.3125 1.60938 43.0625
Q1.60938 44 1.73438 44.625
Q1.85938 45.2656 2.04688 45.6719
Q2.25 46.0938 2.5625 46.2656
Q2.875 46.4375 3.26562 46.4375
L9.375 46.4375
L9.375 56.8906
Q9.375 57.2344 9.54688 57.5156
Q9.71875 57.8125 10.1719 58.0312
Q10.6406 58.25 11.4219 58.3438
Q12.2031 58.4531 13.375 58.4531
Q14.5938 58.4531 15.375 58.3438
Q16.1562 58.25 16.5938 58.0312
Q17.0469 57.8125 17.2344 57.5156
Q17.4375 57.2344 17.4375 56.8906
L17.4375 46.4375
L28.7188 46.4375
Q29.1094 46.4375 29.3906 46.2656
Q29.6875 46.0938 29.9062 45.6719
Q30.125 45.2656 30.2188 44.625
Q30.3281 44 30.3281 43.0625
Q30.3281 41.3125 29.875 40.5312
Q29.4375 39.75 28.7188 39.75
L17.4375 39.75
L17.4375 15.2344
Q17.4375 10.6875 18.7812 8.375
Q20.125 6.0625 23.5781 6.0625
Q24.7031 6.0625 25.5781 6.28125
Q26.4688 6.5 27.1406 6.73438
Q27.8281 6.98438 28.3125 7.20312
Q28.8125 7.42188 29.2031 7.42188
Q29.4375 7.42188 29.6562 7.29688
Q29.8906 7.17188 30 6.82812
Q30.125 6.5 30.2188 5.90625
Q30.3281 5.32812 30.3281 4.4375" id="Calibri-74"/>
      <path d="
M8.20312 -11.7656
Q8.01562 -12.4062 7.6875 -12.7656
Q7.375 -13.1406 6.875 -13.3281
Q6.39062 -13.5312 5.6875 -13.625
Q4.98438 -13.7188 3.95312 -13.7188
Q2.73438 -13.7188 1.92188 -13.5469
Q1.125 -13.375 0.6875 -13.0625
Q0.25 -12.75 0.140625 -12.2812
Q0.046875 -11.8125 0.34375 -11.1875
L29.8906 69.8281
Q30.0781 70.4531 30.3906 70.8125
Q30.7188 71.1875 31.1719 71.4062
Q31.6406 71.625 32.375 71.7031
Q33.1094 71.7812 34.125 71.7812
Q35.3594 71.7812 36.1406 71.6094
Q36.9219 71.4375 37.3594 71.1406
Q37.7969 70.8438 37.8906 70.3594
Q37.9844 69.875 37.75 69.2344
z
" id="Calibri-2f"/>
      <path d="
M18.1094 6.98438
Q18.1094 5.46875 17.9688 4.20312
Q17.8281 2.9375 17.4844 1.8125
Q17.1406 0.6875 16.5781 -0.40625
Q16.0156 -1.51562 15.1875 -2.73438
L8.5 -12.7969
Q8.25 -13.1406 7.9375 -13.375
Q7.625 -13.625 7.15625 -13.8125
Q6.6875 -14.0156 6.07812 -14.0781
Q5.46875 -14.1562 4.54688 -14.1562
Q3.71875 -14.1562 3.15625 -14.0781
Q2.59375 -14.0156 2.34375 -13.8438
Q2.09375 -13.6719 2.0625 -13.375
Q2.04688 -13.0938 2.25 -12.7031
L8.73438 0.734375
L8.73438 6.98438
Q8.73438 8.29688 9 9.07812
Q9.28125 9.85938 9.85938 10.25
Q10.4531 10.6406 11.3281 10.7812
Q12.2031 10.9375 13.4844 10.9375
Q14.7031 10.9375 15.5781 10.7812
Q16.4531 10.6406 17.0156 10.25
Q17.5781 9.85938 17.8438 9.07812
Q18.1094 8.29688 18.1094 6.98438" id="Calibri-2c"/>
      <path d="
M33.1562 42.2812
Q33.1562 41.2188 33.1094 40.4844
Q33.0625 39.75 32.9062 39.3281
Q32.7656 38.9219 32.5469 38.7031
Q32.3281 38.4844 31.9375 38.4844
Q31.5469 38.4844 30.9844 38.7031
Q30.4219 38.9219 29.7031 39.1406
Q29 39.3594 28.125 39.5469
Q27.25 39.75 26.2188 39.75
Q25 39.75 23.8281 39.25
Q22.6562 38.7656 21.3594 37.6406
Q20.0625 36.5312 18.6406 34.6719
Q17.2344 32.8125 15.5312 30.125
L15.5312 1.21875
Q15.5312 0.828125 15.3281 0.5625
Q15.1406 0.296875 14.7031 0.09375
Q14.2656 -0.09375 13.4844 -0.1875
Q12.7031 -0.296875 11.4688 -0.296875
Q10.2969 -0.296875 9.51562 -0.1875
Q8.73438 -0.09375 8.26562 0.09375
Q7.8125 0.296875 7.64062 0.5625
Q7.46875 0.828125 7.46875 1.21875
L7.46875 45.1719
Q7.46875 45.5625 7.60938 45.8281
Q7.76562 46.0938 8.20312 46.3125
Q8.64062 46.5312 9.32812 46.6094
Q10.0156 46.6875 11.1406 46.6875
Q12.2031 46.6875 12.9062 46.6094
Q13.625 46.5312 14.0156 46.3125
Q14.4062 46.0938 14.5781 45.8281
Q14.75 45.5625 14.75 45.1719
L14.75 38.7656
Q16.5469 41.4062 18.1406 43.0625
Q19.7344 44.7344 21.1406 45.6719
Q22.5625 46.625 23.9531 46.9844
Q25.3438 47.3594 26.7656 47.3594
Q27.3906 47.3594 28.1875 47.2812
Q29 47.2188 29.875 47.0156
Q30.7656 46.8281 31.4688 46.5781
Q32.1719 46.3438 32.4688 46.0938
Q32.7656 45.8438 32.8594 45.625
Q32.9531 45.4062 33.0312 45.0625
Q33.1094 44.7344 33.125 44.0625
Q33.1562 43.4062 33.1562 42.2812" id="Calibri-72"/>
      <path d="
M35.0625 13.1875
Q35.0625 9.8125 33.8125 7.17188
Q32.5625 4.54688 30.2656 2.73438
Q27.9844 0.921875 24.7969 0
Q21.625 -0.921875 17.8281 -0.921875
Q15.4844 -0.921875 13.3594 -0.5625
Q11.2344 -0.203125 9.54688 0.359375
Q7.85938 0.921875 6.6875 1.53125
Q5.51562 2.15625 4.96875 2.64062
Q4.4375 3.125 4.1875 4
Q3.95312 4.89062 3.95312 6.39062
Q3.95312 7.32812 4.04688 7.95312
Q4.15625 8.59375 4.29688 8.98438
Q4.4375 9.375 4.70312 9.54688
Q4.98438 9.71875 5.32812 9.71875
Q5.85938 9.71875 6.90625 9.0625
Q7.95312 8.40625 9.48438 7.625
Q11.0312 6.84375 13.125 6.17188
Q15.2344 5.51562 17.9688 5.51562
Q20.0156 5.51562 21.6719 5.95312
Q23.3438 6.39062 24.5625 7.25
Q25.7812 8.10938 26.4375 9.42188
Q27.0938 10.75 27.0938 12.5469
Q27.0938 14.4062 26.1406 15.6719
Q25.2031 16.9375 23.6406 17.9062
Q22.0781 18.8906 20.125 19.6406
Q18.1719 20.4062 16.0938 21.2344
Q14.0156 22.0781 12.0312 23.125
Q10.0625 24.1719 8.5 25.6875
Q6.9375 27.2031 5.98438 29.2969
Q5.03125 31.3906 5.03125 34.3281
Q5.03125 36.9219 6.03125 39.2812
Q7.03125 41.6562 9.03125 43.4375
Q11.0312 45.2188 14.0312 46.2812
Q17.0469 47.3594 21.0469 47.3594
Q22.7969 47.3594 24.5469 47.0625
Q26.3125 46.7812 27.7344 46.3438
Q29.1562 45.9062 30.1562 45.3906
Q31.1562 44.875 31.6562 44.4844
Q32.1719 44.0938 32.3438 43.7969
Q32.5156 43.5 32.5938 43.1406
Q32.6719 42.7812 32.7344 42.2344
Q32.8125 41.7031 32.8125 40.9219
Q32.8125 40.0938 32.7344 39.4844
Q32.6719 38.875 32.5 38.4844
Q32.3281 38.0938 32.0781 37.9219
Q31.8438 37.75 31.5469 37.75
Q31.1094 37.75 30.2656 38.2812
Q29.4375 38.8125 28.125 39.4219
Q26.8125 40.0469 25.0312 40.5781
Q23.25 41.1094 20.9531 41.1094
Q18.8906 41.1094 17.3281 40.6406
Q15.7656 40.1875 14.7656 39.3281
Q13.7656 38.4844 13.25 37.3125
Q12.75 36.1406 12.75 34.7656
Q12.75 32.8594 13.7188 31.5625
Q14.7031 30.2812 16.2656 29.2969
Q17.8281 28.3281 19.8281 27.5469
Q21.8281 26.7656 23.9062 25.9219
Q25.9844 25.0938 28 24.0625
Q30.0312 23.0469 31.5938 21.5781
Q33.1562 20.125 34.1094 18.0625
Q35.0625 16.0156 35.0625 13.1875" id="Calibri-73"/>
      <path d="
M15.5312 1.21875
Q15.5312 0.828125 15.3281 0.5625
Q15.1406 0.296875 14.7031 0.09375
Q14.2656 -0.09375 13.4844 -0.1875
Q12.7031 -0.296875 11.4688 -0.296875
Q10.2969 -0.296875 9.51562 -0.1875
Q8.73438 -0.09375 8.26562 0.09375
Q7.8125 0.296875 7.64062 0.5625
Q7.46875 0.828125 7.46875 1.21875
L7.46875 66.4531
Q7.46875 66.8438 7.64062 67.1406
Q7.8125 67.4375 8.26562 67.625
Q8.73438 67.8281 9.51562 67.9219
Q10.2969 68.0156 11.4688 68.0156
Q12.7031 68.0156 13.4844 67.9219
Q14.2656 67.8281 14.7031 67.625
Q15.1406 67.4375 15.3281 67.1406
Q15.5312 66.8438 15.5312 66.4531
z
" id="Calibri-6c"/>
      <path d="
M62.9375 -3.60938
Q62.9375 -4 62.8594 -4.57812
Q62.7969 -5.17188 62.6406 -5.8125
Q62.5 -6.45312 62.2812 -7.0625
Q62.0625 -7.67188 61.7656 -8.15625
Q61.4688 -8.64062 61.125 -8.9375
Q60.7969 -9.23438 60.3594 -9.23438
Q59.9688 -9.23438 58.9844 -8.9375
Q58.0156 -8.64062 56.6719 -8.04688
Q55.3281 -7.46875 53.6406 -6.51562
Q51.9531 -5.5625 50.125 -4.25
Q48.2969 -2.9375 46.4375 -1.26562
Q44.5781 0.390625 42.7812 2.4375
Q39.75 0.78125 36.1094 -0.0625
Q32.4688 -0.921875 27.9375 -0.921875
Q22.3594 -0.921875 18.1875 0.46875
Q14.0156 1.85938 11.2031 4.60938
Q8.40625 7.375 6.98438 11.4219
Q5.5625 15.4844 5.5625 20.7969
Q5.5625 25 6.26562 29.8281
Q6.98438 34.6719 8.67188 39.4688
Q10.3594 44.2812 13.0625 48.7188
Q15.7656 53.1719 19.7031 56.6094
Q23.6406 60.0625 28.9062 62.0781
Q34.1875 64.1094 41.0156 64.1094
Q46.5312 64.1094 50.7031 62.6719
Q54.8906 61.2344 57.6875 58.4219
Q60.5 55.6094 61.9062 51.4844
Q63.3281 47.3594 63.3281 42
Q63.3281 39.5469 63.0625 36.6094
Q62.7969 33.6875 62.125 30.5781
Q61.4688 27.4844 60.3906 24.2656
Q59.3281 21.0469 57.8125 17.9375
Q56.2969 14.8438 54.2188 12.0156
Q52.1562 9.1875 49.4219 6.6875
Q52.1562 4.04688 54.375 2.48438
Q56.5938 0.921875 58.2812 0.046875
Q59.9688 -0.828125 61.0156 -1.26562
Q62.0625 -1.70312 62.375 -2
Q62.7031 -2.29688 62.8125 -2.60938
Q62.9375 -2.9375 62.9375 -3.60938
M54.3438 41.4062
Q54.3438 44.8281 53.5625 47.6719
Q52.7812 50.5312 51.0625 52.5781
Q49.3594 54.6406 46.5469 55.7812
Q43.75 56.9375 39.7031 56.9375
Q34.625 56.9375 30.7812 55.0469
Q26.9531 53.1719 24.1719 50.1406
Q21.3906 47.125 19.5312 43.2812
Q17.6719 39.4531 16.5781 35.5469
Q15.4844 31.6406 15.0156 27.9688
Q14.5469 24.3125 14.5469 21.625
Q14.5469 18.1719 15.2969 15.3594
Q16.0625 12.5469 17.8125 10.5469
Q19.5781 8.54688 22.4062 7.4375
Q25.25 6.34375 29.2969 6.34375
Q34.2812 6.34375 38.0781 8.17188
Q41.8906 10.0156 44.6719 12.9844
Q47.4688 15.9688 49.3438 19.75
Q51.2188 23.5312 52.3125 27.4062
Q53.4219 31.2969 53.875 34.9531
Q54.3438 38.625 54.3438 41.4062" id="Calibri-Italic-51"/>
      <path d="
M48.3438 23.6875
Q48.3438 18.3125 46.9219 13.7969
Q45.5156 9.28125 42.7031 6
Q39.8906 2.73438 35.6719 0.90625
Q31.4531 -0.921875 25.875 -0.921875
Q20.4531 -0.921875 16.4219 0.6875
Q12.4062 2.29688 9.71875 5.375
Q7.03125 8.45312 5.70312 12.8438
Q4.39062 17.2344 4.39062 22.7969
Q4.39062 28.1719 5.78125 32.6875
Q7.17188 37.2031 9.98438 40.4688
Q12.7969 43.75 16.9844 45.5469
Q21.1875 47.3594 26.8125 47.3594
Q32.2344 47.3594 36.25 45.75
Q40.2812 44.1406 42.9688 41.0625
Q45.6562 37.9844 47 33.5938
Q48.3438 29.2031 48.3438 23.6875
M39.8438 23.1406
Q39.8438 26.7031 39.1875 29.875
Q38.5312 33.0625 37.0156 35.4531
Q35.5 37.8438 32.9062 39.2344
Q30.3281 40.625 26.4688 40.625
Q22.9062 40.625 20.3438 39.3594
Q17.7812 38.0938 16.1094 35.7656
Q14.4531 33.4531 13.6406 30.2656
Q12.8438 27.0938 12.8438 23.3438
Q12.8438 19.7344 13.5 16.5469
Q14.1562 13.375 15.6875 11
Q17.2344 8.64062 19.8125 7.25
Q22.4062 5.85938 26.2656 5.85938
Q29.7812 5.85938 32.375 7.125
Q34.9688 8.40625 36.625 10.6875
Q38.2812 12.9844 39.0625 16.1562
Q39.8438 19.3438 39.8438 23.1406" id="Calibri-6f"/>
      <path d="
M45.3125 1.21875
Q45.3125 0.828125 45.1094 0.5625
Q44.9219 0.296875 44.4844 0.09375
Q44.0469 -0.09375 43.2656 -0.1875
Q42.4844 -0.296875 41.3125 -0.296875
Q40.0938 -0.296875 39.3125 -0.1875
Q38.5312 -0.09375 38.0781 0.09375
Q37.6406 0.296875 37.4375 0.5625
Q37.25 0.828125 37.25 1.21875
L37.25 26.9531
Q37.25 30.7188 36.6562 33
Q36.0781 35.2969 34.9531 36.9531
Q33.8438 38.625 32.0625 39.5
Q30.2812 40.375 27.9375 40.375
Q24.9062 40.375 21.875 38.2188
Q18.8438 36.0781 15.5312 31.9375
L15.5312 1.21875
Q15.5312 0.828125 15.3281 0.5625
Q15.1406 0.296875 14.7031 0.09375
Q14.2656 -0.09375 13.4844 -0.1875
Q12.7031 -0.296875 11.4688 -0.296875
Q10.2969 -0.296875 9.51562 -0.1875
Q8.73438 -0.09375 8.26562 0.09375
Q7.8125 0.296875 7.64062 0.5625
Q7.46875 0.828125 7.46875 1.21875
L7.46875 45.1719
Q7.46875 45.5625 7.60938 45.8281
Q7.76562 46.0938 8.20312 46.3125
Q8.64062 46.5312 9.32812 46.6094
Q10.0156 46.6875 11.1406 46.6875
Q12.2031 46.6875 12.9062 46.6094
Q13.625 46.5312 14.0156 46.3125
Q14.4062 46.0938 14.5781 45.8281
Q14.75 45.5625 14.75 45.1719
L14.75 39.3594
Q18.4531 43.5 22.1406 45.4219
Q25.8281 47.3594 29.5938 47.3594
Q33.9844 47.3594 36.9844 45.875
Q39.9844 44.3906 41.8438 41.8906
Q43.7031 39.4062 44.5 36.0625
Q45.3125 32.7188 45.3125 28.0312
z
" id="Calibri-6e"/>
      <path d="
M72.6562 1.21875
Q72.6562 0.828125 72.4531 0.5625
Q72.2656 0.296875 71.8281 0.09375
Q71.3906 -0.09375 70.6094 -0.1875
Q69.8281 -0.296875 68.6562 -0.296875
Q67.4375 -0.296875 66.6562 -0.1875
Q65.875 -0.09375 65.4062 0.09375
Q64.9375 0.296875 64.7344 0.5625
Q64.5469 0.828125 64.5469 1.21875
L64.5469 27.9375
Q64.5469 30.7188 64.0625 33
Q63.5781 35.2969 62.5 36.9531
Q61.4219 38.625 59.7656 39.5
Q58.1094 40.375 55.8594 40.375
Q53.0781 40.375 50.2656 38.2188
Q47.4688 36.0781 44.0938 31.9375
L44.0938 1.21875
Q44.0938 0.828125 43.8906 0.5625
Q43.7031 0.296875 43.2344 0.09375
Q42.7812 -0.09375 42 -0.1875
Q41.2188 -0.296875 40.0469 -0.296875
Q38.9219 -0.296875 38.1094 -0.1875
Q37.3125 -0.09375 36.8438 0.09375
Q36.375 0.296875 36.2031 0.5625
Q36.0312 0.828125 36.0312 1.21875
L36.0312 27.9375
Q36.0312 30.7188 35.5 33
Q34.9688 35.2969 33.8906 36.9531
Q32.8125 38.625 31.1719 39.5
Q29.5469 40.375 27.2969 40.375
Q24.5156 40.375 21.6719 38.2188
Q18.8438 36.0781 15.5312 31.9375
L15.5312 1.21875
Q15.5312 0.828125 15.3281 0.5625
Q15.1406 0.296875 14.7031 0.09375
Q14.2656 -0.09375 13.4844 -0.1875
Q12.7031 -0.296875 11.4688 -0.296875
Q10.2969 -0.296875 9.51562 -0.1875
Q8.73438 -0.09375 8.26562 0.09375
Q7.8125 0.296875 7.64062 0.5625
Q7.46875 0.828125 7.46875 1.21875
L7.46875 45.1719
Q7.46875 45.5625 7.60938 45.8281
Q7.76562 46.0938 8.20312 46.3125
Q8.64062 46.5312 9.32812 46.6094
Q10.0156 46.6875 11.1406 46.6875
Q12.2031 46.6875 12.9062 46.6094
Q13.625 46.5312 14.0156 46.3125
Q14.4062 46.0938 14.5781 45.8281
Q14.75 45.5625 14.75 45.1719
L14.75 39.3594
Q18.4531 43.5 21.9375 45.4219
Q25.4375 47.3594 29 47.3594
Q31.7344 47.3594 33.9062 46.7188
Q36.0781 46.0938 37.7344 44.9375
Q39.4062 43.7969 40.5781 42.2031
Q41.75 40.625 42.5312 38.6719
Q44.7344 41.0625 46.7031 42.7188
Q48.6875 44.3906 50.5156 45.4062
Q52.3438 46.4375 54.0781 46.8906
Q55.8125 47.3594 57.5625 47.3594
Q61.8125 47.3594 64.6875 45.875
Q67.5781 44.3906 69.3594 41.8906
Q71.1406 39.4062 71.8906 36.0625
Q72.6562 32.7188 72.6562 29
z
" id="Calibri-6d"/>
      <path d="
M15.5312 1.21875
Q15.5312 0.828125 15.3281 0.5625
Q15.1406 0.296875 14.7031 0.09375
Q14.2656 -0.09375 13.4844 -0.1875
Q12.7031 -0.296875 11.4688 -0.296875
Q10.2969 -0.296875 9.51562 -0.1875
Q8.73438 -0.09375 8.26562 0.09375
Q7.8125 0.296875 7.64062 0.5625
Q7.46875 0.828125 7.46875 1.21875
L7.46875 45.1719
Q7.46875 45.5156 7.64062 45.7969
Q7.8125 46.0938 8.26562 46.2812
Q8.73438 46.4844 9.51562 46.5781
Q10.2969 46.6875 11.4688 46.6875
Q12.7031 46.6875 13.4844 46.5781
Q14.2656 46.4844 14.7031 46.2812
Q15.1406 46.0938 15.3281 45.7969
Q15.5312 45.5156 15.5312 45.1719
z

M16.4531 60.0156
Q16.4531 57.1719 15.375 56.1406
Q14.3125 55.125 11.4219 55.125
Q8.59375 55.125 7.54688 56.125
Q6.5 57.125 6.5 59.9062
Q6.5 62.75 7.5625 63.7656
Q8.64062 64.7969 11.5312 64.7969
Q14.3594 64.7969 15.4062 63.7969
Q16.4531 62.7969 16.4531 60.0156" id="Calibri-69"/>
      <path d="
M56.1562 3.46875
Q56.1562 2.48438 55.8281 1.79688
Q55.5156 1.125 55 0.6875
Q54.5 0.25 53.8594 0.046875
Q53.2188 -0.140625 52.5938 -0.140625
L49.9062 -0.140625
Q48.6406 -0.140625 47.6875 0.125
Q46.7344 0.390625 45.875 1.09375
Q45.0156 1.8125 44.1562 3.03125
Q43.3125 4.25 42.2812 6.15625
L22.3594 42.0938
Q20.7969 44.875 19.2031 47.9219
Q17.625 50.9844 16.2656 53.8594
L16.1562 53.8594
Q16.2656 50.3438 16.3125 46.6719
Q16.3594 43.0156 16.3594 39.4062
L16.3594 1.26562
Q16.3594 0.921875 16.1562 0.609375
Q15.9688 0.296875 15.5 0.125
Q15.0469 -0.046875 14.2812 -0.171875
Q13.5312 -0.296875 12.3594 -0.296875
Q11.1875 -0.296875 10.4219 -0.171875
Q9.67188 -0.046875 9.23438 0.125
Q8.79688 0.296875 8.59375 0.609375
Q8.40625 0.921875 8.40625 1.26562
L8.40625 59.5781
Q8.40625 61.5312 9.46875 62.3594
Q10.5469 63.1875 11.8125 63.1875
L15.8281 63.1875
Q17.2344 63.1875 18.1875 62.9375
Q19.1406 62.7031 19.8906 62.1406
Q20.6562 61.5781 21.3594 60.5781
Q22.0781 59.5781 22.9062 58.0625
L38.2344 30.3281
Q39.6562 27.7812 40.9688 25.3594
Q42.2812 22.9531 43.5 20.6094
Q44.7344 18.2656 45.9219 15.9844
Q47.125 13.7188 48.2969 11.4219
L48.3438 11.4219
Q48.25 15.2812 48.2188 19.4531
Q48.1875 23.6406 48.1875 27.4844
L48.1875 61.7656
Q48.1875 62.1094 48.375 62.4062
Q48.5781 62.7031 49.0469 62.9219
Q49.5156 63.1406 50.2656 63.2344
Q51.0312 63.3281 52.25 63.3281
Q53.3281 63.3281 54.1094 63.2344
Q54.8906 63.1406 55.3281 62.9219
Q55.7656 62.7031 55.9531 62.4062
Q56.1562 62.1094 56.1562 61.7656
z
" id="Calibri-4e"/>
      <path id="Calibri-20"/>
      <path d="
M39.0625 7.90625
Q39.0625 7.07812 39.0156 6.46875
Q38.9688 5.85938 38.8438 5.4375
Q38.7188 5.03125 38.5469 4.70312
Q38.375 4.39062 37.7656 3.78125
Q37.1562 3.17188 35.6875 2.26562
Q34.2344 1.375 32.3906 0.65625
Q30.5625 -0.046875 28.4062 -0.484375
Q26.2656 -0.921875 23.9688 -0.921875
Q19.2344 -0.921875 15.5781 0.640625
Q11.9219 2.20312 9.45312 5.20312
Q6.98438 8.20312 5.6875 12.5625
Q4.39062 16.9375 4.39062 22.6562
Q4.39062 29.1562 5.96875 33.8125
Q7.5625 38.4844 10.3281 41.4531
Q13.0938 44.4375 16.8281 45.875
Q20.5625 47.3125 24.9062 47.3125
Q27 47.3125 28.9688 46.9219
Q30.9531 46.5312 32.6094 45.8906
Q34.2812 45.2656 35.5625 44.4375
Q36.8594 43.6094 37.4375 43.0156
Q38.0312 42.4375 38.25 42.0938
Q38.4844 41.75 38.625 41.2812
Q38.7656 40.8281 38.8125 40.2344
Q38.875 39.6562 38.875 38.7656
Q38.875 36.8594 38.4219 36.1094
Q37.9844 35.3594 37.3594 35.3594
Q36.625 35.3594 35.6719 36.1562
Q34.7188 36.9688 33.25 37.9375
Q31.7812 38.9219 29.7031 39.7188
Q27.6406 40.5312 24.8125 40.5312
Q19 40.5312 15.8906 36.0625
Q12.7969 31.5938 12.7969 23.0938
Q12.7969 18.8438 13.5938 15.6406
Q14.4062 12.4531 15.9688 10.2969
Q17.5312 8.15625 19.7969 7.10938
Q22.0781 6.0625 25 6.0625
Q27.7812 6.0625 29.875 6.9375
Q31.9844 7.8125 33.5156 8.85938
Q35.0625 9.90625 36.1094 10.7656
Q37.1562 11.625 37.75 11.625
Q38.0938 11.625 38.3281 11.4219
Q38.5781 11.2344 38.75 10.7656
Q38.9219 10.2969 38.9844 9.59375
Q39.0625 8.89062 39.0625 7.90625" id="Calibri-63"/>
      <path d="
M40.5781 1.17188
Q40.5781 0.59375 40.1875 0.296875
Q39.7969 0 39.1094 -0.140625
Q38.4219 -0.296875 37.1094 -0.296875
Q35.8438 -0.296875 35.0781 -0.140625
Q34.3281 0 33.9844 0.296875
Q33.6406 0.59375 33.6406 1.17188
L33.6406 5.5625
Q30.7656 2.48438 27.2188 0.78125
Q23.6875 -0.921875 19.7344 -0.921875
Q16.2656 -0.921875 13.4531 -0.015625
Q10.6406 0.875 8.65625 2.57812
Q6.6875 4.29688 5.59375 6.78125
Q4.5 9.28125 4.5 12.4531
Q4.5 16.1562 6 18.8906
Q7.51562 21.625 10.3438 23.4375
Q13.1875 25.25 17.2812 26.1406
Q21.3906 27.0469 26.5156 27.0469
L32.5625 27.0469
L32.5625 30.4688
Q32.5625 33.0156 32.0312 34.9688
Q31.5 36.9219 30.2969 38.2031
Q29.1094 39.5 27.2031 40.1562
Q25.2969 40.8281 22.5156 40.8281
Q19.5312 40.8281 17.1562 40.1094
Q14.7969 39.4062 13.0156 38.5469
Q11.2344 37.7031 10.0312 36.9844
Q8.84375 36.2812 8.25 36.2812
Q7.85938 36.2812 7.5625 36.4688
Q7.28125 36.6719 7.0625 37.0625
Q6.84375 37.4531 6.73438 38.0625
Q6.64062 38.6719 6.64062 39.4062
Q6.64062 40.625 6.8125 41.3281
Q6.98438 42.0469 7.64062 42.6719
Q8.29688 43.3125 9.90625 44.1562
Q11.5312 45.0156 13.625 45.7188
Q15.7188 46.4375 18.2031 46.8906
Q20.7031 47.3594 23.25 47.3594
Q27.9844 47.3594 31.2969 46.2812
Q34.625 45.2188 36.6719 43.1406
Q38.7188 41.0625 39.6406 37.9844
Q40.5781 34.9062 40.5781 30.8125
z

M32.5625 21.2344
L25.6875 21.2344
Q22.3594 21.2344 19.9219 20.6719
Q17.4844 20.125 15.875 19.0156
Q14.2656 17.9219 13.5 16.375
Q12.75 14.8438 12.75 12.8438
Q12.75 9.42188 14.9219 7.39062
Q17.0938 5.375 21 5.375
Q24.1719 5.375 26.875 6.98438
Q29.5938 8.59375 32.5625 11.9219
z
" id="Calibri-61"/>
      <path d="
M44.9688 25.0938
Q44.9688 23.1875 44.0156 22.375
Q43.0625 21.5781 41.8438 21.5781
L13.0312 21.5781
Q13.0312 17.9219 13.7656 14.9844
Q14.5 12.0625 16.2031 9.95312
Q17.9219 7.85938 20.6562 6.73438
Q23.3906 5.60938 27.3438 5.60938
Q30.4688 5.60938 32.9062 6.125
Q35.3594 6.64062 37.1406 7.26562
Q38.9219 7.90625 40.0625 8.42188
Q41.2188 8.9375 41.7969 8.9375
Q42.1406 8.9375 42.4062 8.76562
Q42.6719 8.59375 42.8125 8.25
Q42.9688 7.90625 43.0312 7.29688
Q43.1094 6.6875 43.1094 5.8125
Q43.1094 5.17188 43.0625 4.70312
Q43.0156 4.25 42.9375 3.875
Q42.875 3.51562 42.7031 3.21875
Q42.5312 2.9375 42.2656 2.65625
Q42 2.39062 40.6719 1.78125
Q39.3594 1.17188 37.25 0.578125
Q35.1562 0 32.3906 -0.453125
Q29.6406 -0.921875 26.5156 -0.921875
Q21.0938 -0.921875 17.0156 0.578125
Q12.9375 2.09375 10.1562 5.07812
Q7.375 8.0625 5.95312 12.5469
Q4.54688 17.0469 4.54688 23
Q4.54688 28.6562 6 33.1719
Q7.46875 37.7031 10.2188 40.8438
Q12.9844 44 16.8906 45.6719
Q20.7969 47.3594 25.6406 47.3594
Q30.8125 47.3594 34.4531 45.7031
Q38.0938 44.0469 40.4375 41.2344
Q42.7812 38.4219 43.875 34.6406
Q44.9688 30.8594 44.9688 26.5625
z

M36.8594 27.4844
Q37.0156 33.8438 34.0625 37.4531
Q31.1094 41.0625 25.2969 41.0625
Q22.3125 41.0625 20.0625 39.9375
Q17.8281 38.8125 16.3125 36.9531
Q14.7969 35.1094 13.9688 32.6406
Q13.1406 30.1719 13.0312 27.4844
z
" id="Calibri-65"/>
      <path d="
M45.125 1.21875
Q45.125 0.828125 44.9531 0.53125
Q44.7812 0.25 44.3594 0.078125
Q43.9531 -0.09375 43.2656 -0.1875
Q42.5781 -0.296875 41.6094 -0.296875
Q40.5781 -0.296875 39.8906 -0.1875
Q39.2031 -0.09375 38.7656 0.078125
Q38.3281 0.25 38.125 0.53125
Q37.9375 0.828125 37.9375 1.21875
L37.9375 7.03125
Q34.4688 3.26562 30.7344 1.17188
Q27 -0.921875 22.5625 -0.921875
Q17.7188 -0.921875 14.2969 0.953125
Q10.8906 2.82812 8.76562 6.03125
Q6.64062 9.23438 5.65625 13.5469
Q4.6875 17.875 4.6875 22.6562
Q4.6875 28.3281 5.90625 32.8906
Q7.125 37.4531 9.51562 40.6719
Q11.9219 43.8906 15.4531 45.625
Q19 47.3594 23.6406 47.3594
Q27.4844 47.3594 30.6875 45.6719
Q33.8906 44 37.0156 40.7188
L37.0156 66.2656
Q37.0156 66.6094 37.1875 66.9219
Q37.3594 67.2344 37.8438 67.4062
Q38.3281 67.5781 39.0781 67.7031
Q39.8438 67.8281 41.0156 67.8281
Q42.2344 67.8281 43.0156 67.7031
Q43.7969 67.5781 44.2344 67.4062
Q44.6719 67.2344 44.8906 66.9219
Q45.125 66.6094 45.125 66.2656
z

M37.0156 32.125
Q33.7344 36.1875 30.6875 38.3125
Q27.6406 40.4375 24.3125 40.4375
Q21.2344 40.4375 19.0781 38.9688
Q16.9375 37.5 15.5938 35.1094
Q14.2656 32.7188 13.6406 29.6875
Q13.0312 26.6562 13.0312 23.5312
Q13.0312 20.2188 13.5469 17.0469
Q14.0625 13.875 15.3281 11.4062
Q16.6094 8.9375 18.7031 7.4375
Q20.7969 5.95312 23.9688 5.95312
Q25.5938 5.95312 27.0781 6.39062
Q28.5625 6.84375 30.125 7.85938
Q31.6875 8.89062 33.3906 10.5156
Q35.1094 12.1562 37.0156 14.5469
z
" id="Calibri-64"/>
     </defs>
     <g transform="translate(192.07609375 410.9428125)scale(0.18 -0.18)">
      <use transform="translate(0.0 0.21875)" xlink:href="#Calibri-4e"/>
      <use transform="translate(64.55078125 0.21875)" xlink:href="#Calibri-6f"/>
      <use transform="translate(117.28515625 0.21875)" xlink:href="#Calibri-72"/>
      <use transform="translate(152.1484375 0.21875)" xlink:href="#Calibri-6d"/>
      <use transform="translate(232.03125 0.21875)" xlink:href="#Calibri-61"/>
      <use transform="translate(279.931640625 0.21875)" xlink:href="#Calibri-6c"/>
      <use transform="translate(302.880859375 0.21875)" xlink:href="#Calibri-69"/>
      <use transform="translate(325.830078125 0.21875)" xlink:href="#Calibri-73"/>
      <use transform="translate(364.94140625 0.21875)" xlink:href="#Calibri-65"/>
      <use transform="translate(414.697265625 0.21875)" xlink:href="#Calibri-64"/>
      <use transform="translate(467.236328125 0.21875)" xlink:href="#Calibri-20"/>
      <use transform="translate(489.84375 0.21875)" xlink:href="#Calibri-73"/>
      <use transform="translate(528.955078125 0.21875)" xlink:href="#Calibri-6f"/>
      <use transform="translate(581.689453125 0.21875)" xlink:href="#Calibri-6c"/>
      <use transform="translate(604.638671875 0.21875)" xlink:href="#Calibri-61"/>
      <use transform="translate(652.5390625 0.21875)" xlink:href="#Calibri-72"/>
      <use transform="translate(687.40234375 0.21875)" xlink:href="#Calibri-20"/>
      <use transform="translate(709.009765625 0.21875)" xlink:href="#Calibri-63"/>
      <use transform="translate(751.294921875 0.21875)" xlink:href="#Calibri-6f"/>
      <use transform="translate(804.029296875 0.21875)" xlink:href="#Calibri-6e"/>
      <use transform="translate(856.568359375 0.21875)" xlink:href="#Calibri-73"/>
      <use transform="translate(895.6796875 0.21875)" xlink:href="#Calibri-74"/>
      <use transform="translate(929.17578125 0.21875)" xlink:href="#Calibri-61"/>
      <use transform="translate(977.076171875 0.21875)" xlink:href="#Calibri-6e"/>
      <use transform="translate(1029.61523438 0.21875)" xlink:href="#Calibri-74"/>
      <use transform="translate(1063.11132812 0.21875)" xlink:href="#Calibri-2c"/>
      <use transform="translate(1088.0625 0.21875)" xlink:href="#Calibri-20"/>
      <use transform="translate(1110.66992188 0.21875)" xlink:href="#Calibri-Italic-51"/>
      <use transform="translate(1177.07617188 0.21875)" xlink:href="#Calibri-2f"/>
      <use transform="translate(1215.69921875 0.21875)" xlink:href="#Calibri-Italic-51"/>
      <use transform="translate(1282.10546875 -13.7875)scale(0.7)" xlink:href="#Calibri-30"/>
     </g>
    </g>
   </g>
   <g id="matplotlib.axis_2">
    <g id="ytick_1">
     <g id="line2d_67">
      <path clip-path="url(#pb7d95c4bf5)" d="
M71.4725 349.991
L552.62 349.991" style="fill:none;stroke:#bfbfbf;stroke-linecap:square;stroke-width:0.5;"/>
     </g>
     <g id="line2d_68">
      <defs>
       <path d="
M0 0
L-4 0" id="mcb0005524f" style="stroke:#000000;stroke-width:0.5;"/>
      </defs>
      <g>
       <use style="stroke:#000000;stroke-width:0.5;" x="71.4725" xlink:href="#mcb0005524f" y="349.990909091"/>
      </g>
     </g>
     <g id="line2d_69">
      <defs>
       <path d="
M0 0
L4 0" id="m728421d6d4" style="stroke:#000000;stroke-width:0.5;"/>
      </defs>
      <g>
       <use style="stroke:#000000;stroke-width:0.5;" x="552.6196875" xlink:href="#m728421d6d4" y="349.990909091"/>
      </g>
     </g>
     <g id="text_9">
      <!-- 0.0 -->
      <g transform="translate(37.9371875 354.512002841)scale(0.18 -0.18)">
       <use xlink:href="#Calibri-30"/>
       <use x="50.68359375" xlink:href="#Calibri-2e"/>
       <use x="75.927734375" xlink:href="#Calibri-30"/>
      </g>
     </g>
    </g>
    <g id="ytick_2">
     <g id="line2d_70">
      <path clip-path="url(#pb7d95c4bf5)" d="
M71.4725 285.795
L552.62 285.795" style="fill:none;stroke:#bfbfbf;stroke-linecap:square;stroke-width:0.5;"/>
     </g>
     <g id="line2d_71">
      <g>
       <use style="stroke:#000000;stroke-width:0.5;" x="71.4725" xlink:href="#mcb0005524f" y="285.794545455"/>
      </g>
     </g>
     <g id="line2d_72">
      <g>
       <use style="stroke:#000000;stroke-width:0.5;" x="552.6196875" xlink:href="#m728421d6d4" y="285.794545455"/>
      </g>
     </g>
     <g id="text_10">
      <!-- 0.2 -->
      <g transform="translate(38.3140625 290.315639205)scale(0.18 -0.18)">
       <use xlink:href="#Calibri-30"/>
       <use x="50.68359375" xlink:href="#Calibri-2e"/>
       <use x="75.927734375" xlink:href="#Calibri-32"/>
      </g>
     </g>
    </g>
    <g id="ytick_3">
     <g id="line2d_73">
      <path clip-path="url(#pb7d95c4bf5)" d="
M71.4725 221.598
L552.62 221.598" style="fill:none;stroke:#bfbfbf;stroke-linecap:square;stroke-width:0.5;"/>
     </g>
     <g id="line2d_74">
      <g>
       <use style="stroke:#000000;stroke-width:0.5;" x="71.4725" xlink:href="#mcb0005524f" y="221.598181818"/>
      </g>
     </g>
     <g id="line2d_75">
      <g>
       <use style="stroke:#000000;stroke-width:0.5;" x="552.6196875" xlink:href="#m728421d6d4" y="221.598181818"/>
      </g>
     </g>
     <g id="text_11">
      <!-- 0.4 -->
      <g transform="translate(37.833125 226.119275568)scale(0.18 -0.18)">
       <use xlink:href="#Calibri-30"/>
       <use x="50.68359375" xlink:href="#Calibri-2e"/>
       <use x="75.927734375" xlink:href="#Calibri-34"/>
      </g>
     </g>
    </g>
    <g id="ytick_4">
     <g id="line2d_76">
      <path clip-path="url(#pb7d95c4bf5)" d="
M71.4725 157.402
L552.62 157.402" style="fill:none;stroke:#bfbfbf;stroke-linecap:square;stroke-width:0.5;"/>
     </g>
     <g id="line2d_77">
      <g>
       <use style="stroke:#000000;stroke-width:0.5;" x="71.4725" xlink:href="#mcb0005524f" y="157.401818182"/>
      </g>
     </g>
     <g id="line2d_78">
      <g>
       <use style="stroke:#000000;stroke-width:0.5;" x="552.6196875" xlink:href="#m728421d6d4" y="157.401818182"/>
      </g>
     </g>
     <g id="text_12">
      <!-- 0.6 -->
      <defs>
       <path d="
M46.7344 20.4531
Q46.7344 16.3125 45.4531 12.4219
Q44.1875 8.54688 41.5469 5.59375
Q38.9219 2.64062 34.8594 0.859375
Q30.8125 -0.921875 25.2969 -0.921875
Q21.3438 -0.921875 18.3125 0.046875
Q15.2812 1.03125 13.0312 2.82812
Q10.7969 4.64062 9.29688 7.26562
Q7.8125 9.90625 6.90625 13.2812
Q6 16.6562 5.60938 20.6562
Q5.21875 24.6562 5.21875 29.25
Q5.21875 33.2969 5.65625 37.4531
Q6.10938 41.6094 7.21875 45.4531
Q8.34375 49.3125 10.2656 52.7031
Q12.2031 56.1094 15.1094 58.625
Q18.0156 61.1406 22.0625 62.5938
Q26.125 64.0625 31.5 64.0625
Q33.2969 64.0625 35.1562 63.8438
Q37.0156 63.625 38.5781 63.25
Q40.1406 62.8906 41.2031 62.4531
Q42.2812 62.0156 42.625 61.7344
Q42.9688 61.4688 43.1406 61.1562
Q43.3125 60.8438 43.4062 60.4688
Q43.5 60.1094 43.5469 59.6406
Q43.6094 59.1875 43.6094 58.5
Q43.6094 57.625 43.5781 56.9844
Q43.5625 56.3438 43.3906 55.9531
Q43.2188 55.5625 42.9375 55.3594
Q42.6719 55.1719 42.2344 55.1719
Q41.7031 55.1719 40.7656 55.5156
Q39.8438 55.8594 38.5156 56.2656
Q37.2031 56.6875 35.3281 57.0312
Q33.4531 57.375 30.9531 57.375
Q26.4219 57.375 23.1406 55.5156
Q19.875 53.6562 17.7969 50.5312
Q15.7188 47.4062 14.7188 43.2812
Q13.7188 39.1562 13.5781 34.6719
Q14.8438 35.4062 16.4219 36.125
Q18.0156 36.8594 19.8906 37.4375
Q21.7812 38.0312 23.875 38.3906
Q25.9844 38.7656 28.375 38.7656
Q33.5 38.7656 37.0156 37.375
Q40.5312 35.9844 42.7031 33.5156
Q44.875 31.0625 45.7969 27.7031
Q46.7344 24.3594 46.7344 20.4531
M38.2344 19.6719
Q38.2344 22.5156 37.6719 24.8281
Q37.1094 27.1562 35.7812 28.7656
Q34.4688 30.375 32.2656 31.25
Q30.0781 32.125 26.8594 32.125
Q25.0469 32.125 23.2344 31.8125
Q21.4375 31.5 19.75 30.9375
Q18.0625 30.375 16.5156 29.6094
Q14.9844 28.8594 13.7188 27.9844
Q13.7188 21.6875 14.5156 17.4375
Q15.3281 13.1875 16.8594 10.625
Q18.4062 8.0625 20.7031 6.95312
Q23 5.85938 26.0781 5.85938
Q29.2031 5.85938 31.5 7.03125
Q33.7969 8.20312 35.2969 10.1719
Q36.8125 12.1562 37.5156 14.625
Q38.2344 17.0938 38.2344 19.6719" id="Calibri-36"/>
      </defs>
      <g transform="translate(38.024375 161.922911932)scale(0.18 -0.18)">
       <use xlink:href="#Calibri-30"/>
       <use x="50.68359375" xlink:href="#Calibri-2e"/>
       <use x="75.927734375" xlink:href="#Calibri-36"/>
      </g>
     </g>
    </g>
    <g id="ytick_5">
     <g id="line2d_79">
      <path clip-path="url(#pb7d95c4bf5)" d="
M71.4725 93.2055
L552.62 93.2055" style="fill:none;stroke:#bfbfbf;stroke-linecap:square;stroke-width:0.5;"/>
     </g>
     <g id="line2d_80">
      <g>
       <use style="stroke:#000000;stroke-width:0.5;" x="71.4725" xlink:href="#mcb0005524f" y="93.2054545455"/>
      </g>
     </g>
     <g id="line2d_81">
      <g>
       <use style="stroke:#000000;stroke-width:0.5;" x="552.6196875" xlink:href="#m728421d6d4" y="93.2054545455"/>
      </g>
     </g>
     <g id="text_13">
      <!-- 0.8 -->
      <g transform="translate(38.0525 97.7265482955)scale(0.18 -0.18)">
       <use xlink:href="#Calibri-30"/>
       <use x="50.68359375" xlink:href="#Calibri-2e"/>
       <use x="75.927734375" xlink:href="#Calibri-38"/>
      </g>
     </g>
    </g>
    <g id="ytick_6">
     <g id="line2d_82">
      <path clip-path="url(#pb7d95c4bf5)" d="
M71.4725 29.0091
L552.62 29.0091" style="fill:none;stroke:#bfbfbf;stroke-linecap:square;stroke-width:0.5;"/>
     </g>
     <g id="line2d_83">
      <g>
       <use style="stroke:#000000;stroke-width:0.5;" x="71.4725" xlink:href="#mcb0005524f" y="29.0090909091"/>
      </g>
     </g>
     <g id="line2d_84">
      <g>
       <use style="stroke:#000000;stroke-width:0.5;" x="552.6196875" xlink:href="#m728421d6d4" y="29.0090909091"/>
      </g>
     </g>
     <g id="text_14">
      <!-- 1.0 -->
      <g transform="translate(38.834375 33.5301846591)scale(0.18 -0.18)">
       <use xlink:href="#Calibri-31"/>
       <use x="50.68359375" xlink:href="#Calibri-2e"/>
       <use x="75.927734375" xlink:href="#Calibri-30"/>
      </g>
     </g>
    </g>
    <g id="ytick_7">
     <g id="line2d_85">
      <defs>
       <path d="
M0 0
L-2 0" id="ma4f294b3af" style="stroke:#000000;stroke-width:0.5;"/>
      </defs>
      <g>
       <use style="stroke:#000000;stroke-width:0.5;" x="71.4725" xlink:href="#ma4f294b3af" y="333.941818182"/>
      </g>
     </g>
     <g id="line2d_86">
      <defs>
       <path d="
M0 0
L2 0" id="mf0c55a9a47" style="stroke:#000000;stroke-width:0.5;"/>
      </defs>
      <g>
       <use style="stroke:#000000;stroke-width:0.5;" x="552.6196875" xlink:href="#mf0c55a9a47" y="333.941818182"/>
      </g>
     </g>
    </g>
    <g id="ytick_8">
     <g id="line2d_87">
      <g>
       <use style="stroke:#000000;stroke-width:0.5;" x="71.4725" xlink:href="#ma4f294b3af" y="317.892727273"/>
      </g>
     </g>
     <g id="line2d_88">
      <g>
       <use style="stroke:#000000;stroke-width:0.5;" x="552.6196875" xlink:href="#mf0c55a9a47" y="317.892727273"/>
      </g>
     </g>
    </g>
    <g id="ytick_9">
     <g id="line2d_89">
      <g>
       <use style="stroke:#000000;stroke-width:0.5;" x="71.4725" xlink:href="#ma4f294b3af" y="301.843636364"/>
      </g>
     </g>
     <g id="line2d_90">
      <g>
       <use style="stroke:#000000;stroke-width:0.5;" x="552.6196875" xlink:href="#mf0c55a9a47" y="301.843636364"/>
      </g>
     </g>
    </g>
    <g id="ytick_10">
     <g id="line2d_91">
      <g>
       <use style="stroke:#000000;stroke-width:0.5;" x="71.4725" xlink:href="#ma4f294b3af" y="285.794545455"/>
      </g>
     </g>
     <g id="line2d_92">
      <g>
       <use style="stroke:#000000;stroke-width:0.5;" x="552.6196875" xlink:href="#mf0c55a9a47" y="285.794545455"/>
      </g>
     </g>
    </g>
    <g id="ytick_11">
     <g id="line2d_93">
      <g>
       <use style="stroke:#000000;stroke-width:0.5;" x="71.4725" xlink:href="#ma4f294b3af" y="269.745454545"/>
      </g>
     </g>
     <g id="line2d_94">
      <g>
       <use style="stroke:#000000;stroke-width:0.5;" x="552.6196875" xlink:href="#mf0c55a9a47" y="269.745454545"/>
      </g>
     </g>
    </g>
    <g id="ytick_12">
     <g id="line2d_95">
      <g>
       <use style="stroke:#000000;stroke-width:0.5;" x="71.4725" xlink:href="#ma4f294b3af" y="253.696363636"/>
      </g>
     </g>
     <g id="line2d_96">
      <g>
       <use style="stroke:#000000;stroke-width:0.5;" x="552.6196875" xlink:href="#mf0c55a9a47" y="253.696363636"/>
      </g>
     </g>
    </g>
    <g id="ytick_13">
     <g id="line2d_97">
      <g>
       <use style="stroke:#000000;stroke-width:0.5;" x="71.4725" xlink:href="#ma4f294b3af" y="237.647272727"/>
      </g>
     </g>
     <g id="line2d_98">
      <g>
       <use style="stroke:#000000;stroke-width:0.5;" x="552.6196875" xlink:href="#mf0c55a9a47" y="237.647272727"/>
      </g>
     </g>
    </g>
    <g id="ytick_14">
     <g id="line2d_99">
      <g>
       <use style="stroke:#000000;stroke-width:0.5;" x="71.4725" xlink:href="#ma4f294b3af" y="221.598181818"/>
      </g>
     </g>
     <g id="line2d_100">
      <g>
       <use style="stroke:#000000;stroke-width:0.5;" x="552.6196875" xlink:href="#mf0c55a9a47" y="221.598181818"/>
      </g>
     </g>
    </g>
    <g id="ytick_15">
     <g id="line2d_101">
      <g>
       <use style="stroke:#000000;stroke-width:0.5;" x="71.4725" xlink:href="#ma4f294b3af" y="205.549090909"/>
      </g>
     </g>
     <g id="line2d_102">
      <g>
       <use style="stroke:#000000;stroke-width:0.5;" x="552.6196875" xlink:href="#mf0c55a9a47" y="205.549090909"/>
      </g>
     </g>
    </g>
    <g id="ytick_16">
     <g id="line2d_103">
      <g>
       <use style="stroke:#000000;stroke-width:0.5;" x="71.4725" xlink:href="#ma4f294b3af" y="189.5"/>
      </g>
     </g>
     <g id="line2d_104">
      <g>
       <use style="stroke:#000000;stroke-width:0.5;" x="552.6196875" xlink:href="#mf0c55a9a47" y="189.5"/>
      </g>
     </g>
    </g>
    <g id="ytick_17">
     <g id="line2d_105">
      <g>
       <use style="stroke:#000000;stroke-width:0.5;" x="71.4725" xlink:href="#ma4f294b3af" y="173.450909091"/>
      </g>
     </g>
     <g id="line2d_106">
      <g>
       <use style="stroke:#000000;stroke-width:0.5;" x="552.6196875" xlink:href="#mf0c55a9a47" y="173.450909091"/>
      </g>
     </g>
    </g>
    <g id="ytick_18">
     <g id="line2d_107">
      <g>
       <use style="stroke:#000000;stroke-width:0.5;" x="71.4725" xlink:href="#ma4f294b3af" y="157.401818182"/>
      </g>
     </g>
     <g id="line2d_108">
      <g>
       <use style="stroke:#000000;stroke-width:0.5;" x="552.6196875" xlink:href="#mf0c55a9a47" y="157.401818182"/>
      </g>
     </g>
    </g>
    <g id="ytick_19">
     <g id="line2d_109">
      <g>
       <use style="stroke:#000000;stroke-width:0.5;" x="71.4725" xlink:href="#ma4f294b3af" y="141.352727273"/>
      </g>
     </g>
     <g id="line2d_110">
      <g>
       <use style="stroke:#000000;stroke-width:0.5;" x="552.6196875" xlink:href="#mf0c55a9a47" y="141.352727273"/>
      </g>
     </g>
    </g>
    <g id="ytick_20">
     <g id="line2d_111">
      <g>
       <use style="stroke:#000000;stroke-width:0.5;" x="71.4725" xlink:href="#ma4f294b3af" y="125.303636364"/>
      </g>
     </g>
     <g id="line2d_112">
      <g>
       <use style="stroke:#000000;stroke-width:0.5;" x="552.6196875" xlink:href="#mf0c55a9a47" y="125.303636364"/>
      </g>
     </g>
    </g>
    <g id="ytick_21">
     <g id="line2d_113">
      <g>
       <use style="stroke:#000000;stroke-width:0.5;" x="71.4725" xlink:href="#ma4f294b3af" y="109.254545455"/>
      </g>
     </g>
     <g id="line2d_114">
      <g>
       <use style="stroke:#000000;stroke-width:0.5;" x="552.6196875" xlink:href="#mf0c55a9a47" y="109.254545455"/>
      </g>
     </g>
    </g>
    <g id="ytick_22">
     <g id="line2d_115">
      <g>
       <use style="stroke:#000000;stroke-width:0.5;" x="71.4725" xlink:href="#ma4f294b3af" y="93.2054545455"/>
      </g>
     </g>
     <g id="line2d_116">
      <g>
       <use style="stroke:#000000;stroke-width:0.5;" x="552.6196875" xlink:href="#mf0c55a9a47" y="93.2054545455"/>
      </g>
     </g>
    </g>
    <g id="ytick_23">
     <g id="line2d_117">
      <g>
       <use style="stroke:#000000;stroke-width:0.5;" x="71.4725" xlink:href="#ma4f294b3af" y="77.1563636364"/>
      </g>
     </g>
     <g id="line2d_118">
      <g>
       <use style="stroke:#000000;stroke-width:0.5;" x="552.6196875" xlink:href="#mf0c55a9a47" y="77.1563636364"/>
      </g>
     </g>
    </g>
    <g id="ytick_24">
     <g id="line2d_119">
      <g>
       <use style="stroke:#000000;stroke-width:0.5;" x="71.4725" xlink:href="#ma4f294b3af" y="61.1072727273"/>
      </g>
     </g>
     <g id="line2d_120">
      <g>
       <use style="stroke:#000000;stroke-width:0.5;" x="552.6196875" xlink:href="#mf0c55a9a47" y="61.1072727273"/>
      </g>
     </g>
    </g>
    <g id="ytick_25">
     <g id="line2d_121">
      <g>
       <use style="stroke:#000000;stroke-width:0.5;" x="71.4725" xlink:href="#ma4f294b3af" y="45.0581818182"/>
      </g>
     </g>
     <g id="line2d_122">
      <g>
       <use style="stroke:#000000;stroke-width:0.5;" x="552.6196875" xlink:href="#mf0c55a9a47" y="45.0581818182"/>
      </g>
     </g>
    </g>
    <g id="ytick_26">
     <g id="line2d_123">
      <g>
       <use style="stroke:#000000;stroke-width:0.5;" x="71.4725" xlink:href="#ma4f294b3af" y="29.0090909091"/>
      </g>
     </g>
     <g id="line2d_124">
      <g>
       <use style="stroke:#000000;stroke-width:0.5;" x="552.6196875" xlink:href="#mf0c55a9a47" y="29.0090909091"/>
      </g>
     </g>
    </g>
    <g id="ytick_27">
     <g id="line2d_125">
      <g>
       <use style="stroke:#000000;stroke-width:0.5;" x="71.4725" xlink:href="#ma4f294b3af" y="12.96"/>
      </g>
     </g>
     <g id="line2d_126">
      <g>
       <use style="stroke:#000000;stroke-width:0.5;" x="552.6196875" xlink:href="#mf0c55a9a47" y="12.96"/>
      </g>
     </g>
    </g>
    <g id="text_15">
     <!-- Ice-edge position, $y_\mathrm{i}=\sin \phi_\mathrm{i}$ -->
     <defs>
      <path d="
M47.9062 23.875
Q47.9062 18.1094 46.6562 13.5156
Q45.4062 8.9375 42.9844 5.73438
Q40.5781 2.54688 37.0156 0.8125
Q33.4531 -0.921875 28.8594 -0.921875
Q26.9062 -0.921875 25.2344 -0.53125
Q23.5781 -0.140625 21.9844 0.6875
Q20.4062 1.51562 18.8438 2.78125
Q17.2812 4.04688 15.5312 5.76562
L15.5312 -16.2188
Q15.5312 -16.6094 15.3281 -16.8906
Q15.1406 -17.1875 14.7031 -17.375
Q14.2656 -17.5781 13.4844 -17.6719
Q12.7031 -17.7812 11.4688 -17.7812
Q10.2969 -17.7812 9.51562 -17.6719
Q8.73438 -17.5781 8.26562 -17.375
Q7.8125 -17.1875 7.64062 -16.8906
Q7.46875 -16.6094 7.46875 -16.2188
L7.46875 45.1719
Q7.46875 45.6094 7.60938 45.875
Q7.76562 46.1406 8.20312 46.3281
Q8.64062 46.5312 9.32812 46.6094
Q10.0156 46.6875 10.9844 46.6875
Q12.0156 46.6875 12.6719 46.6094
Q13.3281 46.5312 13.7656 46.3281
Q14.2031 46.1406 14.375 45.875
Q14.5469 45.6094 14.5469 45.1719
L14.5469 39.2656
Q16.5469 41.3125 18.4062 42.8281
Q20.2656 44.3438 22.1406 45.3438
Q24.0312 46.3438 26 46.8438
Q27.9844 47.3594 30.1719 47.3594
Q34.9688 47.3594 38.3281 45.5
Q41.7031 43.6562 43.8281 40.4219
Q45.9531 37.2031 46.9219 32.9219
Q47.9062 28.6562 47.9062 23.875
M39.4062 22.9531
Q39.4062 26.3125 38.8906 29.4688
Q38.375 32.625 37.125 35.0625
Q35.8906 37.5 33.7812 38.9688
Q31.6875 40.4375 28.5625 40.4375
Q27 40.4375 25.4844 39.9688
Q23.9688 39.5 22.4062 38.5
Q20.8438 37.5 19.1406 35.8594
Q17.4375 34.2344 15.5312 31.8438
L15.5312 14.3594
Q18.8438 10.2969 21.8281 8.14062
Q24.8125 6 28.0781 6
Q31.1094 6 33.2812 7.46875
Q35.4531 8.9375 36.7969 11.375
Q38.1406 13.8125 38.7656 16.8438
Q39.4062 19.875 39.4062 22.9531" id="Calibri-70"/>
      <path d="
M45.4531 45.5156
Q45.4531 44.9688 45.3594 44.4062
Q45.2656 43.8438 45.0156 43.3594
Q43.4062 38.9219 41.5 34.1094
Q39.5938 29.2969 37.0469 24.0469
Q34.5156 18.7969 31.125 13.0781
Q27.7344 7.375 23.0469 1.07812
L10.4062 -16.1562
Q10.1094 -16.5469 9.67188 -16.8438
Q9.23438 -17.1406 8.59375 -17.3594
Q7.95312 -17.5781 7.04688 -17.6719
Q6.15625 -17.7812 4.9375 -17.7812
Q3.60938 -17.7812 2.75 -17.6562
Q1.90625 -17.5312 1.46875 -17.2344
Q1.03125 -16.9375 1.07812 -16.4531
Q1.125 -15.9688 1.65625 -15.2812
L13.5781 0
L6.29688 42.9219
Q6.20312 43.5 6.15625 43.9844
Q6.10938 44.4844 6.10938 44.8281
Q6.10938 45.3594 6.28125 45.7188
Q6.45312 46.0938 6.9375 46.3125
Q7.42188 46.5312 8.21875 46.6094
Q9.03125 46.6875 10.2031 46.6875
Q11.5312 46.6875 12.2812 46.6094
Q13.0312 46.5312 13.4531 46.3594
Q13.875 46.1875 14.0312 45.8438
Q14.2031 45.5156 14.2656 45.0156
L19.9688 9.1875
L20.0625 9.1875
Q23.0938 13.4219 25.5312 17.8125
Q27.9844 22.2188 30.0312 26.7344
Q32.0781 31.25 33.8125 35.8594
Q35.5469 40.4844 37.0625 45.2188
Q37.1562 45.6094 37.4219 45.875
Q37.7031 46.1406 38.2031 46.3281
Q38.7188 46.5312 39.5938 46.6094
Q40.4844 46.6875 41.7969 46.6875
Q44 46.6875 44.7188 46.3906
Q45.4531 46.0938 45.4531 45.5156" id="Calibri-Italic-79"/>
      <path d="
M16.7969 1.26562
Q16.7969 0.875 16.5938 0.578125
Q16.4062 0.296875 15.9219 0.125
Q15.4375 -0.046875 14.625 -0.171875
Q13.8125 -0.296875 12.5938 -0.296875
Q11.4219 -0.296875 10.5938 -0.171875
Q9.76562 -0.046875 9.28125 0.125
Q8.79688 0.296875 8.59375 0.578125
Q8.40625 0.875 8.40625 1.26562
L8.40625 61.9219
Q8.40625 62.3125 8.625 62.5938
Q8.84375 62.8906 9.34375 63.0625
Q9.85938 63.2344 10.6562 63.3594
Q11.4688 63.4844 12.5938 63.4844
Q13.8125 63.4844 14.625 63.3594
Q15.4375 63.2344 15.9219 63.0625
Q16.4062 62.8906 16.5938 62.5938
Q16.7969 62.3125 16.7969 61.9219
z
" id="Calibri-49"/>
      <path d="
M23.7812 -0.921875
Q14.1562 -0.34375 8.875 4.03125
Q3.60938 8.40625 3.60938 16.6094
Q3.60938 19.7812 4.21875 23.2188
Q4.82812 26.6562 6.21875 29.9531
Q7.625 33.25 9.85938 36.25
Q12.1094 39.2656 15.4219 41.6094
Q18.75 43.9531 23.2188 45.4844
Q27.6875 47.0156 33.4531 47.3125
L37.3125 66.4531
Q37.3594 66.8438 37.625 67.1406
Q37.8906 67.4375 38.375 67.625
Q38.875 67.8281 39.7031 67.9219
Q40.5312 68.0156 41.7031 68.0156
Q44.0469 68.0156 44.7812 67.625
Q45.5156 67.2344 45.4062 66.4531
L41.5 47.3125
Q51.4688 46.7344 56.5938 42.2812
Q61.7188 37.8438 61.7188 29.8906
Q61.7188 26.6562 61.125 23.2188
Q60.5469 19.7812 59.1562 16.4531
Q57.7656 13.1406 55.4844 10.125
Q53.2188 7.125 49.8906 4.78125
Q46.5781 2.4375 42.0781 0.890625
Q37.5938 -0.640625 31.8438 -0.921875
L28.8125 -16.2188
Q28.6562 -16.6094 28.4375 -16.8906
Q28.2188 -17.1875 27.7344 -17.375
Q27.25 -17.5781 26.4375 -17.6719
Q25.6406 -17.7812 24.5156 -17.7812
Q22.3125 -17.7812 21.4062 -17.4062
Q20.5156 -17.0469 20.7031 -16.2188
z

M33.1562 5.67188
Q37.5938 5.95312 40.8125 7.3125
Q44.0469 8.6875 46.2812 10.7188
Q48.5312 12.75 49.9219 15.2344
Q51.3125 17.7188 52.0938 20.2031
Q52.875 22.7031 53.1406 25
Q53.4219 27.2969 53.4219 29
Q53.4219 30.8125 52.9844 32.7812
Q52.5469 34.7656 51.1406 36.4219
Q49.75 38.0938 47.1406 39.2812
Q44.5312 40.4844 40.1406 40.7188
z

M32.1719 40.7188
Q27.7344 40.4375 24.5156 39.0625
Q21.2969 37.7031 19.0469 35.6719
Q16.7969 33.6406 15.4062 31.1406
Q14.0156 28.6562 13.2344 26.1875
Q12.4531 23.7344 12.1875 21.3906
Q11.9219 19.0469 11.9219 17.3906
Q11.9219 15.5781 12.3594 13.5938
Q12.7969 11.625 14.1875 9.95312
Q15.5781 8.29688 18.1875 7.09375
Q20.7969 5.90625 25.2031 5.67188
z
" id="Calibri-Italic-3d5"/>
      <path d="
M45.1719 37.6406
Q45.1719 35.6875 44.6094 34.9375
Q44.0469 34.1875 43.3125 34.1875
L6.39062 34.1875
Q5.67188 34.1875 5.125 34.9375
Q4.59375 35.6875 4.59375 37.6406
Q4.59375 39.4062 5.07812 40.2344
Q5.5625 41.0625 6.39062 41.0625
L43.3125 41.0625
Q44.1875 41.0625 44.6719 40.2344
Q45.1719 39.4062 45.1719 37.6406
M45.1719 18.6562
Q45.1719 16.7031 44.6094 15.9688
Q44.0469 15.2344 43.3125 15.2344
L6.39062 15.2344
Q5.67188 15.2344 5.125 15.9688
Q4.59375 16.7031 4.59375 18.6562
Q4.59375 20.4531 5.07812 21.2812
Q5.5625 22.125 6.39062 22.125
L43.3125 22.125
Q44.1875 22.125 44.6719 21.2812
Q45.1719 20.4531 45.1719 18.6562" id="Calibri-3d"/>
      <path d="
M45.8438 28.0781
Q45.8438 26.2656 45.375 25.4375
Q44.9219 24.6094 44.0469 24.6094
L5.5625 24.6094
Q4.64062 24.6094 4.17188 25.4375
Q3.71875 26.2656 3.71875 28.0781
Q3.71875 29.8281 4.17188 30.6875
Q4.64062 31.5469 5.5625 31.5469
L44.0469 31.5469
Q44.9219 31.5469 45.375 30.7188
Q45.8438 29.8906 45.8438 28.0781" id="Calibri-2212"/>
      <path d="
M44.1875 43.1719
Q44.1875 41.4531 43.7188 40.6875
Q43.2656 39.9375 42.5312 39.9375
L36.2344 39.9375
Q37.9375 38.1875 38.625 36.0625
Q39.3125 33.9375 39.3125 31.6406
Q39.3125 27.8281 38.0781 24.8906
Q36.8594 21.9688 34.5938 19.9375
Q32.3281 17.9219 29.2031 16.8438
Q26.0781 15.7656 22.2656 15.7656
Q19.5781 15.7656 17.1562 16.4688
Q14.75 17.1875 13.4219 18.2656
Q12.5469 17.3906 11.9844 16.2656
Q11.4219 15.1406 11.4219 13.6719
Q11.4219 11.9688 13 10.8438
Q14.5938 9.71875 17.2344 9.625
L28.7188 9.125
Q31.9844 9.03125 34.7188 8.21875
Q37.4531 7.42188 39.4531 5.92188
Q41.4531 4.4375 42.5781 2.26562
Q43.7031 0.09375 43.7031 -2.78125
Q43.7031 -5.8125 42.4219 -8.54688
Q41.1562 -11.2812 38.5469 -13.3594
Q35.9375 -15.4375 31.875 -16.625
Q27.8281 -17.8281 22.3125 -17.8281
Q17 -17.8281 13.25 -16.9219
Q9.51562 -16.0156 7.125 -14.4531
Q4.73438 -12.8906 3.65625 -10.7188
Q2.59375 -8.54688 2.59375 -6
Q2.59375 -4.39062 2.98438 -2.875
Q3.375 -1.375 4.17188 0
Q4.98438 1.375 6.17188 2.60938
Q7.375 3.85938 8.9375 5.07812
Q6.54688 6.29688 5.39062 8.15625
Q4.25 10.0156 4.25 12.1562
Q4.25 15.1406 5.46875 17.4844
Q6.6875 19.8281 8.5 21.6875
Q6.98438 23.4844 6.09375 25.75
Q5.21875 28.0312 5.21875 31.25
Q5.21875 35.0156 6.48438 37.9844
Q7.76562 40.9688 10 43.0156
Q12.25 45.0625 15.4062 46.1562
Q18.5625 47.2656 22.2656 47.2656
Q24.2656 47.2656 26 47.0469
Q27.7344 46.8281 29.25 46.4375
L42.5312 46.4375
Q43.3594 46.4375 43.7656 45.625
Q44.1875 44.8281 44.1875 43.1719
M31.5938 31.5938
Q31.5938 36.0781 29.125 38.5938
Q26.6562 41.1094 22.125 41.1094
Q19.7812 41.1094 18.0469 40.3281
Q16.3125 39.5469 15.1562 38.1719
Q14.0156 36.8125 13.4531 35.0312
Q12.8906 33.25 12.8906 31.2969
Q12.8906 26.9531 15.3594 24.4531
Q17.8281 21.9688 22.2656 21.9688
Q24.6562 21.9688 26.4062 22.7188
Q28.1719 23.4844 29.3125 24.8281
Q30.4688 26.1719 31.0312 27.9219
Q31.5938 29.6875 31.5938 31.5938
M35.6406 -3.21875
Q35.6406 -0.390625 33.3125 1.14062
Q31 2.6875 27.0469 2.78125
L15.6719 3.17188
Q14.1094 1.95312 13.1094 0.84375
Q12.1094 -0.25 11.5156 -1.25
Q10.9375 -2.25 10.7188 -3.21875
Q10.5 -4.20312 10.5 -5.21875
Q10.5 -8.40625 13.7188 -10.0312
Q16.9375 -11.6719 22.7031 -11.6719
Q26.375 -11.6719 28.8281 -10.9531
Q31.2969 -10.25 32.8125 -9.07812
Q34.3281 -7.90625 34.9844 -6.39062
Q35.6406 -4.89062 35.6406 -3.21875" id="Calibri-67"/>
     </defs>
     <g transform="translate(29.593125 288.05)rotate(-90.0)scale(0.18 -0.18)">
      <use transform="translate(0.0 0.984375)" xlink:href="#Calibri-49"/>
      <use transform="translate(25.1953125 0.984375)" xlink:href="#Calibri-63"/>
      <use transform="translate(67.48046875 0.984375)" xlink:href="#Calibri-65"/>
      <use transform="translate(117.236328125 0.984375)" xlink:href="#Calibri-2212"/>
      <use transform="translate(167.041015625 0.984375)" xlink:href="#Calibri-65"/>
      <use transform="translate(216.796875 0.984375)" xlink:href="#Calibri-64"/>
      <use transform="translate(269.3359375 0.984375)" xlink:href="#Calibri-67"/>
      <use transform="translate(316.40625 0.984375)" xlink:href="#Calibri-65"/>
      <use transform="translate(366.162109375 0.984375)" xlink:href="#Calibri-20"/>
      <use transform="translate(388.76953125 0.984375)" xlink:href="#Calibri-70"/>
      <use transform="translate(441.30859375 0.984375)" xlink:href="#Calibri-6f"/>
      <use transform="translate(494.04296875 0.984375)" xlink:href="#Calibri-73"/>
      <use transform="translate(533.154296875 0.984375)" xlink:href="#Calibri-69"/>
      <use transform="translate(556.103515625 0.984375)" xlink:href="#Calibri-74"/>
      <use transform="translate(589.599609375 0.984375)" xlink:href="#Calibri-69"/>
      <use transform="translate(612.548828125 0.984375)" xlink:href="#Calibri-6f"/>
      <use transform="translate(665.283203125 0.984375)" xlink:href="#Calibri-6e"/>
      <use transform="translate(717.822265625 0.984375)" xlink:href="#Calibri-2c"/>
      <use transform="translate(742.7734375 0.984375)" xlink:href="#Calibri-20"/>
      <use transform="translate(765.380859375 0.984375)" xlink:href="#Calibri-Italic-79"/>
      <use transform="translate(810.107421875 -13.021875)scale(0.7)" xlink:href="#Calibri-69"/>
      <use transform="translate(841.9921875 0.984375)" xlink:href="#Calibri-3d"/>
      <use transform="translate(898.375 0.984375)" xlink:href="#Calibri-73"/>
      <use transform="translate(937.486328125 0.984375)" xlink:href="#Calibri-69"/>
      <use transform="translate(960.435546875 0.984375)" xlink:href="#Calibri-6e"/>
      <use transform="translate(1012.97460938 0.984375)" xlink:href="#Calibri-Italic-3d5"/>
      <use transform="translate(1078.11132812 -13.021875)scale(0.7)" xlink:href="#Calibri-69"/>
     </g>
    </g>
   </g>
   <g id="line2d_127">
    <path clip-path="url(#pb7d95c4bf5)" d="
M71.4725 349.991
L552.62 349.991" style="fill:none;stroke:#808080;stroke-linecap:square;stroke-width:0.8;"/>
   </g>
   <g id="line2d_128">
    <path clip-path="url(#pb7d95c4bf5)" d="
M71.4725 29.0091
L552.62 29.0091" style="fill:none;stroke:#808080;stroke-linecap:square;stroke-width:0.8;"/>
   </g>
   <g id="line2d_129">
    <path clip-path="url(#pb7d95c4bf5)" d="
M489.745 349.991
L466.007 345.497
L443.505 341.003
L423.723 336.831
L405.013 332.658
L387.365 328.485
L372.005 324.633
L357.522 320.782
L343.895 316.93
L331.103 313.078
L319.118 309.226
L308.818 305.695
L299.15 302.165
L290.09 298.634
L281.611 295.103
L273.688 291.572
L266.294 288.041
L259.401 284.511
L252.982 280.98
L247.008 277.449
L241.453 273.918
L236.288 270.387
L231.487 266.857
L226.632 263.005
L222.143 259.153
L217.989 255.301
L213.831 251.129
L209.991 246.956
L206.173 242.462
L202.645 237.968
L199.15 233.154
L195.704 228.018
L192.324 222.561
L189.201 217.104
L186.151 211.327
L183.352 205.549
L180.8 199.771
L178.623 194.315
L176.684 188.858
L175.089 183.722
L173.73 178.587
L172.68 173.772
L171.857 168.957
L171.263 164.142
L170.901 159.328
L170.767 154.513
L170.766 153.871
L170.766 153.871" style="fill:none;stroke:#808080;stroke-dasharray:6.000000,6.000000;stroke-dashoffset:0.0;stroke-width:1.5;"/>
   </g>
   <g id="line2d_130">
    <path clip-path="url(#pb7d95c4bf5)" d="
M170.767 153.55
L170.893 148.735
L171.248 143.6
L171.849 138.143
L172.748 132.044
L174.076 124.662
L176.177 114.39
L182.952 82.934
L184.865 75.2305
L186.849 68.1689
L191.314 52.7617
L191.919 49.5519
L192.179 46.9841
L192.209 45.7001
L192.209 45.7001" style="fill:none;stroke:#808080;stroke-linecap:square;stroke-width:1.5;"/>
   </g>
   <g id="line2d_131">
    <path clip-path="url(#pb7d95c4bf5)" d="
M192.204 45.3792
L192.195 45.0582
L192.179 44.7372
L192.158 44.4162
L192.132 44.0952
L192.099 43.7743
L192.06 43.4533
L192.015 43.1323
L191.964 42.8113
L191.905 42.4903
L191.84 42.1693
L191.767 41.8484
L191.687 41.5274
L191.6 41.2064
L191.504 40.8854
L191.4 40.5644
L191.288 40.2435
L191.167 39.9225
L191.038 39.6015
L190.899 39.2805
L190.751 38.9595
L190.594 38.6385
L190.426 38.3176
L190.249 37.9966
L190.061 37.6756
L189.862 37.3546
L189.652 37.0336
L189.432 36.7127
L189.199 36.3917
L188.955 36.0707
L188.698 35.7497
L188.43 35.4287
L188.148 35.1077
L187.853 34.7868
L187.546 34.4658
L187.224 34.1448
L186.888 33.8238
L186.538 33.5028
L186.174 33.1819
L185.794 32.8609
L185.4 32.5399
L184.989 32.2189
L184.563 31.8979
L184.12 31.5769
L183.661 31.256
L183.185 30.935
L182.691 30.614
L182.18 30.293
L181.651 29.972
L181.103 29.6511
L180.536 29.3301
L179.951 29.0091" style="fill:none;stroke:#808080;stroke-dasharray:6.000000,6.000000;stroke-dashoffset:0.0;stroke-width:1.5;"/>
   </g>
   <g id="line2d_132">
    <path clip-path="url(#pb7d95c4bf5)" d="
M71.4725 349.991
L489.745 349.991" style="fill:none;stroke:#808080;stroke-linecap:square;stroke-width:1.5;"/>
   </g>
   <g id="line2d_133">
    <path clip-path="url(#pb7d95c4bf5)" d="
M179.951 29.0091
L552.62 29.0091" style="fill:none;stroke:#808080;stroke-linecap:square;stroke-width:1.5;"/>
   </g>
   <g id="line2d_134">
    <path clip-path="url(#pb7d95c4bf5)" d="
M470.154 349.991
L446.413 345.818
L423.931 341.645
L402.715 337.473
L384.253 333.621
L366.859 329.769
L350.516 325.917
L336.441 322.386
L323.214 318.856
L310.813 315.325
L299.213 311.794
L288.388 308.263
L278.311 304.732
L268.952 301.202
L261.041 297.992
L253.675 294.782
L246.831 291.572
L240.482 288.362
L234.606 285.153
L229.176 281.943
L224.169 278.733
L219.558 275.523
L215.32 272.313
L211.43 269.103
L207.864 265.894
L204.286 262.363
L201.041 258.832
L198.098 255.301
L195.428 251.77
L192.796 247.919
L190.425 244.067
L188.114 239.894
L185.887 235.4
L183.759 230.586
L181.742 225.45
L179.843 219.993
L178.075 214.216
L176.535 208.438
L175.221 202.66
L174.195 197.204
L173.396 191.747
L172.873 186.611
L172.604 181.796
L172.553 178.587
L172.553 178.587" style="fill:none;stroke:#000000;stroke-dasharray:6.000000,6.000000;stroke-dashoffset:0.0;stroke-width:1.5;"/>
   </g>
   <g id="line2d_135">
    <path clip-path="url(#pb7d95c4bf5)" d="
M172.554 178.266
L172.682 173.772
L173.037 169.278
L173.628 164.784
L174.46 160.291
L175.534 155.797
L176.844 151.303
L178.379 146.809
L180.255 141.995
L182.49 136.859
L185.244 131.081
L189.028 123.699
L195.586 111.501
L205.886 92.2425
L211.311 82.2921
L215.054 75.8724
L218.673 70.0948
L223.181 63.3541
L228.976 54.6876
L230.85 51.4778
L232.099 48.91
L232.926 46.6631
L233.374 44.7372
L233.519 43.1323
L233.52 42.8113
L233.52 42.8113" style="fill:none;stroke:#000000;stroke-linecap:square;stroke-width:1.5;"/>
   </g>
   <g id="line2d_136">
    <path clip-path="url(#pb7d95c4bf5)" d="
M233.51 42.4903
L233.49 42.1693
L233.459 41.8484
L233.416 41.5274
L233.362 41.2064
L233.296 40.8854
L233.218 40.5644
L233.127 40.2435
L233.023 39.9225
L232.905 39.6015
L232.774 39.2805
L232.629 38.9595
L232.469 38.6385
L232.294 38.3176
L232.103 37.9966
L231.897 37.6756
L231.674 37.3546
L231.435 37.0336
L231.178 36.7127
L230.904 36.3917
L230.612 36.0707
L230.302 35.7497
L229.973 35.4287
L229.624 35.1077
L229.255 34.7868
L228.867 34.4658
L228.457 34.1448
L228.026 33.8238
L227.574 33.5028
L227.099 33.1819
L226.601 32.8609
L226.081 32.5399
L225.536 32.2189
L224.968 31.8979
L224.375 31.5769
L223.756 31.256
L223.112 30.935
L222.442 30.614
L221.745 30.293
L221.021 29.972
L220.269 29.6511
L219.489 29.3301
L218.68 29.0091" style="fill:none;stroke:#000000;stroke-dasharray:6.000000,6.000000;stroke-dashoffset:0.0;stroke-width:1.5;"/>
   </g>
   <g id="line2d_137">
    <path clip-path="url(#pb7d95c4bf5)" d="
M71.4725 349.991
L470.154 349.991" style="fill:none;stroke:#000000;stroke-linecap:square;stroke-width:1.5;"/>
   </g>
   <g id="line2d_138">
    <path clip-path="url(#pb7d95c4bf5)" d="
M218.68 29.0091
L552.62 29.0091" style="fill:none;stroke:#000000;stroke-linecap:square;stroke-width:1.5;"/>
   </g>
   <g id="patch_3">
    <path d="
M71.4725 12.96
L552.62 12.96" style="fill:none;stroke:#000000;stroke-linecap:square;stroke-linejoin:miter;"/>
   </g>
   <g id="patch_4">
    <path d="
M552.62 366.04
L552.62 12.96" style="fill:none;stroke:#000000;stroke-linecap:square;stroke-linejoin:miter;"/>
   </g>
   <g id="patch_5">
    <path d="
M71.4725 366.04
L552.62 366.04" style="fill:none;stroke:#000000;stroke-linecap:square;stroke-linejoin:miter;"/>
   </g>
   <g id="patch_6">
    <path d="
M71.4725 366.04
L71.4725 12.96" style="fill:none;stroke:#000000;stroke-linecap:square;stroke-linejoin:miter;"/>
   </g>
   <g id="legend_1">
    <g id="patch_7">
     <path d="
M426.908 64.161
L545.42 64.161
L545.42 20.16
L426.908 20.16
z
" style="fill:#ffffff;stroke:#000000;stroke-linejoin:miter;"/>
    </g>
    <g id="line2d_139">
     <path d="
M436.988 30.96
L457.148 30.96" style="fill:none;stroke:#808080;stroke-linecap:square;stroke-width:1.5;"/>
    </g>
    <g id="line2d_140"/>
    <g id="text_16">
     <!-- $D/D_0=1.00$ -->
     <defs>
      <path d="
M59.625 40.4375
Q59.625 37.25 59.1719 33.8125
Q58.7344 30.375 57.7812 26.9219
Q56.8438 23.4844 55.3281 20.1562
Q53.8125 16.8438 51.6406 13.8438
Q49.4688 10.8438 46.6094 8.29688
Q43.75 5.76562 40.0781 3.90625
Q36.4219 2.04688 31.9219 1.01562
Q27.4375 0 21.1406 0
L7.125 0
Q6.5 0 5.9375 0.171875
Q5.375 0.34375 4.98438 0.734375
Q4.59375 1.125 4.4375 1.78125
Q4.29688 2.4375 4.54688 3.42188
L15.7656 59.7656
Q16.1094 61.6719 17.25 62.4219
Q18.4062 63.1875 19.875 63.1875
L33.2031 63.1875
Q40.4844 63.1875 45.2656 61.6406
Q50.0469 60.1094 53.25 57.1719
Q56.4531 54.25 58.0312 50.0156
Q59.625 45.7969 59.625 40.4375
M50.7344 39.7031
Q50.7344 43.3125 49.7344 46.3281
Q48.7344 49.3594 46.5781 51.5312
Q44.4375 53.7188 41.0938 54.9531
Q37.75 56.2031 32.2344 56.2031
L23.4375 56.2031
L13.625 7.03125
L22.3125 7.03125
Q28.2656 7.03125 32.2656 8.46875
Q36.2812 9.90625 39.3594 12.375
Q42.4375 14.8438 44.5781 18.1094
Q46.7344 21.3906 48.0938 25
Q49.4688 28.6094 50.0938 32.3906
Q50.7344 36.1875 50.7344 39.7031" id="Calibri-Italic-44"/>
     </defs>
     <g transform="translate(472.9876875 36.0)scale(0.144 -0.144)">
      <use transform="translate(0.0 0.21875)" xlink:href="#Calibri-Italic-44"/>
      <use transform="translate(61.5234375 0.21875)" xlink:href="#Calibri-2f"/>
      <use transform="translate(100.146484375 0.21875)" xlink:href="#Calibri-Italic-44"/>
      <use transform="translate(161.669921875 -13.7875)scale(0.7)" xlink:href="#Calibri-30"/>
      <use transform="translate(228.173828125 0.21875)" xlink:href="#Calibri-3d"/>
      <use transform="translate(284.556640625 0.21875)" xlink:href="#Calibri-31"/>
      <use transform="translate(335.240234375 0.21875)" xlink:href="#Calibri-2e"/>
      <use transform="translate(361.544921875 0.21875)" xlink:href="#Calibri-30"/>
      <use transform="translate(412.228515625 0.21875)" xlink:href="#Calibri-30"/>
     </g>
    </g>
    <g id="line2d_141">
     <path d="
M436.988 50.8005
L457.148 50.8005" style="fill:none;stroke:#000000;stroke-linecap:square;stroke-width:1.5;"/>
    </g>
    <g id="line2d_142"/>
    <g id="text_17">
     <!-- $D/D_0=0.70$ -->
     <defs>
      <path d="
M46.0469 59.5781
Q46.0469 58.6875 45.9688 57.9844
Q45.9062 57.2812 45.7812 56.6094
Q45.6562 55.9531 45.4375 55.3438
Q45.2188 54.7344 44.9219 54.0469
L22.1719 1.60938
Q21.9219 1.03125 21.5469 0.65625
Q21.1875 0.296875 20.625 0.078125
Q20.0625 -0.140625 19.1875 -0.21875
Q18.3125 -0.296875 17.0469 -0.296875
Q15.375 -0.296875 14.4531 -0.140625
Q13.5312 0 13.1094 0.3125
Q12.7031 0.640625 12.75 1.09375
Q12.7969 1.5625 13.0938 2.20312
L37.0156 55.8125
L6.6875 55.8125
Q5.76562 55.8125 5.29688 56.7812
Q4.82812 57.7656 4.82812 59.5156
Q4.82812 60.4531 4.95312 61.125
Q5.07812 61.8125 5.3125 62.2812
Q5.5625 62.75 5.90625 62.9688
Q6.25 63.1875 6.6875 63.1875
L43.5 63.1875
Q44.1875 63.1875 44.7031 63.0312
Q45.2188 62.8906 45.4844 62.4531
Q45.75 62.0156 45.8906 61.3281
Q46.0469 60.6406 46.0469 59.5781" id="Calibri-37"/>
     </defs>
     <g transform="translate(472.9876875 55.8405)scale(0.144 -0.144)">
      <use transform="translate(0.0 0.21875)" xlink:href="#Calibri-Italic-44"/>
      <use transform="translate(61.5234375 0.21875)" xlink:href="#Calibri-2f"/>
      <use transform="translate(100.146484375 0.21875)" xlink:href="#Calibri-Italic-44"/>
      <use transform="translate(161.669921875 -13.7875)scale(0.7)" xlink:href="#Calibri-30"/>
      <use transform="translate(228.173828125 0.21875)" xlink:href="#Calibri-3d"/>
      <use transform="translate(284.556640625 0.21875)" xlink:href="#Calibri-30"/>
      <use transform="translate(335.240234375 0.21875)" xlink:href="#Calibri-2e"/>
      <use transform="translate(361.544921875 0.21875)" xlink:href="#Calibri-37"/>
      <use transform="translate(412.228515625 0.21875)" xlink:href="#Calibri-30"/>
     </g>
    </g>
   </g>
  </g>
 </g>
 <defs>
  <clipPath id="pb7d95c4bf5">
   <rect height="353.08" width="481.1471875" x="71.4725" y="12.96"/>
  </clipPath>
 </defs>
</svg>
