<?xml version="1.0" encoding="utf-8" standalone="no"?>
<!DOCTYPE svg PUBLIC "-//W3C//DTD SVG 1.1//EN"
  "http://www.w3.org/Graphics/SVG/1.1/DTD/svg11.dtd">
<!-- Created with matplotlib (http://matplotlib.org/) -->
<svg height="432pt" version="1.1" viewBox="0 0 576 432" width="576pt" xmlns="http://www.w3.org/2000/svg" xmlns:xlink="http://www.w3.org/1999/xlink">
 <defs>
  <style type="text/css">
*{stroke-linecap:butt;stroke-linejoin:round;}
  </style>
 </defs>
 <g id="figure_1">
  <g id="patch_1">
   <path d="M 0 432 
L 576 432 
L 576 0 
L 0 0 
z
" style="fill:#ffffff;"/>
  </g>
  <g id="axes_1">
   <g id="patch_2">
    <path d="M 75.494 369.7 
L 553.77 369.7 
L 553.77 14.218161 
L 75.494 14.218161 
z
" style="fill:#ffffff;"/>
   </g>
   <g id="matplotlib.axis_1">
    <g id="xtick_1">
     <g id="line2d_1">
      <path clip-path="url(#p8ce8c9babe)" d="M 75.494 369.7 
L 75.494 14.218161 
" style="fill:none;stroke:#bfbfbf;stroke-linecap:square;stroke-width:0.8;"/>
     </g>
     <g id="line2d_2">
      <defs>
       <path d="M 0 0 
L 0 3.5 
" id="m2e98a92468" style="stroke:#000000;stroke-width:0.8;"/>
      </defs>
      <g>
       <use style="stroke:#000000;stroke-width:0.8;" x="75.494" xlink:href="#m2e98a92468" y="369.7"/>
      </g>
     </g>
     <g id="text_1">
      <!-- 0.0 -->
      <defs>
       <path d="M 47.21875 31.734375 
Q 47.21875 24.46875 46.0625 18.453125 
Q 44.921875 12.453125 42.25 8.125 
Q 39.59375 3.8125 35.296875 1.4375 
Q 31 -0.921875 24.703125 -0.921875 
Q 18.75 -0.921875 14.671875 1.203125 
Q 10.59375 3.328125 8.09375 7.453125 
Q 5.609375 11.578125 4.5625 17.609375 
Q 3.515625 23.640625 3.515625 31.453125 
Q 3.515625 38.671875 4.6875 44.703125 
Q 5.859375 50.734375 8.5 55.046875 
Q 11.140625 59.375 15.4375 61.734375 
Q 19.734375 64.109375 25.984375 64.109375 
Q 31.984375 64.109375 36.0625 61.984375 
Q 40.140625 59.859375 42.625 55.734375 
Q 45.125 51.609375 46.171875 45.578125 
Q 47.21875 39.546875 47.21875 31.734375 
z
M 38.625 31.15625 
Q 38.625 35.890625 38.28125 39.640625 
Q 37.9375 43.40625 37.28125 46.28125 
Q 36.625 49.171875 35.5625 51.25 
Q 34.515625 53.328125 33.046875 54.65625 
Q 31.59375 56 29.703125 56.609375 
Q 27.828125 57.234375 25.484375 57.234375 
Q 21.34375 57.234375 18.75 55.28125 
Q 16.15625 53.328125 14.671875 49.90625 
Q 13.1875 46.484375 12.640625 41.890625 
Q 12.109375 37.3125 12.109375 32.03125 
Q 12.109375 24.953125 12.84375 20 
Q 13.578125 15.046875 15.15625 11.921875 
Q 16.75 8.796875 19.21875 7.375 
Q 21.6875 5.953125 25.203125 5.953125 
Q 27.9375 5.953125 30 6.828125 
Q 32.078125 7.71875 33.5625 9.34375 
Q 35.0625 10.984375 36.03125 13.28125 
Q 37.015625 15.578125 37.59375 18.359375 
Q 38.1875 21.140625 38.40625 24.390625 
Q 38.625 27.640625 38.625 31.15625 
z
" id="Calibri-30"/>
       <path d="M 17.875 5.328125 
Q 17.875 1.859375 16.71875 0.703125 
Q 15.578125 -0.4375 12.546875 -0.4375 
Q 9.625 -0.4375 8.5 0.6875 
Q 7.375 1.8125 7.375 5.171875 
Q 7.375 8.640625 8.515625 9.78125 
Q 9.671875 10.9375 12.703125 10.9375 
Q 15.625 10.9375 16.75 9.8125 
Q 17.875 8.6875 17.875 5.328125 
z
" id="Calibri-2e"/>
      </defs>
      <g transform="translate(64.09775 393.442813)scale(0.18 -0.18)">
       <use xlink:href="#Calibri-30"/>
       <use x="50.683594" xlink:href="#Calibri-2e"/>
       <use x="75.927734" xlink:href="#Calibri-30"/>
      </g>
     </g>
    </g>
    <g id="xtick_2">
     <g id="line2d_3">
      <path clip-path="url(#p8ce8c9babe)" d="M 171.1492 369.7 
L 171.1492 14.218161 
" style="fill:none;stroke:#bfbfbf;stroke-linecap:square;stroke-width:0.8;"/>
     </g>
     <g id="line2d_4">
      <g>
       <use style="stroke:#000000;stroke-width:0.8;" x="171.1492" xlink:href="#m2e98a92468" y="369.7"/>
      </g>
     </g>
     <g id="text_2">
      <!-- 0.2 -->
      <defs>
       <path d="M 45.125 3.609375 
Q 45.125 2.734375 45 2.046875 
Q 44.875 1.375 44.65625 0.90625 
Q 44.4375 0.4375 44.0625 0.21875 
Q 43.703125 0 43.265625 0 
L 8.34375 0 
Q 7.671875 0 7.15625 0.171875 
Q 6.640625 0.34375 6.265625 0.734375 
Q 5.90625 1.125 5.734375 1.859375 
Q 5.5625 2.59375 5.5625 3.65625 
Q 5.5625 4.640625 5.640625 5.375 
Q 5.71875 6.109375 5.953125 6.671875 
Q 6.203125 7.234375 6.5625 7.78125 
Q 6.9375 8.34375 7.515625 8.984375 
L 19.78125 21.96875 
Q 24.03125 26.46875 26.59375 30.03125 
Q 29.15625 33.59375 30.546875 36.515625 
Q 31.9375 39.453125 32.375 41.84375 
Q 32.8125 44.234375 32.8125 46.34375 
Q 32.8125 48.4375 32.125 50.3125 
Q 31.453125 52.203125 30.15625 53.609375 
Q 28.859375 55.03125 26.90625 55.859375 
Q 24.953125 56.6875 22.40625 56.6875 
Q 19.4375 56.6875 17.0625 55.859375 
Q 14.703125 55.03125 12.921875 54.046875 
Q 11.140625 53.078125 9.9375 52.25 
Q 8.734375 51.421875 8.15625 51.421875 
Q 7.8125 51.421875 7.546875 51.609375 
Q 7.28125 51.8125 7.109375 52.25 
Q 6.9375 52.6875 6.828125 53.421875 
Q 6.734375 54.15625 6.734375 55.171875 
Q 6.734375 55.90625 6.78125 56.4375 
Q 6.84375 56.984375 6.953125 57.375 
Q 7.078125 57.765625 7.265625 58.109375 
Q 7.46875 58.453125 8.046875 58.953125 
Q 8.640625 59.46875 10.078125 60.34375 
Q 11.53125 61.234375 13.703125 62.078125 
Q 15.875 62.9375 18.484375 63.515625 
Q 21.09375 64.109375 23.96875 64.109375 
Q 28.5625 64.109375 32 62.8125 
Q 35.453125 61.53125 37.71875 59.28125 
Q 39.984375 57.03125 41.109375 54.046875 
Q 42.234375 51.078125 42.234375 47.703125 
Q 42.234375 44.671875 41.6875 41.671875 
Q 41.15625 38.671875 39.421875 35.171875 
Q 37.703125 31.6875 34.421875 27.40625 
Q 31.15625 23.140625 25.734375 17.578125 
L 15.71875 7.125 
L 43.21875 7.125 
Q 43.609375 7.125 43.96875 6.90625 
Q 44.34375 6.6875 44.609375 6.25 
Q 44.875 5.8125 45 5.15625 
Q 45.125 4.5 45.125 3.609375 
z
" id="Calibri-32"/>
      </defs>
      <g transform="translate(159.75295 393.442813)scale(0.18 -0.18)">
       <use xlink:href="#Calibri-30"/>
       <use x="50.683594" xlink:href="#Calibri-2e"/>
       <use x="75.927734" xlink:href="#Calibri-32"/>
      </g>
     </g>
    </g>
    <g id="xtick_3">
     <g id="line2d_5">
      <path clip-path="url(#p8ce8c9babe)" d="M 266.8044 369.7 
L 266.8044 14.218161 
" style="fill:none;stroke:#bfbfbf;stroke-linecap:square;stroke-width:0.8;"/>
     </g>
     <g id="line2d_6">
      <g>
       <use style="stroke:#000000;stroke-width:0.8;" x="266.8044" xlink:href="#m2e98a92468" y="369.7"/>
      </g>
     </g>
     <g id="text_3">
      <!-- 0.4 -->
      <defs>
       <path d="M 47.796875 17.96875 
Q 47.796875 16.359375 47.3125 15.421875 
Q 46.828125 14.5 45.953125 14.5 
L 38.8125 14.5 
L 38.8125 1.21875 
Q 38.8125 0.828125 38.609375 0.5625 
Q 38.421875 0.296875 37.9375 0.09375 
Q 37.453125 -0.09375 36.671875 -0.1875 
Q 35.890625 -0.296875 34.671875 -0.296875 
Q 33.5 -0.296875 32.71875 -0.1875 
Q 31.9375 -0.09375 31.46875 0.09375 
Q 31 0.296875 30.828125 0.5625 
Q 30.671875 0.828125 30.671875 1.21875 
L 30.671875 14.5 
L 4.59375 14.5 
Q 4 14.5 3.609375 14.640625 
Q 3.21875 14.796875 2.90625 15.1875 
Q 2.59375 15.578125 2.46875 16.3125 
Q 2.34375 17.046875 2.34375 18.21875 
Q 2.34375 19.140625 2.390625 19.875 
Q 2.4375 20.609375 2.578125 21.21875 
Q 2.734375 21.828125 2.96875 22.390625 
Q 3.21875 22.953125 3.5625 23.578125 
L 26.3125 61.96875 
Q 26.5625 62.359375 27.015625 62.640625 
Q 27.484375 62.9375 28.21875 63.125 
Q 28.953125 63.328125 30.03125 63.40625 
Q 31.109375 63.484375 32.5625 63.484375 
Q 34.1875 63.484375 35.375 63.359375 
Q 36.578125 63.234375 37.296875 63.03125 
Q 38.03125 62.84375 38.421875 62.515625 
Q 38.8125 62.203125 38.8125 61.765625 
L 38.8125 21.4375 
L 45.953125 21.4375 
Q 46.78125 21.4375 47.28125 20.578125 
Q 47.796875 19.734375 47.796875 17.96875 
z
M 30.671875 56.109375 
L 30.5625 56.109375 
L 10.015625 21.4375 
L 30.671875 21.4375 
z
" id="Calibri-34"/>
      </defs>
      <g transform="translate(255.40815 393.442813)scale(0.18 -0.18)">
       <use xlink:href="#Calibri-30"/>
       <use x="50.683594" xlink:href="#Calibri-2e"/>
       <use x="75.927734" xlink:href="#Calibri-34"/>
      </g>
     </g>
    </g>
    <g id="xtick_4">
     <g id="line2d_7">
      <path clip-path="url(#p8ce8c9babe)" d="M 362.4596 369.7 
L 362.4596 14.218161 
" style="fill:none;stroke:#bfbfbf;stroke-linecap:square;stroke-width:0.8;"/>
     </g>
     <g id="line2d_8">
      <g>
       <use style="stroke:#000000;stroke-width:0.8;" x="362.4596" xlink:href="#m2e98a92468" y="369.7"/>
      </g>
     </g>
     <g id="text_4">
      <!-- 0.6 -->
      <defs>
       <path d="M 46.734375 20.453125 
Q 46.734375 16.3125 45.453125 12.421875 
Q 44.1875 8.546875 41.546875 5.59375 
Q 38.921875 2.640625 34.859375 0.859375 
Q 30.8125 -0.921875 25.296875 -0.921875 
Q 21.34375 -0.921875 18.3125 0.046875 
Q 15.28125 1.03125 13.03125 2.828125 
Q 10.796875 4.640625 9.296875 7.265625 
Q 7.8125 9.90625 6.90625 13.28125 
Q 6 16.65625 5.609375 20.65625 
Q 5.21875 24.65625 5.21875 29.25 
Q 5.21875 33.296875 5.65625 37.453125 
Q 6.109375 41.609375 7.21875 45.453125 
Q 8.34375 49.3125 10.265625 52.703125 
Q 12.203125 56.109375 15.109375 58.625 
Q 18.015625 61.140625 22.0625 62.59375 
Q 26.125 64.0625 31.5 64.0625 
Q 33.296875 64.0625 35.15625 63.84375 
Q 37.015625 63.625 38.578125 63.25 
Q 40.140625 62.890625 41.203125 62.453125 
Q 42.28125 62.015625 42.625 61.734375 
Q 42.96875 61.46875 43.140625 61.15625 
Q 43.3125 60.84375 43.40625 60.46875 
Q 43.5 60.109375 43.546875 59.640625 
Q 43.609375 59.1875 43.609375 58.5 
Q 43.609375 57.625 43.578125 56.984375 
Q 43.5625 56.34375 43.390625 55.953125 
Q 43.21875 55.5625 42.9375 55.359375 
Q 42.671875 55.171875 42.234375 55.171875 
Q 41.703125 55.171875 40.765625 55.515625 
Q 39.84375 55.859375 38.515625 56.265625 
Q 37.203125 56.6875 35.328125 57.03125 
Q 33.453125 57.375 30.953125 57.375 
Q 26.421875 57.375 23.140625 55.515625 
Q 19.875 53.65625 17.796875 50.53125 
Q 15.71875 47.40625 14.71875 43.28125 
Q 13.71875 39.15625 13.578125 34.671875 
Q 14.84375 35.40625 16.421875 36.125 
Q 18.015625 36.859375 19.890625 37.4375 
Q 21.78125 38.03125 23.875 38.390625 
Q 25.984375 38.765625 28.375 38.765625 
Q 33.5 38.765625 37.015625 37.375 
Q 40.53125 35.984375 42.703125 33.515625 
Q 44.875 31.0625 45.796875 27.703125 
Q 46.734375 24.359375 46.734375 20.453125 
z
M 38.234375 19.671875 
Q 38.234375 22.515625 37.671875 24.828125 
Q 37.109375 27.15625 35.78125 28.765625 
Q 34.46875 30.375 32.265625 31.25 
Q 30.078125 32.125 26.859375 32.125 
Q 25.046875 32.125 23.234375 31.8125 
Q 21.4375 31.5 19.75 30.9375 
Q 18.0625 30.375 16.515625 29.609375 
Q 14.984375 28.859375 13.71875 27.984375 
Q 13.71875 21.6875 14.515625 17.4375 
Q 15.328125 13.1875 16.859375 10.625 
Q 18.40625 8.0625 20.703125 6.953125 
Q 23 5.859375 26.078125 5.859375 
Q 29.203125 5.859375 31.5 7.03125 
Q 33.796875 8.203125 35.296875 10.171875 
Q 36.8125 12.15625 37.515625 14.625 
Q 38.234375 17.09375 38.234375 19.671875 
z
" id="Calibri-36"/>
      </defs>
      <g transform="translate(351.06335 393.442813)scale(0.18 -0.18)">
       <use xlink:href="#Calibri-30"/>
       <use x="50.683594" xlink:href="#Calibri-2e"/>
       <use x="75.927734" xlink:href="#Calibri-36"/>
      </g>
     </g>
    </g>
    <g id="xtick_5">
     <g id="line2d_9">
      <path clip-path="url(#p8ce8c9babe)" d="M 458.1148 369.7 
L 458.1148 14.218161 
" style="fill:none;stroke:#bfbfbf;stroke-linecap:square;stroke-width:0.8;"/>
     </g>
     <g id="line2d_10">
      <g>
       <use style="stroke:#000000;stroke-width:0.8;" x="458.1148" xlink:href="#m2e98a92468" y="369.7"/>
      </g>
     </g>
     <g id="text_5">
      <!-- 0.8 -->
      <defs>
       <path d="M 46.578125 16.21875 
Q 46.578125 12.109375 45.109375 8.90625 
Q 43.65625 5.71875 40.890625 3.515625 
Q 38.140625 1.3125 34.078125 0.1875 
Q 30.03125 -0.921875 24.8125 -0.921875 
Q 19.921875 -0.921875 16.0625 0.09375 
Q 12.203125 1.125 9.515625 3.125 
Q 6.84375 5.125 5.421875 8.046875 
Q 4 10.984375 4 14.75 
Q 4 17.71875 4.96875 20.203125 
Q 5.953125 22.703125 7.78125 24.796875 
Q 9.625 26.90625 12.296875 28.734375 
Q 14.984375 30.5625 18.359375 32.234375 
Q 15.4375 33.734375 13.1875 35.421875 
Q 10.9375 37.109375 9.375 39.078125 
Q 7.8125 41.0625 7 43.3125 
Q 6.203125 45.5625 6.203125 48.1875 
Q 6.203125 51.515625 7.390625 54.421875 
Q 8.59375 57.328125 11 59.46875 
Q 13.421875 61.625 17.15625 62.859375 
Q 20.90625 64.109375 25.875 64.109375 
Q 30.671875 64.109375 34.15625 62.953125 
Q 37.640625 61.8125 39.90625 59.828125 
Q 42.1875 57.859375 43.265625 55.171875 
Q 44.34375 52.484375 44.34375 49.421875 
Q 44.34375 46.921875 43.53125 44.625 
Q 42.71875 42.328125 41.15625 40.28125 
Q 39.59375 38.234375 37.328125 36.453125 
Q 35.0625 34.671875 32.125 33.109375 
Q 35.59375 31.390625 38.296875 29.578125 
Q 41.015625 27.78125 42.84375 25.703125 
Q 44.671875 23.640625 45.625 21.3125 
Q 46.578125 19 46.578125 16.21875 
z
M 36.03125 48.640625 
Q 36.03125 50.6875 35.328125 52.34375 
Q 34.625 54 33.25 55.171875 
Q 31.890625 56.34375 29.859375 56.953125 
Q 27.828125 57.5625 25.25 57.5625 
Q 19.96875 57.5625 17.25 55.171875 
Q 14.546875 52.78125 14.546875 48.640625 
Q 14.546875 46.734375 15.203125 45.09375 
Q 15.875 43.453125 17.265625 41.984375 
Q 18.65625 40.53125 20.78125 39.140625 
Q 22.90625 37.75 25.828125 36.234375 
Q 30.765625 38.765625 33.390625 41.84375 
Q 36.03125 44.921875 36.03125 48.640625 
z
M 38.09375 15.328125 
Q 38.09375 17.578125 37.25 19.40625 
Q 36.421875 21.234375 34.734375 22.828125 
Q 33.0625 24.421875 30.546875 25.90625 
Q 28.03125 27.390625 24.703125 29 
Q 21.625 27.484375 19.3125 25.96875 
Q 17 24.46875 15.5 22.84375 
Q 14.015625 21.234375 13.25 19.453125 
Q 12.5 17.671875 12.5 15.53125 
Q 12.5 10.796875 15.75 8.203125 
Q 19 5.609375 25.4375 5.609375 
Q 31.6875 5.609375 34.890625 8.21875 
Q 38.09375 10.84375 38.09375 15.328125 
z
" id="Calibri-38"/>
      </defs>
      <g transform="translate(446.71855 393.442813)scale(0.18 -0.18)">
       <use xlink:href="#Calibri-30"/>
       <use x="50.683594" xlink:href="#Calibri-2e"/>
       <use x="75.927734" xlink:href="#Calibri-38"/>
      </g>
     </g>
    </g>
    <g id="xtick_6">
     <g id="line2d_11">
      <path clip-path="url(#p8ce8c9babe)" d="M 553.77 369.7 
L 553.77 14.218161 
" style="fill:none;stroke:#bfbfbf;stroke-linecap:square;stroke-width:0.8;"/>
     </g>
     <g id="line2d_12">
      <g>
       <use style="stroke:#000000;stroke-width:0.8;" x="553.77" xlink:href="#m2e98a92468" y="369.7"/>
      </g>
     </g>
     <g id="text_6">
      <!-- 1.0 -->
      <defs>
       <path d="M 45.265625 3.328125 
Q 45.265625 2.390625 45.109375 1.75 
Q 44.96875 1.125 44.71875 0.734375 
Q 44.484375 0.34375 44.15625 0.171875 
Q 43.84375 0 43.5 0 
L 10.5 0 
Q 10.15625 0 9.859375 0.171875 
Q 9.578125 0.34375 9.296875 0.734375 
Q 9.03125 1.125 8.875 1.75 
Q 8.734375 2.390625 8.734375 3.328125 
Q 8.734375 4.203125 8.875 4.828125 
Q 9.03125 5.46875 9.25 5.875 
Q 9.46875 6.296875 9.78125 6.515625 
Q 10.109375 6.734375 10.5 6.734375 
L 23.6875 6.734375 
L 23.6875 54.78125 
L 11.46875 47.515625 
Q 10.546875 47.015625 9.984375 46.921875 
Q 9.421875 46.828125 9.078125 47.140625 
Q 8.734375 47.46875 8.609375 48.1875 
Q 8.5 48.921875 8.5 50.046875 
Q 8.5 50.875 8.5625 51.453125 
Q 8.640625 52.046875 8.78125 52.4375 
Q 8.9375 52.828125 9.203125 53.125 
Q 9.46875 53.421875 9.90625 53.71875 
L 24.46875 63.03125 
Q 24.65625 63.1875 24.953125 63.28125 
Q 25.25 63.375 25.6875 63.46875 
Q 26.125 63.578125 26.703125 63.59375 
Q 27.296875 63.625 28.171875 63.625 
Q 29.34375 63.625 30.125 63.515625 
Q 30.90625 63.421875 31.34375 63.25 
Q 31.78125 63.09375 31.921875 62.8125 
Q 32.078125 62.546875 32.078125 62.25 
L 32.078125 6.734375 
L 43.5 6.734375 
Q 43.890625 6.734375 44.234375 6.515625 
Q 44.578125 6.296875 44.796875 5.875 
Q 45.015625 5.46875 45.140625 4.828125 
Q 45.265625 4.203125 45.265625 3.328125 
z
" id="Calibri-31"/>
      </defs>
      <g transform="translate(542.37375 393.442813)scale(0.18 -0.18)">
       <use xlink:href="#Calibri-31"/>
       <use x="50.683594" xlink:href="#Calibri-2e"/>
       <use x="75.927734" xlink:href="#Calibri-30"/>
      </g>
     </g>
    </g>
    <g id="xtick_7">
     <g id="line2d_13">
      <defs>
       <path d="M 0 0 
L 0 2 
" id="md6dd2d20ce" style="stroke:#000000;stroke-width:0.6;"/>
      </defs>
      <g>
       <use style="stroke:#000000;stroke-width:0.6;" x="99.4078" xlink:href="#md6dd2d20ce" y="369.7"/>
      </g>
     </g>
    </g>
    <g id="xtick_8">
     <g id="line2d_14">
      <g>
       <use style="stroke:#000000;stroke-width:0.6;" x="123.3216" xlink:href="#md6dd2d20ce" y="369.7"/>
      </g>
     </g>
    </g>
    <g id="xtick_9">
     <g id="line2d_15">
      <g>
       <use style="stroke:#000000;stroke-width:0.6;" x="147.2354" xlink:href="#md6dd2d20ce" y="369.7"/>
      </g>
     </g>
    </g>
    <g id="xtick_10">
     <g id="line2d_16">
      <g>
       <use style="stroke:#000000;stroke-width:0.6;" x="195.063" xlink:href="#md6dd2d20ce" y="369.7"/>
      </g>
     </g>
    </g>
    <g id="xtick_11">
     <g id="line2d_17">
      <g>
       <use style="stroke:#000000;stroke-width:0.6;" x="218.9768" xlink:href="#md6dd2d20ce" y="369.7"/>
      </g>
     </g>
    </g>
    <g id="xtick_12">
     <g id="line2d_18">
      <g>
       <use style="stroke:#000000;stroke-width:0.6;" x="242.8906" xlink:href="#md6dd2d20ce" y="369.7"/>
      </g>
     </g>
    </g>
    <g id="xtick_13">
     <g id="line2d_19">
      <g>
       <use style="stroke:#000000;stroke-width:0.6;" x="290.7182" xlink:href="#md6dd2d20ce" y="369.7"/>
      </g>
     </g>
    </g>
    <g id="xtick_14">
     <g id="line2d_20">
      <g>
       <use style="stroke:#000000;stroke-width:0.6;" x="314.632" xlink:href="#md6dd2d20ce" y="369.7"/>
      </g>
     </g>
    </g>
    <g id="xtick_15">
     <g id="line2d_21">
      <g>
       <use style="stroke:#000000;stroke-width:0.6;" x="338.5458" xlink:href="#md6dd2d20ce" y="369.7"/>
      </g>
     </g>
    </g>
    <g id="xtick_16">
     <g id="line2d_22">
      <g>
       <use style="stroke:#000000;stroke-width:0.6;" x="386.3734" xlink:href="#md6dd2d20ce" y="369.7"/>
      </g>
     </g>
    </g>
    <g id="xtick_17">
     <g id="line2d_23">
      <g>
       <use style="stroke:#000000;stroke-width:0.6;" x="410.2872" xlink:href="#md6dd2d20ce" y="369.7"/>
      </g>
     </g>
    </g>
    <g id="xtick_18">
     <g id="line2d_24">
      <g>
       <use style="stroke:#000000;stroke-width:0.6;" x="434.201" xlink:href="#md6dd2d20ce" y="369.7"/>
      </g>
     </g>
    </g>
    <g id="xtick_19">
     <g id="line2d_25">
      <g>
       <use style="stroke:#000000;stroke-width:0.6;" x="482.0286" xlink:href="#md6dd2d20ce" y="369.7"/>
      </g>
     </g>
    </g>
    <g id="xtick_20">
     <g id="line2d_26">
      <g>
       <use style="stroke:#000000;stroke-width:0.6;" x="505.9424" xlink:href="#md6dd2d20ce" y="369.7"/>
      </g>
     </g>
    </g>
    <g id="xtick_21">
     <g id="line2d_27">
      <g>
       <use style="stroke:#000000;stroke-width:0.6;" x="529.8562" xlink:href="#md6dd2d20ce" y="369.7"/>
      </g>
     </g>
    </g>
    <g id="text_7">
     <!-- $x=\sin \phi$ -->
     <defs>
      <path d="M 27.203125 23.640625 
L 36.765625 2.15625 
Q 37.0625 1.46875 36.984375 1 
Q 36.921875 0.53125 36.375 0.234375 
Q 35.84375 -0.046875 34.890625 -0.171875 
Q 33.9375 -0.296875 32.421875 -0.296875 
Q 31.0625 -0.296875 30.28125 -0.21875 
Q 29.5 -0.140625 29.046875 0.03125 
Q 28.609375 0.203125 28.46875 0.46875 
Q 28.328125 0.734375 28.171875 1.078125 
L 20.84375 18.40625 
L 7.03125 1.078125 
Q 6.734375 0.734375 6.421875 0.46875 
Q 6.109375 0.203125 5.515625 0.046875 
Q 4.9375 -0.09375 4.03125 -0.1875 
Q 3.125 -0.296875 1.65625 -0.296875 
Q 0.25 -0.296875 -0.625 -0.171875 
Q -1.515625 -0.046875 -1.921875 0.234375 
Q -2.34375 0.53125 -2.265625 0.96875 
Q -2.203125 1.421875 -1.703125 2.09375 
L 16.546875 23.78125 
L 7.515625 44.28125 
Q 7.234375 44.96875 7.28125 45.4375 
Q 7.328125 45.90625 7.78125 46.1875 
Q 8.25 46.484375 9.171875 46.578125 
Q 10.109375 46.6875 11.625 46.6875 
Q 12.984375 46.6875 13.765625 46.609375 
Q 14.546875 46.53125 14.953125 46.375 
Q 15.375 46.234375 15.546875 45.984375 
Q 15.71875 45.75 15.875 45.40625 
L 22.859375 29 
L 36.03125 45.40625 
Q 36.328125 45.703125 36.625 45.9375 
Q 36.921875 46.1875 37.453125 46.359375 
Q 37.984375 46.53125 38.78125 46.609375 
Q 39.59375 46.6875 40.921875 46.6875 
Q 42.390625 46.6875 43.3125 46.578125 
Q 44.234375 46.484375 44.671875 46.234375 
Q 45.125 46 45.046875 45.53125 
Q 44.96875 45.0625 44.34375 44.390625 
z
" id="Calibri-Italic-78"/>
      <path d="M 45.171875 37.640625 
Q 45.171875 35.6875 44.609375 34.9375 
Q 44.046875 34.1875 43.3125 34.1875 
L 6.390625 34.1875 
Q 5.671875 34.1875 5.125 34.9375 
Q 4.59375 35.6875 4.59375 37.640625 
Q 4.59375 39.40625 5.078125 40.234375 
Q 5.5625 41.0625 6.390625 41.0625 
L 43.3125 41.0625 
Q 44.1875 41.0625 44.671875 40.234375 
Q 45.171875 39.40625 45.171875 37.640625 
z
M 45.171875 18.65625 
Q 45.171875 16.703125 44.609375 15.96875 
Q 44.046875 15.234375 43.3125 15.234375 
L 6.390625 15.234375 
Q 5.671875 15.234375 5.125 15.96875 
Q 4.59375 16.703125 4.59375 18.65625 
Q 4.59375 20.453125 5.078125 21.28125 
Q 5.5625 22.125 6.390625 22.125 
L 43.3125 22.125 
Q 44.1875 22.125 44.671875 21.28125 
Q 45.171875 20.453125 45.171875 18.65625 
z
" id="Calibri-3d"/>
      <path d="M 35.0625 13.1875 
Q 35.0625 9.8125 33.8125 7.171875 
Q 32.5625 4.546875 30.265625 2.734375 
Q 27.984375 0.921875 24.796875 0 
Q 21.625 -0.921875 17.828125 -0.921875 
Q 15.484375 -0.921875 13.359375 -0.5625 
Q 11.234375 -0.203125 9.546875 0.359375 
Q 7.859375 0.921875 6.6875 1.53125 
Q 5.515625 2.15625 4.96875 2.640625 
Q 4.4375 3.125 4.1875 4 
Q 3.953125 4.890625 3.953125 6.390625 
Q 3.953125 7.328125 4.046875 7.953125 
Q 4.15625 8.59375 4.296875 8.984375 
Q 4.4375 9.375 4.703125 9.546875 
Q 4.984375 9.71875 5.328125 9.71875 
Q 5.859375 9.71875 6.90625 9.0625 
Q 7.953125 8.40625 9.484375 7.625 
Q 11.03125 6.84375 13.125 6.171875 
Q 15.234375 5.515625 17.96875 5.515625 
Q 20.015625 5.515625 21.671875 5.953125 
Q 23.34375 6.390625 24.5625 7.25 
Q 25.78125 8.109375 26.4375 9.421875 
Q 27.09375 10.75 27.09375 12.546875 
Q 27.09375 14.40625 26.140625 15.671875 
Q 25.203125 16.9375 23.640625 17.90625 
Q 22.078125 18.890625 20.125 19.640625 
Q 18.171875 20.40625 16.09375 21.234375 
Q 14.015625 22.078125 12.03125 23.125 
Q 10.0625 24.171875 8.5 25.6875 
Q 6.9375 27.203125 5.984375 29.296875 
Q 5.03125 31.390625 5.03125 34.328125 
Q 5.03125 36.921875 6.03125 39.28125 
Q 7.03125 41.65625 9.03125 43.4375 
Q 11.03125 45.21875 14.03125 46.28125 
Q 17.046875 47.359375 21.046875 47.359375 
Q 22.796875 47.359375 24.546875 47.0625 
Q 26.3125 46.78125 27.734375 46.34375 
Q 29.15625 45.90625 30.15625 45.390625 
Q 31.15625 44.875 31.65625 44.484375 
Q 32.171875 44.09375 32.34375 43.796875 
Q 32.515625 43.5 32.59375 43.140625 
Q 32.671875 42.78125 32.734375 42.234375 
Q 32.8125 41.703125 32.8125 40.921875 
Q 32.8125 40.09375 32.734375 39.484375 
Q 32.671875 38.875 32.5 38.484375 
Q 32.328125 38.09375 32.078125 37.921875 
Q 31.84375 37.75 31.546875 37.75 
Q 31.109375 37.75 30.265625 38.28125 
Q 29.4375 38.8125 28.125 39.421875 
Q 26.8125 40.046875 25.03125 40.578125 
Q 23.25 41.109375 20.953125 41.109375 
Q 18.890625 41.109375 17.328125 40.640625 
Q 15.765625 40.1875 14.765625 39.328125 
Q 13.765625 38.484375 13.25 37.3125 
Q 12.75 36.140625 12.75 34.765625 
Q 12.75 32.859375 13.71875 31.5625 
Q 14.703125 30.28125 16.265625 29.296875 
Q 17.828125 28.328125 19.828125 27.546875 
Q 21.828125 26.765625 23.90625 25.921875 
Q 25.984375 25.09375 28 24.0625 
Q 30.03125 23.046875 31.59375 21.578125 
Q 33.15625 20.125 34.109375 18.0625 
Q 35.0625 16.015625 35.0625 13.1875 
z
" id="Calibri-73"/>
      <path d="M 15.53125 1.21875 
Q 15.53125 0.828125 15.328125 0.5625 
Q 15.140625 0.296875 14.703125 0.09375 
Q 14.265625 -0.09375 13.484375 -0.1875 
Q 12.703125 -0.296875 11.46875 -0.296875 
Q 10.296875 -0.296875 9.515625 -0.1875 
Q 8.734375 -0.09375 8.265625 0.09375 
Q 7.8125 0.296875 7.640625 0.5625 
Q 7.46875 0.828125 7.46875 1.21875 
L 7.46875 45.171875 
Q 7.46875 45.515625 7.640625 45.796875 
Q 7.8125 46.09375 8.265625 46.28125 
Q 8.734375 46.484375 9.515625 46.578125 
Q 10.296875 46.6875 11.46875 46.6875 
Q 12.703125 46.6875 13.484375 46.578125 
Q 14.265625 46.484375 14.703125 46.28125 
Q 15.140625 46.09375 15.328125 45.796875 
Q 15.53125 45.515625 15.53125 45.171875 
z
M 16.453125 60.015625 
Q 16.453125 57.171875 15.375 56.140625 
Q 14.3125 55.125 11.421875 55.125 
Q 8.59375 55.125 7.546875 56.125 
Q 6.5 57.125 6.5 59.90625 
Q 6.5 62.75 7.5625 63.765625 
Q 8.640625 64.796875 11.53125 64.796875 
Q 14.359375 64.796875 15.40625 63.796875 
Q 16.453125 62.796875 16.453125 60.015625 
z
" id="Calibri-69"/>
      <path d="M 45.3125 1.21875 
Q 45.3125 0.828125 45.109375 0.5625 
Q 44.921875 0.296875 44.484375 0.09375 
Q 44.046875 -0.09375 43.265625 -0.1875 
Q 42.484375 -0.296875 41.3125 -0.296875 
Q 40.09375 -0.296875 39.3125 -0.1875 
Q 38.53125 -0.09375 38.078125 0.09375 
Q 37.640625 0.296875 37.4375 0.5625 
Q 37.25 0.828125 37.25 1.21875 
L 37.25 26.953125 
Q 37.25 30.71875 36.65625 33 
Q 36.078125 35.296875 34.953125 36.953125 
Q 33.84375 38.625 32.0625 39.5 
Q 30.28125 40.375 27.9375 40.375 
Q 24.90625 40.375 21.875 38.21875 
Q 18.84375 36.078125 15.53125 31.9375 
L 15.53125 1.21875 
Q 15.53125 0.828125 15.328125 0.5625 
Q 15.140625 0.296875 14.703125 0.09375 
Q 14.265625 -0.09375 13.484375 -0.1875 
Q 12.703125 -0.296875 11.46875 -0.296875 
Q 10.296875 -0.296875 9.515625 -0.1875 
Q 8.734375 -0.09375 8.265625 0.09375 
Q 7.8125 0.296875 7.640625 0.5625 
Q 7.46875 0.828125 7.46875 1.21875 
L 7.46875 45.171875 
Q 7.46875 45.5625 7.609375 45.828125 
Q 7.765625 46.09375 8.203125 46.3125 
Q 8.640625 46.53125 9.328125 46.609375 
Q 10.015625 46.6875 11.140625 46.6875 
Q 12.203125 46.6875 12.90625 46.609375 
Q 13.625 46.53125 14.015625 46.3125 
Q 14.40625 46.09375 14.578125 45.828125 
Q 14.75 45.5625 14.75 45.171875 
L 14.75 39.359375 
Q 18.453125 43.5 22.140625 45.421875 
Q 25.828125 47.359375 29.59375 47.359375 
Q 33.984375 47.359375 36.984375 45.875 
Q 39.984375 44.390625 41.84375 41.890625 
Q 43.703125 39.40625 44.5 36.0625 
Q 45.3125 32.71875 45.3125 28.03125 
z
" id="Calibri-6e"/>
      <path d="M 23.78125 -0.921875 
Q 14.15625 -0.34375 8.875 4.03125 
Q 3.609375 8.40625 3.609375 16.609375 
Q 3.609375 19.78125 4.21875 23.21875 
Q 4.828125 26.65625 6.21875 29.953125 
Q 7.625 33.25 9.859375 36.25 
Q 12.109375 39.265625 15.421875 41.609375 
Q 18.75 43.953125 23.21875 45.484375 
Q 27.6875 47.015625 33.453125 47.3125 
L 37.3125 66.453125 
Q 37.359375 66.84375 37.625 67.140625 
Q 37.890625 67.4375 38.375 67.625 
Q 38.875 67.828125 39.703125 67.921875 
Q 40.53125 68.015625 41.703125 68.015625 
Q 44.046875 68.015625 44.78125 67.625 
Q 45.515625 67.234375 45.40625 66.453125 
L 41.5 47.3125 
Q 51.46875 46.734375 56.59375 42.28125 
Q 61.71875 37.84375 61.71875 29.890625 
Q 61.71875 26.65625 61.125 23.21875 
Q 60.546875 19.78125 59.15625 16.453125 
Q 57.765625 13.140625 55.484375 10.125 
Q 53.21875 7.125 49.890625 4.78125 
Q 46.578125 2.4375 42.078125 0.890625 
Q 37.59375 -0.640625 31.84375 -0.921875 
L 28.8125 -16.21875 
Q 28.65625 -16.609375 28.4375 -16.890625 
Q 28.21875 -17.1875 27.734375 -17.375 
Q 27.25 -17.578125 26.4375 -17.671875 
Q 25.640625 -17.78125 24.515625 -17.78125 
Q 22.3125 -17.78125 21.40625 -17.40625 
Q 20.515625 -17.046875 20.703125 -16.21875 
z
M 33.15625 5.671875 
Q 37.59375 5.953125 40.8125 7.3125 
Q 44.046875 8.6875 46.28125 10.71875 
Q 48.53125 12.75 49.921875 15.234375 
Q 51.3125 17.71875 52.09375 20.203125 
Q 52.875 22.703125 53.140625 25 
Q 53.421875 27.296875 53.421875 29 
Q 53.421875 30.8125 52.984375 32.78125 
Q 52.546875 34.765625 51.140625 36.421875 
Q 49.75 38.09375 47.140625 39.28125 
Q 44.53125 40.484375 40.140625 40.71875 
z
M 32.171875 40.71875 
Q 27.734375 40.4375 24.515625 39.0625 
Q 21.296875 37.703125 19.046875 35.671875 
Q 16.796875 33.640625 15.40625 31.140625 
Q 14.015625 28.65625 13.234375 26.1875 
Q 12.453125 23.734375 12.1875 21.390625 
Q 11.921875 19.046875 11.921875 17.390625 
Q 11.921875 15.578125 12.359375 13.59375 
Q 12.796875 11.625 14.1875 9.953125 
Q 15.578125 8.296875 18.1875 7.09375 
Q 20.796875 5.90625 25.203125 5.671875 
z
" id="Calibri-Italic-3d5"/>
     </defs>
     <g transform="translate(285.657 413.753438)scale(0.19 -0.19)">
      <use transform="translate(0 0.984375)" xlink:href="#Calibri-Italic-78"/>
      <use transform="translate(59.130859 0.984375)" xlink:href="#Calibri-3d"/>
      <use transform="translate(124.755859 0.984375)" xlink:href="#Calibri-73"/>
      <use transform="translate(163.867188 0.984375)" xlink:href="#Calibri-69"/>
      <use transform="translate(186.816406 0.984375)" xlink:href="#Calibri-6e"/>
      <use transform="translate(239.355469 0.984375)" xlink:href="#Calibri-Italic-3d5"/>
     </g>
    </g>
   </g>
   <g id="matplotlib.axis_2">
    <g id="ytick_1">
     <g id="line2d_28">
      <path clip-path="url(#p8ce8c9babe)" d="M 75.494 356.153413 
L 553.77 356.153413 
" style="fill:none;stroke:#bfbfbf;stroke-linecap:square;stroke-width:0.8;"/>
     </g>
     <g id="line2d_29">
      <defs>
       <path d="M 0 0 
L -3.5 0 
" id="m18e5d71e1b" style="stroke:#000000;stroke-width:0.8;"/>
      </defs>
      <g>
       <use style="stroke:#000000;stroke-width:0.8;" x="75.494" xlink:href="#m18e5d71e1b" y="356.153413"/>
      </g>
     </g>
     <g id="text_8">
      <!-- −40 -->
      <defs>
       <path d="M 45.84375 28.078125 
Q 45.84375 26.265625 45.375 25.4375 
Q 44.921875 24.609375 44.046875 24.609375 
L 5.5625 24.609375 
Q 4.640625 24.609375 4.171875 25.4375 
Q 3.71875 26.265625 3.71875 28.078125 
Q 3.71875 29.828125 4.171875 30.6875 
Q 4.640625 31.546875 5.5625 31.546875 
L 44.046875 31.546875 
Q 44.921875 31.546875 45.375 30.71875 
Q 45.84375 29.890625 45.84375 28.078125 
z
" id="Calibri-2212"/>
      </defs>
      <g transform="translate(36.78025 362.274819)scale(0.18 -0.18)">
       <use xlink:href="#Calibri-2212"/>
       <use x="49.804688" xlink:href="#Calibri-34"/>
       <use x="100.488281" xlink:href="#Calibri-30"/>
      </g>
     </g>
    </g>
    <g id="ytick_2">
     <g id="line2d_30">
      <path clip-path="url(#p8ce8c9babe)" d="M 75.494 313.772428 
L 553.77 313.772428 
" style="fill:none;stroke:#bfbfbf;stroke-linecap:square;stroke-width:0.8;"/>
     </g>
     <g id="line2d_31">
      <g>
       <use style="stroke:#000000;stroke-width:0.8;" x="75.494" xlink:href="#m18e5d71e1b" y="313.772428"/>
      </g>
     </g>
     <g id="text_9">
      <!-- −20 -->
      <g transform="translate(36.78025 319.893834)scale(0.18 -0.18)">
       <use xlink:href="#Calibri-2212"/>
       <use x="49.804688" xlink:href="#Calibri-32"/>
       <use x="100.488281" xlink:href="#Calibri-30"/>
      </g>
     </g>
    </g>
    <g id="ytick_3">
     <g id="line2d_32">
      <path clip-path="url(#p8ce8c9babe)" d="M 75.494 271.391443 
L 553.77 271.391443 
" style="fill:none;stroke:#bfbfbf;stroke-linecap:square;stroke-width:0.8;"/>
     </g>
     <g id="line2d_33">
      <g>
       <use style="stroke:#000000;stroke-width:0.8;" x="75.494" xlink:href="#m18e5d71e1b" y="271.391443"/>
      </g>
     </g>
     <g id="text_10">
      <!-- 0 -->
      <g transform="translate(54.87025 277.512849)scale(0.18 -0.18)">
       <use xlink:href="#Calibri-30"/>
      </g>
     </g>
    </g>
    <g id="ytick_4">
     <g id="line2d_34">
      <path clip-path="url(#p8ce8c9babe)" d="M 75.494 229.010457 
L 553.77 229.010457 
" style="fill:none;stroke:#bfbfbf;stroke-linecap:square;stroke-width:0.8;"/>
     </g>
     <g id="line2d_35">
      <g>
       <use style="stroke:#000000;stroke-width:0.8;" x="75.494" xlink:href="#m18e5d71e1b" y="229.010457"/>
      </g>
     </g>
     <g id="text_11">
      <!-- 20 -->
      <g transform="translate(45.7465 235.131864)scale(0.18 -0.18)">
       <use xlink:href="#Calibri-32"/>
       <use x="50.683594" xlink:href="#Calibri-30"/>
      </g>
     </g>
    </g>
    <g id="ytick_5">
     <g id="line2d_36">
      <path clip-path="url(#p8ce8c9babe)" d="M 75.494 186.629472 
L 553.77 186.629472 
" style="fill:none;stroke:#bfbfbf;stroke-linecap:square;stroke-width:0.8;"/>
     </g>
     <g id="line2d_37">
      <g>
       <use style="stroke:#000000;stroke-width:0.8;" x="75.494" xlink:href="#m18e5d71e1b" y="186.629472"/>
      </g>
     </g>
     <g id="text_12">
      <!-- 40 -->
      <g transform="translate(45.7465 192.750878)scale(0.18 -0.18)">
       <use xlink:href="#Calibri-34"/>
       <use x="50.683594" xlink:href="#Calibri-30"/>
      </g>
     </g>
    </g>
    <g id="ytick_6">
     <g id="line2d_38">
      <path clip-path="url(#p8ce8c9babe)" d="M 75.494 144.248487 
L 553.77 144.248487 
" style="fill:none;stroke:#bfbfbf;stroke-linecap:square;stroke-width:0.8;"/>
     </g>
     <g id="line2d_39">
      <g>
       <use style="stroke:#000000;stroke-width:0.8;" x="75.494" xlink:href="#m18e5d71e1b" y="144.248487"/>
      </g>
     </g>
     <g id="text_13">
      <!-- 60 -->
      <g transform="translate(45.7465 150.369893)scale(0.18 -0.18)">
       <use xlink:href="#Calibri-36"/>
       <use x="50.683594" xlink:href="#Calibri-30"/>
      </g>
     </g>
    </g>
    <g id="ytick_7">
     <g id="line2d_40">
      <path clip-path="url(#p8ce8c9babe)" d="M 75.494 101.867501 
L 553.77 101.867501 
" style="fill:none;stroke:#bfbfbf;stroke-linecap:square;stroke-width:0.8;"/>
     </g>
     <g id="line2d_41">
      <g>
       <use style="stroke:#000000;stroke-width:0.8;" x="75.494" xlink:href="#m18e5d71e1b" y="101.867501"/>
      </g>
     </g>
     <g id="text_14">
      <!-- 80 -->
      <g transform="translate(45.7465 107.988908)scale(0.18 -0.18)">
       <use xlink:href="#Calibri-38"/>
       <use x="50.683594" xlink:href="#Calibri-30"/>
      </g>
     </g>
    </g>
    <g id="ytick_8">
     <g id="line2d_42">
      <path clip-path="url(#p8ce8c9babe)" d="M 75.494 59.486516 
L 553.77 59.486516 
" style="fill:none;stroke:#bfbfbf;stroke-linecap:square;stroke-width:0.8;"/>
     </g>
     <g id="line2d_43">
      <g>
       <use style="stroke:#000000;stroke-width:0.8;" x="75.494" xlink:href="#m18e5d71e1b" y="59.486516"/>
      </g>
     </g>
     <g id="text_15">
      <!-- 100 -->
      <g transform="translate(36.62275 65.607922)scale(0.18 -0.18)">
       <use xlink:href="#Calibri-31"/>
       <use x="50.683594" xlink:href="#Calibri-30"/>
       <use x="101.367188" xlink:href="#Calibri-30"/>
      </g>
     </g>
    </g>
    <g id="ytick_9">
     <g id="line2d_44">
      <path clip-path="url(#p8ce8c9babe)" d="M 75.494 17.105531 
L 553.77 17.105531 
" style="fill:none;stroke:#bfbfbf;stroke-linecap:square;stroke-width:0.8;"/>
     </g>
     <g id="line2d_45">
      <g>
       <use style="stroke:#000000;stroke-width:0.8;" x="75.494" xlink:href="#m18e5d71e1b" y="17.105531"/>
      </g>
     </g>
     <g id="text_16">
      <!-- 120 -->
      <g transform="translate(36.62275 23.226937)scale(0.18 -0.18)">
       <use xlink:href="#Calibri-31"/>
       <use x="50.683594" xlink:href="#Calibri-32"/>
       <use x="101.367188" xlink:href="#Calibri-30"/>
      </g>
     </g>
    </g>
    <g id="ytick_10">
     <g id="line2d_46">
      <defs>
       <path d="M 0 0 
L -2 0 
" id="macff40da06" style="stroke:#000000;stroke-width:0.6;"/>
      </defs>
      <g>
       <use style="stroke:#000000;stroke-width:0.6;" x="75.494" xlink:href="#macff40da06" y="366.74866"/>
      </g>
     </g>
    </g>
    <g id="ytick_11">
     <g id="line2d_47">
      <g>
       <use style="stroke:#000000;stroke-width:0.6;" x="75.494" xlink:href="#macff40da06" y="345.558167"/>
      </g>
     </g>
    </g>
    <g id="ytick_12">
     <g id="line2d_48">
      <g>
       <use style="stroke:#000000;stroke-width:0.6;" x="75.494" xlink:href="#macff40da06" y="334.962921"/>
      </g>
     </g>
    </g>
    <g id="ytick_13">
     <g id="line2d_49">
      <g>
       <use style="stroke:#000000;stroke-width:0.6;" x="75.494" xlink:href="#macff40da06" y="324.367674"/>
      </g>
     </g>
    </g>
    <g id="ytick_14">
     <g id="line2d_50">
      <g>
       <use style="stroke:#000000;stroke-width:0.6;" x="75.494" xlink:href="#macff40da06" y="303.177182"/>
      </g>
     </g>
    </g>
    <g id="ytick_15">
     <g id="line2d_51">
      <g>
       <use style="stroke:#000000;stroke-width:0.6;" x="75.494" xlink:href="#macff40da06" y="292.581935"/>
      </g>
     </g>
    </g>
    <g id="ytick_16">
     <g id="line2d_52">
      <g>
       <use style="stroke:#000000;stroke-width:0.6;" x="75.494" xlink:href="#macff40da06" y="281.986689"/>
      </g>
     </g>
    </g>
    <g id="ytick_17">
     <g id="line2d_53">
      <g>
       <use style="stroke:#000000;stroke-width:0.6;" x="75.494" xlink:href="#macff40da06" y="260.796196"/>
      </g>
     </g>
    </g>
    <g id="ytick_18">
     <g id="line2d_54">
      <g>
       <use style="stroke:#000000;stroke-width:0.6;" x="75.494" xlink:href="#macff40da06" y="250.20095"/>
      </g>
     </g>
    </g>
    <g id="ytick_19">
     <g id="line2d_55">
      <g>
       <use style="stroke:#000000;stroke-width:0.6;" x="75.494" xlink:href="#macff40da06" y="239.605704"/>
      </g>
     </g>
    </g>
    <g id="ytick_20">
     <g id="line2d_56">
      <g>
       <use style="stroke:#000000;stroke-width:0.6;" x="75.494" xlink:href="#macff40da06" y="218.415211"/>
      </g>
     </g>
    </g>
    <g id="ytick_21">
     <g id="line2d_57">
      <g>
       <use style="stroke:#000000;stroke-width:0.6;" x="75.494" xlink:href="#macff40da06" y="207.819965"/>
      </g>
     </g>
    </g>
    <g id="ytick_22">
     <g id="line2d_58">
      <g>
       <use style="stroke:#000000;stroke-width:0.6;" x="75.494" xlink:href="#macff40da06" y="197.224718"/>
      </g>
     </g>
    </g>
    <g id="ytick_23">
     <g id="line2d_59">
      <g>
       <use style="stroke:#000000;stroke-width:0.6;" x="75.494" xlink:href="#macff40da06" y="176.034226"/>
      </g>
     </g>
    </g>
    <g id="ytick_24">
     <g id="line2d_60">
      <g>
       <use style="stroke:#000000;stroke-width:0.6;" x="75.494" xlink:href="#macff40da06" y="165.438979"/>
      </g>
     </g>
    </g>
    <g id="ytick_25">
     <g id="line2d_61">
      <g>
       <use style="stroke:#000000;stroke-width:0.6;" x="75.494" xlink:href="#macff40da06" y="154.843733"/>
      </g>
     </g>
    </g>
    <g id="ytick_26">
     <g id="line2d_62">
      <g>
       <use style="stroke:#000000;stroke-width:0.6;" x="75.494" xlink:href="#macff40da06" y="133.65324"/>
      </g>
     </g>
    </g>
    <g id="ytick_27">
     <g id="line2d_63">
      <g>
       <use style="stroke:#000000;stroke-width:0.6;" x="75.494" xlink:href="#macff40da06" y="123.057994"/>
      </g>
     </g>
    </g>
    <g id="ytick_28">
     <g id="line2d_64">
      <g>
       <use style="stroke:#000000;stroke-width:0.6;" x="75.494" xlink:href="#macff40da06" y="112.462748"/>
      </g>
     </g>
    </g>
    <g id="ytick_29">
     <g id="line2d_65">
      <g>
       <use style="stroke:#000000;stroke-width:0.6;" x="75.494" xlink:href="#macff40da06" y="91.272255"/>
      </g>
     </g>
    </g>
    <g id="ytick_30">
     <g id="line2d_66">
      <g>
       <use style="stroke:#000000;stroke-width:0.6;" x="75.494" xlink:href="#macff40da06" y="80.677009"/>
      </g>
     </g>
    </g>
    <g id="ytick_31">
     <g id="line2d_67">
      <g>
       <use style="stroke:#000000;stroke-width:0.6;" x="75.494" xlink:href="#macff40da06" y="70.081762"/>
      </g>
     </g>
    </g>
    <g id="ytick_32">
     <g id="line2d_68">
      <g>
       <use style="stroke:#000000;stroke-width:0.6;" x="75.494" xlink:href="#macff40da06" y="48.89127"/>
      </g>
     </g>
    </g>
    <g id="ytick_33">
     <g id="line2d_69">
      <g>
       <use style="stroke:#000000;stroke-width:0.6;" x="75.494" xlink:href="#macff40da06" y="38.296023"/>
      </g>
     </g>
    </g>
    <g id="ytick_34">
     <g id="line2d_70">
      <g>
       <use style="stroke:#000000;stroke-width:0.6;" x="75.494" xlink:href="#macff40da06" y="27.700777"/>
      </g>
     </g>
    </g>
    <g id="text_17">
     <!-- Heat flux convergence (W m$^{-2}$) -->
     <defs>
      <path d="M 53.90625 1.265625 
Q 53.90625 0.875 53.703125 0.578125 
Q 53.515625 0.296875 53.03125 0.125 
Q 52.546875 -0.046875 51.734375 -0.171875 
Q 50.921875 -0.296875 49.75 -0.296875 
Q 48.484375 -0.296875 47.703125 -0.171875 
Q 46.921875 -0.046875 46.4375 0.125 
Q 45.953125 0.296875 45.75 0.578125 
Q 45.5625 0.875 45.5625 1.265625 
L 45.5625 29.296875 
L 16.796875 29.296875 
L 16.796875 1.265625 
Q 16.796875 0.875 16.59375 0.578125 
Q 16.40625 0.296875 15.921875 0.125 
Q 15.4375 -0.046875 14.625 -0.171875 
Q 13.8125 -0.296875 12.59375 -0.296875 
Q 11.421875 -0.296875 10.59375 -0.171875 
Q 9.765625 -0.046875 9.28125 0.125 
Q 8.796875 0.296875 8.59375 0.578125 
Q 8.40625 0.875 8.40625 1.265625 
L 8.40625 61.921875 
Q 8.40625 62.3125 8.59375 62.59375 
Q 8.796875 62.890625 9.28125 63.0625 
Q 9.765625 63.234375 10.59375 63.359375 
Q 11.421875 63.484375 12.59375 63.484375 
Q 13.8125 63.484375 14.625 63.359375 
Q 15.4375 63.234375 15.921875 63.0625 
Q 16.40625 62.890625 16.59375 62.59375 
Q 16.796875 62.3125 16.796875 61.921875 
L 16.796875 36.625 
L 45.5625 36.625 
L 45.5625 61.921875 
Q 45.5625 62.3125 45.75 62.59375 
Q 45.953125 62.890625 46.4375 63.0625 
Q 46.921875 63.234375 47.703125 63.359375 
Q 48.484375 63.484375 49.75 63.484375 
Q 50.921875 63.484375 51.734375 63.359375 
Q 52.546875 63.234375 53.03125 63.0625 
Q 53.515625 62.890625 53.703125 62.59375 
Q 53.90625 62.3125 53.90625 61.921875 
z
" id="Calibri-48"/>
      <path d="M 44.96875 25.09375 
Q 44.96875 23.1875 44.015625 22.375 
Q 43.0625 21.578125 41.84375 21.578125 
L 13.03125 21.578125 
Q 13.03125 17.921875 13.765625 14.984375 
Q 14.5 12.0625 16.203125 9.953125 
Q 17.921875 7.859375 20.65625 6.734375 
Q 23.390625 5.609375 27.34375 5.609375 
Q 30.46875 5.609375 32.90625 6.125 
Q 35.359375 6.640625 37.140625 7.265625 
Q 38.921875 7.90625 40.0625 8.421875 
Q 41.21875 8.9375 41.796875 8.9375 
Q 42.140625 8.9375 42.40625 8.765625 
Q 42.671875 8.59375 42.8125 8.25 
Q 42.96875 7.90625 43.03125 7.296875 
Q 43.109375 6.6875 43.109375 5.8125 
Q 43.109375 5.171875 43.0625 4.703125 
Q 43.015625 4.25 42.9375 3.875 
Q 42.875 3.515625 42.703125 3.21875 
Q 42.53125 2.9375 42.265625 2.65625 
Q 42 2.390625 40.671875 1.78125 
Q 39.359375 1.171875 37.25 0.578125 
Q 35.15625 0 32.390625 -0.453125 
Q 29.640625 -0.921875 26.515625 -0.921875 
Q 21.09375 -0.921875 17.015625 0.578125 
Q 12.9375 2.09375 10.15625 5.078125 
Q 7.375 8.0625 5.953125 12.546875 
Q 4.546875 17.046875 4.546875 23 
Q 4.546875 28.65625 6 33.171875 
Q 7.46875 37.703125 10.21875 40.84375 
Q 12.984375 44 16.890625 45.671875 
Q 20.796875 47.359375 25.640625 47.359375 
Q 30.8125 47.359375 34.453125 45.703125 
Q 38.09375 44.046875 40.4375 41.234375 
Q 42.78125 38.421875 43.875 34.640625 
Q 44.96875 30.859375 44.96875 26.5625 
z
M 36.859375 27.484375 
Q 37.015625 33.84375 34.0625 37.453125 
Q 31.109375 41.0625 25.296875 41.0625 
Q 22.3125 41.0625 20.0625 39.9375 
Q 17.828125 38.8125 16.3125 36.953125 
Q 14.796875 35.109375 13.96875 32.640625 
Q 13.140625 30.171875 13.03125 27.484375 
z
" id="Calibri-65"/>
      <path d="M 40.578125 1.171875 
Q 40.578125 0.59375 40.1875 0.296875 
Q 39.796875 0 39.109375 -0.140625 
Q 38.421875 -0.296875 37.109375 -0.296875 
Q 35.84375 -0.296875 35.078125 -0.140625 
Q 34.328125 0 33.984375 0.296875 
Q 33.640625 0.59375 33.640625 1.171875 
L 33.640625 5.5625 
Q 30.765625 2.484375 27.21875 0.78125 
Q 23.6875 -0.921875 19.734375 -0.921875 
Q 16.265625 -0.921875 13.453125 -0.015625 
Q 10.640625 0.875 8.65625 2.578125 
Q 6.6875 4.296875 5.59375 6.78125 
Q 4.5 9.28125 4.5 12.453125 
Q 4.5 16.15625 6 18.890625 
Q 7.515625 21.625 10.34375 23.4375 
Q 13.1875 25.25 17.28125 26.140625 
Q 21.390625 27.046875 26.515625 27.046875 
L 32.5625 27.046875 
L 32.5625 30.46875 
Q 32.5625 33.015625 32.03125 34.96875 
Q 31.5 36.921875 30.296875 38.203125 
Q 29.109375 39.5 27.203125 40.15625 
Q 25.296875 40.828125 22.515625 40.828125 
Q 19.53125 40.828125 17.15625 40.109375 
Q 14.796875 39.40625 13.015625 38.546875 
Q 11.234375 37.703125 10.03125 36.984375 
Q 8.84375 36.28125 8.25 36.28125 
Q 7.859375 36.28125 7.5625 36.46875 
Q 7.28125 36.671875 7.0625 37.0625 
Q 6.84375 37.453125 6.734375 38.0625 
Q 6.640625 38.671875 6.640625 39.40625 
Q 6.640625 40.625 6.8125 41.328125 
Q 6.984375 42.046875 7.640625 42.671875 
Q 8.296875 43.3125 9.90625 44.15625 
Q 11.53125 45.015625 13.625 45.71875 
Q 15.71875 46.4375 18.203125 46.890625 
Q 20.703125 47.359375 23.25 47.359375 
Q 27.984375 47.359375 31.296875 46.28125 
Q 34.625 45.21875 36.671875 43.140625 
Q 38.71875 41.0625 39.640625 37.984375 
Q 40.578125 34.90625 40.578125 30.8125 
z
M 32.5625 21.234375 
L 25.6875 21.234375 
Q 22.359375 21.234375 19.921875 20.671875 
Q 17.484375 20.125 15.875 19.015625 
Q 14.265625 17.921875 13.5 16.375 
Q 12.75 14.84375 12.75 12.84375 
Q 12.75 9.421875 14.921875 7.390625 
Q 17.09375 5.375 21 5.375 
Q 24.171875 5.375 26.875 6.984375 
Q 29.59375 8.59375 32.5625 11.921875 
z
" id="Calibri-61"/>
      <path d="M 30.328125 4.4375 
Q 30.328125 3.03125 30.125 2.203125 
Q 29.9375 1.375 29.546875 0.984375 
Q 29.15625 0.59375 28.375 0.25 
Q 27.59375 -0.09375 26.59375 -0.3125 
Q 25.59375 -0.53125 24.46875 -0.671875 
Q 23.34375 -0.828125 22.21875 -0.828125 
Q 18.796875 -0.828125 16.359375 0.078125 
Q 13.921875 0.984375 12.359375 2.8125 
Q 10.796875 4.640625 10.078125 7.4375 
Q 9.375 10.25 9.375 14.0625 
L 9.375 39.75 
L 3.21875 39.75 
Q 2.484375 39.75 2.046875 40.53125 
Q 1.609375 41.3125 1.609375 43.0625 
Q 1.609375 44 1.734375 44.625 
Q 1.859375 45.265625 2.046875 45.671875 
Q 2.25 46.09375 2.5625 46.265625 
Q 2.875 46.4375 3.265625 46.4375 
L 9.375 46.4375 
L 9.375 56.890625 
Q 9.375 57.234375 9.546875 57.515625 
Q 9.71875 57.8125 10.171875 58.03125 
Q 10.640625 58.25 11.421875 58.34375 
Q 12.203125 58.453125 13.375 58.453125 
Q 14.59375 58.453125 15.375 58.34375 
Q 16.15625 58.25 16.59375 58.03125 
Q 17.046875 57.8125 17.234375 57.515625 
Q 17.4375 57.234375 17.4375 56.890625 
L 17.4375 46.4375 
L 28.71875 46.4375 
Q 29.109375 46.4375 29.390625 46.265625 
Q 29.6875 46.09375 29.90625 45.671875 
Q 30.125 45.265625 30.21875 44.625 
Q 30.328125 44 30.328125 43.0625 
Q 30.328125 41.3125 29.875 40.53125 
Q 29.4375 39.75 28.71875 39.75 
L 17.4375 39.75 
L 17.4375 15.234375 
Q 17.4375 10.6875 18.78125 8.375 
Q 20.125 6.0625 23.578125 6.0625 
Q 24.703125 6.0625 25.578125 6.28125 
Q 26.46875 6.5 27.140625 6.734375 
Q 27.828125 6.984375 28.3125 7.203125 
Q 28.8125 7.421875 29.203125 7.421875 
Q 29.4375 7.421875 29.65625 7.296875 
Q 29.890625 7.171875 30 6.828125 
Q 30.125 6.5 30.21875 5.90625 
Q 30.328125 5.328125 30.328125 4.4375 
z
" id="Calibri-74"/>
      <path id="Calibri-20"/>
      <path d="M 31.546875 63.234375 
Q 31.546875 62.3125 31.4375 61.75 
Q 31.34375 61.1875 31.21875 60.84375 
Q 31.109375 60.5 30.90625 60.375 
Q 30.71875 60.25 30.421875 60.25 
Q 30.078125 60.25 29.5625 60.46875 
Q 29.046875 60.6875 28.3125 60.953125 
Q 27.59375 61.234375 26.59375 61.453125 
Q 25.59375 61.671875 24.265625 61.671875 
Q 22.46875 61.671875 21.1875 61.078125 
Q 19.921875 60.5 19.140625 59.25 
Q 18.359375 58.015625 18.015625 56.03125 
Q 17.671875 54.046875 17.671875 51.21875 
L 17.671875 46.4375 
L 27.484375 46.4375 
Q 27.875 46.4375 28.140625 46.265625 
Q 28.421875 46.09375 28.640625 45.671875 
Q 28.859375 45.265625 28.984375 44.625 
Q 29.109375 44 29.109375 43.0625 
Q 29.109375 41.3125 28.65625 40.53125 
Q 28.21875 39.75 27.484375 39.75 
L 17.671875 39.75 
L 17.671875 1.21875 
Q 17.671875 0.828125 17.46875 0.5625 
Q 17.28125 0.296875 16.8125 0.09375 
Q 16.359375 -0.09375 15.578125 -0.1875 
Q 14.796875 -0.296875 13.625 -0.296875 
Q 12.453125 -0.296875 11.671875 -0.1875 
Q 10.890625 -0.09375 10.421875 0.09375 
Q 9.96875 0.296875 9.765625 0.5625 
Q 9.578125 0.828125 9.578125 1.21875 
L 9.578125 39.75 
L 3.375 39.75 
Q 2.59375 39.75 2.203125 40.53125 
Q 1.8125 41.3125 1.8125 43.0625 
Q 1.8125 44 1.90625 44.625 
Q 2 45.265625 2.1875 45.671875 
Q 2.390625 46.09375 2.6875 46.265625 
Q 2.984375 46.4375 3.375 46.4375 
L 9.578125 46.4375 
L 9.578125 50.984375 
Q 9.578125 55.5625 10.421875 58.859375 
Q 11.28125 62.15625 13.03125 64.25 
Q 14.796875 66.359375 17.453125 67.359375 
Q 20.125 68.359375 23.734375 68.359375 
Q 25.4375 68.359375 27.046875 68.03125 
Q 28.65625 67.71875 29.53125 67.359375 
Q 30.421875 67 30.703125 66.703125 
Q 31 66.40625 31.1875 65.9375 
Q 31.390625 65.484375 31.46875 64.8125 
Q 31.546875 64.15625 31.546875 63.234375 
z
" id="Calibri-66"/>
      <path d="M 15.53125 1.21875 
Q 15.53125 0.828125 15.328125 0.5625 
Q 15.140625 0.296875 14.703125 0.09375 
Q 14.265625 -0.09375 13.484375 -0.1875 
Q 12.703125 -0.296875 11.46875 -0.296875 
Q 10.296875 -0.296875 9.515625 -0.1875 
Q 8.734375 -0.09375 8.265625 0.09375 
Q 7.8125 0.296875 7.640625 0.5625 
Q 7.46875 0.828125 7.46875 1.21875 
L 7.46875 66.453125 
Q 7.46875 66.84375 7.640625 67.140625 
Q 7.8125 67.4375 8.265625 67.625 
Q 8.734375 67.828125 9.515625 67.921875 
Q 10.296875 68.015625 11.46875 68.015625 
Q 12.703125 68.015625 13.484375 67.921875 
Q 14.265625 67.828125 14.703125 67.625 
Q 15.140625 67.4375 15.328125 67.140625 
Q 15.53125 66.84375 15.53125 66.453125 
z
" id="Calibri-6c"/>
      <path d="M 45.125 1.21875 
Q 45.125 0.828125 44.953125 0.5625 
Q 44.78125 0.296875 44.328125 0.09375 
Q 43.890625 -0.09375 43.1875 -0.1875 
Q 42.484375 -0.296875 41.453125 -0.296875 
Q 40.328125 -0.296875 39.625 -0.1875 
Q 38.921875 -0.09375 38.5 0.09375 
Q 38.09375 0.296875 37.9375 0.5625 
Q 37.796875 0.828125 37.796875 1.21875 
L 37.796875 7.03125 
Q 34.03125 2.875 30.359375 0.96875 
Q 26.703125 -0.921875 22.953125 -0.921875 
Q 18.5625 -0.921875 15.546875 0.53125 
Q 12.546875 2 10.6875 4.515625 
Q 8.84375 7.03125 8.03125 10.375 
Q 7.234375 13.71875 7.234375 18.5 
L 7.234375 45.171875 
Q 7.234375 45.5625 7.390625 45.828125 
Q 7.5625 46.09375 8.046875 46.3125 
Q 8.546875 46.53125 9.328125 46.609375 
Q 10.109375 46.6875 11.28125 46.6875 
Q 12.453125 46.6875 13.234375 46.609375 
Q 14.015625 46.53125 14.46875 46.3125 
Q 14.9375 46.09375 15.125 45.828125 
Q 15.328125 45.5625 15.328125 45.171875 
L 15.328125 19.578125 
Q 15.328125 15.71875 15.890625 13.390625 
Q 16.453125 11.078125 17.59375 9.4375 
Q 18.75 7.8125 20.5 6.90625 
Q 22.265625 6 24.609375 6 
Q 27.640625 6 30.640625 8.140625 
Q 33.640625 10.296875 37.015625 14.453125 
L 37.015625 45.171875 
Q 37.015625 45.5625 37.1875 45.828125 
Q 37.359375 46.09375 37.84375 46.3125 
Q 38.328125 46.53125 39.078125 46.609375 
Q 39.84375 46.6875 41.0625 46.6875 
Q 42.234375 46.6875 43.015625 46.609375 
Q 43.796875 46.53125 44.234375 46.3125 
Q 44.671875 46.09375 44.890625 45.828125 
Q 45.125 45.5625 45.125 45.171875 
z
" id="Calibri-75"/>
      <path d="M 40.765625 2.15625 
Q 41.15625 1.46875 41.15625 1 
Q 41.15625 0.53125 40.6875 0.234375 
Q 40.234375 -0.046875 39.28125 -0.171875 
Q 38.328125 -0.296875 36.8125 -0.296875 
Q 35.359375 -0.296875 34.5 -0.21875 
Q 33.640625 -0.140625 33.125 0.03125 
Q 32.625 0.203125 32.34375 0.46875 
Q 32.078125 0.734375 31.890625 1.078125 
L 21.34375 18.5 
L 10.84375 1.078125 
Q 10.640625 0.734375 10.375 0.46875 
Q 10.109375 0.203125 9.59375 0.03125 
Q 9.078125 -0.140625 8.25 -0.21875 
Q 7.421875 -0.296875 6.0625 -0.296875 
Q 4.640625 -0.296875 3.734375 -0.171875 
Q 2.828125 -0.046875 2.40625 0.234375 
Q 2 0.53125 2.015625 1 
Q 2.046875 1.46875 2.484375 2.15625 
L 16.15625 23.578125 
L 3.21875 44.234375 
Q 2.828125 44.921875 2.796875 45.375 
Q 2.78125 45.84375 3.25 46.15625 
Q 3.71875 46.484375 4.65625 46.578125 
Q 5.609375 46.6875 7.171875 46.6875 
Q 8.59375 46.6875 9.4375 46.609375 
Q 10.296875 46.53125 10.78125 46.375 
Q 11.28125 46.234375 11.515625 45.984375 
Q 11.765625 45.75 11.96875 45.40625 
L 21.96875 29.046875 
L 32.125 45.40625 
Q 32.328125 45.703125 32.5625 45.9375 
Q 32.8125 46.1875 33.21875 46.359375 
Q 33.640625 46.53125 34.390625 46.609375 
Q 35.15625 46.6875 36.46875 46.6875 
Q 37.890625 46.6875 38.796875 46.578125 
Q 39.703125 46.484375 40.140625 46.21875 
Q 40.578125 45.953125 40.53125 45.453125 
Q 40.484375 44.96875 40.046875 44.234375 
L 27.203125 23.828125 
z
" id="Calibri-78"/>
      <path d="M 39.0625 7.90625 
Q 39.0625 7.078125 39.015625 6.46875 
Q 38.96875 5.859375 38.84375 5.4375 
Q 38.71875 5.03125 38.546875 4.703125 
Q 38.375 4.390625 37.765625 3.78125 
Q 37.15625 3.171875 35.6875 2.265625 
Q 34.234375 1.375 32.390625 0.65625 
Q 30.5625 -0.046875 28.40625 -0.484375 
Q 26.265625 -0.921875 23.96875 -0.921875 
Q 19.234375 -0.921875 15.578125 0.640625 
Q 11.921875 2.203125 9.453125 5.203125 
Q 6.984375 8.203125 5.6875 12.5625 
Q 4.390625 16.9375 4.390625 22.65625 
Q 4.390625 29.15625 5.96875 33.8125 
Q 7.5625 38.484375 10.328125 41.453125 
Q 13.09375 44.4375 16.828125 45.875 
Q 20.5625 47.3125 24.90625 47.3125 
Q 27 47.3125 28.96875 46.921875 
Q 30.953125 46.53125 32.609375 45.890625 
Q 34.28125 45.265625 35.5625 44.4375 
Q 36.859375 43.609375 37.4375 43.015625 
Q 38.03125 42.4375 38.25 42.09375 
Q 38.484375 41.75 38.625 41.28125 
Q 38.765625 40.828125 38.8125 40.234375 
Q 38.875 39.65625 38.875 38.765625 
Q 38.875 36.859375 38.421875 36.109375 
Q 37.984375 35.359375 37.359375 35.359375 
Q 36.625 35.359375 35.671875 36.15625 
Q 34.71875 36.96875 33.25 37.9375 
Q 31.78125 38.921875 29.703125 39.71875 
Q 27.640625 40.53125 24.8125 40.53125 
Q 19 40.53125 15.890625 36.0625 
Q 12.796875 31.59375 12.796875 23.09375 
Q 12.796875 18.84375 13.59375 15.640625 
Q 14.40625 12.453125 15.96875 10.296875 
Q 17.53125 8.15625 19.796875 7.109375 
Q 22.078125 6.0625 25 6.0625 
Q 27.78125 6.0625 29.875 6.9375 
Q 31.984375 7.8125 33.515625 8.859375 
Q 35.0625 9.90625 36.109375 10.765625 
Q 37.15625 11.625 37.75 11.625 
Q 38.09375 11.625 38.328125 11.421875 
Q 38.578125 11.234375 38.75 10.765625 
Q 38.921875 10.296875 38.984375 9.59375 
Q 39.0625 8.890625 39.0625 7.90625 
z
" id="Calibri-63"/>
      <path d="M 48.34375 23.6875 
Q 48.34375 18.3125 46.921875 13.796875 
Q 45.515625 9.28125 42.703125 6 
Q 39.890625 2.734375 35.671875 0.90625 
Q 31.453125 -0.921875 25.875 -0.921875 
Q 20.453125 -0.921875 16.421875 0.6875 
Q 12.40625 2.296875 9.71875 5.375 
Q 7.03125 8.453125 5.703125 12.84375 
Q 4.390625 17.234375 4.390625 22.796875 
Q 4.390625 28.171875 5.78125 32.6875 
Q 7.171875 37.203125 9.984375 40.46875 
Q 12.796875 43.75 16.984375 45.546875 
Q 21.1875 47.359375 26.8125 47.359375 
Q 32.234375 47.359375 36.25 45.75 
Q 40.28125 44.140625 42.96875 41.0625 
Q 45.65625 37.984375 47 33.59375 
Q 48.34375 29.203125 48.34375 23.6875 
z
M 39.84375 23.140625 
Q 39.84375 26.703125 39.1875 29.875 
Q 38.53125 33.0625 37.015625 35.453125 
Q 35.5 37.84375 32.90625 39.234375 
Q 30.328125 40.625 26.46875 40.625 
Q 22.90625 40.625 20.34375 39.359375 
Q 17.78125 38.09375 16.109375 35.765625 
Q 14.453125 33.453125 13.640625 30.265625 
Q 12.84375 27.09375 12.84375 23.34375 
Q 12.84375 19.734375 13.5 16.546875 
Q 14.15625 13.375 15.6875 11 
Q 17.234375 8.640625 19.8125 7.25 
Q 22.40625 5.859375 26.265625 5.859375 
Q 29.78125 5.859375 32.375 7.125 
Q 34.96875 8.40625 36.625 10.6875 
Q 38.28125 12.984375 39.0625 16.15625 
Q 39.84375 19.34375 39.84375 23.140625 
z
" id="Calibri-6f"/>
      <path d="M 43.5 45.265625 
Q 43.5 45.0625 43.46875 44.84375 
Q 43.453125 44.625 43.40625 44.375 
Q 43.359375 44.140625 43.28125 43.84375 
Q 43.21875 43.5625 43.109375 43.21875 
L 28.125 1.46875 
Q 27.9375 0.921875 27.609375 0.578125 
Q 27.296875 0.25 26.65625 0.046875 
Q 26.03125 -0.140625 25.046875 -0.21875 
Q 24.078125 -0.296875 22.609375 -0.296875 
Q 21.140625 -0.296875 20.15625 -0.1875 
Q 19.1875 -0.09375 18.578125 0.09375 
Q 17.96875 0.296875 17.625 0.640625 
Q 17.28125 0.984375 17.09375 1.46875 
L 2.15625 43.21875 
Q 1.953125 43.796875 1.828125 44.234375 
Q 1.703125 44.671875 1.671875 44.890625 
Q 1.65625 45.125 1.65625 45.265625 
Q 1.65625 45.65625 1.84375 45.9375 
Q 2.046875 46.234375 2.515625 46.40625 
Q 2.984375 46.578125 3.734375 46.625 
Q 4.5 46.6875 5.609375 46.6875 
Q 7.03125 46.6875 7.875 46.609375 
Q 8.734375 46.53125 9.203125 46.328125 
Q 9.671875 46.140625 9.890625 45.84375 
Q 10.109375 45.5625 10.296875 45.125 
L 22.703125 8.890625 
L 22.90625 8.296875 
L 23.046875 8.890625 
L 35.296875 45.125 
Q 35.40625 45.5625 35.640625 45.84375 
Q 35.890625 46.140625 36.34375 46.328125 
Q 36.8125 46.53125 37.609375 46.609375 
Q 38.421875 46.6875 39.75 46.6875 
Q 40.875 46.6875 41.59375 46.625 
Q 42.328125 46.578125 42.75 46.375 
Q 43.171875 46.1875 43.328125 45.921875 
Q 43.5 45.65625 43.5 45.265625 
z
" id="Calibri-76"/>
      <path d="M 33.15625 42.28125 
Q 33.15625 41.21875 33.109375 40.484375 
Q 33.0625 39.75 32.90625 39.328125 
Q 32.765625 38.921875 32.546875 38.703125 
Q 32.328125 38.484375 31.9375 38.484375 
Q 31.546875 38.484375 30.984375 38.703125 
Q 30.421875 38.921875 29.703125 39.140625 
Q 29 39.359375 28.125 39.546875 
Q 27.25 39.75 26.21875 39.75 
Q 25 39.75 23.828125 39.25 
Q 22.65625 38.765625 21.359375 37.640625 
Q 20.0625 36.53125 18.640625 34.671875 
Q 17.234375 32.8125 15.53125 30.125 
L 15.53125 1.21875 
Q 15.53125 0.828125 15.328125 0.5625 
Q 15.140625 0.296875 14.703125 0.09375 
Q 14.265625 -0.09375 13.484375 -0.1875 
Q 12.703125 -0.296875 11.46875 -0.296875 
Q 10.296875 -0.296875 9.515625 -0.1875 
Q 8.734375 -0.09375 8.265625 0.09375 
Q 7.8125 0.296875 7.640625 0.5625 
Q 7.46875 0.828125 7.46875 1.21875 
L 7.46875 45.171875 
Q 7.46875 45.5625 7.609375 45.828125 
Q 7.765625 46.09375 8.203125 46.3125 
Q 8.640625 46.53125 9.328125 46.609375 
Q 10.015625 46.6875 11.140625 46.6875 
Q 12.203125 46.6875 12.90625 46.609375 
Q 13.625 46.53125 14.015625 46.3125 
Q 14.40625 46.09375 14.578125 45.828125 
Q 14.75 45.5625 14.75 45.171875 
L 14.75 38.765625 
Q 16.546875 41.40625 18.140625 43.0625 
Q 19.734375 44.734375 21.140625 45.671875 
Q 22.5625 46.625 23.953125 46.984375 
Q 25.34375 47.359375 26.765625 47.359375 
Q 27.390625 47.359375 28.1875 47.28125 
Q 29 47.21875 29.875 47.015625 
Q 30.765625 46.828125 31.46875 46.578125 
Q 32.171875 46.34375 32.46875 46.09375 
Q 32.765625 45.84375 32.859375 45.625 
Q 32.953125 45.40625 33.03125 45.0625 
Q 33.109375 44.734375 33.125 44.0625 
Q 33.15625 43.40625 33.15625 42.28125 
z
" id="Calibri-72"/>
      <path d="M 44.1875 43.171875 
Q 44.1875 41.453125 43.71875 40.6875 
Q 43.265625 39.9375 42.53125 39.9375 
L 36.234375 39.9375 
Q 37.9375 38.1875 38.625 36.0625 
Q 39.3125 33.9375 39.3125 31.640625 
Q 39.3125 27.828125 38.078125 24.890625 
Q 36.859375 21.96875 34.59375 19.9375 
Q 32.328125 17.921875 29.203125 16.84375 
Q 26.078125 15.765625 22.265625 15.765625 
Q 19.578125 15.765625 17.15625 16.46875 
Q 14.75 17.1875 13.421875 18.265625 
Q 12.546875 17.390625 11.984375 16.265625 
Q 11.421875 15.140625 11.421875 13.671875 
Q 11.421875 11.96875 13 10.84375 
Q 14.59375 9.71875 17.234375 9.625 
L 28.71875 9.125 
Q 31.984375 9.03125 34.71875 8.21875 
Q 37.453125 7.421875 39.453125 5.921875 
Q 41.453125 4.4375 42.578125 2.265625 
Q 43.703125 0.09375 43.703125 -2.78125 
Q 43.703125 -5.8125 42.421875 -8.546875 
Q 41.15625 -11.28125 38.546875 -13.359375 
Q 35.9375 -15.4375 31.875 -16.625 
Q 27.828125 -17.828125 22.3125 -17.828125 
Q 17 -17.828125 13.25 -16.921875 
Q 9.515625 -16.015625 7.125 -14.453125 
Q 4.734375 -12.890625 3.65625 -10.71875 
Q 2.59375 -8.546875 2.59375 -6 
Q 2.59375 -4.390625 2.984375 -2.875 
Q 3.375 -1.375 4.171875 0 
Q 4.984375 1.375 6.171875 2.609375 
Q 7.375 3.859375 8.9375 5.078125 
Q 6.546875 6.296875 5.390625 8.15625 
Q 4.25 10.015625 4.25 12.15625 
Q 4.25 15.140625 5.46875 17.484375 
Q 6.6875 19.828125 8.5 21.6875 
Q 6.984375 23.484375 6.09375 25.75 
Q 5.21875 28.03125 5.21875 31.25 
Q 5.21875 35.015625 6.484375 37.984375 
Q 7.765625 40.96875 10 43.015625 
Q 12.25 45.0625 15.40625 46.15625 
Q 18.5625 47.265625 22.265625 47.265625 
Q 24.265625 47.265625 26 47.046875 
Q 27.734375 46.828125 29.25 46.4375 
L 42.53125 46.4375 
Q 43.359375 46.4375 43.765625 45.625 
Q 44.1875 44.828125 44.1875 43.171875 
z
M 31.59375 31.59375 
Q 31.59375 36.078125 29.125 38.59375 
Q 26.65625 41.109375 22.125 41.109375 
Q 19.78125 41.109375 18.046875 40.328125 
Q 16.3125 39.546875 15.15625 38.171875 
Q 14.015625 36.8125 13.453125 35.03125 
Q 12.890625 33.25 12.890625 31.296875 
Q 12.890625 26.953125 15.359375 24.453125 
Q 17.828125 21.96875 22.265625 21.96875 
Q 24.65625 21.96875 26.40625 22.71875 
Q 28.171875 23.484375 29.3125 24.828125 
Q 30.46875 26.171875 31.03125 27.921875 
Q 31.59375 29.6875 31.59375 31.59375 
z
M 35.640625 -3.21875 
Q 35.640625 -0.390625 33.3125 1.140625 
Q 31 2.6875 27.046875 2.78125 
L 15.671875 3.171875 
Q 14.109375 1.953125 13.109375 0.84375 
Q 12.109375 -0.25 11.515625 -1.25 
Q 10.9375 -2.25 10.71875 -3.21875 
Q 10.5 -4.203125 10.5 -5.21875 
Q 10.5 -8.40625 13.71875 -10.03125 
Q 16.9375 -11.671875 22.703125 -11.671875 
Q 26.375 -11.671875 28.828125 -10.953125 
Q 31.296875 -10.25 32.8125 -9.078125 
Q 34.328125 -7.90625 34.984375 -6.390625 
Q 35.640625 -4.890625 35.640625 -3.21875 
z
" id="Calibri-67"/>
      <path d="M 24.171875 67.28125 
Q 19.53125 57.46875 17.25 47.140625 
Q 14.984375 36.8125 14.984375 26.375 
Q 14.984375 15.875 17.296875 5.5625 
Q 19.625 -4.734375 24.078125 -14.65625 
Q 24.3125 -15.234375 24.328125 -15.640625 
Q 24.359375 -16.0625 24.015625 -16.328125 
Q 23.6875 -16.609375 22.96875 -16.71875 
Q 22.265625 -16.84375 21.046875 -16.84375 
Q 20.171875 -16.84375 19.53125 -16.796875 
Q 18.890625 -16.75 18.421875 -16.59375 
Q 17.96875 -16.453125 17.671875 -16.25 
Q 17.390625 -16.0625 17.234375 -15.828125 
Q 14.59375 -10.84375 12.59375 -5.734375 
Q 10.59375 -0.640625 9.21875 4.625 
Q 7.859375 9.90625 7.171875 15.296875 
Q 6.5 20.703125 6.5 26.21875 
Q 6.5 31.734375 7.25 37.109375 
Q 8.015625 42.484375 9.40625 47.78125 
Q 10.796875 53.078125 12.796875 58.203125 
Q 14.796875 63.328125 17.28125 68.359375 
Q 17.328125 68.5625 17.546875 68.703125 
Q 17.78125 68.84375 18.171875 68.984375 
Q 18.5625 69.140625 19.234375 69.203125 
Q 19.921875 69.28125 21 69.28125 
Q 22.125 69.28125 22.796875 69.140625 
Q 23.484375 69 23.875 68.75 
Q 24.265625 68.5 24.3125 68.109375 
Q 24.359375 67.71875 24.171875 67.28125 
z
" id="Calibri-28"/>
      <path d="M 68.890625 1.859375 
Q 68.703125 1.171875 68.3125 0.75 
Q 67.921875 0.34375 67.234375 0.125 
Q 66.546875 -0.09375 65.546875 -0.1875 
Q 64.546875 -0.296875 63.09375 -0.296875 
Q 61.578125 -0.296875 60.515625 -0.1875 
Q 59.46875 -0.09375 58.78125 0.125 
Q 58.109375 0.34375 57.765625 0.75 
Q 57.421875 1.171875 57.234375 1.859375 
L 44 49.5625 
L 43.890625 49.5625 
L 31.6875 1.859375 
Q 31.546875 1.171875 31.203125 0.75 
Q 30.859375 0.34375 30.21875 0.125 
Q 29.59375 -0.09375 28.59375 -0.1875 
Q 27.59375 -0.296875 26.03125 -0.296875 
Q 24.421875 -0.296875 23.34375 -0.1875 
Q 22.265625 -0.09375 21.578125 0.125 
Q 20.90625 0.34375 20.53125 0.75 
Q 20.171875 1.171875 20.015625 1.859375 
L 3.328125 60.203125 
Q 3.03125 61.328125 3 61.953125 
Q 2.984375 62.59375 3.390625 62.9375 
Q 3.8125 63.28125 4.734375 63.375 
Q 5.671875 63.484375 7.234375 63.484375 
Q 8.734375 63.484375 9.609375 63.40625 
Q 10.5 63.328125 10.953125 63.125 
Q 11.421875 62.9375 11.59375 62.59375 
Q 11.765625 62.25 11.859375 61.71875 
L 26.078125 8.796875 
L 26.125 8.796875 
L 39.59375 61.625 
Q 39.75 62.15625 39.96875 62.515625 
Q 40.1875 62.890625 40.671875 63.078125 
Q 41.15625 63.28125 42.0625 63.375 
Q 42.96875 63.484375 44.4375 63.484375 
Q 45.796875 63.484375 46.59375 63.375 
Q 47.40625 63.28125 47.890625 63.078125 
Q 48.390625 62.890625 48.609375 62.515625 
Q 48.828125 62.15625 48.96875 61.625 
L 63.484375 8.796875 
L 63.578125 8.796875 
L 77.484375 61.671875 
Q 77.640625 62.15625 77.78125 62.515625 
Q 77.9375 62.890625 78.390625 63.078125 
Q 78.859375 63.28125 79.703125 63.375 
Q 80.5625 63.484375 81.984375 63.484375 
Q 83.453125 63.484375 84.296875 63.359375 
Q 85.15625 63.234375 85.546875 62.890625 
Q 85.9375 62.546875 85.90625 61.90625 
Q 85.890625 61.28125 85.640625 60.15625 
z
" id="Calibri-57"/>
      <path d="M 72.65625 1.21875 
Q 72.65625 0.828125 72.453125 0.5625 
Q 72.265625 0.296875 71.828125 0.09375 
Q 71.390625 -0.09375 70.609375 -0.1875 
Q 69.828125 -0.296875 68.65625 -0.296875 
Q 67.4375 -0.296875 66.65625 -0.1875 
Q 65.875 -0.09375 65.40625 0.09375 
Q 64.9375 0.296875 64.734375 0.5625 
Q 64.546875 0.828125 64.546875 1.21875 
L 64.546875 27.9375 
Q 64.546875 30.71875 64.0625 33 
Q 63.578125 35.296875 62.5 36.953125 
Q 61.421875 38.625 59.765625 39.5 
Q 58.109375 40.375 55.859375 40.375 
Q 53.078125 40.375 50.265625 38.21875 
Q 47.46875 36.078125 44.09375 31.9375 
L 44.09375 1.21875 
Q 44.09375 0.828125 43.890625 0.5625 
Q 43.703125 0.296875 43.234375 0.09375 
Q 42.78125 -0.09375 42 -0.1875 
Q 41.21875 -0.296875 40.046875 -0.296875 
Q 38.921875 -0.296875 38.109375 -0.1875 
Q 37.3125 -0.09375 36.84375 0.09375 
Q 36.375 0.296875 36.203125 0.5625 
Q 36.03125 0.828125 36.03125 1.21875 
L 36.03125 27.9375 
Q 36.03125 30.71875 35.5 33 
Q 34.96875 35.296875 33.890625 36.953125 
Q 32.8125 38.625 31.171875 39.5 
Q 29.546875 40.375 27.296875 40.375 
Q 24.515625 40.375 21.671875 38.21875 
Q 18.84375 36.078125 15.53125 31.9375 
L 15.53125 1.21875 
Q 15.53125 0.828125 15.328125 0.5625 
Q 15.140625 0.296875 14.703125 0.09375 
Q 14.265625 -0.09375 13.484375 -0.1875 
Q 12.703125 -0.296875 11.46875 -0.296875 
Q 10.296875 -0.296875 9.515625 -0.1875 
Q 8.734375 -0.09375 8.265625 0.09375 
Q 7.8125 0.296875 7.640625 0.5625 
Q 7.46875 0.828125 7.46875 1.21875 
L 7.46875 45.171875 
Q 7.46875 45.5625 7.609375 45.828125 
Q 7.765625 46.09375 8.203125 46.3125 
Q 8.640625 46.53125 9.328125 46.609375 
Q 10.015625 46.6875 11.140625 46.6875 
Q 12.203125 46.6875 12.90625 46.609375 
Q 13.625 46.53125 14.015625 46.3125 
Q 14.40625 46.09375 14.578125 45.828125 
Q 14.75 45.5625 14.75 45.171875 
L 14.75 39.359375 
Q 18.453125 43.5 21.9375 45.421875 
Q 25.4375 47.359375 29 47.359375 
Q 31.734375 47.359375 33.90625 46.71875 
Q 36.078125 46.09375 37.734375 44.9375 
Q 39.40625 43.796875 40.578125 42.203125 
Q 41.75 40.625 42.53125 38.671875 
Q 44.734375 41.0625 46.703125 42.71875 
Q 48.6875 44.390625 50.515625 45.40625 
Q 52.34375 46.4375 54.078125 46.890625 
Q 55.8125 47.359375 57.5625 47.359375 
Q 61.8125 47.359375 64.6875 45.875 
Q 67.578125 44.390625 69.359375 41.890625 
Q 71.140625 39.40625 71.890625 36.0625 
Q 72.65625 32.71875 72.65625 29 
z
" id="Calibri-6d"/>
      <path d="M 23.78125 26.21875 
Q 23.78125 20.703125 23.09375 15.296875 
Q 22.40625 9.90625 21.03125 4.625 
Q 19.671875 -0.640625 17.6875 -5.734375 
Q 15.71875 -10.84375 13.09375 -15.828125 
Q 12.9375 -16.0625 12.640625 -16.25 
Q 12.359375 -16.453125 11.890625 -16.59375 
Q 11.421875 -16.75 10.78125 -16.796875 
Q 10.15625 -16.84375 9.28125 -16.84375 
Q 8.015625 -16.84375 7.296875 -16.71875 
Q 6.59375 -16.609375 6.265625 -16.328125 
Q 5.953125 -16.0625 5.96875 -15.640625 
Q 6 -15.234375 6.25 -14.65625 
Q 10.75 -4.78125 13.03125 5.546875 
Q 15.328125 15.875 15.328125 26.375 
Q 15.328125 36.8125 13.03125 47.140625 
Q 10.75 57.46875 6.15625 67.28125 
Q 5.953125 67.71875 6 68.109375 
Q 6.0625 68.5 6.453125 68.75 
Q 6.84375 69 7.515625 69.140625 
Q 8.203125 69.28125 9.328125 69.28125 
Q 10.359375 69.28125 11.03125 69.203125 
Q 11.71875 69.140625 12.125 68.984375 
Q 12.546875 68.84375 12.734375 68.703125 
Q 12.9375 68.5625 13.03125 68.359375 
Q 18.0625 58.34375 20.921875 47.765625 
Q 23.78125 37.203125 23.78125 26.21875 
z
" id="Calibri-29"/>
     </defs>
     <g transform="translate(29.20275 311.184081)rotate(-90)scale(0.19 -0.19)">
      <use transform="translate(0 0.442188)" xlink:href="#Calibri-48"/>
      <use transform="translate(62.304688 0.442188)" xlink:href="#Calibri-65"/>
      <use transform="translate(112.060547 0.442188)" xlink:href="#Calibri-61"/>
      <use transform="translate(159.960938 0.442188)" xlink:href="#Calibri-74"/>
      <use transform="translate(193.457031 0.442188)" xlink:href="#Calibri-20"/>
      <use transform="translate(216.064453 0.442188)" xlink:href="#Calibri-66"/>
      <use transform="translate(246.582031 0.442188)" xlink:href="#Calibri-6c"/>
      <use transform="translate(269.53125 0.442188)" xlink:href="#Calibri-75"/>
      <use transform="translate(322.070312 0.442188)" xlink:href="#Calibri-78"/>
      <use transform="translate(365.380859 0.442188)" xlink:href="#Calibri-20"/>
      <use transform="translate(387.972656 0.442188)" xlink:href="#Calibri-63"/>
      <use transform="translate(430.257812 0.442188)" xlink:href="#Calibri-6f"/>
      <use transform="translate(482.992188 0.442188)" xlink:href="#Calibri-6e"/>
      <use transform="translate(535.53125 0.442188)" xlink:href="#Calibri-76"/>
      <use transform="translate(580.697266 0.442188)" xlink:href="#Calibri-65"/>
      <use transform="translate(630.453125 0.442188)" xlink:href="#Calibri-72"/>
      <use transform="translate(665.316406 0.442188)" xlink:href="#Calibri-67"/>
      <use transform="translate(712.386719 0.442188)" xlink:href="#Calibri-65"/>
      <use transform="translate(762.142578 0.442188)" xlink:href="#Calibri-6e"/>
      <use transform="translate(814.681641 0.442188)" xlink:href="#Calibri-63"/>
      <use transform="translate(856.966797 0.442188)" xlink:href="#Calibri-65"/>
      <use transform="translate(906.722656 0.442188)" xlink:href="#Calibri-20"/>
      <use transform="translate(929.314453 0.442188)" xlink:href="#Calibri-28"/>
      <use transform="translate(959.636719 0.442188)" xlink:href="#Calibri-57"/>
      <use transform="translate(1048.601562 0.442188)" xlink:href="#Calibri-20"/>
      <use transform="translate(1071.208984 0.442188)" xlink:href="#Calibri-6d"/>
      <use transform="translate(1151.908828 33.123438)scale(0.7)" xlink:href="#Calibri-2212"/>
      <use transform="translate(1186.772109 33.123438)scale(0.7)" xlink:href="#Calibri-32"/>
      <use transform="translate(1224.585 0.442188)" xlink:href="#Calibri-29"/>
     </g>
    </g>
   </g>
   <g id="line2d_71">
    <path clip-path="url(#p8ce8c9babe)" d="M 75.494 271.391443 
L 553.77 271.391443 
" style="fill:none;stroke:#333333;stroke-linecap:square;stroke-width:0.8;"/>
   </g>
   <g id="line2d_72">
    <path clip-path="url(#p8ce8c9babe)" d="M 529.8562 369.7 
L 529.8562 14.218161 
" style="fill:none;stroke:#1f77b4;stroke-dasharray:5.55,2.4;stroke-dashoffset:0;stroke-width:1.5;"/>
   </g>
   <g id="line2d_73">
    <path clip-path="url(#p8ce8c9babe)" d="M 75.494 353.541735 
L 83.624692 353.433162 
L 91.755384 353.108068 
L 99.886076 352.568318 
L 108.495044 351.766309 
L 117.104012 350.732273 
L 125.71298 349.472815 
L 134.321948 347.995945 
L 143.409192 346.211505 
L 152.974712 344.096449 
L 162.540232 341.754615 
L 172.584028 339.071075 
L 183.584376 335.893772 
L 195.063 332.345188 
L 207.976452 328.113139 
L 222.803008 323.006719 
L 240.977496 316.497139 
L 273.021988 304.730227 
L 306.501308 292.528791 
L 368.198912 270.209976 
L 379.677536 265.711621 
L 389.243056 261.734608 
L 397.852024 257.916277 
L 405.50444 254.282556 
L 412.67858 250.62756 
L 419.374444 246.960498 
L 425.592032 243.299826 
L 431.331344 239.672593 
L 437.070656 235.777904 
L 442.331692 231.94678 
L 447.592728 227.840206 
L 452.853764 223.431549 
L 457.636524 219.137815 
L 462.419284 214.548717 
L 467.202044 209.640696 
L 471.984804 204.389003 
L 476.289288 199.347191 
L 480.593772 193.986164 
L 484.898256 188.285261 
L 489.20274 182.222954 
L 493.507224 175.776825 
L 497.811708 168.923546 
L 502.116192 161.638857 
L 506.420676 153.897547 
L 510.72516 145.67343 
L 515.029644 136.939324 
L 519.334128 127.667031 
L 523.638612 117.827312 
L 527.943096 107.389864 
L 532.24758 96.323303 
L 536.552064 84.595133 
L 540.856548 72.17173 
L 545.161032 59.018316 
L 549.465516 45.098934 
L 553.77 30.376427 
L 553.77 30.376427 
" style="fill:none;stroke:#000000;stroke-linecap:square;stroke-width:1.5;"/>
   </g>
   <g id="patch_3">
    <path d="M 75.494 369.7 
L 75.494 14.218161 
" style="fill:none;stroke:#000000;stroke-linecap:square;stroke-linejoin:miter;stroke-width:0.8;"/>
   </g>
   <g id="patch_4">
    <path d="M 553.77 369.7 
L 553.77 14.218161 
" style="fill:none;stroke:#000000;stroke-linecap:square;stroke-linejoin:miter;stroke-width:0.8;"/>
   </g>
   <g id="patch_5">
    <path d="M 75.494 369.7 
L 553.77 369.7 
" style="fill:none;stroke:#000000;stroke-linecap:square;stroke-linejoin:miter;stroke-width:0.8;"/>
   </g>
   <g id="patch_6">
    <path d="M 75.494 14.218161 
L 553.77 14.218161 
" style="fill:none;stroke:#000000;stroke-linecap:square;stroke-linejoin:miter;stroke-width:0.8;"/>
   </g>
  </g>
 </g>
 <defs>
  <clipPath id="p8ce8c9babe">
   <rect height="355.481839" width="478.276" x="75.494" y="14.218161"/>
  </clipPath>
 </defs>
</svg>
