<?xml version="1.0" encoding="utf-8" standalone="no"?>
<!DOCTYPE svg PUBLIC "-//W3C//DTD SVG 1.1//EN"
  "http://www.w3.org/Graphics/SVG/1.1/DTD/svg11.dtd">
<!-- Created with matplotlib (http://matplotlib.org/) -->
<svg height="432pt" version="1.1" viewBox="0 0 576 432" width="576pt" xmlns="http://www.w3.org/2000/svg" xmlns:xlink="http://www.w3.org/1999/xlink">
 <defs>
  <style type="text/css">
*{stroke-linecap:butt;stroke-linejoin:round;}
  </style>
 </defs>
 <g id="figure_1">
  <g id="patch_1">
   <path d="M 0 432 
L 576 432 
L 576 0 
L 0 0 
z
" style="fill:#ffffff;"/>
  </g>
  <g id="axes_1">
   <g id="patch_2">
    <path d="M 66.53 369.7 
L 553.77 369.7 
L 553.77 13.32 
L 66.53 13.32 
z
" style="fill:#ffffff;"/>
   </g>
   <g id="matplotlib.axis_1">
    <g id="xtick_1">
     <g id="line2d_1">
      <path clip-path="url(#p18d01051f8)" d="M 66.53 369.7 
L 66.53 13.32 
" style="fill:none;stroke:#bfbfbf;stroke-linecap:square;stroke-width:0.8;"/>
     </g>
     <g id="line2d_2">
      <defs>
       <path d="M 0 0 
L 0 3.5 
" id="maac063959e" style="stroke:#000000;stroke-width:0.8;"/>
      </defs>
      <g>
       <use style="stroke:#000000;stroke-width:0.8;" x="66.53" xlink:href="#maac063959e" y="369.7"/>
      </g>
     </g>
     <g id="text_1">
      <!-- 0.0 -->
      <defs>
       <path d="M 47.21875 31.734375 
Q 47.21875 24.46875 46.0625 18.453125 
Q 44.921875 12.453125 42.25 8.125 
Q 39.59375 3.8125 35.296875 1.4375 
Q 31 -0.921875 24.703125 -0.921875 
Q 18.75 -0.921875 14.671875 1.203125 
Q 10.59375 3.328125 8.09375 7.453125 
Q 5.609375 11.578125 4.5625 17.609375 
Q 3.515625 23.640625 3.515625 31.453125 
Q 3.515625 38.671875 4.6875 44.703125 
Q 5.859375 50.734375 8.5 55.046875 
Q 11.140625 59.375 15.4375 61.734375 
Q 19.734375 64.109375 25.984375 64.109375 
Q 31.984375 64.109375 36.0625 61.984375 
Q 40.140625 59.859375 42.625 55.734375 
Q 45.125 51.609375 46.171875 45.578125 
Q 47.21875 39.546875 47.21875 31.734375 
z
M 38.625 31.15625 
Q 38.625 35.890625 38.28125 39.640625 
Q 37.9375 43.40625 37.28125 46.28125 
Q 36.625 49.171875 35.5625 51.25 
Q 34.515625 53.328125 33.046875 54.65625 
Q 31.59375 56 29.703125 56.609375 
Q 27.828125 57.234375 25.484375 57.234375 
Q 21.34375 57.234375 18.75 55.28125 
Q 16.15625 53.328125 14.671875 49.90625 
Q 13.1875 46.484375 12.640625 41.890625 
Q 12.109375 37.3125 12.109375 32.03125 
Q 12.109375 24.953125 12.84375 20 
Q 13.578125 15.046875 15.15625 11.921875 
Q 16.75 8.796875 19.21875 7.375 
Q 21.6875 5.953125 25.203125 5.953125 
Q 27.9375 5.953125 30 6.828125 
Q 32.078125 7.71875 33.5625 9.34375 
Q 35.0625 10.984375 36.03125 13.28125 
Q 37.015625 15.578125 37.59375 18.359375 
Q 38.1875 21.140625 38.40625 24.390625 
Q 38.625 27.640625 38.625 31.15625 
z
" id="Calibri-30"/>
       <path d="M 17.875 5.328125 
Q 17.875 1.859375 16.71875 0.703125 
Q 15.578125 -0.4375 12.546875 -0.4375 
Q 9.625 -0.4375 8.5 0.6875 
Q 7.375 1.8125 7.375 5.171875 
Q 7.375 8.640625 8.515625 9.78125 
Q 9.671875 10.9375 12.703125 10.9375 
Q 15.625 10.9375 16.75 9.8125 
Q 17.875 8.6875 17.875 5.328125 
z
" id="Calibri-2e"/>
      </defs>
      <g transform="translate(55.13375 393.442812)scale(0.18 -0.18)">
       <use xlink:href="#Calibri-30"/>
       <use x="50.683594" xlink:href="#Calibri-2e"/>
       <use x="75.927734" xlink:href="#Calibri-30"/>
      </g>
     </g>
    </g>
    <g id="xtick_2">
     <g id="line2d_3">
      <path clip-path="url(#p18d01051f8)" d="M 163.978 369.7 
L 163.978 13.32 
" style="fill:none;stroke:#bfbfbf;stroke-linecap:square;stroke-width:0.8;"/>
     </g>
     <g id="line2d_4">
      <g>
       <use style="stroke:#000000;stroke-width:0.8;" x="163.978" xlink:href="#maac063959e" y="369.7"/>
      </g>
     </g>
     <g id="text_2">
      <!-- 0.2 -->
      <defs>
       <path d="M 45.125 3.609375 
Q 45.125 2.734375 45 2.046875 
Q 44.875 1.375 44.65625 0.90625 
Q 44.4375 0.4375 44.0625 0.21875 
Q 43.703125 0 43.265625 0 
L 8.34375 0 
Q 7.671875 0 7.15625 0.171875 
Q 6.640625 0.34375 6.265625 0.734375 
Q 5.90625 1.125 5.734375 1.859375 
Q 5.5625 2.59375 5.5625 3.65625 
Q 5.5625 4.640625 5.640625 5.375 
Q 5.71875 6.109375 5.953125 6.671875 
Q 6.203125 7.234375 6.5625 7.78125 
Q 6.9375 8.34375 7.515625 8.984375 
L 19.78125 21.96875 
Q 24.03125 26.46875 26.59375 30.03125 
Q 29.15625 33.59375 30.546875 36.515625 
Q 31.9375 39.453125 32.375 41.84375 
Q 32.8125 44.234375 32.8125 46.34375 
Q 32.8125 48.4375 32.125 50.3125 
Q 31.453125 52.203125 30.15625 53.609375 
Q 28.859375 55.03125 26.90625 55.859375 
Q 24.953125 56.6875 22.40625 56.6875 
Q 19.4375 56.6875 17.0625 55.859375 
Q 14.703125 55.03125 12.921875 54.046875 
Q 11.140625 53.078125 9.9375 52.25 
Q 8.734375 51.421875 8.15625 51.421875 
Q 7.8125 51.421875 7.546875 51.609375 
Q 7.28125 51.8125 7.109375 52.25 
Q 6.9375 52.6875 6.828125 53.421875 
Q 6.734375 54.15625 6.734375 55.171875 
Q 6.734375 55.90625 6.78125 56.4375 
Q 6.84375 56.984375 6.953125 57.375 
Q 7.078125 57.765625 7.265625 58.109375 
Q 7.46875 58.453125 8.046875 58.953125 
Q 8.640625 59.46875 10.078125 60.34375 
Q 11.53125 61.234375 13.703125 62.078125 
Q 15.875 62.9375 18.484375 63.515625 
Q 21.09375 64.109375 23.96875 64.109375 
Q 28.5625 64.109375 32 62.8125 
Q 35.453125 61.53125 37.71875 59.28125 
Q 39.984375 57.03125 41.109375 54.046875 
Q 42.234375 51.078125 42.234375 47.703125 
Q 42.234375 44.671875 41.6875 41.671875 
Q 41.15625 38.671875 39.421875 35.171875 
Q 37.703125 31.6875 34.421875 27.40625 
Q 31.15625 23.140625 25.734375 17.578125 
L 15.71875 7.125 
L 43.21875 7.125 
Q 43.609375 7.125 43.96875 6.90625 
Q 44.34375 6.6875 44.609375 6.25 
Q 44.875 5.8125 45 5.15625 
Q 45.125 4.5 45.125 3.609375 
z
" id="Calibri-32"/>
      </defs>
      <g transform="translate(152.58175 393.442812)scale(0.18 -0.18)">
       <use xlink:href="#Calibri-30"/>
       <use x="50.683594" xlink:href="#Calibri-2e"/>
       <use x="75.927734" xlink:href="#Calibri-32"/>
      </g>
     </g>
    </g>
    <g id="xtick_3">
     <g id="line2d_5">
      <path clip-path="url(#p18d01051f8)" d="M 261.426 369.7 
L 261.426 13.32 
" style="fill:none;stroke:#bfbfbf;stroke-linecap:square;stroke-width:0.8;"/>
     </g>
     <g id="line2d_6">
      <g>
       <use style="stroke:#000000;stroke-width:0.8;" x="261.426" xlink:href="#maac063959e" y="369.7"/>
      </g>
     </g>
     <g id="text_3">
      <!-- 0.4 -->
      <defs>
       <path d="M 47.796875 17.96875 
Q 47.796875 16.359375 47.3125 15.421875 
Q 46.828125 14.5 45.953125 14.5 
L 38.8125 14.5 
L 38.8125 1.21875 
Q 38.8125 0.828125 38.609375 0.5625 
Q 38.421875 0.296875 37.9375 0.09375 
Q 37.453125 -0.09375 36.671875 -0.1875 
Q 35.890625 -0.296875 34.671875 -0.296875 
Q 33.5 -0.296875 32.71875 -0.1875 
Q 31.9375 -0.09375 31.46875 0.09375 
Q 31 0.296875 30.828125 0.5625 
Q 30.671875 0.828125 30.671875 1.21875 
L 30.671875 14.5 
L 4.59375 14.5 
Q 4 14.5 3.609375 14.640625 
Q 3.21875 14.796875 2.90625 15.1875 
Q 2.59375 15.578125 2.46875 16.3125 
Q 2.34375 17.046875 2.34375 18.21875 
Q 2.34375 19.140625 2.390625 19.875 
Q 2.4375 20.609375 2.578125 21.21875 
Q 2.734375 21.828125 2.96875 22.390625 
Q 3.21875 22.953125 3.5625 23.578125 
L 26.3125 61.96875 
Q 26.5625 62.359375 27.015625 62.640625 
Q 27.484375 62.9375 28.21875 63.125 
Q 28.953125 63.328125 30.03125 63.40625 
Q 31.109375 63.484375 32.5625 63.484375 
Q 34.1875 63.484375 35.375 63.359375 
Q 36.578125 63.234375 37.296875 63.03125 
Q 38.03125 62.84375 38.421875 62.515625 
Q 38.8125 62.203125 38.8125 61.765625 
L 38.8125 21.4375 
L 45.953125 21.4375 
Q 46.78125 21.4375 47.28125 20.578125 
Q 47.796875 19.734375 47.796875 17.96875 
z
M 30.671875 56.109375 
L 30.5625 56.109375 
L 10.015625 21.4375 
L 30.671875 21.4375 
z
" id="Calibri-34"/>
      </defs>
      <g transform="translate(250.02975 393.442812)scale(0.18 -0.18)">
       <use xlink:href="#Calibri-30"/>
       <use x="50.683594" xlink:href="#Calibri-2e"/>
       <use x="75.927734" xlink:href="#Calibri-34"/>
      </g>
     </g>
    </g>
    <g id="xtick_4">
     <g id="line2d_7">
      <path clip-path="url(#p18d01051f8)" d="M 358.874 369.7 
L 358.874 13.32 
" style="fill:none;stroke:#bfbfbf;stroke-linecap:square;stroke-width:0.8;"/>
     </g>
     <g id="line2d_8">
      <g>
       <use style="stroke:#000000;stroke-width:0.8;" x="358.874" xlink:href="#maac063959e" y="369.7"/>
      </g>
     </g>
     <g id="text_4">
      <!-- 0.6 -->
      <defs>
       <path d="M 46.734375 20.453125 
Q 46.734375 16.3125 45.453125 12.421875 
Q 44.1875 8.546875 41.546875 5.59375 
Q 38.921875 2.640625 34.859375 0.859375 
Q 30.8125 -0.921875 25.296875 -0.921875 
Q 21.34375 -0.921875 18.3125 0.046875 
Q 15.28125 1.03125 13.03125 2.828125 
Q 10.796875 4.640625 9.296875 7.265625 
Q 7.8125 9.90625 6.90625 13.28125 
Q 6 16.65625 5.609375 20.65625 
Q 5.21875 24.65625 5.21875 29.25 
Q 5.21875 33.296875 5.65625 37.453125 
Q 6.109375 41.609375 7.21875 45.453125 
Q 8.34375 49.3125 10.265625 52.703125 
Q 12.203125 56.109375 15.109375 58.625 
Q 18.015625 61.140625 22.0625 62.59375 
Q 26.125 64.0625 31.5 64.0625 
Q 33.296875 64.0625 35.15625 63.84375 
Q 37.015625 63.625 38.578125 63.25 
Q 40.140625 62.890625 41.203125 62.453125 
Q 42.28125 62.015625 42.625 61.734375 
Q 42.96875 61.46875 43.140625 61.15625 
Q 43.3125 60.84375 43.40625 60.46875 
Q 43.5 60.109375 43.546875 59.640625 
Q 43.609375 59.1875 43.609375 58.5 
Q 43.609375 57.625 43.578125 56.984375 
Q 43.5625 56.34375 43.390625 55.953125 
Q 43.21875 55.5625 42.9375 55.359375 
Q 42.671875 55.171875 42.234375 55.171875 
Q 41.703125 55.171875 40.765625 55.515625 
Q 39.84375 55.859375 38.515625 56.265625 
Q 37.203125 56.6875 35.328125 57.03125 
Q 33.453125 57.375 30.953125 57.375 
Q 26.421875 57.375 23.140625 55.515625 
Q 19.875 53.65625 17.796875 50.53125 
Q 15.71875 47.40625 14.71875 43.28125 
Q 13.71875 39.15625 13.578125 34.671875 
Q 14.84375 35.40625 16.421875 36.125 
Q 18.015625 36.859375 19.890625 37.4375 
Q 21.78125 38.03125 23.875 38.390625 
Q 25.984375 38.765625 28.375 38.765625 
Q 33.5 38.765625 37.015625 37.375 
Q 40.53125 35.984375 42.703125 33.515625 
Q 44.875 31.0625 45.796875 27.703125 
Q 46.734375 24.359375 46.734375 20.453125 
z
M 38.234375 19.671875 
Q 38.234375 22.515625 37.671875 24.828125 
Q 37.109375 27.15625 35.78125 28.765625 
Q 34.46875 30.375 32.265625 31.25 
Q 30.078125 32.125 26.859375 32.125 
Q 25.046875 32.125 23.234375 31.8125 
Q 21.4375 31.5 19.75 30.9375 
Q 18.0625 30.375 16.515625 29.609375 
Q 14.984375 28.859375 13.71875 27.984375 
Q 13.71875 21.6875 14.515625 17.4375 
Q 15.328125 13.1875 16.859375 10.625 
Q 18.40625 8.0625 20.703125 6.953125 
Q 23 5.859375 26.078125 5.859375 
Q 29.203125 5.859375 31.5 7.03125 
Q 33.796875 8.203125 35.296875 10.171875 
Q 36.8125 12.15625 37.515625 14.625 
Q 38.234375 17.09375 38.234375 19.671875 
z
" id="Calibri-36"/>
      </defs>
      <g transform="translate(347.47775 393.442812)scale(0.18 -0.18)">
       <use xlink:href="#Calibri-30"/>
       <use x="50.683594" xlink:href="#Calibri-2e"/>
       <use x="75.927734" xlink:href="#Calibri-36"/>
      </g>
     </g>
    </g>
    <g id="xtick_5">
     <g id="line2d_9">
      <path clip-path="url(#p18d01051f8)" d="M 456.322 369.7 
L 456.322 13.32 
" style="fill:none;stroke:#bfbfbf;stroke-linecap:square;stroke-width:0.8;"/>
     </g>
     <g id="line2d_10">
      <g>
       <use style="stroke:#000000;stroke-width:0.8;" x="456.322" xlink:href="#maac063959e" y="369.7"/>
      </g>
     </g>
     <g id="text_5">
      <!-- 0.8 -->
      <defs>
       <path d="M 46.578125 16.21875 
Q 46.578125 12.109375 45.109375 8.90625 
Q 43.65625 5.71875 40.890625 3.515625 
Q 38.140625 1.3125 34.078125 0.1875 
Q 30.03125 -0.921875 24.8125 -0.921875 
Q 19.921875 -0.921875 16.0625 0.09375 
Q 12.203125 1.125 9.515625 3.125 
Q 6.84375 5.125 5.421875 8.046875 
Q 4 10.984375 4 14.75 
Q 4 17.71875 4.96875 20.203125 
Q 5.953125 22.703125 7.78125 24.796875 
Q 9.625 26.90625 12.296875 28.734375 
Q 14.984375 30.5625 18.359375 32.234375 
Q 15.4375 33.734375 13.1875 35.421875 
Q 10.9375 37.109375 9.375 39.078125 
Q 7.8125 41.0625 7 43.3125 
Q 6.203125 45.5625 6.203125 48.1875 
Q 6.203125 51.515625 7.390625 54.421875 
Q 8.59375 57.328125 11 59.46875 
Q 13.421875 61.625 17.15625 62.859375 
Q 20.90625 64.109375 25.875 64.109375 
Q 30.671875 64.109375 34.15625 62.953125 
Q 37.640625 61.8125 39.90625 59.828125 
Q 42.1875 57.859375 43.265625 55.171875 
Q 44.34375 52.484375 44.34375 49.421875 
Q 44.34375 46.921875 43.53125 44.625 
Q 42.71875 42.328125 41.15625 40.28125 
Q 39.59375 38.234375 37.328125 36.453125 
Q 35.0625 34.671875 32.125 33.109375 
Q 35.59375 31.390625 38.296875 29.578125 
Q 41.015625 27.78125 42.84375 25.703125 
Q 44.671875 23.640625 45.625 21.3125 
Q 46.578125 19 46.578125 16.21875 
z
M 36.03125 48.640625 
Q 36.03125 50.6875 35.328125 52.34375 
Q 34.625 54 33.25 55.171875 
Q 31.890625 56.34375 29.859375 56.953125 
Q 27.828125 57.5625 25.25 57.5625 
Q 19.96875 57.5625 17.25 55.171875 
Q 14.546875 52.78125 14.546875 48.640625 
Q 14.546875 46.734375 15.203125 45.09375 
Q 15.875 43.453125 17.265625 41.984375 
Q 18.65625 40.53125 20.78125 39.140625 
Q 22.90625 37.75 25.828125 36.234375 
Q 30.765625 38.765625 33.390625 41.84375 
Q 36.03125 44.921875 36.03125 48.640625 
z
M 38.09375 15.328125 
Q 38.09375 17.578125 37.25 19.40625 
Q 36.421875 21.234375 34.734375 22.828125 
Q 33.0625 24.421875 30.546875 25.90625 
Q 28.03125 27.390625 24.703125 29 
Q 21.625 27.484375 19.3125 25.96875 
Q 17 24.46875 15.5 22.84375 
Q 14.015625 21.234375 13.25 19.453125 
Q 12.5 17.671875 12.5 15.53125 
Q 12.5 10.796875 15.75 8.203125 
Q 19 5.609375 25.4375 5.609375 
Q 31.6875 5.609375 34.890625 8.21875 
Q 38.09375 10.84375 38.09375 15.328125 
z
" id="Calibri-38"/>
      </defs>
      <g transform="translate(444.92575 393.442812)scale(0.18 -0.18)">
       <use xlink:href="#Calibri-30"/>
       <use x="50.683594" xlink:href="#Calibri-2e"/>
       <use x="75.927734" xlink:href="#Calibri-38"/>
      </g>
     </g>
    </g>
    <g id="xtick_6">
     <g id="line2d_11">
      <path clip-path="url(#p18d01051f8)" d="M 553.77 369.7 
L 553.77 13.32 
" style="fill:none;stroke:#bfbfbf;stroke-linecap:square;stroke-width:0.8;"/>
     </g>
     <g id="line2d_12">
      <g>
       <use style="stroke:#000000;stroke-width:0.8;" x="553.77" xlink:href="#maac063959e" y="369.7"/>
      </g>
     </g>
     <g id="text_6">
      <!-- 1.0 -->
      <defs>
       <path d="M 45.265625 3.328125 
Q 45.265625 2.390625 45.109375 1.75 
Q 44.96875 1.125 44.71875 0.734375 
Q 44.484375 0.34375 44.15625 0.171875 
Q 43.84375 0 43.5 0 
L 10.5 0 
Q 10.15625 0 9.859375 0.171875 
Q 9.578125 0.34375 9.296875 0.734375 
Q 9.03125 1.125 8.875 1.75 
Q 8.734375 2.390625 8.734375 3.328125 
Q 8.734375 4.203125 8.875 4.828125 
Q 9.03125 5.46875 9.25 5.875 
Q 9.46875 6.296875 9.78125 6.515625 
Q 10.109375 6.734375 10.5 6.734375 
L 23.6875 6.734375 
L 23.6875 54.78125 
L 11.46875 47.515625 
Q 10.546875 47.015625 9.984375 46.921875 
Q 9.421875 46.828125 9.078125 47.140625 
Q 8.734375 47.46875 8.609375 48.1875 
Q 8.5 48.921875 8.5 50.046875 
Q 8.5 50.875 8.5625 51.453125 
Q 8.640625 52.046875 8.78125 52.4375 
Q 8.9375 52.828125 9.203125 53.125 
Q 9.46875 53.421875 9.90625 53.71875 
L 24.46875 63.03125 
Q 24.65625 63.1875 24.953125 63.28125 
Q 25.25 63.375 25.6875 63.46875 
Q 26.125 63.578125 26.703125 63.59375 
Q 27.296875 63.625 28.171875 63.625 
Q 29.34375 63.625 30.125 63.515625 
Q 30.90625 63.421875 31.34375 63.25 
Q 31.78125 63.09375 31.921875 62.8125 
Q 32.078125 62.546875 32.078125 62.25 
L 32.078125 6.734375 
L 43.5 6.734375 
Q 43.890625 6.734375 44.234375 6.515625 
Q 44.578125 6.296875 44.796875 5.875 
Q 45.015625 5.46875 45.140625 4.828125 
Q 45.265625 4.203125 45.265625 3.328125 
z
" id="Calibri-31"/>
      </defs>
      <g transform="translate(542.37375 393.442812)scale(0.18 -0.18)">
       <use xlink:href="#Calibri-31"/>
       <use x="50.683594" xlink:href="#Calibri-2e"/>
       <use x="75.927734" xlink:href="#Calibri-30"/>
      </g>
     </g>
    </g>
    <g id="xtick_7">
     <g id="line2d_13">
      <defs>
       <path d="M 0 0 
L 0 2 
" id="m51729a092d" style="stroke:#000000;stroke-width:0.6;"/>
      </defs>
      <g>
       <use style="stroke:#000000;stroke-width:0.6;" x="90.892" xlink:href="#m51729a092d" y="369.7"/>
      </g>
     </g>
    </g>
    <g id="xtick_8">
     <g id="line2d_14">
      <g>
       <use style="stroke:#000000;stroke-width:0.6;" x="115.254" xlink:href="#m51729a092d" y="369.7"/>
      </g>
     </g>
    </g>
    <g id="xtick_9">
     <g id="line2d_15">
      <g>
       <use style="stroke:#000000;stroke-width:0.6;" x="139.616" xlink:href="#m51729a092d" y="369.7"/>
      </g>
     </g>
    </g>
    <g id="xtick_10">
     <g id="line2d_16">
      <g>
       <use style="stroke:#000000;stroke-width:0.6;" x="188.34" xlink:href="#m51729a092d" y="369.7"/>
      </g>
     </g>
    </g>
    <g id="xtick_11">
     <g id="line2d_17">
      <g>
       <use style="stroke:#000000;stroke-width:0.6;" x="212.702" xlink:href="#m51729a092d" y="369.7"/>
      </g>
     </g>
    </g>
    <g id="xtick_12">
     <g id="line2d_18">
      <g>
       <use style="stroke:#000000;stroke-width:0.6;" x="237.064" xlink:href="#m51729a092d" y="369.7"/>
      </g>
     </g>
    </g>
    <g id="xtick_13">
     <g id="line2d_19">
      <g>
       <use style="stroke:#000000;stroke-width:0.6;" x="285.788" xlink:href="#m51729a092d" y="369.7"/>
      </g>
     </g>
    </g>
    <g id="xtick_14">
     <g id="line2d_20">
      <g>
       <use style="stroke:#000000;stroke-width:0.6;" x="310.15" xlink:href="#m51729a092d" y="369.7"/>
      </g>
     </g>
    </g>
    <g id="xtick_15">
     <g id="line2d_21">
      <g>
       <use style="stroke:#000000;stroke-width:0.6;" x="334.512" xlink:href="#m51729a092d" y="369.7"/>
      </g>
     </g>
    </g>
    <g id="xtick_16">
     <g id="line2d_22">
      <g>
       <use style="stroke:#000000;stroke-width:0.6;" x="383.236" xlink:href="#m51729a092d" y="369.7"/>
      </g>
     </g>
    </g>
    <g id="xtick_17">
     <g id="line2d_23">
      <g>
       <use style="stroke:#000000;stroke-width:0.6;" x="407.598" xlink:href="#m51729a092d" y="369.7"/>
      </g>
     </g>
    </g>
    <g id="xtick_18">
     <g id="line2d_24">
      <g>
       <use style="stroke:#000000;stroke-width:0.6;" x="431.96" xlink:href="#m51729a092d" y="369.7"/>
      </g>
     </g>
    </g>
    <g id="xtick_19">
     <g id="line2d_25">
      <g>
       <use style="stroke:#000000;stroke-width:0.6;" x="480.684" xlink:href="#m51729a092d" y="369.7"/>
      </g>
     </g>
    </g>
    <g id="xtick_20">
     <g id="line2d_26">
      <g>
       <use style="stroke:#000000;stroke-width:0.6;" x="505.046" xlink:href="#m51729a092d" y="369.7"/>
      </g>
     </g>
    </g>
    <g id="xtick_21">
     <g id="line2d_27">
      <g>
       <use style="stroke:#000000;stroke-width:0.6;" x="529.408" xlink:href="#m51729a092d" y="369.7"/>
      </g>
     </g>
    </g>
    <g id="text_7">
     <!-- $x=\sin \phi$ -->
     <defs>
      <path d="M 27.203125 23.640625 
L 36.765625 2.15625 
Q 37.0625 1.46875 36.984375 1 
Q 36.921875 0.53125 36.375 0.234375 
Q 35.84375 -0.046875 34.890625 -0.171875 
Q 33.9375 -0.296875 32.421875 -0.296875 
Q 31.0625 -0.296875 30.28125 -0.21875 
Q 29.5 -0.140625 29.046875 0.03125 
Q 28.609375 0.203125 28.46875 0.46875 
Q 28.328125 0.734375 28.171875 1.078125 
L 20.84375 18.40625 
L 7.03125 1.078125 
Q 6.734375 0.734375 6.421875 0.46875 
Q 6.109375 0.203125 5.515625 0.046875 
Q 4.9375 -0.09375 4.03125 -0.1875 
Q 3.125 -0.296875 1.65625 -0.296875 
Q 0.25 -0.296875 -0.625 -0.171875 
Q -1.515625 -0.046875 -1.921875 0.234375 
Q -2.34375 0.53125 -2.265625 0.96875 
Q -2.203125 1.421875 -1.703125 2.09375 
L 16.546875 23.78125 
L 7.515625 44.28125 
Q 7.234375 44.96875 7.28125 45.4375 
Q 7.328125 45.90625 7.78125 46.1875 
Q 8.25 46.484375 9.171875 46.578125 
Q 10.109375 46.6875 11.625 46.6875 
Q 12.984375 46.6875 13.765625 46.609375 
Q 14.546875 46.53125 14.953125 46.375 
Q 15.375 46.234375 15.546875 45.984375 
Q 15.71875 45.75 15.875 45.40625 
L 22.859375 29 
L 36.03125 45.40625 
Q 36.328125 45.703125 36.625 45.9375 
Q 36.921875 46.1875 37.453125 46.359375 
Q 37.984375 46.53125 38.78125 46.609375 
Q 39.59375 46.6875 40.921875 46.6875 
Q 42.390625 46.6875 43.3125 46.578125 
Q 44.234375 46.484375 44.671875 46.234375 
Q 45.125 46 45.046875 45.53125 
Q 44.96875 45.0625 44.34375 44.390625 
z
" id="Calibri-Italic-78"/>
      <path d="M 45.171875 37.640625 
Q 45.171875 35.6875 44.609375 34.9375 
Q 44.046875 34.1875 43.3125 34.1875 
L 6.390625 34.1875 
Q 5.671875 34.1875 5.125 34.9375 
Q 4.59375 35.6875 4.59375 37.640625 
Q 4.59375 39.40625 5.078125 40.234375 
Q 5.5625 41.0625 6.390625 41.0625 
L 43.3125 41.0625 
Q 44.1875 41.0625 44.671875 40.234375 
Q 45.171875 39.40625 45.171875 37.640625 
z
M 45.171875 18.65625 
Q 45.171875 16.703125 44.609375 15.96875 
Q 44.046875 15.234375 43.3125 15.234375 
L 6.390625 15.234375 
Q 5.671875 15.234375 5.125 15.96875 
Q 4.59375 16.703125 4.59375 18.65625 
Q 4.59375 20.453125 5.078125 21.28125 
Q 5.5625 22.125 6.390625 22.125 
L 43.3125 22.125 
Q 44.1875 22.125 44.671875 21.28125 
Q 45.171875 20.453125 45.171875 18.65625 
z
" id="Calibri-3d"/>
      <path d="M 35.0625 13.1875 
Q 35.0625 9.8125 33.8125 7.171875 
Q 32.5625 4.546875 30.265625 2.734375 
Q 27.984375 0.921875 24.796875 0 
Q 21.625 -0.921875 17.828125 -0.921875 
Q 15.484375 -0.921875 13.359375 -0.5625 
Q 11.234375 -0.203125 9.546875 0.359375 
Q 7.859375 0.921875 6.6875 1.53125 
Q 5.515625 2.15625 4.96875 2.640625 
Q 4.4375 3.125 4.1875 4 
Q 3.953125 4.890625 3.953125 6.390625 
Q 3.953125 7.328125 4.046875 7.953125 
Q 4.15625 8.59375 4.296875 8.984375 
Q 4.4375 9.375 4.703125 9.546875 
Q 4.984375 9.71875 5.328125 9.71875 
Q 5.859375 9.71875 6.90625 9.0625 
Q 7.953125 8.40625 9.484375 7.625 
Q 11.03125 6.84375 13.125 6.171875 
Q 15.234375 5.515625 17.96875 5.515625 
Q 20.015625 5.515625 21.671875 5.953125 
Q 23.34375 6.390625 24.5625 7.25 
Q 25.78125 8.109375 26.4375 9.421875 
Q 27.09375 10.75 27.09375 12.546875 
Q 27.09375 14.40625 26.140625 15.671875 
Q 25.203125 16.9375 23.640625 17.90625 
Q 22.078125 18.890625 20.125 19.640625 
Q 18.171875 20.40625 16.09375 21.234375 
Q 14.015625 22.078125 12.03125 23.125 
Q 10.0625 24.171875 8.5 25.6875 
Q 6.9375 27.203125 5.984375 29.296875 
Q 5.03125 31.390625 5.03125 34.328125 
Q 5.03125 36.921875 6.03125 39.28125 
Q 7.03125 41.65625 9.03125 43.4375 
Q 11.03125 45.21875 14.03125 46.28125 
Q 17.046875 47.359375 21.046875 47.359375 
Q 22.796875 47.359375 24.546875 47.0625 
Q 26.3125 46.78125 27.734375 46.34375 
Q 29.15625 45.90625 30.15625 45.390625 
Q 31.15625 44.875 31.65625 44.484375 
Q 32.171875 44.09375 32.34375 43.796875 
Q 32.515625 43.5 32.59375 43.140625 
Q 32.671875 42.78125 32.734375 42.234375 
Q 32.8125 41.703125 32.8125 40.921875 
Q 32.8125 40.09375 32.734375 39.484375 
Q 32.671875 38.875 32.5 38.484375 
Q 32.328125 38.09375 32.078125 37.921875 
Q 31.84375 37.75 31.546875 37.75 
Q 31.109375 37.75 30.265625 38.28125 
Q 29.4375 38.8125 28.125 39.421875 
Q 26.8125 40.046875 25.03125 40.578125 
Q 23.25 41.109375 20.953125 41.109375 
Q 18.890625 41.109375 17.328125 40.640625 
Q 15.765625 40.1875 14.765625 39.328125 
Q 13.765625 38.484375 13.25 37.3125 
Q 12.75 36.140625 12.75 34.765625 
Q 12.75 32.859375 13.71875 31.5625 
Q 14.703125 30.28125 16.265625 29.296875 
Q 17.828125 28.328125 19.828125 27.546875 
Q 21.828125 26.765625 23.90625 25.921875 
Q 25.984375 25.09375 28 24.0625 
Q 30.03125 23.046875 31.59375 21.578125 
Q 33.15625 20.125 34.109375 18.0625 
Q 35.0625 16.015625 35.0625 13.1875 
z
" id="Calibri-73"/>
      <path d="M 15.53125 1.21875 
Q 15.53125 0.828125 15.328125 0.5625 
Q 15.140625 0.296875 14.703125 0.09375 
Q 14.265625 -0.09375 13.484375 -0.1875 
Q 12.703125 -0.296875 11.46875 -0.296875 
Q 10.296875 -0.296875 9.515625 -0.1875 
Q 8.734375 -0.09375 8.265625 0.09375 
Q 7.8125 0.296875 7.640625 0.5625 
Q 7.46875 0.828125 7.46875 1.21875 
L 7.46875 45.171875 
Q 7.46875 45.515625 7.640625 45.796875 
Q 7.8125 46.09375 8.265625 46.28125 
Q 8.734375 46.484375 9.515625 46.578125 
Q 10.296875 46.6875 11.46875 46.6875 
Q 12.703125 46.6875 13.484375 46.578125 
Q 14.265625 46.484375 14.703125 46.28125 
Q 15.140625 46.09375 15.328125 45.796875 
Q 15.53125 45.515625 15.53125 45.171875 
z
M 16.453125 60.015625 
Q 16.453125 57.171875 15.375 56.140625 
Q 14.3125 55.125 11.421875 55.125 
Q 8.59375 55.125 7.546875 56.125 
Q 6.5 57.125 6.5 59.90625 
Q 6.5 62.75 7.5625 63.765625 
Q 8.640625 64.796875 11.53125 64.796875 
Q 14.359375 64.796875 15.40625 63.796875 
Q 16.453125 62.796875 16.453125 60.015625 
z
" id="Calibri-69"/>
      <path d="M 45.3125 1.21875 
Q 45.3125 0.828125 45.109375 0.5625 
Q 44.921875 0.296875 44.484375 0.09375 
Q 44.046875 -0.09375 43.265625 -0.1875 
Q 42.484375 -0.296875 41.3125 -0.296875 
Q 40.09375 -0.296875 39.3125 -0.1875 
Q 38.53125 -0.09375 38.078125 0.09375 
Q 37.640625 0.296875 37.4375 0.5625 
Q 37.25 0.828125 37.25 1.21875 
L 37.25 26.953125 
Q 37.25 30.71875 36.65625 33 
Q 36.078125 35.296875 34.953125 36.953125 
Q 33.84375 38.625 32.0625 39.5 
Q 30.28125 40.375 27.9375 40.375 
Q 24.90625 40.375 21.875 38.21875 
Q 18.84375 36.078125 15.53125 31.9375 
L 15.53125 1.21875 
Q 15.53125 0.828125 15.328125 0.5625 
Q 15.140625 0.296875 14.703125 0.09375 
Q 14.265625 -0.09375 13.484375 -0.1875 
Q 12.703125 -0.296875 11.46875 -0.296875 
Q 10.296875 -0.296875 9.515625 -0.1875 
Q 8.734375 -0.09375 8.265625 0.09375 
Q 7.8125 0.296875 7.640625 0.5625 
Q 7.46875 0.828125 7.46875 1.21875 
L 7.46875 45.171875 
Q 7.46875 45.5625 7.609375 45.828125 
Q 7.765625 46.09375 8.203125 46.3125 
Q 8.640625 46.53125 9.328125 46.609375 
Q 10.015625 46.6875 11.140625 46.6875 
Q 12.203125 46.6875 12.90625 46.609375 
Q 13.625 46.53125 14.015625 46.3125 
Q 14.40625 46.09375 14.578125 45.828125 
Q 14.75 45.5625 14.75 45.171875 
L 14.75 39.359375 
Q 18.453125 43.5 22.140625 45.421875 
Q 25.828125 47.359375 29.59375 47.359375 
Q 33.984375 47.359375 36.984375 45.875 
Q 39.984375 44.390625 41.84375 41.890625 
Q 43.703125 39.40625 44.5 36.0625 
Q 45.3125 32.71875 45.3125 28.03125 
z
" id="Calibri-6e"/>
      <path d="M 23.78125 -0.921875 
Q 14.15625 -0.34375 8.875 4.03125 
Q 3.609375 8.40625 3.609375 16.609375 
Q 3.609375 19.78125 4.21875 23.21875 
Q 4.828125 26.65625 6.21875 29.953125 
Q 7.625 33.25 9.859375 36.25 
Q 12.109375 39.265625 15.421875 41.609375 
Q 18.75 43.953125 23.21875 45.484375 
Q 27.6875 47.015625 33.453125 47.3125 
L 37.3125 66.453125 
Q 37.359375 66.84375 37.625 67.140625 
Q 37.890625 67.4375 38.375 67.625 
Q 38.875 67.828125 39.703125 67.921875 
Q 40.53125 68.015625 41.703125 68.015625 
Q 44.046875 68.015625 44.78125 67.625 
Q 45.515625 67.234375 45.40625 66.453125 
L 41.5 47.3125 
Q 51.46875 46.734375 56.59375 42.28125 
Q 61.71875 37.84375 61.71875 29.890625 
Q 61.71875 26.65625 61.125 23.21875 
Q 60.546875 19.78125 59.15625 16.453125 
Q 57.765625 13.140625 55.484375 10.125 
Q 53.21875 7.125 49.890625 4.78125 
Q 46.578125 2.4375 42.078125 0.890625 
Q 37.59375 -0.640625 31.84375 -0.921875 
L 28.8125 -16.21875 
Q 28.65625 -16.609375 28.4375 -16.890625 
Q 28.21875 -17.1875 27.734375 -17.375 
Q 27.25 -17.578125 26.4375 -17.671875 
Q 25.640625 -17.78125 24.515625 -17.78125 
Q 22.3125 -17.78125 21.40625 -17.40625 
Q 20.515625 -17.046875 20.703125 -16.21875 
z
M 33.15625 5.671875 
Q 37.59375 5.953125 40.8125 7.3125 
Q 44.046875 8.6875 46.28125 10.71875 
Q 48.53125 12.75 49.921875 15.234375 
Q 51.3125 17.71875 52.09375 20.203125 
Q 52.875 22.703125 53.140625 25 
Q 53.421875 27.296875 53.421875 29 
Q 53.421875 30.8125 52.984375 32.78125 
Q 52.546875 34.765625 51.140625 36.421875 
Q 49.75 38.09375 47.140625 39.28125 
Q 44.53125 40.484375 40.140625 40.71875 
z
M 32.171875 40.71875 
Q 27.734375 40.4375 24.515625 39.0625 
Q 21.296875 37.703125 19.046875 35.671875 
Q 16.796875 33.640625 15.40625 31.140625 
Q 14.015625 28.65625 13.234375 26.1875 
Q 12.453125 23.734375 12.1875 21.390625 
Q 11.921875 19.046875 11.921875 17.390625 
Q 11.921875 15.578125 12.359375 13.59375 
Q 12.796875 11.625 14.1875 9.953125 
Q 15.578125 8.296875 18.1875 7.09375 
Q 20.796875 5.90625 25.203125 5.671875 
z
" id="Calibri-Italic-3d5"/>
     </defs>
     <g transform="translate(281.175 413.753437)scale(0.19 -0.19)">
      <use transform="translate(0 0.984375)" xlink:href="#Calibri-Italic-78"/>
      <use transform="translate(59.130859 0.984375)" xlink:href="#Calibri-3d"/>
      <use transform="translate(124.755859 0.984375)" xlink:href="#Calibri-73"/>
      <use transform="translate(163.867188 0.984375)" xlink:href="#Calibri-69"/>
      <use transform="translate(186.816406 0.984375)" xlink:href="#Calibri-6e"/>
      <use transform="translate(239.355469 0.984375)" xlink:href="#Calibri-Italic-3d5"/>
     </g>
    </g>
   </g>
   <g id="matplotlib.axis_2">
    <g id="ytick_1">
     <g id="line2d_28">
      <path clip-path="url(#p18d01051f8)" d="M 66.53 353.500909 
L 553.77 353.500909 
" style="fill:none;stroke:#bfbfbf;stroke-linecap:square;stroke-width:0.8;"/>
     </g>
     <g id="line2d_29">
      <defs>
       <path d="M 0 0 
L -3.5 0 
" id="m25737c6da2" style="stroke:#000000;stroke-width:0.8;"/>
      </defs>
      <g>
       <use style="stroke:#000000;stroke-width:0.8;" x="66.53" xlink:href="#m25737c6da2" y="353.500909"/>
      </g>
     </g>
     <g id="text_8">
      <!-- 0.0 -->
      <g transform="translate(32.2375 359.622315)scale(0.18 -0.18)">
       <use xlink:href="#Calibri-30"/>
       <use x="50.683594" xlink:href="#Calibri-2e"/>
       <use x="75.927734" xlink:href="#Calibri-30"/>
      </g>
     </g>
    </g>
    <g id="ytick_2">
     <g id="line2d_30">
      <path clip-path="url(#p18d01051f8)" d="M 66.53 308.091334 
L 553.77 308.091334 
" style="fill:none;stroke:#bfbfbf;stroke-linecap:square;stroke-width:0.8;"/>
     </g>
     <g id="line2d_31">
      <g>
       <use style="stroke:#000000;stroke-width:0.8;" x="66.53" xlink:href="#m25737c6da2" y="308.091334"/>
      </g>
     </g>
     <g id="text_9">
      <!-- 0.5 -->
      <defs>
       <path d="M 44.828125 20.3125 
Q 44.828125 15.234375 43.109375 11.28125 
Q 41.40625 7.328125 38.28125 4.609375 
Q 35.15625 1.90625 30.828125 0.484375 
Q 26.515625 -0.921875 21.234375 -0.921875 
Q 18.3125 -0.921875 15.671875 -0.5 
Q 13.03125 -0.09375 10.984375 0.515625 
Q 8.9375 1.125 7.609375 1.703125 
Q 6.296875 2.296875 5.921875 2.640625 
Q 5.5625 2.984375 5.421875 3.265625 
Q 5.28125 3.5625 5.15625 3.96875 
Q 5.03125 4.390625 4.984375 5.03125 
Q 4.9375 5.671875 4.9375 6.546875 
Q 4.9375 7.375 5 8.03125 
Q 5.078125 8.6875 5.265625 9.09375 
Q 5.46875 9.515625 5.734375 9.703125 
Q 6 9.90625 6.34375 9.90625 
Q 6.84375 9.90625 7.859375 9.296875 
Q 8.890625 8.6875 10.625 7.984375 
Q 12.359375 7.28125 14.921875 6.640625 
Q 17.484375 6 21 6 
Q 24.265625 6 27 6.78125 
Q 29.734375 7.5625 31.703125 9.21875 
Q 33.6875 10.890625 34.8125 13.40625 
Q 35.9375 15.921875 35.9375 19.53125 
Q 35.9375 22.5625 34.984375 24.875 
Q 34.03125 27.203125 32.046875 28.734375 
Q 30.078125 30.28125 27.046875 31.03125 
Q 24.03125 31.78125 19.828125 31.78125 
Q 16.84375 31.78125 14.6875 31.484375 
Q 12.546875 31.203125 10.6875 31.203125 
Q 9.328125 31.203125 8.734375 31.828125 
Q 8.15625 32.46875 8.15625 34.28125 
L 8.15625 60.015625 
Q 8.15625 61.625 8.90625 62.40625 
Q 9.671875 63.1875 11.078125 63.1875 
L 39.0625 63.1875 
Q 39.453125 63.1875 39.8125 62.96875 
Q 40.1875 62.75 40.421875 62.296875 
Q 40.671875 61.859375 40.796875 61.171875 
Q 40.921875 60.5 40.921875 59.578125 
Q 40.921875 57.8125 40.421875 56.828125 
Q 39.9375 55.859375 39.0625 55.859375 
L 15.484375 55.859375 
L 15.484375 38.140625 
Q 17.1875 38.375 18.96875 38.421875 
Q 20.75 38.484375 23.09375 38.484375 
Q 28.515625 38.484375 32.5625 37.1875 
Q 36.625 35.890625 39.328125 33.515625 
Q 42.046875 31.15625 43.4375 27.78125 
Q 44.828125 24.421875 44.828125 20.3125 
z
" id="Calibri-35"/>
      </defs>
      <g transform="translate(32.2375 314.21274)scale(0.18 -0.18)">
       <use xlink:href="#Calibri-30"/>
       <use x="50.683594" xlink:href="#Calibri-2e"/>
       <use x="75.927734" xlink:href="#Calibri-35"/>
      </g>
     </g>
    </g>
    <g id="ytick_3">
     <g id="line2d_32">
      <path clip-path="url(#p18d01051f8)" d="M 66.53 262.681759 
L 553.77 262.681759 
" style="fill:none;stroke:#bfbfbf;stroke-linecap:square;stroke-width:0.8;"/>
     </g>
     <g id="line2d_33">
      <g>
       <use style="stroke:#000000;stroke-width:0.8;" x="66.53" xlink:href="#m25737c6da2" y="262.681759"/>
      </g>
     </g>
     <g id="text_10">
      <!-- 1.0 -->
      <g transform="translate(32.2375 268.803165)scale(0.18 -0.18)">
       <use xlink:href="#Calibri-31"/>
       <use x="50.683594" xlink:href="#Calibri-2e"/>
       <use x="75.927734" xlink:href="#Calibri-30"/>
      </g>
     </g>
    </g>
    <g id="ytick_4">
     <g id="line2d_34">
      <path clip-path="url(#p18d01051f8)" d="M 66.53 217.272184 
L 553.77 217.272184 
" style="fill:none;stroke:#bfbfbf;stroke-linecap:square;stroke-width:0.8;"/>
     </g>
     <g id="line2d_35">
      <g>
       <use style="stroke:#000000;stroke-width:0.8;" x="66.53" xlink:href="#m25737c6da2" y="217.272184"/>
      </g>
     </g>
     <g id="text_11">
      <!-- 1.5 -->
      <g transform="translate(32.2375 223.39359)scale(0.18 -0.18)">
       <use xlink:href="#Calibri-31"/>
       <use x="50.683594" xlink:href="#Calibri-2e"/>
       <use x="75.927734" xlink:href="#Calibri-35"/>
      </g>
     </g>
    </g>
    <g id="ytick_5">
     <g id="line2d_36">
      <path clip-path="url(#p18d01051f8)" d="M 66.53 171.862609 
L 553.77 171.862609 
" style="fill:none;stroke:#bfbfbf;stroke-linecap:square;stroke-width:0.8;"/>
     </g>
     <g id="line2d_37">
      <g>
       <use style="stroke:#000000;stroke-width:0.8;" x="66.53" xlink:href="#m25737c6da2" y="171.862609"/>
      </g>
     </g>
     <g id="text_12">
      <!-- 2.0 -->
      <g transform="translate(32.2375 177.984015)scale(0.18 -0.18)">
       <use xlink:href="#Calibri-32"/>
       <use x="50.683594" xlink:href="#Calibri-2e"/>
       <use x="75.927734" xlink:href="#Calibri-30"/>
      </g>
     </g>
    </g>
    <g id="ytick_6">
     <g id="line2d_38">
      <path clip-path="url(#p18d01051f8)" d="M 66.53 126.453034 
L 553.77 126.453034 
" style="fill:none;stroke:#bfbfbf;stroke-linecap:square;stroke-width:0.8;"/>
     </g>
     <g id="line2d_39">
      <g>
       <use style="stroke:#000000;stroke-width:0.8;" x="66.53" xlink:href="#m25737c6da2" y="126.453034"/>
      </g>
     </g>
     <g id="text_13">
      <!-- 2.5 -->
      <g transform="translate(32.2375 132.57444)scale(0.18 -0.18)">
       <use xlink:href="#Calibri-32"/>
       <use x="50.683594" xlink:href="#Calibri-2e"/>
       <use x="75.927734" xlink:href="#Calibri-35"/>
      </g>
     </g>
    </g>
    <g id="ytick_7">
     <g id="line2d_40">
      <path clip-path="url(#p18d01051f8)" d="M 66.53 81.043459 
L 553.77 81.043459 
" style="fill:none;stroke:#bfbfbf;stroke-linecap:square;stroke-width:0.8;"/>
     </g>
     <g id="line2d_41">
      <g>
       <use style="stroke:#000000;stroke-width:0.8;" x="66.53" xlink:href="#m25737c6da2" y="81.043459"/>
      </g>
     </g>
     <g id="text_14">
      <!-- 3.0 -->
      <defs>
       <path d="M 44.625 18.0625 
Q 44.625 13.71875 43.109375 10.21875 
Q 41.609375 6.734375 38.765625 4.25 
Q 35.9375 1.765625 31.78125 0.421875 
Q 27.640625 -0.921875 22.40625 -0.921875 
Q 19.234375 -0.921875 16.46875 -0.40625 
Q 13.71875 0.09375 11.5625 0.796875 
Q 9.421875 1.515625 8 2.265625 
Q 6.59375 3.03125 6.21875 3.375 
Q 5.859375 3.71875 5.65625 4.046875 
Q 5.46875 4.390625 5.3125 4.875 
Q 5.171875 5.375 5.09375 6.078125 
Q 5.03125 6.78125 5.03125 7.8125 
Q 5.03125 9.578125 5.375 10.25 
Q 5.71875 10.9375 6.34375 10.9375 
Q 6.78125 10.9375 8.078125 10.15625 
Q 9.375 9.375 11.390625 8.46875 
Q 13.421875 7.5625 16.125 6.78125 
Q 18.84375 6 22.171875 6 
Q 25.390625 6 27.828125 6.828125 
Q 30.28125 7.671875 31.9375 9.171875 
Q 33.59375 10.6875 34.421875 12.765625 
Q 35.25 14.84375 35.25 17.28125 
Q 35.25 19.96875 34.203125 22.109375 
Q 33.15625 24.265625 31.125 25.828125 
Q 29.109375 27.390625 26.140625 28.21875 
Q 23.1875 29.046875 19.4375 29.046875 
L 13.421875 29.046875 
Q 13.03125 29.046875 12.671875 29.21875 
Q 12.3125 29.390625 12.03125 29.78125 
Q 11.765625 30.171875 11.59375 30.8125 
Q 11.421875 31.453125 11.421875 32.46875 
Q 11.421875 33.40625 11.5625 34.015625 
Q 11.71875 34.625 11.984375 34.984375 
Q 12.25 35.359375 12.59375 35.515625 
Q 12.9375 35.6875 13.375 35.6875 
L 18.890625 35.6875 
Q 22.125 35.6875 24.6875 36.515625 
Q 27.25 37.359375 29.03125 38.921875 
Q 30.8125 40.484375 31.765625 42.65625 
Q 32.71875 44.828125 32.71875 47.515625 
Q 32.71875 49.46875 32.078125 51.25 
Q 31.453125 53.03125 30.171875 54.34375 
Q 28.90625 55.671875 26.921875 56.421875 
Q 24.953125 57.171875 22.359375 57.171875 
Q 19.53125 57.171875 17.15625 56.3125 
Q 14.796875 55.46875 12.9375 54.484375 
Q 11.078125 53.515625 9.859375 52.65625 
Q 8.640625 51.8125 8.15625 51.8125 
Q 7.8125 51.8125 7.546875 51.921875 
Q 7.28125 52.046875 7.109375 52.40625 
Q 6.9375 52.78125 6.859375 53.4375 
Q 6.78125 54.109375 6.78125 55.171875 
Q 6.78125 55.90625 6.828125 56.46875 
Q 6.890625 57.03125 7.03125 57.4375 
Q 7.171875 57.859375 7.359375 58.203125 
Q 7.5625 58.546875 8.03125 59 
Q 8.5 59.46875 9.90625 60.34375 
Q 11.328125 61.234375 13.40625 62.078125 
Q 15.484375 62.9375 18.1875 63.515625 
Q 20.90625 64.109375 24.03125 64.109375 
Q 28.421875 64.109375 31.734375 62.984375 
Q 35.0625 61.859375 37.28125 59.8125 
Q 39.5 57.765625 40.59375 54.90625 
Q 41.703125 52.046875 41.703125 48.578125 
Q 41.703125 45.609375 40.921875 43.046875 
Q 40.140625 40.484375 38.625 38.5 
Q 37.109375 36.53125 34.90625 35.125 
Q 32.71875 33.734375 29.828125 33.203125 
L 29.828125 33.109375 
Q 33.109375 32.765625 35.8125 31.46875 
Q 38.53125 30.171875 40.484375 28.21875 
Q 42.4375 26.265625 43.53125 23.65625 
Q 44.625 21.046875 44.625 18.0625 
z
" id="Calibri-33"/>
      </defs>
      <g transform="translate(32.2375 87.164865)scale(0.18 -0.18)">
       <use xlink:href="#Calibri-33"/>
       <use x="50.683594" xlink:href="#Calibri-2e"/>
       <use x="75.927734" xlink:href="#Calibri-30"/>
      </g>
     </g>
    </g>
    <g id="ytick_8">
     <g id="line2d_42">
      <path clip-path="url(#p18d01051f8)" d="M 66.53 35.633884 
L 553.77 35.633884 
" style="fill:none;stroke:#bfbfbf;stroke-linecap:square;stroke-width:0.8;"/>
     </g>
     <g id="line2d_43">
      <g>
       <use style="stroke:#000000;stroke-width:0.8;" x="66.53" xlink:href="#m25737c6da2" y="35.633884"/>
      </g>
     </g>
     <g id="text_15">
      <!-- 3.5 -->
      <g transform="translate(32.2375 41.75529)scale(0.18 -0.18)">
       <use xlink:href="#Calibri-33"/>
       <use x="50.683594" xlink:href="#Calibri-2e"/>
       <use x="75.927734" xlink:href="#Calibri-35"/>
      </g>
     </g>
    </g>
    <g id="ytick_9">
     <g id="line2d_44">
      <defs>
       <path d="M 0 0 
L -2 0 
" id="m9ef0116fd9" style="stroke:#000000;stroke-width:0.6;"/>
      </defs>
      <g>
       <use style="stroke:#000000;stroke-width:0.6;" x="66.53" xlink:href="#m9ef0116fd9" y="362.582824"/>
      </g>
     </g>
    </g>
    <g id="ytick_10">
     <g id="line2d_45">
      <g>
       <use style="stroke:#000000;stroke-width:0.6;" x="66.53" xlink:href="#m9ef0116fd9" y="344.418994"/>
      </g>
     </g>
    </g>
    <g id="ytick_11">
     <g id="line2d_46">
      <g>
       <use style="stroke:#000000;stroke-width:0.6;" x="66.53" xlink:href="#m9ef0116fd9" y="335.337079"/>
      </g>
     </g>
    </g>
    <g id="ytick_12">
     <g id="line2d_47">
      <g>
       <use style="stroke:#000000;stroke-width:0.6;" x="66.53" xlink:href="#m9ef0116fd9" y="326.255164"/>
      </g>
     </g>
    </g>
    <g id="ytick_13">
     <g id="line2d_48">
      <g>
       <use style="stroke:#000000;stroke-width:0.6;" x="66.53" xlink:href="#m9ef0116fd9" y="317.173249"/>
      </g>
     </g>
    </g>
    <g id="ytick_14">
     <g id="line2d_49">
      <g>
       <use style="stroke:#000000;stroke-width:0.6;" x="66.53" xlink:href="#m9ef0116fd9" y="308.091334"/>
      </g>
     </g>
    </g>
    <g id="ytick_15">
     <g id="line2d_50">
      <g>
       <use style="stroke:#000000;stroke-width:0.6;" x="66.53" xlink:href="#m9ef0116fd9" y="299.009419"/>
      </g>
     </g>
    </g>
    <g id="ytick_16">
     <g id="line2d_51">
      <g>
       <use style="stroke:#000000;stroke-width:0.6;" x="66.53" xlink:href="#m9ef0116fd9" y="289.927504"/>
      </g>
     </g>
    </g>
    <g id="ytick_17">
     <g id="line2d_52">
      <g>
       <use style="stroke:#000000;stroke-width:0.6;" x="66.53" xlink:href="#m9ef0116fd9" y="280.845589"/>
      </g>
     </g>
    </g>
    <g id="ytick_18">
     <g id="line2d_53">
      <g>
       <use style="stroke:#000000;stroke-width:0.6;" x="66.53" xlink:href="#m9ef0116fd9" y="271.763674"/>
      </g>
     </g>
    </g>
    <g id="ytick_19">
     <g id="line2d_54">
      <g>
       <use style="stroke:#000000;stroke-width:0.6;" x="66.53" xlink:href="#m9ef0116fd9" y="262.681759"/>
      </g>
     </g>
    </g>
    <g id="ytick_20">
     <g id="line2d_55">
      <g>
       <use style="stroke:#000000;stroke-width:0.6;" x="66.53" xlink:href="#m9ef0116fd9" y="253.599844"/>
      </g>
     </g>
    </g>
    <g id="ytick_21">
     <g id="line2d_56">
      <g>
       <use style="stroke:#000000;stroke-width:0.6;" x="66.53" xlink:href="#m9ef0116fd9" y="244.517929"/>
      </g>
     </g>
    </g>
    <g id="ytick_22">
     <g id="line2d_57">
      <g>
       <use style="stroke:#000000;stroke-width:0.6;" x="66.53" xlink:href="#m9ef0116fd9" y="235.436014"/>
      </g>
     </g>
    </g>
    <g id="ytick_23">
     <g id="line2d_58">
      <g>
       <use style="stroke:#000000;stroke-width:0.6;" x="66.53" xlink:href="#m9ef0116fd9" y="226.354099"/>
      </g>
     </g>
    </g>
    <g id="ytick_24">
     <g id="line2d_59">
      <g>
       <use style="stroke:#000000;stroke-width:0.6;" x="66.53" xlink:href="#m9ef0116fd9" y="217.272184"/>
      </g>
     </g>
    </g>
    <g id="ytick_25">
     <g id="line2d_60">
      <g>
       <use style="stroke:#000000;stroke-width:0.6;" x="66.53" xlink:href="#m9ef0116fd9" y="208.190269"/>
      </g>
     </g>
    </g>
    <g id="ytick_26">
     <g id="line2d_61">
      <g>
       <use style="stroke:#000000;stroke-width:0.6;" x="66.53" xlink:href="#m9ef0116fd9" y="199.108354"/>
      </g>
     </g>
    </g>
    <g id="ytick_27">
     <g id="line2d_62">
      <g>
       <use style="stroke:#000000;stroke-width:0.6;" x="66.53" xlink:href="#m9ef0116fd9" y="190.026439"/>
      </g>
     </g>
    </g>
    <g id="ytick_28">
     <g id="line2d_63">
      <g>
       <use style="stroke:#000000;stroke-width:0.6;" x="66.53" xlink:href="#m9ef0116fd9" y="180.944524"/>
      </g>
     </g>
    </g>
    <g id="ytick_29">
     <g id="line2d_64">
      <g>
       <use style="stroke:#000000;stroke-width:0.6;" x="66.53" xlink:href="#m9ef0116fd9" y="171.862609"/>
      </g>
     </g>
    </g>
    <g id="ytick_30">
     <g id="line2d_65">
      <g>
       <use style="stroke:#000000;stroke-width:0.6;" x="66.53" xlink:href="#m9ef0116fd9" y="162.780694"/>
      </g>
     </g>
    </g>
    <g id="ytick_31">
     <g id="line2d_66">
      <g>
       <use style="stroke:#000000;stroke-width:0.6;" x="66.53" xlink:href="#m9ef0116fd9" y="153.698779"/>
      </g>
     </g>
    </g>
    <g id="ytick_32">
     <g id="line2d_67">
      <g>
       <use style="stroke:#000000;stroke-width:0.6;" x="66.53" xlink:href="#m9ef0116fd9" y="144.616864"/>
      </g>
     </g>
    </g>
    <g id="ytick_33">
     <g id="line2d_68">
      <g>
       <use style="stroke:#000000;stroke-width:0.6;" x="66.53" xlink:href="#m9ef0116fd9" y="135.534949"/>
      </g>
     </g>
    </g>
    <g id="ytick_34">
     <g id="line2d_69">
      <g>
       <use style="stroke:#000000;stroke-width:0.6;" x="66.53" xlink:href="#m9ef0116fd9" y="126.453034"/>
      </g>
     </g>
    </g>
    <g id="ytick_35">
     <g id="line2d_70">
      <g>
       <use style="stroke:#000000;stroke-width:0.6;" x="66.53" xlink:href="#m9ef0116fd9" y="117.371119"/>
      </g>
     </g>
    </g>
    <g id="ytick_36">
     <g id="line2d_71">
      <g>
       <use style="stroke:#000000;stroke-width:0.6;" x="66.53" xlink:href="#m9ef0116fd9" y="108.289204"/>
      </g>
     </g>
    </g>
    <g id="ytick_37">
     <g id="line2d_72">
      <g>
       <use style="stroke:#000000;stroke-width:0.6;" x="66.53" xlink:href="#m9ef0116fd9" y="99.207289"/>
      </g>
     </g>
    </g>
    <g id="ytick_38">
     <g id="line2d_73">
      <g>
       <use style="stroke:#000000;stroke-width:0.6;" x="66.53" xlink:href="#m9ef0116fd9" y="90.125374"/>
      </g>
     </g>
    </g>
    <g id="ytick_39">
     <g id="line2d_74">
      <g>
       <use style="stroke:#000000;stroke-width:0.6;" x="66.53" xlink:href="#m9ef0116fd9" y="81.043459"/>
      </g>
     </g>
    </g>
    <g id="ytick_40">
     <g id="line2d_75">
      <g>
       <use style="stroke:#000000;stroke-width:0.6;" x="66.53" xlink:href="#m9ef0116fd9" y="71.961544"/>
      </g>
     </g>
    </g>
    <g id="ytick_41">
     <g id="line2d_76">
      <g>
       <use style="stroke:#000000;stroke-width:0.6;" x="66.53" xlink:href="#m9ef0116fd9" y="62.879629"/>
      </g>
     </g>
    </g>
    <g id="ytick_42">
     <g id="line2d_77">
      <g>
       <use style="stroke:#000000;stroke-width:0.6;" x="66.53" xlink:href="#m9ef0116fd9" y="53.797714"/>
      </g>
     </g>
    </g>
    <g id="ytick_43">
     <g id="line2d_78">
      <g>
       <use style="stroke:#000000;stroke-width:0.6;" x="66.53" xlink:href="#m9ef0116fd9" y="44.715799"/>
      </g>
     </g>
    </g>
    <g id="ytick_44">
     <g id="line2d_79">
      <g>
       <use style="stroke:#000000;stroke-width:0.6;" x="66.53" xlink:href="#m9ef0116fd9" y="35.633884"/>
      </g>
     </g>
    </g>
    <g id="ytick_45">
     <g id="line2d_80">
      <g>
       <use style="stroke:#000000;stroke-width:0.6;" x="66.53" xlink:href="#m9ef0116fd9" y="26.551969"/>
      </g>
     </g>
    </g>
    <g id="ytick_46">
     <g id="line2d_81">
      <g>
       <use style="stroke:#000000;stroke-width:0.6;" x="66.53" xlink:href="#m9ef0116fd9" y="17.470054"/>
      </g>
     </g>
    </g>
    <g id="text_16">
     <!-- Poleward Heat Transport (PW) -->
     <defs>
      <path d="M 47.21875 44.671875 
Q 47.21875 39.9375 45.65625 36.125 
Q 44.09375 32.328125 41.1875 29.640625 
Q 38.28125 26.953125 34.046875 25.484375 
Q 29.828125 24.03125 23.96875 24.03125 
L 16.796875 24.03125 
L 16.796875 1.265625 
Q 16.796875 0.875 16.578125 0.578125 
Q 16.359375 0.296875 15.890625 0.125 
Q 15.4375 -0.046875 14.625 -0.171875 
Q 13.8125 -0.296875 12.59375 -0.296875 
Q 11.375 -0.296875 10.5625 -0.171875 
Q 9.765625 -0.046875 9.28125 0.125 
Q 8.796875 0.296875 8.59375 0.578125 
Q 8.40625 0.875 8.40625 1.265625 
L 8.40625 59.578125 
Q 8.40625 61.53125 9.421875 62.359375 
Q 10.453125 63.1875 11.71875 63.1875 
L 25.25 63.1875 
Q 27.296875 63.1875 29.171875 63.015625 
Q 31.0625 62.84375 33.625 62.28125 
Q 36.1875 61.71875 38.84375 60.171875 
Q 41.5 58.640625 43.359375 56.390625 
Q 45.21875 54.15625 46.21875 51.203125 
Q 47.21875 48.25 47.21875 44.671875 
z
M 38.375 44 
Q 38.375 47.859375 36.9375 50.4375 
Q 35.5 53.03125 33.375 54.296875 
Q 31.25 55.5625 28.96875 55.90625 
Q 26.703125 56.25 24.5625 56.25 
L 16.796875 56.25 
L 16.796875 30.90625 
L 24.359375 30.90625 
Q 28.171875 30.90625 30.6875 31.875 
Q 33.203125 32.859375 34.90625 34.59375 
Q 36.625 36.328125 37.5 38.734375 
Q 38.375 41.15625 38.375 44 
z
" id="Calibri-50"/>
      <path d="M 48.34375 23.6875 
Q 48.34375 18.3125 46.921875 13.796875 
Q 45.515625 9.28125 42.703125 6 
Q 39.890625 2.734375 35.671875 0.90625 
Q 31.453125 -0.921875 25.875 -0.921875 
Q 20.453125 -0.921875 16.421875 0.6875 
Q 12.40625 2.296875 9.71875 5.375 
Q 7.03125 8.453125 5.703125 12.84375 
Q 4.390625 17.234375 4.390625 22.796875 
Q 4.390625 28.171875 5.78125 32.6875 
Q 7.171875 37.203125 9.984375 40.46875 
Q 12.796875 43.75 16.984375 45.546875 
Q 21.1875 47.359375 26.8125 47.359375 
Q 32.234375 47.359375 36.25 45.75 
Q 40.28125 44.140625 42.96875 41.0625 
Q 45.65625 37.984375 47 33.59375 
Q 48.34375 29.203125 48.34375 23.6875 
z
M 39.84375 23.140625 
Q 39.84375 26.703125 39.1875 29.875 
Q 38.53125 33.0625 37.015625 35.453125 
Q 35.5 37.84375 32.90625 39.234375 
Q 30.328125 40.625 26.46875 40.625 
Q 22.90625 40.625 20.34375 39.359375 
Q 17.78125 38.09375 16.109375 35.765625 
Q 14.453125 33.453125 13.640625 30.265625 
Q 12.84375 27.09375 12.84375 23.34375 
Q 12.84375 19.734375 13.5 16.546875 
Q 14.15625 13.375 15.6875 11 
Q 17.234375 8.640625 19.8125 7.25 
Q 22.40625 5.859375 26.265625 5.859375 
Q 29.78125 5.859375 32.375 7.125 
Q 34.96875 8.40625 36.625 10.6875 
Q 38.28125 12.984375 39.0625 16.15625 
Q 39.84375 19.34375 39.84375 23.140625 
z
" id="Calibri-6f"/>
      <path d="M 15.53125 1.21875 
Q 15.53125 0.828125 15.328125 0.5625 
Q 15.140625 0.296875 14.703125 0.09375 
Q 14.265625 -0.09375 13.484375 -0.1875 
Q 12.703125 -0.296875 11.46875 -0.296875 
Q 10.296875 -0.296875 9.515625 -0.1875 
Q 8.734375 -0.09375 8.265625 0.09375 
Q 7.8125 0.296875 7.640625 0.5625 
Q 7.46875 0.828125 7.46875 1.21875 
L 7.46875 66.453125 
Q 7.46875 66.84375 7.640625 67.140625 
Q 7.8125 67.4375 8.265625 67.625 
Q 8.734375 67.828125 9.515625 67.921875 
Q 10.296875 68.015625 11.46875 68.015625 
Q 12.703125 68.015625 13.484375 67.921875 
Q 14.265625 67.828125 14.703125 67.625 
Q 15.140625 67.4375 15.328125 67.140625 
Q 15.53125 66.84375 15.53125 66.453125 
z
" id="Calibri-6c"/>
      <path d="M 44.96875 25.09375 
Q 44.96875 23.1875 44.015625 22.375 
Q 43.0625 21.578125 41.84375 21.578125 
L 13.03125 21.578125 
Q 13.03125 17.921875 13.765625 14.984375 
Q 14.5 12.0625 16.203125 9.953125 
Q 17.921875 7.859375 20.65625 6.734375 
Q 23.390625 5.609375 27.34375 5.609375 
Q 30.46875 5.609375 32.90625 6.125 
Q 35.359375 6.640625 37.140625 7.265625 
Q 38.921875 7.90625 40.0625 8.421875 
Q 41.21875 8.9375 41.796875 8.9375 
Q 42.140625 8.9375 42.40625 8.765625 
Q 42.671875 8.59375 42.8125 8.25 
Q 42.96875 7.90625 43.03125 7.296875 
Q 43.109375 6.6875 43.109375 5.8125 
Q 43.109375 5.171875 43.0625 4.703125 
Q 43.015625 4.25 42.9375 3.875 
Q 42.875 3.515625 42.703125 3.21875 
Q 42.53125 2.9375 42.265625 2.65625 
Q 42 2.390625 40.671875 1.78125 
Q 39.359375 1.171875 37.25 0.578125 
Q 35.15625 0 32.390625 -0.453125 
Q 29.640625 -0.921875 26.515625 -0.921875 
Q 21.09375 -0.921875 17.015625 0.578125 
Q 12.9375 2.09375 10.15625 5.078125 
Q 7.375 8.0625 5.953125 12.546875 
Q 4.546875 17.046875 4.546875 23 
Q 4.546875 28.65625 6 33.171875 
Q 7.46875 37.703125 10.21875 40.84375 
Q 12.984375 44 16.890625 45.671875 
Q 20.796875 47.359375 25.640625 47.359375 
Q 30.8125 47.359375 34.453125 45.703125 
Q 38.09375 44.046875 40.4375 41.234375 
Q 42.78125 38.421875 43.875 34.640625 
Q 44.96875 30.859375 44.96875 26.5625 
z
M 36.859375 27.484375 
Q 37.015625 33.84375 34.0625 37.453125 
Q 31.109375 41.0625 25.296875 41.0625 
Q 22.3125 41.0625 20.0625 39.9375 
Q 17.828125 38.8125 16.3125 36.953125 
Q 14.796875 35.109375 13.96875 32.640625 
Q 13.140625 30.171875 13.03125 27.484375 
z
" id="Calibri-65"/>
      <path d="M 68.953125 45.265625 
Q 68.953125 44.921875 68.84375 44.4375 
Q 68.75 43.953125 68.5 43.21875 
L 55.5625 1.46875 
Q 55.421875 0.921875 55.09375 0.578125 
Q 54.78125 0.25 54.21875 0.046875 
Q 53.65625 -0.140625 52.671875 -0.21875 
Q 51.703125 -0.296875 50.25 -0.296875 
Q 48.734375 -0.296875 47.703125 -0.1875 
Q 46.6875 -0.09375 46.0625 0.09375 
Q 45.453125 0.296875 45.15625 0.640625 
Q 44.875 0.984375 44.734375 1.46875 
L 35.5 33.34375 
L 35.40625 33.796875 
L 35.296875 33.34375 
L 26.765625 1.46875 
Q 26.609375 0.921875 26.296875 0.578125 
Q 25.984375 0.25 25.34375 0.046875 
Q 24.703125 -0.140625 23.703125 -0.21875 
Q 22.703125 -0.296875 21.234375 -0.296875 
Q 19.734375 -0.296875 18.78125 -0.1875 
Q 17.828125 -0.09375 17.21875 0.09375 
Q 16.609375 0.296875 16.3125 0.640625 
Q 16.015625 0.984375 15.875 1.46875 
L 3.03125 43.21875 
Q 2.78125 43.953125 2.6875 44.4375 
Q 2.59375 44.921875 2.59375 45.265625 
Q 2.59375 45.703125 2.78125 45.96875 
Q 2.984375 46.234375 3.4375 46.40625 
Q 3.90625 46.578125 4.6875 46.625 
Q 5.46875 46.6875 6.59375 46.6875 
Q 7.953125 46.6875 8.78125 46.609375 
Q 9.625 46.53125 10.0625 46.359375 
Q 10.5 46.1875 10.6875 45.875 
Q 10.890625 45.5625 11.03125 45.125 
L 21.625 8.890625 
L 21.734375 8.453125 
L 21.828125 8.890625 
L 31.546875 45.125 
Q 31.640625 45.5625 31.859375 45.875 
Q 32.078125 46.1875 32.515625 46.359375 
Q 32.953125 46.53125 33.703125 46.609375 
Q 34.46875 46.6875 35.6875 46.6875 
Q 36.859375 46.6875 37.609375 46.609375 
Q 38.375 46.53125 38.8125 46.359375 
Q 39.265625 46.1875 39.453125 45.890625 
Q 39.65625 45.609375 39.75 45.21875 
L 50.25 8.890625 
L 50.34375 8.453125 
L 50.390625 8.890625 
L 60.84375 45.125 
Q 60.9375 45.5625 61.15625 45.875 
Q 61.375 46.1875 61.84375 46.359375 
Q 62.3125 46.53125 63.109375 46.609375 
Q 63.921875 46.6875 65.1875 46.6875 
Q 66.359375 46.6875 67.0625 46.625 
Q 67.78125 46.578125 68.1875 46.375 
Q 68.609375 46.1875 68.78125 45.9375 
Q 68.953125 45.703125 68.953125 45.265625 
z
" id="Calibri-77"/>
      <path d="M 40.578125 1.171875 
Q 40.578125 0.59375 40.1875 0.296875 
Q 39.796875 0 39.109375 -0.140625 
Q 38.421875 -0.296875 37.109375 -0.296875 
Q 35.84375 -0.296875 35.078125 -0.140625 
Q 34.328125 0 33.984375 0.296875 
Q 33.640625 0.59375 33.640625 1.171875 
L 33.640625 5.5625 
Q 30.765625 2.484375 27.21875 0.78125 
Q 23.6875 -0.921875 19.734375 -0.921875 
Q 16.265625 -0.921875 13.453125 -0.015625 
Q 10.640625 0.875 8.65625 2.578125 
Q 6.6875 4.296875 5.59375 6.78125 
Q 4.5 9.28125 4.5 12.453125 
Q 4.5 16.15625 6 18.890625 
Q 7.515625 21.625 10.34375 23.4375 
Q 13.1875 25.25 17.28125 26.140625 
Q 21.390625 27.046875 26.515625 27.046875 
L 32.5625 27.046875 
L 32.5625 30.46875 
Q 32.5625 33.015625 32.03125 34.96875 
Q 31.5 36.921875 30.296875 38.203125 
Q 29.109375 39.5 27.203125 40.15625 
Q 25.296875 40.828125 22.515625 40.828125 
Q 19.53125 40.828125 17.15625 40.109375 
Q 14.796875 39.40625 13.015625 38.546875 
Q 11.234375 37.703125 10.03125 36.984375 
Q 8.84375 36.28125 8.25 36.28125 
Q 7.859375 36.28125 7.5625 36.46875 
Q 7.28125 36.671875 7.0625 37.0625 
Q 6.84375 37.453125 6.734375 38.0625 
Q 6.640625 38.671875 6.640625 39.40625 
Q 6.640625 40.625 6.8125 41.328125 
Q 6.984375 42.046875 7.640625 42.671875 
Q 8.296875 43.3125 9.90625 44.15625 
Q 11.53125 45.015625 13.625 45.71875 
Q 15.71875 46.4375 18.203125 46.890625 
Q 20.703125 47.359375 23.25 47.359375 
Q 27.984375 47.359375 31.296875 46.28125 
Q 34.625 45.21875 36.671875 43.140625 
Q 38.71875 41.0625 39.640625 37.984375 
Q 40.578125 34.90625 40.578125 30.8125 
z
M 32.5625 21.234375 
L 25.6875 21.234375 
Q 22.359375 21.234375 19.921875 20.671875 
Q 17.484375 20.125 15.875 19.015625 
Q 14.265625 17.921875 13.5 16.375 
Q 12.75 14.84375 12.75 12.84375 
Q 12.75 9.421875 14.921875 7.390625 
Q 17.09375 5.375 21 5.375 
Q 24.171875 5.375 26.875 6.984375 
Q 29.59375 8.59375 32.5625 11.921875 
z
" id="Calibri-61"/>
      <path d="M 33.15625 42.28125 
Q 33.15625 41.21875 33.109375 40.484375 
Q 33.0625 39.75 32.90625 39.328125 
Q 32.765625 38.921875 32.546875 38.703125 
Q 32.328125 38.484375 31.9375 38.484375 
Q 31.546875 38.484375 30.984375 38.703125 
Q 30.421875 38.921875 29.703125 39.140625 
Q 29 39.359375 28.125 39.546875 
Q 27.25 39.75 26.21875 39.75 
Q 25 39.75 23.828125 39.25 
Q 22.65625 38.765625 21.359375 37.640625 
Q 20.0625 36.53125 18.640625 34.671875 
Q 17.234375 32.8125 15.53125 30.125 
L 15.53125 1.21875 
Q 15.53125 0.828125 15.328125 0.5625 
Q 15.140625 0.296875 14.703125 0.09375 
Q 14.265625 -0.09375 13.484375 -0.1875 
Q 12.703125 -0.296875 11.46875 -0.296875 
Q 10.296875 -0.296875 9.515625 -0.1875 
Q 8.734375 -0.09375 8.265625 0.09375 
Q 7.8125 0.296875 7.640625 0.5625 
Q 7.46875 0.828125 7.46875 1.21875 
L 7.46875 45.171875 
Q 7.46875 45.5625 7.609375 45.828125 
Q 7.765625 46.09375 8.203125 46.3125 
Q 8.640625 46.53125 9.328125 46.609375 
Q 10.015625 46.6875 11.140625 46.6875 
Q 12.203125 46.6875 12.90625 46.609375 
Q 13.625 46.53125 14.015625 46.3125 
Q 14.40625 46.09375 14.578125 45.828125 
Q 14.75 45.5625 14.75 45.171875 
L 14.75 38.765625 
Q 16.546875 41.40625 18.140625 43.0625 
Q 19.734375 44.734375 21.140625 45.671875 
Q 22.5625 46.625 23.953125 46.984375 
Q 25.34375 47.359375 26.765625 47.359375 
Q 27.390625 47.359375 28.1875 47.28125 
Q 29 47.21875 29.875 47.015625 
Q 30.765625 46.828125 31.46875 46.578125 
Q 32.171875 46.34375 32.46875 46.09375 
Q 32.765625 45.84375 32.859375 45.625 
Q 32.953125 45.40625 33.03125 45.0625 
Q 33.109375 44.734375 33.125 44.0625 
Q 33.15625 43.40625 33.15625 42.28125 
z
" id="Calibri-72"/>
      <path d="M 45.125 1.21875 
Q 45.125 0.828125 44.953125 0.53125 
Q 44.78125 0.25 44.359375 0.078125 
Q 43.953125 -0.09375 43.265625 -0.1875 
Q 42.578125 -0.296875 41.609375 -0.296875 
Q 40.578125 -0.296875 39.890625 -0.1875 
Q 39.203125 -0.09375 38.765625 0.078125 
Q 38.328125 0.25 38.125 0.53125 
Q 37.9375 0.828125 37.9375 1.21875 
L 37.9375 7.03125 
Q 34.46875 3.265625 30.734375 1.171875 
Q 27 -0.921875 22.5625 -0.921875 
Q 17.71875 -0.921875 14.296875 0.953125 
Q 10.890625 2.828125 8.765625 6.03125 
Q 6.640625 9.234375 5.65625 13.546875 
Q 4.6875 17.875 4.6875 22.65625 
Q 4.6875 28.328125 5.90625 32.890625 
Q 7.125 37.453125 9.515625 40.671875 
Q 11.921875 43.890625 15.453125 45.625 
Q 19 47.359375 23.640625 47.359375 
Q 27.484375 47.359375 30.6875 45.671875 
Q 33.890625 44 37.015625 40.71875 
L 37.015625 66.265625 
Q 37.015625 66.609375 37.1875 66.921875 
Q 37.359375 67.234375 37.84375 67.40625 
Q 38.328125 67.578125 39.078125 67.703125 
Q 39.84375 67.828125 41.015625 67.828125 
Q 42.234375 67.828125 43.015625 67.703125 
Q 43.796875 67.578125 44.234375 67.40625 
Q 44.671875 67.234375 44.890625 66.921875 
Q 45.125 66.609375 45.125 66.265625 
z
M 37.015625 32.125 
Q 33.734375 36.1875 30.6875 38.3125 
Q 27.640625 40.4375 24.3125 40.4375 
Q 21.234375 40.4375 19.078125 38.96875 
Q 16.9375 37.5 15.59375 35.109375 
Q 14.265625 32.71875 13.640625 29.6875 
Q 13.03125 26.65625 13.03125 23.53125 
Q 13.03125 20.21875 13.546875 17.046875 
Q 14.0625 13.875 15.328125 11.40625 
Q 16.609375 8.9375 18.703125 7.4375 
Q 20.796875 5.953125 23.96875 5.953125 
Q 25.59375 5.953125 27.078125 6.390625 
Q 28.5625 6.84375 30.125 7.859375 
Q 31.6875 8.890625 33.390625 10.515625 
Q 35.109375 12.15625 37.015625 14.546875 
z
" id="Calibri-64"/>
      <path id="Calibri-20"/>
      <path d="M 53.90625 1.265625 
Q 53.90625 0.875 53.703125 0.578125 
Q 53.515625 0.296875 53.03125 0.125 
Q 52.546875 -0.046875 51.734375 -0.171875 
Q 50.921875 -0.296875 49.75 -0.296875 
Q 48.484375 -0.296875 47.703125 -0.171875 
Q 46.921875 -0.046875 46.4375 0.125 
Q 45.953125 0.296875 45.75 0.578125 
Q 45.5625 0.875 45.5625 1.265625 
L 45.5625 29.296875 
L 16.796875 29.296875 
L 16.796875 1.265625 
Q 16.796875 0.875 16.59375 0.578125 
Q 16.40625 0.296875 15.921875 0.125 
Q 15.4375 -0.046875 14.625 -0.171875 
Q 13.8125 -0.296875 12.59375 -0.296875 
Q 11.421875 -0.296875 10.59375 -0.171875 
Q 9.765625 -0.046875 9.28125 0.125 
Q 8.796875 0.296875 8.59375 0.578125 
Q 8.40625 0.875 8.40625 1.265625 
L 8.40625 61.921875 
Q 8.40625 62.3125 8.59375 62.59375 
Q 8.796875 62.890625 9.28125 63.0625 
Q 9.765625 63.234375 10.59375 63.359375 
Q 11.421875 63.484375 12.59375 63.484375 
Q 13.8125 63.484375 14.625 63.359375 
Q 15.4375 63.234375 15.921875 63.0625 
Q 16.40625 62.890625 16.59375 62.59375 
Q 16.796875 62.3125 16.796875 61.921875 
L 16.796875 36.625 
L 45.5625 36.625 
L 45.5625 61.921875 
Q 45.5625 62.3125 45.75 62.59375 
Q 45.953125 62.890625 46.4375 63.0625 
Q 46.921875 63.234375 47.703125 63.359375 
Q 48.484375 63.484375 49.75 63.484375 
Q 50.921875 63.484375 51.734375 63.359375 
Q 52.546875 63.234375 53.03125 63.0625 
Q 53.515625 62.890625 53.703125 62.59375 
Q 53.90625 62.3125 53.90625 61.921875 
z
" id="Calibri-48"/>
      <path d="M 30.328125 4.4375 
Q 30.328125 3.03125 30.125 2.203125 
Q 29.9375 1.375 29.546875 0.984375 
Q 29.15625 0.59375 28.375 0.25 
Q 27.59375 -0.09375 26.59375 -0.3125 
Q 25.59375 -0.53125 24.46875 -0.671875 
Q 23.34375 -0.828125 22.21875 -0.828125 
Q 18.796875 -0.828125 16.359375 0.078125 
Q 13.921875 0.984375 12.359375 2.8125 
Q 10.796875 4.640625 10.078125 7.4375 
Q 9.375 10.25 9.375 14.0625 
L 9.375 39.75 
L 3.21875 39.75 
Q 2.484375 39.75 2.046875 40.53125 
Q 1.609375 41.3125 1.609375 43.0625 
Q 1.609375 44 1.734375 44.625 
Q 1.859375 45.265625 2.046875 45.671875 
Q 2.25 46.09375 2.5625 46.265625 
Q 2.875 46.4375 3.265625 46.4375 
L 9.375 46.4375 
L 9.375 56.890625 
Q 9.375 57.234375 9.546875 57.515625 
Q 9.71875 57.8125 10.171875 58.03125 
Q 10.640625 58.25 11.421875 58.34375 
Q 12.203125 58.453125 13.375 58.453125 
Q 14.59375 58.453125 15.375 58.34375 
Q 16.15625 58.25 16.59375 58.03125 
Q 17.046875 57.8125 17.234375 57.515625 
Q 17.4375 57.234375 17.4375 56.890625 
L 17.4375 46.4375 
L 28.71875 46.4375 
Q 29.109375 46.4375 29.390625 46.265625 
Q 29.6875 46.09375 29.90625 45.671875 
Q 30.125 45.265625 30.21875 44.625 
Q 30.328125 44 30.328125 43.0625 
Q 30.328125 41.3125 29.875 40.53125 
Q 29.4375 39.75 28.71875 39.75 
L 17.4375 39.75 
L 17.4375 15.234375 
Q 17.4375 10.6875 18.78125 8.375 
Q 20.125 6.0625 23.578125 6.0625 
Q 24.703125 6.0625 25.578125 6.28125 
Q 26.46875 6.5 27.140625 6.734375 
Q 27.828125 6.984375 28.3125 7.203125 
Q 28.8125 7.421875 29.203125 7.421875 
Q 29.4375 7.421875 29.65625 7.296875 
Q 29.890625 7.171875 30 6.828125 
Q 30.125 6.5 30.21875 5.90625 
Q 30.328125 5.328125 30.328125 4.4375 
z
" id="Calibri-74"/>
      <path d="M 48 59.578125 
Q 48 58.640625 47.890625 57.953125 
Q 47.796875 57.28125 47.578125 56.859375 
Q 47.359375 56.453125 47.046875 56.25 
Q 46.734375 56.0625 46.34375 56.0625 
L 28.5625 56.0625 
L 28.5625 1.265625 
Q 28.5625 0.875 28.359375 0.578125 
Q 28.171875 0.296875 27.6875 0.125 
Q 27.203125 -0.046875 26.390625 -0.171875 
Q 25.59375 -0.296875 24.359375 -0.296875 
Q 23.1875 -0.296875 22.359375 -0.171875 
Q 21.53125 -0.046875 21.046875 0.125 
Q 20.5625 0.296875 20.359375 0.578125 
Q 20.171875 0.875 20.171875 1.265625 
L 20.171875 56.0625 
L 2.390625 56.0625 
Q 2 56.0625 1.6875 56.25 
Q 1.375 56.453125 1.171875 56.859375 
Q 0.984375 57.28125 0.859375 57.953125 
Q 0.734375 58.640625 0.734375 59.578125 
Q 0.734375 60.5 0.859375 61.203125 
Q 0.984375 61.921875 1.171875 62.359375 
Q 1.375 62.796875 1.6875 62.984375 
Q 2 63.1875 2.390625 63.1875 
L 46.34375 63.1875 
Q 46.734375 63.1875 47.046875 62.984375 
Q 47.359375 62.796875 47.578125 62.359375 
Q 47.796875 61.921875 47.890625 61.203125 
Q 48 60.5 48 59.578125 
z
" id="Calibri-54"/>
      <path d="M 47.90625 23.875 
Q 47.90625 18.109375 46.65625 13.515625 
Q 45.40625 8.9375 42.984375 5.734375 
Q 40.578125 2.546875 37.015625 0.8125 
Q 33.453125 -0.921875 28.859375 -0.921875 
Q 26.90625 -0.921875 25.234375 -0.53125 
Q 23.578125 -0.140625 21.984375 0.6875 
Q 20.40625 1.515625 18.84375 2.78125 
Q 17.28125 4.046875 15.53125 5.765625 
L 15.53125 -16.21875 
Q 15.53125 -16.609375 15.328125 -16.890625 
Q 15.140625 -17.1875 14.703125 -17.375 
Q 14.265625 -17.578125 13.484375 -17.671875 
Q 12.703125 -17.78125 11.46875 -17.78125 
Q 10.296875 -17.78125 9.515625 -17.671875 
Q 8.734375 -17.578125 8.265625 -17.375 
Q 7.8125 -17.1875 7.640625 -16.890625 
Q 7.46875 -16.609375 7.46875 -16.21875 
L 7.46875 45.171875 
Q 7.46875 45.609375 7.609375 45.875 
Q 7.765625 46.140625 8.203125 46.328125 
Q 8.640625 46.53125 9.328125 46.609375 
Q 10.015625 46.6875 10.984375 46.6875 
Q 12.015625 46.6875 12.671875 46.609375 
Q 13.328125 46.53125 13.765625 46.328125 
Q 14.203125 46.140625 14.375 45.875 
Q 14.546875 45.609375 14.546875 45.171875 
L 14.546875 39.265625 
Q 16.546875 41.3125 18.40625 42.828125 
Q 20.265625 44.34375 22.140625 45.34375 
Q 24.03125 46.34375 26 46.84375 
Q 27.984375 47.359375 30.171875 47.359375 
Q 34.96875 47.359375 38.328125 45.5 
Q 41.703125 43.65625 43.828125 40.421875 
Q 45.953125 37.203125 46.921875 32.921875 
Q 47.90625 28.65625 47.90625 23.875 
z
M 39.40625 22.953125 
Q 39.40625 26.3125 38.890625 29.46875 
Q 38.375 32.625 37.125 35.0625 
Q 35.890625 37.5 33.78125 38.96875 
Q 31.6875 40.4375 28.5625 40.4375 
Q 27 40.4375 25.484375 39.96875 
Q 23.96875 39.5 22.40625 38.5 
Q 20.84375 37.5 19.140625 35.859375 
Q 17.4375 34.234375 15.53125 31.84375 
L 15.53125 14.359375 
Q 18.84375 10.296875 21.828125 8.140625 
Q 24.8125 6 28.078125 6 
Q 31.109375 6 33.28125 7.46875 
Q 35.453125 8.9375 36.796875 11.375 
Q 38.140625 13.8125 38.765625 16.84375 
Q 39.40625 19.875 39.40625 22.953125 
z
" id="Calibri-70"/>
      <path d="M 24.171875 67.28125 
Q 19.53125 57.46875 17.25 47.140625 
Q 14.984375 36.8125 14.984375 26.375 
Q 14.984375 15.875 17.296875 5.5625 
Q 19.625 -4.734375 24.078125 -14.65625 
Q 24.3125 -15.234375 24.328125 -15.640625 
Q 24.359375 -16.0625 24.015625 -16.328125 
Q 23.6875 -16.609375 22.96875 -16.71875 
Q 22.265625 -16.84375 21.046875 -16.84375 
Q 20.171875 -16.84375 19.53125 -16.796875 
Q 18.890625 -16.75 18.421875 -16.59375 
Q 17.96875 -16.453125 17.671875 -16.25 
Q 17.390625 -16.0625 17.234375 -15.828125 
Q 14.59375 -10.84375 12.59375 -5.734375 
Q 10.59375 -0.640625 9.21875 4.625 
Q 7.859375 9.90625 7.171875 15.296875 
Q 6.5 20.703125 6.5 26.21875 
Q 6.5 31.734375 7.25 37.109375 
Q 8.015625 42.484375 9.40625 47.78125 
Q 10.796875 53.078125 12.796875 58.203125 
Q 14.796875 63.328125 17.28125 68.359375 
Q 17.328125 68.5625 17.546875 68.703125 
Q 17.78125 68.84375 18.171875 68.984375 
Q 18.5625 69.140625 19.234375 69.203125 
Q 19.921875 69.28125 21 69.28125 
Q 22.125 69.28125 22.796875 69.140625 
Q 23.484375 69 23.875 68.75 
Q 24.265625 68.5 24.3125 68.109375 
Q 24.359375 67.71875 24.171875 67.28125 
z
" id="Calibri-28"/>
      <path d="M 68.890625 1.859375 
Q 68.703125 1.171875 68.3125 0.75 
Q 67.921875 0.34375 67.234375 0.125 
Q 66.546875 -0.09375 65.546875 -0.1875 
Q 64.546875 -0.296875 63.09375 -0.296875 
Q 61.578125 -0.296875 60.515625 -0.1875 
Q 59.46875 -0.09375 58.78125 0.125 
Q 58.109375 0.34375 57.765625 0.75 
Q 57.421875 1.171875 57.234375 1.859375 
L 44 49.5625 
L 43.890625 49.5625 
L 31.6875 1.859375 
Q 31.546875 1.171875 31.203125 0.75 
Q 30.859375 0.34375 30.21875 0.125 
Q 29.59375 -0.09375 28.59375 -0.1875 
Q 27.59375 -0.296875 26.03125 -0.296875 
Q 24.421875 -0.296875 23.34375 -0.1875 
Q 22.265625 -0.09375 21.578125 0.125 
Q 20.90625 0.34375 20.53125 0.75 
Q 20.171875 1.171875 20.015625 1.859375 
L 3.328125 60.203125 
Q 3.03125 61.328125 3 61.953125 
Q 2.984375 62.59375 3.390625 62.9375 
Q 3.8125 63.28125 4.734375 63.375 
Q 5.671875 63.484375 7.234375 63.484375 
Q 8.734375 63.484375 9.609375 63.40625 
Q 10.5 63.328125 10.953125 63.125 
Q 11.421875 62.9375 11.59375 62.59375 
Q 11.765625 62.25 11.859375 61.71875 
L 26.078125 8.796875 
L 26.125 8.796875 
L 39.59375 61.625 
Q 39.75 62.15625 39.96875 62.515625 
Q 40.1875 62.890625 40.671875 63.078125 
Q 41.15625 63.28125 42.0625 63.375 
Q 42.96875 63.484375 44.4375 63.484375 
Q 45.796875 63.484375 46.59375 63.375 
Q 47.40625 63.28125 47.890625 63.078125 
Q 48.390625 62.890625 48.609375 62.515625 
Q 48.828125 62.15625 48.96875 61.625 
L 63.484375 8.796875 
L 63.578125 8.796875 
L 77.484375 61.671875 
Q 77.640625 62.15625 77.78125 62.515625 
Q 77.9375 62.890625 78.390625 63.078125 
Q 78.859375 63.28125 79.703125 63.375 
Q 80.5625 63.484375 81.984375 63.484375 
Q 83.453125 63.484375 84.296875 63.359375 
Q 85.15625 63.234375 85.546875 62.890625 
Q 85.9375 62.546875 85.90625 61.90625 
Q 85.890625 61.28125 85.640625 60.15625 
z
" id="Calibri-57"/>
      <path d="M 23.78125 26.21875 
Q 23.78125 20.703125 23.09375 15.296875 
Q 22.40625 9.90625 21.03125 4.625 
Q 19.671875 -0.640625 17.6875 -5.734375 
Q 15.71875 -10.84375 13.09375 -15.828125 
Q 12.9375 -16.0625 12.640625 -16.25 
Q 12.359375 -16.453125 11.890625 -16.59375 
Q 11.421875 -16.75 10.78125 -16.796875 
Q 10.15625 -16.84375 9.28125 -16.84375 
Q 8.015625 -16.84375 7.296875 -16.71875 
Q 6.59375 -16.609375 6.265625 -16.328125 
Q 5.953125 -16.0625 5.96875 -15.640625 
Q 6 -15.234375 6.25 -14.65625 
Q 10.75 -4.78125 13.03125 5.546875 
Q 15.328125 15.875 15.328125 26.375 
Q 15.328125 36.8125 13.03125 47.140625 
Q 10.75 57.46875 6.15625 67.28125 
Q 5.953125 67.71875 6 68.109375 
Q 6.0625 68.5 6.453125 68.75 
Q 6.84375 69 7.515625 69.140625 
Q 8.203125 69.28125 9.328125 69.28125 
Q 10.359375 69.28125 11.03125 69.203125 
Q 11.71875 69.140625 12.125 68.984375 
Q 12.546875 68.84375 12.734375 68.703125 
Q 12.9375 68.5625 13.03125 68.359375 
Q 18.0625 58.34375 20.921875 47.765625 
Q 23.78125 37.203125 23.78125 26.21875 
z
" id="Calibri-29"/>
     </defs>
     <g transform="translate(24.859063 309.620234)rotate(-90)scale(0.19 -0.19)">
      <use xlink:href="#Calibri-50"/>
      <use x="51.660156" xlink:href="#Calibri-6f"/>
      <use x="104.394531" xlink:href="#Calibri-6c"/>
      <use x="127.34375" xlink:href="#Calibri-65"/>
      <use x="177.099609" xlink:href="#Calibri-77"/>
      <use x="248.583984" xlink:href="#Calibri-61"/>
      <use x="296.484375" xlink:href="#Calibri-72"/>
      <use x="331.347656" xlink:href="#Calibri-64"/>
      <use x="383.886719" xlink:href="#Calibri-20"/>
      <use x="406.494141" xlink:href="#Calibri-48"/>
      <use x="468.798828" xlink:href="#Calibri-65"/>
      <use x="518.554688" xlink:href="#Calibri-61"/>
      <use x="566.455078" xlink:href="#Calibri-74"/>
      <use x="599.951172" xlink:href="#Calibri-20"/>
      <use x="622.558594" xlink:href="#Calibri-54"/>
      <use x="671.289062" xlink:href="#Calibri-72"/>
      <use x="706.152344" xlink:href="#Calibri-61"/>
      <use x="754.052734" xlink:href="#Calibri-6e"/>
      <use x="806.591797" xlink:href="#Calibri-73"/>
      <use x="845.703125" xlink:href="#Calibri-70"/>
      <use x="898.242188" xlink:href="#Calibri-6f"/>
      <use x="950.976562" xlink:href="#Calibri-72"/>
      <use x="985.839844" xlink:href="#Calibri-74"/>
      <use x="1019.335938" xlink:href="#Calibri-20"/>
      <use x="1041.943359" xlink:href="#Calibri-28"/>
      <use x="1072.265625" xlink:href="#Calibri-50"/>
      <use x="1123.925781" xlink:href="#Calibri-57"/>
      <use x="1212.890625" xlink:href="#Calibri-29"/>
     </g>
    </g>
   </g>
   <g id="line2d_82">
    <path clip-path="url(#p18d01051f8)" d="M 529.408 369.7 
L 529.408 13.32 
" style="fill:none;stroke:#1f77b4;stroke-dasharray:5.55,2.4;stroke-dashoffset:0;stroke-width:1.5;"/>
   </g>
   <g id="line2d_83">
    <path clip-path="url(#p18d01051f8)" d="M 66.53 353.500909 
L 93.3282 304.342132 
L 107.9454 278.012183 
L 120.1264 256.529994 
L 130.84568 238.070354 
L 140.59048 221.716478 
L 149.84804 206.607642 
L 158.61836 192.717447 
L 166.90144 180.008146 
L 174.69728 168.433477 
L 182.49312 157.254474 
L 189.80172 147.149609 
L 197.11032 137.421803 
L 203.93168 128.693242 
L 210.75304 120.312056 
L 217.5744 112.285642 
L 224.39576 104.620284 
L 230.72988 97.830302 
L 237.064 91.359474 
L 243.39812 85.210389 
L 249.73224 79.384919 
L 255.57912 74.295846 
L 261.426 69.484024 
L 267.27288 64.94952 
L 273.11976 60.692041 
L 278.96664 56.710982 
L 284.81352 53.005485 
L 290.6604 49.5745 
L 296.50728 46.416856 
L 302.35416 43.531333 
L 307.7138 41.124304 
L 313.07344 38.944105 
L 318.43308 36.99005 
L 323.79272 35.261665 
L 329.15236 33.75875 
L 334.512 32.481457 
L 339.87164 31.430363 
L 345.23128 30.606553 
L 350.59092 30.011702 
L 355.95056 29.64817 
L 361.3102 29.519091 
L 366.66984 29.628475 
L 371.54224 29.939022 
L 376.41464 30.45528 
L 381.28704 31.182585 
L 386.15944 32.127159 
L 391.03184 33.296187 
L 395.90424 34.697892 
L 400.77664 36.341621 
L 405.64904 38.237927 
L 410.0342 40.170321 
L 414.41936 42.326474 
L 418.80452 44.716946 
L 423.18968 47.353315 
L 427.57484 50.24824 
L 431.96 53.415522 
L 436.34516 56.870164 
L 440.73032 60.628435 
L 445.11548 64.707939 
L 449.50064 69.127678 
L 453.39856 73.358482 
L 457.29648 77.889666 
L 461.1944 82.737634 
L 465.09232 87.919828 
L 468.99024 93.454782 
L 472.88816 99.362157 
L 476.78608 105.662789 
L 480.684 112.378734 
L 484.58192 119.533312 
L 488.47984 127.151159 
L 492.37776 135.258271 
L 496.27568 143.882054 
L 500.1736 153.051377 
L 504.07152 162.79662 
L 507.96944 173.149728 
L 511.86736 184.144265 
L 515.76528 195.815467 
L 519.6632 208.200299 
L 523.56112 221.33751 
L 527.45904 235.267692 
L 531.35696 250.033339 
L 535.25488 265.678906 
L 539.1528 282.250871 
L 543.05072 299.797796 
L 546.94864 318.37039 
L 550.84656 338.021575 
L 553.77 353.500909 
L 553.77 353.500909 
" style="fill:none;stroke:#000000;stroke-linecap:square;stroke-width:1.5;"/>
   </g>
   <g id="patch_3">
    <path d="M 66.53 369.7 
L 66.53 13.32 
" style="fill:none;stroke:#000000;stroke-linecap:square;stroke-linejoin:miter;stroke-width:0.8;"/>
   </g>
   <g id="patch_4">
    <path d="M 553.77 369.7 
L 553.77 13.32 
" style="fill:none;stroke:#000000;stroke-linecap:square;stroke-linejoin:miter;stroke-width:0.8;"/>
   </g>
   <g id="patch_5">
    <path d="M 66.53 369.7 
L 553.77 369.7 
" style="fill:none;stroke:#000000;stroke-linecap:square;stroke-linejoin:miter;stroke-width:0.8;"/>
   </g>
   <g id="patch_6">
    <path d="M 66.53 13.32 
L 553.77 13.32 
" style="fill:none;stroke:#000000;stroke-linecap:square;stroke-linejoin:miter;stroke-width:0.8;"/>
   </g>
  </g>
 </g>
 <defs>
  <clipPath id="p18d01051f8">
   <rect height="356.38" width="487.24" x="66.53" y="13.32"/>
  </clipPath>
 </defs>
</svg>
