<?xml version="1.0" encoding="utf-8" standalone="no"?>
<!DOCTYPE svg PUBLIC "-//W3C//DTD SVG 1.1//EN"
  "http://www.w3.org/Graphics/SVG/1.1/DTD/svg11.dtd">
<!-- Created with matplotlib (http://matplotlib.org/) -->
<svg height="432pt" version="1.1" viewBox="0 0 576 432" width="576pt" xmlns="http://www.w3.org/2000/svg" xmlns:xlink="http://www.w3.org/1999/xlink">
 <defs>
  <style type="text/css">
*{stroke-linecap:butt;stroke-linejoin:round;}
  </style>
 </defs>
 <g id="figure_1">
  <g id="patch_1">
   <path d="M 0 432 
L 576 432 
L 576 0 
L 0 0 
z
" style="fill:#ffffff;"/>
  </g>
  <g id="axes_1">
   <g id="patch_2">
    <path d="M 75.404 369.7 
L 553.77 369.7 
L 553.77 13.32 
L 75.404 13.32 
z
" style="fill:#ffffff;"/>
   </g>
   <g id="matplotlib.axis_1">
    <g id="xtick_1">
     <g id="line2d_1">
      <path clip-path="url(#p94f844b507)" d="M 75.404 369.7 
L 75.404 13.32 
" style="fill:none;stroke:#bfbfbf;stroke-linecap:square;stroke-width:0.8;"/>
     </g>
     <g id="line2d_2">
      <defs>
       <path d="M 0 0 
L 0 3.5 
" id="mf1e8062488" style="stroke:#000000;stroke-width:0.8;"/>
      </defs>
      <g>
       <use style="stroke:#000000;stroke-width:0.8;" x="75.404" xlink:href="#mf1e8062488" y="369.7"/>
      </g>
     </g>
     <g id="text_1">
      <!-- 0.0 -->
      <defs>
       <path d="M 47.21875 31.734375 
Q 47.21875 24.46875 46.0625 18.453125 
Q 44.921875 12.453125 42.25 8.125 
Q 39.59375 3.8125 35.296875 1.4375 
Q 31 -0.921875 24.703125 -0.921875 
Q 18.75 -0.921875 14.671875 1.203125 
Q 10.59375 3.328125 8.09375 7.453125 
Q 5.609375 11.578125 4.5625 17.609375 
Q 3.515625 23.640625 3.515625 31.453125 
Q 3.515625 38.671875 4.6875 44.703125 
Q 5.859375 50.734375 8.5 55.046875 
Q 11.140625 59.375 15.4375 61.734375 
Q 19.734375 64.109375 25.984375 64.109375 
Q 31.984375 64.109375 36.0625 61.984375 
Q 40.140625 59.859375 42.625 55.734375 
Q 45.125 51.609375 46.171875 45.578125 
Q 47.21875 39.546875 47.21875 31.734375 
z
M 38.625 31.15625 
Q 38.625 35.890625 38.28125 39.640625 
Q 37.9375 43.40625 37.28125 46.28125 
Q 36.625 49.171875 35.5625 51.25 
Q 34.515625 53.328125 33.046875 54.65625 
Q 31.59375 56 29.703125 56.609375 
Q 27.828125 57.234375 25.484375 57.234375 
Q 21.34375 57.234375 18.75 55.28125 
Q 16.15625 53.328125 14.671875 49.90625 
Q 13.1875 46.484375 12.640625 41.890625 
Q 12.109375 37.3125 12.109375 32.03125 
Q 12.109375 24.953125 12.84375 20 
Q 13.578125 15.046875 15.15625 11.921875 
Q 16.75 8.796875 19.21875 7.375 
Q 21.6875 5.953125 25.203125 5.953125 
Q 27.9375 5.953125 30 6.828125 
Q 32.078125 7.71875 33.5625 9.34375 
Q 35.0625 10.984375 36.03125 13.28125 
Q 37.015625 15.578125 37.59375 18.359375 
Q 38.1875 21.140625 38.40625 24.390625 
Q 38.625 27.640625 38.625 31.15625 
z
" id="Calibri-30"/>
       <path d="M 17.875 5.328125 
Q 17.875 1.859375 16.71875 0.703125 
Q 15.578125 -0.4375 12.546875 -0.4375 
Q 9.625 -0.4375 8.5 0.6875 
Q 7.375 1.8125 7.375 5.171875 
Q 7.375 8.640625 8.515625 9.78125 
Q 9.671875 10.9375 12.703125 10.9375 
Q 15.625 10.9375 16.75 9.8125 
Q 17.875 8.6875 17.875 5.328125 
z
" id="Calibri-2e"/>
      </defs>
      <g transform="translate(64.00775 393.442812)scale(0.18 -0.18)">
       <use xlink:href="#Calibri-30"/>
       <use x="50.683594" xlink:href="#Calibri-2e"/>
       <use x="75.927734" xlink:href="#Calibri-30"/>
      </g>
     </g>
    </g>
    <g id="xtick_2">
     <g id="line2d_3">
      <path clip-path="url(#p94f844b507)" d="M 171.0772 369.7 
L 171.0772 13.32 
" style="fill:none;stroke:#bfbfbf;stroke-linecap:square;stroke-width:0.8;"/>
     </g>
     <g id="line2d_4">
      <g>
       <use style="stroke:#000000;stroke-width:0.8;" x="171.0772" xlink:href="#mf1e8062488" y="369.7"/>
      </g>
     </g>
     <g id="text_2">
      <!-- 0.2 -->
      <defs>
       <path d="M 45.125 3.609375 
Q 45.125 2.734375 45 2.046875 
Q 44.875 1.375 44.65625 0.90625 
Q 44.4375 0.4375 44.0625 0.21875 
Q 43.703125 0 43.265625 0 
L 8.34375 0 
Q 7.671875 0 7.15625 0.171875 
Q 6.640625 0.34375 6.265625 0.734375 
Q 5.90625 1.125 5.734375 1.859375 
Q 5.5625 2.59375 5.5625 3.65625 
Q 5.5625 4.640625 5.640625 5.375 
Q 5.71875 6.109375 5.953125 6.671875 
Q 6.203125 7.234375 6.5625 7.78125 
Q 6.9375 8.34375 7.515625 8.984375 
L 19.78125 21.96875 
Q 24.03125 26.46875 26.59375 30.03125 
Q 29.15625 33.59375 30.546875 36.515625 
Q 31.9375 39.453125 32.375 41.84375 
Q 32.8125 44.234375 32.8125 46.34375 
Q 32.8125 48.4375 32.125 50.3125 
Q 31.453125 52.203125 30.15625 53.609375 
Q 28.859375 55.03125 26.90625 55.859375 
Q 24.953125 56.6875 22.40625 56.6875 
Q 19.4375 56.6875 17.0625 55.859375 
Q 14.703125 55.03125 12.921875 54.046875 
Q 11.140625 53.078125 9.9375 52.25 
Q 8.734375 51.421875 8.15625 51.421875 
Q 7.8125 51.421875 7.546875 51.609375 
Q 7.28125 51.8125 7.109375 52.25 
Q 6.9375 52.6875 6.828125 53.421875 
Q 6.734375 54.15625 6.734375 55.171875 
Q 6.734375 55.90625 6.78125 56.4375 
Q 6.84375 56.984375 6.953125 57.375 
Q 7.078125 57.765625 7.265625 58.109375 
Q 7.46875 58.453125 8.046875 58.953125 
Q 8.640625 59.46875 10.078125 60.34375 
Q 11.53125 61.234375 13.703125 62.078125 
Q 15.875 62.9375 18.484375 63.515625 
Q 21.09375 64.109375 23.96875 64.109375 
Q 28.5625 64.109375 32 62.8125 
Q 35.453125 61.53125 37.71875 59.28125 
Q 39.984375 57.03125 41.109375 54.046875 
Q 42.234375 51.078125 42.234375 47.703125 
Q 42.234375 44.671875 41.6875 41.671875 
Q 41.15625 38.671875 39.421875 35.171875 
Q 37.703125 31.6875 34.421875 27.40625 
Q 31.15625 23.140625 25.734375 17.578125 
L 15.71875 7.125 
L 43.21875 7.125 
Q 43.609375 7.125 43.96875 6.90625 
Q 44.34375 6.6875 44.609375 6.25 
Q 44.875 5.8125 45 5.15625 
Q 45.125 4.5 45.125 3.609375 
z
" id="Calibri-32"/>
      </defs>
      <g transform="translate(159.68095 393.442812)scale(0.18 -0.18)">
       <use xlink:href="#Calibri-30"/>
       <use x="50.683594" xlink:href="#Calibri-2e"/>
       <use x="75.927734" xlink:href="#Calibri-32"/>
      </g>
     </g>
    </g>
    <g id="xtick_3">
     <g id="line2d_5">
      <path clip-path="url(#p94f844b507)" d="M 266.7504 369.7 
L 266.7504 13.32 
" style="fill:none;stroke:#bfbfbf;stroke-linecap:square;stroke-width:0.8;"/>
     </g>
     <g id="line2d_6">
      <g>
       <use style="stroke:#000000;stroke-width:0.8;" x="266.7504" xlink:href="#mf1e8062488" y="369.7"/>
      </g>
     </g>
     <g id="text_3">
      <!-- 0.4 -->
      <defs>
       <path d="M 47.796875 17.96875 
Q 47.796875 16.359375 47.3125 15.421875 
Q 46.828125 14.5 45.953125 14.5 
L 38.8125 14.5 
L 38.8125 1.21875 
Q 38.8125 0.828125 38.609375 0.5625 
Q 38.421875 0.296875 37.9375 0.09375 
Q 37.453125 -0.09375 36.671875 -0.1875 
Q 35.890625 -0.296875 34.671875 -0.296875 
Q 33.5 -0.296875 32.71875 -0.1875 
Q 31.9375 -0.09375 31.46875 0.09375 
Q 31 0.296875 30.828125 0.5625 
Q 30.671875 0.828125 30.671875 1.21875 
L 30.671875 14.5 
L 4.59375 14.5 
Q 4 14.5 3.609375 14.640625 
Q 3.21875 14.796875 2.90625 15.1875 
Q 2.59375 15.578125 2.46875 16.3125 
Q 2.34375 17.046875 2.34375 18.21875 
Q 2.34375 19.140625 2.390625 19.875 
Q 2.4375 20.609375 2.578125 21.21875 
Q 2.734375 21.828125 2.96875 22.390625 
Q 3.21875 22.953125 3.5625 23.578125 
L 26.3125 61.96875 
Q 26.5625 62.359375 27.015625 62.640625 
Q 27.484375 62.9375 28.21875 63.125 
Q 28.953125 63.328125 30.03125 63.40625 
Q 31.109375 63.484375 32.5625 63.484375 
Q 34.1875 63.484375 35.375 63.359375 
Q 36.578125 63.234375 37.296875 63.03125 
Q 38.03125 62.84375 38.421875 62.515625 
Q 38.8125 62.203125 38.8125 61.765625 
L 38.8125 21.4375 
L 45.953125 21.4375 
Q 46.78125 21.4375 47.28125 20.578125 
Q 47.796875 19.734375 47.796875 17.96875 
z
M 30.671875 56.109375 
L 30.5625 56.109375 
L 10.015625 21.4375 
L 30.671875 21.4375 
z
" id="Calibri-34"/>
      </defs>
      <g transform="translate(255.35415 393.442812)scale(0.18 -0.18)">
       <use xlink:href="#Calibri-30"/>
       <use x="50.683594" xlink:href="#Calibri-2e"/>
       <use x="75.927734" xlink:href="#Calibri-34"/>
      </g>
     </g>
    </g>
    <g id="xtick_4">
     <g id="line2d_7">
      <path clip-path="url(#p94f844b507)" d="M 362.4236 369.7 
L 362.4236 13.32 
" style="fill:none;stroke:#bfbfbf;stroke-linecap:square;stroke-width:0.8;"/>
     </g>
     <g id="line2d_8">
      <g>
       <use style="stroke:#000000;stroke-width:0.8;" x="362.4236" xlink:href="#mf1e8062488" y="369.7"/>
      </g>
     </g>
     <g id="text_4">
      <!-- 0.6 -->
      <defs>
       <path d="M 46.734375 20.453125 
Q 46.734375 16.3125 45.453125 12.421875 
Q 44.1875 8.546875 41.546875 5.59375 
Q 38.921875 2.640625 34.859375 0.859375 
Q 30.8125 -0.921875 25.296875 -0.921875 
Q 21.34375 -0.921875 18.3125 0.046875 
Q 15.28125 1.03125 13.03125 2.828125 
Q 10.796875 4.640625 9.296875 7.265625 
Q 7.8125 9.90625 6.90625 13.28125 
Q 6 16.65625 5.609375 20.65625 
Q 5.21875 24.65625 5.21875 29.25 
Q 5.21875 33.296875 5.65625 37.453125 
Q 6.109375 41.609375 7.21875 45.453125 
Q 8.34375 49.3125 10.265625 52.703125 
Q 12.203125 56.109375 15.109375 58.625 
Q 18.015625 61.140625 22.0625 62.59375 
Q 26.125 64.0625 31.5 64.0625 
Q 33.296875 64.0625 35.15625 63.84375 
Q 37.015625 63.625 38.578125 63.25 
Q 40.140625 62.890625 41.203125 62.453125 
Q 42.28125 62.015625 42.625 61.734375 
Q 42.96875 61.46875 43.140625 61.15625 
Q 43.3125 60.84375 43.40625 60.46875 
Q 43.5 60.109375 43.546875 59.640625 
Q 43.609375 59.1875 43.609375 58.5 
Q 43.609375 57.625 43.578125 56.984375 
Q 43.5625 56.34375 43.390625 55.953125 
Q 43.21875 55.5625 42.9375 55.359375 
Q 42.671875 55.171875 42.234375 55.171875 
Q 41.703125 55.171875 40.765625 55.515625 
Q 39.84375 55.859375 38.515625 56.265625 
Q 37.203125 56.6875 35.328125 57.03125 
Q 33.453125 57.375 30.953125 57.375 
Q 26.421875 57.375 23.140625 55.515625 
Q 19.875 53.65625 17.796875 50.53125 
Q 15.71875 47.40625 14.71875 43.28125 
Q 13.71875 39.15625 13.578125 34.671875 
Q 14.84375 35.40625 16.421875 36.125 
Q 18.015625 36.859375 19.890625 37.4375 
Q 21.78125 38.03125 23.875 38.390625 
Q 25.984375 38.765625 28.375 38.765625 
Q 33.5 38.765625 37.015625 37.375 
Q 40.53125 35.984375 42.703125 33.515625 
Q 44.875 31.0625 45.796875 27.703125 
Q 46.734375 24.359375 46.734375 20.453125 
z
M 38.234375 19.671875 
Q 38.234375 22.515625 37.671875 24.828125 
Q 37.109375 27.15625 35.78125 28.765625 
Q 34.46875 30.375 32.265625 31.25 
Q 30.078125 32.125 26.859375 32.125 
Q 25.046875 32.125 23.234375 31.8125 
Q 21.4375 31.5 19.75 30.9375 
Q 18.0625 30.375 16.515625 29.609375 
Q 14.984375 28.859375 13.71875 27.984375 
Q 13.71875 21.6875 14.515625 17.4375 
Q 15.328125 13.1875 16.859375 10.625 
Q 18.40625 8.0625 20.703125 6.953125 
Q 23 5.859375 26.078125 5.859375 
Q 29.203125 5.859375 31.5 7.03125 
Q 33.796875 8.203125 35.296875 10.171875 
Q 36.8125 12.15625 37.515625 14.625 
Q 38.234375 17.09375 38.234375 19.671875 
z
" id="Calibri-36"/>
      </defs>
      <g transform="translate(351.02735 393.442812)scale(0.18 -0.18)">
       <use xlink:href="#Calibri-30"/>
       <use x="50.683594" xlink:href="#Calibri-2e"/>
       <use x="75.927734" xlink:href="#Calibri-36"/>
      </g>
     </g>
    </g>
    <g id="xtick_5">
     <g id="line2d_9">
      <path clip-path="url(#p94f844b507)" d="M 458.0968 369.7 
L 458.0968 13.32 
" style="fill:none;stroke:#bfbfbf;stroke-linecap:square;stroke-width:0.8;"/>
     </g>
     <g id="line2d_10">
      <g>
       <use style="stroke:#000000;stroke-width:0.8;" x="458.0968" xlink:href="#mf1e8062488" y="369.7"/>
      </g>
     </g>
     <g id="text_5">
      <!-- 0.8 -->
      <defs>
       <path d="M 46.578125 16.21875 
Q 46.578125 12.109375 45.109375 8.90625 
Q 43.65625 5.71875 40.890625 3.515625 
Q 38.140625 1.3125 34.078125 0.1875 
Q 30.03125 -0.921875 24.8125 -0.921875 
Q 19.921875 -0.921875 16.0625 0.09375 
Q 12.203125 1.125 9.515625 3.125 
Q 6.84375 5.125 5.421875 8.046875 
Q 4 10.984375 4 14.75 
Q 4 17.71875 4.96875 20.203125 
Q 5.953125 22.703125 7.78125 24.796875 
Q 9.625 26.90625 12.296875 28.734375 
Q 14.984375 30.5625 18.359375 32.234375 
Q 15.4375 33.734375 13.1875 35.421875 
Q 10.9375 37.109375 9.375 39.078125 
Q 7.8125 41.0625 7 43.3125 
Q 6.203125 45.5625 6.203125 48.1875 
Q 6.203125 51.515625 7.390625 54.421875 
Q 8.59375 57.328125 11 59.46875 
Q 13.421875 61.625 17.15625 62.859375 
Q 20.90625 64.109375 25.875 64.109375 
Q 30.671875 64.109375 34.15625 62.953125 
Q 37.640625 61.8125 39.90625 59.828125 
Q 42.1875 57.859375 43.265625 55.171875 
Q 44.34375 52.484375 44.34375 49.421875 
Q 44.34375 46.921875 43.53125 44.625 
Q 42.71875 42.328125 41.15625 40.28125 
Q 39.59375 38.234375 37.328125 36.453125 
Q 35.0625 34.671875 32.125 33.109375 
Q 35.59375 31.390625 38.296875 29.578125 
Q 41.015625 27.78125 42.84375 25.703125 
Q 44.671875 23.640625 45.625 21.3125 
Q 46.578125 19 46.578125 16.21875 
z
M 36.03125 48.640625 
Q 36.03125 50.6875 35.328125 52.34375 
Q 34.625 54 33.25 55.171875 
Q 31.890625 56.34375 29.859375 56.953125 
Q 27.828125 57.5625 25.25 57.5625 
Q 19.96875 57.5625 17.25 55.171875 
Q 14.546875 52.78125 14.546875 48.640625 
Q 14.546875 46.734375 15.203125 45.09375 
Q 15.875 43.453125 17.265625 41.984375 
Q 18.65625 40.53125 20.78125 39.140625 
Q 22.90625 37.75 25.828125 36.234375 
Q 30.765625 38.765625 33.390625 41.84375 
Q 36.03125 44.921875 36.03125 48.640625 
z
M 38.09375 15.328125 
Q 38.09375 17.578125 37.25 19.40625 
Q 36.421875 21.234375 34.734375 22.828125 
Q 33.0625 24.421875 30.546875 25.90625 
Q 28.03125 27.390625 24.703125 29 
Q 21.625 27.484375 19.3125 25.96875 
Q 17 24.46875 15.5 22.84375 
Q 14.015625 21.234375 13.25 19.453125 
Q 12.5 17.671875 12.5 15.53125 
Q 12.5 10.796875 15.75 8.203125 
Q 19 5.609375 25.4375 5.609375 
Q 31.6875 5.609375 34.890625 8.21875 
Q 38.09375 10.84375 38.09375 15.328125 
z
" id="Calibri-38"/>
      </defs>
      <g transform="translate(446.70055 393.442812)scale(0.18 -0.18)">
       <use xlink:href="#Calibri-30"/>
       <use x="50.683594" xlink:href="#Calibri-2e"/>
       <use x="75.927734" xlink:href="#Calibri-38"/>
      </g>
     </g>
    </g>
    <g id="xtick_6">
     <g id="line2d_11">
      <path clip-path="url(#p94f844b507)" d="M 553.77 369.7 
L 553.77 13.32 
" style="fill:none;stroke:#bfbfbf;stroke-linecap:square;stroke-width:0.8;"/>
     </g>
     <g id="line2d_12">
      <g>
       <use style="stroke:#000000;stroke-width:0.8;" x="553.77" xlink:href="#mf1e8062488" y="369.7"/>
      </g>
     </g>
     <g id="text_6">
      <!-- 1.0 -->
      <defs>
       <path d="M 45.265625 3.328125 
Q 45.265625 2.390625 45.109375 1.75 
Q 44.96875 1.125 44.71875 0.734375 
Q 44.484375 0.34375 44.15625 0.171875 
Q 43.84375 0 43.5 0 
L 10.5 0 
Q 10.15625 0 9.859375 0.171875 
Q 9.578125 0.34375 9.296875 0.734375 
Q 9.03125 1.125 8.875 1.75 
Q 8.734375 2.390625 8.734375 3.328125 
Q 8.734375 4.203125 8.875 4.828125 
Q 9.03125 5.46875 9.25 5.875 
Q 9.46875 6.296875 9.78125 6.515625 
Q 10.109375 6.734375 10.5 6.734375 
L 23.6875 6.734375 
L 23.6875 54.78125 
L 11.46875 47.515625 
Q 10.546875 47.015625 9.984375 46.921875 
Q 9.421875 46.828125 9.078125 47.140625 
Q 8.734375 47.46875 8.609375 48.1875 
Q 8.5 48.921875 8.5 50.046875 
Q 8.5 50.875 8.5625 51.453125 
Q 8.640625 52.046875 8.78125 52.4375 
Q 8.9375 52.828125 9.203125 53.125 
Q 9.46875 53.421875 9.90625 53.71875 
L 24.46875 63.03125 
Q 24.65625 63.1875 24.953125 63.28125 
Q 25.25 63.375 25.6875 63.46875 
Q 26.125 63.578125 26.703125 63.59375 
Q 27.296875 63.625 28.171875 63.625 
Q 29.34375 63.625 30.125 63.515625 
Q 30.90625 63.421875 31.34375 63.25 
Q 31.78125 63.09375 31.921875 62.8125 
Q 32.078125 62.546875 32.078125 62.25 
L 32.078125 6.734375 
L 43.5 6.734375 
Q 43.890625 6.734375 44.234375 6.515625 
Q 44.578125 6.296875 44.796875 5.875 
Q 45.015625 5.46875 45.140625 4.828125 
Q 45.265625 4.203125 45.265625 3.328125 
z
" id="Calibri-31"/>
      </defs>
      <g transform="translate(542.37375 393.442812)scale(0.18 -0.18)">
       <use xlink:href="#Calibri-31"/>
       <use x="50.683594" xlink:href="#Calibri-2e"/>
       <use x="75.927734" xlink:href="#Calibri-30"/>
      </g>
     </g>
    </g>
    <g id="xtick_7">
     <g id="line2d_13">
      <defs>
       <path d="M 0 0 
L 0 2 
" id="md89a107a67" style="stroke:#000000;stroke-width:0.6;"/>
      </defs>
      <g>
       <use style="stroke:#000000;stroke-width:0.6;" x="99.3223" xlink:href="#md89a107a67" y="369.7"/>
      </g>
     </g>
    </g>
    <g id="xtick_8">
     <g id="line2d_14">
      <g>
       <use style="stroke:#000000;stroke-width:0.6;" x="123.2406" xlink:href="#md89a107a67" y="369.7"/>
      </g>
     </g>
    </g>
    <g id="xtick_9">
     <g id="line2d_15">
      <g>
       <use style="stroke:#000000;stroke-width:0.6;" x="147.1589" xlink:href="#md89a107a67" y="369.7"/>
      </g>
     </g>
    </g>
    <g id="xtick_10">
     <g id="line2d_16">
      <g>
       <use style="stroke:#000000;stroke-width:0.6;" x="194.9955" xlink:href="#md89a107a67" y="369.7"/>
      </g>
     </g>
    </g>
    <g id="xtick_11">
     <g id="line2d_17">
      <g>
       <use style="stroke:#000000;stroke-width:0.6;" x="218.9138" xlink:href="#md89a107a67" y="369.7"/>
      </g>
     </g>
    </g>
    <g id="xtick_12">
     <g id="line2d_18">
      <g>
       <use style="stroke:#000000;stroke-width:0.6;" x="242.8321" xlink:href="#md89a107a67" y="369.7"/>
      </g>
     </g>
    </g>
    <g id="xtick_13">
     <g id="line2d_19">
      <g>
       <use style="stroke:#000000;stroke-width:0.6;" x="290.6687" xlink:href="#md89a107a67" y="369.7"/>
      </g>
     </g>
    </g>
    <g id="xtick_14">
     <g id="line2d_20">
      <g>
       <use style="stroke:#000000;stroke-width:0.6;" x="314.587" xlink:href="#md89a107a67" y="369.7"/>
      </g>
     </g>
    </g>
    <g id="xtick_15">
     <g id="line2d_21">
      <g>
       <use style="stroke:#000000;stroke-width:0.6;" x="338.5053" xlink:href="#md89a107a67" y="369.7"/>
      </g>
     </g>
    </g>
    <g id="xtick_16">
     <g id="line2d_22">
      <g>
       <use style="stroke:#000000;stroke-width:0.6;" x="386.3419" xlink:href="#md89a107a67" y="369.7"/>
      </g>
     </g>
    </g>
    <g id="xtick_17">
     <g id="line2d_23">
      <g>
       <use style="stroke:#000000;stroke-width:0.6;" x="410.2602" xlink:href="#md89a107a67" y="369.7"/>
      </g>
     </g>
    </g>
    <g id="xtick_18">
     <g id="line2d_24">
      <g>
       <use style="stroke:#000000;stroke-width:0.6;" x="434.1785" xlink:href="#md89a107a67" y="369.7"/>
      </g>
     </g>
    </g>
    <g id="xtick_19">
     <g id="line2d_25">
      <g>
       <use style="stroke:#000000;stroke-width:0.6;" x="482.0151" xlink:href="#md89a107a67" y="369.7"/>
      </g>
     </g>
    </g>
    <g id="xtick_20">
     <g id="line2d_26">
      <g>
       <use style="stroke:#000000;stroke-width:0.6;" x="505.9334" xlink:href="#md89a107a67" y="369.7"/>
      </g>
     </g>
    </g>
    <g id="xtick_21">
     <g id="line2d_27">
      <g>
       <use style="stroke:#000000;stroke-width:0.6;" x="529.8517" xlink:href="#md89a107a67" y="369.7"/>
      </g>
     </g>
    </g>
    <g id="text_7">
     <!-- Ice edge position, $x_\mathrm{i}=\sin\phi_\mathrm{i}$ -->
     <defs>
      <path d="M 16.796875 1.265625 
Q 16.796875 0.875 16.59375 0.578125 
Q 16.40625 0.296875 15.921875 0.125 
Q 15.4375 -0.046875 14.625 -0.171875 
Q 13.8125 -0.296875 12.59375 -0.296875 
Q 11.421875 -0.296875 10.59375 -0.171875 
Q 9.765625 -0.046875 9.28125 0.125 
Q 8.796875 0.296875 8.59375 0.578125 
Q 8.40625 0.875 8.40625 1.265625 
L 8.40625 61.921875 
Q 8.40625 62.3125 8.625 62.59375 
Q 8.84375 62.890625 9.34375 63.0625 
Q 9.859375 63.234375 10.65625 63.359375 
Q 11.46875 63.484375 12.59375 63.484375 
Q 13.8125 63.484375 14.625 63.359375 
Q 15.4375 63.234375 15.921875 63.0625 
Q 16.40625 62.890625 16.59375 62.59375 
Q 16.796875 62.3125 16.796875 61.921875 
z
" id="Calibri-49"/>
      <path d="M 39.0625 7.90625 
Q 39.0625 7.078125 39.015625 6.46875 
Q 38.96875 5.859375 38.84375 5.4375 
Q 38.71875 5.03125 38.546875 4.703125 
Q 38.375 4.390625 37.765625 3.78125 
Q 37.15625 3.171875 35.6875 2.265625 
Q 34.234375 1.375 32.390625 0.65625 
Q 30.5625 -0.046875 28.40625 -0.484375 
Q 26.265625 -0.921875 23.96875 -0.921875 
Q 19.234375 -0.921875 15.578125 0.640625 
Q 11.921875 2.203125 9.453125 5.203125 
Q 6.984375 8.203125 5.6875 12.5625 
Q 4.390625 16.9375 4.390625 22.65625 
Q 4.390625 29.15625 5.96875 33.8125 
Q 7.5625 38.484375 10.328125 41.453125 
Q 13.09375 44.4375 16.828125 45.875 
Q 20.5625 47.3125 24.90625 47.3125 
Q 27 47.3125 28.96875 46.921875 
Q 30.953125 46.53125 32.609375 45.890625 
Q 34.28125 45.265625 35.5625 44.4375 
Q 36.859375 43.609375 37.4375 43.015625 
Q 38.03125 42.4375 38.25 42.09375 
Q 38.484375 41.75 38.625 41.28125 
Q 38.765625 40.828125 38.8125 40.234375 
Q 38.875 39.65625 38.875 38.765625 
Q 38.875 36.859375 38.421875 36.109375 
Q 37.984375 35.359375 37.359375 35.359375 
Q 36.625 35.359375 35.671875 36.15625 
Q 34.71875 36.96875 33.25 37.9375 
Q 31.78125 38.921875 29.703125 39.71875 
Q 27.640625 40.53125 24.8125 40.53125 
Q 19 40.53125 15.890625 36.0625 
Q 12.796875 31.59375 12.796875 23.09375 
Q 12.796875 18.84375 13.59375 15.640625 
Q 14.40625 12.453125 15.96875 10.296875 
Q 17.53125 8.15625 19.796875 7.109375 
Q 22.078125 6.0625 25 6.0625 
Q 27.78125 6.0625 29.875 6.9375 
Q 31.984375 7.8125 33.515625 8.859375 
Q 35.0625 9.90625 36.109375 10.765625 
Q 37.15625 11.625 37.75 11.625 
Q 38.09375 11.625 38.328125 11.421875 
Q 38.578125 11.234375 38.75 10.765625 
Q 38.921875 10.296875 38.984375 9.59375 
Q 39.0625 8.890625 39.0625 7.90625 
z
" id="Calibri-63"/>
      <path d="M 44.96875 25.09375 
Q 44.96875 23.1875 44.015625 22.375 
Q 43.0625 21.578125 41.84375 21.578125 
L 13.03125 21.578125 
Q 13.03125 17.921875 13.765625 14.984375 
Q 14.5 12.0625 16.203125 9.953125 
Q 17.921875 7.859375 20.65625 6.734375 
Q 23.390625 5.609375 27.34375 5.609375 
Q 30.46875 5.609375 32.90625 6.125 
Q 35.359375 6.640625 37.140625 7.265625 
Q 38.921875 7.90625 40.0625 8.421875 
Q 41.21875 8.9375 41.796875 8.9375 
Q 42.140625 8.9375 42.40625 8.765625 
Q 42.671875 8.59375 42.8125 8.25 
Q 42.96875 7.90625 43.03125 7.296875 
Q 43.109375 6.6875 43.109375 5.8125 
Q 43.109375 5.171875 43.0625 4.703125 
Q 43.015625 4.25 42.9375 3.875 
Q 42.875 3.515625 42.703125 3.21875 
Q 42.53125 2.9375 42.265625 2.65625 
Q 42 2.390625 40.671875 1.78125 
Q 39.359375 1.171875 37.25 0.578125 
Q 35.15625 0 32.390625 -0.453125 
Q 29.640625 -0.921875 26.515625 -0.921875 
Q 21.09375 -0.921875 17.015625 0.578125 
Q 12.9375 2.09375 10.15625 5.078125 
Q 7.375 8.0625 5.953125 12.546875 
Q 4.546875 17.046875 4.546875 23 
Q 4.546875 28.65625 6 33.171875 
Q 7.46875 37.703125 10.21875 40.84375 
Q 12.984375 44 16.890625 45.671875 
Q 20.796875 47.359375 25.640625 47.359375 
Q 30.8125 47.359375 34.453125 45.703125 
Q 38.09375 44.046875 40.4375 41.234375 
Q 42.78125 38.421875 43.875 34.640625 
Q 44.96875 30.859375 44.96875 26.5625 
z
M 36.859375 27.484375 
Q 37.015625 33.84375 34.0625 37.453125 
Q 31.109375 41.0625 25.296875 41.0625 
Q 22.3125 41.0625 20.0625 39.9375 
Q 17.828125 38.8125 16.3125 36.953125 
Q 14.796875 35.109375 13.96875 32.640625 
Q 13.140625 30.171875 13.03125 27.484375 
z
" id="Calibri-65"/>
      <path id="Calibri-20"/>
      <path d="M 45.125 1.21875 
Q 45.125 0.828125 44.953125 0.53125 
Q 44.78125 0.25 44.359375 0.078125 
Q 43.953125 -0.09375 43.265625 -0.1875 
Q 42.578125 -0.296875 41.609375 -0.296875 
Q 40.578125 -0.296875 39.890625 -0.1875 
Q 39.203125 -0.09375 38.765625 0.078125 
Q 38.328125 0.25 38.125 0.53125 
Q 37.9375 0.828125 37.9375 1.21875 
L 37.9375 7.03125 
Q 34.46875 3.265625 30.734375 1.171875 
Q 27 -0.921875 22.5625 -0.921875 
Q 17.71875 -0.921875 14.296875 0.953125 
Q 10.890625 2.828125 8.765625 6.03125 
Q 6.640625 9.234375 5.65625 13.546875 
Q 4.6875 17.875 4.6875 22.65625 
Q 4.6875 28.328125 5.90625 32.890625 
Q 7.125 37.453125 9.515625 40.671875 
Q 11.921875 43.890625 15.453125 45.625 
Q 19 47.359375 23.640625 47.359375 
Q 27.484375 47.359375 30.6875 45.671875 
Q 33.890625 44 37.015625 40.71875 
L 37.015625 66.265625 
Q 37.015625 66.609375 37.1875 66.921875 
Q 37.359375 67.234375 37.84375 67.40625 
Q 38.328125 67.578125 39.078125 67.703125 
Q 39.84375 67.828125 41.015625 67.828125 
Q 42.234375 67.828125 43.015625 67.703125 
Q 43.796875 67.578125 44.234375 67.40625 
Q 44.671875 67.234375 44.890625 66.921875 
Q 45.125 66.609375 45.125 66.265625 
z
M 37.015625 32.125 
Q 33.734375 36.1875 30.6875 38.3125 
Q 27.640625 40.4375 24.3125 40.4375 
Q 21.234375 40.4375 19.078125 38.96875 
Q 16.9375 37.5 15.59375 35.109375 
Q 14.265625 32.71875 13.640625 29.6875 
Q 13.03125 26.65625 13.03125 23.53125 
Q 13.03125 20.21875 13.546875 17.046875 
Q 14.0625 13.875 15.328125 11.40625 
Q 16.609375 8.9375 18.703125 7.4375 
Q 20.796875 5.953125 23.96875 5.953125 
Q 25.59375 5.953125 27.078125 6.390625 
Q 28.5625 6.84375 30.125 7.859375 
Q 31.6875 8.890625 33.390625 10.515625 
Q 35.109375 12.15625 37.015625 14.546875 
z
" id="Calibri-64"/>
      <path d="M 44.1875 43.171875 
Q 44.1875 41.453125 43.71875 40.6875 
Q 43.265625 39.9375 42.53125 39.9375 
L 36.234375 39.9375 
Q 37.9375 38.1875 38.625 36.0625 
Q 39.3125 33.9375 39.3125 31.640625 
Q 39.3125 27.828125 38.078125 24.890625 
Q 36.859375 21.96875 34.59375 19.9375 
Q 32.328125 17.921875 29.203125 16.84375 
Q 26.078125 15.765625 22.265625 15.765625 
Q 19.578125 15.765625 17.15625 16.46875 
Q 14.75 17.1875 13.421875 18.265625 
Q 12.546875 17.390625 11.984375 16.265625 
Q 11.421875 15.140625 11.421875 13.671875 
Q 11.421875 11.96875 13 10.84375 
Q 14.59375 9.71875 17.234375 9.625 
L 28.71875 9.125 
Q 31.984375 9.03125 34.71875 8.21875 
Q 37.453125 7.421875 39.453125 5.921875 
Q 41.453125 4.4375 42.578125 2.265625 
Q 43.703125 0.09375 43.703125 -2.78125 
Q 43.703125 -5.8125 42.421875 -8.546875 
Q 41.15625 -11.28125 38.546875 -13.359375 
Q 35.9375 -15.4375 31.875 -16.625 
Q 27.828125 -17.828125 22.3125 -17.828125 
Q 17 -17.828125 13.25 -16.921875 
Q 9.515625 -16.015625 7.125 -14.453125 
Q 4.734375 -12.890625 3.65625 -10.71875 
Q 2.59375 -8.546875 2.59375 -6 
Q 2.59375 -4.390625 2.984375 -2.875 
Q 3.375 -1.375 4.171875 0 
Q 4.984375 1.375 6.171875 2.609375 
Q 7.375 3.859375 8.9375 5.078125 
Q 6.546875 6.296875 5.390625 8.15625 
Q 4.25 10.015625 4.25 12.15625 
Q 4.25 15.140625 5.46875 17.484375 
Q 6.6875 19.828125 8.5 21.6875 
Q 6.984375 23.484375 6.09375 25.75 
Q 5.21875 28.03125 5.21875 31.25 
Q 5.21875 35.015625 6.484375 37.984375 
Q 7.765625 40.96875 10 43.015625 
Q 12.25 45.0625 15.40625 46.15625 
Q 18.5625 47.265625 22.265625 47.265625 
Q 24.265625 47.265625 26 47.046875 
Q 27.734375 46.828125 29.25 46.4375 
L 42.53125 46.4375 
Q 43.359375 46.4375 43.765625 45.625 
Q 44.1875 44.828125 44.1875 43.171875 
z
M 31.59375 31.59375 
Q 31.59375 36.078125 29.125 38.59375 
Q 26.65625 41.109375 22.125 41.109375 
Q 19.78125 41.109375 18.046875 40.328125 
Q 16.3125 39.546875 15.15625 38.171875 
Q 14.015625 36.8125 13.453125 35.03125 
Q 12.890625 33.25 12.890625 31.296875 
Q 12.890625 26.953125 15.359375 24.453125 
Q 17.828125 21.96875 22.265625 21.96875 
Q 24.65625 21.96875 26.40625 22.71875 
Q 28.171875 23.484375 29.3125 24.828125 
Q 30.46875 26.171875 31.03125 27.921875 
Q 31.59375 29.6875 31.59375 31.59375 
z
M 35.640625 -3.21875 
Q 35.640625 -0.390625 33.3125 1.140625 
Q 31 2.6875 27.046875 2.78125 
L 15.671875 3.171875 
Q 14.109375 1.953125 13.109375 0.84375 
Q 12.109375 -0.25 11.515625 -1.25 
Q 10.9375 -2.25 10.71875 -3.21875 
Q 10.5 -4.203125 10.5 -5.21875 
Q 10.5 -8.40625 13.71875 -10.03125 
Q 16.9375 -11.671875 22.703125 -11.671875 
Q 26.375 -11.671875 28.828125 -10.953125 
Q 31.296875 -10.25 32.8125 -9.078125 
Q 34.328125 -7.90625 34.984375 -6.390625 
Q 35.640625 -4.890625 35.640625 -3.21875 
z
" id="Calibri-67"/>
      <path d="M 47.90625 23.875 
Q 47.90625 18.109375 46.65625 13.515625 
Q 45.40625 8.9375 42.984375 5.734375 
Q 40.578125 2.546875 37.015625 0.8125 
Q 33.453125 -0.921875 28.859375 -0.921875 
Q 26.90625 -0.921875 25.234375 -0.53125 
Q 23.578125 -0.140625 21.984375 0.6875 
Q 20.40625 1.515625 18.84375 2.78125 
Q 17.28125 4.046875 15.53125 5.765625 
L 15.53125 -16.21875 
Q 15.53125 -16.609375 15.328125 -16.890625 
Q 15.140625 -17.1875 14.703125 -17.375 
Q 14.265625 -17.578125 13.484375 -17.671875 
Q 12.703125 -17.78125 11.46875 -17.78125 
Q 10.296875 -17.78125 9.515625 -17.671875 
Q 8.734375 -17.578125 8.265625 -17.375 
Q 7.8125 -17.1875 7.640625 -16.890625 
Q 7.46875 -16.609375 7.46875 -16.21875 
L 7.46875 45.171875 
Q 7.46875 45.609375 7.609375 45.875 
Q 7.765625 46.140625 8.203125 46.328125 
Q 8.640625 46.53125 9.328125 46.609375 
Q 10.015625 46.6875 10.984375 46.6875 
Q 12.015625 46.6875 12.671875 46.609375 
Q 13.328125 46.53125 13.765625 46.328125 
Q 14.203125 46.140625 14.375 45.875 
Q 14.546875 45.609375 14.546875 45.171875 
L 14.546875 39.265625 
Q 16.546875 41.3125 18.40625 42.828125 
Q 20.265625 44.34375 22.140625 45.34375 
Q 24.03125 46.34375 26 46.84375 
Q 27.984375 47.359375 30.171875 47.359375 
Q 34.96875 47.359375 38.328125 45.5 
Q 41.703125 43.65625 43.828125 40.421875 
Q 45.953125 37.203125 46.921875 32.921875 
Q 47.90625 28.65625 47.90625 23.875 
z
M 39.40625 22.953125 
Q 39.40625 26.3125 38.890625 29.46875 
Q 38.375 32.625 37.125 35.0625 
Q 35.890625 37.5 33.78125 38.96875 
Q 31.6875 40.4375 28.5625 40.4375 
Q 27 40.4375 25.484375 39.96875 
Q 23.96875 39.5 22.40625 38.5 
Q 20.84375 37.5 19.140625 35.859375 
Q 17.4375 34.234375 15.53125 31.84375 
L 15.53125 14.359375 
Q 18.84375 10.296875 21.828125 8.140625 
Q 24.8125 6 28.078125 6 
Q 31.109375 6 33.28125 7.46875 
Q 35.453125 8.9375 36.796875 11.375 
Q 38.140625 13.8125 38.765625 16.84375 
Q 39.40625 19.875 39.40625 22.953125 
z
" id="Calibri-70"/>
      <path d="M 48.34375 23.6875 
Q 48.34375 18.3125 46.921875 13.796875 
Q 45.515625 9.28125 42.703125 6 
Q 39.890625 2.734375 35.671875 0.90625 
Q 31.453125 -0.921875 25.875 -0.921875 
Q 20.453125 -0.921875 16.421875 0.6875 
Q 12.40625 2.296875 9.71875 5.375 
Q 7.03125 8.453125 5.703125 12.84375 
Q 4.390625 17.234375 4.390625 22.796875 
Q 4.390625 28.171875 5.78125 32.6875 
Q 7.171875 37.203125 9.984375 40.46875 
Q 12.796875 43.75 16.984375 45.546875 
Q 21.1875 47.359375 26.8125 47.359375 
Q 32.234375 47.359375 36.25 45.75 
Q 40.28125 44.140625 42.96875 41.0625 
Q 45.65625 37.984375 47 33.59375 
Q 48.34375 29.203125 48.34375 23.6875 
z
M 39.84375 23.140625 
Q 39.84375 26.703125 39.1875 29.875 
Q 38.53125 33.0625 37.015625 35.453125 
Q 35.5 37.84375 32.90625 39.234375 
Q 30.328125 40.625 26.46875 40.625 
Q 22.90625 40.625 20.34375 39.359375 
Q 17.78125 38.09375 16.109375 35.765625 
Q 14.453125 33.453125 13.640625 30.265625 
Q 12.84375 27.09375 12.84375 23.34375 
Q 12.84375 19.734375 13.5 16.546875 
Q 14.15625 13.375 15.6875 11 
Q 17.234375 8.640625 19.8125 7.25 
Q 22.40625 5.859375 26.265625 5.859375 
Q 29.78125 5.859375 32.375 7.125 
Q 34.96875 8.40625 36.625 10.6875 
Q 38.28125 12.984375 39.0625 16.15625 
Q 39.84375 19.34375 39.84375 23.140625 
z
" id="Calibri-6f"/>
      <path d="M 35.0625 13.1875 
Q 35.0625 9.8125 33.8125 7.171875 
Q 32.5625 4.546875 30.265625 2.734375 
Q 27.984375 0.921875 24.796875 0 
Q 21.625 -0.921875 17.828125 -0.921875 
Q 15.484375 -0.921875 13.359375 -0.5625 
Q 11.234375 -0.203125 9.546875 0.359375 
Q 7.859375 0.921875 6.6875 1.53125 
Q 5.515625 2.15625 4.96875 2.640625 
Q 4.4375 3.125 4.1875 4 
Q 3.953125 4.890625 3.953125 6.390625 
Q 3.953125 7.328125 4.046875 7.953125 
Q 4.15625 8.59375 4.296875 8.984375 
Q 4.4375 9.375 4.703125 9.546875 
Q 4.984375 9.71875 5.328125 9.71875 
Q 5.859375 9.71875 6.90625 9.0625 
Q 7.953125 8.40625 9.484375 7.625 
Q 11.03125 6.84375 13.125 6.171875 
Q 15.234375 5.515625 17.96875 5.515625 
Q 20.015625 5.515625 21.671875 5.953125 
Q 23.34375 6.390625 24.5625 7.25 
Q 25.78125 8.109375 26.4375 9.421875 
Q 27.09375 10.75 27.09375 12.546875 
Q 27.09375 14.40625 26.140625 15.671875 
Q 25.203125 16.9375 23.640625 17.90625 
Q 22.078125 18.890625 20.125 19.640625 
Q 18.171875 20.40625 16.09375 21.234375 
Q 14.015625 22.078125 12.03125 23.125 
Q 10.0625 24.171875 8.5 25.6875 
Q 6.9375 27.203125 5.984375 29.296875 
Q 5.03125 31.390625 5.03125 34.328125 
Q 5.03125 36.921875 6.03125 39.28125 
Q 7.03125 41.65625 9.03125 43.4375 
Q 11.03125 45.21875 14.03125 46.28125 
Q 17.046875 47.359375 21.046875 47.359375 
Q 22.796875 47.359375 24.546875 47.0625 
Q 26.3125 46.78125 27.734375 46.34375 
Q 29.15625 45.90625 30.15625 45.390625 
Q 31.15625 44.875 31.65625 44.484375 
Q 32.171875 44.09375 32.34375 43.796875 
Q 32.515625 43.5 32.59375 43.140625 
Q 32.671875 42.78125 32.734375 42.234375 
Q 32.8125 41.703125 32.8125 40.921875 
Q 32.8125 40.09375 32.734375 39.484375 
Q 32.671875 38.875 32.5 38.484375 
Q 32.328125 38.09375 32.078125 37.921875 
Q 31.84375 37.75 31.546875 37.75 
Q 31.109375 37.75 30.265625 38.28125 
Q 29.4375 38.8125 28.125 39.421875 
Q 26.8125 40.046875 25.03125 40.578125 
Q 23.25 41.109375 20.953125 41.109375 
Q 18.890625 41.109375 17.328125 40.640625 
Q 15.765625 40.1875 14.765625 39.328125 
Q 13.765625 38.484375 13.25 37.3125 
Q 12.75 36.140625 12.75 34.765625 
Q 12.75 32.859375 13.71875 31.5625 
Q 14.703125 30.28125 16.265625 29.296875 
Q 17.828125 28.328125 19.828125 27.546875 
Q 21.828125 26.765625 23.90625 25.921875 
Q 25.984375 25.09375 28 24.0625 
Q 30.03125 23.046875 31.59375 21.578125 
Q 33.15625 20.125 34.109375 18.0625 
Q 35.0625 16.015625 35.0625 13.1875 
z
" id="Calibri-73"/>
      <path d="M 15.53125 1.21875 
Q 15.53125 0.828125 15.328125 0.5625 
Q 15.140625 0.296875 14.703125 0.09375 
Q 14.265625 -0.09375 13.484375 -0.1875 
Q 12.703125 -0.296875 11.46875 -0.296875 
Q 10.296875 -0.296875 9.515625 -0.1875 
Q 8.734375 -0.09375 8.265625 0.09375 
Q 7.8125 0.296875 7.640625 0.5625 
Q 7.46875 0.828125 7.46875 1.21875 
L 7.46875 45.171875 
Q 7.46875 45.515625 7.640625 45.796875 
Q 7.8125 46.09375 8.265625 46.28125 
Q 8.734375 46.484375 9.515625 46.578125 
Q 10.296875 46.6875 11.46875 46.6875 
Q 12.703125 46.6875 13.484375 46.578125 
Q 14.265625 46.484375 14.703125 46.28125 
Q 15.140625 46.09375 15.328125 45.796875 
Q 15.53125 45.515625 15.53125 45.171875 
z
M 16.453125 60.015625 
Q 16.453125 57.171875 15.375 56.140625 
Q 14.3125 55.125 11.421875 55.125 
Q 8.59375 55.125 7.546875 56.125 
Q 6.5 57.125 6.5 59.90625 
Q 6.5 62.75 7.5625 63.765625 
Q 8.640625 64.796875 11.53125 64.796875 
Q 14.359375 64.796875 15.40625 63.796875 
Q 16.453125 62.796875 16.453125 60.015625 
z
" id="Calibri-69"/>
      <path d="M 30.328125 4.4375 
Q 30.328125 3.03125 30.125 2.203125 
Q 29.9375 1.375 29.546875 0.984375 
Q 29.15625 0.59375 28.375 0.25 
Q 27.59375 -0.09375 26.59375 -0.3125 
Q 25.59375 -0.53125 24.46875 -0.671875 
Q 23.34375 -0.828125 22.21875 -0.828125 
Q 18.796875 -0.828125 16.359375 0.078125 
Q 13.921875 0.984375 12.359375 2.8125 
Q 10.796875 4.640625 10.078125 7.4375 
Q 9.375 10.25 9.375 14.0625 
L 9.375 39.75 
L 3.21875 39.75 
Q 2.484375 39.75 2.046875 40.53125 
Q 1.609375 41.3125 1.609375 43.0625 
Q 1.609375 44 1.734375 44.625 
Q 1.859375 45.265625 2.046875 45.671875 
Q 2.25 46.09375 2.5625 46.265625 
Q 2.875 46.4375 3.265625 46.4375 
L 9.375 46.4375 
L 9.375 56.890625 
Q 9.375 57.234375 9.546875 57.515625 
Q 9.71875 57.8125 10.171875 58.03125 
Q 10.640625 58.25 11.421875 58.34375 
Q 12.203125 58.453125 13.375 58.453125 
Q 14.59375 58.453125 15.375 58.34375 
Q 16.15625 58.25 16.59375 58.03125 
Q 17.046875 57.8125 17.234375 57.515625 
Q 17.4375 57.234375 17.4375 56.890625 
L 17.4375 46.4375 
L 28.71875 46.4375 
Q 29.109375 46.4375 29.390625 46.265625 
Q 29.6875 46.09375 29.90625 45.671875 
Q 30.125 45.265625 30.21875 44.625 
Q 30.328125 44 30.328125 43.0625 
Q 30.328125 41.3125 29.875 40.53125 
Q 29.4375 39.75 28.71875 39.75 
L 17.4375 39.75 
L 17.4375 15.234375 
Q 17.4375 10.6875 18.78125 8.375 
Q 20.125 6.0625 23.578125 6.0625 
Q 24.703125 6.0625 25.578125 6.28125 
Q 26.46875 6.5 27.140625 6.734375 
Q 27.828125 6.984375 28.3125 7.203125 
Q 28.8125 7.421875 29.203125 7.421875 
Q 29.4375 7.421875 29.65625 7.296875 
Q 29.890625 7.171875 30 6.828125 
Q 30.125 6.5 30.21875 5.90625 
Q 30.328125 5.328125 30.328125 4.4375 
z
" id="Calibri-74"/>
      <path d="M 45.3125 1.21875 
Q 45.3125 0.828125 45.109375 0.5625 
Q 44.921875 0.296875 44.484375 0.09375 
Q 44.046875 -0.09375 43.265625 -0.1875 
Q 42.484375 -0.296875 41.3125 -0.296875 
Q 40.09375 -0.296875 39.3125 -0.1875 
Q 38.53125 -0.09375 38.078125 0.09375 
Q 37.640625 0.296875 37.4375 0.5625 
Q 37.25 0.828125 37.25 1.21875 
L 37.25 26.953125 
Q 37.25 30.71875 36.65625 33 
Q 36.078125 35.296875 34.953125 36.953125 
Q 33.84375 38.625 32.0625 39.5 
Q 30.28125 40.375 27.9375 40.375 
Q 24.90625 40.375 21.875 38.21875 
Q 18.84375 36.078125 15.53125 31.9375 
L 15.53125 1.21875 
Q 15.53125 0.828125 15.328125 0.5625 
Q 15.140625 0.296875 14.703125 0.09375 
Q 14.265625 -0.09375 13.484375 -0.1875 
Q 12.703125 -0.296875 11.46875 -0.296875 
Q 10.296875 -0.296875 9.515625 -0.1875 
Q 8.734375 -0.09375 8.265625 0.09375 
Q 7.8125 0.296875 7.640625 0.5625 
Q 7.46875 0.828125 7.46875 1.21875 
L 7.46875 45.171875 
Q 7.46875 45.5625 7.609375 45.828125 
Q 7.765625 46.09375 8.203125 46.3125 
Q 8.640625 46.53125 9.328125 46.609375 
Q 10.015625 46.6875 11.140625 46.6875 
Q 12.203125 46.6875 12.90625 46.609375 
Q 13.625 46.53125 14.015625 46.3125 
Q 14.40625 46.09375 14.578125 45.828125 
Q 14.75 45.5625 14.75 45.171875 
L 14.75 39.359375 
Q 18.453125 43.5 22.140625 45.421875 
Q 25.828125 47.359375 29.59375 47.359375 
Q 33.984375 47.359375 36.984375 45.875 
Q 39.984375 44.390625 41.84375 41.890625 
Q 43.703125 39.40625 44.5 36.0625 
Q 45.3125 32.71875 45.3125 28.03125 
z
" id="Calibri-6e"/>
      <path d="M 18.109375 6.984375 
Q 18.109375 5.46875 17.96875 4.203125 
Q 17.828125 2.9375 17.484375 1.8125 
Q 17.140625 0.6875 16.578125 -0.40625 
Q 16.015625 -1.515625 15.1875 -2.734375 
L 8.5 -12.796875 
Q 8.25 -13.140625 7.9375 -13.375 
Q 7.625 -13.625 7.15625 -13.8125 
Q 6.6875 -14.015625 6.078125 -14.078125 
Q 5.46875 -14.15625 4.546875 -14.15625 
Q 3.71875 -14.15625 3.15625 -14.078125 
Q 2.59375 -14.015625 2.34375 -13.84375 
Q 2.09375 -13.671875 2.0625 -13.375 
Q 2.046875 -13.09375 2.25 -12.703125 
L 8.734375 0.734375 
L 8.734375 6.984375 
Q 8.734375 8.296875 9 9.078125 
Q 9.28125 9.859375 9.859375 10.25 
Q 10.453125 10.640625 11.328125 10.78125 
Q 12.203125 10.9375 13.484375 10.9375 
Q 14.703125 10.9375 15.578125 10.78125 
Q 16.453125 10.640625 17.015625 10.25 
Q 17.578125 9.859375 17.84375 9.078125 
Q 18.109375 8.296875 18.109375 6.984375 
z
" id="Calibri-2c"/>
      <path d="M 27.203125 23.640625 
L 36.765625 2.15625 
Q 37.0625 1.46875 36.984375 1 
Q 36.921875 0.53125 36.375 0.234375 
Q 35.84375 -0.046875 34.890625 -0.171875 
Q 33.9375 -0.296875 32.421875 -0.296875 
Q 31.0625 -0.296875 30.28125 -0.21875 
Q 29.5 -0.140625 29.046875 0.03125 
Q 28.609375 0.203125 28.46875 0.46875 
Q 28.328125 0.734375 28.171875 1.078125 
L 20.84375 18.40625 
L 7.03125 1.078125 
Q 6.734375 0.734375 6.421875 0.46875 
Q 6.109375 0.203125 5.515625 0.046875 
Q 4.9375 -0.09375 4.03125 -0.1875 
Q 3.125 -0.296875 1.65625 -0.296875 
Q 0.25 -0.296875 -0.625 -0.171875 
Q -1.515625 -0.046875 -1.921875 0.234375 
Q -2.34375 0.53125 -2.265625 0.96875 
Q -2.203125 1.421875 -1.703125 2.09375 
L 16.546875 23.78125 
L 7.515625 44.28125 
Q 7.234375 44.96875 7.28125 45.4375 
Q 7.328125 45.90625 7.78125 46.1875 
Q 8.25 46.484375 9.171875 46.578125 
Q 10.109375 46.6875 11.625 46.6875 
Q 12.984375 46.6875 13.765625 46.609375 
Q 14.546875 46.53125 14.953125 46.375 
Q 15.375 46.234375 15.546875 45.984375 
Q 15.71875 45.75 15.875 45.40625 
L 22.859375 29 
L 36.03125 45.40625 
Q 36.328125 45.703125 36.625 45.9375 
Q 36.921875 46.1875 37.453125 46.359375 
Q 37.984375 46.53125 38.78125 46.609375 
Q 39.59375 46.6875 40.921875 46.6875 
Q 42.390625 46.6875 43.3125 46.578125 
Q 44.234375 46.484375 44.671875 46.234375 
Q 45.125 46 45.046875 45.53125 
Q 44.96875 45.0625 44.34375 44.390625 
z
" id="Calibri-Italic-78"/>
      <path d="M 45.171875 37.640625 
Q 45.171875 35.6875 44.609375 34.9375 
Q 44.046875 34.1875 43.3125 34.1875 
L 6.390625 34.1875 
Q 5.671875 34.1875 5.125 34.9375 
Q 4.59375 35.6875 4.59375 37.640625 
Q 4.59375 39.40625 5.078125 40.234375 
Q 5.5625 41.0625 6.390625 41.0625 
L 43.3125 41.0625 
Q 44.1875 41.0625 44.671875 40.234375 
Q 45.171875 39.40625 45.171875 37.640625 
z
M 45.171875 18.65625 
Q 45.171875 16.703125 44.609375 15.96875 
Q 44.046875 15.234375 43.3125 15.234375 
L 6.390625 15.234375 
Q 5.671875 15.234375 5.125 15.96875 
Q 4.59375 16.703125 4.59375 18.65625 
Q 4.59375 20.453125 5.078125 21.28125 
Q 5.5625 22.125 6.390625 22.125 
L 43.3125 22.125 
Q 44.1875 22.125 44.671875 21.28125 
Q 45.171875 20.453125 45.171875 18.65625 
z
" id="Calibri-3d"/>
      <path d="M 23.78125 -0.921875 
Q 14.15625 -0.34375 8.875 4.03125 
Q 3.609375 8.40625 3.609375 16.609375 
Q 3.609375 19.78125 4.21875 23.21875 
Q 4.828125 26.65625 6.21875 29.953125 
Q 7.625 33.25 9.859375 36.25 
Q 12.109375 39.265625 15.421875 41.609375 
Q 18.75 43.953125 23.21875 45.484375 
Q 27.6875 47.015625 33.453125 47.3125 
L 37.3125 66.453125 
Q 37.359375 66.84375 37.625 67.140625 
Q 37.890625 67.4375 38.375 67.625 
Q 38.875 67.828125 39.703125 67.921875 
Q 40.53125 68.015625 41.703125 68.015625 
Q 44.046875 68.015625 44.78125 67.625 
Q 45.515625 67.234375 45.40625 66.453125 
L 41.5 47.3125 
Q 51.46875 46.734375 56.59375 42.28125 
Q 61.71875 37.84375 61.71875 29.890625 
Q 61.71875 26.65625 61.125 23.21875 
Q 60.546875 19.78125 59.15625 16.453125 
Q 57.765625 13.140625 55.484375 10.125 
Q 53.21875 7.125 49.890625 4.78125 
Q 46.578125 2.4375 42.078125 0.890625 
Q 37.59375 -0.640625 31.84375 -0.921875 
L 28.8125 -16.21875 
Q 28.65625 -16.609375 28.4375 -16.890625 
Q 28.21875 -17.1875 27.734375 -17.375 
Q 27.25 -17.578125 26.4375 -17.671875 
Q 25.640625 -17.78125 24.515625 -17.78125 
Q 22.3125 -17.78125 21.40625 -17.40625 
Q 20.515625 -17.046875 20.703125 -16.21875 
z
M 33.15625 5.671875 
Q 37.59375 5.953125 40.8125 7.3125 
Q 44.046875 8.6875 46.28125 10.71875 
Q 48.53125 12.75 49.921875 15.234375 
Q 51.3125 17.71875 52.09375 20.203125 
Q 52.875 22.703125 53.140625 25 
Q 53.421875 27.296875 53.421875 29 
Q 53.421875 30.8125 52.984375 32.78125 
Q 52.546875 34.765625 51.140625 36.421875 
Q 49.75 38.09375 47.140625 39.28125 
Q 44.53125 40.484375 40.140625 40.71875 
z
M 32.171875 40.71875 
Q 27.734375 40.4375 24.515625 39.0625 
Q 21.296875 37.703125 19.046875 35.671875 
Q 16.796875 33.640625 15.40625 31.140625 
Q 14.015625 28.65625 13.234375 26.1875 
Q 12.453125 23.734375 12.1875 21.390625 
Q 11.921875 19.046875 11.921875 17.390625 
Q 11.921875 15.578125 12.359375 13.59375 
Q 12.796875 11.625 14.1875 9.953125 
Q 15.578125 8.296875 18.1875 7.09375 
Q 20.796875 5.90625 25.203125 5.671875 
z
" id="Calibri-Italic-3d5"/>
     </defs>
     <g transform="translate(211.987 413.753437)scale(0.19 -0.19)">
      <use transform="translate(0 0.984375)" xlink:href="#Calibri-49"/>
      <use transform="translate(25.195312 0.984375)" xlink:href="#Calibri-63"/>
      <use transform="translate(67.480469 0.984375)" xlink:href="#Calibri-65"/>
      <use transform="translate(117.236328 0.984375)" xlink:href="#Calibri-20"/>
      <use transform="translate(139.84375 0.984375)" xlink:href="#Calibri-65"/>
      <use transform="translate(189.599609 0.984375)" xlink:href="#Calibri-64"/>
      <use transform="translate(242.138672 0.984375)" xlink:href="#Calibri-67"/>
      <use transform="translate(289.208984 0.984375)" xlink:href="#Calibri-65"/>
      <use transform="translate(338.964844 0.984375)" xlink:href="#Calibri-20"/>
      <use transform="translate(361.572266 0.984375)" xlink:href="#Calibri-70"/>
      <use transform="translate(414.111328 0.984375)" xlink:href="#Calibri-6f"/>
      <use transform="translate(466.845703 0.984375)" xlink:href="#Calibri-73"/>
      <use transform="translate(505.957031 0.984375)" xlink:href="#Calibri-69"/>
      <use transform="translate(528.90625 0.984375)" xlink:href="#Calibri-74"/>
      <use transform="translate(562.402344 0.984375)" xlink:href="#Calibri-69"/>
      <use transform="translate(585.351562 0.984375)" xlink:href="#Calibri-6f"/>
      <use transform="translate(638.085938 0.984375)" xlink:href="#Calibri-6e"/>
      <use transform="translate(690.625 0.984375)" xlink:href="#Calibri-2c"/>
      <use transform="translate(715.576172 0.984375)" xlink:href="#Calibri-20"/>
      <use transform="translate(738.183594 0.984375)" xlink:href="#Calibri-Italic-78"/>
      <use transform="translate(781.494141 -13.021875)scale(0.7)" xlink:href="#Calibri-69"/>
      <use transform="translate(815.713281 0.984375)" xlink:href="#Calibri-3d"/>
      <use transform="translate(881.338281 0.984375)" xlink:href="#Calibri-73"/>
      <use transform="translate(920.449609 0.984375)" xlink:href="#Calibri-69"/>
      <use transform="translate(943.398828 0.984375)" xlink:href="#Calibri-6e"/>
      <use transform="translate(995.937891 0.984375)" xlink:href="#Calibri-Italic-3d5"/>
      <use transform="translate(1061.074609 -13.021875)scale(0.7)" xlink:href="#Calibri-69"/>
     </g>
    </g>
   </g>
   <g id="matplotlib.axis_2">
    <g id="ytick_1">
     <g id="line2d_28">
      <path clip-path="url(#p94f844b507)" d="M 75.404 332.922208 
L 553.77 332.922208 
" style="fill:none;stroke:#bfbfbf;stroke-linecap:square;stroke-width:0.8;"/>
     </g>
     <g id="line2d_29">
      <defs>
       <path d="M 0 0 
L -3.5 0 
" id="m0b717b7e88" style="stroke:#000000;stroke-width:0.8;"/>
      </defs>
      <g>
       <use style="stroke:#000000;stroke-width:0.8;" x="75.404" xlink:href="#m0b717b7e88" y="332.922208"/>
      </g>
     </g>
     <g id="text_8">
      <!-- −60 -->
      <defs>
       <path d="M 45.84375 28.078125 
Q 45.84375 26.265625 45.375 25.4375 
Q 44.921875 24.609375 44.046875 24.609375 
L 5.5625 24.609375 
Q 4.640625 24.609375 4.171875 25.4375 
Q 3.71875 26.265625 3.71875 28.078125 
Q 3.71875 29.828125 4.171875 30.6875 
Q 4.640625 31.546875 5.5625 31.546875 
L 44.046875 31.546875 
Q 44.921875 31.546875 45.375 30.71875 
Q 45.84375 29.890625 45.84375 28.078125 
z
" id="Calibri-2212"/>
      </defs>
      <g transform="translate(36.69025 339.043615)scale(0.18 -0.18)">
       <use xlink:href="#Calibri-2212"/>
       <use x="49.804688" xlink:href="#Calibri-36"/>
       <use x="100.488281" xlink:href="#Calibri-30"/>
      </g>
     </g>
    </g>
    <g id="ytick_2">
     <g id="line2d_30">
      <path clip-path="url(#p94f844b507)" d="M 75.404 291.20946 
L 553.77 291.20946 
" style="fill:none;stroke:#bfbfbf;stroke-linecap:square;stroke-width:0.8;"/>
     </g>
     <g id="line2d_31">
      <g>
       <use style="stroke:#000000;stroke-width:0.8;" x="75.404" xlink:href="#m0b717b7e88" y="291.20946"/>
      </g>
     </g>
     <g id="text_9">
      <!-- −40 -->
      <g transform="translate(36.69025 297.330866)scale(0.18 -0.18)">
       <use xlink:href="#Calibri-2212"/>
       <use x="49.804688" xlink:href="#Calibri-34"/>
       <use x="100.488281" xlink:href="#Calibri-30"/>
      </g>
     </g>
    </g>
    <g id="ytick_3">
     <g id="line2d_32">
      <path clip-path="url(#p94f844b507)" d="M 75.404 249.496711 
L 553.77 249.496711 
" style="fill:none;stroke:#bfbfbf;stroke-linecap:square;stroke-width:0.8;"/>
     </g>
     <g id="line2d_33">
      <g>
       <use style="stroke:#000000;stroke-width:0.8;" x="75.404" xlink:href="#m0b717b7e88" y="249.496711"/>
      </g>
     </g>
     <g id="text_10">
      <!-- −20 -->
      <g transform="translate(36.69025 255.618117)scale(0.18 -0.18)">
       <use xlink:href="#Calibri-2212"/>
       <use x="49.804688" xlink:href="#Calibri-32"/>
       <use x="100.488281" xlink:href="#Calibri-30"/>
      </g>
     </g>
    </g>
    <g id="ytick_4">
     <g id="line2d_34">
      <path clip-path="url(#p94f844b507)" d="M 75.404 207.783963 
L 553.77 207.783963 
" style="fill:none;stroke:#bfbfbf;stroke-linecap:square;stroke-width:0.8;"/>
     </g>
     <g id="line2d_35">
      <g>
       <use style="stroke:#000000;stroke-width:0.8;" x="75.404" xlink:href="#m0b717b7e88" y="207.783963"/>
      </g>
     </g>
     <g id="text_11">
      <!-- 0 -->
      <g transform="translate(54.78025 213.905369)scale(0.18 -0.18)">
       <use xlink:href="#Calibri-30"/>
      </g>
     </g>
    </g>
    <g id="ytick_5">
     <g id="line2d_36">
      <path clip-path="url(#p94f844b507)" d="M 75.404 166.071214 
L 553.77 166.071214 
" style="fill:none;stroke:#bfbfbf;stroke-linecap:square;stroke-width:0.8;"/>
     </g>
     <g id="line2d_37">
      <g>
       <use style="stroke:#000000;stroke-width:0.8;" x="75.404" xlink:href="#m0b717b7e88" y="166.071214"/>
      </g>
     </g>
     <g id="text_12">
      <!-- 20 -->
      <g transform="translate(45.6565 172.19262)scale(0.18 -0.18)">
       <use xlink:href="#Calibri-32"/>
       <use x="50.683594" xlink:href="#Calibri-30"/>
      </g>
     </g>
    </g>
    <g id="ytick_6">
     <g id="line2d_38">
      <path clip-path="url(#p94f844b507)" d="M 75.404 124.358465 
L 553.77 124.358465 
" style="fill:none;stroke:#bfbfbf;stroke-linecap:square;stroke-width:0.8;"/>
     </g>
     <g id="line2d_39">
      <g>
       <use style="stroke:#000000;stroke-width:0.8;" x="75.404" xlink:href="#m0b717b7e88" y="124.358465"/>
      </g>
     </g>
     <g id="text_13">
      <!-- 40 -->
      <g transform="translate(45.6565 130.479872)scale(0.18 -0.18)">
       <use xlink:href="#Calibri-34"/>
       <use x="50.683594" xlink:href="#Calibri-30"/>
      </g>
     </g>
    </g>
    <g id="ytick_7">
     <g id="line2d_40">
      <path clip-path="url(#p94f844b507)" d="M 75.404 82.645717 
L 553.77 82.645717 
" style="fill:none;stroke:#bfbfbf;stroke-linecap:square;stroke-width:0.8;"/>
     </g>
     <g id="line2d_41">
      <g>
       <use style="stroke:#000000;stroke-width:0.8;" x="75.404" xlink:href="#m0b717b7e88" y="82.645717"/>
      </g>
     </g>
     <g id="text_14">
      <!-- 60 -->
      <g transform="translate(45.6565 88.767123)scale(0.18 -0.18)">
       <use xlink:href="#Calibri-36"/>
       <use x="50.683594" xlink:href="#Calibri-30"/>
      </g>
     </g>
    </g>
    <g id="ytick_8">
     <g id="line2d_42">
      <path clip-path="url(#p94f844b507)" d="M 75.404 40.932968 
L 553.77 40.932968 
" style="fill:none;stroke:#bfbfbf;stroke-linecap:square;stroke-width:0.8;"/>
     </g>
     <g id="line2d_43">
      <g>
       <use style="stroke:#000000;stroke-width:0.8;" x="75.404" xlink:href="#m0b717b7e88" y="40.932968"/>
      </g>
     </g>
     <g id="text_15">
      <!-- 80 -->
      <g transform="translate(45.6565 47.054374)scale(0.18 -0.18)">
       <use xlink:href="#Calibri-38"/>
       <use x="50.683594" xlink:href="#Calibri-30"/>
      </g>
     </g>
    </g>
    <g id="ytick_9">
     <g id="line2d_44">
      <defs>
       <path d="M 0 0 
L -2 0 
" id="mff9c671922" style="stroke:#000000;stroke-width:0.6;"/>
      </defs>
      <g>
       <use style="stroke:#000000;stroke-width:0.6;" x="75.404" xlink:href="#mff9c671922" y="364.20677"/>
      </g>
     </g>
    </g>
    <g id="ytick_10">
     <g id="line2d_45">
      <g>
       <use style="stroke:#000000;stroke-width:0.6;" x="75.404" xlink:href="#mff9c671922" y="353.778583"/>
      </g>
     </g>
    </g>
    <g id="ytick_11">
     <g id="line2d_46">
      <g>
       <use style="stroke:#000000;stroke-width:0.6;" x="75.404" xlink:href="#mff9c671922" y="343.350396"/>
      </g>
     </g>
    </g>
    <g id="ytick_12">
     <g id="line2d_47">
      <g>
       <use style="stroke:#000000;stroke-width:0.6;" x="75.404" xlink:href="#mff9c671922" y="322.494021"/>
      </g>
     </g>
    </g>
    <g id="ytick_13">
     <g id="line2d_48">
      <g>
       <use style="stroke:#000000;stroke-width:0.6;" x="75.404" xlink:href="#mff9c671922" y="312.065834"/>
      </g>
     </g>
    </g>
    <g id="ytick_14">
     <g id="line2d_49">
      <g>
       <use style="stroke:#000000;stroke-width:0.6;" x="75.404" xlink:href="#mff9c671922" y="301.637647"/>
      </g>
     </g>
    </g>
    <g id="ytick_15">
     <g id="line2d_50">
      <g>
       <use style="stroke:#000000;stroke-width:0.6;" x="75.404" xlink:href="#mff9c671922" y="280.781273"/>
      </g>
     </g>
    </g>
    <g id="ytick_16">
     <g id="line2d_51">
      <g>
       <use style="stroke:#000000;stroke-width:0.6;" x="75.404" xlink:href="#mff9c671922" y="270.353086"/>
      </g>
     </g>
    </g>
    <g id="ytick_17">
     <g id="line2d_52">
      <g>
       <use style="stroke:#000000;stroke-width:0.6;" x="75.404" xlink:href="#mff9c671922" y="259.924898"/>
      </g>
     </g>
    </g>
    <g id="ytick_18">
     <g id="line2d_53">
      <g>
       <use style="stroke:#000000;stroke-width:0.6;" x="75.404" xlink:href="#mff9c671922" y="239.068524"/>
      </g>
     </g>
    </g>
    <g id="ytick_19">
     <g id="line2d_54">
      <g>
       <use style="stroke:#000000;stroke-width:0.6;" x="75.404" xlink:href="#mff9c671922" y="228.640337"/>
      </g>
     </g>
    </g>
    <g id="ytick_20">
     <g id="line2d_55">
      <g>
       <use style="stroke:#000000;stroke-width:0.6;" x="75.404" xlink:href="#mff9c671922" y="218.21215"/>
      </g>
     </g>
    </g>
    <g id="ytick_21">
     <g id="line2d_56">
      <g>
       <use style="stroke:#000000;stroke-width:0.6;" x="75.404" xlink:href="#mff9c671922" y="197.355775"/>
      </g>
     </g>
    </g>
    <g id="ytick_22">
     <g id="line2d_57">
      <g>
       <use style="stroke:#000000;stroke-width:0.6;" x="75.404" xlink:href="#mff9c671922" y="186.927588"/>
      </g>
     </g>
    </g>
    <g id="ytick_23">
     <g id="line2d_58">
      <g>
       <use style="stroke:#000000;stroke-width:0.6;" x="75.404" xlink:href="#mff9c671922" y="176.499401"/>
      </g>
     </g>
    </g>
    <g id="ytick_24">
     <g id="line2d_59">
      <g>
       <use style="stroke:#000000;stroke-width:0.6;" x="75.404" xlink:href="#mff9c671922" y="155.643027"/>
      </g>
     </g>
    </g>
    <g id="ytick_25">
     <g id="line2d_60">
      <g>
       <use style="stroke:#000000;stroke-width:0.6;" x="75.404" xlink:href="#mff9c671922" y="145.21484"/>
      </g>
     </g>
    </g>
    <g id="ytick_26">
     <g id="line2d_61">
      <g>
       <use style="stroke:#000000;stroke-width:0.6;" x="75.404" xlink:href="#mff9c671922" y="134.786652"/>
      </g>
     </g>
    </g>
    <g id="ytick_27">
     <g id="line2d_62">
      <g>
       <use style="stroke:#000000;stroke-width:0.6;" x="75.404" xlink:href="#mff9c671922" y="113.930278"/>
      </g>
     </g>
    </g>
    <g id="ytick_28">
     <g id="line2d_63">
      <g>
       <use style="stroke:#000000;stroke-width:0.6;" x="75.404" xlink:href="#mff9c671922" y="103.502091"/>
      </g>
     </g>
    </g>
    <g id="ytick_29">
     <g id="line2d_64">
      <g>
       <use style="stroke:#000000;stroke-width:0.6;" x="75.404" xlink:href="#mff9c671922" y="93.073904"/>
      </g>
     </g>
    </g>
    <g id="ytick_30">
     <g id="line2d_65">
      <g>
       <use style="stroke:#000000;stroke-width:0.6;" x="75.404" xlink:href="#mff9c671922" y="72.217529"/>
      </g>
     </g>
    </g>
    <g id="ytick_31">
     <g id="line2d_66">
      <g>
       <use style="stroke:#000000;stroke-width:0.6;" x="75.404" xlink:href="#mff9c671922" y="61.789342"/>
      </g>
     </g>
    </g>
    <g id="ytick_32">
     <g id="line2d_67">
      <g>
       <use style="stroke:#000000;stroke-width:0.6;" x="75.404" xlink:href="#mff9c671922" y="51.361155"/>
      </g>
     </g>
    </g>
    <g id="ytick_33">
     <g id="line2d_68">
      <g>
       <use style="stroke:#000000;stroke-width:0.6;" x="75.404" xlink:href="#mff9c671922" y="30.504781"/>
      </g>
     </g>
    </g>
    <g id="ytick_34">
     <g id="line2d_69">
      <g>
       <use style="stroke:#000000;stroke-width:0.6;" x="75.404" xlink:href="#mff9c671922" y="20.076594"/>
      </g>
     </g>
    </g>
    <g id="text_16">
     <!-- Heat flux convergence (W m$^{-2}$) -->
     <defs>
      <path d="M 53.90625 1.265625 
Q 53.90625 0.875 53.703125 0.578125 
Q 53.515625 0.296875 53.03125 0.125 
Q 52.546875 -0.046875 51.734375 -0.171875 
Q 50.921875 -0.296875 49.75 -0.296875 
Q 48.484375 -0.296875 47.703125 -0.171875 
Q 46.921875 -0.046875 46.4375 0.125 
Q 45.953125 0.296875 45.75 0.578125 
Q 45.5625 0.875 45.5625 1.265625 
L 45.5625 29.296875 
L 16.796875 29.296875 
L 16.796875 1.265625 
Q 16.796875 0.875 16.59375 0.578125 
Q 16.40625 0.296875 15.921875 0.125 
Q 15.4375 -0.046875 14.625 -0.171875 
Q 13.8125 -0.296875 12.59375 -0.296875 
Q 11.421875 -0.296875 10.59375 -0.171875 
Q 9.765625 -0.046875 9.28125 0.125 
Q 8.796875 0.296875 8.59375 0.578125 
Q 8.40625 0.875 8.40625 1.265625 
L 8.40625 61.921875 
Q 8.40625 62.3125 8.59375 62.59375 
Q 8.796875 62.890625 9.28125 63.0625 
Q 9.765625 63.234375 10.59375 63.359375 
Q 11.421875 63.484375 12.59375 63.484375 
Q 13.8125 63.484375 14.625 63.359375 
Q 15.4375 63.234375 15.921875 63.0625 
Q 16.40625 62.890625 16.59375 62.59375 
Q 16.796875 62.3125 16.796875 61.921875 
L 16.796875 36.625 
L 45.5625 36.625 
L 45.5625 61.921875 
Q 45.5625 62.3125 45.75 62.59375 
Q 45.953125 62.890625 46.4375 63.0625 
Q 46.921875 63.234375 47.703125 63.359375 
Q 48.484375 63.484375 49.75 63.484375 
Q 50.921875 63.484375 51.734375 63.359375 
Q 52.546875 63.234375 53.03125 63.0625 
Q 53.515625 62.890625 53.703125 62.59375 
Q 53.90625 62.3125 53.90625 61.921875 
z
" id="Calibri-48"/>
      <path d="M 40.578125 1.171875 
Q 40.578125 0.59375 40.1875 0.296875 
Q 39.796875 0 39.109375 -0.140625 
Q 38.421875 -0.296875 37.109375 -0.296875 
Q 35.84375 -0.296875 35.078125 -0.140625 
Q 34.328125 0 33.984375 0.296875 
Q 33.640625 0.59375 33.640625 1.171875 
L 33.640625 5.5625 
Q 30.765625 2.484375 27.21875 0.78125 
Q 23.6875 -0.921875 19.734375 -0.921875 
Q 16.265625 -0.921875 13.453125 -0.015625 
Q 10.640625 0.875 8.65625 2.578125 
Q 6.6875 4.296875 5.59375 6.78125 
Q 4.5 9.28125 4.5 12.453125 
Q 4.5 16.15625 6 18.890625 
Q 7.515625 21.625 10.34375 23.4375 
Q 13.1875 25.25 17.28125 26.140625 
Q 21.390625 27.046875 26.515625 27.046875 
L 32.5625 27.046875 
L 32.5625 30.46875 
Q 32.5625 33.015625 32.03125 34.96875 
Q 31.5 36.921875 30.296875 38.203125 
Q 29.109375 39.5 27.203125 40.15625 
Q 25.296875 40.828125 22.515625 40.828125 
Q 19.53125 40.828125 17.15625 40.109375 
Q 14.796875 39.40625 13.015625 38.546875 
Q 11.234375 37.703125 10.03125 36.984375 
Q 8.84375 36.28125 8.25 36.28125 
Q 7.859375 36.28125 7.5625 36.46875 
Q 7.28125 36.671875 7.0625 37.0625 
Q 6.84375 37.453125 6.734375 38.0625 
Q 6.640625 38.671875 6.640625 39.40625 
Q 6.640625 40.625 6.8125 41.328125 
Q 6.984375 42.046875 7.640625 42.671875 
Q 8.296875 43.3125 9.90625 44.15625 
Q 11.53125 45.015625 13.625 45.71875 
Q 15.71875 46.4375 18.203125 46.890625 
Q 20.703125 47.359375 23.25 47.359375 
Q 27.984375 47.359375 31.296875 46.28125 
Q 34.625 45.21875 36.671875 43.140625 
Q 38.71875 41.0625 39.640625 37.984375 
Q 40.578125 34.90625 40.578125 30.8125 
z
M 32.5625 21.234375 
L 25.6875 21.234375 
Q 22.359375 21.234375 19.921875 20.671875 
Q 17.484375 20.125 15.875 19.015625 
Q 14.265625 17.921875 13.5 16.375 
Q 12.75 14.84375 12.75 12.84375 
Q 12.75 9.421875 14.921875 7.390625 
Q 17.09375 5.375 21 5.375 
Q 24.171875 5.375 26.875 6.984375 
Q 29.59375 8.59375 32.5625 11.921875 
z
" id="Calibri-61"/>
      <path d="M 31.546875 63.234375 
Q 31.546875 62.3125 31.4375 61.75 
Q 31.34375 61.1875 31.21875 60.84375 
Q 31.109375 60.5 30.90625 60.375 
Q 30.71875 60.25 30.421875 60.25 
Q 30.078125 60.25 29.5625 60.46875 
Q 29.046875 60.6875 28.3125 60.953125 
Q 27.59375 61.234375 26.59375 61.453125 
Q 25.59375 61.671875 24.265625 61.671875 
Q 22.46875 61.671875 21.1875 61.078125 
Q 19.921875 60.5 19.140625 59.25 
Q 18.359375 58.015625 18.015625 56.03125 
Q 17.671875 54.046875 17.671875 51.21875 
L 17.671875 46.4375 
L 27.484375 46.4375 
Q 27.875 46.4375 28.140625 46.265625 
Q 28.421875 46.09375 28.640625 45.671875 
Q 28.859375 45.265625 28.984375 44.625 
Q 29.109375 44 29.109375 43.0625 
Q 29.109375 41.3125 28.65625 40.53125 
Q 28.21875 39.75 27.484375 39.75 
L 17.671875 39.75 
L 17.671875 1.21875 
Q 17.671875 0.828125 17.46875 0.5625 
Q 17.28125 0.296875 16.8125 0.09375 
Q 16.359375 -0.09375 15.578125 -0.1875 
Q 14.796875 -0.296875 13.625 -0.296875 
Q 12.453125 -0.296875 11.671875 -0.1875 
Q 10.890625 -0.09375 10.421875 0.09375 
Q 9.96875 0.296875 9.765625 0.5625 
Q 9.578125 0.828125 9.578125 1.21875 
L 9.578125 39.75 
L 3.375 39.75 
Q 2.59375 39.75 2.203125 40.53125 
Q 1.8125 41.3125 1.8125 43.0625 
Q 1.8125 44 1.90625 44.625 
Q 2 45.265625 2.1875 45.671875 
Q 2.390625 46.09375 2.6875 46.265625 
Q 2.984375 46.4375 3.375 46.4375 
L 9.578125 46.4375 
L 9.578125 50.984375 
Q 9.578125 55.5625 10.421875 58.859375 
Q 11.28125 62.15625 13.03125 64.25 
Q 14.796875 66.359375 17.453125 67.359375 
Q 20.125 68.359375 23.734375 68.359375 
Q 25.4375 68.359375 27.046875 68.03125 
Q 28.65625 67.71875 29.53125 67.359375 
Q 30.421875 67 30.703125 66.703125 
Q 31 66.40625 31.1875 65.9375 
Q 31.390625 65.484375 31.46875 64.8125 
Q 31.546875 64.15625 31.546875 63.234375 
z
" id="Calibri-66"/>
      <path d="M 15.53125 1.21875 
Q 15.53125 0.828125 15.328125 0.5625 
Q 15.140625 0.296875 14.703125 0.09375 
Q 14.265625 -0.09375 13.484375 -0.1875 
Q 12.703125 -0.296875 11.46875 -0.296875 
Q 10.296875 -0.296875 9.515625 -0.1875 
Q 8.734375 -0.09375 8.265625 0.09375 
Q 7.8125 0.296875 7.640625 0.5625 
Q 7.46875 0.828125 7.46875 1.21875 
L 7.46875 66.453125 
Q 7.46875 66.84375 7.640625 67.140625 
Q 7.8125 67.4375 8.265625 67.625 
Q 8.734375 67.828125 9.515625 67.921875 
Q 10.296875 68.015625 11.46875 68.015625 
Q 12.703125 68.015625 13.484375 67.921875 
Q 14.265625 67.828125 14.703125 67.625 
Q 15.140625 67.4375 15.328125 67.140625 
Q 15.53125 66.84375 15.53125 66.453125 
z
" id="Calibri-6c"/>
      <path d="M 45.125 1.21875 
Q 45.125 0.828125 44.953125 0.5625 
Q 44.78125 0.296875 44.328125 0.09375 
Q 43.890625 -0.09375 43.1875 -0.1875 
Q 42.484375 -0.296875 41.453125 -0.296875 
Q 40.328125 -0.296875 39.625 -0.1875 
Q 38.921875 -0.09375 38.5 0.09375 
Q 38.09375 0.296875 37.9375 0.5625 
Q 37.796875 0.828125 37.796875 1.21875 
L 37.796875 7.03125 
Q 34.03125 2.875 30.359375 0.96875 
Q 26.703125 -0.921875 22.953125 -0.921875 
Q 18.5625 -0.921875 15.546875 0.53125 
Q 12.546875 2 10.6875 4.515625 
Q 8.84375 7.03125 8.03125 10.375 
Q 7.234375 13.71875 7.234375 18.5 
L 7.234375 45.171875 
Q 7.234375 45.5625 7.390625 45.828125 
Q 7.5625 46.09375 8.046875 46.3125 
Q 8.546875 46.53125 9.328125 46.609375 
Q 10.109375 46.6875 11.28125 46.6875 
Q 12.453125 46.6875 13.234375 46.609375 
Q 14.015625 46.53125 14.46875 46.3125 
Q 14.9375 46.09375 15.125 45.828125 
Q 15.328125 45.5625 15.328125 45.171875 
L 15.328125 19.578125 
Q 15.328125 15.71875 15.890625 13.390625 
Q 16.453125 11.078125 17.59375 9.4375 
Q 18.75 7.8125 20.5 6.90625 
Q 22.265625 6 24.609375 6 
Q 27.640625 6 30.640625 8.140625 
Q 33.640625 10.296875 37.015625 14.453125 
L 37.015625 45.171875 
Q 37.015625 45.5625 37.1875 45.828125 
Q 37.359375 46.09375 37.84375 46.3125 
Q 38.328125 46.53125 39.078125 46.609375 
Q 39.84375 46.6875 41.0625 46.6875 
Q 42.234375 46.6875 43.015625 46.609375 
Q 43.796875 46.53125 44.234375 46.3125 
Q 44.671875 46.09375 44.890625 45.828125 
Q 45.125 45.5625 45.125 45.171875 
z
" id="Calibri-75"/>
      <path d="M 40.765625 2.15625 
Q 41.15625 1.46875 41.15625 1 
Q 41.15625 0.53125 40.6875 0.234375 
Q 40.234375 -0.046875 39.28125 -0.171875 
Q 38.328125 -0.296875 36.8125 -0.296875 
Q 35.359375 -0.296875 34.5 -0.21875 
Q 33.640625 -0.140625 33.125 0.03125 
Q 32.625 0.203125 32.34375 0.46875 
Q 32.078125 0.734375 31.890625 1.078125 
L 21.34375 18.5 
L 10.84375 1.078125 
Q 10.640625 0.734375 10.375 0.46875 
Q 10.109375 0.203125 9.59375 0.03125 
Q 9.078125 -0.140625 8.25 -0.21875 
Q 7.421875 -0.296875 6.0625 -0.296875 
Q 4.640625 -0.296875 3.734375 -0.171875 
Q 2.828125 -0.046875 2.40625 0.234375 
Q 2 0.53125 2.015625 1 
Q 2.046875 1.46875 2.484375 2.15625 
L 16.15625 23.578125 
L 3.21875 44.234375 
Q 2.828125 44.921875 2.796875 45.375 
Q 2.78125 45.84375 3.25 46.15625 
Q 3.71875 46.484375 4.65625 46.578125 
Q 5.609375 46.6875 7.171875 46.6875 
Q 8.59375 46.6875 9.4375 46.609375 
Q 10.296875 46.53125 10.78125 46.375 
Q 11.28125 46.234375 11.515625 45.984375 
Q 11.765625 45.75 11.96875 45.40625 
L 21.96875 29.046875 
L 32.125 45.40625 
Q 32.328125 45.703125 32.5625 45.9375 
Q 32.8125 46.1875 33.21875 46.359375 
Q 33.640625 46.53125 34.390625 46.609375 
Q 35.15625 46.6875 36.46875 46.6875 
Q 37.890625 46.6875 38.796875 46.578125 
Q 39.703125 46.484375 40.140625 46.21875 
Q 40.578125 45.953125 40.53125 45.453125 
Q 40.484375 44.96875 40.046875 44.234375 
L 27.203125 23.828125 
z
" id="Calibri-78"/>
      <path d="M 43.5 45.265625 
Q 43.5 45.0625 43.46875 44.84375 
Q 43.453125 44.625 43.40625 44.375 
Q 43.359375 44.140625 43.28125 43.84375 
Q 43.21875 43.5625 43.109375 43.21875 
L 28.125 1.46875 
Q 27.9375 0.921875 27.609375 0.578125 
Q 27.296875 0.25 26.65625 0.046875 
Q 26.03125 -0.140625 25.046875 -0.21875 
Q 24.078125 -0.296875 22.609375 -0.296875 
Q 21.140625 -0.296875 20.15625 -0.1875 
Q 19.1875 -0.09375 18.578125 0.09375 
Q 17.96875 0.296875 17.625 0.640625 
Q 17.28125 0.984375 17.09375 1.46875 
L 2.15625 43.21875 
Q 1.953125 43.796875 1.828125 44.234375 
Q 1.703125 44.671875 1.671875 44.890625 
Q 1.65625 45.125 1.65625 45.265625 
Q 1.65625 45.65625 1.84375 45.9375 
Q 2.046875 46.234375 2.515625 46.40625 
Q 2.984375 46.578125 3.734375 46.625 
Q 4.5 46.6875 5.609375 46.6875 
Q 7.03125 46.6875 7.875 46.609375 
Q 8.734375 46.53125 9.203125 46.328125 
Q 9.671875 46.140625 9.890625 45.84375 
Q 10.109375 45.5625 10.296875 45.125 
L 22.703125 8.890625 
L 22.90625 8.296875 
L 23.046875 8.890625 
L 35.296875 45.125 
Q 35.40625 45.5625 35.640625 45.84375 
Q 35.890625 46.140625 36.34375 46.328125 
Q 36.8125 46.53125 37.609375 46.609375 
Q 38.421875 46.6875 39.75 46.6875 
Q 40.875 46.6875 41.59375 46.625 
Q 42.328125 46.578125 42.75 46.375 
Q 43.171875 46.1875 43.328125 45.921875 
Q 43.5 45.65625 43.5 45.265625 
z
" id="Calibri-76"/>
      <path d="M 33.15625 42.28125 
Q 33.15625 41.21875 33.109375 40.484375 
Q 33.0625 39.75 32.90625 39.328125 
Q 32.765625 38.921875 32.546875 38.703125 
Q 32.328125 38.484375 31.9375 38.484375 
Q 31.546875 38.484375 30.984375 38.703125 
Q 30.421875 38.921875 29.703125 39.140625 
Q 29 39.359375 28.125 39.546875 
Q 27.25 39.75 26.21875 39.75 
Q 25 39.75 23.828125 39.25 
Q 22.65625 38.765625 21.359375 37.640625 
Q 20.0625 36.53125 18.640625 34.671875 
Q 17.234375 32.8125 15.53125 30.125 
L 15.53125 1.21875 
Q 15.53125 0.828125 15.328125 0.5625 
Q 15.140625 0.296875 14.703125 0.09375 
Q 14.265625 -0.09375 13.484375 -0.1875 
Q 12.703125 -0.296875 11.46875 -0.296875 
Q 10.296875 -0.296875 9.515625 -0.1875 
Q 8.734375 -0.09375 8.265625 0.09375 
Q 7.8125 0.296875 7.640625 0.5625 
Q 7.46875 0.828125 7.46875 1.21875 
L 7.46875 45.171875 
Q 7.46875 45.5625 7.609375 45.828125 
Q 7.765625 46.09375 8.203125 46.3125 
Q 8.640625 46.53125 9.328125 46.609375 
Q 10.015625 46.6875 11.140625 46.6875 
Q 12.203125 46.6875 12.90625 46.609375 
Q 13.625 46.53125 14.015625 46.3125 
Q 14.40625 46.09375 14.578125 45.828125 
Q 14.75 45.5625 14.75 45.171875 
L 14.75 38.765625 
Q 16.546875 41.40625 18.140625 43.0625 
Q 19.734375 44.734375 21.140625 45.671875 
Q 22.5625 46.625 23.953125 46.984375 
Q 25.34375 47.359375 26.765625 47.359375 
Q 27.390625 47.359375 28.1875 47.28125 
Q 29 47.21875 29.875 47.015625 
Q 30.765625 46.828125 31.46875 46.578125 
Q 32.171875 46.34375 32.46875 46.09375 
Q 32.765625 45.84375 32.859375 45.625 
Q 32.953125 45.40625 33.03125 45.0625 
Q 33.109375 44.734375 33.125 44.0625 
Q 33.15625 43.40625 33.15625 42.28125 
z
" id="Calibri-72"/>
      <path d="M 24.171875 67.28125 
Q 19.53125 57.46875 17.25 47.140625 
Q 14.984375 36.8125 14.984375 26.375 
Q 14.984375 15.875 17.296875 5.5625 
Q 19.625 -4.734375 24.078125 -14.65625 
Q 24.3125 -15.234375 24.328125 -15.640625 
Q 24.359375 -16.0625 24.015625 -16.328125 
Q 23.6875 -16.609375 22.96875 -16.71875 
Q 22.265625 -16.84375 21.046875 -16.84375 
Q 20.171875 -16.84375 19.53125 -16.796875 
Q 18.890625 -16.75 18.421875 -16.59375 
Q 17.96875 -16.453125 17.671875 -16.25 
Q 17.390625 -16.0625 17.234375 -15.828125 
Q 14.59375 -10.84375 12.59375 -5.734375 
Q 10.59375 -0.640625 9.21875 4.625 
Q 7.859375 9.90625 7.171875 15.296875 
Q 6.5 20.703125 6.5 26.21875 
Q 6.5 31.734375 7.25 37.109375 
Q 8.015625 42.484375 9.40625 47.78125 
Q 10.796875 53.078125 12.796875 58.203125 
Q 14.796875 63.328125 17.28125 68.359375 
Q 17.328125 68.5625 17.546875 68.703125 
Q 17.78125 68.84375 18.171875 68.984375 
Q 18.5625 69.140625 19.234375 69.203125 
Q 19.921875 69.28125 21 69.28125 
Q 22.125 69.28125 22.796875 69.140625 
Q 23.484375 69 23.875 68.75 
Q 24.265625 68.5 24.3125 68.109375 
Q 24.359375 67.71875 24.171875 67.28125 
z
" id="Calibri-28"/>
      <path d="M 68.890625 1.859375 
Q 68.703125 1.171875 68.3125 0.75 
Q 67.921875 0.34375 67.234375 0.125 
Q 66.546875 -0.09375 65.546875 -0.1875 
Q 64.546875 -0.296875 63.09375 -0.296875 
Q 61.578125 -0.296875 60.515625 -0.1875 
Q 59.46875 -0.09375 58.78125 0.125 
Q 58.109375 0.34375 57.765625 0.75 
Q 57.421875 1.171875 57.234375 1.859375 
L 44 49.5625 
L 43.890625 49.5625 
L 31.6875 1.859375 
Q 31.546875 1.171875 31.203125 0.75 
Q 30.859375 0.34375 30.21875 0.125 
Q 29.59375 -0.09375 28.59375 -0.1875 
Q 27.59375 -0.296875 26.03125 -0.296875 
Q 24.421875 -0.296875 23.34375 -0.1875 
Q 22.265625 -0.09375 21.578125 0.125 
Q 20.90625 0.34375 20.53125 0.75 
Q 20.171875 1.171875 20.015625 1.859375 
L 3.328125 60.203125 
Q 3.03125 61.328125 3 61.953125 
Q 2.984375 62.59375 3.390625 62.9375 
Q 3.8125 63.28125 4.734375 63.375 
Q 5.671875 63.484375 7.234375 63.484375 
Q 8.734375 63.484375 9.609375 63.40625 
Q 10.5 63.328125 10.953125 63.125 
Q 11.421875 62.9375 11.59375 62.59375 
Q 11.765625 62.25 11.859375 61.71875 
L 26.078125 8.796875 
L 26.125 8.796875 
L 39.59375 61.625 
Q 39.75 62.15625 39.96875 62.515625 
Q 40.1875 62.890625 40.671875 63.078125 
Q 41.15625 63.28125 42.0625 63.375 
Q 42.96875 63.484375 44.4375 63.484375 
Q 45.796875 63.484375 46.59375 63.375 
Q 47.40625 63.28125 47.890625 63.078125 
Q 48.390625 62.890625 48.609375 62.515625 
Q 48.828125 62.15625 48.96875 61.625 
L 63.484375 8.796875 
L 63.578125 8.796875 
L 77.484375 61.671875 
Q 77.640625 62.15625 77.78125 62.515625 
Q 77.9375 62.890625 78.390625 63.078125 
Q 78.859375 63.28125 79.703125 63.375 
Q 80.5625 63.484375 81.984375 63.484375 
Q 83.453125 63.484375 84.296875 63.359375 
Q 85.15625 63.234375 85.546875 62.890625 
Q 85.9375 62.546875 85.90625 61.90625 
Q 85.890625 61.28125 85.640625 60.15625 
z
" id="Calibri-57"/>
      <path d="M 72.65625 1.21875 
Q 72.65625 0.828125 72.453125 0.5625 
Q 72.265625 0.296875 71.828125 0.09375 
Q 71.390625 -0.09375 70.609375 -0.1875 
Q 69.828125 -0.296875 68.65625 -0.296875 
Q 67.4375 -0.296875 66.65625 -0.1875 
Q 65.875 -0.09375 65.40625 0.09375 
Q 64.9375 0.296875 64.734375 0.5625 
Q 64.546875 0.828125 64.546875 1.21875 
L 64.546875 27.9375 
Q 64.546875 30.71875 64.0625 33 
Q 63.578125 35.296875 62.5 36.953125 
Q 61.421875 38.625 59.765625 39.5 
Q 58.109375 40.375 55.859375 40.375 
Q 53.078125 40.375 50.265625 38.21875 
Q 47.46875 36.078125 44.09375 31.9375 
L 44.09375 1.21875 
Q 44.09375 0.828125 43.890625 0.5625 
Q 43.703125 0.296875 43.234375 0.09375 
Q 42.78125 -0.09375 42 -0.1875 
Q 41.21875 -0.296875 40.046875 -0.296875 
Q 38.921875 -0.296875 38.109375 -0.1875 
Q 37.3125 -0.09375 36.84375 0.09375 
Q 36.375 0.296875 36.203125 0.5625 
Q 36.03125 0.828125 36.03125 1.21875 
L 36.03125 27.9375 
Q 36.03125 30.71875 35.5 33 
Q 34.96875 35.296875 33.890625 36.953125 
Q 32.8125 38.625 31.171875 39.5 
Q 29.546875 40.375 27.296875 40.375 
Q 24.515625 40.375 21.671875 38.21875 
Q 18.84375 36.078125 15.53125 31.9375 
L 15.53125 1.21875 
Q 15.53125 0.828125 15.328125 0.5625 
Q 15.140625 0.296875 14.703125 0.09375 
Q 14.265625 -0.09375 13.484375 -0.1875 
Q 12.703125 -0.296875 11.46875 -0.296875 
Q 10.296875 -0.296875 9.515625 -0.1875 
Q 8.734375 -0.09375 8.265625 0.09375 
Q 7.8125 0.296875 7.640625 0.5625 
Q 7.46875 0.828125 7.46875 1.21875 
L 7.46875 45.171875 
Q 7.46875 45.5625 7.609375 45.828125 
Q 7.765625 46.09375 8.203125 46.3125 
Q 8.640625 46.53125 9.328125 46.609375 
Q 10.015625 46.6875 11.140625 46.6875 
Q 12.203125 46.6875 12.90625 46.609375 
Q 13.625 46.53125 14.015625 46.3125 
Q 14.40625 46.09375 14.578125 45.828125 
Q 14.75 45.5625 14.75 45.171875 
L 14.75 39.359375 
Q 18.453125 43.5 21.9375 45.421875 
Q 25.4375 47.359375 29 47.359375 
Q 31.734375 47.359375 33.90625 46.71875 
Q 36.078125 46.09375 37.734375 44.9375 
Q 39.40625 43.796875 40.578125 42.203125 
Q 41.75 40.625 42.53125 38.671875 
Q 44.734375 41.0625 46.703125 42.71875 
Q 48.6875 44.390625 50.515625 45.40625 
Q 52.34375 46.4375 54.078125 46.890625 
Q 55.8125 47.359375 57.5625 47.359375 
Q 61.8125 47.359375 64.6875 45.875 
Q 67.578125 44.390625 69.359375 41.890625 
Q 71.140625 39.40625 71.890625 36.0625 
Q 72.65625 32.71875 72.65625 29 
z
" id="Calibri-6d"/>
      <path d="M 23.78125 26.21875 
Q 23.78125 20.703125 23.09375 15.296875 
Q 22.40625 9.90625 21.03125 4.625 
Q 19.671875 -0.640625 17.6875 -5.734375 
Q 15.71875 -10.84375 13.09375 -15.828125 
Q 12.9375 -16.0625 12.640625 -16.25 
Q 12.359375 -16.453125 11.890625 -16.59375 
Q 11.421875 -16.75 10.78125 -16.796875 
Q 10.15625 -16.84375 9.28125 -16.84375 
Q 8.015625 -16.84375 7.296875 -16.71875 
Q 6.59375 -16.609375 6.265625 -16.328125 
Q 5.953125 -16.0625 5.96875 -15.640625 
Q 6 -15.234375 6.25 -14.65625 
Q 10.75 -4.78125 13.03125 5.546875 
Q 15.328125 15.875 15.328125 26.375 
Q 15.328125 36.8125 13.03125 47.140625 
Q 10.75 57.46875 6.15625 67.28125 
Q 5.953125 67.71875 6 68.109375 
Q 6.0625 68.5 6.453125 68.75 
Q 6.84375 69 7.515625 69.140625 
Q 8.203125 69.28125 9.328125 69.28125 
Q 10.359375 69.28125 11.03125 69.203125 
Q 11.71875 69.140625 12.125 68.984375 
Q 12.546875 68.84375 12.734375 68.703125 
Q 12.9375 68.5625 13.03125 68.359375 
Q 18.0625 58.34375 20.921875 47.765625 
Q 23.78125 37.203125 23.78125 26.21875 
z
" id="Calibri-29"/>
     </defs>
     <g transform="translate(29.27025 310.735)rotate(-90)scale(0.19 -0.19)">
      <use transform="translate(0 0.442188)" xlink:href="#Calibri-48"/>
      <use transform="translate(62.304688 0.442188)" xlink:href="#Calibri-65"/>
      <use transform="translate(112.060547 0.442188)" xlink:href="#Calibri-61"/>
      <use transform="translate(159.960938 0.442188)" xlink:href="#Calibri-74"/>
      <use transform="translate(193.457031 0.442188)" xlink:href="#Calibri-20"/>
      <use transform="translate(216.064453 0.442188)" xlink:href="#Calibri-66"/>
      <use transform="translate(246.582031 0.442188)" xlink:href="#Calibri-6c"/>
      <use transform="translate(269.53125 0.442188)" xlink:href="#Calibri-75"/>
      <use transform="translate(322.070312 0.442188)" xlink:href="#Calibri-78"/>
      <use transform="translate(365.380859 0.442188)" xlink:href="#Calibri-20"/>
      <use transform="translate(387.972656 0.442188)" xlink:href="#Calibri-63"/>
      <use transform="translate(430.257812 0.442188)" xlink:href="#Calibri-6f"/>
      <use transform="translate(482.992188 0.442188)" xlink:href="#Calibri-6e"/>
      <use transform="translate(535.53125 0.442188)" xlink:href="#Calibri-76"/>
      <use transform="translate(580.697266 0.442188)" xlink:href="#Calibri-65"/>
      <use transform="translate(630.453125 0.442188)" xlink:href="#Calibri-72"/>
      <use transform="translate(665.316406 0.442188)" xlink:href="#Calibri-67"/>
      <use transform="translate(712.386719 0.442188)" xlink:href="#Calibri-65"/>
      <use transform="translate(762.142578 0.442188)" xlink:href="#Calibri-6e"/>
      <use transform="translate(814.681641 0.442188)" xlink:href="#Calibri-63"/>
      <use transform="translate(856.966797 0.442188)" xlink:href="#Calibri-65"/>
      <use transform="translate(906.722656 0.442188)" xlink:href="#Calibri-20"/>
      <use transform="translate(929.314453 0.442188)" xlink:href="#Calibri-28"/>
      <use transform="translate(959.636719 0.442188)" xlink:href="#Calibri-57"/>
      <use transform="translate(1048.601562 0.442188)" xlink:href="#Calibri-20"/>
      <use transform="translate(1071.208984 0.442188)" xlink:href="#Calibri-6d"/>
      <use transform="translate(1151.908828 33.123438)scale(0.7)" xlink:href="#Calibri-2212"/>
      <use transform="translate(1186.772109 33.123438)scale(0.7)" xlink:href="#Calibri-32"/>
      <use transform="translate(1224.585 0.442188)" xlink:href="#Calibri-29"/>
     </g>
    </g>
   </g>
   <g id="line2d_70">
    <path clip-path="url(#p94f844b507)" d="M 75.404 207.783963 
L 553.77 207.783963 
" style="fill:none;stroke:#333333;stroke-linecap:square;stroke-width:0.8;"/>
   </g>
   <g id="line2d_71">
    <path clip-path="url(#p94f844b507)" d="M 75.404 256.341446 
L 80.18766 265.840722 
L 84.97132 274.891111 
L 89.75498 283.420745 
L 94.53864 291.366102 
L 99.3223 298.672132 
L 104.10596 305.292286 
L 108.88962 311.188471 
L 113.67328 316.330932 
L 118.45694 320.69808 
L 123.2406 324.27628 
L 128.02426 327.059604 
L 132.80792 329.049551 
L 137.59158 330.254752 
L 142.37524 330.690648 
L 147.1589 330.379147 
L 151.94256 329.348267 
L 156.72622 327.631756 
L 161.50988 325.26868 
L 166.29354 322.302999 
L 171.0772 318.783101 
L 175.86086 314.761309 
L 180.64452 310.293348 
L 185.42818 305.437781 
L 190.21184 300.255401 
L 194.9955 294.808579 
L 199.77916 289.160589 
L 204.56282 283.37488 
L 209.34648 277.514337 
L 214.13014 271.640504 
L 218.9138 265.812806 
L 223.69746 260.087762 
L 228.48112 254.51821 
L 233.26478 249.152563 
L 238.04844 244.034096 
L 242.8321 239.2003 
L 247.61576 234.682305 
L 252.39942 230.50439 
L 257.18308 226.683609 
L 261.96674 223.229518 
L 266.7504 220.144052 
L 271.53406 217.42152 
L 276.31772 215.048763 
L 281.10138 213.005442 
L 285.88504 211.264482 
L 290.6687 209.792647 
L 295.45236 208.551254 
L 300.23602 207.497 
L 305.01968 206.582899 
L 309.80334 205.759302 
L 314.587 204.974997 
L 319.37066 204.178341 
L 324.15432 203.318439 
L 328.93798 202.346317 
L 333.72164 201.216081 
L 338.5053 199.886036 
L 343.28896 198.319749 
L 348.07262 196.487021 
L 352.85628 194.364751 
L 357.63994 191.937681 
L 362.4236 189.198968 
L 367.20726 186.150603 
L 371.99092 182.803609 
L 376.77458 179.178035 
L 381.55824 175.302692 
L 386.3419 171.214635 
L 391.12556 166.958362 
L 395.90922 162.584718 
L 400.69288 158.149503 
L 405.47654 153.711787 
L 410.2602 149.331932 
L 415.04386 145.069366 
L 419.82752 140.980133 
L 424.61118 137.114278 
L 429.39484 133.51315 
L 434.1785 130.206698 
L 438.96216 127.210885 
L 443.74582 124.525338 
L 448.52948 122.131369 
L 453.31314 119.990532 
L 458.0968 118.043882 
L 462.88046 116.212098 
L 467.66412 114.396668 
L 472.44778 112.48232 
L 477.23144 110.340926 
L 482.0151 107.83708 
L 486.79876 104.835627 
L 491.58242 101.211418 
L 496.36608 96.8616 
L 501.14974 91.720818 
L 505.9334 85.779661 
L 510.71706 79.106733 
L 515.50072 71.87455 
L 520.28438 64.389297 
L 525.06804 57.123989 
L 529.8517 50.753888 
L 534.63536 46.191849 
L 539.41902 44.619737 
L 544.20268 47.50993 
L 548.98634 56.62865 
L 553.77 74.01071 
" style="fill:none;stroke:#1f77b4;stroke-linecap:square;stroke-width:1.5;"/>
   </g>
   <g id="line2d_72">
    <path clip-path="url(#p94f844b507)" d="M 75.404 262.81232 
L 80.18766 273.012328 
L 84.97132 282.753934 
L 89.75498 291.957997 
L 94.53864 300.553848 
L 99.3223 308.47957 
L 104.10596 315.682164 
L 108.88962 322.117627 
L 113.67328 327.750934 
L 118.45694 332.555959 
L 123.2406 336.51532 
L 128.02426 339.620182 
L 132.80792 341.870007 
L 137.59158 343.272256 
L 142.37524 343.842065 
L 147.1589 343.601871 
L 151.94256 342.581017 
L 156.72622 340.815307 
L 161.50988 338.346537 
L 166.29354 335.221987 
L 171.0772 331.493868 
L 175.86086 327.218743 
L 180.64452 322.456895 
L 185.42818 317.271666 
L 190.21184 311.728747 
L 194.9955 305.895444 
L 199.77916 299.839896 
L 204.56282 293.630276 
L 209.34648 287.333969 
L 214.13014 281.016728 
L 218.9138 274.741843 
L 223.69746 268.569304 
L 228.48112 262.554996 
L 233.26478 256.74993 
L 238.04844 251.199527 
L 242.8321 245.942962 
L 247.61576 241.012607 
L 252.39942 236.43356 
L 257.18308 232.223291 
L 261.96674 228.391415 
L 266.7504 224.939593 
L 271.53406 221.861583 
L 276.31772 219.143428 
L 281.10138 216.763797 
L 285.88504 214.694468 
L 290.6687 212.900949 
L 295.45236 211.343232 
L 300.23602 209.976664 
L 305.01968 208.75292 
L 309.80334 207.621063 
L 314.587 206.528677 
L 319.37066 205.423038 
L 324.15432 204.252317 
L 328.93798 202.966789 
L 333.72164 201.520012 
L 338.5053 199.869967 
L 343.28896 197.980136 
L 348.07262 195.820478 
L 352.85628 193.368294 
L 357.63994 190.608956 
L 362.4236 187.536467 
L 367.20726 184.153835 
L 371.99092 180.473244 
L 376.77458 176.515983 
L 381.55824 172.312133 
L 386.3419 167.899985 
L 391.12556 163.325168 
L 395.90922 158.639499 
L 400.69288 153.899529 
L 405.47654 149.164813 
L 410.2602 144.495907 
L 415.04386 139.952126 
L 419.82752 135.589102 
L 424.61118 131.45621 
L 429.39484 127.593917 
L 434.1785 124.031159 
L 438.96216 120.782855 
L 443.74582 117.847654 
L 448.52948 115.206087 
L 453.31314 112.819244 
L 458.0968 110.628148 
L 462.88046 108.553998 
L 467.66412 106.499456 
L 472.44778 104.351168 
L 477.23144 101.98373 
L 482.0151 99.265295 
L 486.79876 96.065085 
L 491.58242 92.263043 
L 496.36608 87.761909 
L 501.14974 82.502028 
L 505.9334 76.479181 
L 510.71706 69.765715 
L 515.50072 62.535166 
L 520.28438 55.090358 
L 525.06804 47.894682 
L 529.8517 41.605657 
L 534.63536 37.109112 
L 539.41902 35.551151 
L 544.20268 38.363543 
L 548.98634 47.276422 
L 553.77 64.310311 
" style="fill:none;stroke:#ff7f0e;stroke-linecap:square;stroke-width:1.5;"/>
   </g>
   <g id="line2d_73">
    <path clip-path="url(#p94f844b507)" d="M 75.404 267.594616 
L 80.18766 278.297096 
L 84.97132 288.535736 
L 89.75498 298.226158 
L 94.53864 307.292507 
L 99.3223 315.667835 
L 104.10596 323.294382 
L 108.88962 330.123741 
L 113.67328 336.116924 
L 118.45694 341.244352 
L 123.2406 345.485755 
L 128.02426 348.830018 
L 132.80792 351.274945 
L 137.59158 352.826989 
L 142.37524 353.500909 
L 147.1589 353.319389 
L 151.94256 352.312609 
L 156.72622 350.517764 
L 161.50988 347.978548 
L 166.29354 344.744581 
L 171.0772 340.870805 
L 175.86086 336.416821 
L 180.64452 331.4462 
L 185.42818 326.02574 
L 190.21184 320.224688 
L 194.9955 314.113927 
L 199.77916 307.765139 
L 204.56282 301.249931 
L 209.34648 294.638962 
L 214.13014 288.001049 
L 218.9138 281.40229 
L 223.69746 274.905201 
L 228.48112 268.567879 
L 233.26478 262.443222 
L 238.04844 256.578204 
L 242.8321 251.013221 
L 247.61576 245.781544 
L 252.39942 240.90886 
L 257.18308 236.412941 
L 261.96674 232.303442 
L 266.7504 228.581834 
L 271.53406 225.241478 
L 276.31772 222.267855 
L 281.10138 219.638934 
L 285.88504 217.325692 
L 290.6687 215.292768 
L 295.45236 213.499245 
L 300.23602 211.899553 
L 305.01968 210.444474 
L 309.80334 209.082227 
L 314.587 207.759625 
L 319.37066 206.423273 
L 324.15432 205.02079 
L 328.93798 203.502034 
L 333.72164 201.8203 
L 338.5053 199.933469 
L 343.28896 197.805088 
L 348.07262 195.405351 
L 352.85628 192.71196 
L 357.63994 189.710834 
L 362.4236 186.396656 
L 367.20726 182.773219 
L 371.99092 178.853564 
L 376.77458 174.659875 
L 381.55824 170.223118 
L 386.3419 165.58242 
L 391.12556 160.784153 
L 395.90922 155.880737 
L 400.69288 150.929161 
L 405.47654 145.98922 
L 410.2602 141.121496 
L 415.04386 136.385116 
L 419.82752 131.835325 
L 424.61118 127.520936 
L 429.39484 123.48173 
L 434.1785 119.745889 
L 438.96216 116.327579 
L 443.74582 113.22478 
L 448.52948 110.417522 
L 453.31314 107.866649 
L 458.0968 105.513276 
L 462.88046 103.279107 
L 467.66412 101.06779 
L 472.44778 98.767486 
L 477.23144 96.25486 
L 482.0151 93.400691 
L 486.79876 90.077336 
L 491.58242 86.168277 
L 496.36608 81.580014 
L 501.14974 76.25656 
L 505.9334 70.196824 
L 510.71706 63.475081 
L 515.50072 56.264729 
L 520.28438 48.865312 
L 525.06804 41.732556 
L 529.8517 35.510754 
L 534.63536 31.066145 
L 539.41902 29.519091 
L 544.20268 32.271611 
L 548.98634 41.025428 
L 553.77 57.784079 
" style="fill:none;stroke:#2ca02c;stroke-linecap:square;stroke-width:1.5;"/>
   </g>
   <g id="patch_3">
    <path d="M 75.404 369.7 
L 75.404 13.32 
" style="fill:none;stroke:#000000;stroke-linecap:square;stroke-linejoin:miter;stroke-width:0.8;"/>
   </g>
   <g id="patch_4">
    <path d="M 553.77 369.7 
L 553.77 13.32 
" style="fill:none;stroke:#000000;stroke-linecap:square;stroke-linejoin:miter;stroke-width:0.8;"/>
   </g>
   <g id="patch_5">
    <path d="M 75.404 369.7 
L 553.77 369.7 
" style="fill:none;stroke:#000000;stroke-linecap:square;stroke-linejoin:miter;stroke-width:0.8;"/>
   </g>
   <g id="patch_6">
    <path d="M 75.404 13.32 
L 553.77 13.32 
" style="fill:none;stroke:#000000;stroke-linecap:square;stroke-linejoin:miter;stroke-width:0.8;"/>
   </g>
   <g id="legend_1">
    <g id="patch_7">
     <path d="M 83.404 92.255 
L 214.444 92.255 
L 214.444 21.32 
L 83.404 21.32 
z
" style="fill:#ffffff;stroke:#000000;stroke-linejoin:miter;"/>
    </g>
    <g id="line2d_74">
     <path d="M 89.804 33.32 
L 121.804 33.32 
" style="fill:none;stroke:#1f77b4;stroke-linecap:square;stroke-width:1.5;"/>
    </g>
    <g id="line2d_75"/>
    <g id="text_17">
     <!-- $D/D_0=0.75$ -->
     <defs>
      <path d="M 59.625 40.4375 
Q 59.625 37.25 59.171875 33.8125 
Q 58.734375 30.375 57.78125 26.921875 
Q 56.84375 23.484375 55.328125 20.15625 
Q 53.8125 16.84375 51.640625 13.84375 
Q 49.46875 10.84375 46.609375 8.296875 
Q 43.75 5.765625 40.078125 3.90625 
Q 36.421875 2.046875 31.921875 1.015625 
Q 27.4375 0 21.140625 0 
L 7.125 0 
Q 6.5 0 5.9375 0.171875 
Q 5.375 0.34375 4.984375 0.734375 
Q 4.59375 1.125 4.4375 1.78125 
Q 4.296875 2.4375 4.546875 3.421875 
L 15.765625 59.765625 
Q 16.109375 61.671875 17.25 62.421875 
Q 18.40625 63.1875 19.875 63.1875 
L 33.203125 63.1875 
Q 40.484375 63.1875 45.265625 61.640625 
Q 50.046875 60.109375 53.25 57.171875 
Q 56.453125 54.25 58.03125 50.015625 
Q 59.625 45.796875 59.625 40.4375 
z
M 50.734375 39.703125 
Q 50.734375 43.3125 49.734375 46.328125 
Q 48.734375 49.359375 46.578125 51.53125 
Q 44.4375 53.71875 41.09375 54.953125 
Q 37.75 56.203125 32.234375 56.203125 
L 23.4375 56.203125 
L 13.625 7.03125 
L 22.3125 7.03125 
Q 28.265625 7.03125 32.265625 8.46875 
Q 36.28125 9.90625 39.359375 12.375 
Q 42.4375 14.84375 44.578125 18.109375 
Q 46.734375 21.390625 48.09375 25 
Q 49.46875 28.609375 50.09375 32.390625 
Q 50.734375 36.1875 50.734375 39.703125 
z
" id="Calibri-Italic-44"/>
      <path d="M 8.203125 -11.765625 
Q 8.015625 -12.40625 7.6875 -12.765625 
Q 7.375 -13.140625 6.875 -13.328125 
Q 6.390625 -13.53125 5.6875 -13.625 
Q 4.984375 -13.71875 3.953125 -13.71875 
Q 2.734375 -13.71875 1.921875 -13.546875 
Q 1.125 -13.375 0.6875 -13.0625 
Q 0.25 -12.75 0.140625 -12.28125 
Q 0.046875 -11.8125 0.34375 -11.1875 
L 29.890625 69.828125 
Q 30.078125 70.453125 30.390625 70.8125 
Q 30.71875 71.1875 31.171875 71.40625 
Q 31.640625 71.625 32.375 71.703125 
Q 33.109375 71.78125 34.125 71.78125 
Q 35.359375 71.78125 36.140625 71.609375 
Q 36.921875 71.4375 37.359375 71.140625 
Q 37.796875 70.84375 37.890625 70.359375 
Q 37.984375 69.875 37.75 69.234375 
z
" id="Calibri-2f"/>
      <path d="M 46.046875 59.578125 
Q 46.046875 58.6875 45.96875 57.984375 
Q 45.90625 57.28125 45.78125 56.609375 
Q 45.65625 55.953125 45.4375 55.34375 
Q 45.21875 54.734375 44.921875 54.046875 
L 22.171875 1.609375 
Q 21.921875 1.03125 21.546875 0.65625 
Q 21.1875 0.296875 20.625 0.078125 
Q 20.0625 -0.140625 19.1875 -0.21875 
Q 18.3125 -0.296875 17.046875 -0.296875 
Q 15.375 -0.296875 14.453125 -0.140625 
Q 13.53125 0 13.109375 0.3125 
Q 12.703125 0.640625 12.75 1.09375 
Q 12.796875 1.5625 13.09375 2.203125 
L 37.015625 55.8125 
L 6.6875 55.8125 
Q 5.765625 55.8125 5.296875 56.78125 
Q 4.828125 57.765625 4.828125 59.515625 
Q 4.828125 60.453125 4.953125 61.125 
Q 5.078125 61.8125 5.3125 62.28125 
Q 5.5625 62.75 5.90625 62.96875 
Q 6.25 63.1875 6.6875 63.1875 
L 43.5 63.1875 
Q 44.1875 63.1875 44.703125 63.03125 
Q 45.21875 62.890625 45.484375 62.453125 
Q 45.75 62.015625 45.890625 61.328125 
Q 46.046875 60.640625 46.046875 59.578125 
z
" id="Calibri-37"/>
      <path d="M 44.828125 20.3125 
Q 44.828125 15.234375 43.109375 11.28125 
Q 41.40625 7.328125 38.28125 4.609375 
Q 35.15625 1.90625 30.828125 0.484375 
Q 26.515625 -0.921875 21.234375 -0.921875 
Q 18.3125 -0.921875 15.671875 -0.5 
Q 13.03125 -0.09375 10.984375 0.515625 
Q 8.9375 1.125 7.609375 1.703125 
Q 6.296875 2.296875 5.921875 2.640625 
Q 5.5625 2.984375 5.421875 3.265625 
Q 5.28125 3.5625 5.15625 3.96875 
Q 5.03125 4.390625 4.984375 5.03125 
Q 4.9375 5.671875 4.9375 6.546875 
Q 4.9375 7.375 5 8.03125 
Q 5.078125 8.6875 5.265625 9.09375 
Q 5.46875 9.515625 5.734375 9.703125 
Q 6 9.90625 6.34375 9.90625 
Q 6.84375 9.90625 7.859375 9.296875 
Q 8.890625 8.6875 10.625 7.984375 
Q 12.359375 7.28125 14.921875 6.640625 
Q 17.484375 6 21 6 
Q 24.265625 6 27 6.78125 
Q 29.734375 7.5625 31.703125 9.21875 
Q 33.6875 10.890625 34.8125 13.40625 
Q 35.9375 15.921875 35.9375 19.53125 
Q 35.9375 22.5625 34.984375 24.875 
Q 34.03125 27.203125 32.046875 28.734375 
Q 30.078125 30.28125 27.046875 31.03125 
Q 24.03125 31.78125 19.828125 31.78125 
Q 16.84375 31.78125 14.6875 31.484375 
Q 12.546875 31.203125 10.6875 31.203125 
Q 9.328125 31.203125 8.734375 31.828125 
Q 8.15625 32.46875 8.15625 34.28125 
L 8.15625 60.015625 
Q 8.15625 61.625 8.90625 62.40625 
Q 9.671875 63.1875 11.078125 63.1875 
L 39.0625 63.1875 
Q 39.453125 63.1875 39.8125 62.96875 
Q 40.1875 62.75 40.421875 62.296875 
Q 40.671875 61.859375 40.796875 61.171875 
Q 40.921875 60.5 40.921875 59.578125 
Q 40.921875 57.8125 40.421875 56.828125 
Q 39.9375 55.859375 39.0625 55.859375 
L 15.484375 55.859375 
L 15.484375 38.140625 
Q 17.1875 38.375 18.96875 38.421875 
Q 20.75 38.484375 23.09375 38.484375 
Q 28.515625 38.484375 32.5625 37.1875 
Q 36.625 35.890625 39.328125 33.515625 
Q 42.046875 31.15625 43.4375 27.78125 
Q 44.828125 24.421875 44.828125 20.3125 
z
" id="Calibri-35"/>
     </defs>
     <g transform="translate(134.604 38.92)scale(0.16 -0.16)">
      <use transform="translate(0 0.21875)" xlink:href="#Calibri-Italic-44"/>
      <use transform="translate(61.523438 0.21875)" xlink:href="#Calibri-2f"/>
      <use transform="translate(100.146484 0.21875)" xlink:href="#Calibri-Italic-44"/>
      <use transform="translate(161.669922 -13.7875)scale(0.7)" xlink:href="#Calibri-30"/>
      <use transform="translate(215.303125 0.21875)" xlink:href="#Calibri-3d"/>
      <use transform="translate(280.928125 0.21875)" xlink:href="#Calibri-30"/>
      <use transform="translate(331.611719 0.21875)" xlink:href="#Calibri-2e"/>
      <use transform="translate(356.855859 0.21875)" xlink:href="#Calibri-37"/>
      <use transform="translate(407.539453 0.21875)" xlink:href="#Calibri-35"/>
     </g>
    </g>
    <g id="line2d_76">
     <path d="M 89.804 55.365 
L 121.804 55.365 
" style="fill:none;stroke:#ff7f0e;stroke-linecap:square;stroke-width:1.5;"/>
    </g>
    <g id="line2d_77"/>
    <g id="text_18">
     <!-- $D/D_0=1.00$ -->
     <g transform="translate(134.604 60.965)scale(0.16 -0.16)">
      <use transform="translate(0 0.21875)" xlink:href="#Calibri-Italic-44"/>
      <use transform="translate(61.523438 0.21875)" xlink:href="#Calibri-2f"/>
      <use transform="translate(100.146484 0.21875)" xlink:href="#Calibri-Italic-44"/>
      <use transform="translate(161.669922 -13.7875)scale(0.7)" xlink:href="#Calibri-30"/>
      <use transform="translate(215.303125 0.21875)" xlink:href="#Calibri-3d"/>
      <use transform="translate(280.928125 0.21875)" xlink:href="#Calibri-31"/>
      <use transform="translate(331.611719 0.21875)" xlink:href="#Calibri-2e"/>
      <use transform="translate(356.855859 0.21875)" xlink:href="#Calibri-30"/>
      <use transform="translate(407.539453 0.21875)" xlink:href="#Calibri-30"/>
     </g>
    </g>
    <g id="line2d_78">
     <path d="M 89.804 77.41 
L 121.804 77.41 
" style="fill:none;stroke:#2ca02c;stroke-linecap:square;stroke-width:1.5;"/>
    </g>
    <g id="line2d_79"/>
    <g id="text_19">
     <!-- $D/D_0=1.25$ -->
     <g transform="translate(134.604 83.01)scale(0.16 -0.16)">
      <use transform="translate(0 0.21875)" xlink:href="#Calibri-Italic-44"/>
      <use transform="translate(61.523438 0.21875)" xlink:href="#Calibri-2f"/>
      <use transform="translate(100.146484 0.21875)" xlink:href="#Calibri-Italic-44"/>
      <use transform="translate(161.669922 -13.7875)scale(0.7)" xlink:href="#Calibri-30"/>
      <use transform="translate(215.303125 0.21875)" xlink:href="#Calibri-3d"/>
      <use transform="translate(280.928125 0.21875)" xlink:href="#Calibri-31"/>
      <use transform="translate(331.611719 0.21875)" xlink:href="#Calibri-2e"/>
      <use transform="translate(356.855859 0.21875)" xlink:href="#Calibri-32"/>
      <use transform="translate(407.539453 0.21875)" xlink:href="#Calibri-35"/>
     </g>
    </g>
   </g>
  </g>
 </g>
 <defs>
  <clipPath id="p94f844b507">
   <rect height="356.38" width="478.366" x="75.404" y="13.32"/>
  </clipPath>
 </defs>
</svg>
