<?xml version="1.0" encoding="utf-8" standalone="no"?>
<!DOCTYPE svg PUBLIC "-//W3C//DTD SVG 1.1//EN"
  "http://www.w3.org/Graphics/SVG/1.1/DTD/svg11.dtd">
<!-- Created with matplotlib (http://matplotlib.org/) -->
<svg height="432pt" version="1.1" viewBox="0 0 576 432" width="576pt" xmlns="http://www.w3.org/2000/svg" xmlns:xlink="http://www.w3.org/1999/xlink">
 <defs>
  <style type="text/css">
*{stroke-linecap:butt;stroke-linejoin:round;}
  </style>
 </defs>
 <g id="figure_1">
  <g id="patch_1">
   <path d="
M0 432
L576 432
L576 0
L0 0
z
" style="fill:#ffffff;"/>
  </g>
  <g id="axes_1">
   <g id="patch_2">
    <path d="
M75.8375 366.04
L552.676 366.04
L552.676 21.06
L75.8375 21.06
z
" style="fill:#ffffff;"/>
   </g>
   <g id="matplotlib.axis_1">
    <g id="xtick_1">
     <g id="line2d_1">
      <path clip-path="url(#p92318d09b9)" d="
M75.8375 366.04
L75.8375 21.06" style="fill:none;stroke:#bfbfbf;stroke-linecap:square;stroke-width:0.5;"/>
     </g>
     <g id="line2d_2">
      <defs>
       <path d="
M0 0
L0 4" id="m741efc42ff" style="stroke:#000000;stroke-width:0.5;"/>
      </defs>
      <g>
       <use style="stroke:#000000;stroke-width:0.5;" x="75.8375" xlink:href="#m741efc42ff" y="366.04"/>
      </g>
     </g>
     <g id="line2d_3">
      <defs>
       <path d="
M0 0
L0 -4" id="m93b0483c22" style="stroke:#000000;stroke-width:0.5;"/>
      </defs>
      <g>
       <use style="stroke:#000000;stroke-width:0.5;" x="75.8375" xlink:href="#m93b0483c22" y="21.06"/>
      </g>
     </g>
     <g id="text_1">
      <!-- 0.0 -->
      <defs>
       <path d="
M47.2188 31.7344
Q47.2188 24.4688 46.0625 18.4531
Q44.9219 12.4531 42.25 8.125
Q39.5938 3.8125 35.2969 1.4375
Q31 -0.921875 24.7031 -0.921875
Q18.75 -0.921875 14.6719 1.20312
Q10.5938 3.32812 8.09375 7.45312
Q5.60938 11.5781 4.5625 17.6094
Q3.51562 23.6406 3.51562 31.4531
Q3.51562 38.6719 4.6875 44.7031
Q5.85938 50.7344 8.5 55.0469
Q11.1406 59.375 15.4375 61.7344
Q19.7344 64.1094 25.9844 64.1094
Q31.9844 64.1094 36.0625 61.9844
Q40.1406 59.8594 42.625 55.7344
Q45.125 51.6094 46.1719 45.5781
Q47.2188 39.5469 47.2188 31.7344
M38.625 31.1562
Q38.625 35.8906 38.2812 39.6406
Q37.9375 43.4062 37.2812 46.2812
Q36.625 49.1719 35.5625 51.25
Q34.5156 53.3281 33.0469 54.6562
Q31.5938 56 29.7031 56.6094
Q27.8281 57.2344 25.4844 57.2344
Q21.3438 57.2344 18.75 55.2812
Q16.1562 53.3281 14.6719 49.9062
Q13.1875 46.4844 12.6406 41.8906
Q12.1094 37.3125 12.1094 32.0312
Q12.1094 24.9531 12.8438 20
Q13.5781 15.0469 15.1562 11.9219
Q16.75 8.79688 19.2188 7.375
Q21.6875 5.95312 25.2031 5.95312
Q27.9375 5.95312 30 6.82812
Q32.0781 7.71875 33.5625 9.34375
Q35.0625 10.9844 36.0312 13.2812
Q37.0156 15.5781 37.5938 18.3594
Q38.1875 21.1406 38.4062 24.3906
Q38.625 27.6406 38.625 31.1562" id="Calibri-30"/>
       <path d="
M17.875 5.32812
Q17.875 1.85938 16.7188 0.703125
Q15.5781 -0.4375 12.5469 -0.4375
Q9.625 -0.4375 8.5 0.6875
Q7.375 1.8125 7.375 5.17188
Q7.375 8.64062 8.51562 9.78125
Q9.67188 10.9375 12.7031 10.9375
Q15.625 10.9375 16.75 9.8125
Q17.875 8.6875 17.875 5.32812" id="Calibri-2e"/>
      </defs>
      <g transform="translate(65.06984375 390.2828125)scale(0.18 -0.18)">
       <use xlink:href="#Calibri-30"/>
       <use x="50.68359375" xlink:href="#Calibri-2e"/>
       <use x="75.927734375" xlink:href="#Calibri-30"/>
      </g>
     </g>
    </g>
    <g id="xtick_2">
     <g id="line2d_4">
      <path clip-path="url(#p92318d09b9)" d="
M171.205 366.04
L171.205 21.06" style="fill:none;stroke:#bfbfbf;stroke-linecap:square;stroke-width:0.5;"/>
     </g>
     <g id="line2d_5">
      <g>
       <use style="stroke:#000000;stroke-width:0.5;" x="171.2051875" xlink:href="#m741efc42ff" y="366.04"/>
      </g>
     </g>
     <g id="line2d_6">
      <g>
       <use style="stroke:#000000;stroke-width:0.5;" x="171.2051875" xlink:href="#m93b0483c22" y="21.06"/>
      </g>
     </g>
     <g id="text_2">
      <!-- 0.2 -->
      <defs>
       <path d="
M45.125 3.60938
Q45.125 2.73438 45 2.04688
Q44.875 1.375 44.6562 0.90625
Q44.4375 0.4375 44.0625 0.21875
Q43.7031 0 43.2656 0
L8.34375 0
Q7.67188 0 7.15625 0.171875
Q6.64062 0.34375 6.26562 0.734375
Q5.90625 1.125 5.73438 1.85938
Q5.5625 2.59375 5.5625 3.65625
Q5.5625 4.64062 5.64062 5.375
Q5.71875 6.10938 5.95312 6.67188
Q6.20312 7.23438 6.5625 7.78125
Q6.9375 8.34375 7.51562 8.98438
L19.7812 21.9688
Q24.0312 26.4688 26.5938 30.0312
Q29.1562 33.5938 30.5469 36.5156
Q31.9375 39.4531 32.375 41.8438
Q32.8125 44.2344 32.8125 46.3438
Q32.8125 48.4375 32.125 50.3125
Q31.4531 52.2031 30.1562 53.6094
Q28.8594 55.0312 26.9062 55.8594
Q24.9531 56.6875 22.4062 56.6875
Q19.4375 56.6875 17.0625 55.8594
Q14.7031 55.0312 12.9219 54.0469
Q11.1406 53.0781 9.9375 52.25
Q8.73438 51.4219 8.15625 51.4219
Q7.8125 51.4219 7.54688 51.6094
Q7.28125 51.8125 7.10938 52.25
Q6.9375 52.6875 6.82812 53.4219
Q6.73438 54.1562 6.73438 55.1719
Q6.73438 55.9062 6.78125 56.4375
Q6.84375 56.9844 6.95312 57.375
Q7.07812 57.7656 7.26562 58.1094
Q7.46875 58.4531 8.04688 58.9531
Q8.64062 59.4688 10.0781 60.3438
Q11.5312 61.2344 13.7031 62.0781
Q15.875 62.9375 18.4844 63.5156
Q21.0938 64.1094 23.9688 64.1094
Q28.5625 64.1094 32 62.8125
Q35.4531 61.5312 37.7188 59.2812
Q39.9844 57.0312 41.1094 54.0469
Q42.2344 51.0781 42.2344 47.7031
Q42.2344 44.6719 41.6875 41.6719
Q41.1562 38.6719 39.4219 35.1719
Q37.7031 31.6875 34.4219 27.4062
Q31.1562 23.1406 25.7344 17.5781
L15.7188 7.125
L43.2188 7.125
Q43.6094 7.125 43.9688 6.90625
Q44.3438 6.6875 44.6094 6.25
Q44.875 5.8125 45 5.15625
Q45.125 4.5 45.125 3.60938" id="Calibri-32"/>
      </defs>
      <g transform="translate(160.62596875 390.2828125)scale(0.18 -0.18)">
       <use xlink:href="#Calibri-30"/>
       <use x="50.68359375" xlink:href="#Calibri-2e"/>
       <use x="75.927734375" xlink:href="#Calibri-32"/>
      </g>
     </g>
    </g>
    <g id="xtick_3">
     <g id="line2d_7">
      <path clip-path="url(#p92318d09b9)" d="
M266.573 366.04
L266.573 21.06" style="fill:none;stroke:#bfbfbf;stroke-linecap:square;stroke-width:0.5;"/>
     </g>
     <g id="line2d_8">
      <g>
       <use style="stroke:#000000;stroke-width:0.5;" x="266.572875" xlink:href="#m741efc42ff" y="366.04"/>
      </g>
     </g>
     <g id="line2d_9">
      <g>
       <use style="stroke:#000000;stroke-width:0.5;" x="266.572875" xlink:href="#m93b0483c22" y="21.06"/>
      </g>
     </g>
     <g id="text_3">
      <!-- 0.4 -->
      <defs>
       <path d="
M47.7969 17.9688
Q47.7969 16.3594 47.3125 15.4219
Q46.8281 14.5 45.9531 14.5
L38.8125 14.5
L38.8125 1.21875
Q38.8125 0.828125 38.6094 0.5625
Q38.4219 0.296875 37.9375 0.09375
Q37.4531 -0.09375 36.6719 -0.1875
Q35.8906 -0.296875 34.6719 -0.296875
Q33.5 -0.296875 32.7188 -0.1875
Q31.9375 -0.09375 31.4688 0.09375
Q31 0.296875 30.8281 0.5625
Q30.6719 0.828125 30.6719 1.21875
L30.6719 14.5
L4.59375 14.5
Q4 14.5 3.60938 14.6406
Q3.21875 14.7969 2.90625 15.1875
Q2.59375 15.5781 2.46875 16.3125
Q2.34375 17.0469 2.34375 18.2188
Q2.34375 19.1406 2.39062 19.875
Q2.4375 20.6094 2.57812 21.2188
Q2.73438 21.8281 2.96875 22.3906
Q3.21875 22.9531 3.5625 23.5781
L26.3125 61.9688
Q26.5625 62.3594 27.0156 62.6406
Q27.4844 62.9375 28.2188 63.125
Q28.9531 63.3281 30.0312 63.4062
Q31.1094 63.4844 32.5625 63.4844
Q34.1875 63.4844 35.375 63.3594
Q36.5781 63.2344 37.2969 63.0312
Q38.0312 62.8438 38.4219 62.5156
Q38.8125 62.2031 38.8125 61.7656
L38.8125 21.4375
L45.9531 21.4375
Q46.7812 21.4375 47.2812 20.5781
Q47.7969 19.7344 47.7969 17.9688
M30.6719 56.1094
L30.5625 56.1094
L10.0156 21.4375
L30.6719 21.4375
z
" id="Calibri-34"/>
      </defs>
      <g transform="translate(255.7531875 390.2828125)scale(0.18 -0.18)">
       <use xlink:href="#Calibri-30"/>
       <use x="50.68359375" xlink:href="#Calibri-2e"/>
       <use x="75.927734375" xlink:href="#Calibri-34"/>
      </g>
     </g>
    </g>
    <g id="xtick_4">
     <g id="line2d_10">
      <path clip-path="url(#p92318d09b9)" d="
M361.941 366.04
L361.941 21.06" style="fill:none;stroke:#bfbfbf;stroke-linecap:square;stroke-width:0.5;"/>
     </g>
     <g id="line2d_11">
      <g>
       <use style="stroke:#000000;stroke-width:0.5;" x="361.9405625" xlink:href="#m741efc42ff" y="366.04"/>
      </g>
     </g>
     <g id="line2d_12">
      <g>
       <use style="stroke:#000000;stroke-width:0.5;" x="361.9405625" xlink:href="#m93b0483c22" y="21.06"/>
      </g>
     </g>
     <g id="text_4">
      <!-- 0.6 -->
      <defs>
       <path d="
M46.7344 20.4531
Q46.7344 16.3125 45.4531 12.4219
Q44.1875 8.54688 41.5469 5.59375
Q38.9219 2.64062 34.8594 0.859375
Q30.8125 -0.921875 25.2969 -0.921875
Q21.3438 -0.921875 18.3125 0.046875
Q15.2812 1.03125 13.0312 2.82812
Q10.7969 4.64062 9.29688 7.26562
Q7.8125 9.90625 6.90625 13.2812
Q6 16.6562 5.60938 20.6562
Q5.21875 24.6562 5.21875 29.25
Q5.21875 33.2969 5.65625 37.4531
Q6.10938 41.6094 7.21875 45.4531
Q8.34375 49.3125 10.2656 52.7031
Q12.2031 56.1094 15.1094 58.625
Q18.0156 61.1406 22.0625 62.5938
Q26.125 64.0625 31.5 64.0625
Q33.2969 64.0625 35.1562 63.8438
Q37.0156 63.625 38.5781 63.25
Q40.1406 62.8906 41.2031 62.4531
Q42.2812 62.0156 42.625 61.7344
Q42.9688 61.4688 43.1406 61.1562
Q43.3125 60.8438 43.4062 60.4688
Q43.5 60.1094 43.5469 59.6406
Q43.6094 59.1875 43.6094 58.5
Q43.6094 57.625 43.5781 56.9844
Q43.5625 56.3438 43.3906 55.9531
Q43.2188 55.5625 42.9375 55.3594
Q42.6719 55.1719 42.2344 55.1719
Q41.7031 55.1719 40.7656 55.5156
Q39.8438 55.8594 38.5156 56.2656
Q37.2031 56.6875 35.3281 57.0312
Q33.4531 57.375 30.9531 57.375
Q26.4219 57.375 23.1406 55.5156
Q19.875 53.6562 17.7969 50.5312
Q15.7188 47.4062 14.7188 43.2812
Q13.7188 39.1562 13.5781 34.6719
Q14.8438 35.4062 16.4219 36.125
Q18.0156 36.8594 19.8906 37.4375
Q21.7812 38.0312 23.875 38.3906
Q25.9844 38.7656 28.375 38.7656
Q33.5 38.7656 37.0156 37.375
Q40.5312 35.9844 42.7031 33.5156
Q44.875 31.0625 45.7969 27.7031
Q46.7344 24.3594 46.7344 20.4531
M38.2344 19.6719
Q38.2344 22.5156 37.6719 24.8281
Q37.1094 27.1562 35.7812 28.7656
Q34.4688 30.375 32.2656 31.25
Q30.0781 32.125 26.8594 32.125
Q25.0469 32.125 23.2344 31.8125
Q21.4375 31.5 19.75 30.9375
Q18.0625 30.375 16.5156 29.6094
Q14.9844 28.8594 13.7188 27.9844
Q13.7188 21.6875 14.5156 17.4375
Q15.3281 13.1875 16.8594 10.625
Q18.4062 8.0625 20.7031 6.95312
Q23 5.85938 26.0781 5.85938
Q29.2031 5.85938 31.5 7.03125
Q33.7969 8.20312 35.2969 10.1719
Q36.8125 12.1562 37.5156 14.625
Q38.2344 17.0938 38.2344 19.6719" id="Calibri-36"/>
      </defs>
      <g transform="translate(351.2165 390.2828125)scale(0.18 -0.18)">
       <use xlink:href="#Calibri-30"/>
       <use x="50.68359375" xlink:href="#Calibri-2e"/>
       <use x="75.927734375" xlink:href="#Calibri-36"/>
      </g>
     </g>
    </g>
    <g id="xtick_5">
     <g id="line2d_13">
      <path clip-path="url(#p92318d09b9)" d="
M457.308 366.04
L457.308 21.06" style="fill:none;stroke:#bfbfbf;stroke-linecap:square;stroke-width:0.5;"/>
     </g>
     <g id="line2d_14">
      <g>
       <use style="stroke:#000000;stroke-width:0.5;" x="457.30825" xlink:href="#m741efc42ff" y="366.04"/>
      </g>
     </g>
     <g id="line2d_15">
      <g>
       <use style="stroke:#000000;stroke-width:0.5;" x="457.30825" xlink:href="#m93b0483c22" y="21.06"/>
      </g>
     </g>
     <g id="text_5">
      <!-- 0.8 -->
      <defs>
       <path d="
M46.5781 16.2188
Q46.5781 12.1094 45.1094 8.90625
Q43.6562 5.71875 40.8906 3.51562
Q38.1406 1.3125 34.0781 0.1875
Q30.0312 -0.921875 24.8125 -0.921875
Q19.9219 -0.921875 16.0625 0.09375
Q12.2031 1.125 9.51562 3.125
Q6.84375 5.125 5.42188 8.04688
Q4 10.9844 4 14.75
Q4 17.7188 4.96875 20.2031
Q5.95312 22.7031 7.78125 24.7969
Q9.625 26.9062 12.2969 28.7344
Q14.9844 30.5625 18.3594 32.2344
Q15.4375 33.7344 13.1875 35.4219
Q10.9375 37.1094 9.375 39.0781
Q7.8125 41.0625 7 43.3125
Q6.20312 45.5625 6.20312 48.1875
Q6.20312 51.5156 7.39062 54.4219
Q8.59375 57.3281 11 59.4688
Q13.4219 61.625 17.1562 62.8594
Q20.9062 64.1094 25.875 64.1094
Q30.6719 64.1094 34.1562 62.9531
Q37.6406 61.8125 39.9062 59.8281
Q42.1875 57.8594 43.2656 55.1719
Q44.3438 52.4844 44.3438 49.4219
Q44.3438 46.9219 43.5312 44.625
Q42.7188 42.3281 41.1562 40.2812
Q39.5938 38.2344 37.3281 36.4531
Q35.0625 34.6719 32.125 33.1094
Q35.5938 31.3906 38.2969 29.5781
Q41.0156 27.7812 42.8438 25.7031
Q44.6719 23.6406 45.625 21.3125
Q46.5781 19 46.5781 16.2188
M36.0312 48.6406
Q36.0312 50.6875 35.3281 52.3438
Q34.625 54 33.25 55.1719
Q31.8906 56.3438 29.8594 56.9531
Q27.8281 57.5625 25.25 57.5625
Q19.9688 57.5625 17.25 55.1719
Q14.5469 52.7812 14.5469 48.6406
Q14.5469 46.7344 15.2031 45.0938
Q15.875 43.4531 17.2656 41.9844
Q18.6562 40.5312 20.7812 39.1406
Q22.9062 37.75 25.8281 36.2344
Q30.7656 38.7656 33.3906 41.8438
Q36.0312 44.9219 36.0312 48.6406
M38.0938 15.3281
Q38.0938 17.5781 37.25 19.4062
Q36.4219 21.2344 34.7344 22.8281
Q33.0625 24.4219 30.5469 25.9062
Q28.0312 27.3906 24.7031 29
Q21.625 27.4844 19.3125 25.9688
Q17 24.4688 15.5 22.8438
Q14.0156 21.2344 13.25 19.4531
Q12.5 17.6719 12.5 15.5312
Q12.5 10.7969 15.75 8.20312
Q19 5.60938 25.4375 5.60938
Q31.6875 5.60938 34.8906 8.21875
Q38.0938 10.8438 38.0938 15.3281" id="Calibri-38"/>
      </defs>
      <g transform="translate(446.59825 390.2828125)scale(0.18 -0.18)">
       <use xlink:href="#Calibri-30"/>
       <use x="50.68359375" xlink:href="#Calibri-2e"/>
       <use x="75.927734375" xlink:href="#Calibri-38"/>
      </g>
     </g>
    </g>
    <g id="xtick_6">
     <g id="line2d_16">
      <path clip-path="url(#p92318d09b9)" d="
M552.676 366.04
L552.676 21.06" style="fill:none;stroke:#bfbfbf;stroke-linecap:square;stroke-width:0.5;"/>
     </g>
     <g id="line2d_17">
      <g>
       <use style="stroke:#000000;stroke-width:0.5;" x="552.6759375" xlink:href="#m741efc42ff" y="366.04"/>
      </g>
     </g>
     <g id="line2d_18">
      <g>
       <use style="stroke:#000000;stroke-width:0.5;" x="552.6759375" xlink:href="#m93b0483c22" y="21.06"/>
      </g>
     </g>
     <g id="text_6">
      <!-- 1.0 -->
      <defs>
       <path d="
M45.2656 3.32812
Q45.2656 2.39062 45.1094 1.75
Q44.9688 1.125 44.7188 0.734375
Q44.4844 0.34375 44.1562 0.171875
Q43.8438 0 43.5 0
L10.5 0
Q10.1562 0 9.85938 0.171875
Q9.57812 0.34375 9.29688 0.734375
Q9.03125 1.125 8.875 1.75
Q8.73438 2.39062 8.73438 3.32812
Q8.73438 4.20312 8.875 4.82812
Q9.03125 5.46875 9.25 5.875
Q9.46875 6.29688 9.78125 6.51562
Q10.1094 6.73438 10.5 6.73438
L23.6875 6.73438
L23.6875 54.7812
L11.4688 47.5156
Q10.5469 47.0156 9.98438 46.9219
Q9.42188 46.8281 9.07812 47.1406
Q8.73438 47.4688 8.60938 48.1875
Q8.5 48.9219 8.5 50.0469
Q8.5 50.875 8.5625 51.4531
Q8.64062 52.0469 8.78125 52.4375
Q8.9375 52.8281 9.20312 53.125
Q9.46875 53.4219 9.90625 53.7188
L24.4688 63.0312
Q24.6562 63.1875 24.9531 63.2812
Q25.25 63.375 25.6875 63.4688
Q26.125 63.5781 26.7031 63.5938
Q27.2969 63.625 28.1719 63.625
Q29.3438 63.625 30.125 63.5156
Q30.9062 63.4219 31.3438 63.25
Q31.7812 63.0938 31.9219 62.8125
Q32.0781 62.5469 32.0781 62.25
L32.0781 6.73438
L43.5 6.73438
Q43.8906 6.73438 44.2344 6.51562
Q44.5781 6.29688 44.7969 5.875
Q45.0156 5.46875 45.1406 4.82812
Q45.2656 4.20312 45.2656 3.32812" id="Calibri-31"/>
      </defs>
      <g transform="translate(542.356875 390.2828125)scale(0.18 -0.18)">
       <use xlink:href="#Calibri-31"/>
       <use x="50.68359375" xlink:href="#Calibri-2e"/>
       <use x="75.927734375" xlink:href="#Calibri-30"/>
      </g>
     </g>
    </g>
    <g id="xtick_7">
     <g id="line2d_19">
      <defs>
       <path d="
M0 0
L0 2" id="m5284c7e2a0" style="stroke:#000000;stroke-width:0.5;"/>
      </defs>
      <g>
       <use style="stroke:#000000;stroke-width:0.5;" x="99.679421875" xlink:href="#m5284c7e2a0" y="366.04"/>
      </g>
     </g>
     <g id="line2d_20">
      <defs>
       <path d="
M0 0
L0 -2" id="m177f7580d0" style="stroke:#000000;stroke-width:0.5;"/>
      </defs>
      <g>
       <use style="stroke:#000000;stroke-width:0.5;" x="99.679421875" xlink:href="#m177f7580d0" y="21.06"/>
      </g>
     </g>
    </g>
    <g id="xtick_8">
     <g id="line2d_21">
      <g>
       <use style="stroke:#000000;stroke-width:0.5;" x="123.52134375" xlink:href="#m5284c7e2a0" y="366.04"/>
      </g>
     </g>
     <g id="line2d_22">
      <g>
       <use style="stroke:#000000;stroke-width:0.5;" x="123.52134375" xlink:href="#m177f7580d0" y="21.06"/>
      </g>
     </g>
    </g>
    <g id="xtick_9">
     <g id="line2d_23">
      <g>
       <use style="stroke:#000000;stroke-width:0.5;" x="147.363265625" xlink:href="#m5284c7e2a0" y="366.04"/>
      </g>
     </g>
     <g id="line2d_24">
      <g>
       <use style="stroke:#000000;stroke-width:0.5;" x="147.363265625" xlink:href="#m177f7580d0" y="21.06"/>
      </g>
     </g>
    </g>
    <g id="xtick_10">
     <g id="line2d_25">
      <g>
       <use style="stroke:#000000;stroke-width:0.5;" x="195.047109375" xlink:href="#m5284c7e2a0" y="366.04"/>
      </g>
     </g>
     <g id="line2d_26">
      <g>
       <use style="stroke:#000000;stroke-width:0.5;" x="195.047109375" xlink:href="#m177f7580d0" y="21.06"/>
      </g>
     </g>
    </g>
    <g id="xtick_11">
     <g id="line2d_27">
      <g>
       <use style="stroke:#000000;stroke-width:0.5;" x="218.88903125" xlink:href="#m5284c7e2a0" y="366.04"/>
      </g>
     </g>
     <g id="line2d_28">
      <g>
       <use style="stroke:#000000;stroke-width:0.5;" x="218.88903125" xlink:href="#m177f7580d0" y="21.06"/>
      </g>
     </g>
    </g>
    <g id="xtick_12">
     <g id="line2d_29">
      <g>
       <use style="stroke:#000000;stroke-width:0.5;" x="242.730953125" xlink:href="#m5284c7e2a0" y="366.04"/>
      </g>
     </g>
     <g id="line2d_30">
      <g>
       <use style="stroke:#000000;stroke-width:0.5;" x="242.730953125" xlink:href="#m177f7580d0" y="21.06"/>
      </g>
     </g>
    </g>
    <g id="xtick_13">
     <g id="line2d_31">
      <g>
       <use style="stroke:#000000;stroke-width:0.5;" x="290.414796875" xlink:href="#m5284c7e2a0" y="366.04"/>
      </g>
     </g>
     <g id="line2d_32">
      <g>
       <use style="stroke:#000000;stroke-width:0.5;" x="290.414796875" xlink:href="#m177f7580d0" y="21.06"/>
      </g>
     </g>
    </g>
    <g id="xtick_14">
     <g id="line2d_33">
      <g>
       <use style="stroke:#000000;stroke-width:0.5;" x="314.25671875" xlink:href="#m5284c7e2a0" y="366.04"/>
      </g>
     </g>
     <g id="line2d_34">
      <g>
       <use style="stroke:#000000;stroke-width:0.5;" x="314.25671875" xlink:href="#m177f7580d0" y="21.06"/>
      </g>
     </g>
    </g>
    <g id="xtick_15">
     <g id="line2d_35">
      <g>
       <use style="stroke:#000000;stroke-width:0.5;" x="338.098640625" xlink:href="#m5284c7e2a0" y="366.04"/>
      </g>
     </g>
     <g id="line2d_36">
      <g>
       <use style="stroke:#000000;stroke-width:0.5;" x="338.098640625" xlink:href="#m177f7580d0" y="21.06"/>
      </g>
     </g>
    </g>
    <g id="xtick_16">
     <g id="line2d_37">
      <g>
       <use style="stroke:#000000;stroke-width:0.5;" x="385.782484375" xlink:href="#m5284c7e2a0" y="366.04"/>
      </g>
     </g>
     <g id="line2d_38">
      <g>
       <use style="stroke:#000000;stroke-width:0.5;" x="385.782484375" xlink:href="#m177f7580d0" y="21.06"/>
      </g>
     </g>
    </g>
    <g id="xtick_17">
     <g id="line2d_39">
      <g>
       <use style="stroke:#000000;stroke-width:0.5;" x="409.62440625" xlink:href="#m5284c7e2a0" y="366.04"/>
      </g>
     </g>
     <g id="line2d_40">
      <g>
       <use style="stroke:#000000;stroke-width:0.5;" x="409.62440625" xlink:href="#m177f7580d0" y="21.06"/>
      </g>
     </g>
    </g>
    <g id="xtick_18">
     <g id="line2d_41">
      <g>
       <use style="stroke:#000000;stroke-width:0.5;" x="433.466328125" xlink:href="#m5284c7e2a0" y="366.04"/>
      </g>
     </g>
     <g id="line2d_42">
      <g>
       <use style="stroke:#000000;stroke-width:0.5;" x="433.466328125" xlink:href="#m177f7580d0" y="21.06"/>
      </g>
     </g>
    </g>
    <g id="xtick_19">
     <g id="line2d_43">
      <g>
       <use style="stroke:#000000;stroke-width:0.5;" x="481.150171875" xlink:href="#m5284c7e2a0" y="366.04"/>
      </g>
     </g>
     <g id="line2d_44">
      <g>
       <use style="stroke:#000000;stroke-width:0.5;" x="481.150171875" xlink:href="#m177f7580d0" y="21.06"/>
      </g>
     </g>
    </g>
    <g id="xtick_20">
     <g id="line2d_45">
      <g>
       <use style="stroke:#000000;stroke-width:0.5;" x="504.99209375" xlink:href="#m5284c7e2a0" y="366.04"/>
      </g>
     </g>
     <g id="line2d_46">
      <g>
       <use style="stroke:#000000;stroke-width:0.5;" x="504.99209375" xlink:href="#m177f7580d0" y="21.06"/>
      </g>
     </g>
    </g>
    <g id="xtick_21">
     <g id="line2d_47">
      <g>
       <use style="stroke:#000000;stroke-width:0.5;" x="528.834015625" xlink:href="#m5284c7e2a0" y="366.04"/>
      </g>
     </g>
     <g id="line2d_48">
      <g>
       <use style="stroke:#000000;stroke-width:0.5;" x="528.834015625" xlink:href="#m177f7580d0" y="21.06"/>
      </g>
     </g>
    </g>
    <g id="xtick_22">
     <g id="line2d_49">
      <g>
       <use style="stroke:#000000;stroke-width:0.5;" x="552.6759375" xlink:href="#m5284c7e2a0" y="366.04"/>
      </g>
     </g>
     <g id="line2d_50">
      <g>
       <use style="stroke:#000000;stroke-width:0.5;" x="552.6759375" xlink:href="#m177f7580d0" y="21.06"/>
      </g>
     </g>
    </g>
    <g id="text_7">
     <!-- Ice edge position, $y_\mathrm{i}=\sin\phi_\mathrm{i}$ -->
     <defs>
      <path d="
M30.3281 4.4375
Q30.3281 3.03125 30.125 2.20312
Q29.9375 1.375 29.5469 0.984375
Q29.1562 0.59375 28.375 0.25
Q27.5938 -0.09375 26.5938 -0.3125
Q25.5938 -0.53125 24.4688 -0.671875
Q23.3438 -0.828125 22.2188 -0.828125
Q18.7969 -0.828125 16.3594 0.078125
Q13.9219 0.984375 12.3594 2.8125
Q10.7969 4.64062 10.0781 7.4375
Q9.375 10.25 9.375 14.0625
L9.375 39.75
L3.21875 39.75
Q2.48438 39.75 2.04688 40.5312
Q1.60938 41.3125 1.60938 43.0625
Q1.60938 44 1.73438 44.625
Q1.85938 45.2656 2.04688 45.6719
Q2.25 46.0938 2.5625 46.2656
Q2.875 46.4375 3.26562 46.4375
L9.375 46.4375
L9.375 56.8906
Q9.375 57.2344 9.54688 57.5156
Q9.71875 57.8125 10.1719 58.0312
Q10.6406 58.25 11.4219 58.3438
Q12.2031 58.4531 13.375 58.4531
Q14.5938 58.4531 15.375 58.3438
Q16.1562 58.25 16.5938 58.0312
Q17.0469 57.8125 17.2344 57.5156
Q17.4375 57.2344 17.4375 56.8906
L17.4375 46.4375
L28.7188 46.4375
Q29.1094 46.4375 29.3906 46.2656
Q29.6875 46.0938 29.9062 45.6719
Q30.125 45.2656 30.2188 44.625
Q30.3281 44 30.3281 43.0625
Q30.3281 41.3125 29.875 40.5312
Q29.4375 39.75 28.7188 39.75
L17.4375 39.75
L17.4375 15.2344
Q17.4375 10.6875 18.7812 8.375
Q20.125 6.0625 23.5781 6.0625
Q24.7031 6.0625 25.5781 6.28125
Q26.4688 6.5 27.1406 6.73438
Q27.8281 6.98438 28.3125 7.20312
Q28.8125 7.42188 29.2031 7.42188
Q29.4375 7.42188 29.6562 7.29688
Q29.8906 7.17188 30 6.82812
Q30.125 6.5 30.2188 5.90625
Q30.3281 5.32812 30.3281 4.4375" id="Calibri-74"/>
      <path d="
M47.9062 23.875
Q47.9062 18.1094 46.6562 13.5156
Q45.4062 8.9375 42.9844 5.73438
Q40.5781 2.54688 37.0156 0.8125
Q33.4531 -0.921875 28.8594 -0.921875
Q26.9062 -0.921875 25.2344 -0.53125
Q23.5781 -0.140625 21.9844 0.6875
Q20.4062 1.51562 18.8438 2.78125
Q17.2812 4.04688 15.5312 5.76562
L15.5312 -16.2188
Q15.5312 -16.6094 15.3281 -16.8906
Q15.1406 -17.1875 14.7031 -17.375
Q14.2656 -17.5781 13.4844 -17.6719
Q12.7031 -17.7812 11.4688 -17.7812
Q10.2969 -17.7812 9.51562 -17.6719
Q8.73438 -17.5781 8.26562 -17.375
Q7.8125 -17.1875 7.64062 -16.8906
Q7.46875 -16.6094 7.46875 -16.2188
L7.46875 45.1719
Q7.46875 45.6094 7.60938 45.875
Q7.76562 46.1406 8.20312 46.3281
Q8.64062 46.5312 9.32812 46.6094
Q10.0156 46.6875 10.9844 46.6875
Q12.0156 46.6875 12.6719 46.6094
Q13.3281 46.5312 13.7656 46.3281
Q14.2031 46.1406 14.375 45.875
Q14.5469 45.6094 14.5469 45.1719
L14.5469 39.2656
Q16.5469 41.3125 18.4062 42.8281
Q20.2656 44.3438 22.1406 45.3438
Q24.0312 46.3438 26 46.8438
Q27.9844 47.3594 30.1719 47.3594
Q34.9688 47.3594 38.3281 45.5
Q41.7031 43.6562 43.8281 40.4219
Q45.9531 37.2031 46.9219 32.9219
Q47.9062 28.6562 47.9062 23.875
M39.4062 22.9531
Q39.4062 26.3125 38.8906 29.4688
Q38.375 32.625 37.125 35.0625
Q35.8906 37.5 33.7812 38.9688
Q31.6875 40.4375 28.5625 40.4375
Q27 40.4375 25.4844 39.9688
Q23.9688 39.5 22.4062 38.5
Q20.8438 37.5 19.1406 35.8594
Q17.4375 34.2344 15.5312 31.8438
L15.5312 14.3594
Q18.8438 10.2969 21.8281 8.14062
Q24.8125 6 28.0781 6
Q31.1094 6 33.2812 7.46875
Q35.4531 8.9375 36.7969 11.375
Q38.1406 13.8125 38.7656 16.8438
Q39.4062 19.875 39.4062 22.9531" id="Calibri-70"/>
      <path d="
M45.4531 45.5156
Q45.4531 44.9688 45.3594 44.4062
Q45.2656 43.8438 45.0156 43.3594
Q43.4062 38.9219 41.5 34.1094
Q39.5938 29.2969 37.0469 24.0469
Q34.5156 18.7969 31.125 13.0781
Q27.7344 7.375 23.0469 1.07812
L10.4062 -16.1562
Q10.1094 -16.5469 9.67188 -16.8438
Q9.23438 -17.1406 8.59375 -17.3594
Q7.95312 -17.5781 7.04688 -17.6719
Q6.15625 -17.7812 4.9375 -17.7812
Q3.60938 -17.7812 2.75 -17.6562
Q1.90625 -17.5312 1.46875 -17.2344
Q1.03125 -16.9375 1.07812 -16.4531
Q1.125 -15.9688 1.65625 -15.2812
L13.5781 0
L6.29688 42.9219
Q6.20312 43.5 6.15625 43.9844
Q6.10938 44.4844 6.10938 44.8281
Q6.10938 45.3594 6.28125 45.7188
Q6.45312 46.0938 6.9375 46.3125
Q7.42188 46.5312 8.21875 46.6094
Q9.03125 46.6875 10.2031 46.6875
Q11.5312 46.6875 12.2812 46.6094
Q13.0312 46.5312 13.4531 46.3594
Q13.875 46.1875 14.0312 45.8438
Q14.2031 45.5156 14.2656 45.0156
L19.9688 9.1875
L20.0625 9.1875
Q23.0938 13.4219 25.5312 17.8125
Q27.9844 22.2188 30.0312 26.7344
Q32.0781 31.25 33.8125 35.8594
Q35.5469 40.4844 37.0625 45.2188
Q37.1562 45.6094 37.4219 45.875
Q37.7031 46.1406 38.2031 46.3281
Q38.7188 46.5312 39.5938 46.6094
Q40.4844 46.6875 41.7969 46.6875
Q44 46.6875 44.7188 46.3906
Q45.4531 46.0938 45.4531 45.5156" id="Calibri-Italic-79"/>
      <path d="
M35.0625 13.1875
Q35.0625 9.8125 33.8125 7.17188
Q32.5625 4.54688 30.2656 2.73438
Q27.9844 0.921875 24.7969 0
Q21.625 -0.921875 17.8281 -0.921875
Q15.4844 -0.921875 13.3594 -0.5625
Q11.2344 -0.203125 9.54688 0.359375
Q7.85938 0.921875 6.6875 1.53125
Q5.51562 2.15625 4.96875 2.64062
Q4.4375 3.125 4.1875 4
Q3.95312 4.89062 3.95312 6.39062
Q3.95312 7.32812 4.04688 7.95312
Q4.15625 8.59375 4.29688 8.98438
Q4.4375 9.375 4.70312 9.54688
Q4.98438 9.71875 5.32812 9.71875
Q5.85938 9.71875 6.90625 9.0625
Q7.95312 8.40625 9.48438 7.625
Q11.0312 6.84375 13.125 6.17188
Q15.2344 5.51562 17.9688 5.51562
Q20.0156 5.51562 21.6719 5.95312
Q23.3438 6.39062 24.5625 7.25
Q25.7812 8.10938 26.4375 9.42188
Q27.0938 10.75 27.0938 12.5469
Q27.0938 14.4062 26.1406 15.6719
Q25.2031 16.9375 23.6406 17.9062
Q22.0781 18.8906 20.125 19.6406
Q18.1719 20.4062 16.0938 21.2344
Q14.0156 22.0781 12.0312 23.125
Q10.0625 24.1719 8.5 25.6875
Q6.9375 27.2031 5.98438 29.2969
Q5.03125 31.3906 5.03125 34.3281
Q5.03125 36.9219 6.03125 39.2812
Q7.03125 41.6562 9.03125 43.4375
Q11.0312 45.2188 14.0312 46.2812
Q17.0469 47.3594 21.0469 47.3594
Q22.7969 47.3594 24.5469 47.0625
Q26.3125 46.7812 27.7344 46.3438
Q29.1562 45.9062 30.1562 45.3906
Q31.1562 44.875 31.6562 44.4844
Q32.1719 44.0938 32.3438 43.7969
Q32.5156 43.5 32.5938 43.1406
Q32.6719 42.7812 32.7344 42.2344
Q32.8125 41.7031 32.8125 40.9219
Q32.8125 40.0938 32.7344 39.4844
Q32.6719 38.875 32.5 38.4844
Q32.3281 38.0938 32.0781 37.9219
Q31.8438 37.75 31.5469 37.75
Q31.1094 37.75 30.2656 38.2812
Q29.4375 38.8125 28.125 39.4219
Q26.8125 40.0469 25.0312 40.5781
Q23.25 41.1094 20.9531 41.1094
Q18.8906 41.1094 17.3281 40.6406
Q15.7656 40.1875 14.7656 39.3281
Q13.7656 38.4844 13.25 37.3125
Q12.75 36.1406 12.75 34.7656
Q12.75 32.8594 13.7188 31.5625
Q14.7031 30.2812 16.2656 29.2969
Q17.8281 28.3281 19.8281 27.5469
Q21.8281 26.7656 23.9062 25.9219
Q25.9844 25.0938 28 24.0625
Q30.0312 23.0469 31.5938 21.5781
Q33.1562 20.125 34.1094 18.0625
Q35.0625 16.0156 35.0625 13.1875" id="Calibri-73"/>
      <path d="
M16.7969 1.26562
Q16.7969 0.875 16.5938 0.578125
Q16.4062 0.296875 15.9219 0.125
Q15.4375 -0.046875 14.625 -0.171875
Q13.8125 -0.296875 12.5938 -0.296875
Q11.4219 -0.296875 10.5938 -0.171875
Q9.76562 -0.046875 9.28125 0.125
Q8.79688 0.296875 8.59375 0.578125
Q8.40625 0.875 8.40625 1.26562
L8.40625 61.9219
Q8.40625 62.3125 8.625 62.5938
Q8.84375 62.8906 9.34375 63.0625
Q9.85938 63.2344 10.6562 63.3594
Q11.4688 63.4844 12.5938 63.4844
Q13.8125 63.4844 14.625 63.3594
Q15.4375 63.2344 15.9219 63.0625
Q16.4062 62.8906 16.5938 62.5938
Q16.7969 62.3125 16.7969 61.9219
z
" id="Calibri-49"/>
      <path d="
M45.1719 37.6406
Q45.1719 35.6875 44.6094 34.9375
Q44.0469 34.1875 43.3125 34.1875
L6.39062 34.1875
Q5.67188 34.1875 5.125 34.9375
Q4.59375 35.6875 4.59375 37.6406
Q4.59375 39.4062 5.07812 40.2344
Q5.5625 41.0625 6.39062 41.0625
L43.3125 41.0625
Q44.1875 41.0625 44.6719 40.2344
Q45.1719 39.4062 45.1719 37.6406
M45.1719 18.6562
Q45.1719 16.7031 44.6094 15.9688
Q44.0469 15.2344 43.3125 15.2344
L6.39062 15.2344
Q5.67188 15.2344 5.125 15.9688
Q4.59375 16.7031 4.59375 18.6562
Q4.59375 20.4531 5.07812 21.2812
Q5.5625 22.125 6.39062 22.125
L43.3125 22.125
Q44.1875 22.125 44.6719 21.2812
Q45.1719 20.4531 45.1719 18.6562" id="Calibri-3d"/>
      <path d="
M48.3438 23.6875
Q48.3438 18.3125 46.9219 13.7969
Q45.5156 9.28125 42.7031 6
Q39.8906 2.73438 35.6719 0.90625
Q31.4531 -0.921875 25.875 -0.921875
Q20.4531 -0.921875 16.4219 0.6875
Q12.4062 2.29688 9.71875 5.375
Q7.03125 8.45312 5.70312 12.8438
Q4.39062 17.2344 4.39062 22.7969
Q4.39062 28.1719 5.78125 32.6875
Q7.17188 37.2031 9.98438 40.4688
Q12.7969 43.75 16.9844 45.5469
Q21.1875 47.3594 26.8125 47.3594
Q32.2344 47.3594 36.25 45.75
Q40.2812 44.1406 42.9688 41.0625
Q45.6562 37.9844 47 33.5938
Q48.3438 29.2031 48.3438 23.6875
M39.8438 23.1406
Q39.8438 26.7031 39.1875 29.875
Q38.5312 33.0625 37.0156 35.4531
Q35.5 37.8438 32.9062 39.2344
Q30.3281 40.625 26.4688 40.625
Q22.9062 40.625 20.3438 39.3594
Q17.7812 38.0938 16.1094 35.7656
Q14.4531 33.4531 13.6406 30.2656
Q12.8438 27.0938 12.8438 23.3438
Q12.8438 19.7344 13.5 16.5469
Q14.1562 13.375 15.6875 11
Q17.2344 8.64062 19.8125 7.25
Q22.4062 5.85938 26.2656 5.85938
Q29.7812 5.85938 32.375 7.125
Q34.9688 8.40625 36.625 10.6875
Q38.2812 12.9844 39.0625 16.1562
Q39.8438 19.3438 39.8438 23.1406" id="Calibri-6f"/>
      <path d="
M45.3125 1.21875
Q45.3125 0.828125 45.1094 0.5625
Q44.9219 0.296875 44.4844 0.09375
Q44.0469 -0.09375 43.2656 -0.1875
Q42.4844 -0.296875 41.3125 -0.296875
Q40.0938 -0.296875 39.3125 -0.1875
Q38.5312 -0.09375 38.0781 0.09375
Q37.6406 0.296875 37.4375 0.5625
Q37.25 0.828125 37.25 1.21875
L37.25 26.9531
Q37.25 30.7188 36.6562 33
Q36.0781 35.2969 34.9531 36.9531
Q33.8438 38.625 32.0625 39.5
Q30.2812 40.375 27.9375 40.375
Q24.9062 40.375 21.875 38.2188
Q18.8438 36.0781 15.5312 31.9375
L15.5312 1.21875
Q15.5312 0.828125 15.3281 0.5625
Q15.1406 0.296875 14.7031 0.09375
Q14.2656 -0.09375 13.4844 -0.1875
Q12.7031 -0.296875 11.4688 -0.296875
Q10.2969 -0.296875 9.51562 -0.1875
Q8.73438 -0.09375 8.26562 0.09375
Q7.8125 0.296875 7.64062 0.5625
Q7.46875 0.828125 7.46875 1.21875
L7.46875 45.1719
Q7.46875 45.5625 7.60938 45.8281
Q7.76562 46.0938 8.20312 46.3125
Q8.64062 46.5312 9.32812 46.6094
Q10.0156 46.6875 11.1406 46.6875
Q12.2031 46.6875 12.9062 46.6094
Q13.625 46.5312 14.0156 46.3125
Q14.4062 46.0938 14.5781 45.8281
Q14.75 45.5625 14.75 45.1719
L14.75 39.3594
Q18.4531 43.5 22.1406 45.4219
Q25.8281 47.3594 29.5938 47.3594
Q33.9844 47.3594 36.9844 45.875
Q39.9844 44.3906 41.8438 41.8906
Q43.7031 39.4062 44.5 36.0625
Q45.3125 32.7188 45.3125 28.0312
z
" id="Calibri-6e"/>
      <path d="
M23.7812 -0.921875
Q14.1562 -0.34375 8.875 4.03125
Q3.60938 8.40625 3.60938 16.6094
Q3.60938 19.7812 4.21875 23.2188
Q4.82812 26.6562 6.21875 29.9531
Q7.625 33.25 9.85938 36.25
Q12.1094 39.2656 15.4219 41.6094
Q18.75 43.9531 23.2188 45.4844
Q27.6875 47.0156 33.4531 47.3125
L37.3125 66.4531
Q37.3594 66.8438 37.625 67.1406
Q37.8906 67.4375 38.375 67.625
Q38.875 67.8281 39.7031 67.9219
Q40.5312 68.0156 41.7031 68.0156
Q44.0469 68.0156 44.7812 67.625
Q45.5156 67.2344 45.4062 66.4531
L41.5 47.3125
Q51.4688 46.7344 56.5938 42.2812
Q61.7188 37.8438 61.7188 29.8906
Q61.7188 26.6562 61.125 23.2188
Q60.5469 19.7812 59.1562 16.4531
Q57.7656 13.1406 55.4844 10.125
Q53.2188 7.125 49.8906 4.78125
Q46.5781 2.4375 42.0781 0.890625
Q37.5938 -0.640625 31.8438 -0.921875
L28.8125 -16.2188
Q28.6562 -16.6094 28.4375 -16.8906
Q28.2188 -17.1875 27.7344 -17.375
Q27.25 -17.5781 26.4375 -17.6719
Q25.6406 -17.7812 24.5156 -17.7812
Q22.3125 -17.7812 21.4062 -17.4062
Q20.5156 -17.0469 20.7031 -16.2188
z

M33.1562 5.67188
Q37.5938 5.95312 40.8125 7.3125
Q44.0469 8.6875 46.2812 10.7188
Q48.5312 12.75 49.9219 15.2344
Q51.3125 17.7188 52.0938 20.2031
Q52.875 22.7031 53.1406 25
Q53.4219 27.2969 53.4219 29
Q53.4219 30.8125 52.9844 32.7812
Q52.5469 34.7656 51.1406 36.4219
Q49.75 38.0938 47.1406 39.2812
Q44.5312 40.4844 40.1406 40.7188
z

M32.1719 40.7188
Q27.7344 40.4375 24.5156 39.0625
Q21.2969 37.7031 19.0469 35.6719
Q16.7969 33.6406 15.4062 31.1406
Q14.0156 28.6562 13.2344 26.1875
Q12.4531 23.7344 12.1875 21.3906
Q11.9219 19.0469 11.9219 17.3906
Q11.9219 15.5781 12.3594 13.5938
Q12.7969 11.625 14.1875 9.95312
Q15.5781 8.29688 18.1875 7.09375
Q20.7969 5.90625 25.2031 5.67188
z
" id="Calibri-Italic-3d5"/>
      <path d="
M15.5312 1.21875
Q15.5312 0.828125 15.3281 0.5625
Q15.1406 0.296875 14.7031 0.09375
Q14.2656 -0.09375 13.4844 -0.1875
Q12.7031 -0.296875 11.4688 -0.296875
Q10.2969 -0.296875 9.51562 -0.1875
Q8.73438 -0.09375 8.26562 0.09375
Q7.8125 0.296875 7.64062 0.5625
Q7.46875 0.828125 7.46875 1.21875
L7.46875 45.1719
Q7.46875 45.5156 7.64062 45.7969
Q7.8125 46.0938 8.26562 46.2812
Q8.73438 46.4844 9.51562 46.5781
Q10.2969 46.6875 11.4688 46.6875
Q12.7031 46.6875 13.4844 46.5781
Q14.2656 46.4844 14.7031 46.2812
Q15.1406 46.0938 15.3281 45.7969
Q15.5312 45.5156 15.5312 45.1719
z

M16.4531 60.0156
Q16.4531 57.1719 15.375 56.1406
Q14.3125 55.125 11.4219 55.125
Q8.59375 55.125 7.54688 56.125
Q6.5 57.125 6.5 59.9062
Q6.5 62.75 7.5625 63.7656
Q8.64062 64.7969 11.5312 64.7969
Q14.3594 64.7969 15.4062 63.7969
Q16.4531 62.7969 16.4531 60.0156" id="Calibri-69"/>
      <path id="Calibri-20"/>
      <path d="
M39.0625 7.90625
Q39.0625 7.07812 39.0156 6.46875
Q38.9688 5.85938 38.8438 5.4375
Q38.7188 5.03125 38.5469 4.70312
Q38.375 4.39062 37.7656 3.78125
Q37.1562 3.17188 35.6875 2.26562
Q34.2344 1.375 32.3906 0.65625
Q30.5625 -0.046875 28.4062 -0.484375
Q26.2656 -0.921875 23.9688 -0.921875
Q19.2344 -0.921875 15.5781 0.640625
Q11.9219 2.20312 9.45312 5.20312
Q6.98438 8.20312 5.6875 12.5625
Q4.39062 16.9375 4.39062 22.6562
Q4.39062 29.1562 5.96875 33.8125
Q7.5625 38.4844 10.3281 41.4531
Q13.0938 44.4375 16.8281 45.875
Q20.5625 47.3125 24.9062 47.3125
Q27 47.3125 28.9688 46.9219
Q30.9531 46.5312 32.6094 45.8906
Q34.2812 45.2656 35.5625 44.4375
Q36.8594 43.6094 37.4375 43.0156
Q38.0312 42.4375 38.25 42.0938
Q38.4844 41.75 38.625 41.2812
Q38.7656 40.8281 38.8125 40.2344
Q38.875 39.6562 38.875 38.7656
Q38.875 36.8594 38.4219 36.1094
Q37.9844 35.3594 37.3594 35.3594
Q36.625 35.3594 35.6719 36.1562
Q34.7188 36.9688 33.25 37.9375
Q31.7812 38.9219 29.7031 39.7188
Q27.6406 40.5312 24.8125 40.5312
Q19 40.5312 15.8906 36.0625
Q12.7969 31.5938 12.7969 23.0938
Q12.7969 18.8438 13.5938 15.6406
Q14.4062 12.4531 15.9688 10.2969
Q17.5312 8.15625 19.7969 7.10938
Q22.0781 6.0625 25 6.0625
Q27.7812 6.0625 29.875 6.9375
Q31.9844 7.8125 33.5156 8.85938
Q35.0625 9.90625 36.1094 10.7656
Q37.1562 11.625 37.75 11.625
Q38.0938 11.625 38.3281 11.4219
Q38.5781 11.2344 38.75 10.7656
Q38.9219 10.2969 38.9844 9.59375
Q39.0625 8.89062 39.0625 7.90625" id="Calibri-63"/>
      <path d="
M18.1094 6.98438
Q18.1094 5.46875 17.9688 4.20312
Q17.8281 2.9375 17.4844 1.8125
Q17.1406 0.6875 16.5781 -0.40625
Q16.0156 -1.51562 15.1875 -2.73438
L8.5 -12.7969
Q8.25 -13.1406 7.9375 -13.375
Q7.625 -13.625 7.15625 -13.8125
Q6.6875 -14.0156 6.07812 -14.0781
Q5.46875 -14.1562 4.54688 -14.1562
Q3.71875 -14.1562 3.15625 -14.0781
Q2.59375 -14.0156 2.34375 -13.8438
Q2.09375 -13.6719 2.0625 -13.375
Q2.04688 -13.0938 2.25 -12.7031
L8.73438 0.734375
L8.73438 6.98438
Q8.73438 8.29688 9 9.07812
Q9.28125 9.85938 9.85938 10.25
Q10.4531 10.6406 11.3281 10.7812
Q12.2031 10.9375 13.4844 10.9375
Q14.7031 10.9375 15.5781 10.7812
Q16.4531 10.6406 17.0156 10.25
Q17.5781 9.85938 17.8438 9.07812
Q18.1094 8.29688 18.1094 6.98438" id="Calibri-2c"/>
      <path d="
M44.1875 43.1719
Q44.1875 41.4531 43.7188 40.6875
Q43.2656 39.9375 42.5312 39.9375
L36.2344 39.9375
Q37.9375 38.1875 38.625 36.0625
Q39.3125 33.9375 39.3125 31.6406
Q39.3125 27.8281 38.0781 24.8906
Q36.8594 21.9688 34.5938 19.9375
Q32.3281 17.9219 29.2031 16.8438
Q26.0781 15.7656 22.2656 15.7656
Q19.5781 15.7656 17.1562 16.4688
Q14.75 17.1875 13.4219 18.2656
Q12.5469 17.3906 11.9844 16.2656
Q11.4219 15.1406 11.4219 13.6719
Q11.4219 11.9688 13 10.8438
Q14.5938 9.71875 17.2344 9.625
L28.7188 9.125
Q31.9844 9.03125 34.7188 8.21875
Q37.4531 7.42188 39.4531 5.92188
Q41.4531 4.4375 42.5781 2.26562
Q43.7031 0.09375 43.7031 -2.78125
Q43.7031 -5.8125 42.4219 -8.54688
Q41.1562 -11.2812 38.5469 -13.3594
Q35.9375 -15.4375 31.875 -16.625
Q27.8281 -17.8281 22.3125 -17.8281
Q17 -17.8281 13.25 -16.9219
Q9.51562 -16.0156 7.125 -14.4531
Q4.73438 -12.8906 3.65625 -10.7188
Q2.59375 -8.54688 2.59375 -6
Q2.59375 -4.39062 2.98438 -2.875
Q3.375 -1.375 4.17188 0
Q4.98438 1.375 6.17188 2.60938
Q7.375 3.85938 8.9375 5.07812
Q6.54688 6.29688 5.39062 8.15625
Q4.25 10.0156 4.25 12.1562
Q4.25 15.1406 5.46875 17.4844
Q6.6875 19.8281 8.5 21.6875
Q6.98438 23.4844 6.09375 25.75
Q5.21875 28.0312 5.21875 31.25
Q5.21875 35.0156 6.48438 37.9844
Q7.76562 40.9688 10 43.0156
Q12.25 45.0625 15.4062 46.1562
Q18.5625 47.2656 22.2656 47.2656
Q24.2656 47.2656 26 47.0469
Q27.7344 46.8281 29.25 46.4375
L42.5312 46.4375
Q43.3594 46.4375 43.7656 45.625
Q44.1875 44.8281 44.1875 43.1719
M31.5938 31.5938
Q31.5938 36.0781 29.125 38.5938
Q26.6562 41.1094 22.125 41.1094
Q19.7812 41.1094 18.0469 40.3281
Q16.3125 39.5469 15.1562 38.1719
Q14.0156 36.8125 13.4531 35.0312
Q12.8906 33.25 12.8906 31.2969
Q12.8906 26.9531 15.3594 24.4531
Q17.8281 21.9688 22.2656 21.9688
Q24.6562 21.9688 26.4062 22.7188
Q28.1719 23.4844 29.3125 24.8281
Q30.4688 26.1719 31.0312 27.9219
Q31.5938 29.6875 31.5938 31.5938
M35.6406 -3.21875
Q35.6406 -0.390625 33.3125 1.14062
Q31 2.6875 27.0469 2.78125
L15.6719 3.17188
Q14.1094 1.95312 13.1094 0.84375
Q12.1094 -0.25 11.5156 -1.25
Q10.9375 -2.25 10.7188 -3.21875
Q10.5 -4.20312 10.5 -5.21875
Q10.5 -8.40625 13.7188 -10.0312
Q16.9375 -11.6719 22.7031 -11.6719
Q26.375 -11.6719 28.8281 -10.9531
Q31.2969 -10.25 32.8125 -9.07812
Q34.3281 -7.90625 34.9844 -6.39062
Q35.6406 -4.89062 35.6406 -3.21875" id="Calibri-67"/>
      <path d="
M44.9688 25.0938
Q44.9688 23.1875 44.0156 22.375
Q43.0625 21.5781 41.8438 21.5781
L13.0312 21.5781
Q13.0312 17.9219 13.7656 14.9844
Q14.5 12.0625 16.2031 9.95312
Q17.9219 7.85938 20.6562 6.73438
Q23.3906 5.60938 27.3438 5.60938
Q30.4688 5.60938 32.9062 6.125
Q35.3594 6.64062 37.1406 7.26562
Q38.9219 7.90625 40.0625 8.42188
Q41.2188 8.9375 41.7969 8.9375
Q42.1406 8.9375 42.4062 8.76562
Q42.6719 8.59375 42.8125 8.25
Q42.9688 7.90625 43.0312 7.29688
Q43.1094 6.6875 43.1094 5.8125
Q43.1094 5.17188 43.0625 4.70312
Q43.0156 4.25 42.9375 3.875
Q42.875 3.51562 42.7031 3.21875
Q42.5312 2.9375 42.2656 2.65625
Q42 2.39062 40.6719 1.78125
Q39.3594 1.17188 37.25 0.578125
Q35.1562 0 32.3906 -0.453125
Q29.6406 -0.921875 26.5156 -0.921875
Q21.0938 -0.921875 17.0156 0.578125
Q12.9375 2.09375 10.1562 5.07812
Q7.375 8.0625 5.95312 12.5469
Q4.54688 17.0469 4.54688 23
Q4.54688 28.6562 6 33.1719
Q7.46875 37.7031 10.2188 40.8438
Q12.9844 44 16.8906 45.6719
Q20.7969 47.3594 25.6406 47.3594
Q30.8125 47.3594 34.4531 45.7031
Q38.0938 44.0469 40.4375 41.2344
Q42.7812 38.4219 43.875 34.6406
Q44.9688 30.8594 44.9688 26.5625
z

M36.8594 27.4844
Q37.0156 33.8438 34.0625 37.4531
Q31.1094 41.0625 25.2969 41.0625
Q22.3125 41.0625 20.0625 39.9375
Q17.8281 38.8125 16.3125 36.9531
Q14.7969 35.1094 13.9688 32.6406
Q13.1406 30.1719 13.0312 27.4844
z
" id="Calibri-65"/>
      <path d="
M45.125 1.21875
Q45.125 0.828125 44.9531 0.53125
Q44.7812 0.25 44.3594 0.078125
Q43.9531 -0.09375 43.2656 -0.1875
Q42.5781 -0.296875 41.6094 -0.296875
Q40.5781 -0.296875 39.8906 -0.1875
Q39.2031 -0.09375 38.7656 0.078125
Q38.3281 0.25 38.125 0.53125
Q37.9375 0.828125 37.9375 1.21875
L37.9375 7.03125
Q34.4688 3.26562 30.7344 1.17188
Q27 -0.921875 22.5625 -0.921875
Q17.7188 -0.921875 14.2969 0.953125
Q10.8906 2.82812 8.76562 6.03125
Q6.64062 9.23438 5.65625 13.5469
Q4.6875 17.875 4.6875 22.6562
Q4.6875 28.3281 5.90625 32.8906
Q7.125 37.4531 9.51562 40.6719
Q11.9219 43.8906 15.4531 45.625
Q19 47.3594 23.6406 47.3594
Q27.4844 47.3594 30.6875 45.6719
Q33.8906 44 37.0156 40.7188
L37.0156 66.2656
Q37.0156 66.6094 37.1875 66.9219
Q37.3594 67.2344 37.8438 67.4062
Q38.3281 67.5781 39.0781 67.7031
Q39.8438 67.8281 41.0156 67.8281
Q42.2344 67.8281 43.0156 67.7031
Q43.7969 67.5781 44.2344 67.4062
Q44.6719 67.2344 44.8906 66.9219
Q45.125 66.6094 45.125 66.2656
z

M37.0156 32.125
Q33.7344 36.1875 30.6875 38.3125
Q27.6406 40.4375 24.3125 40.4375
Q21.2344 40.4375 19.0781 38.9688
Q16.9375 37.5 15.5938 35.1094
Q14.2656 32.7188 13.6406 29.6875
Q13.0312 26.6562 13.0312 23.5312
Q13.0312 20.2188 13.5469 17.0469
Q14.0625 13.875 15.3281 11.4062
Q16.6094 8.9375 18.7031 7.4375
Q20.7969 5.95312 23.9688 5.95312
Q25.5938 5.95312 27.0781 6.39062
Q28.5625 6.84375 30.125 7.85938
Q31.6875 8.89062 33.3906 10.5156
Q35.1094 12.1562 37.0156 14.5469
z
" id="Calibri-64"/>
     </defs>
     <g transform="translate(218.22671875 410.9034375)scale(0.18 -0.18)">
      <use transform="translate(0.0 0.984375)" xlink:href="#Calibri-49"/>
      <use transform="translate(25.1953125 0.984375)" xlink:href="#Calibri-63"/>
      <use transform="translate(67.48046875 0.984375)" xlink:href="#Calibri-65"/>
      <use transform="translate(117.236328125 0.984375)" xlink:href="#Calibri-20"/>
      <use transform="translate(139.84375 0.984375)" xlink:href="#Calibri-65"/>
      <use transform="translate(189.599609375 0.984375)" xlink:href="#Calibri-64"/>
      <use transform="translate(242.138671875 0.984375)" xlink:href="#Calibri-67"/>
      <use transform="translate(289.208984375 0.984375)" xlink:href="#Calibri-65"/>
      <use transform="translate(338.96484375 0.984375)" xlink:href="#Calibri-20"/>
      <use transform="translate(361.572265625 0.984375)" xlink:href="#Calibri-70"/>
      <use transform="translate(414.111328125 0.984375)" xlink:href="#Calibri-6f"/>
      <use transform="translate(466.845703125 0.984375)" xlink:href="#Calibri-73"/>
      <use transform="translate(505.95703125 0.984375)" xlink:href="#Calibri-69"/>
      <use transform="translate(528.90625 0.984375)" xlink:href="#Calibri-74"/>
      <use transform="translate(562.40234375 0.984375)" xlink:href="#Calibri-69"/>
      <use transform="translate(585.3515625 0.984375)" xlink:href="#Calibri-6f"/>
      <use transform="translate(638.0859375 0.984375)" xlink:href="#Calibri-6e"/>
      <use transform="translate(690.625 0.984375)" xlink:href="#Calibri-2c"/>
      <use transform="translate(715.576171875 0.984375)" xlink:href="#Calibri-20"/>
      <use transform="translate(738.18359375 0.984375)" xlink:href="#Calibri-Italic-79"/>
      <use transform="translate(782.91015625 -13.021875)scale(0.7)" xlink:href="#Calibri-69"/>
      <use transform="translate(814.794921875 0.984375)" xlink:href="#Calibri-3d"/>
      <use transform="translate(871.177734375 0.984375)" xlink:href="#Calibri-73"/>
      <use transform="translate(910.2890625 0.984375)" xlink:href="#Calibri-69"/>
      <use transform="translate(933.23828125 0.984375)" xlink:href="#Calibri-6e"/>
      <use transform="translate(985.77734375 0.984375)" xlink:href="#Calibri-Italic-3d5"/>
      <use transform="translate(1050.9140625 -13.021875)scale(0.7)" xlink:href="#Calibri-69"/>
     </g>
    </g>
   </g>
   <g id="matplotlib.axis_2">
    <g id="ytick_1">
     <g id="line2d_51">
      <path clip-path="url(#p92318d09b9)" d="
M75.8375 366.04
L552.676 366.04" style="fill:none;stroke:#bfbfbf;stroke-linecap:square;stroke-width:0.5;"/>
     </g>
     <g id="line2d_52">
      <defs>
       <path d="
M0 0
L-4 0" id="mcb0005524f" style="stroke:#000000;stroke-width:0.5;"/>
      </defs>
      <g>
       <use style="stroke:#000000;stroke-width:0.5;" x="75.8375" xlink:href="#mcb0005524f" y="366.04"/>
      </g>
     </g>
     <g id="line2d_53">
      <defs>
       <path d="
M0 0
L4 0" id="m728421d6d4" style="stroke:#000000;stroke-width:0.5;"/>
      </defs>
      <g>
       <use style="stroke:#000000;stroke-width:0.5;" x="552.6759375" xlink:href="#m728421d6d4" y="366.04"/>
      </g>
     </g>
     <g id="text_8">
      <!-- −80 -->
      <defs>
       <path d="
M45.8438 28.0781
Q45.8438 26.2656 45.375 25.4375
Q44.9219 24.6094 44.0469 24.6094
L5.5625 24.6094
Q4.64062 24.6094 4.17188 25.4375
Q3.71875 26.2656 3.71875 28.0781
Q3.71875 29.8281 4.17188 30.6875
Q4.64062 31.5469 5.5625 31.5469
L44.0469 31.5469
Q44.9219 31.5469 45.375 30.7188
Q45.8438 29.8906 45.8438 28.0781" id="Calibri-2212"/>
      </defs>
      <g transform="translate(37.9175 370.56109375)scale(0.18 -0.18)">
       <use xlink:href="#Calibri-2212"/>
       <use x="49.8046875" xlink:href="#Calibri-38"/>
       <use x="100.48828125" xlink:href="#Calibri-30"/>
      </g>
     </g>
    </g>
    <g id="ytick_2">
     <g id="line2d_54">
      <path clip-path="url(#p92318d09b9)" d="
M75.8375 327.709
L552.676 327.709" style="fill:none;stroke:#bfbfbf;stroke-linecap:square;stroke-width:0.5;"/>
     </g>
     <g id="line2d_55">
      <g>
       <use style="stroke:#000000;stroke-width:0.5;" x="75.8375" xlink:href="#mcb0005524f" y="327.708888889"/>
      </g>
     </g>
     <g id="line2d_56">
      <g>
       <use style="stroke:#000000;stroke-width:0.5;" x="552.6759375" xlink:href="#m728421d6d4" y="327.708888889"/>
      </g>
     </g>
     <g id="text_9">
      <!-- −60 -->
      <g transform="translate(37.9175 332.229982639)scale(0.18 -0.18)">
       <use xlink:href="#Calibri-2212"/>
       <use x="49.8046875" xlink:href="#Calibri-36"/>
       <use x="100.48828125" xlink:href="#Calibri-30"/>
      </g>
     </g>
    </g>
    <g id="ytick_3">
     <g id="line2d_57">
      <path clip-path="url(#p92318d09b9)" d="
M75.8375 289.378
L552.676 289.378" style="fill:none;stroke:#bfbfbf;stroke-linecap:square;stroke-width:0.5;"/>
     </g>
     <g id="line2d_58">
      <g>
       <use style="stroke:#000000;stroke-width:0.5;" x="75.8375" xlink:href="#mcb0005524f" y="289.377777778"/>
      </g>
     </g>
     <g id="line2d_59">
      <g>
       <use style="stroke:#000000;stroke-width:0.5;" x="552.6759375" xlink:href="#m728421d6d4" y="289.377777778"/>
      </g>
     </g>
     <g id="text_10">
      <!-- −40 -->
      <g transform="translate(37.9175 293.898871528)scale(0.18 -0.18)">
       <use xlink:href="#Calibri-2212"/>
       <use x="49.8046875" xlink:href="#Calibri-34"/>
       <use x="100.48828125" xlink:href="#Calibri-30"/>
      </g>
     </g>
    </g>
    <g id="ytick_4">
     <g id="line2d_60">
      <path clip-path="url(#p92318d09b9)" d="
M75.8375 251.047
L552.676 251.047" style="fill:none;stroke:#bfbfbf;stroke-linecap:square;stroke-width:0.5;"/>
     </g>
     <g id="line2d_61">
      <g>
       <use style="stroke:#000000;stroke-width:0.5;" x="75.8375" xlink:href="#mcb0005524f" y="251.046666667"/>
      </g>
     </g>
     <g id="line2d_62">
      <g>
       <use style="stroke:#000000;stroke-width:0.5;" x="552.6759375" xlink:href="#m728421d6d4" y="251.046666667"/>
      </g>
     </g>
     <g id="text_11">
      <!-- −20 -->
      <g transform="translate(37.9175 255.567760417)scale(0.18 -0.18)">
       <use xlink:href="#Calibri-2212"/>
       <use x="49.8046875" xlink:href="#Calibri-32"/>
       <use x="100.48828125" xlink:href="#Calibri-30"/>
      </g>
     </g>
    </g>
    <g id="ytick_5">
     <g id="line2d_63">
      <path clip-path="url(#p92318d09b9)" d="
M75.8375 212.716
L552.676 212.716" style="fill:none;stroke:#bfbfbf;stroke-linecap:square;stroke-width:0.5;"/>
     </g>
     <g id="line2d_64">
      <g>
       <use style="stroke:#000000;stroke-width:0.5;" x="75.8375" xlink:href="#mcb0005524f" y="212.715555556"/>
      </g>
     </g>
     <g id="line2d_65">
      <g>
       <use style="stroke:#000000;stroke-width:0.5;" x="552.6759375" xlink:href="#m728421d6d4" y="212.715555556"/>
      </g>
     </g>
     <g id="text_12">
      <!-- 0 -->
      <g transform="translate(55.9709375 217.236649306)scale(0.18 -0.18)">
       <use xlink:href="#Calibri-30"/>
      </g>
     </g>
    </g>
    <g id="ytick_6">
     <g id="line2d_66">
      <path clip-path="url(#p92318d09b9)" d="
M75.8375 174.384
L552.676 174.384" style="fill:none;stroke:#bfbfbf;stroke-linecap:square;stroke-width:0.5;"/>
     </g>
     <g id="line2d_67">
      <g>
       <use style="stroke:#000000;stroke-width:0.5;" x="75.8375" xlink:href="#mcb0005524f" y="174.384444444"/>
      </g>
     </g>
     <g id="line2d_68">
      <g>
       <use style="stroke:#000000;stroke-width:0.5;" x="552.6759375" xlink:href="#m728421d6d4" y="174.384444444"/>
      </g>
     </g>
     <g id="text_13">
      <!-- 20 -->
      <g transform="translate(47.215625 178.905538194)scale(0.18 -0.18)">
       <use xlink:href="#Calibri-32"/>
       <use x="50.68359375" xlink:href="#Calibri-30"/>
      </g>
     </g>
    </g>
    <g id="ytick_7">
     <g id="line2d_69">
      <path clip-path="url(#p92318d09b9)" d="
M75.8375 136.053
L552.676 136.053" style="fill:none;stroke:#bfbfbf;stroke-linecap:square;stroke-width:0.5;"/>
     </g>
     <g id="line2d_70">
      <g>
       <use style="stroke:#000000;stroke-width:0.5;" x="75.8375" xlink:href="#mcb0005524f" y="136.053333333"/>
      </g>
     </g>
     <g id="line2d_71">
      <g>
       <use style="stroke:#000000;stroke-width:0.5;" x="552.6759375" xlink:href="#m728421d6d4" y="136.053333333"/>
      </g>
     </g>
     <g id="text_14">
      <!-- 40 -->
      <g transform="translate(46.63625 140.574427083)scale(0.18 -0.18)">
       <use xlink:href="#Calibri-34"/>
       <use x="50.68359375" xlink:href="#Calibri-30"/>
      </g>
     </g>
    </g>
    <g id="ytick_8">
     <g id="line2d_72">
      <path clip-path="url(#p92318d09b9)" d="
M75.8375 97.7222
L552.676 97.7222" style="fill:none;stroke:#bfbfbf;stroke-linecap:square;stroke-width:0.5;"/>
     </g>
     <g id="line2d_73">
      <g>
       <use style="stroke:#000000;stroke-width:0.5;" x="75.8375" xlink:href="#mcb0005524f" y="97.7222222222"/>
      </g>
     </g>
     <g id="line2d_74">
      <g>
       <use style="stroke:#000000;stroke-width:0.5;" x="552.6759375" xlink:href="#m728421d6d4" y="97.7222222222"/>
      </g>
     </g>
     <g id="text_15">
      <!-- 60 -->
      <g transform="translate(47.15375 102.243315972)scale(0.18 -0.18)">
       <use xlink:href="#Calibri-36"/>
       <use x="50.68359375" xlink:href="#Calibri-30"/>
      </g>
     </g>
    </g>
    <g id="ytick_9">
     <g id="line2d_75">
      <path clip-path="url(#p92318d09b9)" d="
M75.8375 59.3911
L552.676 59.3911" style="fill:none;stroke:#bfbfbf;stroke-linecap:square;stroke-width:0.5;"/>
     </g>
     <g id="line2d_76">
      <g>
       <use style="stroke:#000000;stroke-width:0.5;" x="75.8375" xlink:href="#mcb0005524f" y="59.3911111111"/>
      </g>
     </g>
     <g id="line2d_77">
      <g>
       <use style="stroke:#000000;stroke-width:0.5;" x="552.6759375" xlink:href="#m728421d6d4" y="59.3911111111"/>
      </g>
     </g>
     <g id="text_16">
      <!-- 80 -->
      <g transform="translate(46.934375 63.9122048611)scale(0.18 -0.18)">
       <use xlink:href="#Calibri-38"/>
       <use x="50.68359375" xlink:href="#Calibri-30"/>
      </g>
     </g>
    </g>
    <g id="ytick_10">
     <g id="line2d_78">
      <path clip-path="url(#p92318d09b9)" d="
M75.8375 21.06
L552.676 21.06" style="fill:none;stroke:#bfbfbf;stroke-linecap:square;stroke-width:0.5;"/>
     </g>
     <g id="line2d_79">
      <g>
       <use style="stroke:#000000;stroke-width:0.5;" x="75.8375" xlink:href="#mcb0005524f" y="21.06"/>
      </g>
     </g>
     <g id="line2d_80">
      <g>
       <use style="stroke:#000000;stroke-width:0.5;" x="552.6759375" xlink:href="#m728421d6d4" y="21.06"/>
      </g>
     </g>
     <g id="text_17">
      <!-- 100 -->
      <g transform="translate(38.620625 25.58109375)scale(0.18 -0.18)">
       <use xlink:href="#Calibri-31"/>
       <use x="50.68359375" xlink:href="#Calibri-30"/>
       <use x="101.3671875" xlink:href="#Calibri-30"/>
      </g>
     </g>
    </g>
    <g id="ytick_11">
     <g id="line2d_81">
      <defs>
       <path d="
M0 0
L-2 0" id="ma4f294b3af" style="stroke:#000000;stroke-width:0.5;"/>
      </defs>
      <g>
       <use style="stroke:#000000;stroke-width:0.5;" x="75.8375" xlink:href="#ma4f294b3af" y="356.457222222"/>
      </g>
     </g>
     <g id="line2d_82">
      <defs>
       <path d="
M0 0
L2 0" id="mf0c55a9a47" style="stroke:#000000;stroke-width:0.5;"/>
      </defs>
      <g>
       <use style="stroke:#000000;stroke-width:0.5;" x="552.6759375" xlink:href="#mf0c55a9a47" y="356.457222222"/>
      </g>
     </g>
    </g>
    <g id="ytick_12">
     <g id="line2d_83">
      <g>
       <use style="stroke:#000000;stroke-width:0.5;" x="75.8375" xlink:href="#ma4f294b3af" y="346.874444444"/>
      </g>
     </g>
     <g id="line2d_84">
      <g>
       <use style="stroke:#000000;stroke-width:0.5;" x="552.6759375" xlink:href="#mf0c55a9a47" y="346.874444444"/>
      </g>
     </g>
    </g>
    <g id="ytick_13">
     <g id="line2d_85">
      <g>
       <use style="stroke:#000000;stroke-width:0.5;" x="75.8375" xlink:href="#ma4f294b3af" y="337.291666667"/>
      </g>
     </g>
     <g id="line2d_86">
      <g>
       <use style="stroke:#000000;stroke-width:0.5;" x="552.6759375" xlink:href="#mf0c55a9a47" y="337.291666667"/>
      </g>
     </g>
    </g>
    <g id="ytick_14">
     <g id="line2d_87">
      <g>
       <use style="stroke:#000000;stroke-width:0.5;" x="75.8375" xlink:href="#ma4f294b3af" y="318.126111111"/>
      </g>
     </g>
     <g id="line2d_88">
      <g>
       <use style="stroke:#000000;stroke-width:0.5;" x="552.6759375" xlink:href="#mf0c55a9a47" y="318.126111111"/>
      </g>
     </g>
    </g>
    <g id="ytick_15">
     <g id="line2d_89">
      <g>
       <use style="stroke:#000000;stroke-width:0.5;" x="75.8375" xlink:href="#ma4f294b3af" y="308.543333333"/>
      </g>
     </g>
     <g id="line2d_90">
      <g>
       <use style="stroke:#000000;stroke-width:0.5;" x="552.6759375" xlink:href="#mf0c55a9a47" y="308.543333333"/>
      </g>
     </g>
    </g>
    <g id="ytick_16">
     <g id="line2d_91">
      <g>
       <use style="stroke:#000000;stroke-width:0.5;" x="75.8375" xlink:href="#ma4f294b3af" y="298.960555556"/>
      </g>
     </g>
     <g id="line2d_92">
      <g>
       <use style="stroke:#000000;stroke-width:0.5;" x="552.6759375" xlink:href="#mf0c55a9a47" y="298.960555556"/>
      </g>
     </g>
    </g>
    <g id="ytick_17">
     <g id="line2d_93">
      <g>
       <use style="stroke:#000000;stroke-width:0.5;" x="75.8375" xlink:href="#ma4f294b3af" y="279.795"/>
      </g>
     </g>
     <g id="line2d_94">
      <g>
       <use style="stroke:#000000;stroke-width:0.5;" x="552.6759375" xlink:href="#mf0c55a9a47" y="279.795"/>
      </g>
     </g>
    </g>
    <g id="ytick_18">
     <g id="line2d_95">
      <g>
       <use style="stroke:#000000;stroke-width:0.5;" x="75.8375" xlink:href="#ma4f294b3af" y="270.212222222"/>
      </g>
     </g>
     <g id="line2d_96">
      <g>
       <use style="stroke:#000000;stroke-width:0.5;" x="552.6759375" xlink:href="#mf0c55a9a47" y="270.212222222"/>
      </g>
     </g>
    </g>
    <g id="ytick_19">
     <g id="line2d_97">
      <g>
       <use style="stroke:#000000;stroke-width:0.5;" x="75.8375" xlink:href="#ma4f294b3af" y="260.629444444"/>
      </g>
     </g>
     <g id="line2d_98">
      <g>
       <use style="stroke:#000000;stroke-width:0.5;" x="552.6759375" xlink:href="#mf0c55a9a47" y="260.629444444"/>
      </g>
     </g>
    </g>
    <g id="ytick_20">
     <g id="line2d_99">
      <g>
       <use style="stroke:#000000;stroke-width:0.5;" x="75.8375" xlink:href="#ma4f294b3af" y="241.463888889"/>
      </g>
     </g>
     <g id="line2d_100">
      <g>
       <use style="stroke:#000000;stroke-width:0.5;" x="552.6759375" xlink:href="#mf0c55a9a47" y="241.463888889"/>
      </g>
     </g>
    </g>
    <g id="ytick_21">
     <g id="line2d_101">
      <g>
       <use style="stroke:#000000;stroke-width:0.5;" x="75.8375" xlink:href="#ma4f294b3af" y="231.881111111"/>
      </g>
     </g>
     <g id="line2d_102">
      <g>
       <use style="stroke:#000000;stroke-width:0.5;" x="552.6759375" xlink:href="#mf0c55a9a47" y="231.881111111"/>
      </g>
     </g>
    </g>
    <g id="ytick_22">
     <g id="line2d_103">
      <g>
       <use style="stroke:#000000;stroke-width:0.5;" x="75.8375" xlink:href="#ma4f294b3af" y="222.298333333"/>
      </g>
     </g>
     <g id="line2d_104">
      <g>
       <use style="stroke:#000000;stroke-width:0.5;" x="552.6759375" xlink:href="#mf0c55a9a47" y="222.298333333"/>
      </g>
     </g>
    </g>
    <g id="ytick_23">
     <g id="line2d_105">
      <g>
       <use style="stroke:#000000;stroke-width:0.5;" x="75.8375" xlink:href="#ma4f294b3af" y="203.132777778"/>
      </g>
     </g>
     <g id="line2d_106">
      <g>
       <use style="stroke:#000000;stroke-width:0.5;" x="552.6759375" xlink:href="#mf0c55a9a47" y="203.132777778"/>
      </g>
     </g>
    </g>
    <g id="ytick_24">
     <g id="line2d_107">
      <g>
       <use style="stroke:#000000;stroke-width:0.5;" x="75.8375" xlink:href="#ma4f294b3af" y="193.55"/>
      </g>
     </g>
     <g id="line2d_108">
      <g>
       <use style="stroke:#000000;stroke-width:0.5;" x="552.6759375" xlink:href="#mf0c55a9a47" y="193.55"/>
      </g>
     </g>
    </g>
    <g id="ytick_25">
     <g id="line2d_109">
      <g>
       <use style="stroke:#000000;stroke-width:0.5;" x="75.8375" xlink:href="#ma4f294b3af" y="183.967222222"/>
      </g>
     </g>
     <g id="line2d_110">
      <g>
       <use style="stroke:#000000;stroke-width:0.5;" x="552.6759375" xlink:href="#mf0c55a9a47" y="183.967222222"/>
      </g>
     </g>
    </g>
    <g id="ytick_26">
     <g id="line2d_111">
      <g>
       <use style="stroke:#000000;stroke-width:0.5;" x="75.8375" xlink:href="#ma4f294b3af" y="164.801666667"/>
      </g>
     </g>
     <g id="line2d_112">
      <g>
       <use style="stroke:#000000;stroke-width:0.5;" x="552.6759375" xlink:href="#mf0c55a9a47" y="164.801666667"/>
      </g>
     </g>
    </g>
    <g id="ytick_27">
     <g id="line2d_113">
      <g>
       <use style="stroke:#000000;stroke-width:0.5;" x="75.8375" xlink:href="#ma4f294b3af" y="155.218888889"/>
      </g>
     </g>
     <g id="line2d_114">
      <g>
       <use style="stroke:#000000;stroke-width:0.5;" x="552.6759375" xlink:href="#mf0c55a9a47" y="155.218888889"/>
      </g>
     </g>
    </g>
    <g id="ytick_28">
     <g id="line2d_115">
      <g>
       <use style="stroke:#000000;stroke-width:0.5;" x="75.8375" xlink:href="#ma4f294b3af" y="145.636111111"/>
      </g>
     </g>
     <g id="line2d_116">
      <g>
       <use style="stroke:#000000;stroke-width:0.5;" x="552.6759375" xlink:href="#mf0c55a9a47" y="145.636111111"/>
      </g>
     </g>
    </g>
    <g id="ytick_29">
     <g id="line2d_117">
      <g>
       <use style="stroke:#000000;stroke-width:0.5;" x="75.8375" xlink:href="#ma4f294b3af" y="126.470555556"/>
      </g>
     </g>
     <g id="line2d_118">
      <g>
       <use style="stroke:#000000;stroke-width:0.5;" x="552.6759375" xlink:href="#mf0c55a9a47" y="126.470555556"/>
      </g>
     </g>
    </g>
    <g id="ytick_30">
     <g id="line2d_119">
      <g>
       <use style="stroke:#000000;stroke-width:0.5;" x="75.8375" xlink:href="#ma4f294b3af" y="116.887777778"/>
      </g>
     </g>
     <g id="line2d_120">
      <g>
       <use style="stroke:#000000;stroke-width:0.5;" x="552.6759375" xlink:href="#mf0c55a9a47" y="116.887777778"/>
      </g>
     </g>
    </g>
    <g id="ytick_31">
     <g id="line2d_121">
      <g>
       <use style="stroke:#000000;stroke-width:0.5;" x="75.8375" xlink:href="#ma4f294b3af" y="107.305"/>
      </g>
     </g>
     <g id="line2d_122">
      <g>
       <use style="stroke:#000000;stroke-width:0.5;" x="552.6759375" xlink:href="#mf0c55a9a47" y="107.305"/>
      </g>
     </g>
    </g>
    <g id="ytick_32">
     <g id="line2d_123">
      <g>
       <use style="stroke:#000000;stroke-width:0.5;" x="75.8375" xlink:href="#ma4f294b3af" y="88.1394444444"/>
      </g>
     </g>
     <g id="line2d_124">
      <g>
       <use style="stroke:#000000;stroke-width:0.5;" x="552.6759375" xlink:href="#mf0c55a9a47" y="88.1394444444"/>
      </g>
     </g>
    </g>
    <g id="ytick_33">
     <g id="line2d_125">
      <g>
       <use style="stroke:#000000;stroke-width:0.5;" x="75.8375" xlink:href="#ma4f294b3af" y="78.5566666667"/>
      </g>
     </g>
     <g id="line2d_126">
      <g>
       <use style="stroke:#000000;stroke-width:0.5;" x="552.6759375" xlink:href="#mf0c55a9a47" y="78.5566666667"/>
      </g>
     </g>
    </g>
    <g id="ytick_34">
     <g id="line2d_127">
      <g>
       <use style="stroke:#000000;stroke-width:0.5;" x="75.8375" xlink:href="#ma4f294b3af" y="68.9738888889"/>
      </g>
     </g>
     <g id="line2d_128">
      <g>
       <use style="stroke:#000000;stroke-width:0.5;" x="552.6759375" xlink:href="#mf0c55a9a47" y="68.9738888889"/>
      </g>
     </g>
    </g>
    <g id="ytick_35">
     <g id="line2d_129">
      <g>
       <use style="stroke:#000000;stroke-width:0.5;" x="75.8375" xlink:href="#ma4f294b3af" y="49.8083333333"/>
      </g>
     </g>
     <g id="line2d_130">
      <g>
       <use style="stroke:#000000;stroke-width:0.5;" x="552.6759375" xlink:href="#mf0c55a9a47" y="49.8083333333"/>
      </g>
     </g>
    </g>
    <g id="ytick_36">
     <g id="line2d_131">
      <g>
       <use style="stroke:#000000;stroke-width:0.5;" x="75.8375" xlink:href="#ma4f294b3af" y="40.2255555556"/>
      </g>
     </g>
     <g id="line2d_132">
      <g>
       <use style="stroke:#000000;stroke-width:0.5;" x="552.6759375" xlink:href="#mf0c55a9a47" y="40.2255555556"/>
      </g>
     </g>
    </g>
    <g id="ytick_37">
     <g id="line2d_133">
      <g>
       <use style="stroke:#000000;stroke-width:0.5;" x="75.8375" xlink:href="#ma4f294b3af" y="30.6427777778"/>
      </g>
     </g>
     <g id="line2d_134">
      <g>
       <use style="stroke:#000000;stroke-width:0.5;" x="552.6759375" xlink:href="#mf0c55a9a47" y="30.6427777778"/>
      </g>
     </g>
    </g>
    <g id="text_18">
     <!-- Heat flux convergence (W m$^{-2}$) -->
     <defs>
      <path d="
M45.125 1.21875
Q45.125 0.828125 44.9531 0.5625
Q44.7812 0.296875 44.3281 0.09375
Q43.8906 -0.09375 43.1875 -0.1875
Q42.4844 -0.296875 41.4531 -0.296875
Q40.3281 -0.296875 39.625 -0.1875
Q38.9219 -0.09375 38.5 0.09375
Q38.0938 0.296875 37.9375 0.5625
Q37.7969 0.828125 37.7969 1.21875
L37.7969 7.03125
Q34.0312 2.875 30.3594 0.96875
Q26.7031 -0.921875 22.9531 -0.921875
Q18.5625 -0.921875 15.5469 0.53125
Q12.5469 2 10.6875 4.51562
Q8.84375 7.03125 8.03125 10.375
Q7.23438 13.7188 7.23438 18.5
L7.23438 45.1719
Q7.23438 45.5625 7.39062 45.8281
Q7.5625 46.0938 8.04688 46.3125
Q8.54688 46.5312 9.32812 46.6094
Q10.1094 46.6875 11.2812 46.6875
Q12.4531 46.6875 13.2344 46.6094
Q14.0156 46.5312 14.4688 46.3125
Q14.9375 46.0938 15.125 45.8281
Q15.3281 45.5625 15.3281 45.1719
L15.3281 19.5781
Q15.3281 15.7188 15.8906 13.3906
Q16.4531 11.0781 17.5938 9.4375
Q18.75 7.8125 20.5 6.90625
Q22.2656 6 24.6094 6
Q27.6406 6 30.6406 8.14062
Q33.6406 10.2969 37.0156 14.4531
L37.0156 45.1719
Q37.0156 45.5625 37.1875 45.8281
Q37.3594 46.0938 37.8438 46.3125
Q38.3281 46.5312 39.0781 46.6094
Q39.8438 46.6875 41.0625 46.6875
Q42.2344 46.6875 43.0156 46.6094
Q43.7969 46.5312 44.2344 46.3125
Q44.6719 46.0938 44.8906 45.8281
Q45.125 45.5625 45.125 45.1719
z
" id="Calibri-75"/>
      <path d="
M43.5 45.2656
Q43.5 45.0625 43.4688 44.8438
Q43.4531 44.625 43.4062 44.375
Q43.3594 44.1406 43.2812 43.8438
Q43.2188 43.5625 43.1094 43.2188
L28.125 1.46875
Q27.9375 0.921875 27.6094 0.578125
Q27.2969 0.25 26.6562 0.046875
Q26.0312 -0.140625 25.0469 -0.21875
Q24.0781 -0.296875 22.6094 -0.296875
Q21.1406 -0.296875 20.1562 -0.1875
Q19.1875 -0.09375 18.5781 0.09375
Q17.9688 0.296875 17.625 0.640625
Q17.2812 0.984375 17.0938 1.46875
L2.15625 43.2188
Q1.95312 43.7969 1.82812 44.2344
Q1.70312 44.6719 1.67188 44.8906
Q1.65625 45.125 1.65625 45.2656
Q1.65625 45.6562 1.84375 45.9375
Q2.04688 46.2344 2.51562 46.4062
Q2.98438 46.5781 3.73438 46.625
Q4.5 46.6875 5.60938 46.6875
Q7.03125 46.6875 7.875 46.6094
Q8.73438 46.5312 9.20312 46.3281
Q9.67188 46.1406 9.89062 45.8438
Q10.1094 45.5625 10.2969 45.125
L22.7031 8.89062
L22.9062 8.29688
L23.0469 8.89062
L35.2969 45.125
Q35.4062 45.5625 35.6406 45.8438
Q35.8906 46.1406 36.3438 46.3281
Q36.8125 46.5312 37.6094 46.6094
Q38.4219 46.6875 39.75 46.6875
Q40.875 46.6875 41.5938 46.625
Q42.3281 46.5781 42.75 46.375
Q43.1719 46.1875 43.3281 45.9219
Q43.5 45.6562 43.5 45.2656" id="Calibri-76"/>
      <path d="
M68.8906 1.85938
Q68.7031 1.17188 68.3125 0.75
Q67.9219 0.34375 67.2344 0.125
Q66.5469 -0.09375 65.5469 -0.1875
Q64.5469 -0.296875 63.0938 -0.296875
Q61.5781 -0.296875 60.5156 -0.1875
Q59.4688 -0.09375 58.7812 0.125
Q58.1094 0.34375 57.7656 0.75
Q57.4219 1.17188 57.2344 1.85938
L44 49.5625
L43.8906 49.5625
L31.6875 1.85938
Q31.5469 1.17188 31.2031 0.75
Q30.8594 0.34375 30.2188 0.125
Q29.5938 -0.09375 28.5938 -0.1875
Q27.5938 -0.296875 26.0312 -0.296875
Q24.4219 -0.296875 23.3438 -0.1875
Q22.2656 -0.09375 21.5781 0.125
Q20.9062 0.34375 20.5312 0.75
Q20.1719 1.17188 20.0156 1.85938
L3.32812 60.2031
Q3.03125 61.3281 3 61.9531
Q2.98438 62.5938 3.39062 62.9375
Q3.8125 63.2812 4.73438 63.375
Q5.67188 63.4844 7.23438 63.4844
Q8.73438 63.4844 9.60938 63.4062
Q10.5 63.3281 10.9531 63.125
Q11.4219 62.9375 11.5938 62.5938
Q11.7656 62.25 11.8594 61.7188
L26.0781 8.79688
L26.125 8.79688
L39.5938 61.625
Q39.75 62.1562 39.9688 62.5156
Q40.1875 62.8906 40.6719 63.0781
Q41.1562 63.2812 42.0625 63.375
Q42.9688 63.4844 44.4375 63.4844
Q45.7969 63.4844 46.5938 63.375
Q47.4062 63.2812 47.8906 63.0781
Q48.3906 62.8906 48.6094 62.5156
Q48.8281 62.1562 48.9688 61.625
L63.4844 8.79688
L63.5781 8.79688
L77.4844 61.6719
Q77.6406 62.1562 77.7812 62.5156
Q77.9375 62.8906 78.3906 63.0781
Q78.8594 63.2812 79.7031 63.375
Q80.5625 63.4844 81.9844 63.4844
Q83.4531 63.4844 84.2969 63.3594
Q85.1562 63.2344 85.5469 62.8906
Q85.9375 62.5469 85.9062 61.9062
Q85.8906 61.2812 85.6406 60.1562
z
" id="Calibri-57"/>
      <path d="
M33.1562 42.2812
Q33.1562 41.2188 33.1094 40.4844
Q33.0625 39.75 32.9062 39.3281
Q32.7656 38.9219 32.5469 38.7031
Q32.3281 38.4844 31.9375 38.4844
Q31.5469 38.4844 30.9844 38.7031
Q30.4219 38.9219 29.7031 39.1406
Q29 39.3594 28.125 39.5469
Q27.25 39.75 26.2188 39.75
Q25 39.75 23.8281 39.25
Q22.6562 38.7656 21.3594 37.6406
Q20.0625 36.5312 18.6406 34.6719
Q17.2344 32.8125 15.5312 30.125
L15.5312 1.21875
Q15.5312 0.828125 15.3281 0.5625
Q15.1406 0.296875 14.7031 0.09375
Q14.2656 -0.09375 13.4844 -0.1875
Q12.7031 -0.296875 11.4688 -0.296875
Q10.2969 -0.296875 9.51562 -0.1875
Q8.73438 -0.09375 8.26562 0.09375
Q7.8125 0.296875 7.64062 0.5625
Q7.46875 0.828125 7.46875 1.21875
L7.46875 45.1719
Q7.46875 45.5625 7.60938 45.8281
Q7.76562 46.0938 8.20312 46.3125
Q8.64062 46.5312 9.32812 46.6094
Q10.0156 46.6875 11.1406 46.6875
Q12.2031 46.6875 12.9062 46.6094
Q13.625 46.5312 14.0156 46.3125
Q14.4062 46.0938 14.5781 45.8281
Q14.75 45.5625 14.75 45.1719
L14.75 38.7656
Q16.5469 41.4062 18.1406 43.0625
Q19.7344 44.7344 21.1406 45.6719
Q22.5625 46.625 23.9531 46.9844
Q25.3438 47.3594 26.7656 47.3594
Q27.3906 47.3594 28.1875 47.2812
Q29 47.2188 29.875 47.0156
Q30.7656 46.8281 31.4688 46.5781
Q32.1719 46.3438 32.4688 46.0938
Q32.7656 45.8438 32.8594 45.625
Q32.9531 45.4062 33.0312 45.0625
Q33.1094 44.7344 33.125 44.0625
Q33.1562 43.4062 33.1562 42.2812" id="Calibri-72"/>
      <path d="
M15.5312 1.21875
Q15.5312 0.828125 15.3281 0.5625
Q15.1406 0.296875 14.7031 0.09375
Q14.2656 -0.09375 13.4844 -0.1875
Q12.7031 -0.296875 11.4688 -0.296875
Q10.2969 -0.296875 9.51562 -0.1875
Q8.73438 -0.09375 8.26562 0.09375
Q7.8125 0.296875 7.64062 0.5625
Q7.46875 0.828125 7.46875 1.21875
L7.46875 66.4531
Q7.46875 66.8438 7.64062 67.1406
Q7.8125 67.4375 8.26562 67.625
Q8.73438 67.8281 9.51562 67.9219
Q10.2969 68.0156 11.4688 68.0156
Q12.7031 68.0156 13.4844 67.9219
Q14.2656 67.8281 14.7031 67.625
Q15.1406 67.4375 15.3281 67.1406
Q15.5312 66.8438 15.5312 66.4531
z
" id="Calibri-6c"/>
      <path d="
M53.9062 1.26562
Q53.9062 0.875 53.7031 0.578125
Q53.5156 0.296875 53.0312 0.125
Q52.5469 -0.046875 51.7344 -0.171875
Q50.9219 -0.296875 49.75 -0.296875
Q48.4844 -0.296875 47.7031 -0.171875
Q46.9219 -0.046875 46.4375 0.125
Q45.9531 0.296875 45.75 0.578125
Q45.5625 0.875 45.5625 1.26562
L45.5625 29.2969
L16.7969 29.2969
L16.7969 1.26562
Q16.7969 0.875 16.5938 0.578125
Q16.4062 0.296875 15.9219 0.125
Q15.4375 -0.046875 14.625 -0.171875
Q13.8125 -0.296875 12.5938 -0.296875
Q11.4219 -0.296875 10.5938 -0.171875
Q9.76562 -0.046875 9.28125 0.125
Q8.79688 0.296875 8.59375 0.578125
Q8.40625 0.875 8.40625 1.26562
L8.40625 61.9219
Q8.40625 62.3125 8.59375 62.5938
Q8.79688 62.8906 9.28125 63.0625
Q9.76562 63.2344 10.5938 63.3594
Q11.4219 63.4844 12.5938 63.4844
Q13.8125 63.4844 14.625 63.3594
Q15.4375 63.2344 15.9219 63.0625
Q16.4062 62.8906 16.5938 62.5938
Q16.7969 62.3125 16.7969 61.9219
L16.7969 36.625
L45.5625 36.625
L45.5625 61.9219
Q45.5625 62.3125 45.75 62.5938
Q45.9531 62.8906 46.4375 63.0625
Q46.9219 63.2344 47.7031 63.3594
Q48.4844 63.4844 49.75 63.4844
Q50.9219 63.4844 51.7344 63.3594
Q52.5469 63.2344 53.0312 63.0625
Q53.5156 62.8906 53.7031 62.5938
Q53.9062 62.3125 53.9062 61.9219
z
" id="Calibri-48"/>
      <path d="
M40.7656 2.15625
Q41.1562 1.46875 41.1562 1
Q41.1562 0.53125 40.6875 0.234375
Q40.2344 -0.046875 39.2812 -0.171875
Q38.3281 -0.296875 36.8125 -0.296875
Q35.3594 -0.296875 34.5 -0.21875
Q33.6406 -0.140625 33.125 0.03125
Q32.625 0.203125 32.3438 0.46875
Q32.0781 0.734375 31.8906 1.07812
L21.3438 18.5
L10.8438 1.07812
Q10.6406 0.734375 10.375 0.46875
Q10.1094 0.203125 9.59375 0.03125
Q9.07812 -0.140625 8.25 -0.21875
Q7.42188 -0.296875 6.0625 -0.296875
Q4.64062 -0.296875 3.73438 -0.171875
Q2.82812 -0.046875 2.40625 0.234375
Q2 0.53125 2.01562 1
Q2.04688 1.46875 2.48438 2.15625
L16.1562 23.5781
L3.21875 44.2344
Q2.82812 44.9219 2.79688 45.375
Q2.78125 45.8438 3.25 46.1562
Q3.71875 46.4844 4.65625 46.5781
Q5.60938 46.6875 7.17188 46.6875
Q8.59375 46.6875 9.4375 46.6094
Q10.2969 46.5312 10.7812 46.375
Q11.2812 46.2344 11.5156 45.9844
Q11.7656 45.75 11.9688 45.4062
L21.9688 29.0469
L32.125 45.4062
Q32.3281 45.7031 32.5625 45.9375
Q32.8125 46.1875 33.2188 46.3594
Q33.6406 46.5312 34.3906 46.6094
Q35.1562 46.6875 36.4688 46.6875
Q37.8906 46.6875 38.7969 46.5781
Q39.7031 46.4844 40.1406 46.2188
Q40.5781 45.9531 40.5312 45.4531
Q40.4844 44.9688 40.0469 44.2344
L27.2031 23.8281
z
" id="Calibri-78"/>
      <path d="
M72.6562 1.21875
Q72.6562 0.828125 72.4531 0.5625
Q72.2656 0.296875 71.8281 0.09375
Q71.3906 -0.09375 70.6094 -0.1875
Q69.8281 -0.296875 68.6562 -0.296875
Q67.4375 -0.296875 66.6562 -0.1875
Q65.875 -0.09375 65.4062 0.09375
Q64.9375 0.296875 64.7344 0.5625
Q64.5469 0.828125 64.5469 1.21875
L64.5469 27.9375
Q64.5469 30.7188 64.0625 33
Q63.5781 35.2969 62.5 36.9531
Q61.4219 38.625 59.7656 39.5
Q58.1094 40.375 55.8594 40.375
Q53.0781 40.375 50.2656 38.2188
Q47.4688 36.0781 44.0938 31.9375
L44.0938 1.21875
Q44.0938 0.828125 43.8906 0.5625
Q43.7031 0.296875 43.2344 0.09375
Q42.7812 -0.09375 42 -0.1875
Q41.2188 -0.296875 40.0469 -0.296875
Q38.9219 -0.296875 38.1094 -0.1875
Q37.3125 -0.09375 36.8438 0.09375
Q36.375 0.296875 36.2031 0.5625
Q36.0312 0.828125 36.0312 1.21875
L36.0312 27.9375
Q36.0312 30.7188 35.5 33
Q34.9688 35.2969 33.8906 36.9531
Q32.8125 38.625 31.1719 39.5
Q29.5469 40.375 27.2969 40.375
Q24.5156 40.375 21.6719 38.2188
Q18.8438 36.0781 15.5312 31.9375
L15.5312 1.21875
Q15.5312 0.828125 15.3281 0.5625
Q15.1406 0.296875 14.7031 0.09375
Q14.2656 -0.09375 13.4844 -0.1875
Q12.7031 -0.296875 11.4688 -0.296875
Q10.2969 -0.296875 9.51562 -0.1875
Q8.73438 -0.09375 8.26562 0.09375
Q7.8125 0.296875 7.64062 0.5625
Q7.46875 0.828125 7.46875 1.21875
L7.46875 45.1719
Q7.46875 45.5625 7.60938 45.8281
Q7.76562 46.0938 8.20312 46.3125
Q8.64062 46.5312 9.32812 46.6094
Q10.0156 46.6875 11.1406 46.6875
Q12.2031 46.6875 12.9062 46.6094
Q13.625 46.5312 14.0156 46.3125
Q14.4062 46.0938 14.5781 45.8281
Q14.75 45.5625 14.75 45.1719
L14.75 39.3594
Q18.4531 43.5 21.9375 45.4219
Q25.4375 47.3594 29 47.3594
Q31.7344 47.3594 33.9062 46.7188
Q36.0781 46.0938 37.7344 44.9375
Q39.4062 43.7969 40.5781 42.2031
Q41.75 40.625 42.5312 38.6719
Q44.7344 41.0625 46.7031 42.7188
Q48.6875 44.3906 50.5156 45.4062
Q52.3438 46.4375 54.0781 46.8906
Q55.8125 47.3594 57.5625 47.3594
Q61.8125 47.3594 64.6875 45.875
Q67.5781 44.3906 69.3594 41.8906
Q71.1406 39.4062 71.8906 36.0625
Q72.6562 32.7188 72.6562 29
z
" id="Calibri-6d"/>
      <path d="
M40.5781 1.17188
Q40.5781 0.59375 40.1875 0.296875
Q39.7969 0 39.1094 -0.140625
Q38.4219 -0.296875 37.1094 -0.296875
Q35.8438 -0.296875 35.0781 -0.140625
Q34.3281 0 33.9844 0.296875
Q33.6406 0.59375 33.6406 1.17188
L33.6406 5.5625
Q30.7656 2.48438 27.2188 0.78125
Q23.6875 -0.921875 19.7344 -0.921875
Q16.2656 -0.921875 13.4531 -0.015625
Q10.6406 0.875 8.65625 2.57812
Q6.6875 4.29688 5.59375 6.78125
Q4.5 9.28125 4.5 12.4531
Q4.5 16.1562 6 18.8906
Q7.51562 21.625 10.3438 23.4375
Q13.1875 25.25 17.2812 26.1406
Q21.3906 27.0469 26.5156 27.0469
L32.5625 27.0469
L32.5625 30.4688
Q32.5625 33.0156 32.0312 34.9688
Q31.5 36.9219 30.2969 38.2031
Q29.1094 39.5 27.2031 40.1562
Q25.2969 40.8281 22.5156 40.8281
Q19.5312 40.8281 17.1562 40.1094
Q14.7969 39.4062 13.0156 38.5469
Q11.2344 37.7031 10.0312 36.9844
Q8.84375 36.2812 8.25 36.2812
Q7.85938 36.2812 7.5625 36.4688
Q7.28125 36.6719 7.0625 37.0625
Q6.84375 37.4531 6.73438 38.0625
Q6.64062 38.6719 6.64062 39.4062
Q6.64062 40.625 6.8125 41.3281
Q6.98438 42.0469 7.64062 42.6719
Q8.29688 43.3125 9.90625 44.1562
Q11.5312 45.0156 13.625 45.7188
Q15.7188 46.4375 18.2031 46.8906
Q20.7031 47.3594 23.25 47.3594
Q27.9844 47.3594 31.2969 46.2812
Q34.625 45.2188 36.6719 43.1406
Q38.7188 41.0625 39.6406 37.9844
Q40.5781 34.9062 40.5781 30.8125
z

M32.5625 21.2344
L25.6875 21.2344
Q22.3594 21.2344 19.9219 20.6719
Q17.4844 20.125 15.875 19.0156
Q14.2656 17.9219 13.5 16.375
Q12.75 14.8438 12.75 12.8438
Q12.75 9.42188 14.9219 7.39062
Q17.0938 5.375 21 5.375
Q24.1719 5.375 26.875 6.98438
Q29.5938 8.59375 32.5625 11.9219
z
" id="Calibri-61"/>
      <path d="
M31.5469 63.2344
Q31.5469 62.3125 31.4375 61.75
Q31.3438 61.1875 31.2188 60.8438
Q31.1094 60.5 30.9062 60.375
Q30.7188 60.25 30.4219 60.25
Q30.0781 60.25 29.5625 60.4688
Q29.0469 60.6875 28.3125 60.9531
Q27.5938 61.2344 26.5938 61.4531
Q25.5938 61.6719 24.2656 61.6719
Q22.4688 61.6719 21.1875 61.0781
Q19.9219 60.5 19.1406 59.25
Q18.3594 58.0156 18.0156 56.0312
Q17.6719 54.0469 17.6719 51.2188
L17.6719 46.4375
L27.4844 46.4375
Q27.875 46.4375 28.1406 46.2656
Q28.4219 46.0938 28.6406 45.6719
Q28.8594 45.2656 28.9844 44.625
Q29.1094 44 29.1094 43.0625
Q29.1094 41.3125 28.6562 40.5312
Q28.2188 39.75 27.4844 39.75
L17.6719 39.75
L17.6719 1.21875
Q17.6719 0.828125 17.4688 0.5625
Q17.2812 0.296875 16.8125 0.09375
Q16.3594 -0.09375 15.5781 -0.1875
Q14.7969 -0.296875 13.625 -0.296875
Q12.4531 -0.296875 11.6719 -0.1875
Q10.8906 -0.09375 10.4219 0.09375
Q9.96875 0.296875 9.76562 0.5625
Q9.57812 0.828125 9.57812 1.21875
L9.57812 39.75
L3.375 39.75
Q2.59375 39.75 2.20312 40.5312
Q1.8125 41.3125 1.8125 43.0625
Q1.8125 44 1.90625 44.625
Q2 45.2656 2.1875 45.6719
Q2.39062 46.0938 2.6875 46.2656
Q2.98438 46.4375 3.375 46.4375
L9.57812 46.4375
L9.57812 50.9844
Q9.57812 55.5625 10.4219 58.8594
Q11.2812 62.1562 13.0312 64.25
Q14.7969 66.3594 17.4531 67.3594
Q20.125 68.3594 23.7344 68.3594
Q25.4375 68.3594 27.0469 68.0312
Q28.6562 67.7188 29.5312 67.3594
Q30.4219 67 30.7031 66.7031
Q31 66.4062 31.1875 65.9375
Q31.3906 65.4844 31.4688 64.8125
Q31.5469 64.1562 31.5469 63.2344" id="Calibri-66"/>
      <path d="
M23.7812 26.2188
Q23.7812 20.7031 23.0938 15.2969
Q22.4062 9.90625 21.0312 4.625
Q19.6719 -0.640625 17.6875 -5.73438
Q15.7188 -10.8438 13.0938 -15.8281
Q12.9375 -16.0625 12.6406 -16.25
Q12.3594 -16.4531 11.8906 -16.5938
Q11.4219 -16.75 10.7812 -16.7969
Q10.1562 -16.8438 9.28125 -16.8438
Q8.01562 -16.8438 7.29688 -16.7188
Q6.59375 -16.6094 6.26562 -16.3281
Q5.95312 -16.0625 5.96875 -15.6406
Q6 -15.2344 6.25 -14.6562
Q10.75 -4.78125 13.0312 5.54688
Q15.3281 15.875 15.3281 26.375
Q15.3281 36.8125 13.0312 47.1406
Q10.75 57.4688 6.15625 67.2812
Q5.95312 67.7188 6 68.1094
Q6.0625 68.5 6.45312 68.75
Q6.84375 69 7.51562 69.1406
Q8.20312 69.2812 9.32812 69.2812
Q10.3594 69.2812 11.0312 69.2031
Q11.7188 69.1406 12.125 68.9844
Q12.5469 68.8438 12.7344 68.7031
Q12.9375 68.5625 13.0312 68.3594
Q18.0625 58.3438 20.9219 47.7656
Q23.7812 37.2031 23.7812 26.2188" id="Calibri-29"/>
      <path d="
M24.1719 67.2812
Q19.5312 57.4688 17.25 47.1406
Q14.9844 36.8125 14.9844 26.375
Q14.9844 15.875 17.2969 5.5625
Q19.625 -4.73438 24.0781 -14.6562
Q24.3125 -15.2344 24.3281 -15.6406
Q24.3594 -16.0625 24.0156 -16.3281
Q23.6875 -16.6094 22.9688 -16.7188
Q22.2656 -16.8438 21.0469 -16.8438
Q20.1719 -16.8438 19.5312 -16.7969
Q18.8906 -16.75 18.4219 -16.5938
Q17.9688 -16.4531 17.6719 -16.25
Q17.3906 -16.0625 17.2344 -15.8281
Q14.5938 -10.8438 12.5938 -5.73438
Q10.5938 -0.640625 9.21875 4.625
Q7.85938 9.90625 7.17188 15.2969
Q6.5 20.7031 6.5 26.2188
Q6.5 31.7344 7.25 37.1094
Q8.01562 42.4844 9.40625 47.7812
Q10.7969 53.0781 12.7969 58.2031
Q14.7969 63.3281 17.2812 68.3594
Q17.3281 68.5625 17.5469 68.7031
Q17.7812 68.8438 18.1719 68.9844
Q18.5625 69.1406 19.2344 69.2031
Q19.9219 69.2812 21 69.2812
Q22.125 69.2812 22.7969 69.1406
Q23.4844 69 23.875 68.75
Q24.2656 68.5 24.3125 68.1094
Q24.3594 67.7188 24.1719 67.2812" id="Calibri-28"/>
     </defs>
     <g transform="translate(29.6775 306.86)rotate(-90.0)scale(0.18 -0.18)">
      <use transform="translate(0.0 0.71875)" xlink:href="#Calibri-48"/>
      <use transform="translate(62.3046875 0.71875)" xlink:href="#Calibri-65"/>
      <use transform="translate(112.060546875 0.71875)" xlink:href="#Calibri-61"/>
      <use transform="translate(159.9609375 0.71875)" xlink:href="#Calibri-74"/>
      <use transform="translate(193.45703125 0.71875)" xlink:href="#Calibri-20"/>
      <use transform="translate(216.064453125 0.71875)" xlink:href="#Calibri-66"/>
      <use transform="translate(246.58203125 0.71875)" xlink:href="#Calibri-6c"/>
      <use transform="translate(269.53125 0.71875)" xlink:href="#Calibri-75"/>
      <use transform="translate(322.0703125 0.71875)" xlink:href="#Calibri-78"/>
      <use transform="translate(365.380859375 0.71875)" xlink:href="#Calibri-20"/>
      <use transform="translate(386.98828125 0.71875)" xlink:href="#Calibri-63"/>
      <use transform="translate(429.2734375 0.71875)" xlink:href="#Calibri-6f"/>
      <use transform="translate(482.0078125 0.71875)" xlink:href="#Calibri-6e"/>
      <use transform="translate(534.546875 0.71875)" xlink:href="#Calibri-76"/>
      <use transform="translate(579.712890625 0.71875)" xlink:href="#Calibri-65"/>
      <use transform="translate(629.46875 0.71875)" xlink:href="#Calibri-72"/>
      <use transform="translate(664.33203125 0.71875)" xlink:href="#Calibri-67"/>
      <use transform="translate(711.40234375 0.71875)" xlink:href="#Calibri-65"/>
      <use transform="translate(761.158203125 0.71875)" xlink:href="#Calibri-6e"/>
      <use transform="translate(813.697265625 0.71875)" xlink:href="#Calibri-63"/>
      <use transform="translate(855.982421875 0.71875)" xlink:href="#Calibri-65"/>
      <use transform="translate(905.73828125 0.71875)" xlink:href="#Calibri-20"/>
      <use transform="translate(927.220703125 0.71875)" xlink:href="#Calibri-28"/>
      <use transform="translate(957.54296875 0.71875)" xlink:href="#Calibri-57"/>
      <use transform="translate(1046.5078125 0.71875)" xlink:href="#Calibri-20"/>
      <use transform="translate(1069.11523438 0.71875)" xlink:href="#Calibri-6d"/>
      <use transform="translate(1148.99804688 24.0625)scale(0.7)" xlink:href="#Calibri-2212"/>
      <use transform="translate(1183.86132812 24.0625)scale(0.7)" xlink:href="#Calibri-32"/>
      <use transform="translate(1228.67734375 0.71875)" xlink:href="#Calibri-29"/>
     </g>
    </g>
   </g>
   <g id="line2d_135">
    <path clip-path="url(#p92318d09b9)" d="
M75.8375 212.716
L552.676 212.716" style="fill:none;stroke:#333333;stroke-linecap:square;stroke-width:0.8;"/>
   </g>
   <g id="line2d_136">
    <path clip-path="url(#p92318d09b9)" d="
M75.8375 263.283
L80.6059 272.656
L85.3743 281.608
L90.1427 290.066
L94.911 297.965
L99.6794 305.248
L104.448 311.866
L109.216 317.78
L113.985 322.957
L118.753 327.372
L123.521 331.011
L128.29 333.864
L133.058 335.931
L137.826 337.22
L142.595 337.743
L147.363 337.523
L152.132 336.585
L156.9 334.962
L161.668 332.693
L166.437 329.822
L171.205 326.396
L175.974 322.468
L180.742 318.092
L185.51 313.327
L190.279 308.234
L195.047 302.873
L199.815 297.309
L204.584 291.602
L209.352 285.816
L214.121 280.011
L218.889 274.245
L223.657 268.573
L228.426 263.046
L233.194 257.712
L237.963 252.611
L242.731 247.781
L247.499 243.25
L252.268 239.043
L257.036 235.174
L261.804 231.652
L266.573 228.48
L271.341 225.652
L276.11 223.154
L280.878 220.967
L285.646 219.066
L290.415 217.418
L295.183 215.986
L299.952 214.73
L304.72 213.606
L309.488 212.566
L314.257 211.562
L319.025 210.546
L323.793 209.47
L328.562 208.289
L333.33 206.959
L338.099 205.443
L342.867 203.707
L347.635 201.722
L352.404 199.469
L357.172 196.933
L361.941 194.11
L366.709 191.001
L371.477 187.619
L376.246 183.982
L381.014 180.119
L385.782 176.065
L390.551 171.861
L395.319 167.555
L400.088 163.2
L404.856 158.849
L409.624 154.558
L414.393 150.383
L419.161 146.374
L423.93 142.576
L428.698 139.026
L433.466 135.753
L438.235 132.768
L443.003 130.07
L447.771 127.643
L452.54 125.45
L457.308 123.436
L462.077 121.53
L466.845 119.642
L471.613 117.668
L476.382 115.493
L481.15 112.994
L485.919 110.054
L490.687 106.56
L495.455 102.424
L500.224 97.5902
L504.992 92.0556
L509.76 85.8864
L514.529 79.242
L519.297 72.4008
L524.066 65.7884
L528.834 60.0093
L533.602 55.8773
L538.371 54.4456
L543.139 57.03
L547.908 65.2203
L552.676 80.8733" style="fill:none;stroke:#0000ff;stroke-linecap:square;stroke-width:1.5;"/>
   </g>
   <g id="line2d_137">
    <path clip-path="url(#p92318d09b9)" d="
M171.205 305.836
L175.974 302.799
L180.742 299.762
L185.51 296.724
L190.279 293.687
L195.047 290.65
L199.815 287.612
L204.584 284.575
L209.352 281.538
L214.121 278.5
L218.889 275.463
L223.657 272.425
L228.426 269.388
L233.194 266.351
L237.963 263.313
L242.731 260.276
L247.499 257.239
L252.268 254.201
L257.036 251.164
L261.804 248.127
L266.573 245.089
L271.341 242.052
L276.11 239.015
L280.878 235.977
L285.646 232.94
L290.415 229.903
L295.183 226.865
L299.952 223.828
L304.72 220.791
L309.488 217.753
L314.257 214.716
L319.025 211.678
L323.793 208.641
L328.562 205.604
L333.33 202.566
L338.099 199.529
L342.867 196.492
L347.635 193.454
L352.404 190.417
L357.172 187.38
L361.941 184.342
L366.709 181.305
L371.477 178.268
L376.246 175.23
L381.014 172.193
L385.782 169.156
L390.551 166.118
L395.319 163.081
L400.088 160.043
L404.856 157.006
L409.624 153.969
L414.393 150.931
L419.161 147.894
L423.93 144.857
L428.698 141.819
L433.466 138.782
L438.235 135.745
L443.003 132.707
L447.771 129.67
L452.54 126.633
L457.308 123.595
L462.077 120.558
L466.845 117.521
L471.613 114.483
L476.382 111.446" style="fill:none;stroke:#0000ff;stroke-dasharray:6.000000,6.000000;stroke-dashoffset:0.0;stroke-width:1.5;"/>
   </g>
   <g id="patch_3">
    <path d="
M75.8375 21.06
L552.676 21.06" style="fill:none;stroke:#000000;stroke-linecap:square;stroke-linejoin:miter;"/>
   </g>
   <g id="patch_4">
    <path d="
M552.676 366.04
L552.676 21.06" style="fill:none;stroke:#000000;stroke-linecap:square;stroke-linejoin:miter;"/>
   </g>
   <g id="patch_5">
    <path d="
M75.8375 366.04
L552.676 366.04" style="fill:none;stroke:#000000;stroke-linecap:square;stroke-linejoin:miter;"/>
   </g>
   <g id="patch_6">
    <path d="
M75.8375 366.04
L75.8375 21.06" style="fill:none;stroke:#000000;stroke-linecap:square;stroke-linejoin:miter;"/>
   </g>
   <g id="legend_1">
    <g id="patch_7">
     <path d="
M83.8375 55.905
L215.518 55.905
L215.518 29.06
L83.8375 29.06
z
" style="fill:#ffffff;stroke:#000000;stroke-linejoin:miter;"/>
    </g>
    <g id="line2d_138">
     <path d="
M95.0375 41.06
L117.438 41.06" style="fill:none;stroke:#0000ff;stroke-linecap:square;stroke-width:1.5;"/>
    </g>
    <g id="line2d_139"/>
    <g id="text_19">
     <!-- $D/D_0=1.00$ -->
     <defs>
      <path d="
M59.625 40.4375
Q59.625 37.25 59.1719 33.8125
Q58.7344 30.375 57.7812 26.9219
Q56.8438 23.4844 55.3281 20.1562
Q53.8125 16.8438 51.6406 13.8438
Q49.4688 10.8438 46.6094 8.29688
Q43.75 5.76562 40.0781 3.90625
Q36.4219 2.04688 31.9219 1.01562
Q27.4375 0 21.1406 0
L7.125 0
Q6.5 0 5.9375 0.171875
Q5.375 0.34375 4.98438 0.734375
Q4.59375 1.125 4.4375 1.78125
Q4.29688 2.4375 4.54688 3.42188
L15.7656 59.7656
Q16.1094 61.6719 17.25 62.4219
Q18.4062 63.1875 19.875 63.1875
L33.2031 63.1875
Q40.4844 63.1875 45.2656 61.6406
Q50.0469 60.1094 53.25 57.1719
Q56.4531 54.25 58.0312 50.0156
Q59.625 45.7969 59.625 40.4375
M50.7344 39.7031
Q50.7344 43.3125 49.7344 46.3281
Q48.7344 49.3594 46.5781 51.5312
Q44.4375 53.7188 41.0938 54.9531
Q37.75 56.2031 32.2344 56.2031
L23.4375 56.2031
L13.625 7.03125
L22.3125 7.03125
Q28.2656 7.03125 32.2656 8.46875
Q36.2812 9.90625 39.3594 12.375
Q42.4375 14.8438 44.5781 18.1094
Q46.7344 21.3906 48.0938 25
Q49.4688 28.6094 50.0938 32.3906
Q50.7344 36.1875 50.7344 39.7031" id="Calibri-Italic-44"/>
      <path d="
M8.20312 -11.7656
Q8.01562 -12.4062 7.6875 -12.7656
Q7.375 -13.1406 6.875 -13.3281
Q6.39062 -13.5312 5.6875 -13.625
Q4.98438 -13.7188 3.95312 -13.7188
Q2.73438 -13.7188 1.92188 -13.5469
Q1.125 -13.375 0.6875 -13.0625
Q0.25 -12.75 0.140625 -12.2812
Q0.046875 -11.8125 0.34375 -11.1875
L29.8906 69.8281
Q30.0781 70.4531 30.3906 70.8125
Q30.7188 71.1875 31.1719 71.4062
Q31.6406 71.625 32.375 71.7031
Q33.1094 71.7812 34.125 71.7812
Q35.3594 71.7812 36.1406 71.6094
Q36.9219 71.4375 37.3594 71.1406
Q37.7969 70.8438 37.8906 70.3594
Q37.9844 69.875 37.75 69.2344
z
" id="Calibri-2f"/>
     </defs>
     <g transform="translate(135.0375 46.66)scale(0.16 -0.16)">
      <use transform="translate(0.0 0.21875)" xlink:href="#Calibri-Italic-44"/>
      <use transform="translate(61.5234375 0.21875)" xlink:href="#Calibri-2f"/>
      <use transform="translate(100.146484375 0.21875)" xlink:href="#Calibri-Italic-44"/>
      <use transform="translate(161.669921875 -13.7875)scale(0.7)" xlink:href="#Calibri-30"/>
      <use transform="translate(228.173828125 0.21875)" xlink:href="#Calibri-3d"/>
      <use transform="translate(284.556640625 0.21875)" xlink:href="#Calibri-31"/>
      <use transform="translate(335.240234375 0.21875)" xlink:href="#Calibri-2e"/>
      <use transform="translate(361.544921875 0.21875)" xlink:href="#Calibri-30"/>
      <use transform="translate(412.228515625 0.21875)" xlink:href="#Calibri-30"/>
     </g>
    </g>
   </g>
  </g>
 </g>
 <defs>
  <clipPath id="p92318d09b9">
   <rect height="344.98" width="476.8384375" x="75.8375" y="21.06"/>
  </clipPath>
 </defs>
</svg>
